G75*
%MOIN*%
%OFA0B0*%
%FSLAX25Y25*%
%IPPOS*%
%LPD*%
%AMOC8*
5,1,8,0,0,1.08239X$1,22.5*
%
%ADD10C,0.05906*%
D10*
X0066551Y0010252D02*
X0065564Y0009861D01*
X0064568Y0009495D01*
X0063564Y0009154D01*
X0062551Y0008838D01*
X0061531Y0008546D01*
X0060503Y0008279D01*
X0059470Y0008038D01*
X0058431Y0007822D01*
X0057387Y0007632D01*
X0056339Y0007467D01*
X0055287Y0007329D01*
X0054232Y0007216D01*
X0053175Y0007129D01*
X0052115Y0007067D01*
X0051055Y0007032D01*
X0049994Y0007023D01*
X0048933Y0007040D01*
X0047873Y0007083D01*
X0046814Y0007152D01*
X0045757Y0007247D01*
X0044703Y0007368D01*
X0043652Y0007515D01*
X0042605Y0007687D01*
X0041562Y0007885D01*
X0040525Y0008109D01*
X0039494Y0008358D01*
X0038469Y0008632D01*
X0037451Y0008931D01*
X0036440Y0009255D01*
X0035438Y0009604D01*
X0034445Y0009977D01*
X0033461Y0010375D01*
X0032487Y0010796D01*
X0031524Y0011242D01*
X0030572Y0011711D01*
X0029632Y0012203D01*
X0028704Y0012718D01*
X0027790Y0013255D01*
X0026888Y0013815D01*
X0026001Y0014397D01*
X0025128Y0015000D01*
X0024270Y0015625D01*
X0023428Y0016270D01*
X0022602Y0016936D01*
X0021793Y0017622D01*
X0021000Y0018328D01*
X0020225Y0019053D01*
X0019468Y0019796D01*
X0018730Y0020559D01*
X0018011Y0021338D01*
X0017310Y0022136D01*
X0016630Y0022950D01*
X0015970Y0023781D01*
X0015330Y0024627D01*
X0014712Y0025489D01*
X0014114Y0026366D01*
X0013539Y0027258D01*
X0012985Y0028163D01*
X0012454Y0029082D01*
X0011946Y0030013D01*
X0011460Y0030957D01*
X0010998Y0031912D01*
X0010559Y0032878D01*
X0010145Y0033855D01*
X0009754Y0034841D01*
X0009388Y0035837D01*
X0009046Y0036841D01*
X0008729Y0037854D01*
X0008436Y0038874D01*
X0008169Y0039901D01*
X0007928Y0040934D01*
X0007711Y0041973D01*
X0007521Y0043017D01*
X0007355Y0044065D01*
X0007216Y0045117D01*
X0007103Y0046172D01*
X0007015Y0047229D01*
X0006953Y0048289D01*
X0006918Y0049349D01*
X0006908Y0050410D01*
X0006925Y0051471D01*
X0006967Y0052531D01*
X0007036Y0053590D01*
X0007130Y0054647D01*
X0007250Y0055701D01*
X0007397Y0056752D01*
X0007568Y0057799D01*
X0007766Y0058842D01*
X0007989Y0059879D01*
X0008238Y0060911D01*
X0008511Y0061936D01*
X0008810Y0062954D01*
X0009134Y0063965D01*
X0009482Y0064967D01*
X0009855Y0065960D01*
X0010252Y0066944D01*
X0034268Y0090173D02*
X0035248Y0090558D01*
X0036237Y0090919D01*
X0037234Y0091255D01*
X0038240Y0091566D01*
X0039252Y0091853D01*
X0040272Y0092116D01*
X0041297Y0092353D01*
X0042328Y0092565D01*
X0043364Y0092751D01*
X0044404Y0092912D01*
X0045448Y0093048D01*
X0046495Y0093158D01*
X0047544Y0093243D01*
X0048595Y0093301D01*
X0049647Y0093334D01*
X0050699Y0093341D01*
X0051752Y0093323D01*
X0052803Y0093278D01*
X0053854Y0093208D01*
X0054902Y0093113D01*
X0055947Y0092991D01*
X0056990Y0092844D01*
X0058028Y0092672D01*
X0059062Y0092474D01*
X0060090Y0092251D01*
X0061113Y0092003D01*
X0062130Y0091730D01*
X0063139Y0091432D01*
X0064141Y0091109D01*
X0065135Y0090762D01*
X0066120Y0090391D01*
X0067095Y0089996D01*
X0068061Y0089577D01*
X0069016Y0089134D01*
X0069960Y0088669D01*
X0070892Y0088180D01*
X0071812Y0087669D01*
X0072719Y0087135D01*
X0073613Y0086579D01*
X0074493Y0086001D01*
X0075359Y0085403D01*
X0076209Y0084783D01*
X0077045Y0084142D01*
X0077864Y0083481D01*
X0078667Y0082801D01*
X0079453Y0082101D01*
X0080221Y0081381D01*
X0080972Y0080644D01*
X0081704Y0079888D01*
X0082418Y0079114D01*
X0083113Y0078323D01*
X0083788Y0077516D01*
X0084443Y0076692D01*
X0085077Y0075852D01*
X0085691Y0074997D01*
X0086284Y0074127D01*
X0086856Y0073243D01*
X0087405Y0072346D01*
X0087932Y0071435D01*
X0088437Y0070511D01*
X0088919Y0069576D01*
X0089379Y0068628D01*
X0089814Y0067670D01*
X0090227Y0066702D01*
X0090615Y0065724D01*
X0090979Y0064736D01*
X0091319Y0063740D01*
X0091635Y0062736D01*
X0091926Y0061724D01*
X0092192Y0060706D01*
X0092433Y0059681D01*
X0092648Y0058651D01*
X0092839Y0057616D01*
X0093004Y0056576D01*
X0093144Y0055533D01*
X0093258Y0054487D01*
X0093346Y0053438D01*
X0093409Y0052387D01*
X0093446Y0051335D01*
X0093457Y0050283D01*
X0093442Y0049230D01*
X0093402Y0048179D01*
X0093336Y0047128D01*
X0093244Y0046079D01*
X0093127Y0045033D01*
X0092984Y0043991D01*
X0092815Y0042952D01*
X0092621Y0041917D01*
X0092402Y0040888D01*
X0092158Y0039864D01*
X0091889Y0038846D01*
X0091595Y0037836D01*
X0091276Y0036833D01*
X0090933Y0035838D01*
X0090565Y0034851D01*
X0090174Y0033874D01*
X0108677Y0066944D02*
X0108280Y0065960D01*
X0107907Y0064967D01*
X0107559Y0063965D01*
X0107235Y0062954D01*
X0106936Y0061936D01*
X0106663Y0060911D01*
X0106414Y0059879D01*
X0106191Y0058842D01*
X0105993Y0057799D01*
X0105822Y0056752D01*
X0105675Y0055701D01*
X0105555Y0054647D01*
X0105461Y0053590D01*
X0105392Y0052531D01*
X0105350Y0051471D01*
X0105333Y0050410D01*
X0105343Y0049349D01*
X0105378Y0048289D01*
X0105440Y0047229D01*
X0105528Y0046172D01*
X0105641Y0045117D01*
X0105780Y0044065D01*
X0105946Y0043017D01*
X0106136Y0041973D01*
X0106353Y0040934D01*
X0106594Y0039901D01*
X0106861Y0038874D01*
X0107154Y0037854D01*
X0107471Y0036841D01*
X0107813Y0035837D01*
X0108179Y0034841D01*
X0108570Y0033855D01*
X0108984Y0032878D01*
X0109423Y0031912D01*
X0109885Y0030957D01*
X0110371Y0030013D01*
X0110879Y0029082D01*
X0111410Y0028163D01*
X0111964Y0027258D01*
X0112539Y0026366D01*
X0113137Y0025489D01*
X0113755Y0024627D01*
X0114395Y0023781D01*
X0115055Y0022950D01*
X0115735Y0022136D01*
X0116436Y0021338D01*
X0117155Y0020559D01*
X0117893Y0019796D01*
X0118650Y0019053D01*
X0119425Y0018328D01*
X0120218Y0017622D01*
X0121027Y0016936D01*
X0121853Y0016270D01*
X0122695Y0015625D01*
X0123553Y0015000D01*
X0124426Y0014397D01*
X0125313Y0013815D01*
X0126215Y0013255D01*
X0127129Y0012718D01*
X0128057Y0012203D01*
X0128997Y0011711D01*
X0129949Y0011242D01*
X0130912Y0010796D01*
X0131886Y0010375D01*
X0132870Y0009977D01*
X0133863Y0009604D01*
X0134865Y0009255D01*
X0135876Y0008931D01*
X0136894Y0008632D01*
X0137919Y0008358D01*
X0138950Y0008109D01*
X0139987Y0007885D01*
X0141030Y0007687D01*
X0142077Y0007515D01*
X0143128Y0007368D01*
X0144182Y0007247D01*
X0145239Y0007152D01*
X0146298Y0007083D01*
X0147358Y0007040D01*
X0148419Y0007023D01*
X0149480Y0007032D01*
X0150540Y0007067D01*
X0151600Y0007129D01*
X0152657Y0007216D01*
X0153712Y0007329D01*
X0154764Y0007467D01*
X0155812Y0007632D01*
X0156856Y0007822D01*
X0157895Y0008038D01*
X0158928Y0008279D01*
X0159956Y0008546D01*
X0160976Y0008838D01*
X0161989Y0009154D01*
X0162993Y0009495D01*
X0163989Y0009861D01*
X0164976Y0010252D01*
X0188599Y0033874D02*
X0188990Y0034851D01*
X0189358Y0035838D01*
X0189701Y0036833D01*
X0190020Y0037836D01*
X0190314Y0038846D01*
X0190583Y0039864D01*
X0190827Y0040888D01*
X0191046Y0041917D01*
X0191240Y0042952D01*
X0191409Y0043991D01*
X0191552Y0045033D01*
X0191669Y0046079D01*
X0191761Y0047128D01*
X0191827Y0048179D01*
X0191867Y0049230D01*
X0191882Y0050283D01*
X0191871Y0051335D01*
X0191834Y0052387D01*
X0191771Y0053438D01*
X0191683Y0054487D01*
X0191569Y0055533D01*
X0191429Y0056576D01*
X0191264Y0057616D01*
X0191073Y0058651D01*
X0190858Y0059681D01*
X0190617Y0060706D01*
X0190351Y0061724D01*
X0190060Y0062736D01*
X0189744Y0063740D01*
X0189404Y0064736D01*
X0189040Y0065724D01*
X0188652Y0066702D01*
X0188239Y0067670D01*
X0187804Y0068628D01*
X0187344Y0069576D01*
X0186862Y0070511D01*
X0186357Y0071435D01*
X0185830Y0072346D01*
X0185281Y0073243D01*
X0184709Y0074127D01*
X0184116Y0074997D01*
X0183502Y0075852D01*
X0182868Y0076692D01*
X0182213Y0077516D01*
X0181538Y0078323D01*
X0180843Y0079114D01*
X0180129Y0079888D01*
X0179397Y0080644D01*
X0178646Y0081381D01*
X0177878Y0082101D01*
X0177092Y0082801D01*
X0176289Y0083481D01*
X0175470Y0084142D01*
X0174634Y0084783D01*
X0173784Y0085403D01*
X0172918Y0086001D01*
X0172038Y0086579D01*
X0171144Y0087135D01*
X0170237Y0087669D01*
X0169317Y0088180D01*
X0168385Y0088669D01*
X0167441Y0089134D01*
X0166486Y0089577D01*
X0165520Y0089996D01*
X0164545Y0090391D01*
X0163560Y0090762D01*
X0162566Y0091109D01*
X0161564Y0091432D01*
X0160555Y0091730D01*
X0159538Y0092003D01*
X0158515Y0092251D01*
X0157487Y0092474D01*
X0156453Y0092672D01*
X0155415Y0092844D01*
X0154372Y0092991D01*
X0153327Y0093113D01*
X0152279Y0093208D01*
X0151228Y0093278D01*
X0150177Y0093323D01*
X0149124Y0093341D01*
X0148072Y0093334D01*
X0147020Y0093301D01*
X0145969Y0093243D01*
X0144920Y0093158D01*
X0143873Y0093048D01*
X0142829Y0092912D01*
X0141789Y0092751D01*
X0140753Y0092565D01*
X0139722Y0092353D01*
X0138697Y0092116D01*
X0137677Y0091853D01*
X0136665Y0091566D01*
X0135659Y0091255D01*
X0134662Y0090919D01*
X0133673Y0090558D01*
X0132693Y0090173D01*
X0165370Y0108678D02*
X0164383Y0108287D01*
X0163387Y0107921D01*
X0162383Y0107580D01*
X0161370Y0107264D01*
X0160350Y0106972D01*
X0159322Y0106705D01*
X0158289Y0106464D01*
X0157250Y0106248D01*
X0156206Y0106058D01*
X0155158Y0105893D01*
X0154106Y0105755D01*
X0153051Y0105642D01*
X0151994Y0105555D01*
X0150934Y0105493D01*
X0149874Y0105458D01*
X0148813Y0105449D01*
X0147752Y0105466D01*
X0146692Y0105509D01*
X0145633Y0105578D01*
X0144576Y0105673D01*
X0143522Y0105794D01*
X0142471Y0105941D01*
X0141424Y0106113D01*
X0140381Y0106311D01*
X0139344Y0106535D01*
X0138313Y0106784D01*
X0137288Y0107058D01*
X0136270Y0107357D01*
X0135259Y0107681D01*
X0134257Y0108030D01*
X0133264Y0108403D01*
X0132280Y0108801D01*
X0131306Y0109222D01*
X0130343Y0109668D01*
X0129391Y0110137D01*
X0128451Y0110629D01*
X0127523Y0111144D01*
X0126609Y0111681D01*
X0125707Y0112241D01*
X0124820Y0112823D01*
X0123947Y0113426D01*
X0123089Y0114051D01*
X0122247Y0114696D01*
X0121421Y0115362D01*
X0120612Y0116048D01*
X0119819Y0116754D01*
X0119044Y0117479D01*
X0118287Y0118222D01*
X0117549Y0118985D01*
X0116830Y0119764D01*
X0116129Y0120562D01*
X0115449Y0121376D01*
X0114789Y0122207D01*
X0114149Y0123053D01*
X0113531Y0123915D01*
X0112933Y0124792D01*
X0112358Y0125684D01*
X0111804Y0126589D01*
X0111273Y0127508D01*
X0110765Y0128439D01*
X0110279Y0129383D01*
X0109817Y0130338D01*
X0109378Y0131304D01*
X0108964Y0132281D01*
X0108573Y0133267D01*
X0108207Y0134263D01*
X0107865Y0135267D01*
X0107548Y0136280D01*
X0107255Y0137300D01*
X0106988Y0138327D01*
X0106747Y0139360D01*
X0106530Y0140399D01*
X0106340Y0141443D01*
X0106174Y0142491D01*
X0106035Y0143543D01*
X0105922Y0144598D01*
X0105834Y0145655D01*
X0105772Y0146715D01*
X0105737Y0147775D01*
X0105727Y0148836D01*
X0105744Y0149897D01*
X0105786Y0150957D01*
X0105855Y0152016D01*
X0105949Y0153073D01*
X0106069Y0154127D01*
X0106216Y0155178D01*
X0106387Y0156225D01*
X0106585Y0157268D01*
X0106808Y0158305D01*
X0107057Y0159337D01*
X0107330Y0160362D01*
X0107629Y0161380D01*
X0107953Y0162391D01*
X0108301Y0163393D01*
X0108674Y0164386D01*
X0109071Y0165370D01*
X0133086Y0188598D02*
X0134066Y0188983D01*
X0135055Y0189344D01*
X0136052Y0189680D01*
X0137058Y0189991D01*
X0138070Y0190278D01*
X0139090Y0190541D01*
X0140115Y0190778D01*
X0141146Y0190990D01*
X0142182Y0191176D01*
X0143222Y0191337D01*
X0144266Y0191473D01*
X0145313Y0191583D01*
X0146362Y0191668D01*
X0147413Y0191726D01*
X0148465Y0191759D01*
X0149517Y0191766D01*
X0150570Y0191748D01*
X0151621Y0191703D01*
X0152672Y0191633D01*
X0153720Y0191538D01*
X0154765Y0191416D01*
X0155808Y0191269D01*
X0156846Y0191097D01*
X0157880Y0190899D01*
X0158908Y0190676D01*
X0159931Y0190428D01*
X0160948Y0190155D01*
X0161957Y0189857D01*
X0162959Y0189534D01*
X0163953Y0189187D01*
X0164938Y0188816D01*
X0165913Y0188421D01*
X0166879Y0188002D01*
X0167834Y0187559D01*
X0168778Y0187094D01*
X0169710Y0186605D01*
X0170630Y0186094D01*
X0171537Y0185560D01*
X0172431Y0185004D01*
X0173311Y0184426D01*
X0174177Y0183828D01*
X0175027Y0183208D01*
X0175863Y0182567D01*
X0176682Y0181906D01*
X0177485Y0181226D01*
X0178271Y0180526D01*
X0179039Y0179806D01*
X0179790Y0179069D01*
X0180522Y0178313D01*
X0181236Y0177539D01*
X0181931Y0176748D01*
X0182606Y0175941D01*
X0183261Y0175117D01*
X0183895Y0174277D01*
X0184509Y0173422D01*
X0185102Y0172552D01*
X0185674Y0171668D01*
X0186223Y0170771D01*
X0186750Y0169860D01*
X0187255Y0168936D01*
X0187737Y0168001D01*
X0188197Y0167053D01*
X0188632Y0166095D01*
X0189045Y0165127D01*
X0189433Y0164149D01*
X0189797Y0163161D01*
X0190137Y0162165D01*
X0190453Y0161161D01*
X0190744Y0160149D01*
X0191010Y0159131D01*
X0191251Y0158106D01*
X0191466Y0157076D01*
X0191657Y0156041D01*
X0191822Y0155001D01*
X0191962Y0153958D01*
X0192076Y0152912D01*
X0192164Y0151863D01*
X0192227Y0150812D01*
X0192264Y0149760D01*
X0192275Y0148708D01*
X0192260Y0147655D01*
X0192220Y0146604D01*
X0192154Y0145553D01*
X0192062Y0144504D01*
X0191945Y0143458D01*
X0191802Y0142416D01*
X0191633Y0141377D01*
X0191439Y0140342D01*
X0191220Y0139313D01*
X0190976Y0138289D01*
X0190707Y0137271D01*
X0190413Y0136261D01*
X0190094Y0135258D01*
X0189751Y0134263D01*
X0189383Y0133276D01*
X0188992Y0132299D01*
X0090567Y0132299D02*
X0090958Y0133276D01*
X0091326Y0134263D01*
X0091669Y0135258D01*
X0091988Y0136261D01*
X0092282Y0137271D01*
X0092551Y0138289D01*
X0092795Y0139313D01*
X0093014Y0140342D01*
X0093208Y0141377D01*
X0093377Y0142416D01*
X0093520Y0143458D01*
X0093637Y0144504D01*
X0093729Y0145553D01*
X0093795Y0146604D01*
X0093835Y0147655D01*
X0093850Y0148708D01*
X0093839Y0149760D01*
X0093802Y0150812D01*
X0093739Y0151863D01*
X0093651Y0152912D01*
X0093537Y0153958D01*
X0093397Y0155001D01*
X0093232Y0156041D01*
X0093041Y0157076D01*
X0092826Y0158106D01*
X0092585Y0159131D01*
X0092319Y0160149D01*
X0092028Y0161161D01*
X0091712Y0162165D01*
X0091372Y0163161D01*
X0091008Y0164149D01*
X0090620Y0165127D01*
X0090207Y0166095D01*
X0089772Y0167053D01*
X0089312Y0168001D01*
X0088830Y0168936D01*
X0088325Y0169860D01*
X0087798Y0170771D01*
X0087249Y0171668D01*
X0086677Y0172552D01*
X0086084Y0173422D01*
X0085470Y0174277D01*
X0084836Y0175117D01*
X0084181Y0175941D01*
X0083506Y0176748D01*
X0082811Y0177539D01*
X0082097Y0178313D01*
X0081365Y0179069D01*
X0080614Y0179806D01*
X0079846Y0180526D01*
X0079060Y0181226D01*
X0078257Y0181906D01*
X0077438Y0182567D01*
X0076602Y0183208D01*
X0075752Y0183828D01*
X0074886Y0184426D01*
X0074006Y0185004D01*
X0073112Y0185560D01*
X0072205Y0186094D01*
X0071285Y0186605D01*
X0070353Y0187094D01*
X0069409Y0187559D01*
X0068454Y0188002D01*
X0067488Y0188421D01*
X0066513Y0188816D01*
X0065528Y0189187D01*
X0064534Y0189534D01*
X0063532Y0189857D01*
X0062523Y0190155D01*
X0061506Y0190428D01*
X0060483Y0190676D01*
X0059455Y0190899D01*
X0058421Y0191097D01*
X0057383Y0191269D01*
X0056340Y0191416D01*
X0055295Y0191538D01*
X0054247Y0191633D01*
X0053196Y0191703D01*
X0052145Y0191748D01*
X0051092Y0191766D01*
X0050040Y0191759D01*
X0048988Y0191726D01*
X0047937Y0191668D01*
X0046888Y0191583D01*
X0045841Y0191473D01*
X0044797Y0191337D01*
X0043757Y0191176D01*
X0042721Y0190990D01*
X0041690Y0190778D01*
X0040665Y0190541D01*
X0039645Y0190278D01*
X0038633Y0189991D01*
X0037627Y0189680D01*
X0036630Y0189344D01*
X0035641Y0188983D01*
X0034661Y0188598D01*
X0010646Y0165370D02*
X0010249Y0164386D01*
X0009876Y0163393D01*
X0009528Y0162391D01*
X0009204Y0161380D01*
X0008905Y0160362D01*
X0008632Y0159337D01*
X0008383Y0158305D01*
X0008160Y0157268D01*
X0007962Y0156225D01*
X0007791Y0155178D01*
X0007644Y0154127D01*
X0007524Y0153073D01*
X0007430Y0152016D01*
X0007361Y0150957D01*
X0007319Y0149897D01*
X0007302Y0148836D01*
X0007312Y0147775D01*
X0007347Y0146715D01*
X0007409Y0145655D01*
X0007497Y0144598D01*
X0007610Y0143543D01*
X0007749Y0142491D01*
X0007915Y0141443D01*
X0008105Y0140399D01*
X0008322Y0139360D01*
X0008563Y0138327D01*
X0008830Y0137300D01*
X0009123Y0136280D01*
X0009440Y0135267D01*
X0009782Y0134263D01*
X0010148Y0133267D01*
X0010539Y0132281D01*
X0010953Y0131304D01*
X0011392Y0130338D01*
X0011854Y0129383D01*
X0012340Y0128439D01*
X0012848Y0127508D01*
X0013379Y0126589D01*
X0013933Y0125684D01*
X0014508Y0124792D01*
X0015106Y0123915D01*
X0015724Y0123053D01*
X0016364Y0122207D01*
X0017024Y0121376D01*
X0017704Y0120562D01*
X0018405Y0119764D01*
X0019124Y0118985D01*
X0019862Y0118222D01*
X0020619Y0117479D01*
X0021394Y0116754D01*
X0022187Y0116048D01*
X0022996Y0115362D01*
X0023822Y0114696D01*
X0024664Y0114051D01*
X0025522Y0113426D01*
X0026395Y0112823D01*
X0027282Y0112241D01*
X0028184Y0111681D01*
X0029098Y0111144D01*
X0030026Y0110629D01*
X0030966Y0110137D01*
X0031918Y0109668D01*
X0032881Y0109222D01*
X0033855Y0108801D01*
X0034839Y0108403D01*
X0035832Y0108030D01*
X0036834Y0107681D01*
X0037845Y0107357D01*
X0038863Y0107058D01*
X0039888Y0106784D01*
X0040919Y0106535D01*
X0041956Y0106311D01*
X0042999Y0106113D01*
X0044046Y0105941D01*
X0045097Y0105794D01*
X0046151Y0105673D01*
X0047208Y0105578D01*
X0048267Y0105509D01*
X0049327Y0105466D01*
X0050388Y0105449D01*
X0051449Y0105458D01*
X0052509Y0105493D01*
X0053569Y0105555D01*
X0054626Y0105642D01*
X0055681Y0105755D01*
X0056733Y0105893D01*
X0057781Y0106058D01*
X0058825Y0106248D01*
X0059864Y0106464D01*
X0060897Y0106705D01*
X0061925Y0106972D01*
X0062945Y0107264D01*
X0063958Y0107580D01*
X0064962Y0107921D01*
X0065958Y0108287D01*
X0066945Y0108678D01*
M02*
