G75*
%MOIN*%
%OFA0B0*%
%FSLAX25Y25*%
%IPPOS*%
%LPD*%
%AMOC8*
5,1,8,0,0,1.08239X$1,22.5*
%
%ADD10C,0.15367*%
%ADD11C,0.02572*%
%ADD12C,0.05950*%
%ADD13R,0.09461X0.03162*%
%ADD14OC8,0.06000*%
%ADD15R,0.05131X0.04737*%
%ADD16C,0.04762*%
D10*
X0016945Y0050409D03*
X0083874Y0050409D03*
X0115370Y0050409D03*
X0182299Y0050409D03*
X0182693Y0148835D03*
X0115764Y0148835D03*
X0084268Y0148835D03*
X0017339Y0148835D03*
D11*
X0012614Y0169307D03*
X0014189Y0171669D03*
X0015764Y0174031D03*
X0017732Y0176394D03*
X0019701Y0178362D03*
X0021669Y0180331D03*
X0023638Y0182299D03*
X0026000Y0183874D03*
X0028362Y0185449D03*
X0030724Y0186630D03*
X0088205Y0128362D03*
X0086630Y0125606D03*
X0085055Y0123244D03*
X0083087Y0120882D03*
X0081118Y0118520D03*
X0078756Y0116551D03*
X0076394Y0114583D03*
X0073638Y0112614D03*
X0070882Y0111039D03*
X0030331Y0088205D03*
X0027969Y0087024D03*
X0025606Y0085449D03*
X0023244Y0083874D03*
X0021276Y0081906D03*
X0019307Y0079937D03*
X0017339Y0077969D03*
X0015370Y0075606D03*
X0013795Y0073244D03*
X0012220Y0070882D03*
X0070882Y0012220D03*
X0073638Y0013795D03*
X0076394Y0015764D03*
X0078756Y0017732D03*
X0081118Y0019701D03*
X0083087Y0022063D03*
X0085055Y0024425D03*
X0086630Y0026787D03*
X0088205Y0029543D03*
X0110646Y0070882D03*
X0112220Y0073244D03*
X0113795Y0075606D03*
X0115764Y0077969D03*
X0117732Y0079937D03*
X0119701Y0081906D03*
X0121669Y0083874D03*
X0124031Y0085449D03*
X0126394Y0087024D03*
X0128756Y0088205D03*
X0169307Y0111039D03*
X0172063Y0112614D03*
X0174819Y0114583D03*
X0177181Y0116551D03*
X0179543Y0118520D03*
X0181512Y0120882D03*
X0183480Y0123244D03*
X0185055Y0125606D03*
X0186630Y0128362D03*
X0129150Y0186630D03*
X0126787Y0185449D03*
X0124425Y0183874D03*
X0122063Y0182299D03*
X0120094Y0180331D03*
X0118126Y0178362D03*
X0116157Y0176394D03*
X0114189Y0174031D03*
X0112614Y0171669D03*
X0111039Y0169307D03*
X0186630Y0029543D03*
X0185055Y0026787D03*
X0183480Y0024425D03*
X0181512Y0022063D03*
X0179543Y0019701D03*
X0177181Y0017732D03*
X0174819Y0015764D03*
X0172063Y0013795D03*
X0169307Y0012220D03*
D12*
X0148835Y0045409D03*
X0148835Y0055409D03*
X0149228Y0143835D03*
X0149228Y0153835D03*
X0050803Y0153835D03*
X0050803Y0143835D03*
X0050409Y0055409D03*
X0050409Y0045409D03*
D13*
X0040173Y0033106D03*
X0040173Y0028106D03*
X0040173Y0023106D03*
X0040173Y0018106D03*
X0060646Y0018106D03*
X0060646Y0023106D03*
X0060646Y0028106D03*
X0060646Y0033106D03*
X0138598Y0033106D03*
X0138598Y0028106D03*
X0138598Y0023106D03*
X0138598Y0018106D03*
X0159071Y0018106D03*
X0159071Y0023106D03*
X0159071Y0028106D03*
X0159071Y0033106D03*
X0159465Y0116531D03*
X0159465Y0121531D03*
X0159465Y0126531D03*
X0159465Y0131531D03*
X0138992Y0131531D03*
X0138992Y0126531D03*
X0138992Y0121531D03*
X0138992Y0116531D03*
X0061039Y0116531D03*
X0061039Y0121531D03*
X0061039Y0126531D03*
X0061039Y0131531D03*
X0040567Y0131531D03*
X0040567Y0126531D03*
X0040567Y0121531D03*
X0040567Y0116531D03*
D14*
X0045409Y0077969D03*
X0055409Y0077969D03*
X0143835Y0077969D03*
X0153835Y0077969D03*
X0154228Y0176394D03*
X0144228Y0176394D03*
X0055803Y0176394D03*
X0045803Y0176394D03*
D15*
X0071866Y0133874D03*
X0078559Y0133874D03*
X0170291Y0133874D03*
X0176984Y0133874D03*
X0176591Y0035449D03*
X0169898Y0035449D03*
X0078165Y0035449D03*
X0071472Y0035449D03*
D16*
X0032299Y0038992D03*
X0040173Y0038205D03*
X0047654Y0038598D03*
X0055528Y0038598D03*
X0072063Y0028362D03*
X0050016Y0019307D03*
X0130724Y0038992D03*
X0138598Y0038205D03*
X0146079Y0038598D03*
X0153953Y0038598D03*
X0170488Y0028362D03*
X0148441Y0019307D03*
X0148835Y0117732D03*
X0146472Y0137024D03*
X0138992Y0136630D03*
X0131118Y0137417D03*
X0154346Y0137024D03*
X0170882Y0126787D03*
X0072457Y0126787D03*
X0055921Y0137024D03*
X0048047Y0137024D03*
X0040567Y0136630D03*
X0032693Y0137417D03*
X0050409Y0117732D03*
M02*
