G75*
%MOIN*%
%OFA0B0*%
%FSLAX25Y25*%
%IPPOS*%
%LPD*%
%AMOC8*
5,1,8,0,0,1.08239X$1,22.5*
%
%ADD10R,0.03937X0.05512*%
%ADD11R,0.03937X0.04331*%
%ADD12C,0.06600*%
%ADD13OC8,0.06600*%
%ADD14C,0.01600*%
%ADD15C,0.01400*%
%ADD16C,0.03962*%
%ADD17C,0.00800*%
D10*
X0053077Y0024419D03*
X0060557Y0024419D03*
X0056817Y0015757D03*
X0151502Y0024419D03*
X0158982Y0024419D03*
X0155242Y0015757D03*
X0155242Y0114183D03*
X0158982Y0122844D03*
X0151502Y0122844D03*
X0060557Y0122844D03*
X0053077Y0122844D03*
X0056817Y0114183D03*
D11*
X0053521Y0130350D03*
X0060214Y0130350D03*
X0038065Y0129461D03*
X0031372Y0129461D03*
X0053521Y0031924D03*
X0060214Y0031924D03*
X0038065Y0031036D03*
X0031372Y0031036D03*
X0129797Y0031036D03*
X0136490Y0031036D03*
X0151946Y0031924D03*
X0158639Y0031924D03*
X0158639Y0130350D03*
X0151946Y0130350D03*
X0136490Y0129461D03*
X0129797Y0129461D03*
D12*
X0140764Y0148638D03*
X0156512Y0148638D03*
X0058087Y0148638D03*
X0042339Y0148638D03*
X0042339Y0050213D03*
X0058087Y0050213D03*
X0140764Y0050213D03*
X0156512Y0050213D03*
D13*
X0153638Y0077772D03*
X0143638Y0077772D03*
X0055213Y0077772D03*
X0045213Y0077772D03*
X0045213Y0176197D03*
X0055213Y0176197D03*
X0143638Y0176197D03*
X0153638Y0176197D03*
D14*
X0019139Y0027637D02*
X0023670Y0022451D01*
X0029053Y0018158D01*
X0035117Y0014895D01*
X0041666Y0012767D01*
X0048489Y0011843D01*
X0053518Y0012068D01*
X0053248Y0012339D01*
X0053248Y0013132D01*
X0052876Y0012760D01*
X0051560Y0012214D01*
X0050135Y0012214D01*
X0048819Y0012760D01*
X0047812Y0013767D01*
X0047266Y0015083D01*
X0047266Y0016508D01*
X0047812Y0017824D01*
X0048819Y0018831D01*
X0050135Y0019377D01*
X0051560Y0019377D01*
X0052876Y0018831D01*
X0053248Y0018459D01*
X0053248Y0019176D01*
X0054135Y0020063D01*
X0050445Y0020063D01*
X0049508Y0021000D01*
X0049508Y0027837D01*
X0050360Y0028689D01*
X0049953Y0029096D01*
X0049953Y0034566D01*
X0049627Y0034566D01*
X0048311Y0035112D01*
X0047304Y0036119D01*
X0046758Y0037435D01*
X0046758Y0038860D01*
X0047304Y0040176D01*
X0048311Y0041183D01*
X0049627Y0041729D01*
X0051052Y0041729D01*
X0052368Y0041183D01*
X0053375Y0040176D01*
X0053921Y0038860D01*
X0053921Y0037819D01*
X0055821Y0035919D01*
X0055821Y0035690D01*
X0056152Y0035690D01*
X0056867Y0034975D01*
X0057583Y0035690D01*
X0062845Y0035690D01*
X0063782Y0034753D01*
X0063782Y0030541D01*
X0065863Y0030541D01*
X0066599Y0031277D01*
X0067915Y0031823D01*
X0069340Y0031823D01*
X0070656Y0031277D01*
X0071663Y0030270D01*
X0072209Y0028954D01*
X0072209Y0027529D01*
X0071663Y0026213D01*
X0070656Y0025206D01*
X0069340Y0024660D01*
X0067915Y0024660D01*
X0066599Y0025206D01*
X0065863Y0025942D01*
X0065332Y0025942D01*
X0064125Y0024735D01*
X0064125Y0021000D01*
X0063188Y0020063D01*
X0059498Y0020063D01*
X0060385Y0019176D01*
X0060385Y0013297D01*
X0062082Y0013684D01*
X0065963Y0015343D01*
X0067464Y0016844D01*
X0069481Y0017679D01*
X0070220Y0018419D01*
X0071564Y0018975D01*
X0072976Y0020387D01*
X0073712Y0020692D01*
X0073739Y0020756D01*
X0075338Y0022356D01*
X0075878Y0022579D01*
X0076101Y0023118D01*
X0077700Y0024718D01*
X0078240Y0024941D01*
X0078463Y0025481D01*
X0079760Y0026777D01*
X0080038Y0027449D01*
X0081056Y0028467D01*
X0081613Y0029811D01*
X0082631Y0030829D01*
X0083188Y0032174D01*
X0084724Y0033710D01*
X0086172Y0036717D01*
X0086665Y0038504D01*
X0085268Y0038129D01*
X0082086Y0038129D01*
X0079013Y0038953D01*
X0076258Y0040543D01*
X0074008Y0042793D01*
X0072417Y0045549D01*
X0071594Y0048622D01*
X0071594Y0051803D01*
X0072417Y0054877D01*
X0074008Y0057632D01*
X0076258Y0059882D01*
X0079013Y0061473D01*
X0082086Y0062296D01*
X0085268Y0062296D01*
X0086665Y0061922D01*
X0086172Y0063708D01*
X0083184Y0069912D01*
X0079137Y0075483D01*
X0074160Y0080242D01*
X0068413Y0084035D01*
X0062082Y0086741D01*
X0055368Y0088274D01*
X0048489Y0088583D01*
X0041666Y0087658D01*
X0035117Y0085530D01*
X0034587Y0085245D01*
X0034560Y0085181D01*
X0032961Y0083581D01*
X0030945Y0082746D01*
X0030205Y0082007D01*
X0028861Y0081450D01*
X0027449Y0080038D01*
X0026435Y0079618D01*
X0026293Y0079275D01*
X0024693Y0077676D01*
X0024154Y0077452D01*
X0023930Y0076913D01*
X0022331Y0075314D01*
X0022070Y0075206D01*
X0021962Y0074945D01*
X0020362Y0073345D01*
X0020298Y0073319D01*
X0019993Y0072582D01*
X0018975Y0071564D01*
X0018419Y0070220D01*
X0017679Y0069481D01*
X0016844Y0067464D01*
X0015244Y0065865D01*
X0015224Y0065857D01*
X0013746Y0061918D01*
X0015157Y0062296D01*
X0018339Y0062296D01*
X0021412Y0061473D01*
X0024167Y0059882D01*
X0026417Y0057632D01*
X0028008Y0054877D01*
X0028831Y0051803D01*
X0028831Y0048622D01*
X0028008Y0045549D01*
X0026417Y0042793D01*
X0024167Y0040543D01*
X0021412Y0038953D01*
X0018339Y0038129D01*
X0015157Y0038129D01*
X0013746Y0038507D01*
X0015608Y0033548D01*
X0019139Y0027637D01*
X0018818Y0028175D02*
X0027727Y0028175D01*
X0027726Y0028176D02*
X0027963Y0027765D01*
X0028298Y0027430D01*
X0028709Y0027193D01*
X0029167Y0027070D01*
X0031188Y0027070D01*
X0031188Y0030851D01*
X0031556Y0030851D01*
X0031556Y0027070D01*
X0033578Y0027070D01*
X0034035Y0027193D01*
X0034446Y0027430D01*
X0034781Y0027765D01*
X0034839Y0027865D01*
X0035434Y0027270D01*
X0040696Y0027270D01*
X0041633Y0028208D01*
X0041633Y0030895D01*
X0041733Y0030895D01*
X0042469Y0030159D01*
X0043785Y0029613D01*
X0045210Y0029613D01*
X0046526Y0030159D01*
X0047533Y0031166D01*
X0048079Y0032482D01*
X0048079Y0033907D01*
X0047533Y0035223D01*
X0046526Y0036230D01*
X0045210Y0036776D01*
X0044169Y0036776D01*
X0037019Y0043926D01*
X0037019Y0060563D01*
X0046165Y0069710D01*
X0047513Y0071057D01*
X0047513Y0073142D01*
X0050113Y0075742D01*
X0050113Y0079801D01*
X0047242Y0082672D01*
X0043183Y0082672D01*
X0040313Y0079801D01*
X0040313Y0075742D01*
X0042913Y0073142D01*
X0042913Y0072962D01*
X0032419Y0062468D01*
X0032419Y0042021D01*
X0033766Y0040674D01*
X0039108Y0035331D01*
X0038578Y0034801D01*
X0035434Y0034801D01*
X0034839Y0034206D01*
X0034781Y0034306D01*
X0034446Y0034641D01*
X0034035Y0034878D01*
X0033578Y0035001D01*
X0031556Y0035001D01*
X0031556Y0031220D01*
X0031188Y0031220D01*
X0031188Y0035001D01*
X0029167Y0035001D01*
X0028709Y0034878D01*
X0028298Y0034641D01*
X0027963Y0034306D01*
X0027726Y0033896D01*
X0027604Y0033438D01*
X0027604Y0031220D01*
X0031188Y0031220D01*
X0031188Y0030851D01*
X0027604Y0030851D01*
X0027604Y0028633D01*
X0027726Y0028176D01*
X0027604Y0029773D02*
X0017863Y0029773D01*
X0016908Y0031372D02*
X0027604Y0031372D01*
X0027604Y0032970D02*
X0015953Y0032970D01*
X0015224Y0034569D02*
X0028226Y0034569D01*
X0031188Y0034569D02*
X0031556Y0034569D01*
X0031556Y0032970D02*
X0031188Y0032970D01*
X0031188Y0031372D02*
X0031556Y0031372D01*
X0031556Y0029773D02*
X0031188Y0029773D01*
X0031188Y0028175D02*
X0031556Y0028175D01*
X0034518Y0034569D02*
X0035201Y0034569D01*
X0036674Y0037766D02*
X0014025Y0037766D01*
X0014624Y0036167D02*
X0038272Y0036167D01*
X0041580Y0039364D02*
X0046967Y0039364D01*
X0046758Y0037766D02*
X0043179Y0037766D01*
X0046589Y0036167D02*
X0047284Y0036167D01*
X0047804Y0034569D02*
X0049622Y0034569D01*
X0049953Y0032970D02*
X0048079Y0032970D01*
X0047619Y0031372D02*
X0049953Y0031372D01*
X0049953Y0029773D02*
X0045596Y0029773D01*
X0043399Y0029773D02*
X0041633Y0029773D01*
X0041601Y0028175D02*
X0049845Y0028175D01*
X0049508Y0026576D02*
X0020066Y0026576D01*
X0021462Y0024978D02*
X0049508Y0024978D01*
X0049508Y0023379D02*
X0022859Y0023379D01*
X0024510Y0021781D02*
X0049508Y0021781D01*
X0050326Y0020182D02*
X0026515Y0020182D01*
X0028519Y0018584D02*
X0048571Y0018584D01*
X0047464Y0016985D02*
X0031233Y0016985D01*
X0034203Y0015387D02*
X0047266Y0015387D01*
X0047803Y0013788D02*
X0038523Y0013788D01*
X0045928Y0012190D02*
X0053397Y0012190D01*
X0053248Y0018584D02*
X0053124Y0018584D01*
X0060385Y0018584D02*
X0070619Y0018584D01*
X0072771Y0020182D02*
X0063307Y0020182D01*
X0064125Y0021781D02*
X0074763Y0021781D01*
X0076362Y0023379D02*
X0064125Y0023379D01*
X0064368Y0024978D02*
X0067149Y0024978D01*
X0070106Y0024978D02*
X0078255Y0024978D01*
X0079559Y0026576D02*
X0071814Y0026576D01*
X0072209Y0028175D02*
X0080764Y0028175D01*
X0081597Y0029773D02*
X0071869Y0029773D01*
X0070428Y0031372D02*
X0082856Y0031372D01*
X0083984Y0032970D02*
X0063782Y0032970D01*
X0063782Y0031372D02*
X0066827Y0031372D01*
X0063782Y0034569D02*
X0085138Y0034569D01*
X0085908Y0036167D02*
X0055572Y0036167D01*
X0053974Y0037766D02*
X0086462Y0037766D01*
X0078300Y0039364D02*
X0053712Y0039364D01*
X0052589Y0040963D02*
X0075838Y0040963D01*
X0074240Y0042561D02*
X0038383Y0042561D01*
X0037019Y0044160D02*
X0073219Y0044160D01*
X0072361Y0045758D02*
X0060578Y0045758D01*
X0060760Y0045851D02*
X0061409Y0046323D01*
X0061977Y0046890D01*
X0062449Y0047540D01*
X0062813Y0048255D01*
X0063061Y0049018D01*
X0063187Y0049811D01*
X0063187Y0050213D01*
X0063187Y0050614D01*
X0063061Y0051407D01*
X0062813Y0052170D01*
X0062449Y0052886D01*
X0061977Y0053535D01*
X0061409Y0054103D01*
X0060760Y0054574D01*
X0060044Y0054939D01*
X0059281Y0055187D01*
X0058488Y0055313D01*
X0058087Y0055313D01*
X0058087Y0050213D01*
X0063187Y0050213D01*
X0058087Y0050213D01*
X0058087Y0050213D01*
X0058087Y0050213D01*
X0058087Y0055313D01*
X0057685Y0055313D01*
X0056892Y0055187D01*
X0056129Y0054939D01*
X0055414Y0054574D01*
X0054764Y0054103D01*
X0054197Y0053535D01*
X0053725Y0052886D01*
X0053360Y0052170D01*
X0053112Y0051407D01*
X0052987Y0050614D01*
X0052987Y0050213D01*
X0058086Y0050213D01*
X0058086Y0050213D01*
X0052987Y0050213D01*
X0052987Y0049811D01*
X0053112Y0049018D01*
X0053360Y0048255D01*
X0053725Y0047540D01*
X0054197Y0046890D01*
X0054764Y0046323D01*
X0055414Y0045851D01*
X0056129Y0045486D01*
X0056892Y0045238D01*
X0057685Y0045113D01*
X0058087Y0045113D01*
X0058488Y0045113D01*
X0059281Y0045238D01*
X0060044Y0045486D01*
X0060760Y0045851D01*
X0062316Y0047357D02*
X0071933Y0047357D01*
X0071594Y0048955D02*
X0063041Y0048955D01*
X0063187Y0050554D02*
X0071594Y0050554D01*
X0071687Y0052152D02*
X0062819Y0052152D01*
X0061761Y0053751D02*
X0072116Y0053751D01*
X0072690Y0055349D02*
X0037019Y0055349D01*
X0037019Y0053751D02*
X0038947Y0053751D01*
X0039563Y0054367D02*
X0038185Y0052988D01*
X0037439Y0051187D01*
X0037439Y0049238D01*
X0038185Y0047437D01*
X0039563Y0046059D01*
X0041364Y0045313D01*
X0043313Y0045313D01*
X0045114Y0046059D01*
X0046493Y0047437D01*
X0047239Y0049238D01*
X0047239Y0051187D01*
X0046493Y0052988D01*
X0045114Y0054367D01*
X0043313Y0055113D01*
X0041364Y0055113D01*
X0039563Y0054367D01*
X0037838Y0052152D02*
X0037019Y0052152D01*
X0037019Y0050554D02*
X0037439Y0050554D01*
X0037556Y0048955D02*
X0037019Y0048955D01*
X0037019Y0047357D02*
X0038265Y0047357D01*
X0037019Y0045758D02*
X0040288Y0045758D01*
X0044389Y0045758D02*
X0055595Y0045758D01*
X0053857Y0047357D02*
X0046412Y0047357D01*
X0047122Y0048955D02*
X0053133Y0048955D01*
X0052987Y0050554D02*
X0047239Y0050554D01*
X0046839Y0052152D02*
X0053354Y0052152D01*
X0054412Y0053751D02*
X0045730Y0053751D01*
X0037019Y0056948D02*
X0073613Y0056948D01*
X0074922Y0058546D02*
X0037019Y0058546D01*
X0037019Y0060145D02*
X0076714Y0060145D01*
X0080024Y0061743D02*
X0038199Y0061743D01*
X0039798Y0063342D02*
X0086273Y0063342D01*
X0085579Y0064940D02*
X0041396Y0064940D01*
X0042995Y0066539D02*
X0084809Y0066539D01*
X0084039Y0068137D02*
X0044593Y0068137D01*
X0046192Y0069736D02*
X0083269Y0069736D01*
X0082151Y0071334D02*
X0047513Y0071334D01*
X0047513Y0072933D02*
X0053122Y0072933D01*
X0053183Y0072872D02*
X0057242Y0072872D01*
X0060113Y0075742D01*
X0060113Y0079801D01*
X0057242Y0082672D01*
X0053183Y0082672D01*
X0050313Y0079801D01*
X0050313Y0075742D01*
X0053183Y0072872D01*
X0051523Y0074532D02*
X0048902Y0074532D01*
X0050113Y0076130D02*
X0050313Y0076130D01*
X0050313Y0077729D02*
X0050113Y0077729D01*
X0050113Y0079327D02*
X0050313Y0079327D01*
X0051437Y0080926D02*
X0048988Y0080926D01*
X0047390Y0082524D02*
X0053035Y0082524D01*
X0057390Y0082524D02*
X0070702Y0082524D01*
X0073124Y0080926D02*
X0058988Y0080926D01*
X0060113Y0079327D02*
X0075117Y0079327D01*
X0076789Y0077729D02*
X0060113Y0077729D01*
X0060113Y0076130D02*
X0078460Y0076130D01*
X0079828Y0074532D02*
X0058902Y0074532D01*
X0057304Y0072933D02*
X0080990Y0072933D01*
X0068209Y0084123D02*
X0033502Y0084123D01*
X0035704Y0085721D02*
X0064469Y0085721D01*
X0059548Y0087320D02*
X0040624Y0087320D01*
X0043035Y0082524D02*
X0030723Y0082524D01*
X0028337Y0080926D02*
X0041437Y0080926D01*
X0040313Y0079327D02*
X0026314Y0079327D01*
X0024746Y0077729D02*
X0040313Y0077729D01*
X0040313Y0076130D02*
X0023147Y0076130D01*
X0021549Y0074532D02*
X0041523Y0074532D01*
X0042883Y0072933D02*
X0020139Y0072933D01*
X0018880Y0071334D02*
X0041285Y0071334D01*
X0039686Y0069736D02*
X0017934Y0069736D01*
X0017123Y0068137D02*
X0038088Y0068137D01*
X0036489Y0066539D02*
X0015919Y0066539D01*
X0014881Y0064940D02*
X0034891Y0064940D01*
X0033292Y0063342D02*
X0014281Y0063342D01*
X0020401Y0061743D02*
X0032419Y0061743D01*
X0032419Y0060145D02*
X0023712Y0060145D01*
X0025503Y0058546D02*
X0032419Y0058546D01*
X0032419Y0056948D02*
X0026812Y0056948D01*
X0027735Y0055349D02*
X0032419Y0055349D01*
X0032419Y0053751D02*
X0028310Y0053751D01*
X0028738Y0052152D02*
X0032419Y0052152D01*
X0032419Y0050554D02*
X0028831Y0050554D01*
X0028831Y0048955D02*
X0032419Y0048955D01*
X0032419Y0047357D02*
X0028493Y0047357D01*
X0028064Y0045758D02*
X0032419Y0045758D01*
X0032419Y0044160D02*
X0027206Y0044160D01*
X0026185Y0042561D02*
X0032419Y0042561D01*
X0033477Y0040963D02*
X0024587Y0040963D01*
X0022125Y0039364D02*
X0035075Y0039364D01*
X0039982Y0040963D02*
X0048090Y0040963D01*
X0058087Y0045113D02*
X0058087Y0050212D01*
X0058087Y0045113D01*
X0058087Y0045758D02*
X0058087Y0045758D01*
X0058087Y0047357D02*
X0058087Y0047357D01*
X0058087Y0048955D02*
X0058087Y0048955D01*
X0058087Y0050212D02*
X0058087Y0050212D01*
X0058087Y0050554D02*
X0058087Y0050554D01*
X0058087Y0052152D02*
X0058087Y0052152D01*
X0058087Y0053751D02*
X0058087Y0053751D01*
X0060385Y0016985D02*
X0067805Y0016985D01*
X0066007Y0015387D02*
X0060385Y0015387D01*
X0060385Y0013788D02*
X0062326Y0013788D01*
X0114033Y0033548D02*
X0112171Y0038507D01*
X0113582Y0038129D01*
X0116764Y0038129D01*
X0119837Y0038953D01*
X0122593Y0040543D01*
X0124842Y0042793D01*
X0126433Y0045549D01*
X0127257Y0048622D01*
X0127257Y0051803D01*
X0126433Y0054877D01*
X0124842Y0057632D01*
X0122593Y0059882D01*
X0119837Y0061473D01*
X0116764Y0062296D01*
X0113582Y0062296D01*
X0112171Y0061918D01*
X0113650Y0065857D01*
X0113670Y0065865D01*
X0115269Y0067464D01*
X0116104Y0069481D01*
X0116844Y0070220D01*
X0117401Y0071564D01*
X0118419Y0072582D01*
X0118724Y0073319D01*
X0118788Y0073345D01*
X0120387Y0074945D01*
X0120495Y0075206D01*
X0120756Y0075314D01*
X0122356Y0076913D01*
X0122579Y0077452D01*
X0123118Y0077676D01*
X0124718Y0079275D01*
X0124860Y0079618D01*
X0125874Y0080038D01*
X0127286Y0081450D01*
X0128630Y0082007D01*
X0129370Y0082746D01*
X0131386Y0083581D01*
X0132986Y0085181D01*
X0133012Y0085245D01*
X0133542Y0085530D01*
X0140091Y0087658D01*
X0146915Y0088583D01*
X0153794Y0088274D01*
X0160507Y0086741D01*
X0166838Y0084035D01*
X0172585Y0080242D01*
X0177562Y0075483D01*
X0181610Y0069912D01*
X0184597Y0063708D01*
X0185090Y0061922D01*
X0183693Y0062296D01*
X0180512Y0062296D01*
X0177438Y0061473D01*
X0174683Y0059882D01*
X0172433Y0057632D01*
X0170842Y0054877D01*
X0170019Y0051803D01*
X0170019Y0048622D01*
X0170842Y0045549D01*
X0172433Y0042793D01*
X0174683Y0040543D01*
X0177438Y0038953D01*
X0180512Y0038129D01*
X0183693Y0038129D01*
X0185090Y0038504D01*
X0184597Y0036717D01*
X0183149Y0033710D01*
X0181613Y0032174D01*
X0181056Y0030829D01*
X0180038Y0029811D01*
X0179481Y0028467D01*
X0178463Y0027449D01*
X0178185Y0026777D01*
X0176888Y0025481D01*
X0176665Y0024941D01*
X0176126Y0024718D01*
X0174526Y0023118D01*
X0174303Y0022579D01*
X0173763Y0022356D01*
X0172164Y0020756D01*
X0172137Y0020692D01*
X0171401Y0020387D01*
X0169990Y0018975D01*
X0168645Y0018419D01*
X0167906Y0017679D01*
X0165889Y0016844D01*
X0164389Y0015343D01*
X0160507Y0013684D01*
X0158810Y0013297D01*
X0158810Y0019176D01*
X0157923Y0020063D01*
X0161613Y0020063D01*
X0162551Y0021000D01*
X0162551Y0024735D01*
X0163757Y0025942D01*
X0164288Y0025942D01*
X0165024Y0025206D01*
X0166340Y0024660D01*
X0167765Y0024660D01*
X0169081Y0025206D01*
X0170089Y0026213D01*
X0170634Y0027529D01*
X0170634Y0028954D01*
X0170089Y0030270D01*
X0169081Y0031277D01*
X0167765Y0031823D01*
X0166340Y0031823D01*
X0165024Y0031277D01*
X0164288Y0030541D01*
X0162208Y0030541D01*
X0162208Y0034753D01*
X0161270Y0035690D01*
X0156008Y0035690D01*
X0155293Y0034975D01*
X0154577Y0035690D01*
X0154246Y0035690D01*
X0154246Y0035919D01*
X0152346Y0037819D01*
X0152346Y0038860D01*
X0151801Y0040176D01*
X0150793Y0041183D01*
X0149477Y0041729D01*
X0148052Y0041729D01*
X0146736Y0041183D01*
X0145729Y0040176D01*
X0145184Y0038860D01*
X0145184Y0037435D01*
X0145729Y0036119D01*
X0146736Y0035112D01*
X0148052Y0034566D01*
X0148378Y0034566D01*
X0148378Y0029096D01*
X0148785Y0028689D01*
X0147933Y0027837D01*
X0147933Y0021000D01*
X0148870Y0020063D01*
X0152560Y0020063D01*
X0151673Y0019176D01*
X0151673Y0018459D01*
X0151301Y0018831D01*
X0149985Y0019377D01*
X0148560Y0019377D01*
X0147244Y0018831D01*
X0146237Y0017824D01*
X0145692Y0016508D01*
X0145692Y0015083D01*
X0146237Y0013767D01*
X0147244Y0012760D01*
X0148560Y0012214D01*
X0149985Y0012214D01*
X0151301Y0012760D01*
X0151673Y0013132D01*
X0151673Y0012339D01*
X0151944Y0012068D01*
X0146915Y0011843D01*
X0140091Y0012767D01*
X0133542Y0014895D01*
X0127479Y0018158D01*
X0122095Y0022451D01*
X0117565Y0027637D01*
X0114033Y0033548D01*
X0114378Y0032970D02*
X0126029Y0032970D01*
X0126029Y0033438D02*
X0126029Y0031220D01*
X0129613Y0031220D01*
X0129613Y0035001D01*
X0127592Y0035001D01*
X0127134Y0034878D01*
X0126724Y0034641D01*
X0126388Y0034306D01*
X0126151Y0033896D01*
X0126029Y0033438D01*
X0126651Y0034569D02*
X0113650Y0034569D01*
X0113050Y0036167D02*
X0136697Y0036167D01*
X0137533Y0035331D02*
X0137003Y0034801D01*
X0133859Y0034801D01*
X0133264Y0034206D01*
X0133206Y0034306D01*
X0132871Y0034641D01*
X0132461Y0034878D01*
X0132003Y0035001D01*
X0129982Y0035001D01*
X0129982Y0031220D01*
X0129613Y0031220D01*
X0129613Y0030851D01*
X0129982Y0030851D01*
X0129982Y0027070D01*
X0132003Y0027070D01*
X0132461Y0027193D01*
X0132871Y0027430D01*
X0133206Y0027765D01*
X0133264Y0027865D01*
X0133859Y0027270D01*
X0139121Y0027270D01*
X0140059Y0028208D01*
X0140059Y0030895D01*
X0140158Y0030895D01*
X0140894Y0030159D01*
X0142210Y0029613D01*
X0143635Y0029613D01*
X0144951Y0030159D01*
X0145959Y0031166D01*
X0146504Y0032482D01*
X0146504Y0033907D01*
X0145959Y0035223D01*
X0144951Y0036230D01*
X0143635Y0036776D01*
X0142594Y0036776D01*
X0135444Y0043926D01*
X0135444Y0060563D01*
X0144590Y0069710D01*
X0145938Y0071057D01*
X0145938Y0073142D01*
X0148538Y0075742D01*
X0148538Y0079801D01*
X0145667Y0082672D01*
X0141608Y0082672D01*
X0138738Y0079801D01*
X0138738Y0075742D01*
X0141338Y0073142D01*
X0141338Y0072962D01*
X0130844Y0062468D01*
X0130844Y0042021D01*
X0132191Y0040674D01*
X0137533Y0035331D01*
X0135099Y0037766D02*
X0112450Y0037766D01*
X0115333Y0031372D02*
X0126029Y0031372D01*
X0126029Y0030851D02*
X0126029Y0028633D01*
X0126151Y0028176D01*
X0126388Y0027765D01*
X0126724Y0027430D01*
X0127134Y0027193D01*
X0127592Y0027070D01*
X0129613Y0027070D01*
X0129613Y0030851D01*
X0126029Y0030851D01*
X0126029Y0029773D02*
X0116288Y0029773D01*
X0117243Y0028175D02*
X0126152Y0028175D01*
X0129613Y0028175D02*
X0129982Y0028175D01*
X0129982Y0029773D02*
X0129613Y0029773D01*
X0129613Y0031372D02*
X0129982Y0031372D01*
X0129982Y0032970D02*
X0129613Y0032970D01*
X0129613Y0034569D02*
X0129982Y0034569D01*
X0132944Y0034569D02*
X0133627Y0034569D01*
X0133500Y0039364D02*
X0120550Y0039364D01*
X0123012Y0040963D02*
X0131902Y0040963D01*
X0130844Y0042561D02*
X0124611Y0042561D01*
X0125631Y0044160D02*
X0130844Y0044160D01*
X0130844Y0045758D02*
X0126489Y0045758D01*
X0126918Y0047357D02*
X0130844Y0047357D01*
X0130844Y0048955D02*
X0127257Y0048955D01*
X0127257Y0050554D02*
X0130844Y0050554D01*
X0130844Y0052152D02*
X0127163Y0052152D01*
X0126735Y0053751D02*
X0130844Y0053751D01*
X0130844Y0055349D02*
X0126160Y0055349D01*
X0125237Y0056948D02*
X0130844Y0056948D01*
X0130844Y0058546D02*
X0123928Y0058546D01*
X0122137Y0060145D02*
X0130844Y0060145D01*
X0130844Y0061743D02*
X0118826Y0061743D01*
X0114344Y0066539D02*
X0134914Y0066539D01*
X0133316Y0064940D02*
X0113306Y0064940D01*
X0112706Y0063342D02*
X0131717Y0063342D01*
X0135444Y0060145D02*
X0175139Y0060145D01*
X0173348Y0058546D02*
X0135444Y0058546D01*
X0135444Y0056948D02*
X0172038Y0056948D01*
X0171115Y0055349D02*
X0135444Y0055349D01*
X0135444Y0053751D02*
X0137372Y0053751D01*
X0137988Y0054367D02*
X0136610Y0052988D01*
X0135864Y0051187D01*
X0135864Y0049238D01*
X0136610Y0047437D01*
X0137988Y0046059D01*
X0139789Y0045313D01*
X0141738Y0045313D01*
X0143539Y0046059D01*
X0144918Y0047437D01*
X0145664Y0049238D01*
X0145664Y0051187D01*
X0144918Y0052988D01*
X0143539Y0054367D01*
X0141738Y0055113D01*
X0139789Y0055113D01*
X0137988Y0054367D01*
X0136264Y0052152D02*
X0135444Y0052152D01*
X0135444Y0050554D02*
X0135864Y0050554D01*
X0135981Y0048955D02*
X0135444Y0048955D01*
X0135444Y0047357D02*
X0136690Y0047357D01*
X0135444Y0045758D02*
X0138713Y0045758D01*
X0135444Y0044160D02*
X0171644Y0044160D01*
X0170786Y0045758D02*
X0159003Y0045758D01*
X0159185Y0045851D02*
X0158470Y0045486D01*
X0157706Y0045238D01*
X0156913Y0045113D01*
X0156512Y0045113D01*
X0156512Y0050212D01*
X0156512Y0050212D01*
X0156512Y0050213D02*
X0156512Y0050213D01*
X0156512Y0050213D01*
X0156512Y0055313D01*
X0156913Y0055313D01*
X0157706Y0055187D01*
X0158470Y0054939D01*
X0159185Y0054574D01*
X0159834Y0054103D01*
X0160402Y0053535D01*
X0160874Y0052886D01*
X0161238Y0052170D01*
X0161486Y0051407D01*
X0161612Y0050614D01*
X0161612Y0050213D01*
X0156512Y0050213D01*
X0156512Y0055313D01*
X0156110Y0055313D01*
X0155318Y0055187D01*
X0154554Y0054939D01*
X0153839Y0054574D01*
X0153189Y0054103D01*
X0152622Y0053535D01*
X0152150Y0052886D01*
X0151785Y0052170D01*
X0151537Y0051407D01*
X0151412Y0050614D01*
X0151412Y0050213D01*
X0156512Y0050213D01*
X0156512Y0050213D01*
X0161612Y0050213D01*
X0161612Y0049811D01*
X0161486Y0049018D01*
X0161238Y0048255D01*
X0160874Y0047540D01*
X0160402Y0046890D01*
X0159834Y0046323D01*
X0159185Y0045851D01*
X0160741Y0047357D02*
X0170358Y0047357D01*
X0170019Y0048955D02*
X0161466Y0048955D01*
X0161612Y0050554D02*
X0170019Y0050554D01*
X0170112Y0052152D02*
X0161244Y0052152D01*
X0160186Y0053751D02*
X0170541Y0053751D01*
X0178449Y0061743D02*
X0136624Y0061743D01*
X0138223Y0063342D02*
X0184698Y0063342D01*
X0184004Y0064940D02*
X0139821Y0064940D01*
X0141420Y0066539D02*
X0183234Y0066539D01*
X0182464Y0068137D02*
X0143018Y0068137D01*
X0144617Y0069736D02*
X0181695Y0069736D01*
X0180576Y0071334D02*
X0145938Y0071334D01*
X0145938Y0072933D02*
X0151547Y0072933D01*
X0151608Y0072872D02*
X0155667Y0072872D01*
X0158538Y0075742D01*
X0158538Y0079801D01*
X0155667Y0082672D01*
X0151608Y0082672D01*
X0148738Y0079801D01*
X0148738Y0075742D01*
X0151608Y0072872D01*
X0149948Y0074532D02*
X0147327Y0074532D01*
X0148538Y0076130D02*
X0148738Y0076130D01*
X0148738Y0077729D02*
X0148538Y0077729D01*
X0148538Y0079327D02*
X0148738Y0079327D01*
X0149862Y0080926D02*
X0147414Y0080926D01*
X0145815Y0082524D02*
X0151461Y0082524D01*
X0155815Y0082524D02*
X0169128Y0082524D01*
X0171549Y0080926D02*
X0157414Y0080926D01*
X0158538Y0079327D02*
X0173542Y0079327D01*
X0175214Y0077729D02*
X0158538Y0077729D01*
X0158538Y0076130D02*
X0176886Y0076130D01*
X0178254Y0074532D02*
X0157327Y0074532D01*
X0155729Y0072933D02*
X0179415Y0072933D01*
X0166634Y0084123D02*
X0131927Y0084123D01*
X0134129Y0085721D02*
X0162894Y0085721D01*
X0157973Y0087320D02*
X0139049Y0087320D01*
X0141461Y0082524D02*
X0129148Y0082524D01*
X0126762Y0080926D02*
X0139862Y0080926D01*
X0138738Y0079327D02*
X0124739Y0079327D01*
X0123171Y0077729D02*
X0138738Y0077729D01*
X0138738Y0076130D02*
X0121573Y0076130D01*
X0119974Y0074532D02*
X0139948Y0074532D01*
X0141309Y0072933D02*
X0118564Y0072933D01*
X0117305Y0071334D02*
X0139710Y0071334D01*
X0138112Y0069736D02*
X0116360Y0069736D01*
X0115548Y0068137D02*
X0136513Y0068137D01*
X0144155Y0053751D02*
X0152838Y0053751D01*
X0151780Y0052152D02*
X0145264Y0052152D01*
X0145664Y0050554D02*
X0151412Y0050554D01*
X0151412Y0050213D02*
X0151412Y0049811D01*
X0151537Y0049018D01*
X0151785Y0048255D01*
X0152150Y0047540D01*
X0152622Y0046890D01*
X0153189Y0046323D01*
X0153839Y0045851D01*
X0154554Y0045486D01*
X0155318Y0045238D01*
X0156110Y0045113D01*
X0156512Y0045113D01*
X0156512Y0050212D01*
X0156512Y0050213D02*
X0151412Y0050213D01*
X0151558Y0048955D02*
X0145547Y0048955D01*
X0144838Y0047357D02*
X0152283Y0047357D01*
X0154020Y0045758D02*
X0142815Y0045758D01*
X0146516Y0040963D02*
X0138407Y0040963D01*
X0136809Y0042561D02*
X0172665Y0042561D01*
X0174264Y0040963D02*
X0151014Y0040963D01*
X0152137Y0039364D02*
X0176725Y0039364D01*
X0182410Y0032970D02*
X0162208Y0032970D01*
X0162208Y0031372D02*
X0165252Y0031372D01*
X0168854Y0031372D02*
X0181281Y0031372D01*
X0180022Y0029773D02*
X0170294Y0029773D01*
X0170634Y0028175D02*
X0179189Y0028175D01*
X0177984Y0026576D02*
X0170239Y0026576D01*
X0168531Y0024978D02*
X0176680Y0024978D01*
X0174787Y0023379D02*
X0162551Y0023379D01*
X0162551Y0021781D02*
X0173188Y0021781D01*
X0171196Y0020182D02*
X0161733Y0020182D01*
X0158810Y0018584D02*
X0169044Y0018584D01*
X0166231Y0016985D02*
X0158810Y0016985D01*
X0158810Y0015387D02*
X0164432Y0015387D01*
X0160751Y0013788D02*
X0158810Y0013788D01*
X0151822Y0012190D02*
X0144353Y0012190D01*
X0146228Y0013788D02*
X0136948Y0013788D01*
X0132628Y0015387D02*
X0145692Y0015387D01*
X0145889Y0016985D02*
X0129658Y0016985D01*
X0126945Y0018584D02*
X0146996Y0018584D01*
X0148751Y0020182D02*
X0124940Y0020182D01*
X0122936Y0021781D02*
X0147933Y0021781D01*
X0147933Y0023379D02*
X0121284Y0023379D01*
X0119888Y0024978D02*
X0147933Y0024978D01*
X0147933Y0026576D02*
X0118491Y0026576D01*
X0117565Y0027637D02*
X0117565Y0027637D01*
X0140026Y0028175D02*
X0148271Y0028175D01*
X0148378Y0029773D02*
X0144021Y0029773D01*
X0141825Y0029773D02*
X0140059Y0029773D01*
X0146044Y0031372D02*
X0148378Y0031372D01*
X0148378Y0032970D02*
X0146504Y0032970D01*
X0146230Y0034569D02*
X0148047Y0034569D01*
X0145709Y0036167D02*
X0145014Y0036167D01*
X0145184Y0037766D02*
X0141604Y0037766D01*
X0140006Y0039364D02*
X0145393Y0039364D01*
X0152399Y0037766D02*
X0184887Y0037766D01*
X0184333Y0036167D02*
X0153998Y0036167D01*
X0162208Y0034569D02*
X0183563Y0034569D01*
X0165574Y0024978D02*
X0162794Y0024978D01*
X0151673Y0018584D02*
X0151549Y0018584D01*
X0156512Y0045758D02*
X0156512Y0045758D01*
X0156512Y0047357D02*
X0156512Y0047357D01*
X0156512Y0048955D02*
X0156512Y0048955D01*
X0156512Y0050554D02*
X0156512Y0050554D01*
X0156512Y0052152D02*
X0156512Y0052152D01*
X0156512Y0053751D02*
X0156512Y0053751D01*
X0151944Y0110494D02*
X0146915Y0110268D01*
X0140091Y0111192D01*
X0133542Y0113320D01*
X0127479Y0116583D01*
X0122095Y0120876D01*
X0117565Y0126062D01*
X0114033Y0131973D01*
X0112171Y0136932D01*
X0113582Y0136554D01*
X0116764Y0136554D01*
X0119837Y0137378D01*
X0122593Y0138969D01*
X0124842Y0141218D01*
X0126433Y0143974D01*
X0127257Y0147047D01*
X0127257Y0150229D01*
X0126433Y0153302D01*
X0124842Y0156057D01*
X0122593Y0158307D01*
X0119837Y0159898D01*
X0116764Y0160721D01*
X0113582Y0160721D01*
X0112171Y0160343D01*
X0113650Y0164282D01*
X0113670Y0164290D01*
X0115269Y0165889D01*
X0116104Y0167906D01*
X0116844Y0168645D01*
X0117401Y0169990D01*
X0118419Y0171008D01*
X0118724Y0171744D01*
X0118788Y0171770D01*
X0120387Y0173370D01*
X0120495Y0173631D01*
X0120756Y0173739D01*
X0122356Y0175338D01*
X0122579Y0175878D01*
X0123118Y0176101D01*
X0124718Y0177700D01*
X0124860Y0178043D01*
X0125874Y0178463D01*
X0127286Y0179875D01*
X0128630Y0180432D01*
X0129370Y0181171D01*
X0131386Y0182007D01*
X0132986Y0183606D01*
X0133012Y0183670D01*
X0133542Y0183956D01*
X0140091Y0186083D01*
X0146915Y0187008D01*
X0153794Y0186699D01*
X0160507Y0185167D01*
X0166838Y0182460D01*
X0172585Y0178667D01*
X0177562Y0173908D01*
X0181610Y0168338D01*
X0184597Y0162134D01*
X0185090Y0160347D01*
X0183693Y0160721D01*
X0180512Y0160721D01*
X0177438Y0159898D01*
X0174683Y0158307D01*
X0172433Y0156057D01*
X0170842Y0153302D01*
X0170019Y0150229D01*
X0170019Y0147047D01*
X0170842Y0143974D01*
X0172433Y0141218D01*
X0174683Y0138969D01*
X0177438Y0137378D01*
X0180512Y0136554D01*
X0183693Y0136554D01*
X0185090Y0136929D01*
X0184597Y0135142D01*
X0183149Y0132135D01*
X0181613Y0130599D01*
X0181056Y0129255D01*
X0180038Y0128237D01*
X0179481Y0126892D01*
X0178463Y0125874D01*
X0178185Y0125202D01*
X0176888Y0123906D01*
X0176665Y0123366D01*
X0176126Y0123143D01*
X0174526Y0121544D01*
X0174303Y0121004D01*
X0173763Y0120781D01*
X0172164Y0119181D01*
X0172137Y0119117D01*
X0171401Y0118812D01*
X0169990Y0117401D01*
X0168645Y0116844D01*
X0167906Y0116104D01*
X0165889Y0115269D01*
X0164389Y0113768D01*
X0160507Y0112109D01*
X0158810Y0111722D01*
X0158810Y0117601D01*
X0157923Y0118488D01*
X0161613Y0118488D01*
X0162551Y0119425D01*
X0162551Y0123160D01*
X0163757Y0124367D01*
X0164288Y0124367D01*
X0165024Y0123631D01*
X0166340Y0123086D01*
X0167765Y0123086D01*
X0169081Y0123631D01*
X0170089Y0124638D01*
X0170634Y0125954D01*
X0170634Y0127379D01*
X0170089Y0128695D01*
X0169081Y0129703D01*
X0167765Y0130248D01*
X0166340Y0130248D01*
X0165024Y0129703D01*
X0164288Y0128967D01*
X0162208Y0128967D01*
X0162208Y0133178D01*
X0161270Y0134115D01*
X0156008Y0134115D01*
X0155293Y0133400D01*
X0154577Y0134115D01*
X0154246Y0134115D01*
X0154246Y0134344D01*
X0152346Y0136244D01*
X0152346Y0137285D01*
X0151801Y0138601D01*
X0150793Y0139609D01*
X0149477Y0140154D01*
X0148052Y0140154D01*
X0146736Y0139609D01*
X0145729Y0138601D01*
X0145184Y0137285D01*
X0145184Y0135860D01*
X0145729Y0134544D01*
X0146736Y0133537D01*
X0148052Y0132992D01*
X0148378Y0132992D01*
X0148378Y0127522D01*
X0148785Y0127114D01*
X0147933Y0126263D01*
X0147933Y0119425D01*
X0148870Y0118488D01*
X0152560Y0118488D01*
X0151673Y0117601D01*
X0151673Y0116884D01*
X0151301Y0117257D01*
X0149985Y0117802D01*
X0148560Y0117802D01*
X0147244Y0117257D01*
X0146237Y0116249D01*
X0145692Y0114933D01*
X0145692Y0113508D01*
X0146237Y0112192D01*
X0147244Y0111185D01*
X0148560Y0110640D01*
X0149985Y0110640D01*
X0151301Y0111185D01*
X0151673Y0111557D01*
X0151673Y0110764D01*
X0151944Y0110494D01*
X0151673Y0111297D02*
X0151414Y0111297D01*
X0147132Y0111297D02*
X0139767Y0111297D01*
X0134848Y0112896D02*
X0145945Y0112896D01*
X0145692Y0114494D02*
X0131360Y0114494D01*
X0128389Y0116093D02*
X0146172Y0116093D01*
X0148294Y0117691D02*
X0126089Y0117691D01*
X0124084Y0119290D02*
X0148069Y0119290D01*
X0147933Y0120888D02*
X0122084Y0120888D01*
X0120688Y0122487D02*
X0147933Y0122487D01*
X0147933Y0124085D02*
X0119291Y0124085D01*
X0117895Y0125684D02*
X0127020Y0125684D01*
X0127134Y0125618D02*
X0127592Y0125496D01*
X0129613Y0125496D01*
X0129613Y0129277D01*
X0126029Y0129277D01*
X0126029Y0127059D01*
X0126151Y0126601D01*
X0126388Y0126190D01*
X0126724Y0125855D01*
X0127134Y0125618D01*
X0126029Y0127282D02*
X0116835Y0127282D01*
X0115880Y0128881D02*
X0126029Y0128881D01*
X0126029Y0129645D02*
X0129613Y0129645D01*
X0129613Y0129277D01*
X0129982Y0129277D01*
X0129982Y0125496D01*
X0132003Y0125496D01*
X0132461Y0125618D01*
X0132871Y0125855D01*
X0133206Y0126190D01*
X0133264Y0126290D01*
X0133859Y0125696D01*
X0139121Y0125696D01*
X0140059Y0126633D01*
X0140059Y0129320D01*
X0140158Y0129320D01*
X0140894Y0128584D01*
X0142210Y0128039D01*
X0143635Y0128039D01*
X0144951Y0128584D01*
X0145959Y0129591D01*
X0146504Y0130907D01*
X0146504Y0132332D01*
X0145959Y0133648D01*
X0144951Y0134656D01*
X0143635Y0135201D01*
X0142594Y0135201D01*
X0135444Y0142351D01*
X0135444Y0158988D01*
X0144590Y0168135D01*
X0145938Y0169482D01*
X0145938Y0171567D01*
X0148538Y0174167D01*
X0148538Y0178226D01*
X0145667Y0181097D01*
X0141608Y0181097D01*
X0138738Y0178226D01*
X0138738Y0174167D01*
X0141338Y0171567D01*
X0141338Y0171387D01*
X0130844Y0160893D01*
X0130844Y0140446D01*
X0132191Y0139099D01*
X0137533Y0133757D01*
X0137003Y0133226D01*
X0133859Y0133226D01*
X0133264Y0132631D01*
X0133206Y0132731D01*
X0132871Y0133067D01*
X0132461Y0133304D01*
X0132003Y0133426D01*
X0129982Y0133426D01*
X0129982Y0129645D01*
X0129613Y0129645D01*
X0129613Y0133426D01*
X0127592Y0133426D01*
X0127134Y0133304D01*
X0126724Y0133067D01*
X0126388Y0132731D01*
X0126151Y0132321D01*
X0126029Y0131863D01*
X0126029Y0129645D01*
X0126029Y0130479D02*
X0114925Y0130479D01*
X0113993Y0132078D02*
X0126086Y0132078D01*
X0129613Y0132078D02*
X0129982Y0132078D01*
X0129982Y0130479D02*
X0129613Y0130479D01*
X0129613Y0128881D02*
X0129982Y0128881D01*
X0129982Y0127282D02*
X0129613Y0127282D01*
X0129613Y0125684D02*
X0129982Y0125684D01*
X0132574Y0125684D02*
X0147933Y0125684D01*
X0148617Y0127282D02*
X0140059Y0127282D01*
X0140059Y0128881D02*
X0140597Y0128881D01*
X0145248Y0128881D02*
X0148378Y0128881D01*
X0148378Y0130479D02*
X0146327Y0130479D01*
X0146504Y0132078D02*
X0148378Y0132078D01*
X0146597Y0133676D02*
X0145930Y0133676D01*
X0145426Y0135275D02*
X0142520Y0135275D01*
X0140922Y0136873D02*
X0145184Y0136873D01*
X0145675Y0138472D02*
X0139323Y0138472D01*
X0137725Y0140070D02*
X0147851Y0140070D01*
X0149678Y0140070D02*
X0173581Y0140070D01*
X0172173Y0141669D02*
X0136126Y0141669D01*
X0135444Y0143268D02*
X0171250Y0143268D01*
X0170603Y0144866D02*
X0159953Y0144866D01*
X0159834Y0144748D02*
X0160402Y0145315D01*
X0160874Y0145965D01*
X0161238Y0146680D01*
X0161486Y0147444D01*
X0161612Y0148236D01*
X0161612Y0148638D01*
X0161612Y0149039D01*
X0161486Y0149832D01*
X0161238Y0150596D01*
X0160874Y0151311D01*
X0160402Y0151960D01*
X0159834Y0152528D01*
X0159185Y0153000D01*
X0158470Y0153364D01*
X0157706Y0153612D01*
X0156913Y0153738D01*
X0156512Y0153738D01*
X0156512Y0148638D01*
X0161612Y0148638D01*
X0156512Y0148638D01*
X0156512Y0148638D01*
X0156512Y0148638D01*
X0156512Y0153738D01*
X0156110Y0153738D01*
X0155318Y0153612D01*
X0154554Y0153364D01*
X0153839Y0153000D01*
X0153189Y0152528D01*
X0152622Y0151960D01*
X0152150Y0151311D01*
X0151785Y0150596D01*
X0151537Y0149832D01*
X0151412Y0149039D01*
X0151412Y0148638D01*
X0156512Y0148638D01*
X0156512Y0148638D01*
X0156512Y0143538D01*
X0156913Y0143538D01*
X0157706Y0143663D01*
X0158470Y0143911D01*
X0159185Y0144276D01*
X0159834Y0144748D01*
X0161128Y0146465D02*
X0170175Y0146465D01*
X0170019Y0148063D02*
X0161584Y0148063D01*
X0161513Y0149662D02*
X0170019Y0149662D01*
X0170295Y0151260D02*
X0160900Y0151260D01*
X0159379Y0152859D02*
X0170724Y0152859D01*
X0171509Y0154457D02*
X0135444Y0154457D01*
X0135444Y0152859D02*
X0138149Y0152859D01*
X0137988Y0152792D02*
X0136610Y0151413D01*
X0135864Y0149612D01*
X0135864Y0147663D01*
X0136610Y0145862D01*
X0137988Y0144484D01*
X0139789Y0143738D01*
X0141738Y0143738D01*
X0143539Y0144484D01*
X0144918Y0145862D01*
X0145664Y0147663D01*
X0145664Y0149612D01*
X0144918Y0151413D01*
X0143539Y0152792D01*
X0141738Y0153538D01*
X0139789Y0153538D01*
X0137988Y0152792D01*
X0136546Y0151260D02*
X0135444Y0151260D01*
X0135444Y0149662D02*
X0135884Y0149662D01*
X0135864Y0148063D02*
X0135444Y0148063D01*
X0135444Y0146465D02*
X0136360Y0146465D01*
X0135444Y0144866D02*
X0137606Y0144866D01*
X0143922Y0144866D02*
X0153071Y0144866D01*
X0153189Y0144748D02*
X0152622Y0145315D01*
X0152150Y0145965D01*
X0151785Y0146680D01*
X0151537Y0147444D01*
X0151412Y0148236D01*
X0151412Y0148638D01*
X0156512Y0148638D01*
X0156512Y0148638D01*
X0156512Y0143538D01*
X0156110Y0143538D01*
X0155318Y0143663D01*
X0154554Y0143911D01*
X0153839Y0144276D01*
X0153189Y0144748D01*
X0151895Y0146465D02*
X0145167Y0146465D01*
X0145664Y0148063D02*
X0151439Y0148063D01*
X0151510Y0149662D02*
X0145643Y0149662D01*
X0144981Y0151260D02*
X0152124Y0151260D01*
X0153645Y0152859D02*
X0143378Y0152859D01*
X0135444Y0156056D02*
X0172432Y0156056D01*
X0174030Y0157654D02*
X0135444Y0157654D01*
X0135708Y0159253D02*
X0176321Y0159253D01*
X0182906Y0165647D02*
X0142102Y0165647D01*
X0140504Y0164048D02*
X0183675Y0164048D01*
X0184445Y0162450D02*
X0138905Y0162450D01*
X0137307Y0160851D02*
X0184951Y0160851D01*
X0182136Y0167245D02*
X0143701Y0167245D01*
X0145299Y0168844D02*
X0181242Y0168844D01*
X0180081Y0170442D02*
X0145938Y0170442D01*
X0146411Y0172041D02*
X0150864Y0172041D01*
X0151608Y0171297D02*
X0148738Y0174167D01*
X0148738Y0178226D01*
X0151608Y0181097D01*
X0155667Y0181097D01*
X0158538Y0178226D01*
X0158538Y0174167D01*
X0155667Y0171297D01*
X0151608Y0171297D01*
X0149266Y0173639D02*
X0148010Y0173639D01*
X0148538Y0175238D02*
X0148738Y0175238D01*
X0148738Y0176836D02*
X0148538Y0176836D01*
X0148330Y0178435D02*
X0148946Y0178435D01*
X0150545Y0180033D02*
X0146731Y0180033D01*
X0140545Y0180033D02*
X0127668Y0180033D01*
X0125805Y0178435D02*
X0138946Y0178435D01*
X0138738Y0176836D02*
X0123854Y0176836D01*
X0122255Y0175238D02*
X0138738Y0175238D01*
X0139266Y0173639D02*
X0120516Y0173639D01*
X0119058Y0172041D02*
X0140864Y0172041D01*
X0140393Y0170442D02*
X0117853Y0170442D01*
X0116926Y0168844D02*
X0138794Y0168844D01*
X0137195Y0167245D02*
X0115831Y0167245D01*
X0115026Y0165647D02*
X0135597Y0165647D01*
X0133998Y0164048D02*
X0113562Y0164048D01*
X0112962Y0162450D02*
X0132400Y0162450D01*
X0130844Y0160851D02*
X0112362Y0160851D01*
X0120955Y0159253D02*
X0130844Y0159253D01*
X0130844Y0157654D02*
X0123245Y0157654D01*
X0124843Y0156056D02*
X0130844Y0156056D01*
X0130844Y0154457D02*
X0125766Y0154457D01*
X0126552Y0152859D02*
X0130844Y0152859D01*
X0130844Y0151260D02*
X0126980Y0151260D01*
X0127257Y0149662D02*
X0130844Y0149662D01*
X0130844Y0148063D02*
X0127257Y0148063D01*
X0127101Y0146465D02*
X0130844Y0146465D01*
X0130844Y0144866D02*
X0126672Y0144866D01*
X0126025Y0143268D02*
X0130844Y0143268D01*
X0130844Y0141669D02*
X0125103Y0141669D01*
X0123695Y0140070D02*
X0131219Y0140070D01*
X0132818Y0138472D02*
X0121732Y0138472D01*
X0117955Y0136873D02*
X0134416Y0136873D01*
X0136015Y0135275D02*
X0112793Y0135275D01*
X0112391Y0136873D02*
X0112194Y0136873D01*
X0113393Y0133676D02*
X0137453Y0133676D01*
X0151854Y0138472D02*
X0175543Y0138472D01*
X0179320Y0136873D02*
X0152346Y0136873D01*
X0153315Y0135275D02*
X0184634Y0135275D01*
X0184884Y0136873D02*
X0185075Y0136873D01*
X0183892Y0133676D02*
X0161709Y0133676D01*
X0162208Y0132078D02*
X0183092Y0132078D01*
X0181563Y0130479D02*
X0162208Y0130479D01*
X0163476Y0124085D02*
X0164570Y0124085D01*
X0162551Y0122487D02*
X0175470Y0122487D01*
X0174023Y0120888D02*
X0162551Y0120888D01*
X0162415Y0119290D02*
X0172272Y0119290D01*
X0170280Y0117691D02*
X0158720Y0117691D01*
X0158810Y0116093D02*
X0167878Y0116093D01*
X0165115Y0114494D02*
X0158810Y0114494D01*
X0158810Y0112896D02*
X0162348Y0112896D01*
X0151764Y0117691D02*
X0150252Y0117691D01*
X0155016Y0133676D02*
X0155569Y0133676D01*
X0156512Y0144866D02*
X0156512Y0144866D01*
X0156512Y0146465D02*
X0156512Y0146465D01*
X0156512Y0148063D02*
X0156512Y0148063D01*
X0156512Y0149662D02*
X0156512Y0149662D01*
X0156512Y0151260D02*
X0156512Y0151260D01*
X0156512Y0152859D02*
X0156512Y0152859D01*
X0156411Y0172041D02*
X0178919Y0172041D01*
X0177758Y0173639D02*
X0158010Y0173639D01*
X0158538Y0175238D02*
X0176172Y0175238D01*
X0174500Y0176836D02*
X0158538Y0176836D01*
X0158330Y0178435D02*
X0172828Y0178435D01*
X0170515Y0180033D02*
X0156731Y0180033D01*
X0161297Y0184829D02*
X0136230Y0184829D01*
X0132610Y0183230D02*
X0165037Y0183230D01*
X0168094Y0181632D02*
X0130481Y0181632D01*
X0142629Y0186427D02*
X0154983Y0186427D01*
X0169903Y0128881D02*
X0180682Y0128881D01*
X0179643Y0127282D02*
X0170634Y0127282D01*
X0170522Y0125684D02*
X0178384Y0125684D01*
X0177068Y0124085D02*
X0169536Y0124085D01*
X0086665Y0136929D02*
X0086172Y0135142D01*
X0084724Y0132135D01*
X0083188Y0130599D01*
X0082631Y0129255D01*
X0081613Y0128237D01*
X0081056Y0126892D01*
X0080038Y0125874D01*
X0079760Y0125202D01*
X0078463Y0123906D01*
X0078240Y0123366D01*
X0077700Y0123143D01*
X0076101Y0121544D01*
X0075878Y0121004D01*
X0075338Y0120781D01*
X0073739Y0119181D01*
X0073712Y0119117D01*
X0072976Y0118812D01*
X0071564Y0117401D01*
X0070220Y0116844D01*
X0069481Y0116104D01*
X0067464Y0115269D01*
X0065963Y0113768D01*
X0062082Y0112109D01*
X0060385Y0111722D01*
X0060385Y0117601D01*
X0059498Y0118488D01*
X0063188Y0118488D01*
X0064125Y0119425D01*
X0064125Y0123160D01*
X0065332Y0124367D01*
X0065863Y0124367D01*
X0066599Y0123631D01*
X0067915Y0123086D01*
X0069340Y0123086D01*
X0070656Y0123631D01*
X0071663Y0124638D01*
X0072209Y0125954D01*
X0072209Y0127379D01*
X0071663Y0128695D01*
X0070656Y0129703D01*
X0069340Y0130248D01*
X0067915Y0130248D01*
X0066599Y0129703D01*
X0065863Y0128967D01*
X0063782Y0128967D01*
X0063782Y0133178D01*
X0062845Y0134115D01*
X0057583Y0134115D01*
X0056867Y0133400D01*
X0056152Y0134115D01*
X0055821Y0134115D01*
X0055821Y0134344D01*
X0053921Y0136244D01*
X0053921Y0137285D01*
X0053375Y0138601D01*
X0052368Y0139609D01*
X0051052Y0140154D01*
X0049627Y0140154D01*
X0048311Y0139609D01*
X0047304Y0138601D01*
X0046758Y0137285D01*
X0046758Y0135860D01*
X0047304Y0134544D01*
X0048311Y0133537D01*
X0049627Y0132992D01*
X0049953Y0132992D01*
X0049953Y0127522D01*
X0050360Y0127114D01*
X0049508Y0126263D01*
X0049508Y0119425D01*
X0050445Y0118488D01*
X0054135Y0118488D01*
X0053248Y0117601D01*
X0053248Y0116884D01*
X0052876Y0117257D01*
X0051560Y0117802D01*
X0050135Y0117802D01*
X0048819Y0117257D01*
X0047812Y0116249D01*
X0047266Y0114933D01*
X0047266Y0113508D01*
X0047812Y0112192D01*
X0048819Y0111185D01*
X0050135Y0110640D01*
X0051560Y0110640D01*
X0052876Y0111185D01*
X0053248Y0111557D01*
X0053248Y0110764D01*
X0053518Y0110494D01*
X0048489Y0110268D01*
X0041666Y0111192D01*
X0035117Y0113320D01*
X0029053Y0116583D01*
X0023670Y0120876D01*
X0019139Y0126062D01*
X0015608Y0131973D01*
X0013746Y0136932D01*
X0015157Y0136554D01*
X0018339Y0136554D01*
X0021412Y0137378D01*
X0024167Y0138969D01*
X0026417Y0141218D01*
X0028008Y0143974D01*
X0028831Y0147047D01*
X0028831Y0150229D01*
X0028008Y0153302D01*
X0026417Y0156057D01*
X0024167Y0158307D01*
X0021412Y0159898D01*
X0018339Y0160721D01*
X0015157Y0160721D01*
X0013746Y0160343D01*
X0015224Y0164282D01*
X0015244Y0164290D01*
X0016844Y0165889D01*
X0017679Y0167906D01*
X0018419Y0168645D01*
X0018975Y0169990D01*
X0019993Y0171008D01*
X0020298Y0171744D01*
X0020362Y0171770D01*
X0021962Y0173370D01*
X0022070Y0173631D01*
X0022331Y0173739D01*
X0023930Y0175338D01*
X0024154Y0175878D01*
X0024693Y0176101D01*
X0026293Y0177700D01*
X0026435Y0178043D01*
X0027449Y0178463D01*
X0028861Y0179875D01*
X0030205Y0180432D01*
X0030945Y0181171D01*
X0032961Y0182007D01*
X0034560Y0183606D01*
X0034587Y0183670D01*
X0035117Y0183956D01*
X0041666Y0186083D01*
X0048489Y0187008D01*
X0055368Y0186699D01*
X0062082Y0185167D01*
X0068413Y0182460D01*
X0074160Y0178667D01*
X0079137Y0173908D01*
X0083184Y0168338D01*
X0086172Y0162134D01*
X0086665Y0160347D01*
X0085268Y0160721D01*
X0082086Y0160721D01*
X0079013Y0159898D01*
X0076258Y0158307D01*
X0074008Y0156057D01*
X0072417Y0153302D01*
X0071594Y0150229D01*
X0071594Y0147047D01*
X0072417Y0143974D01*
X0074008Y0141218D01*
X0076258Y0138969D01*
X0079013Y0137378D01*
X0082086Y0136554D01*
X0085268Y0136554D01*
X0086665Y0136929D01*
X0086650Y0136873D02*
X0086459Y0136873D01*
X0086209Y0135275D02*
X0054890Y0135275D01*
X0053921Y0136873D02*
X0080895Y0136873D01*
X0077118Y0138472D02*
X0053429Y0138472D01*
X0051253Y0140070D02*
X0075156Y0140070D01*
X0073748Y0141669D02*
X0037701Y0141669D01*
X0037019Y0142351D02*
X0037019Y0158988D01*
X0046165Y0168135D01*
X0047513Y0169482D01*
X0047513Y0171567D01*
X0050113Y0174167D01*
X0050113Y0178226D01*
X0047242Y0181097D01*
X0043183Y0181097D01*
X0040313Y0178226D01*
X0040313Y0174167D01*
X0042913Y0171567D01*
X0042913Y0171387D01*
X0032419Y0160893D01*
X0032419Y0140446D01*
X0033766Y0139099D01*
X0039108Y0133757D01*
X0038578Y0133226D01*
X0035434Y0133226D01*
X0034839Y0132631D01*
X0034781Y0132731D01*
X0034446Y0133067D01*
X0034035Y0133304D01*
X0033578Y0133426D01*
X0031556Y0133426D01*
X0031556Y0129645D01*
X0031188Y0129645D01*
X0031188Y0133426D01*
X0029167Y0133426D01*
X0028709Y0133304D01*
X0028298Y0133067D01*
X0027963Y0132731D01*
X0027726Y0132321D01*
X0027604Y0131863D01*
X0027604Y0129645D01*
X0031188Y0129645D01*
X0031188Y0129277D01*
X0027604Y0129277D01*
X0027604Y0127059D01*
X0027726Y0126601D01*
X0027963Y0126190D01*
X0028298Y0125855D01*
X0028709Y0125618D01*
X0029167Y0125496D01*
X0031188Y0125496D01*
X0031188Y0129277D01*
X0031556Y0129277D01*
X0031556Y0125496D01*
X0033578Y0125496D01*
X0034035Y0125618D01*
X0034446Y0125855D01*
X0034781Y0126190D01*
X0034839Y0126290D01*
X0035434Y0125696D01*
X0040696Y0125696D01*
X0041633Y0126633D01*
X0041633Y0129320D01*
X0041733Y0129320D01*
X0042469Y0128584D01*
X0043785Y0128039D01*
X0045210Y0128039D01*
X0046526Y0128584D01*
X0047533Y0129591D01*
X0048079Y0130907D01*
X0048079Y0132332D01*
X0047533Y0133648D01*
X0046526Y0134656D01*
X0045210Y0135201D01*
X0044169Y0135201D01*
X0037019Y0142351D01*
X0037019Y0143268D02*
X0072825Y0143268D01*
X0072178Y0144866D02*
X0061527Y0144866D01*
X0061409Y0144748D02*
X0061977Y0145315D01*
X0062449Y0145965D01*
X0062813Y0146680D01*
X0063061Y0147444D01*
X0063187Y0148236D01*
X0063187Y0148638D01*
X0063187Y0149039D01*
X0063061Y0149832D01*
X0062813Y0150596D01*
X0062449Y0151311D01*
X0061977Y0151960D01*
X0061409Y0152528D01*
X0060760Y0153000D01*
X0060044Y0153364D01*
X0059281Y0153612D01*
X0058488Y0153738D01*
X0058087Y0153738D01*
X0058087Y0148638D01*
X0063187Y0148638D01*
X0058087Y0148638D01*
X0058087Y0148638D01*
X0058087Y0148638D01*
X0058087Y0153738D01*
X0057685Y0153738D01*
X0056892Y0153612D01*
X0056129Y0153364D01*
X0055414Y0153000D01*
X0054764Y0152528D01*
X0054197Y0151960D01*
X0053725Y0151311D01*
X0053360Y0150596D01*
X0053112Y0149832D01*
X0052987Y0149039D01*
X0052987Y0148638D01*
X0058086Y0148638D01*
X0058086Y0148638D01*
X0052987Y0148638D01*
X0052987Y0148236D01*
X0053112Y0147444D01*
X0053360Y0146680D01*
X0053725Y0145965D01*
X0054197Y0145315D01*
X0054764Y0144748D01*
X0055414Y0144276D01*
X0056129Y0143911D01*
X0056892Y0143663D01*
X0057685Y0143538D01*
X0058087Y0143538D01*
X0058488Y0143538D01*
X0059281Y0143663D01*
X0060044Y0143911D01*
X0060760Y0144276D01*
X0061409Y0144748D01*
X0062703Y0146465D02*
X0071750Y0146465D01*
X0071594Y0148063D02*
X0063159Y0148063D01*
X0063088Y0149662D02*
X0071594Y0149662D01*
X0071870Y0151260D02*
X0062474Y0151260D01*
X0060954Y0152859D02*
X0072298Y0152859D01*
X0073084Y0154457D02*
X0037019Y0154457D01*
X0037019Y0152859D02*
X0039724Y0152859D01*
X0039563Y0152792D02*
X0038185Y0151413D01*
X0037439Y0149612D01*
X0037439Y0147663D01*
X0038185Y0145862D01*
X0039563Y0144484D01*
X0041364Y0143738D01*
X0043313Y0143738D01*
X0045114Y0144484D01*
X0046493Y0145862D01*
X0047239Y0147663D01*
X0047239Y0149612D01*
X0046493Y0151413D01*
X0045114Y0152792D01*
X0043313Y0153538D01*
X0041364Y0153538D01*
X0039563Y0152792D01*
X0038121Y0151260D02*
X0037019Y0151260D01*
X0037019Y0149662D02*
X0037459Y0149662D01*
X0037439Y0148063D02*
X0037019Y0148063D01*
X0037019Y0146465D02*
X0037935Y0146465D01*
X0037019Y0144866D02*
X0039181Y0144866D01*
X0039299Y0140070D02*
X0049426Y0140070D01*
X0047250Y0138472D02*
X0040898Y0138472D01*
X0042496Y0136873D02*
X0046758Y0136873D01*
X0047001Y0135275D02*
X0044095Y0135275D01*
X0047505Y0133676D02*
X0048171Y0133676D01*
X0048079Y0132078D02*
X0049953Y0132078D01*
X0049953Y0130479D02*
X0047901Y0130479D01*
X0046823Y0128881D02*
X0049953Y0128881D01*
X0050192Y0127282D02*
X0041633Y0127282D01*
X0041633Y0128881D02*
X0042172Y0128881D01*
X0039028Y0133676D02*
X0014968Y0133676D01*
X0015568Y0132078D02*
X0027661Y0132078D01*
X0027604Y0130479D02*
X0016500Y0130479D01*
X0017455Y0128881D02*
X0027604Y0128881D01*
X0027604Y0127282D02*
X0018410Y0127282D01*
X0019469Y0125684D02*
X0028595Y0125684D01*
X0031188Y0125684D02*
X0031556Y0125684D01*
X0031556Y0127282D02*
X0031188Y0127282D01*
X0031188Y0128881D02*
X0031556Y0128881D01*
X0031556Y0130479D02*
X0031188Y0130479D01*
X0031188Y0132078D02*
X0031556Y0132078D01*
X0035991Y0136873D02*
X0019530Y0136873D01*
X0023307Y0138472D02*
X0034393Y0138472D01*
X0033766Y0139099D02*
X0033766Y0139099D01*
X0032794Y0140070D02*
X0025269Y0140070D01*
X0026677Y0141669D02*
X0032419Y0141669D01*
X0032419Y0143268D02*
X0027600Y0143268D01*
X0028247Y0144866D02*
X0032419Y0144866D01*
X0032419Y0146465D02*
X0028675Y0146465D01*
X0028831Y0148063D02*
X0032419Y0148063D01*
X0032419Y0149662D02*
X0028831Y0149662D01*
X0028555Y0151260D02*
X0032419Y0151260D01*
X0032419Y0152859D02*
X0028127Y0152859D01*
X0027341Y0154457D02*
X0032419Y0154457D01*
X0032419Y0156056D02*
X0026418Y0156056D01*
X0024820Y0157654D02*
X0032419Y0157654D01*
X0032419Y0159253D02*
X0022530Y0159253D01*
X0016601Y0165647D02*
X0037172Y0165647D01*
X0038770Y0167245D02*
X0017405Y0167245D01*
X0018501Y0168844D02*
X0040369Y0168844D01*
X0041967Y0170442D02*
X0019428Y0170442D01*
X0020633Y0172041D02*
X0042439Y0172041D01*
X0040841Y0173639D02*
X0022090Y0173639D01*
X0023830Y0175238D02*
X0040313Y0175238D01*
X0040313Y0176836D02*
X0025428Y0176836D01*
X0027380Y0178435D02*
X0040521Y0178435D01*
X0042119Y0180033D02*
X0029243Y0180033D01*
X0032056Y0181632D02*
X0069668Y0181632D01*
X0072090Y0180033D02*
X0058306Y0180033D01*
X0057242Y0181097D02*
X0053183Y0181097D01*
X0050313Y0178226D01*
X0050313Y0174167D01*
X0053183Y0171297D01*
X0057242Y0171297D01*
X0060113Y0174167D01*
X0060113Y0178226D01*
X0057242Y0181097D01*
X0059904Y0178435D02*
X0074403Y0178435D01*
X0076075Y0176836D02*
X0060113Y0176836D01*
X0060113Y0175238D02*
X0077747Y0175238D01*
X0079137Y0173908D02*
X0079137Y0173908D01*
X0079333Y0173639D02*
X0059585Y0173639D01*
X0057986Y0172041D02*
X0080494Y0172041D01*
X0081655Y0170442D02*
X0047513Y0170442D01*
X0047986Y0172041D02*
X0052439Y0172041D01*
X0050841Y0173639D02*
X0049585Y0173639D01*
X0050113Y0175238D02*
X0050313Y0175238D01*
X0050313Y0176836D02*
X0050113Y0176836D01*
X0049904Y0178435D02*
X0050521Y0178435D01*
X0052119Y0180033D02*
X0048306Y0180033D01*
X0044204Y0186427D02*
X0056558Y0186427D01*
X0062872Y0184829D02*
X0037804Y0184829D01*
X0034185Y0183230D02*
X0066612Y0183230D01*
X0082817Y0168844D02*
X0046874Y0168844D01*
X0045276Y0167245D02*
X0083711Y0167245D01*
X0084480Y0165647D02*
X0043677Y0165647D01*
X0042079Y0164048D02*
X0085250Y0164048D01*
X0086020Y0162450D02*
X0040480Y0162450D01*
X0038882Y0160851D02*
X0086526Y0160851D01*
X0077896Y0159253D02*
X0037283Y0159253D01*
X0037019Y0157654D02*
X0075605Y0157654D01*
X0074007Y0156056D02*
X0037019Y0156056D01*
X0032419Y0160851D02*
X0013937Y0160851D01*
X0014537Y0162450D02*
X0033975Y0162450D01*
X0035573Y0164048D02*
X0015137Y0164048D01*
X0013966Y0136873D02*
X0013768Y0136873D01*
X0014368Y0135275D02*
X0037590Y0135275D01*
X0045496Y0144866D02*
X0054646Y0144866D01*
X0053470Y0146465D02*
X0046742Y0146465D01*
X0047239Y0148063D02*
X0053014Y0148063D01*
X0053085Y0149662D02*
X0047218Y0149662D01*
X0046556Y0151260D02*
X0053699Y0151260D01*
X0055219Y0152859D02*
X0044953Y0152859D01*
X0058087Y0152859D02*
X0058087Y0152859D01*
X0058087Y0151260D02*
X0058087Y0151260D01*
X0058087Y0149662D02*
X0058087Y0149662D01*
X0058087Y0148638D02*
X0058087Y0143538D01*
X0058087Y0148638D01*
X0058087Y0148638D01*
X0058087Y0148063D02*
X0058087Y0148063D01*
X0058087Y0146465D02*
X0058087Y0146465D01*
X0058087Y0144866D02*
X0058087Y0144866D01*
X0057144Y0133676D02*
X0056591Y0133676D01*
X0063284Y0133676D02*
X0085466Y0133676D01*
X0084667Y0132078D02*
X0063782Y0132078D01*
X0063782Y0130479D02*
X0083138Y0130479D01*
X0082257Y0128881D02*
X0071478Y0128881D01*
X0072209Y0127282D02*
X0081218Y0127282D01*
X0079959Y0125684D02*
X0072097Y0125684D01*
X0071111Y0124085D02*
X0078643Y0124085D01*
X0077044Y0122487D02*
X0064125Y0122487D01*
X0064125Y0120888D02*
X0075598Y0120888D01*
X0073847Y0119290D02*
X0063990Y0119290D01*
X0060295Y0117691D02*
X0071855Y0117691D01*
X0069453Y0116093D02*
X0060385Y0116093D01*
X0060385Y0114494D02*
X0066690Y0114494D01*
X0063922Y0112896D02*
X0060385Y0112896D01*
X0053248Y0111297D02*
X0052989Y0111297D01*
X0048706Y0111297D02*
X0041342Y0111297D01*
X0036422Y0112896D02*
X0047520Y0112896D01*
X0047266Y0114494D02*
X0032935Y0114494D01*
X0029964Y0116093D02*
X0047747Y0116093D01*
X0049868Y0117691D02*
X0027664Y0117691D01*
X0025659Y0119290D02*
X0049643Y0119290D01*
X0049508Y0120888D02*
X0023659Y0120888D01*
X0022263Y0122487D02*
X0049508Y0122487D01*
X0049508Y0124085D02*
X0020866Y0124085D01*
X0034149Y0125684D02*
X0049508Y0125684D01*
X0051827Y0117691D02*
X0053338Y0117691D01*
X0065051Y0124085D02*
X0066144Y0124085D01*
D15*
X0064380Y0126667D02*
X0060557Y0122844D01*
X0060557Y0130350D01*
X0060214Y0130350D01*
X0064380Y0126667D02*
X0068628Y0126667D01*
X0053521Y0130350D02*
X0053521Y0133391D01*
X0050340Y0136573D01*
X0053521Y0130350D02*
X0053077Y0129905D01*
X0053077Y0122844D01*
X0044498Y0131620D02*
X0040224Y0131620D01*
X0038065Y0129461D01*
X0044498Y0131620D02*
X0034719Y0141399D01*
X0034719Y0159941D01*
X0045213Y0170435D01*
X0045213Y0176197D01*
X0133144Y0159941D02*
X0133144Y0141399D01*
X0142923Y0131620D01*
X0138649Y0131620D01*
X0136490Y0129461D01*
X0148765Y0136573D02*
X0151946Y0133391D01*
X0151946Y0130350D01*
X0151502Y0129905D01*
X0151502Y0122844D01*
X0158982Y0122844D02*
X0162805Y0126667D01*
X0167053Y0126667D01*
X0158982Y0130350D02*
X0158982Y0122844D01*
X0158982Y0130350D02*
X0158639Y0130350D01*
X0133144Y0159941D02*
X0143638Y0170435D01*
X0143638Y0176197D01*
X0143638Y0077772D02*
X0143638Y0072010D01*
X0133144Y0061516D01*
X0133144Y0042974D01*
X0142923Y0033195D01*
X0138649Y0033195D01*
X0136490Y0031036D01*
X0148765Y0038148D02*
X0151946Y0034966D01*
X0151946Y0031924D01*
X0151502Y0031480D01*
X0151502Y0024419D01*
X0158982Y0024419D02*
X0162805Y0028242D01*
X0167053Y0028242D01*
X0158982Y0031924D02*
X0158982Y0024419D01*
X0158982Y0031924D02*
X0158639Y0031924D01*
X0068628Y0028242D02*
X0064380Y0028242D01*
X0060557Y0024419D01*
X0060557Y0031924D01*
X0060214Y0031924D01*
X0053521Y0031924D02*
X0053077Y0031480D01*
X0053077Y0024419D01*
X0053521Y0031924D02*
X0053521Y0034966D01*
X0050340Y0038148D01*
X0044498Y0033195D02*
X0040224Y0033195D01*
X0038065Y0031036D01*
X0044498Y0033195D02*
X0034719Y0042974D01*
X0034719Y0061516D01*
X0045213Y0072010D01*
X0045213Y0077772D01*
D16*
X0050848Y0114221D03*
X0044498Y0131620D03*
X0050340Y0136573D03*
X0068628Y0126667D03*
X0142923Y0131620D03*
X0148765Y0136573D03*
X0167053Y0126667D03*
X0149273Y0114221D03*
X0148765Y0038148D03*
X0142923Y0033195D03*
X0149273Y0015796D03*
X0167053Y0028242D03*
X0068628Y0028242D03*
X0050340Y0038148D03*
X0044498Y0033195D03*
X0050848Y0015796D03*
D17*
X0056778Y0015796D01*
X0056817Y0015757D01*
X0149273Y0015796D02*
X0155204Y0015796D01*
X0155242Y0015757D01*
X0155242Y0114183D02*
X0155204Y0114221D01*
X0149273Y0114221D01*
X0056817Y0114183D02*
X0056778Y0114221D01*
X0050848Y0114221D01*
M02*
