G75*
%MOIN*%
%OFA0B0*%
%FSLAX25Y25*%
%IPPOS*%
%LPD*%
%AMOC8*
5,1,8,0,0,1.08239X$1,22.5*
%
%ADD10C,0.15367*%
%ADD11C,0.02572*%
%ADD12R,0.04737X0.05131*%
%ADD13R,0.05800X0.10800*%
%ADD14C,0.07400*%
%ADD15R,0.07100X0.05400*%
%ADD16R,0.07200X0.00600*%
%ADD17OC8,0.07400*%
%ADD18C,0.04762*%
D10*
X0016748Y0050213D03*
X0083677Y0050213D03*
X0115173Y0050213D03*
X0182102Y0050213D03*
X0182102Y0148638D03*
X0115173Y0148638D03*
X0083677Y0148638D03*
X0016748Y0148638D03*
D11*
X0012024Y0169110D03*
X0013598Y0171866D03*
X0015173Y0174228D03*
X0017142Y0176591D03*
X0019110Y0178559D03*
X0021472Y0180921D03*
X0024228Y0183283D03*
X0026984Y0185252D03*
X0029740Y0186827D03*
X0088008Y0127378D03*
X0086433Y0125016D03*
X0084858Y0122654D03*
X0083283Y0120685D03*
X0080921Y0118323D03*
X0078559Y0115961D03*
X0076197Y0113992D03*
X0073441Y0112024D03*
X0070685Y0110449D03*
X0110449Y0070685D03*
X0112024Y0073441D03*
X0113598Y0075803D03*
X0115567Y0078165D03*
X0117535Y0080134D03*
X0119898Y0082496D03*
X0122654Y0084858D03*
X0125409Y0086827D03*
X0128165Y0088402D03*
X0169110Y0110449D03*
X0171866Y0112024D03*
X0174622Y0113992D03*
X0176984Y0115961D03*
X0179346Y0118323D03*
X0181709Y0120685D03*
X0183283Y0122654D03*
X0184858Y0125016D03*
X0186433Y0127378D03*
X0128165Y0186827D03*
X0125409Y0185252D03*
X0122654Y0183283D03*
X0119898Y0180921D03*
X0117535Y0178559D03*
X0115567Y0176591D03*
X0113598Y0174228D03*
X0112024Y0171866D03*
X0110449Y0169110D03*
X0029740Y0088402D03*
X0026984Y0086827D03*
X0024228Y0084858D03*
X0021472Y0082496D03*
X0019110Y0080134D03*
X0017142Y0078165D03*
X0015173Y0075803D03*
X0013598Y0073441D03*
X0012024Y0070685D03*
X0070685Y0012024D03*
X0073441Y0013598D03*
X0076197Y0015567D03*
X0078559Y0017535D03*
X0080921Y0019898D03*
X0083283Y0022260D03*
X0084858Y0024228D03*
X0086433Y0026591D03*
X0088008Y0028953D03*
X0169110Y0012024D03*
X0171866Y0013598D03*
X0174622Y0015567D03*
X0176984Y0017535D03*
X0179346Y0019898D03*
X0181709Y0022260D03*
X0183283Y0024228D03*
X0184858Y0026591D03*
X0186433Y0028953D03*
D12*
X0173631Y0028172D03*
X0173631Y0034865D03*
X0139919Y0040179D03*
X0133226Y0040179D03*
X0163949Y0072971D03*
X0170642Y0072971D03*
X0173631Y0126597D03*
X0173631Y0133290D03*
X0139919Y0138605D03*
X0133226Y0138605D03*
X0163949Y0171396D03*
X0170642Y0171396D03*
X0075206Y0133290D03*
X0075206Y0126597D03*
X0041494Y0138605D03*
X0034801Y0138605D03*
X0065524Y0171396D03*
X0072217Y0171396D03*
X0072217Y0072971D03*
X0065524Y0072971D03*
X0041494Y0040179D03*
X0034801Y0040179D03*
X0075206Y0034865D03*
X0075206Y0028172D03*
D13*
X0037417Y0028165D03*
X0050213Y0028165D03*
X0063008Y0028165D03*
X0135843Y0028165D03*
X0148638Y0028165D03*
X0161433Y0028165D03*
X0161433Y0126591D03*
X0148638Y0126591D03*
X0135843Y0126591D03*
X0063008Y0126591D03*
X0050213Y0126591D03*
X0037417Y0126591D03*
D14*
X0042339Y0148638D03*
X0058087Y0148638D03*
X0140764Y0148638D03*
X0156512Y0148638D03*
X0156512Y0050213D03*
X0140764Y0050213D03*
X0058087Y0050213D03*
X0042339Y0050213D03*
D15*
X0070495Y0051917D03*
X0070495Y0045917D03*
X0168920Y0045917D03*
X0168920Y0051917D03*
X0168920Y0144342D03*
X0168920Y0150342D03*
X0070495Y0150342D03*
X0070495Y0144342D03*
D16*
X0070495Y0147342D03*
X0168920Y0147342D03*
X0168920Y0048917D03*
X0070495Y0048917D03*
D17*
X0055213Y0077772D03*
X0045213Y0077772D03*
X0045213Y0176197D03*
X0055213Y0176197D03*
X0143638Y0176197D03*
X0153638Y0176197D03*
X0153638Y0077772D03*
X0143638Y0077772D03*
D18*
X0149273Y0114221D03*
X0142923Y0131620D03*
X0148765Y0136573D03*
X0167053Y0126667D03*
X0148765Y0038148D03*
X0142923Y0033195D03*
X0149273Y0015796D03*
X0167053Y0028242D03*
X0068628Y0028242D03*
X0050340Y0038148D03*
X0044498Y0033195D03*
X0050848Y0015796D03*
X0050848Y0114221D03*
X0044498Y0131620D03*
X0050340Y0136573D03*
X0068628Y0126667D03*
M02*
