%
M48
M72
T01C0.0177
T02C0.0236
T03C0.0315
T04C0.0320
T05C0.1457
%
T01
X1202Y7069
X1360Y7344
X1517Y7580
X1714Y7817
X1911Y8013
X2147Y8250
X2423Y8486
X2698Y8683
X2974Y8840
X7069Y11045
X7344Y11202
X7620Y11399
X7856Y11596
X8092Y11832
X8328Y12069
X8486Y12265
X8643Y12502
X8801Y12738
X12817Y8840
X12541Y8683
X12265Y8486
X11990Y8250
X11754Y8013
X11557Y7817
X11360Y7580
X11202Y7344
X11045Y7069
X8801Y2895
X8643Y2659
X8486Y2423
X8328Y2226
X8092Y1990
X7856Y1754
X7620Y1557
X7344Y1360
X7069Y1202
X16911Y1202
X17187Y1360
X17462Y1557
X17698Y1754
X17935Y1990
X18171Y2226
X18328Y2423
X18486Y2659
X18643Y2895
X16911Y11045
X17187Y11202
X17462Y11399
X17698Y11596
X17935Y11832
X18171Y12069
X18328Y12265
X18486Y12502
X18643Y12738
X12817Y18683
X12541Y18525
X12265Y18328
X11990Y18092
X11754Y17856
X11557Y17659
X11360Y17423
X11202Y17187
X11045Y16911
X2974Y18683
X2698Y18525
X2423Y18328
X2147Y18092
X1911Y17856
X1714Y17659
X1517Y17423
X1360Y17187
X1202Y16911
T02
X4450Y3319
X5034Y3815
X6863Y2824
X5085Y1580
X14292Y3319
X14876Y3815
X16705Y2824
X14927Y1580
X14927Y11422
X14292Y13162
X14876Y13657
X16705Y12667
X6863Y12667
X5034Y13657
X4450Y13162
X5085Y11422
T03
X5809Y14864
X4234Y14864
X14076Y14864
X15651Y14864
X15651Y5021
X14076Y5021
X5809Y5021
X4234Y5021
T04
X4521Y7777
X5521Y7777
X14364Y7777
X15364Y7777
X15364Y17620
X14364Y17620
X5521Y17620
X4521Y17620
T05
X1675Y14864
X8368Y14864
X11517Y14864
X18210Y14864
X18210Y5021
X11517Y5021
X8368Y5021
X1675Y5021
M30
