%
M48
M72
T01C0.0177
T02C0.0236
T03C0.0315
T04C0.0320
T05C0.1457
%
T01
X1222Y7088
X1380Y7324
X1537Y7561
X1734Y7797
X1931Y7994
X2128Y8191
X2324Y8387
X2561Y8545
X2797Y8702
X3033Y8820
X7088Y11104
X7364Y11261
X7639Y11458
X7876Y11655
X8112Y11852
X8309Y12088
X8506Y12324
X8663Y12561
X8820Y12836
X11104Y16931
X11261Y17167
X11419Y17403
X11616Y17639
X11813Y17836
X12009Y18033
X12206Y18230
X12443Y18387
X12679Y18545
X12915Y18663
X18663Y12836
X18506Y12561
X18348Y12324
X18151Y12088
X17954Y11852
X17718Y11655
X17482Y11458
X17206Y11261
X16931Y11104
X12876Y8820
X12639Y8702
X12403Y8545
X12167Y8387
X11970Y8191
X11773Y7994
X11576Y7797
X11380Y7561
X11222Y7324
X11065Y7088
X8820Y2954
X8663Y2679
X8506Y2443
X8309Y2206
X8112Y1970
X7876Y1773
X7639Y1576
X7364Y1380
X7088Y1222
X16931Y1222
X17206Y1380
X17482Y1576
X17718Y1773
X17954Y1970
X18151Y2206
X18348Y2443
X18506Y2679
X18663Y2954
X3072Y18663
X2836Y18545
X2600Y18387
X2364Y18230
X2167Y18033
X1970Y17836
X1773Y17639
X1576Y17403
X1419Y17167
X1261Y16931
T02
X3230Y3899
X4017Y3820
X4765Y3860
X5553Y3860
X7206Y2836
X5002Y1931
X13072Y3899
X13860Y3820
X14608Y3860
X15395Y3860
X17049Y2836
X14844Y1931
X14883Y11773
X14647Y13702
X13899Y13663
X13112Y13742
X15435Y13702
X17088Y12679
X7246Y12679
X5592Y13702
X4805Y13702
X4057Y13663
X3269Y13742
X5041Y11773
T03
X5080Y14383
X5080Y15383
X14923Y15383
X14923Y14383
X14883Y5541
X14883Y4541
X5041Y4541
X5041Y5541
T04
X5541Y7797
X4541Y7797
X4580Y17639
X5580Y17639
X14423Y17639
X15423Y17639
X15383Y7797
X14383Y7797
T05
X11537Y5041
X8387Y5041
X1694Y5041
X1734Y14883
X8427Y14883
X11576Y14883
X18269Y14883
X18230Y5041
M30
