G75*
%MOIN*%
%OFA0B0*%
%FSLAX25Y25*%
%IPPOS*%
%LPD*%
%AMOC8*
5,1,8,0,0,1.08239X$1,22.5*
%
%ADD10C,0.11624*%
%ADD11R,0.04537X0.04931*%
%ADD12R,0.04931X0.04537*%
%ADD13C,0.08000*%
%ADD14C,0.06537*%
%ADD15C,0.04569*%
%ADD16R,0.05324X0.02175*%
%ADD17OC8,0.07200*%
%ADD18R,0.07687X0.04931*%
%ADD19R,0.09261X0.02962*%
%ADD20R,0.05600X0.02800*%
%ADD21R,0.02800X0.05600*%
%ADD22R,0.04600X0.05100*%
%ADD23R,0.05324X0.17529*%
%ADD24C,0.04600*%
%ADD25C,0.04362*%
%ADD26C,0.03969*%
D10*
X0023000Y0017448D03*
X0023000Y0182802D03*
X0188354Y0182802D03*
X0188354Y0017448D03*
D11*
X0177553Y0058759D03*
X0177553Y0065451D03*
X0177309Y0072557D03*
X0177309Y0079249D03*
X0171812Y0133922D03*
X0171812Y0140615D03*
X0163288Y0140601D03*
X0163288Y0133908D03*
X0156585Y0133766D03*
X0149892Y0133766D03*
X0089366Y0110704D03*
X0082673Y0110704D03*
X0075050Y0110027D03*
X0075050Y0103334D03*
X0055048Y0076630D03*
X0048355Y0076630D03*
X0048355Y0061136D03*
X0055048Y0061136D03*
D12*
X0055048Y0053008D03*
X0048355Y0053008D03*
X0109315Y0047166D03*
X0116008Y0047166D03*
X0114215Y0023471D03*
X0120908Y0023471D03*
X0168440Y0050304D03*
X0175133Y0050304D03*
X0072201Y0182937D03*
X0072201Y0189630D03*
D13*
X0096383Y0154267D03*
X0106383Y0154267D03*
X0106383Y0144267D03*
X0096383Y0144267D03*
X0116383Y0144267D03*
X0116383Y0154267D03*
X0027970Y0156389D03*
X0027970Y0146389D03*
X0027970Y0166389D03*
X0112698Y0012440D03*
X0122698Y0012440D03*
X0132698Y0012440D03*
X0142698Y0012440D03*
X0152698Y0012440D03*
X0162698Y0012440D03*
D14*
X0012173Y0034869D03*
X0012173Y0063019D03*
X0012173Y0086050D03*
X0012173Y0114200D03*
D15*
X0022803Y0109574D03*
X0022803Y0090676D03*
X0022803Y0058393D03*
X0022803Y0039495D03*
D16*
X0023000Y0043826D03*
X0023000Y0046385D03*
X0023000Y0048944D03*
X0023000Y0051503D03*
X0023000Y0054062D03*
X0023000Y0095007D03*
X0023000Y0097566D03*
X0023000Y0100125D03*
X0023000Y0102684D03*
X0023000Y0105243D03*
D17*
X0058179Y0182501D03*
X0058179Y0192501D03*
X0093612Y0192501D03*
X0093612Y0182501D03*
X0117234Y0182501D03*
X0117234Y0192501D03*
X0140856Y0192501D03*
X0140856Y0182501D03*
D18*
X0102624Y0037060D03*
X0102624Y0022493D03*
X0078214Y0022493D03*
X0078214Y0037060D03*
D19*
X0150829Y0109434D03*
X0150829Y0114434D03*
X0150829Y0119434D03*
X0150829Y0124434D03*
X0171301Y0124434D03*
X0171301Y0119434D03*
X0171301Y0114434D03*
X0171301Y0109434D03*
D20*
X0159228Y0056606D03*
X0159228Y0053457D03*
X0159228Y0050307D03*
X0159228Y0047157D03*
X0159228Y0044008D03*
X0159228Y0040858D03*
X0159228Y0037709D03*
X0159228Y0034559D03*
X0125428Y0034559D03*
X0125428Y0037709D03*
X0125428Y0040858D03*
X0125428Y0044008D03*
X0125428Y0047157D03*
X0125428Y0050307D03*
X0125428Y0053457D03*
X0125428Y0056606D03*
D21*
X0131305Y0062483D03*
X0134454Y0062483D03*
X0137604Y0062483D03*
X0140754Y0062483D03*
X0143903Y0062483D03*
X0147053Y0062483D03*
X0150202Y0062483D03*
X0153352Y0062483D03*
X0153352Y0028683D03*
X0150202Y0028683D03*
X0147053Y0028683D03*
X0143903Y0028683D03*
X0140754Y0028683D03*
X0137604Y0028683D03*
X0134454Y0028683D03*
X0131305Y0028683D03*
D22*
X0086122Y0094917D03*
X0089622Y0102917D03*
X0082622Y0102917D03*
D23*
X0192201Y0082389D03*
X0192201Y0043806D03*
D24*
X0179501Y0098284D02*
X0179501Y0102284D01*
X0174501Y0102284D02*
X0174501Y0098284D01*
X0169501Y0098284D02*
X0169501Y0102284D01*
X0164501Y0102284D02*
X0164501Y0098284D01*
X0159501Y0098284D02*
X0159501Y0102284D01*
X0154501Y0102284D02*
X0154501Y0098284D01*
X0149501Y0098284D02*
X0149501Y0102284D01*
X0144501Y0102284D02*
X0144501Y0098284D01*
D25*
X0161417Y0114305D03*
X0178956Y0033323D03*
D26*
X0169400Y0028100D03*
X0164859Y0031291D03*
X0168971Y0033634D03*
X0166252Y0037700D03*
X0143904Y0037133D03*
X0143904Y0044753D03*
X0143650Y0049960D03*
X0133490Y0049960D03*
X0133617Y0036498D03*
X0140452Y0022700D03*
X0110630Y0040562D03*
X0113551Y0060755D03*
X0124852Y0070100D03*
X0130252Y0082100D03*
X0138652Y0073100D03*
X0156652Y0070100D03*
X0158452Y0065300D03*
X0164732Y0067486D03*
X0171971Y0084885D03*
X0192037Y0062406D03*
X0194958Y0030021D03*
X0129426Y0093775D03*
X0113551Y0080440D03*
X0093866Y0092251D03*
X0065672Y0107999D03*
X0058433Y0127684D03*
X0043574Y0141146D03*
X0038748Y0123747D03*
X0038748Y0100125D03*
X0038748Y0078303D03*
X0038748Y0047481D03*
X0030874Y0042340D03*
X0058433Y0037133D03*
X0070244Y0045007D03*
X0093866Y0060755D03*
X0143452Y0132500D03*
M02*
