G75*
%MOIN*%
%OFA0B0*%
%FSLAX25Y25*%
%IPPOS*%
%LPD*%
%AMOC8*
5,1,8,0,0,1.08239X$1,22.5*
%
%ADD10C,0.00500*%
%ADD11C,0.00600*%
%ADD12C,0.00800*%
%ADD13C,0.00300*%
D10*
X0015913Y0032409D02*
X0015913Y0037133D01*
X0025362Y0037133D01*
X0025362Y0041857D01*
X0025362Y0056031D02*
X0025362Y0060755D01*
X0015913Y0060755D01*
X0015913Y0065480D01*
X0009614Y0059180D02*
X0009614Y0038708D01*
X0015913Y0083590D02*
X0015913Y0088314D01*
X0025362Y0088314D01*
X0025362Y0093039D01*
X0025362Y0107212D02*
X0025362Y0111936D01*
X0015913Y0111936D01*
X0015913Y0116661D01*
X0009614Y0110361D02*
X0009614Y0089889D01*
X0054077Y0141511D02*
X0054077Y0145448D01*
X0054077Y0141511D02*
X0069825Y0141511D01*
X0069825Y0145448D01*
X0069825Y0169070D02*
X0069825Y0173007D01*
X0054077Y0173007D01*
X0054077Y0169070D01*
X0130405Y0158080D02*
X0130405Y0157293D01*
X0130405Y0158080D02*
X0193397Y0158080D01*
X0193397Y0157293D01*
X0193397Y0150993D02*
X0193397Y0149419D01*
X0193397Y0143119D02*
X0193397Y0141545D01*
X0193397Y0135245D02*
X0193397Y0133671D01*
X0193397Y0127371D02*
X0193397Y0125797D01*
X0193397Y0119497D02*
X0193397Y0117923D01*
X0193397Y0111623D02*
X0193397Y0110049D01*
X0193397Y0103749D02*
X0193397Y0102175D01*
X0193397Y0095875D02*
X0193397Y0095088D01*
X0130405Y0095088D01*
X0130405Y0095875D01*
X0130405Y0102175D02*
X0130405Y0103749D01*
X0130405Y0110049D02*
X0130405Y0111623D01*
X0130405Y0117923D02*
X0130405Y0119497D01*
X0130405Y0125797D02*
X0130405Y0127371D01*
X0130405Y0133671D02*
X0130405Y0135245D01*
X0130405Y0141545D02*
X0130405Y0143119D01*
X0130405Y0149419D02*
X0130405Y0150993D01*
X0137001Y0141034D02*
X0187001Y0141034D01*
X0187001Y0099784D01*
X0182001Y0099784D01*
X0142001Y0099784D02*
X0137001Y0099784D01*
X0137001Y0141034D01*
X0154409Y0165150D02*
X0153901Y0165658D01*
X0153901Y0166673D01*
X0154409Y0167181D01*
X0155424Y0167181D01*
X0155932Y0166673D01*
X0155932Y0165658D01*
X0155424Y0165150D01*
X0154409Y0165150D01*
X0157091Y0165150D02*
X0158107Y0165150D01*
X0157599Y0165150D02*
X0157599Y0167181D01*
X0158107Y0167181D01*
X0157599Y0168196D02*
X0157599Y0168704D01*
X0159339Y0168540D02*
X0159846Y0168032D01*
X0160354Y0168032D01*
X0159339Y0168540D02*
X0159339Y0171078D01*
X0160862Y0171078D01*
X0161369Y0170571D01*
X0161369Y0169555D01*
X0160862Y0169048D01*
X0159339Y0169048D01*
X0161478Y0167181D02*
X0160970Y0166673D01*
X0160970Y0166165D01*
X0163001Y0166165D01*
X0163001Y0165658D02*
X0163001Y0166673D01*
X0162493Y0167181D01*
X0161478Y0167181D01*
X0161478Y0165150D02*
X0162493Y0165150D01*
X0163001Y0165658D01*
X0164197Y0167181D02*
X0164704Y0167181D01*
X0165720Y0166165D01*
X0165720Y0165150D02*
X0165720Y0167181D01*
X0166952Y0166673D02*
X0166952Y0165150D01*
X0168474Y0165150D01*
X0168982Y0165658D01*
X0168474Y0166165D01*
X0166952Y0166165D01*
X0166952Y0166673D02*
X0167459Y0167181D01*
X0168474Y0167181D01*
X0170214Y0167181D02*
X0170214Y0165658D01*
X0170722Y0165150D01*
X0171229Y0165658D01*
X0171737Y0165150D01*
X0172245Y0165658D01*
X0172245Y0167181D01*
X0173477Y0167181D02*
X0175000Y0167181D01*
X0175507Y0166673D01*
X0175507Y0165658D01*
X0175000Y0165150D01*
X0173477Y0165150D01*
X0173477Y0168196D01*
X0172245Y0169048D02*
X0170722Y0169048D01*
X0170214Y0169555D01*
X0170722Y0170063D01*
X0171737Y0170063D01*
X0172245Y0170571D01*
X0171737Y0171078D01*
X0170214Y0171078D01*
X0168982Y0169555D02*
X0168474Y0169555D01*
X0168474Y0169048D01*
X0168982Y0169048D01*
X0168982Y0169555D01*
X0167351Y0169555D02*
X0166843Y0169048D01*
X0165828Y0169048D01*
X0165320Y0169555D01*
X0165320Y0170571D01*
X0165828Y0171078D01*
X0166843Y0171078D01*
X0167351Y0170571D01*
X0167351Y0169555D01*
X0164088Y0169048D02*
X0164088Y0171078D01*
X0164088Y0170063D02*
X0163073Y0171078D01*
X0162565Y0171078D01*
X0159738Y0165658D02*
X0159230Y0165658D01*
X0159230Y0165150D01*
X0159738Y0165150D01*
X0159738Y0165658D01*
X0173441Y0171078D02*
X0173948Y0171078D01*
X0174964Y0170063D01*
X0174964Y0169048D02*
X0174964Y0171078D01*
X0176196Y0170571D02*
X0176196Y0169555D01*
X0176703Y0169048D01*
X0177719Y0169048D01*
X0178226Y0169555D01*
X0178226Y0170571D01*
X0177719Y0171078D01*
X0176703Y0171078D01*
X0176196Y0170571D01*
X0179458Y0171078D02*
X0180981Y0171078D01*
X0181489Y0170571D01*
X0180981Y0170063D01*
X0179966Y0170063D01*
X0179458Y0169555D01*
X0179966Y0169048D01*
X0181489Y0169048D01*
X0182721Y0169048D02*
X0182721Y0170571D01*
X0183229Y0171078D01*
X0184751Y0171078D01*
X0184751Y0169048D01*
X0184751Y0168196D02*
X0184751Y0165150D01*
X0185984Y0165150D02*
X0185984Y0166673D01*
X0186491Y0167181D01*
X0188014Y0167181D01*
X0188014Y0165150D01*
X0189246Y0166165D02*
X0191277Y0166165D01*
X0191277Y0165658D02*
X0191277Y0166673D01*
X0190769Y0167181D01*
X0189754Y0167181D01*
X0189246Y0166673D01*
X0189246Y0166165D01*
X0189754Y0165150D02*
X0190769Y0165150D01*
X0191277Y0165658D01*
X0192509Y0165658D02*
X0192509Y0166673D01*
X0193016Y0167181D01*
X0194539Y0167181D01*
X0194539Y0164135D01*
X0194539Y0165150D02*
X0193016Y0165150D01*
X0192509Y0165658D01*
X0193016Y0168032D02*
X0193524Y0168032D01*
X0193016Y0168032D02*
X0192509Y0168540D01*
X0192509Y0171078D01*
X0191277Y0171078D02*
X0190769Y0170571D01*
X0189754Y0170571D01*
X0189246Y0170063D01*
X0189246Y0169555D01*
X0189754Y0169048D01*
X0190769Y0169048D01*
X0191277Y0169555D01*
X0192509Y0169048D02*
X0194032Y0169048D01*
X0194539Y0169555D01*
X0194539Y0171078D01*
X0195771Y0172094D02*
X0195771Y0169048D01*
X0196279Y0168196D02*
X0195771Y0167688D01*
X0195771Y0165658D01*
X0196279Y0165150D01*
X0197294Y0165150D01*
X0197802Y0165658D01*
X0197802Y0167688D01*
X0197294Y0168196D01*
X0196279Y0168196D01*
X0197802Y0169048D02*
X0197802Y0172094D01*
X0196787Y0171078D01*
X0195771Y0172094D01*
X0191277Y0171586D02*
X0191277Y0171078D01*
X0191277Y0171586D02*
X0190769Y0172094D01*
X0189754Y0172094D01*
X0189246Y0171586D01*
X0188014Y0170571D02*
X0188014Y0169555D01*
X0187506Y0169048D01*
X0186491Y0169048D01*
X0185984Y0170063D02*
X0188014Y0170063D01*
X0188014Y0170571D02*
X0187506Y0171078D01*
X0186491Y0171078D01*
X0185984Y0170571D01*
X0185984Y0170063D01*
X0184751Y0166673D02*
X0182721Y0166673D01*
X0182721Y0168196D02*
X0182721Y0165150D01*
X0181489Y0165658D02*
X0180981Y0166165D01*
X0179458Y0166165D01*
X0179458Y0166673D02*
X0179458Y0165150D01*
X0180981Y0165150D01*
X0181489Y0165658D01*
X0180981Y0167181D02*
X0179966Y0167181D01*
X0179458Y0166673D01*
X0178226Y0167181D02*
X0178226Y0165150D01*
X0178226Y0166165D02*
X0177211Y0167181D01*
X0176703Y0167181D01*
D11*
X0166215Y0156803D02*
X0166215Y0154348D01*
X0165724Y0153857D01*
X0164742Y0153857D01*
X0164251Y0154348D01*
X0164251Y0156803D01*
X0162952Y0156803D02*
X0162952Y0155330D01*
X0161970Y0155821D01*
X0161479Y0155821D01*
X0160988Y0155330D01*
X0160988Y0154348D01*
X0161479Y0153857D01*
X0162461Y0153857D01*
X0162952Y0154348D01*
X0162952Y0156803D02*
X0160988Y0156803D01*
X0135352Y0187400D02*
X0135352Y0190346D01*
X0133879Y0190346D01*
X0133388Y0189855D01*
X0133388Y0188873D01*
X0133879Y0188382D01*
X0135352Y0188382D01*
X0134370Y0188382D02*
X0133388Y0187400D01*
X0132089Y0187891D02*
X0131598Y0187400D01*
X0130616Y0187400D01*
X0130125Y0187891D01*
X0130125Y0188873D01*
X0130616Y0189364D01*
X0131107Y0189364D01*
X0132089Y0188873D01*
X0132089Y0190346D01*
X0130125Y0190346D01*
X0110752Y0190346D02*
X0110752Y0187400D01*
X0110752Y0188382D02*
X0109279Y0188382D01*
X0108788Y0188873D01*
X0108788Y0189855D01*
X0109279Y0190346D01*
X0110752Y0190346D01*
X0109770Y0188382D02*
X0108788Y0187400D01*
X0107489Y0187891D02*
X0106998Y0187400D01*
X0106016Y0187400D01*
X0105525Y0187891D01*
X0105525Y0188382D01*
X0106016Y0188873D01*
X0107489Y0188873D01*
X0107489Y0187891D01*
X0107489Y0188873D02*
X0106507Y0189855D01*
X0105525Y0190346D01*
X0084952Y0184346D02*
X0084952Y0181400D01*
X0084952Y0182382D02*
X0083479Y0182382D01*
X0082988Y0182873D01*
X0082988Y0183855D01*
X0083479Y0184346D01*
X0084952Y0184346D01*
X0083970Y0182382D02*
X0082988Y0181400D01*
X0081689Y0181400D02*
X0081689Y0181891D01*
X0079725Y0183855D01*
X0079725Y0184346D01*
X0081689Y0184346D01*
X0081734Y0148227D02*
X0081243Y0148227D01*
X0080752Y0147736D01*
X0080752Y0146754D01*
X0081243Y0146263D01*
X0081243Y0144964D02*
X0083698Y0144964D01*
X0083207Y0146263D02*
X0083698Y0146754D01*
X0083698Y0147736D01*
X0083207Y0148227D01*
X0082716Y0148227D01*
X0082225Y0147736D01*
X0081734Y0148227D01*
X0082225Y0147736D02*
X0082225Y0147245D01*
X0081243Y0144964D02*
X0080752Y0144473D01*
X0080752Y0143491D01*
X0081243Y0143000D01*
X0083698Y0143000D01*
X0054352Y0131655D02*
X0054352Y0129691D01*
X0053861Y0129200D01*
X0052879Y0129200D01*
X0052388Y0129691D01*
X0051089Y0129691D02*
X0051089Y0129200D01*
X0051089Y0129691D02*
X0049125Y0131655D01*
X0049125Y0132146D01*
X0051089Y0132146D01*
X0052388Y0131655D02*
X0052879Y0132146D01*
X0053861Y0132146D01*
X0054352Y0131655D01*
X0044261Y0160400D02*
X0043279Y0160400D01*
X0042788Y0160891D01*
X0041489Y0160400D02*
X0039525Y0160400D01*
X0040507Y0160400D02*
X0040507Y0163346D01*
X0041489Y0162364D01*
X0042788Y0162855D02*
X0043279Y0163346D01*
X0044261Y0163346D01*
X0044752Y0162855D01*
X0044752Y0160891D01*
X0044261Y0160400D01*
X0038227Y0160400D02*
X0036263Y0160400D01*
X0037245Y0160400D02*
X0037245Y0163346D01*
X0038227Y0162364D01*
X0038216Y0177200D02*
X0037725Y0177691D01*
X0037725Y0179655D01*
X0038216Y0180146D01*
X0039198Y0180146D01*
X0039689Y0179655D01*
X0039689Y0179164D01*
X0039198Y0178673D01*
X0037725Y0178673D01*
X0038216Y0177200D02*
X0039198Y0177200D01*
X0039689Y0177691D01*
X0040988Y0177691D02*
X0041479Y0177200D01*
X0042461Y0177200D01*
X0042952Y0177691D01*
X0042952Y0179655D01*
X0042461Y0180146D01*
X0041479Y0180146D01*
X0040988Y0179655D01*
X0083209Y0076301D02*
X0083209Y0074337D01*
X0083209Y0075319D02*
X0086154Y0075319D01*
X0085173Y0074337D01*
X0086154Y0073039D02*
X0086154Y0071075D01*
X0086154Y0072057D02*
X0083209Y0072057D01*
X0083700Y0069776D02*
X0083209Y0069285D01*
X0083209Y0067812D01*
X0086154Y0067812D01*
X0086154Y0069285D01*
X0085664Y0069776D01*
X0085173Y0069776D01*
X0084682Y0069285D01*
X0084682Y0067812D01*
X0084682Y0069285D02*
X0084191Y0069776D01*
X0083700Y0069776D01*
X0163463Y0025455D02*
X0163954Y0025946D01*
X0164936Y0025946D01*
X0165427Y0025455D01*
X0163463Y0025455D02*
X0163463Y0024964D01*
X0165427Y0023000D01*
X0163463Y0023000D01*
X0166725Y0023000D02*
X0168689Y0023000D01*
X0167707Y0023000D02*
X0167707Y0025946D01*
X0168689Y0024964D01*
X0169988Y0025455D02*
X0170479Y0025946D01*
X0171461Y0025946D01*
X0171952Y0025455D01*
X0171952Y0023491D01*
X0171461Y0023000D01*
X0170479Y0023000D01*
X0169988Y0023491D01*
X0183525Y0033091D02*
X0184016Y0032600D01*
X0184998Y0032600D01*
X0185489Y0033091D01*
X0184507Y0034073D02*
X0184016Y0034073D01*
X0183525Y0033582D01*
X0183525Y0033091D01*
X0184016Y0034073D02*
X0183525Y0034564D01*
X0183525Y0035055D01*
X0184016Y0035546D01*
X0184998Y0035546D01*
X0185489Y0035055D01*
X0186788Y0035055D02*
X0186788Y0034073D01*
X0187279Y0033582D01*
X0188752Y0033582D01*
X0187770Y0033582D02*
X0186788Y0032600D01*
X0188752Y0032600D02*
X0188752Y0035546D01*
X0187279Y0035546D01*
X0186788Y0035055D01*
X0176752Y0091400D02*
X0176752Y0094346D01*
X0175770Y0093364D01*
X0174788Y0094346D01*
X0174788Y0091400D01*
X0173489Y0091400D02*
X0171525Y0091400D01*
X0172507Y0091400D02*
X0172507Y0094346D01*
X0173489Y0093364D01*
D12*
X0123694Y0098276D02*
X0123694Y0049142D01*
X0107159Y0022370D01*
X0084954Y0022370D01*
X0061332Y0022370D02*
X0045663Y0022370D01*
X0045663Y0022371D02*
X0045375Y0022377D01*
X0045088Y0022390D01*
X0044801Y0022410D01*
X0044515Y0022437D01*
X0044229Y0022471D01*
X0043944Y0022511D01*
X0043661Y0022559D01*
X0043378Y0022614D01*
X0043098Y0022675D01*
X0042818Y0022743D01*
X0042541Y0022819D01*
X0042265Y0022900D01*
X0041991Y0022989D01*
X0041720Y0023084D01*
X0041451Y0023186D01*
X0041185Y0023294D01*
X0040921Y0023409D01*
X0040660Y0023530D01*
X0040402Y0023658D01*
X0040148Y0023792D01*
X0039897Y0023932D01*
X0039649Y0024078D01*
X0039405Y0024230D01*
X0039164Y0024388D01*
X0038928Y0024551D01*
X0038696Y0024721D01*
X0038468Y0024896D01*
X0038244Y0025077D01*
X0038024Y0025263D01*
X0037810Y0025454D01*
X0037600Y0025651D01*
X0037395Y0025852D01*
X0037195Y0026059D01*
X0036999Y0026270D01*
X0036810Y0026486D01*
X0036625Y0026707D01*
X0036446Y0026932D01*
X0036273Y0027161D01*
X0036105Y0027394D01*
X0035943Y0027632D01*
X0035786Y0027873D01*
X0035636Y0028118D01*
X0035492Y0028367D01*
X0035353Y0028619D01*
X0035221Y0028875D01*
X0035096Y0029134D01*
X0034976Y0029395D01*
X0034863Y0029660D01*
X0034757Y0029927D01*
X0034657Y0030196D01*
X0034563Y0030468D01*
X0034477Y0030743D01*
X0034397Y0031019D01*
X0034324Y0031297D01*
X0034257Y0031577D01*
X0034198Y0031858D01*
X0034145Y0032141D01*
X0034099Y0032425D01*
X0034060Y0032710D01*
X0034028Y0032995D01*
X0034004Y0033282D01*
X0033986Y0033569D01*
X0033975Y0033856D01*
X0033971Y0034144D01*
X0033974Y0034432D01*
X0033984Y0034719D01*
X0034002Y0035006D01*
X0034026Y0035293D01*
X0034057Y0035578D01*
X0034095Y0035863D01*
X0034140Y0036147D01*
X0034192Y0036430D01*
X0034251Y0036712D01*
X0034317Y0036992D01*
X0034389Y0037270D01*
X0034469Y0037547D01*
X0034555Y0037821D01*
X0034647Y0038093D01*
X0034747Y0038363D01*
X0034852Y0038630D01*
X0034965Y0038895D01*
X0035084Y0039157D01*
X0035209Y0039416D01*
X0035340Y0039672D01*
X0035478Y0039924D01*
X0035622Y0040173D01*
X0035771Y0040419D01*
X0035927Y0040661D01*
X0036089Y0040899D01*
X0036256Y0041132D01*
X0036429Y0041362D01*
X0036607Y0041588D01*
X0036791Y0041809D01*
X0036981Y0042025D01*
X0037175Y0042237D01*
X0037375Y0042444D01*
X0037580Y0042646D01*
X0037789Y0042843D01*
X0037395Y0042450D02*
X0038151Y0043163D01*
X0038890Y0043895D01*
X0039611Y0044645D01*
X0040313Y0045412D01*
X0040997Y0046196D01*
X0041660Y0046997D01*
X0042304Y0047814D01*
X0042928Y0048646D01*
X0043531Y0049493D01*
X0044114Y0050355D01*
X0044675Y0051231D01*
X0045214Y0052120D01*
X0045732Y0053023D01*
X0046227Y0053937D01*
X0046700Y0054864D01*
X0047149Y0055802D01*
X0047576Y0056750D01*
X0047979Y0057709D01*
X0048359Y0058677D01*
X0048715Y0059654D01*
X0049047Y0060640D01*
X0049355Y0061634D01*
X0049638Y0062635D01*
X0049897Y0063642D01*
X0050130Y0064655D01*
X0050339Y0065674D01*
X0050523Y0066698D01*
X0050682Y0067726D01*
X0050816Y0068758D01*
X0050924Y0069792D01*
X0051007Y0070829D01*
X0051065Y0071867D01*
X0051097Y0072907D01*
X0051103Y0073947D01*
X0051084Y0074987D01*
X0051040Y0076026D01*
X0050970Y0077064D01*
X0050875Y0078100D01*
X0050755Y0079133D01*
X0050609Y0080163D01*
X0050438Y0081188D01*
X0050242Y0082210D01*
X0050021Y0083226D01*
X0049775Y0084237D01*
X0049504Y0085241D01*
X0049209Y0086239D01*
X0048890Y0087229D01*
X0048546Y0088210D01*
X0048179Y0089183D01*
X0047788Y0090147D01*
X0047373Y0091101D01*
X0046935Y0092044D01*
X0046474Y0092977D01*
X0045991Y0093898D01*
X0045485Y0094806D01*
X0044957Y0095702D01*
X0044407Y0096585D01*
X0043835Y0097454D01*
X0043243Y0098309D01*
X0042630Y0099149D01*
X0041996Y0099974D01*
X0041342Y0100783D01*
X0040669Y0101576D01*
X0039977Y0102352D01*
X0039265Y0103111D01*
X0038536Y0103852D01*
X0037788Y0104576D01*
X0037788Y0104575D02*
X0037576Y0104765D01*
X0037369Y0104960D01*
X0037167Y0105161D01*
X0036969Y0105366D01*
X0036777Y0105576D01*
X0036590Y0105790D01*
X0036408Y0106009D01*
X0036231Y0106233D01*
X0036060Y0106461D01*
X0035895Y0106692D01*
X0035735Y0106928D01*
X0035581Y0107168D01*
X0035433Y0107411D01*
X0035291Y0107658D01*
X0035155Y0107908D01*
X0035025Y0108161D01*
X0034901Y0108418D01*
X0034784Y0108677D01*
X0034673Y0108940D01*
X0034568Y0109204D01*
X0034470Y0109472D01*
X0034379Y0109741D01*
X0034294Y0110013D01*
X0034215Y0110287D01*
X0034144Y0110563D01*
X0034079Y0110840D01*
X0034021Y0111119D01*
X0033969Y0111399D01*
X0033925Y0111680D01*
X0033887Y0111962D01*
X0033857Y0112245D01*
X0033833Y0112529D01*
X0033816Y0112813D01*
X0033806Y0113098D01*
X0033803Y0113383D01*
X0033807Y0113668D01*
X0033818Y0113952D01*
X0033836Y0114236D01*
X0033860Y0114520D01*
X0033892Y0114803D01*
X0033930Y0115085D01*
X0033976Y0115366D01*
X0034028Y0115646D01*
X0034087Y0115925D01*
X0034153Y0116202D01*
X0034225Y0116477D01*
X0034305Y0116751D01*
X0034390Y0117022D01*
X0034483Y0117292D01*
X0034582Y0117559D01*
X0034687Y0117823D01*
X0034799Y0118085D01*
X0034917Y0118344D01*
X0035042Y0118600D01*
X0035173Y0118853D01*
X0035309Y0119103D01*
X0035452Y0119349D01*
X0035601Y0119592D01*
X0035756Y0119831D01*
X0035916Y0120066D01*
X0036083Y0120298D01*
X0036254Y0120525D01*
X0036432Y0120748D01*
X0036614Y0120966D01*
X0036802Y0121180D01*
X0036995Y0121390D01*
X0037193Y0121594D01*
X0037396Y0121794D01*
X0037604Y0121988D01*
X0037817Y0122178D01*
X0038034Y0122362D01*
X0038255Y0122541D01*
X0038481Y0122715D01*
X0038711Y0122883D01*
X0038945Y0123045D01*
X0039183Y0123202D01*
X0039424Y0123352D01*
X0039669Y0123497D01*
X0039918Y0123636D01*
X0040170Y0123769D01*
X0040425Y0123895D01*
X0040683Y0124015D01*
X0040944Y0124129D01*
X0041208Y0124237D01*
X0041474Y0124338D01*
X0041743Y0124433D01*
X0042014Y0124521D01*
X0042287Y0124602D01*
X0042561Y0124677D01*
X0042838Y0124745D01*
X0043116Y0124806D01*
X0043396Y0124860D01*
X0043676Y0124908D01*
X0043958Y0124948D01*
X0044241Y0124982D01*
X0044524Y0125009D01*
X0044808Y0125029D01*
X0045093Y0125042D01*
X0045378Y0125048D01*
X0045662Y0125048D01*
X0045663Y0125048D02*
X0061332Y0125048D01*
X0084954Y0125048D02*
X0107159Y0125048D01*
X0123694Y0098276D01*
X0098883Y0137948D02*
X0093883Y0137948D01*
D13*
X0143280Y0140248D02*
X0145749Y0140248D01*
X0144515Y0140248D02*
X0144515Y0136545D01*
X0146963Y0137162D02*
X0146963Y0137779D01*
X0147581Y0138397D01*
X0148815Y0138397D01*
X0149432Y0139014D01*
X0149432Y0139631D01*
X0148815Y0140248D01*
X0147581Y0140248D01*
X0146963Y0139631D01*
X0146963Y0137162D02*
X0147581Y0136545D01*
X0148815Y0136545D01*
X0149432Y0137162D01*
X0150647Y0136545D02*
X0151881Y0137779D01*
X0151264Y0137779D02*
X0153115Y0137779D01*
X0153115Y0136545D02*
X0153115Y0140248D01*
X0151264Y0140248D01*
X0150647Y0139631D01*
X0150647Y0138397D01*
X0151264Y0137779D01*
X0150647Y0132374D02*
X0150647Y0128671D01*
X0153115Y0132374D01*
X0153115Y0128671D01*
X0152498Y0124500D02*
X0153115Y0123883D01*
X0153115Y0123266D01*
X0152498Y0122649D01*
X0151264Y0122649D01*
X0150647Y0122031D01*
X0150647Y0121414D01*
X0151264Y0120797D01*
X0152498Y0120797D01*
X0153115Y0121414D01*
X0150647Y0123883D02*
X0151264Y0124500D01*
X0152498Y0124500D01*
X0149432Y0123883D02*
X0149432Y0121414D01*
X0148815Y0120797D01*
X0147581Y0120797D01*
X0146963Y0121414D01*
X0145749Y0120797D02*
X0145749Y0124500D01*
X0146963Y0123883D02*
X0147581Y0124500D01*
X0148815Y0124500D01*
X0149432Y0123883D01*
X0145749Y0122031D02*
X0143280Y0124500D01*
X0145132Y0122649D02*
X0143280Y0120797D01*
X0143287Y0116626D02*
X0144521Y0116626D01*
X0143904Y0116626D02*
X0143904Y0112923D01*
X0143635Y0113280D02*
X0143151Y0112796D01*
X0143151Y0111829D01*
X0143635Y0111345D01*
X0145570Y0111345D01*
X0146053Y0111829D01*
X0146053Y0112796D01*
X0145570Y0113280D01*
X0143635Y0113280D01*
X0143151Y0113280D02*
X0144118Y0112312D01*
X0144521Y0112923D02*
X0143287Y0112923D01*
X0145736Y0113540D02*
X0145736Y0114157D01*
X0146353Y0114775D01*
X0147587Y0114775D01*
X0148205Y0115392D01*
X0148205Y0116009D01*
X0147587Y0116626D01*
X0146353Y0116626D01*
X0145736Y0116009D01*
X0148151Y0115743D02*
X0148635Y0116226D01*
X0150570Y0116226D01*
X0151053Y0115743D01*
X0151053Y0114775D01*
X0150570Y0114291D01*
X0148635Y0114291D01*
X0148151Y0114775D01*
X0148151Y0115743D01*
X0149419Y0116009D02*
X0149419Y0113540D01*
X0150036Y0112923D01*
X0151270Y0112923D01*
X0151888Y0113540D01*
X0151888Y0116009D01*
X0151270Y0116626D01*
X0150036Y0116626D01*
X0149419Y0116009D01*
X0149118Y0113280D02*
X0148635Y0113280D01*
X0148151Y0112796D01*
X0148151Y0111829D01*
X0148635Y0111345D01*
X0149602Y0111829D02*
X0150086Y0111345D01*
X0150570Y0111345D01*
X0151053Y0111829D01*
X0151053Y0112796D01*
X0150570Y0113280D01*
X0149602Y0112796D02*
X0149118Y0113280D01*
X0149602Y0112796D02*
X0149602Y0111829D01*
X0148151Y0110348D02*
X0148151Y0109381D01*
X0148151Y0109864D02*
X0151053Y0109864D01*
X0151053Y0109381D02*
X0151053Y0110348D01*
X0151270Y0108752D02*
X0151270Y0105049D01*
X0150653Y0105049D02*
X0151888Y0105049D01*
X0153102Y0105049D02*
X0153102Y0108752D01*
X0154336Y0107518D01*
X0155571Y0108752D01*
X0155571Y0105049D01*
X0156053Y0106434D02*
X0155086Y0107401D01*
X0156053Y0108369D01*
X0153151Y0108369D01*
X0153635Y0109381D02*
X0153151Y0109864D01*
X0153151Y0110832D01*
X0153635Y0111316D01*
X0155570Y0111316D01*
X0156053Y0110832D01*
X0156053Y0109864D01*
X0155570Y0109381D01*
X0153635Y0109381D01*
X0151888Y0108752D02*
X0150653Y0108752D01*
X0151053Y0108369D02*
X0148151Y0108369D01*
X0147581Y0108752D02*
X0148815Y0108752D01*
X0149432Y0108135D01*
X0149432Y0107518D01*
X0148815Y0106901D01*
X0147581Y0106901D01*
X0146963Y0106283D01*
X0146963Y0105666D01*
X0147581Y0105049D01*
X0148815Y0105049D01*
X0149432Y0105666D01*
X0148151Y0106434D02*
X0151053Y0106434D01*
X0150086Y0107401D01*
X0151053Y0108369D01*
X0153151Y0106434D02*
X0156053Y0106434D01*
X0158151Y0106918D02*
X0158151Y0107885D01*
X0158635Y0108369D01*
X0159118Y0108369D01*
X0159602Y0107885D01*
X0159602Y0106918D01*
X0160086Y0106434D01*
X0160570Y0106434D01*
X0161053Y0106918D01*
X0161053Y0107885D01*
X0160570Y0108369D01*
X0160570Y0109381D02*
X0158635Y0109381D01*
X0158151Y0109864D01*
X0158151Y0110832D01*
X0158635Y0111316D01*
X0159118Y0112327D02*
X0161053Y0114262D01*
X0161053Y0112327D02*
X0158151Y0112327D01*
X0159602Y0112811D02*
X0158151Y0114262D01*
X0156053Y0113778D02*
X0156053Y0112811D01*
X0155570Y0112327D01*
X0155086Y0112327D01*
X0154602Y0112811D01*
X0154602Y0113778D01*
X0154118Y0114262D01*
X0153635Y0114262D01*
X0153151Y0113778D01*
X0153151Y0112811D01*
X0153635Y0112327D01*
X0153102Y0112923D02*
X0153102Y0116626D01*
X0154336Y0115392D01*
X0155571Y0116626D01*
X0155571Y0112923D01*
X0156053Y0113778D02*
X0155570Y0114262D01*
X0156053Y0115274D02*
X0156053Y0116241D01*
X0156053Y0115757D02*
X0153151Y0115757D01*
X0153151Y0115274D02*
X0153151Y0116241D01*
X0148205Y0113540D02*
X0147587Y0112923D01*
X0146353Y0112923D01*
X0145736Y0113540D01*
X0145570Y0110333D02*
X0144602Y0110333D01*
X0144118Y0109850D01*
X0144118Y0108398D01*
X0143898Y0108752D02*
X0143280Y0108135D01*
X0143280Y0105666D01*
X0143898Y0105049D01*
X0145132Y0105049D01*
X0145749Y0105666D01*
X0145749Y0108135D01*
X0145132Y0108752D01*
X0143898Y0108752D01*
X0144118Y0109366D02*
X0143151Y0110333D01*
X0143151Y0108398D02*
X0146053Y0108398D01*
X0146053Y0109850D01*
X0145570Y0110333D01*
X0147581Y0108752D02*
X0146963Y0108135D01*
X0146053Y0107401D02*
X0146053Y0106434D01*
X0146053Y0106918D02*
X0143151Y0106918D01*
X0143151Y0107401D02*
X0143151Y0106434D01*
X0143898Y0100878D02*
X0145749Y0100878D01*
X0145749Y0097175D01*
X0143898Y0097175D01*
X0143280Y0097792D01*
X0143280Y0100261D01*
X0143898Y0100878D01*
X0146963Y0100878D02*
X0146963Y0097175D01*
X0149432Y0100878D01*
X0149432Y0097175D01*
X0150647Y0097792D02*
X0150647Y0099027D01*
X0151881Y0099027D01*
X0153115Y0100261D02*
X0152498Y0100878D01*
X0151264Y0100878D01*
X0150647Y0100261D01*
X0153115Y0100261D02*
X0153115Y0097792D01*
X0152498Y0097175D01*
X0151264Y0097175D01*
X0150647Y0097792D01*
X0158635Y0106434D02*
X0158151Y0106918D01*
X0160570Y0109381D02*
X0161053Y0109864D01*
X0161053Y0110832D01*
X0160570Y0111316D01*
X0163151Y0110832D02*
X0163151Y0109864D01*
X0163635Y0109381D01*
X0163635Y0108369D02*
X0163151Y0107885D01*
X0163151Y0106918D01*
X0163635Y0106434D01*
X0165570Y0106434D01*
X0166053Y0106918D01*
X0166053Y0107885D01*
X0165570Y0108369D01*
X0165570Y0109381D02*
X0165086Y0109381D01*
X0164602Y0109864D01*
X0164602Y0110832D01*
X0164118Y0111316D01*
X0163635Y0111316D01*
X0163151Y0110832D01*
X0163151Y0112327D02*
X0166053Y0112327D01*
X0163151Y0114262D01*
X0166053Y0114262D01*
X0169146Y0113540D02*
X0169763Y0112923D01*
X0170997Y0112923D01*
X0171614Y0113540D01*
X0169146Y0116009D01*
X0169146Y0113540D01*
X0168151Y0111316D02*
X0168151Y0109381D01*
X0171053Y0109381D01*
X0171053Y0111316D01*
X0169602Y0110348D02*
X0169602Y0109381D01*
X0170380Y0108752D02*
X0170380Y0105049D01*
X0171614Y0105049D02*
X0169146Y0105049D01*
X0168635Y0106434D02*
X0168151Y0106918D01*
X0168151Y0107885D01*
X0168635Y0108369D01*
X0170380Y0108752D02*
X0171614Y0107518D01*
X0171053Y0107885D02*
X0171053Y0106918D01*
X0170570Y0106434D01*
X0168635Y0106434D01*
X0170570Y0108369D02*
X0171053Y0107885D01*
X0172829Y0108135D02*
X0172829Y0105666D01*
X0173446Y0105049D01*
X0174680Y0105049D01*
X0175297Y0105666D01*
X0175297Y0108135D01*
X0174680Y0108752D01*
X0173446Y0108752D01*
X0172829Y0108135D01*
X0173151Y0107885D02*
X0173635Y0108369D01*
X0174602Y0108369D01*
X0174602Y0107401D01*
X0173635Y0106434D02*
X0173151Y0106918D01*
X0173151Y0107885D01*
X0173151Y0109381D02*
X0176053Y0109381D01*
X0173151Y0111316D01*
X0176053Y0111316D01*
X0176053Y0112327D02*
X0176053Y0113778D01*
X0175570Y0114262D01*
X0173635Y0114262D01*
X0173151Y0113778D01*
X0173151Y0112327D01*
X0176053Y0112327D01*
X0176518Y0112923D02*
X0177753Y0112923D01*
X0178151Y0112811D02*
X0178635Y0112327D01*
X0178151Y0112811D02*
X0178151Y0113778D01*
X0178635Y0114262D01*
X0179118Y0114262D01*
X0179602Y0113778D01*
X0179602Y0113295D01*
X0179584Y0112923D02*
X0178967Y0113540D01*
X0178967Y0116009D01*
X0179584Y0116626D01*
X0181436Y0116626D01*
X0181436Y0112923D01*
X0179584Y0112923D01*
X0179602Y0113778D02*
X0180086Y0114262D01*
X0180570Y0114262D01*
X0181053Y0113778D01*
X0181053Y0112811D01*
X0180570Y0112327D01*
X0181053Y0111316D02*
X0179118Y0111316D01*
X0178151Y0110348D01*
X0179118Y0109381D01*
X0181053Y0109381D01*
X0181436Y0108752D02*
X0179584Y0108752D01*
X0178967Y0108135D01*
X0178967Y0105666D01*
X0179584Y0105049D01*
X0181436Y0105049D01*
X0181436Y0108752D01*
X0180570Y0108369D02*
X0180086Y0108369D01*
X0179602Y0107885D01*
X0179118Y0108369D01*
X0178635Y0108369D01*
X0178151Y0107885D01*
X0178151Y0106918D01*
X0178635Y0106434D01*
X0179602Y0107401D02*
X0179602Y0107885D01*
X0180570Y0108369D02*
X0181053Y0107885D01*
X0181053Y0106918D01*
X0180570Y0106434D01*
X0177753Y0105049D02*
X0176518Y0105049D01*
X0177136Y0105049D02*
X0177136Y0108752D01*
X0177753Y0108752D02*
X0176518Y0108752D01*
X0176053Y0107885D02*
X0176053Y0106918D01*
X0175570Y0106434D01*
X0173635Y0106434D01*
X0175570Y0108369D02*
X0176053Y0107885D01*
X0177136Y0112923D02*
X0177136Y0116626D01*
X0177753Y0116626D02*
X0176518Y0116626D01*
X0175297Y0116009D02*
X0175297Y0113540D01*
X0174680Y0112923D01*
X0173446Y0112923D01*
X0172829Y0113540D01*
X0172829Y0116009D01*
X0173446Y0116626D01*
X0174680Y0116626D01*
X0175297Y0116009D01*
X0171614Y0116009D02*
X0170997Y0116626D01*
X0169763Y0116626D01*
X0169146Y0116009D01*
X0171614Y0116009D02*
X0171614Y0113540D01*
X0166053Y0110832D02*
X0166053Y0109864D01*
X0165570Y0109381D01*
X0166053Y0110832D02*
X0165570Y0111316D01*
X0169763Y0100878D02*
X0170997Y0100878D01*
X0171614Y0100261D01*
X0172829Y0100261D02*
X0173446Y0100878D01*
X0174680Y0100878D01*
X0175297Y0100261D01*
X0175297Y0097792D01*
X0174680Y0097175D01*
X0173446Y0097175D01*
X0172829Y0097792D01*
X0172829Y0100261D01*
X0169763Y0100878D02*
X0169146Y0100261D01*
X0169146Y0099644D01*
X0171614Y0097175D01*
X0169146Y0097175D01*
X0176518Y0097175D02*
X0177753Y0097175D01*
X0177136Y0097175D02*
X0177136Y0100878D01*
X0177753Y0100878D02*
X0176518Y0100878D01*
X0178967Y0100261D02*
X0179584Y0100878D01*
X0181436Y0100878D01*
X0181436Y0097175D01*
X0179584Y0097175D01*
X0178967Y0097792D01*
X0178967Y0100261D01*
X0179584Y0120797D02*
X0180819Y0120797D01*
X0181436Y0121414D01*
X0180202Y0122649D02*
X0179584Y0122649D01*
X0178967Y0122031D01*
X0178967Y0121414D01*
X0179584Y0120797D01*
X0177753Y0120797D02*
X0177136Y0120797D01*
X0177136Y0121414D01*
X0177753Y0121414D01*
X0177753Y0120797D01*
X0175911Y0121414D02*
X0175294Y0120797D01*
X0174060Y0120797D01*
X0173443Y0121414D01*
X0173443Y0122031D01*
X0174060Y0122649D01*
X0174677Y0122649D01*
X0174060Y0122649D02*
X0173443Y0123266D01*
X0173443Y0123883D01*
X0174060Y0124500D01*
X0175294Y0124500D01*
X0175911Y0123883D01*
X0178967Y0123883D02*
X0179584Y0124500D01*
X0180819Y0124500D01*
X0181436Y0123883D01*
X0179584Y0122649D02*
X0178967Y0123266D01*
X0178967Y0123883D01*
X0179584Y0128671D02*
X0178967Y0129288D01*
X0178967Y0131757D01*
X0179584Y0132374D01*
X0181436Y0132374D01*
X0181436Y0128671D01*
X0179584Y0128671D01*
X0177753Y0128671D02*
X0176518Y0128671D01*
X0177136Y0128671D02*
X0177136Y0132374D01*
X0177753Y0132374D02*
X0176518Y0132374D01*
X0175297Y0131757D02*
X0175297Y0129288D01*
X0174680Y0128671D01*
X0173446Y0128671D01*
X0172829Y0129288D01*
X0172829Y0131757D01*
X0173446Y0132374D01*
X0174680Y0132374D01*
X0175297Y0131757D01*
X0171614Y0130523D02*
X0169146Y0130523D01*
X0169763Y0132374D02*
X0169763Y0128671D01*
X0171614Y0130523D02*
X0169763Y0132374D01*
X0169763Y0136545D02*
X0169146Y0137162D01*
X0169146Y0137779D01*
X0169763Y0138397D01*
X0170380Y0138397D01*
X0169763Y0138397D02*
X0169146Y0139014D01*
X0169146Y0139631D01*
X0169763Y0140248D01*
X0170997Y0140248D01*
X0171614Y0139631D01*
X0172829Y0139631D02*
X0173446Y0140248D01*
X0174680Y0140248D01*
X0175297Y0139631D01*
X0175297Y0137162D01*
X0174680Y0136545D01*
X0173446Y0136545D01*
X0172829Y0137162D01*
X0172829Y0139631D01*
X0171614Y0137162D02*
X0170997Y0136545D01*
X0169763Y0136545D01*
X0176518Y0136545D02*
X0177753Y0136545D01*
X0177136Y0136545D02*
X0177136Y0140248D01*
X0177753Y0140248D02*
X0176518Y0140248D01*
X0178967Y0139631D02*
X0179584Y0140248D01*
X0181436Y0140248D01*
X0181436Y0136545D01*
X0179584Y0136545D01*
X0178967Y0137162D01*
X0178967Y0139631D01*
X0179584Y0144419D02*
X0178967Y0145036D01*
X0178967Y0146271D01*
X0180202Y0146271D01*
X0181436Y0147505D02*
X0181436Y0145036D01*
X0180819Y0144419D01*
X0179584Y0144419D01*
X0177753Y0144419D02*
X0177753Y0148122D01*
X0175284Y0144419D01*
X0175284Y0148122D01*
X0174070Y0148122D02*
X0172218Y0148122D01*
X0171601Y0147505D01*
X0171601Y0145036D01*
X0172218Y0144419D01*
X0174070Y0144419D01*
X0174070Y0148122D01*
X0175284Y0152293D02*
X0175284Y0155996D01*
X0174070Y0155996D02*
X0171601Y0155996D01*
X0172835Y0155996D02*
X0172835Y0152293D01*
X0175284Y0152293D02*
X0177753Y0155996D01*
X0177753Y0152293D01*
X0178967Y0152293D02*
X0178967Y0154762D01*
X0180202Y0155996D01*
X0181436Y0154762D01*
X0181436Y0152293D01*
X0181436Y0154145D02*
X0178967Y0154145D01*
X0179584Y0148122D02*
X0180819Y0148122D01*
X0181436Y0147505D01*
X0179584Y0148122D02*
X0178967Y0147505D01*
X0172228Y0124500D02*
X0172228Y0122031D01*
X0170994Y0120797D01*
X0169759Y0122031D01*
X0169759Y0124500D01*
X0155571Y0144419D02*
X0153719Y0144419D01*
X0153102Y0145036D01*
X0153102Y0147505D01*
X0153719Y0148122D01*
X0155571Y0148122D01*
X0155571Y0144419D01*
X0151888Y0144419D02*
X0150653Y0144419D01*
X0151270Y0144419D02*
X0151270Y0148122D01*
X0150653Y0148122D02*
X0151888Y0148122D01*
X0149432Y0147505D02*
X0149432Y0145036D01*
X0148815Y0144419D01*
X0147581Y0144419D01*
X0146963Y0145036D01*
X0146963Y0147505D01*
X0147581Y0148122D01*
X0148815Y0148122D01*
X0149432Y0147505D01*
X0145749Y0148122D02*
X0145749Y0146271D01*
X0144515Y0146888D01*
X0143898Y0146888D01*
X0143280Y0146271D01*
X0143280Y0145036D01*
X0143898Y0144419D01*
X0145132Y0144419D01*
X0145749Y0145036D01*
X0145749Y0148122D02*
X0143280Y0148122D01*
X0143898Y0152293D02*
X0143280Y0152910D01*
X0143280Y0155379D01*
X0143898Y0155996D01*
X0145749Y0155996D01*
X0145749Y0152293D01*
X0143898Y0152293D01*
X0146963Y0152293D02*
X0146963Y0155996D01*
X0149432Y0155996D02*
X0146963Y0152293D01*
X0149432Y0152293D02*
X0149432Y0155996D01*
X0150647Y0155379D02*
X0151264Y0155996D01*
X0152498Y0155996D01*
X0153115Y0155379D01*
X0153115Y0152910D01*
X0152498Y0152293D01*
X0151264Y0152293D01*
X0150647Y0152910D01*
X0150647Y0154145D01*
X0151881Y0154145D01*
X0148815Y0132374D02*
X0147581Y0132374D01*
X0146963Y0131757D01*
X0145749Y0131757D02*
X0145749Y0131140D01*
X0145132Y0130523D01*
X0143898Y0130523D01*
X0143280Y0129905D01*
X0143280Y0129288D01*
X0143898Y0128671D01*
X0145132Y0128671D01*
X0145749Y0129288D01*
X0146963Y0129288D02*
X0147581Y0128671D01*
X0148815Y0128671D01*
X0149432Y0129288D01*
X0148815Y0130523D02*
X0147581Y0130523D01*
X0146963Y0129905D01*
X0146963Y0129288D01*
X0148815Y0130523D02*
X0149432Y0131140D01*
X0149432Y0131757D01*
X0148815Y0132374D01*
X0145749Y0131757D02*
X0145132Y0132374D01*
X0143898Y0132374D01*
X0143280Y0131757D01*
M02*
