%
M48
M72
T01C0.0197
T02C0.0236
T03C0.0320
T04C0.0394
T05C0.0400
T06C0.1102
%
T01
X2280Y3950
X3087Y4234
X3875Y4748
X2280Y5839
X3875Y7830
X2280Y9068
X3875Y10013
X2280Y10957
X3875Y12375
X4357Y14115
X5843Y12768
X6567Y10800
X9387Y9225
X11355Y8044
X12485Y7010
X13025Y8210
X13865Y7310
X15665Y7010
X15845Y6530
X16473Y6749
X17197Y8489
X16950Y10228
X17450Y10228
X17950Y10228
X16450Y10228
X15950Y10228
X15450Y10228
X14950Y10228
X14450Y10228
X12943Y9378
X11355Y6076
X11063Y4056
X9387Y6076
X7024Y4501
X5843Y3713
X13362Y3650
X14390Y3713
X14390Y4475
X14365Y4996
X13349Y4996
X14045Y2270
X16486Y3129
X16897Y3363
X16625Y3770
X16940Y2810
X19496Y3002
X19204Y6241
X14345Y13250
T02
X16142Y11430
X17896Y3332
T03
X14086Y18250
X14086Y19250
X11723Y19250
X11723Y18250
X9361Y18250
X9361Y19250
X5818Y19250
X5818Y18250
T04
X1217Y11420
X1217Y8605
X1217Y6302
X1217Y3487
T05
X11270Y1244
X12270Y1244
X13270Y1244
X14270Y1244
X15270Y1244
X16270Y1244
X11638Y14427
X11638Y15427
X10638Y15427
X9638Y15427
X9638Y14427
X10638Y14427
X2797Y14639
X2797Y15639
X2797Y16639
T06
X2300Y1745
X2300Y18280
X18835Y18280
X18835Y1745
M30
