G75*
%MOIN*%
%OFA0B0*%
%FSLAX25Y25*%
%IPPOS*%
%LPD*%
%AMOC8*
5,1,8,0,0,1.08239X$1,22.5*
%
%ADD10C,0.11624*%
%ADD11R,0.04537X0.04931*%
%ADD12C,0.08000*%
%ADD13C,0.06537*%
%ADD14C,0.04569*%
%ADD15OC8,0.07200*%
%ADD16R,0.04931X0.04537*%
%ADD17R,0.09261X0.19498*%
%ADD18R,0.08907X0.03789*%
%ADD19R,0.09261X0.03946*%
%ADD20R,0.14773X0.05324*%
%ADD21C,0.04600*%
%ADD22R,0.16600X0.16600*%
%ADD23R,0.20600X0.20600*%
%ADD24C,0.04362*%
%ADD25C,0.03969*%
D10*
X0023000Y0017448D03*
X0023000Y0182802D03*
X0188354Y0182802D03*
X0188354Y0017448D03*
D11*
X0182437Y0027104D03*
X0175745Y0027104D03*
X0170362Y0019268D03*
X0170362Y0012576D03*
X0040218Y0150455D03*
X0040218Y0157148D03*
X0040201Y0166486D03*
X0040201Y0173179D03*
X0102077Y0182414D03*
X0108770Y0182414D03*
X0126207Y0182421D03*
X0132900Y0182421D03*
D12*
X0116383Y0154267D03*
X0116383Y0144267D03*
X0106383Y0144267D03*
X0106383Y0154267D03*
X0096383Y0154267D03*
X0096383Y0144267D03*
X0027970Y0146389D03*
X0027970Y0156389D03*
X0027970Y0166389D03*
X0112698Y0012440D03*
X0122698Y0012440D03*
X0132698Y0012440D03*
X0142698Y0012440D03*
X0152698Y0012440D03*
X0162698Y0012440D03*
D13*
X0012173Y0034869D03*
X0012173Y0063019D03*
X0012173Y0086050D03*
X0012173Y0114200D03*
D14*
X0022803Y0109574D03*
X0022803Y0090676D03*
X0022803Y0058393D03*
X0022803Y0039495D03*
D15*
X0058179Y0182501D03*
X0058179Y0192501D03*
X0093612Y0192501D03*
X0093612Y0182501D03*
X0117234Y0182501D03*
X0117234Y0192501D03*
X0140856Y0192501D03*
X0140856Y0182501D03*
D16*
X0082258Y0178021D03*
X0082258Y0171328D03*
X0059325Y0137388D03*
X0052632Y0137388D03*
D17*
X0074156Y0157653D03*
D18*
X0050180Y0166314D03*
X0050180Y0148204D03*
D19*
X0050180Y0157259D03*
D20*
X0132373Y0154143D03*
X0132373Y0146269D03*
X0132373Y0138395D03*
X0132373Y0130521D03*
X0132373Y0122647D03*
X0132373Y0114773D03*
X0132373Y0106899D03*
X0132373Y0099025D03*
X0191429Y0099025D03*
X0191429Y0106899D03*
X0191429Y0114773D03*
X0191429Y0122647D03*
X0191429Y0130521D03*
X0191429Y0138395D03*
X0191429Y0146269D03*
X0191429Y0154143D03*
D21*
X0179501Y0102284D02*
X0179501Y0098284D01*
X0174501Y0098284D02*
X0174501Y0102284D01*
X0169501Y0102284D02*
X0169501Y0098284D01*
X0164501Y0098284D02*
X0164501Y0102284D01*
X0159501Y0102284D02*
X0159501Y0098284D01*
X0154501Y0098284D02*
X0154501Y0102284D01*
X0149501Y0102284D02*
X0149501Y0098284D01*
X0144501Y0098284D02*
X0144501Y0102284D01*
D22*
X0073143Y0073709D03*
D23*
X0073143Y0013209D03*
X0073143Y0134209D03*
D24*
X0161417Y0114305D03*
X0178956Y0033323D03*
D25*
X0169400Y0028100D03*
X0164859Y0031291D03*
X0168971Y0033634D03*
X0166252Y0037700D03*
X0143904Y0037133D03*
X0143904Y0044753D03*
X0143650Y0049960D03*
X0133490Y0049960D03*
X0133617Y0036498D03*
X0140452Y0022700D03*
X0110630Y0040562D03*
X0113551Y0060755D03*
X0124852Y0070100D03*
X0130252Y0082100D03*
X0138652Y0073100D03*
X0156652Y0070100D03*
X0158452Y0065300D03*
X0164732Y0067486D03*
X0171971Y0084885D03*
X0192037Y0062406D03*
X0194958Y0030021D03*
X0129426Y0093775D03*
X0113551Y0080440D03*
X0093866Y0092251D03*
X0065672Y0107999D03*
X0058433Y0127684D03*
X0043574Y0141146D03*
X0038748Y0123747D03*
X0038748Y0100125D03*
X0038748Y0078303D03*
X0038748Y0047481D03*
X0030874Y0042340D03*
X0058433Y0037133D03*
X0070244Y0045007D03*
X0093866Y0060755D03*
X0143452Y0132500D03*
M02*
