G75*
%MOIN*%
%OFA0B0*%
%FSLAX25Y25*%
%IPPOS*%
%LPD*%
%AMOC8*
5,1,8,0,0,1.08239X$1,22.5*
%
%ADD10R,0.03937X0.04331*%
%ADD11R,0.04331X0.03937*%
%ADD12R,0.04724X0.01575*%
%ADD13R,0.07087X0.04331*%
%ADD14R,0.08661X0.02362*%
%ADD15R,0.05000X0.02200*%
%ADD16R,0.02200X0.05000*%
%ADD17R,0.04000X0.04500*%
%ADD18R,0.04724X0.16929*%
D10*
X0050677Y0069010D03*
X0057370Y0069010D03*
X0057370Y0084504D03*
X0050677Y0084504D03*
X0077372Y0111208D03*
X0077372Y0117901D03*
X0084995Y0118579D03*
X0091688Y0118579D03*
X0152215Y0141640D03*
X0158907Y0141640D03*
X0165611Y0141782D03*
X0165611Y0148475D03*
X0174134Y0148489D03*
X0174134Y0141796D03*
X0179631Y0087123D03*
X0179631Y0080431D03*
X0179875Y0073326D03*
X0179875Y0066633D03*
D11*
X0177455Y0058178D03*
X0170762Y0058178D03*
X0123230Y0031345D03*
X0116538Y0031345D03*
X0118330Y0055040D03*
X0111637Y0055040D03*
X0057370Y0060882D03*
X0050677Y0060882D03*
X0074523Y0190811D03*
X0074523Y0197504D03*
D12*
X0025322Y0051700D03*
X0025322Y0054259D03*
X0025322Y0056818D03*
X0025322Y0059377D03*
X0025322Y0061936D03*
X0025322Y0102881D03*
X0025322Y0105440D03*
X0025322Y0107999D03*
X0025322Y0110558D03*
X0025322Y0113117D03*
D13*
X0080536Y0044934D03*
X0080536Y0030367D03*
X0104946Y0030367D03*
X0104946Y0044934D03*
D14*
X0153151Y0117308D03*
X0153151Y0122308D03*
X0153151Y0127308D03*
X0153151Y0132308D03*
X0173623Y0132308D03*
X0173623Y0127308D03*
X0173623Y0122308D03*
X0173623Y0117308D03*
D15*
X0161550Y0064480D03*
X0161550Y0061331D03*
X0161550Y0058181D03*
X0161550Y0055031D03*
X0161550Y0051882D03*
X0161550Y0048732D03*
X0161550Y0045583D03*
X0161550Y0042433D03*
X0127750Y0042433D03*
X0127750Y0045583D03*
X0127750Y0048732D03*
X0127750Y0051882D03*
X0127750Y0055031D03*
X0127750Y0058181D03*
X0127750Y0061331D03*
X0127750Y0064480D03*
D16*
X0133627Y0070357D03*
X0136776Y0070357D03*
X0139926Y0070357D03*
X0143076Y0070357D03*
X0146225Y0070357D03*
X0149375Y0070357D03*
X0152524Y0070357D03*
X0155674Y0070357D03*
X0155674Y0036557D03*
X0152524Y0036557D03*
X0149375Y0036557D03*
X0146225Y0036557D03*
X0143076Y0036557D03*
X0139926Y0036557D03*
X0136776Y0036557D03*
X0133627Y0036557D03*
D17*
X0088444Y0102791D03*
X0091944Y0110791D03*
X0084944Y0110791D03*
D18*
X0194523Y0090263D03*
X0194523Y0051680D03*
M02*
