G75*
%MOIN*%
%OFA0B0*%
%FSLAX25Y25*%
%IPPOS*%
%LPD*%
%AMOC8*
5,1,8,0,0,1.08239X$1,22.5*
%
%ADD10R,0.03937X0.04331*%
%ADD11C,0.07400*%
%ADD12C,0.05937*%
%ADD13C,0.03969*%
%ADD14OC8,0.06600*%
%ADD15R,0.04331X0.03937*%
%ADD16R,0.08661X0.18898*%
%ADD17R,0.08307X0.03189*%
%ADD18R,0.08661X0.03346*%
%ADD19R,0.14173X0.04724*%
%ADD20C,0.04000*%
%ADD21R,0.16000X0.16000*%
%ADD22R,0.20000X0.20000*%
%ADD23C,0.03762*%
%ADD24C,0.01400*%
%ADD25C,0.03369*%
%ADD26C,0.00800*%
D10*
X0040218Y0150455D03*
X0040218Y0157148D03*
X0040201Y0166486D03*
X0040201Y0173179D03*
X0102077Y0182414D03*
X0108770Y0182414D03*
X0126207Y0182421D03*
X0132900Y0182421D03*
X0175745Y0027104D03*
X0182437Y0027104D03*
X0170362Y0019268D03*
X0170362Y0012576D03*
D11*
X0162698Y0012440D03*
X0152698Y0012440D03*
X0142698Y0012440D03*
X0132698Y0012440D03*
X0122698Y0012440D03*
X0112698Y0012440D03*
X0116383Y0144267D03*
X0116383Y0154267D03*
X0106383Y0154267D03*
X0106383Y0144267D03*
X0096383Y0144267D03*
X0096383Y0154267D03*
X0027970Y0156389D03*
X0027970Y0146389D03*
X0027970Y0166389D03*
D12*
X0012173Y0114200D03*
X0012173Y0086050D03*
X0012173Y0063019D03*
X0012173Y0034869D03*
D13*
X0022803Y0039495D03*
X0022803Y0058393D03*
X0022803Y0090676D03*
X0022803Y0109574D03*
D14*
X0058179Y0182501D03*
X0058179Y0192501D03*
X0093612Y0192501D03*
X0093612Y0182501D03*
X0117234Y0182501D03*
X0117234Y0192501D03*
X0140856Y0192501D03*
X0140856Y0182501D03*
D15*
X0082258Y0178021D03*
X0082258Y0171328D03*
X0059325Y0137388D03*
X0052632Y0137388D03*
D16*
X0074156Y0157653D03*
D17*
X0050180Y0166314D03*
X0050180Y0148204D03*
D18*
X0050180Y0157259D03*
D19*
X0132373Y0154143D03*
X0132373Y0146269D03*
X0132373Y0138395D03*
X0132373Y0130521D03*
X0132373Y0122647D03*
X0132373Y0114773D03*
X0132373Y0106899D03*
X0132373Y0099025D03*
X0191429Y0099025D03*
X0191429Y0106899D03*
X0191429Y0114773D03*
X0191429Y0122647D03*
X0191429Y0130521D03*
X0191429Y0138395D03*
X0191429Y0146269D03*
X0191429Y0154143D03*
D20*
X0179501Y0102284D02*
X0179501Y0098284D01*
X0174501Y0098284D02*
X0174501Y0102284D01*
X0169501Y0102284D02*
X0169501Y0098284D01*
X0164501Y0098284D02*
X0164501Y0102284D01*
X0159501Y0102284D02*
X0159501Y0098284D01*
X0154501Y0098284D02*
X0154501Y0102284D01*
X0149501Y0102284D02*
X0149501Y0098284D01*
X0144501Y0098284D02*
X0144501Y0102284D01*
D21*
X0073143Y0073709D03*
D22*
X0073143Y0013209D03*
X0073143Y0134209D03*
D23*
X0161417Y0114305D03*
X0178956Y0033323D03*
D24*
X0011999Y0009006D02*
X0010189Y0012141D01*
X0009252Y0015638D01*
X0009133Y0017448D01*
X0009133Y0031731D01*
X0009699Y0031166D01*
X0011304Y0030501D01*
X0013042Y0030501D01*
X0014648Y0031166D01*
X0015877Y0032395D01*
X0016542Y0034000D01*
X0016542Y0035738D01*
X0015877Y0037344D01*
X0014648Y0038573D01*
X0013042Y0039238D01*
X0011304Y0039238D01*
X0009699Y0038573D01*
X0009133Y0038007D01*
X0009133Y0059881D01*
X0009699Y0059315D01*
X0011304Y0058650D01*
X0013042Y0058650D01*
X0014648Y0059315D01*
X0015877Y0060544D01*
X0016542Y0062150D01*
X0016542Y0063888D01*
X0015877Y0065493D01*
X0014648Y0066722D01*
X0013042Y0067387D01*
X0011304Y0067387D01*
X0009699Y0066722D01*
X0009133Y0066157D01*
X0009133Y0082913D01*
X0009699Y0082347D01*
X0011304Y0081682D01*
X0013042Y0081682D01*
X0014648Y0082347D01*
X0015877Y0083576D01*
X0016542Y0085181D01*
X0016542Y0086919D01*
X0015877Y0088525D01*
X0014648Y0089754D01*
X0013042Y0090419D01*
X0011304Y0090419D01*
X0009699Y0089754D01*
X0009133Y0089188D01*
X0009133Y0111062D01*
X0009699Y0110497D01*
X0011304Y0109831D01*
X0013042Y0109831D01*
X0014648Y0110497D01*
X0015877Y0111725D01*
X0016542Y0113331D01*
X0016542Y0115069D01*
X0015877Y0116675D01*
X0014648Y0117903D01*
X0013042Y0118568D01*
X0011304Y0118568D01*
X0009699Y0117903D01*
X0009133Y0117338D01*
X0009133Y0182802D01*
X0009252Y0184612D01*
X0010189Y0188109D01*
X0011999Y0191244D01*
X0014558Y0193804D01*
X0017693Y0195614D01*
X0021190Y0196551D01*
X0023000Y0196669D01*
X0055700Y0196669D01*
X0053479Y0194448D01*
X0053479Y0190555D01*
X0056232Y0187801D01*
X0060126Y0187801D01*
X0062879Y0190555D01*
X0062879Y0194448D01*
X0060658Y0196669D01*
X0091133Y0196669D01*
X0089018Y0194554D01*
X0081439Y0194554D01*
X0080209Y0193324D01*
X0057349Y0170464D01*
X0057349Y0156884D01*
X0055910Y0158323D01*
X0055910Y0159512D01*
X0055090Y0160332D01*
X0045269Y0160332D01*
X0044449Y0159512D01*
X0044449Y0159290D01*
X0043586Y0159282D01*
X0043586Y0159894D01*
X0042766Y0160714D01*
X0037669Y0160714D01*
X0036849Y0159894D01*
X0036849Y0158310D01*
X0036794Y0158263D01*
X0036788Y0158177D01*
X0032422Y0153811D01*
X0033070Y0155374D01*
X0033070Y0157403D01*
X0032294Y0159278D01*
X0030859Y0160713D01*
X0029226Y0161389D01*
X0030859Y0162065D01*
X0032294Y0163500D01*
X0032620Y0164289D01*
X0036832Y0164289D01*
X0036832Y0163741D01*
X0037653Y0162921D01*
X0042749Y0162921D01*
X0043569Y0163741D01*
X0043569Y0164353D01*
X0044626Y0164342D01*
X0044626Y0164140D01*
X0045446Y0163320D01*
X0054913Y0163320D01*
X0055733Y0164140D01*
X0055733Y0168489D01*
X0054913Y0169309D01*
X0052280Y0169309D01*
X0052280Y0173632D01*
X0056449Y0177801D01*
X0060126Y0177801D01*
X0062879Y0180555D01*
X0062879Y0184448D01*
X0060126Y0187201D01*
X0056232Y0187201D01*
X0053479Y0184448D01*
X0053479Y0180771D01*
X0048080Y0175372D01*
X0048080Y0169309D01*
X0045446Y0169309D01*
X0044679Y0168542D01*
X0043569Y0168553D01*
X0043569Y0169232D01*
X0043172Y0169630D01*
X0043213Y0169654D01*
X0043530Y0169970D01*
X0043754Y0170358D01*
X0043869Y0170790D01*
X0043869Y0172895D01*
X0040485Y0172895D01*
X0040485Y0173464D01*
X0039917Y0173464D01*
X0039917Y0177045D01*
X0038009Y0177045D01*
X0037576Y0176929D01*
X0037189Y0176705D01*
X0036872Y0176389D01*
X0036648Y0176001D01*
X0036532Y0175569D01*
X0036532Y0173464D01*
X0039917Y0173464D01*
X0039917Y0172895D01*
X0036532Y0172895D01*
X0036532Y0170790D01*
X0036648Y0170358D01*
X0036872Y0169970D01*
X0037189Y0169654D01*
X0037230Y0169630D01*
X0036832Y0169232D01*
X0036832Y0168489D01*
X0032620Y0168489D01*
X0032294Y0169278D01*
X0030859Y0170713D01*
X0028984Y0171489D01*
X0026956Y0171489D01*
X0025081Y0170713D01*
X0023646Y0169278D01*
X0022870Y0167403D01*
X0022870Y0165374D01*
X0023646Y0163500D01*
X0025081Y0162065D01*
X0026714Y0161389D01*
X0025081Y0160713D01*
X0023646Y0159278D01*
X0022870Y0157403D01*
X0022870Y0155374D01*
X0023646Y0153500D01*
X0025081Y0152065D01*
X0026714Y0151389D01*
X0025081Y0150713D01*
X0023646Y0149278D01*
X0022870Y0147403D01*
X0022870Y0145374D01*
X0023646Y0143500D01*
X0025081Y0142065D01*
X0026956Y0141289D01*
X0028984Y0141289D01*
X0030859Y0142065D01*
X0032294Y0143500D01*
X0033070Y0145374D01*
X0033070Y0147403D01*
X0032743Y0148192D01*
X0036549Y0151998D01*
X0036549Y0150740D01*
X0039933Y0150740D01*
X0039933Y0150171D01*
X0036549Y0150171D01*
X0036549Y0148066D01*
X0036665Y0147634D01*
X0036889Y0147246D01*
X0037205Y0146930D01*
X0037593Y0146706D01*
X0038025Y0146590D01*
X0039933Y0146590D01*
X0039933Y0150171D01*
X0040502Y0150171D01*
X0040502Y0150740D01*
X0043886Y0150740D01*
X0043886Y0152845D01*
X0043770Y0153277D01*
X0043546Y0153665D01*
X0043230Y0153981D01*
X0043188Y0154005D01*
X0043586Y0154403D01*
X0043586Y0155082D01*
X0044449Y0155090D01*
X0044449Y0155006D01*
X0045269Y0154186D01*
X0054107Y0154186D01*
X0057349Y0150944D01*
X0057349Y0140757D01*
X0056580Y0140757D01*
X0056182Y0140359D01*
X0056158Y0140400D01*
X0055841Y0140717D01*
X0055454Y0140941D01*
X0055021Y0141057D01*
X0052916Y0141057D01*
X0052916Y0137672D01*
X0052348Y0137672D01*
X0052348Y0137104D01*
X0052916Y0137104D01*
X0052916Y0133720D01*
X0055021Y0133720D01*
X0055454Y0133835D01*
X0055841Y0134059D01*
X0056158Y0134376D01*
X0056182Y0134417D01*
X0056580Y0134020D01*
X0061743Y0134020D01*
X0061743Y0133964D01*
X0058547Y0130768D01*
X0057820Y0130768D01*
X0056686Y0130299D01*
X0055818Y0129431D01*
X0055349Y0128298D01*
X0055349Y0127071D01*
X0055818Y0125937D01*
X0056686Y0125070D01*
X0057820Y0124600D01*
X0059047Y0124600D01*
X0060180Y0125070D01*
X0061048Y0125937D01*
X0061517Y0127071D01*
X0061517Y0127799D01*
X0061743Y0128024D01*
X0061743Y0123629D01*
X0062563Y0122809D01*
X0083723Y0122809D01*
X0084046Y0123132D01*
X0084040Y0122784D01*
X0084052Y0122771D01*
X0084052Y0122754D01*
X0084569Y0122237D01*
X0120652Y0084971D01*
X0120652Y0084954D01*
X0121169Y0084437D01*
X0121677Y0083912D01*
X0121694Y0083912D01*
X0121706Y0083900D01*
X0122437Y0083900D01*
X0123168Y0083888D01*
X0123181Y0083900D01*
X0142106Y0083900D01*
X0154098Y0071908D01*
X0154037Y0071847D01*
X0153568Y0070713D01*
X0153568Y0069486D01*
X0154037Y0068353D01*
X0154905Y0067485D01*
X0155874Y0067084D01*
X0155837Y0067047D01*
X0155368Y0065913D01*
X0155368Y0064686D01*
X0155837Y0063553D01*
X0156705Y0062685D01*
X0157838Y0062216D01*
X0159065Y0062216D01*
X0160199Y0062685D01*
X0161067Y0063553D01*
X0161536Y0064686D01*
X0161536Y0065913D01*
X0161209Y0066704D01*
X0161648Y0067550D01*
X0161648Y0066872D01*
X0162117Y0065739D01*
X0162985Y0064871D01*
X0163394Y0064702D01*
X0163394Y0062768D01*
X0152686Y0052060D01*
X0145912Y0052060D01*
X0145397Y0052575D01*
X0144263Y0053044D01*
X0143036Y0053044D01*
X0141903Y0052575D01*
X0141388Y0052060D01*
X0135752Y0052060D01*
X0135237Y0052575D01*
X0134103Y0053044D01*
X0132876Y0053044D01*
X0131743Y0052575D01*
X0130875Y0051707D01*
X0130406Y0050573D01*
X0130406Y0049346D01*
X0130875Y0048213D01*
X0131743Y0047345D01*
X0132876Y0046876D01*
X0134103Y0046876D01*
X0135237Y0047345D01*
X0135752Y0047860D01*
X0141388Y0047860D01*
X0141903Y0047345D01*
X0142067Y0047277D01*
X0141289Y0046500D01*
X0140820Y0045366D01*
X0140820Y0044139D01*
X0141289Y0043006D01*
X0142104Y0042191D01*
X0142104Y0039695D01*
X0141289Y0038880D01*
X0140820Y0037746D01*
X0140820Y0036519D01*
X0141289Y0035386D01*
X0142157Y0034518D01*
X0143290Y0034049D01*
X0144517Y0034049D01*
X0145651Y0034518D01*
X0146519Y0035386D01*
X0146988Y0036519D01*
X0146988Y0037746D01*
X0146519Y0038880D01*
X0145704Y0039695D01*
X0145704Y0042191D01*
X0146519Y0043006D01*
X0146988Y0044139D01*
X0146988Y0045366D01*
X0146519Y0046500D01*
X0145651Y0047368D01*
X0145487Y0047436D01*
X0145912Y0047860D01*
X0154426Y0047860D01*
X0166364Y0059798D01*
X0167594Y0061028D01*
X0167594Y0066336D01*
X0167816Y0066872D01*
X0167816Y0067190D01*
X0168652Y0066354D01*
X0168652Y0042646D01*
X0166791Y0040784D01*
X0165638Y0040784D01*
X0164505Y0040315D01*
X0163637Y0039447D01*
X0163168Y0038313D01*
X0163168Y0037086D01*
X0163637Y0035953D01*
X0164505Y0035085D01*
X0165638Y0034616D01*
X0166865Y0034616D01*
X0167999Y0035085D01*
X0168867Y0035953D01*
X0169336Y0037086D01*
X0169336Y0038239D01*
X0171652Y0040554D01*
X0171652Y0033027D01*
X0169874Y0031184D01*
X0168786Y0031184D01*
X0167943Y0030835D01*
X0167943Y0031904D01*
X0167474Y0033038D01*
X0166606Y0033906D01*
X0165472Y0034375D01*
X0164245Y0034375D01*
X0163112Y0033906D01*
X0162244Y0033038D01*
X0161775Y0031904D01*
X0161775Y0030752D01*
X0161700Y0030678D01*
X0125251Y0030678D01*
X0124197Y0029624D01*
X0118609Y0024036D01*
X0118609Y0020645D01*
X0093088Y0020645D01*
X0086611Y0027122D01*
X0058544Y0027122D01*
X0041526Y0044140D01*
X0033436Y0044140D01*
X0032621Y0044955D01*
X0031487Y0045424D01*
X0030260Y0045424D01*
X0029127Y0044955D01*
X0028259Y0044087D01*
X0027790Y0042953D01*
X0027790Y0041726D01*
X0028259Y0040593D01*
X0029127Y0039725D01*
X0030260Y0039256D01*
X0031487Y0039256D01*
X0032621Y0039725D01*
X0033436Y0040540D01*
X0040034Y0040540D01*
X0055998Y0024576D01*
X0057052Y0023522D01*
X0061743Y0023522D01*
X0061743Y0003581D01*
X0023000Y0003581D01*
X0021190Y0003700D01*
X0017693Y0004637D01*
X0014558Y0006447D01*
X0011999Y0009006D01*
X0011999Y0009006D01*
X0012312Y0008693D02*
X0061743Y0008693D01*
X0061743Y0010091D02*
X0024557Y0010091D01*
X0024471Y0010055D02*
X0027188Y0011181D01*
X0029267Y0013260D01*
X0030393Y0015977D01*
X0030393Y0018919D01*
X0029267Y0021636D01*
X0027188Y0023715D01*
X0024471Y0024841D01*
X0021529Y0024841D01*
X0018812Y0023715D01*
X0016733Y0021636D01*
X0015607Y0018919D01*
X0015607Y0015977D01*
X0016733Y0013260D01*
X0018812Y0011181D01*
X0021529Y0010055D01*
X0024471Y0010055D01*
X0021443Y0010091D02*
X0011372Y0010091D01*
X0010565Y0011490D02*
X0018503Y0011490D01*
X0017105Y0012888D02*
X0009989Y0012888D01*
X0009614Y0014287D02*
X0016307Y0014287D01*
X0015728Y0015685D02*
X0009249Y0015685D01*
X0009157Y0017084D02*
X0015607Y0017084D01*
X0015607Y0018482D02*
X0009133Y0018482D01*
X0009133Y0019881D02*
X0016006Y0019881D01*
X0016585Y0021279D02*
X0009133Y0021279D01*
X0009133Y0022678D02*
X0017774Y0022678D01*
X0019683Y0024076D02*
X0009133Y0024076D01*
X0009133Y0025475D02*
X0055100Y0025475D01*
X0056498Y0024076D02*
X0026317Y0024076D01*
X0028226Y0022678D02*
X0061743Y0022678D01*
X0061743Y0021279D02*
X0029415Y0021279D01*
X0029994Y0019881D02*
X0061743Y0019881D01*
X0061743Y0018482D02*
X0030393Y0018482D01*
X0030393Y0017084D02*
X0061743Y0017084D01*
X0061743Y0015685D02*
X0030272Y0015685D01*
X0029693Y0014287D02*
X0061743Y0014287D01*
X0061743Y0012888D02*
X0028895Y0012888D01*
X0027497Y0011490D02*
X0061743Y0011490D01*
X0061743Y0007294D02*
X0013711Y0007294D01*
X0015513Y0005896D02*
X0061743Y0005896D01*
X0061743Y0004497D02*
X0018214Y0004497D01*
X0009133Y0026873D02*
X0053701Y0026873D01*
X0052303Y0028272D02*
X0009133Y0028272D01*
X0009133Y0029670D02*
X0050904Y0029670D01*
X0049506Y0031069D02*
X0014413Y0031069D01*
X0015907Y0032467D02*
X0048107Y0032467D01*
X0046709Y0033866D02*
X0016486Y0033866D01*
X0016542Y0035264D02*
X0045310Y0035264D01*
X0043912Y0036663D02*
X0024757Y0036663D01*
X0024720Y0036626D02*
X0025672Y0037578D01*
X0026187Y0038822D01*
X0026187Y0040168D01*
X0025672Y0041412D01*
X0024720Y0042364D01*
X0023476Y0042880D01*
X0022130Y0042880D01*
X0020886Y0042364D01*
X0019934Y0041412D01*
X0019419Y0040168D01*
X0019419Y0038822D01*
X0019934Y0037578D01*
X0020886Y0036626D01*
X0022130Y0036111D01*
X0023476Y0036111D01*
X0024720Y0036626D01*
X0025872Y0038061D02*
X0042513Y0038061D01*
X0041115Y0039460D02*
X0031980Y0039460D01*
X0029768Y0039460D02*
X0026187Y0039460D01*
X0025902Y0040858D02*
X0028149Y0040858D01*
X0027790Y0042257D02*
X0024828Y0042257D01*
X0028080Y0043655D02*
X0009133Y0043655D01*
X0009133Y0042257D02*
X0020779Y0042257D01*
X0019705Y0040858D02*
X0009133Y0040858D01*
X0009133Y0039460D02*
X0019419Y0039460D01*
X0019734Y0038061D02*
X0015159Y0038061D01*
X0016159Y0036663D02*
X0020850Y0036663D01*
X0009187Y0038061D02*
X0009133Y0038061D01*
X0009133Y0031069D02*
X0009933Y0031069D01*
X0009133Y0045054D02*
X0029366Y0045054D01*
X0032382Y0045054D02*
X0140820Y0045054D01*
X0141020Y0043655D02*
X0042010Y0043655D01*
X0043409Y0042257D02*
X0107994Y0042257D01*
X0108015Y0042309D02*
X0107546Y0041175D01*
X0107546Y0039948D01*
X0108015Y0038815D01*
X0108883Y0037947D01*
X0110016Y0037478D01*
X0111169Y0037478D01*
X0113948Y0034698D01*
X0131055Y0034698D01*
X0131870Y0033883D01*
X0133003Y0033414D01*
X0134230Y0033414D01*
X0135364Y0033883D01*
X0136232Y0034751D01*
X0136701Y0035884D01*
X0136701Y0037111D01*
X0136232Y0038245D01*
X0135364Y0039113D01*
X0134230Y0039582D01*
X0133003Y0039582D01*
X0131870Y0039113D01*
X0131055Y0038298D01*
X0115440Y0038298D01*
X0113714Y0040023D01*
X0113714Y0041175D01*
X0113245Y0042309D01*
X0112377Y0043177D01*
X0111243Y0043646D01*
X0110016Y0043646D01*
X0108883Y0043177D01*
X0108015Y0042309D01*
X0107546Y0040858D02*
X0044807Y0040858D01*
X0046206Y0039460D02*
X0107748Y0039460D01*
X0108769Y0038061D02*
X0047604Y0038061D01*
X0049003Y0036663D02*
X0111984Y0036663D01*
X0113382Y0035264D02*
X0050401Y0035264D01*
X0051800Y0033866D02*
X0131912Y0033866D01*
X0135322Y0033866D02*
X0163072Y0033866D01*
X0162008Y0032467D02*
X0053198Y0032467D01*
X0054597Y0031069D02*
X0161775Y0031069D01*
X0164320Y0028207D02*
X0164246Y0028132D01*
X0164246Y0028132D01*
X0163192Y0027078D01*
X0126743Y0027078D01*
X0122209Y0022544D01*
X0122209Y0018099D01*
X0121889Y0017779D01*
X0122273Y0017840D01*
X0122398Y0017840D01*
X0122398Y0012740D01*
X0122998Y0012740D01*
X0122998Y0017840D01*
X0123123Y0017840D01*
X0123962Y0017707D01*
X0124771Y0017444D01*
X0125528Y0017058D01*
X0126216Y0016559D01*
X0126817Y0015958D01*
X0127316Y0015270D01*
X0127702Y0014513D01*
X0127849Y0014061D01*
X0128374Y0015329D01*
X0129809Y0016764D01*
X0131683Y0017540D01*
X0133712Y0017540D01*
X0135587Y0016764D01*
X0137022Y0015329D01*
X0137698Y0013696D01*
X0138374Y0015329D01*
X0139809Y0016764D01*
X0141683Y0017540D01*
X0143066Y0017540D01*
X0140991Y0019616D01*
X0139838Y0019616D01*
X0138705Y0020085D01*
X0137837Y0020953D01*
X0137368Y0022086D01*
X0137368Y0023313D01*
X0137837Y0024447D01*
X0138705Y0025315D01*
X0139838Y0025784D01*
X0141065Y0025784D01*
X0142199Y0025315D01*
X0143067Y0024447D01*
X0143536Y0023313D01*
X0143536Y0022161D01*
X0144798Y0020900D01*
X0161306Y0020900D01*
X0161573Y0021167D01*
X0161586Y0021167D01*
X0161595Y0021176D01*
X0162330Y0021167D01*
X0163064Y0021167D01*
X0163074Y0021158D01*
X0166993Y0021110D01*
X0166993Y0022014D01*
X0167814Y0022834D01*
X0171338Y0022834D01*
X0172608Y0024127D01*
X0172376Y0024359D01*
X0172376Y0027225D01*
X0172015Y0026353D01*
X0171147Y0025485D01*
X0170013Y0025016D01*
X0168786Y0025016D01*
X0167653Y0025485D01*
X0166785Y0026353D01*
X0166316Y0027486D01*
X0166316Y0028556D01*
X0165472Y0028207D01*
X0164320Y0028207D01*
X0165629Y0028272D02*
X0166316Y0028272D01*
X0166570Y0026873D02*
X0126538Y0026873D01*
X0125139Y0025475D02*
X0139091Y0025475D01*
X0137684Y0024076D02*
X0123741Y0024076D01*
X0122342Y0022678D02*
X0137368Y0022678D01*
X0137702Y0021279D02*
X0122209Y0021279D01*
X0122209Y0019881D02*
X0139199Y0019881D01*
X0142124Y0018482D02*
X0122209Y0018482D01*
X0122398Y0017084D02*
X0122998Y0017084D01*
X0122998Y0015685D02*
X0122398Y0015685D01*
X0122398Y0014287D02*
X0122998Y0014287D01*
X0122998Y0012888D02*
X0122398Y0012888D01*
X0122398Y0012740D02*
X0122398Y0012140D01*
X0122998Y0012140D01*
X0122998Y0007040D01*
X0123123Y0007040D01*
X0123962Y0007173D01*
X0124771Y0007436D01*
X0125528Y0007822D01*
X0126216Y0008321D01*
X0126817Y0008922D01*
X0127316Y0009610D01*
X0127702Y0010367D01*
X0127849Y0010819D01*
X0128374Y0009551D01*
X0129809Y0008116D01*
X0131683Y0007340D01*
X0133712Y0007340D01*
X0135587Y0008116D01*
X0137022Y0009551D01*
X0137698Y0011184D01*
X0138374Y0009551D01*
X0139809Y0008116D01*
X0141683Y0007340D01*
X0143712Y0007340D01*
X0145587Y0008116D01*
X0147022Y0009551D01*
X0147698Y0011184D01*
X0148374Y0009551D01*
X0149809Y0008116D01*
X0151683Y0007340D01*
X0153712Y0007340D01*
X0155587Y0008116D01*
X0157022Y0009551D01*
X0157698Y0011184D01*
X0158374Y0009551D01*
X0159809Y0008116D01*
X0161683Y0007340D01*
X0163712Y0007340D01*
X0165587Y0008116D01*
X0167022Y0009551D01*
X0167095Y0009729D01*
X0167814Y0009010D01*
X0172910Y0009010D01*
X0173730Y0009830D01*
X0173730Y0015321D01*
X0173129Y0015922D01*
X0173730Y0016523D01*
X0173730Y0020131D01*
X0176708Y0023166D01*
X0177161Y0023539D01*
X0178293Y0023539D01*
X0179091Y0024337D01*
X0179889Y0023539D01*
X0183990Y0023539D01*
X0182087Y0021636D01*
X0180961Y0018919D01*
X0180961Y0015977D01*
X0182087Y0013260D01*
X0184167Y0011181D01*
X0186884Y0010055D01*
X0189825Y0010055D01*
X0192542Y0011181D01*
X0194622Y0013260D01*
X0195747Y0015977D01*
X0195747Y0018919D01*
X0194622Y0021636D01*
X0192542Y0023715D01*
X0189825Y0024841D01*
X0186884Y0024841D01*
X0185806Y0024394D01*
X0185806Y0029849D01*
X0184986Y0030669D01*
X0184283Y0030669D01*
X0184283Y0030965D01*
X0184211Y0031038D01*
X0184202Y0031140D01*
X0183605Y0031643D01*
X0182237Y0033012D01*
X0182237Y0033976D01*
X0181738Y0035182D01*
X0180815Y0036105D01*
X0179609Y0036604D01*
X0178303Y0036604D01*
X0177097Y0036105D01*
X0176174Y0035182D01*
X0175675Y0033976D01*
X0175675Y0032670D01*
X0176174Y0031464D01*
X0176969Y0030669D01*
X0174380Y0030669D01*
X0174736Y0031039D01*
X0175252Y0031554D01*
X0175252Y0031573D01*
X0175265Y0031587D01*
X0175252Y0032316D01*
X0175252Y0068446D01*
X0174198Y0069500D01*
X0148806Y0094892D01*
X0148825Y0094884D01*
X0150177Y0094884D01*
X0151427Y0095402D01*
X0152001Y0095976D01*
X0152575Y0095402D01*
X0153825Y0094884D01*
X0155177Y0094884D01*
X0156427Y0095402D01*
X0157001Y0095976D01*
X0157575Y0095402D01*
X0158825Y0094884D01*
X0160177Y0094884D01*
X0161427Y0095402D01*
X0162001Y0095976D01*
X0162575Y0095402D01*
X0163825Y0094884D01*
X0165177Y0094884D01*
X0166427Y0095402D01*
X0167001Y0095976D01*
X0167575Y0095402D01*
X0168825Y0094884D01*
X0170177Y0094884D01*
X0171427Y0095402D01*
X0171789Y0095764D01*
X0172142Y0095410D01*
X0172748Y0095005D01*
X0173422Y0094726D01*
X0174137Y0094584D01*
X0174501Y0094584D01*
X0174865Y0094584D01*
X0175580Y0094726D01*
X0176254Y0095005D01*
X0176860Y0095410D01*
X0177213Y0095764D01*
X0177446Y0095531D01*
X0177446Y0093441D01*
X0177776Y0093111D01*
X0172620Y0087955D01*
X0172584Y0087969D01*
X0171357Y0087969D01*
X0170224Y0087500D01*
X0169356Y0086632D01*
X0168887Y0085498D01*
X0168887Y0084271D01*
X0169356Y0083138D01*
X0170224Y0082270D01*
X0171357Y0081801D01*
X0172584Y0081801D01*
X0173718Y0082270D01*
X0174586Y0083138D01*
X0175055Y0084271D01*
X0175055Y0084450D01*
X0181616Y0091011D01*
X0200216Y0091011D01*
X0201446Y0092241D01*
X0202221Y0093016D01*
X0202221Y0017448D01*
X0202103Y0015638D01*
X0201166Y0012141D01*
X0199356Y0009006D01*
X0196796Y0006447D01*
X0193661Y0004637D01*
X0190164Y0003700D01*
X0188354Y0003581D01*
X0084543Y0003581D01*
X0084543Y0023522D01*
X0085119Y0023522D01*
X0091596Y0017045D01*
X0109849Y0017045D01*
X0109180Y0016559D01*
X0108579Y0015958D01*
X0108079Y0015270D01*
X0107694Y0014513D01*
X0107431Y0013705D01*
X0107298Y0012865D01*
X0107298Y0012740D01*
X0112398Y0012740D01*
X0112398Y0012140D01*
X0112998Y0012140D01*
X0112998Y0012740D01*
X0118098Y0012740D01*
X0122398Y0012740D01*
X0122398Y0012140D02*
X0112998Y0012140D01*
X0112998Y0007040D01*
X0113123Y0007040D01*
X0113962Y0007173D01*
X0114771Y0007436D01*
X0115528Y0007822D01*
X0116216Y0008321D01*
X0116817Y0008922D01*
X0117316Y0009610D01*
X0117698Y0010359D01*
X0118079Y0009610D01*
X0118579Y0008922D01*
X0119180Y0008321D01*
X0119868Y0007822D01*
X0120625Y0007436D01*
X0121433Y0007173D01*
X0122273Y0007040D01*
X0122398Y0007040D01*
X0122398Y0012140D01*
X0122398Y0011490D02*
X0122998Y0011490D01*
X0122998Y0010091D02*
X0122398Y0010091D01*
X0122398Y0008693D02*
X0122998Y0008693D01*
X0122998Y0007294D02*
X0122398Y0007294D01*
X0121061Y0007294D02*
X0114335Y0007294D01*
X0112998Y0007294D02*
X0112398Y0007294D01*
X0112398Y0007040D02*
X0112398Y0012140D01*
X0107298Y0012140D01*
X0107298Y0012015D01*
X0107431Y0011175D01*
X0107694Y0010367D01*
X0108079Y0009610D01*
X0108579Y0008922D01*
X0109180Y0008321D01*
X0109868Y0007822D01*
X0110625Y0007436D01*
X0111433Y0007173D01*
X0112273Y0007040D01*
X0112398Y0007040D01*
X0111061Y0007294D02*
X0084543Y0007294D01*
X0084543Y0005896D02*
X0195841Y0005896D01*
X0197643Y0007294D02*
X0124335Y0007294D01*
X0126587Y0008693D02*
X0129233Y0008693D01*
X0128151Y0010091D02*
X0127562Y0010091D01*
X0127776Y0014287D02*
X0127943Y0014287D01*
X0128731Y0015685D02*
X0127015Y0015685D01*
X0125479Y0017084D02*
X0130582Y0017084D01*
X0134814Y0017084D02*
X0140582Y0017084D01*
X0138731Y0015685D02*
X0136665Y0015685D01*
X0137453Y0014287D02*
X0137943Y0014287D01*
X0138151Y0010091D02*
X0137245Y0010091D01*
X0136163Y0008693D02*
X0139233Y0008693D01*
X0146163Y0008693D02*
X0149233Y0008693D01*
X0148151Y0010091D02*
X0147245Y0010091D01*
X0156163Y0008693D02*
X0159233Y0008693D01*
X0158151Y0010091D02*
X0157245Y0010091D01*
X0166163Y0008693D02*
X0199042Y0008693D01*
X0199982Y0010091D02*
X0189912Y0010091D01*
X0186797Y0010091D02*
X0173730Y0010091D01*
X0173730Y0011490D02*
X0183858Y0011490D01*
X0182459Y0012888D02*
X0173730Y0012888D01*
X0173730Y0014287D02*
X0181662Y0014287D01*
X0181083Y0015685D02*
X0173366Y0015685D01*
X0173730Y0017084D02*
X0180961Y0017084D01*
X0180961Y0018482D02*
X0173730Y0018482D01*
X0173730Y0019881D02*
X0181360Y0019881D01*
X0181939Y0021279D02*
X0174857Y0021279D01*
X0176229Y0022678D02*
X0183129Y0022678D01*
X0185806Y0025475D02*
X0202221Y0025475D01*
X0202221Y0026873D02*
X0185806Y0026873D01*
X0185806Y0028272D02*
X0202221Y0028272D01*
X0202221Y0029670D02*
X0185806Y0029670D01*
X0184208Y0031069D02*
X0202221Y0031069D01*
X0202221Y0032467D02*
X0182782Y0032467D01*
X0182237Y0033866D02*
X0202221Y0033866D01*
X0202221Y0035264D02*
X0181655Y0035264D01*
X0178956Y0033323D02*
X0182183Y0030096D01*
X0182437Y0027104D01*
X0179352Y0024076D02*
X0178830Y0024076D01*
X0172557Y0024076D02*
X0143220Y0024076D01*
X0143536Y0022678D02*
X0167657Y0022678D01*
X0166993Y0021279D02*
X0144418Y0021279D01*
X0141813Y0025475D02*
X0167678Y0025475D01*
X0171121Y0025475D02*
X0172376Y0025475D01*
X0172376Y0026873D02*
X0172230Y0026873D01*
X0174766Y0031069D02*
X0176570Y0031069D01*
X0175759Y0032467D02*
X0175252Y0032467D01*
X0175252Y0033866D02*
X0175675Y0033866D01*
X0175252Y0035264D02*
X0176257Y0035264D01*
X0175252Y0036663D02*
X0202221Y0036663D01*
X0202221Y0038061D02*
X0175252Y0038061D01*
X0175252Y0039460D02*
X0202221Y0039460D01*
X0202221Y0040858D02*
X0175252Y0040858D01*
X0175252Y0042257D02*
X0202221Y0042257D01*
X0202221Y0043655D02*
X0175252Y0043655D01*
X0175252Y0045054D02*
X0202221Y0045054D01*
X0202221Y0046452D02*
X0175252Y0046452D01*
X0175252Y0047851D02*
X0202221Y0047851D01*
X0202221Y0049249D02*
X0175252Y0049249D01*
X0175252Y0050648D02*
X0202221Y0050648D01*
X0202221Y0052046D02*
X0175252Y0052046D01*
X0175252Y0053445D02*
X0202221Y0053445D01*
X0202221Y0054843D02*
X0175252Y0054843D01*
X0175252Y0056242D02*
X0202221Y0056242D01*
X0202221Y0057640D02*
X0175252Y0057640D01*
X0175252Y0059039D02*
X0202221Y0059039D01*
X0202221Y0060437D02*
X0175252Y0060437D01*
X0175252Y0061836D02*
X0202221Y0061836D01*
X0202221Y0063234D02*
X0175252Y0063234D01*
X0175252Y0064633D02*
X0202221Y0064633D01*
X0202221Y0066032D02*
X0175252Y0066032D01*
X0175252Y0067430D02*
X0202221Y0067430D01*
X0202221Y0068829D02*
X0174869Y0068829D01*
X0173470Y0070227D02*
X0202221Y0070227D01*
X0202221Y0071626D02*
X0172072Y0071626D01*
X0170673Y0073024D02*
X0202221Y0073024D01*
X0202221Y0074423D02*
X0169275Y0074423D01*
X0167876Y0075821D02*
X0202221Y0075821D01*
X0202221Y0077220D02*
X0166478Y0077220D01*
X0165079Y0078618D02*
X0202221Y0078618D01*
X0202221Y0080017D02*
X0163681Y0080017D01*
X0162282Y0081415D02*
X0202221Y0081415D01*
X0202221Y0082814D02*
X0174261Y0082814D01*
X0175031Y0084212D02*
X0202221Y0084212D01*
X0202221Y0085611D02*
X0176216Y0085611D01*
X0177614Y0087009D02*
X0202221Y0087009D01*
X0202221Y0088408D02*
X0179013Y0088408D01*
X0180411Y0089806D02*
X0202221Y0089806D01*
X0202221Y0091205D02*
X0200410Y0091205D01*
X0201808Y0092603D02*
X0202221Y0092603D01*
X0201676Y0095441D02*
X0199346Y0093111D01*
X0180746Y0093111D01*
X0172520Y0084885D01*
X0171971Y0084885D01*
X0169733Y0087009D02*
X0156688Y0087009D01*
X0155290Y0088408D02*
X0173073Y0088408D01*
X0174471Y0089806D02*
X0153891Y0089806D01*
X0152493Y0091205D02*
X0175870Y0091205D01*
X0177268Y0092603D02*
X0151094Y0092603D01*
X0149696Y0094002D02*
X0177446Y0094002D01*
X0177446Y0095400D02*
X0176845Y0095400D01*
X0174501Y0095400D02*
X0174501Y0095400D01*
X0174501Y0094584D02*
X0174501Y0102284D01*
X0174498Y0102287D01*
X0174498Y0105796D01*
X0165989Y0114305D01*
X0161417Y0114305D01*
X0158547Y0110784D02*
X0199576Y0110784D01*
X0199095Y0110661D02*
X0199576Y0110180D01*
X0199576Y0111492D01*
X0199095Y0111011D01*
X0183762Y0111011D01*
X0182942Y0111831D01*
X0182942Y0116015D01*
X0180864Y0118093D01*
X0179810Y0119147D01*
X0179810Y0125878D01*
X0172990Y0132698D01*
X0146536Y0132698D01*
X0146536Y0131886D01*
X0146067Y0130753D01*
X0145199Y0129885D01*
X0144065Y0129416D01*
X0142838Y0129416D01*
X0141705Y0129885D01*
X0140860Y0130730D01*
X0140860Y0128471D01*
X0163699Y0105632D01*
X0163825Y0105684D01*
X0165177Y0105684D01*
X0166427Y0105166D01*
X0167001Y0104592D01*
X0167575Y0105166D01*
X0168825Y0105684D01*
X0170177Y0105684D01*
X0171427Y0105166D01*
X0171789Y0104804D01*
X0172142Y0105158D01*
X0172748Y0105563D01*
X0173422Y0105842D01*
X0174137Y0105984D01*
X0174501Y0105984D01*
X0174501Y0102284D01*
X0174501Y0102284D01*
X0174501Y0102284D01*
X0174501Y0105984D01*
X0174865Y0105984D01*
X0175580Y0105842D01*
X0176254Y0105563D01*
X0176860Y0105158D01*
X0177213Y0104804D01*
X0177575Y0105166D01*
X0178825Y0105684D01*
X0180177Y0105684D01*
X0181427Y0105166D01*
X0182383Y0104210D01*
X0182901Y0102960D01*
X0182901Y0097608D01*
X0182383Y0096358D01*
X0181646Y0095621D01*
X0181646Y0095211D01*
X0198476Y0095211D01*
X0198528Y0095263D01*
X0183762Y0095263D01*
X0182942Y0096083D01*
X0182942Y0101967D01*
X0183762Y0102787D01*
X0199095Y0102787D01*
X0199576Y0102306D01*
X0199576Y0103618D01*
X0199095Y0103137D01*
X0183762Y0103137D01*
X0182942Y0103957D01*
X0182942Y0109841D01*
X0183762Y0110661D01*
X0199095Y0110661D01*
X0199489Y0102393D02*
X0199576Y0102393D01*
X0201676Y0095441D02*
X0201676Y0118877D01*
X0197906Y0122647D01*
X0191429Y0122647D01*
X0200199Y0122647D01*
X0201652Y0124100D01*
X0201652Y0161300D01*
X0201052Y0161300D01*
X0187252Y0175100D01*
X0156052Y0175100D01*
X0150052Y0181100D01*
X0150052Y0189500D01*
X0147051Y0192501D01*
X0140856Y0192501D01*
X0117234Y0192501D01*
X0093612Y0192501D01*
X0093565Y0192454D01*
X0082309Y0192454D01*
X0059449Y0169594D01*
X0059449Y0151814D01*
X0059449Y0137414D01*
X0059325Y0137388D01*
X0060939Y0133160D02*
X0009133Y0133160D01*
X0009133Y0131762D02*
X0059541Y0131762D01*
X0056841Y0130363D02*
X0009133Y0130363D01*
X0009133Y0128965D02*
X0055625Y0128965D01*
X0055349Y0127566D02*
X0009133Y0127566D01*
X0009133Y0126168D02*
X0055723Y0126168D01*
X0057412Y0124769D02*
X0009133Y0124769D01*
X0009133Y0123370D02*
X0062002Y0123370D01*
X0061743Y0124769D02*
X0059455Y0124769D01*
X0061143Y0126168D02*
X0061743Y0126168D01*
X0061743Y0127566D02*
X0061517Y0127566D01*
X0058433Y0127684D02*
X0064958Y0134209D01*
X0073143Y0134209D01*
X0084826Y0121972D02*
X0009133Y0121972D01*
X0009133Y0120573D02*
X0086180Y0120573D01*
X0087534Y0119175D02*
X0009133Y0119175D01*
X0009133Y0117776D02*
X0009572Y0117776D01*
X0014775Y0117776D02*
X0088888Y0117776D01*
X0090242Y0116378D02*
X0016000Y0116378D01*
X0016542Y0114979D02*
X0091597Y0114979D01*
X0092951Y0113581D02*
X0016542Y0113581D01*
X0016066Y0112182D02*
X0020625Y0112182D01*
X0020886Y0112443D02*
X0019934Y0111491D01*
X0019419Y0110247D01*
X0019419Y0108901D01*
X0019934Y0107657D01*
X0020886Y0106705D01*
X0022130Y0106190D01*
X0023476Y0106190D01*
X0024720Y0106705D01*
X0025672Y0107657D01*
X0026187Y0108901D01*
X0026187Y0110247D01*
X0025672Y0111491D01*
X0024720Y0112443D01*
X0023476Y0112958D01*
X0022130Y0112958D01*
X0020886Y0112443D01*
X0019641Y0110784D02*
X0014935Y0110784D01*
X0019419Y0109385D02*
X0009133Y0109385D01*
X0009133Y0107987D02*
X0019797Y0107987D01*
X0021168Y0106588D02*
X0009133Y0106588D01*
X0009133Y0105190D02*
X0101075Y0105190D01*
X0099721Y0106588D02*
X0024439Y0106588D01*
X0025809Y0107987D02*
X0098367Y0107987D01*
X0097013Y0109385D02*
X0026187Y0109385D01*
X0025965Y0110784D02*
X0095659Y0110784D01*
X0094305Y0112182D02*
X0024981Y0112182D01*
X0009411Y0110784D02*
X0009133Y0110784D01*
X0009133Y0103791D02*
X0102429Y0103791D01*
X0103784Y0102393D02*
X0009133Y0102393D01*
X0009133Y0100994D02*
X0105138Y0100994D01*
X0106492Y0099596D02*
X0009133Y0099596D01*
X0009133Y0098197D02*
X0107846Y0098197D01*
X0109200Y0096799D02*
X0009133Y0096799D01*
X0009133Y0095400D02*
X0110554Y0095400D01*
X0111908Y0094002D02*
X0023618Y0094002D01*
X0023476Y0094061D02*
X0022130Y0094061D01*
X0020886Y0093545D01*
X0019934Y0092593D01*
X0019419Y0091350D01*
X0019419Y0090003D01*
X0019934Y0088759D01*
X0020886Y0087807D01*
X0022130Y0087292D01*
X0023476Y0087292D01*
X0024720Y0087807D01*
X0025672Y0088759D01*
X0026187Y0090003D01*
X0026187Y0091350D01*
X0025672Y0092593D01*
X0024720Y0093545D01*
X0023476Y0094061D01*
X0021988Y0094002D02*
X0009133Y0094002D01*
X0009133Y0092603D02*
X0019944Y0092603D01*
X0019419Y0091205D02*
X0009133Y0091205D01*
X0009133Y0089806D02*
X0009825Y0089806D01*
X0014521Y0089806D02*
X0019500Y0089806D01*
X0020286Y0088408D02*
X0015925Y0088408D01*
X0016505Y0087009D02*
X0118679Y0087009D01*
X0120033Y0085611D02*
X0016542Y0085611D01*
X0016140Y0084212D02*
X0121387Y0084212D01*
X0117325Y0088408D02*
X0025321Y0088408D01*
X0026106Y0089806D02*
X0115971Y0089806D01*
X0114616Y0091205D02*
X0026187Y0091205D01*
X0025662Y0092603D02*
X0113262Y0092603D01*
X0119502Y0099596D02*
X0123587Y0099596D01*
X0123587Y0099506D02*
X0131892Y0099506D01*
X0131892Y0098544D01*
X0123587Y0098544D01*
X0123587Y0096439D01*
X0123703Y0096007D01*
X0123926Y0095619D01*
X0124243Y0095302D01*
X0124631Y0095079D01*
X0125063Y0094963D01*
X0131892Y0094963D01*
X0131892Y0098544D01*
X0132855Y0098544D01*
X0132855Y0094963D01*
X0139684Y0094963D01*
X0140116Y0095079D01*
X0140504Y0095302D01*
X0140820Y0095619D01*
X0141044Y0096007D01*
X0141160Y0096439D01*
X0141160Y0097465D01*
X0141619Y0096358D01*
X0142575Y0095402D01*
X0143650Y0094956D01*
X0146306Y0092300D01*
X0126798Y0092300D01*
X0092452Y0126646D01*
X0092452Y0140986D01*
X0093494Y0139943D01*
X0094583Y0139492D01*
X0094583Y0125564D01*
X0114037Y0106110D01*
X0115091Y0105056D01*
X0123887Y0105056D01*
X0123887Y0103957D01*
X0124707Y0103137D01*
X0140040Y0103137D01*
X0140860Y0103957D01*
X0140860Y0105099D01*
X0142508Y0105099D01*
X0141619Y0104210D01*
X0141101Y0102960D01*
X0141101Y0101831D01*
X0141044Y0102043D01*
X0140820Y0102431D01*
X0140504Y0102747D01*
X0140116Y0102971D01*
X0139684Y0103087D01*
X0132855Y0103087D01*
X0132855Y0099506D01*
X0131892Y0099506D01*
X0131892Y0103087D01*
X0125063Y0103087D01*
X0124631Y0102971D01*
X0124243Y0102747D01*
X0123926Y0102431D01*
X0123703Y0102043D01*
X0123587Y0101611D01*
X0123587Y0099506D01*
X0123587Y0098197D02*
X0120900Y0098197D01*
X0122299Y0096799D02*
X0123587Y0096799D01*
X0123697Y0095400D02*
X0124145Y0095400D01*
X0125096Y0094002D02*
X0144605Y0094002D01*
X0146003Y0092603D02*
X0126494Y0092603D01*
X0129426Y0093775D02*
X0132373Y0096722D01*
X0132373Y0099025D01*
X0131892Y0099596D02*
X0132855Y0099596D01*
X0132855Y0100994D02*
X0131892Y0100994D01*
X0131892Y0102393D02*
X0132855Y0102393D01*
X0132855Y0098197D02*
X0131892Y0098197D01*
X0131892Y0096799D02*
X0132855Y0096799D01*
X0132855Y0095400D02*
X0131892Y0095400D01*
X0140602Y0095400D02*
X0142578Y0095400D01*
X0141436Y0096799D02*
X0141160Y0096799D01*
X0141101Y0102393D02*
X0140842Y0102393D01*
X0140694Y0103791D02*
X0141445Y0103791D01*
X0151424Y0095400D02*
X0152578Y0095400D01*
X0156424Y0095400D02*
X0157578Y0095400D01*
X0161424Y0095400D02*
X0162578Y0095400D01*
X0166424Y0095400D02*
X0167578Y0095400D01*
X0171424Y0095400D02*
X0172157Y0095400D01*
X0174501Y0094584D02*
X0174501Y0102284D01*
X0174501Y0102393D02*
X0174501Y0102393D01*
X0174501Y0103791D02*
X0174501Y0103791D01*
X0174501Y0105190D02*
X0174501Y0105190D01*
X0176812Y0105190D02*
X0177632Y0105190D01*
X0179501Y0102284D02*
X0179546Y0102239D01*
X0179546Y0094311D01*
X0180746Y0093111D01*
X0181646Y0095400D02*
X0183624Y0095400D01*
X0182942Y0096799D02*
X0182566Y0096799D01*
X0182901Y0098197D02*
X0182942Y0098197D01*
X0182901Y0099596D02*
X0182942Y0099596D01*
X0182901Y0100994D02*
X0182942Y0100994D01*
X0182901Y0102393D02*
X0183368Y0102393D01*
X0183107Y0103791D02*
X0182557Y0103791D01*
X0182942Y0105190D02*
X0181370Y0105190D01*
X0182942Y0106588D02*
X0162742Y0106588D01*
X0161344Y0107987D02*
X0182942Y0107987D01*
X0182942Y0109385D02*
X0159945Y0109385D01*
X0157148Y0112182D02*
X0182942Y0112182D01*
X0182942Y0113581D02*
X0155750Y0113581D01*
X0154351Y0114979D02*
X0182942Y0114979D01*
X0182579Y0116378D02*
X0152953Y0116378D01*
X0151554Y0117776D02*
X0181181Y0117776D01*
X0179810Y0119175D02*
X0150156Y0119175D01*
X0148757Y0120573D02*
X0179810Y0120573D01*
X0179810Y0121972D02*
X0147359Y0121972D01*
X0145960Y0123370D02*
X0179810Y0123370D01*
X0179810Y0124769D02*
X0144562Y0124769D01*
X0143163Y0126168D02*
X0179521Y0126168D01*
X0178122Y0127566D02*
X0141765Y0127566D01*
X0140860Y0128965D02*
X0176724Y0128965D01*
X0175325Y0130363D02*
X0145677Y0130363D01*
X0146484Y0131762D02*
X0173927Y0131762D01*
X0176221Y0134559D02*
X0199552Y0134559D01*
X0199095Y0134633D02*
X0199552Y0135090D01*
X0199552Y0133826D01*
X0199095Y0134283D01*
X0183762Y0134283D01*
X0182942Y0133463D01*
X0182942Y0127838D01*
X0182356Y0128424D01*
X0182356Y0128424D01*
X0175536Y0135244D01*
X0174482Y0136298D01*
X0144704Y0136298D01*
X0143991Y0135584D01*
X0142838Y0135584D01*
X0141705Y0135115D01*
X0140837Y0134247D01*
X0140614Y0133709D01*
X0140040Y0134283D01*
X0124707Y0134283D01*
X0123887Y0133463D01*
X0123887Y0127579D01*
X0124707Y0126759D01*
X0137481Y0126759D01*
X0137830Y0126409D01*
X0124707Y0126409D01*
X0123887Y0125589D01*
X0123887Y0124404D01*
X0118488Y0124404D01*
X0108183Y0134709D01*
X0108183Y0139492D01*
X0109272Y0139943D01*
X0110707Y0141378D01*
X0111383Y0143011D01*
X0112059Y0141378D01*
X0113494Y0139943D01*
X0115369Y0139167D01*
X0117397Y0139167D01*
X0119272Y0139943D01*
X0120707Y0141378D01*
X0121483Y0143253D01*
X0121483Y0145281D01*
X0120707Y0147156D01*
X0119272Y0148591D01*
X0118004Y0149116D01*
X0118456Y0149263D01*
X0119213Y0149649D01*
X0119901Y0150148D01*
X0120502Y0150749D01*
X0121001Y0151437D01*
X0121387Y0152194D01*
X0121650Y0153002D01*
X0121783Y0153842D01*
X0121783Y0153967D01*
X0116683Y0153967D01*
X0116683Y0154567D01*
X0121783Y0154567D01*
X0121783Y0154692D01*
X0121650Y0155532D01*
X0121387Y0156340D01*
X0121001Y0157097D01*
X0120502Y0157785D01*
X0119901Y0158386D01*
X0119213Y0158885D01*
X0118456Y0159271D01*
X0117647Y0159534D01*
X0116808Y0159667D01*
X0116683Y0159667D01*
X0116683Y0154567D01*
X0116083Y0154567D01*
X0116083Y0159667D01*
X0115958Y0159667D01*
X0115118Y0159534D01*
X0114310Y0159271D01*
X0113553Y0158885D01*
X0112865Y0158386D01*
X0112264Y0157785D01*
X0111764Y0157097D01*
X0111379Y0156340D01*
X0111232Y0155888D01*
X0110707Y0157156D01*
X0109272Y0158591D01*
X0107397Y0159367D01*
X0105369Y0159367D01*
X0103494Y0158591D01*
X0102059Y0157156D01*
X0101383Y0155523D01*
X0100707Y0157156D01*
X0099272Y0158591D01*
X0098483Y0158917D01*
X0098483Y0161961D01*
X0108322Y0171800D01*
X0134122Y0171800D01*
X0135922Y0173600D01*
X0146722Y0173600D01*
X0150652Y0177530D01*
X0155182Y0173000D01*
X0186382Y0173000D01*
X0199552Y0159830D01*
X0199552Y0157448D01*
X0199095Y0157905D01*
X0183762Y0157905D01*
X0182942Y0157085D01*
X0182942Y0151201D01*
X0183762Y0150381D01*
X0199095Y0150381D01*
X0199552Y0150838D01*
X0199552Y0149996D01*
X0199171Y0150215D01*
X0198739Y0150331D01*
X0191910Y0150331D01*
X0191910Y0146750D01*
X0190947Y0146750D01*
X0190947Y0145788D01*
X0182642Y0145788D01*
X0182642Y0143683D01*
X0182758Y0143251D01*
X0182982Y0142863D01*
X0183298Y0142546D01*
X0183686Y0142323D01*
X0184118Y0142207D01*
X0190947Y0142207D01*
X0190947Y0145788D01*
X0191910Y0145788D01*
X0191910Y0142207D01*
X0198739Y0142207D01*
X0199171Y0142323D01*
X0199552Y0142542D01*
X0199552Y0141700D01*
X0199095Y0142157D01*
X0183762Y0142157D01*
X0182942Y0141337D01*
X0182942Y0135453D01*
X0183762Y0134633D01*
X0199095Y0134633D01*
X0191910Y0142950D02*
X0190947Y0142950D01*
X0190947Y0144348D02*
X0191910Y0144348D01*
X0191910Y0145747D02*
X0190947Y0145747D01*
X0190947Y0146750D02*
X0182642Y0146750D01*
X0182642Y0148855D01*
X0182758Y0149287D01*
X0182982Y0149675D01*
X0183298Y0149992D01*
X0183686Y0150215D01*
X0184118Y0150331D01*
X0190947Y0150331D01*
X0190947Y0146750D01*
X0190947Y0147145D02*
X0191910Y0147145D01*
X0191910Y0148544D02*
X0190947Y0148544D01*
X0190947Y0149942D02*
X0191910Y0149942D01*
X0183249Y0149942D02*
X0140129Y0149942D01*
X0140040Y0150031D02*
X0140860Y0149211D01*
X0140860Y0143327D01*
X0140040Y0142507D01*
X0124707Y0142507D01*
X0123887Y0143327D01*
X0123887Y0149211D01*
X0124707Y0150031D01*
X0140040Y0150031D01*
X0140116Y0150197D02*
X0139684Y0150081D01*
X0132855Y0150081D01*
X0132855Y0153662D01*
X0132855Y0154624D01*
X0141160Y0154624D01*
X0141160Y0156729D01*
X0141044Y0157161D01*
X0140820Y0157549D01*
X0140504Y0157866D01*
X0140116Y0158089D01*
X0139684Y0158205D01*
X0132855Y0158205D01*
X0132855Y0154624D01*
X0131892Y0154624D01*
X0131892Y0153662D01*
X0123587Y0153662D01*
X0123587Y0151557D01*
X0123703Y0151125D01*
X0123926Y0150737D01*
X0124243Y0150421D01*
X0124631Y0150197D01*
X0125063Y0150081D01*
X0131892Y0150081D01*
X0131892Y0153662D01*
X0132855Y0153662D01*
X0141160Y0153662D01*
X0141160Y0151557D01*
X0141044Y0151125D01*
X0140820Y0150737D01*
X0140504Y0150421D01*
X0140116Y0150197D01*
X0141102Y0151341D02*
X0182942Y0151341D01*
X0182942Y0152739D02*
X0141160Y0152739D01*
X0140860Y0148544D02*
X0182642Y0148544D01*
X0182642Y0147145D02*
X0140860Y0147145D01*
X0140860Y0145747D02*
X0182642Y0145747D01*
X0182642Y0144348D02*
X0140860Y0144348D01*
X0140483Y0142950D02*
X0182932Y0142950D01*
X0183156Y0141551D02*
X0140646Y0141551D01*
X0140860Y0141337D02*
X0140040Y0142157D01*
X0124707Y0142157D01*
X0123887Y0141337D01*
X0123887Y0135453D01*
X0124707Y0134633D01*
X0140040Y0134633D01*
X0140860Y0135453D01*
X0140860Y0141337D01*
X0140860Y0140153D02*
X0182942Y0140153D01*
X0182942Y0138754D02*
X0140860Y0138754D01*
X0140860Y0137356D02*
X0182942Y0137356D01*
X0182942Y0135957D02*
X0174822Y0135957D01*
X0175536Y0135244D02*
X0175536Y0135244D01*
X0177619Y0133160D02*
X0182942Y0133160D01*
X0182942Y0131762D02*
X0179018Y0131762D01*
X0180416Y0130363D02*
X0182942Y0130363D01*
X0182942Y0128965D02*
X0181815Y0128965D01*
X0182942Y0154138D02*
X0132855Y0154138D01*
X0131892Y0154138D02*
X0116683Y0154138D01*
X0116683Y0155536D02*
X0116083Y0155536D01*
X0116083Y0156935D02*
X0116683Y0156935D01*
X0116683Y0158333D02*
X0116083Y0158333D01*
X0112812Y0158333D02*
X0109529Y0158333D01*
X0110798Y0156935D02*
X0111682Y0156935D01*
X0119953Y0158333D02*
X0199552Y0158333D01*
X0199552Y0159732D02*
X0098483Y0159732D01*
X0098483Y0161130D02*
X0198252Y0161130D01*
X0196853Y0162529D02*
X0099051Y0162529D01*
X0100449Y0163927D02*
X0195455Y0163927D01*
X0194056Y0165326D02*
X0101848Y0165326D01*
X0103246Y0166724D02*
X0192658Y0166724D01*
X0191259Y0168123D02*
X0104645Y0168123D01*
X0106043Y0169521D02*
X0189861Y0169521D01*
X0188462Y0170920D02*
X0107442Y0170920D01*
X0107452Y0173900D02*
X0133252Y0173900D01*
X0135052Y0175700D01*
X0145852Y0175700D01*
X0150052Y0179900D01*
X0150052Y0181100D01*
X0149636Y0176514D02*
X0151668Y0176514D01*
X0153067Y0175115D02*
X0148237Y0175115D01*
X0146839Y0173717D02*
X0154465Y0173717D01*
X0141105Y0156935D02*
X0182942Y0156935D01*
X0182942Y0155536D02*
X0141160Y0155536D01*
X0132855Y0155536D02*
X0131892Y0155536D01*
X0131892Y0154624D02*
X0131892Y0158205D01*
X0125063Y0158205D01*
X0124631Y0158089D01*
X0124243Y0157866D01*
X0123926Y0157549D01*
X0123703Y0157161D01*
X0123587Y0156729D01*
X0123587Y0154624D01*
X0131892Y0154624D01*
X0131892Y0152739D02*
X0132855Y0152739D01*
X0132855Y0151341D02*
X0131892Y0151341D01*
X0131892Y0156935D02*
X0132855Y0156935D01*
X0123642Y0156935D02*
X0121084Y0156935D01*
X0121648Y0155536D02*
X0123587Y0155536D01*
X0123587Y0152739D02*
X0121564Y0152739D01*
X0120932Y0151341D02*
X0123645Y0151341D01*
X0124618Y0149942D02*
X0119617Y0149942D01*
X0119319Y0148544D02*
X0123887Y0148544D01*
X0123887Y0147145D02*
X0120711Y0147145D01*
X0121290Y0145747D02*
X0123887Y0145747D01*
X0123887Y0144348D02*
X0121483Y0144348D01*
X0121357Y0142950D02*
X0124264Y0142950D01*
X0124101Y0141551D02*
X0120778Y0141551D01*
X0119481Y0140153D02*
X0123887Y0140153D01*
X0123887Y0138754D02*
X0108183Y0138754D01*
X0108183Y0137356D02*
X0123887Y0137356D01*
X0123887Y0135957D02*
X0108183Y0135957D01*
X0108333Y0134559D02*
X0141149Y0134559D01*
X0140860Y0135957D02*
X0144363Y0135957D01*
X0141227Y0130363D02*
X0140860Y0130363D01*
X0124465Y0126168D02*
X0116724Y0126168D01*
X0115326Y0127566D02*
X0123900Y0127566D01*
X0123887Y0128965D02*
X0113927Y0128965D01*
X0112528Y0130363D02*
X0123887Y0130363D01*
X0123887Y0131762D02*
X0111130Y0131762D01*
X0109731Y0133160D02*
X0123887Y0133160D01*
X0123887Y0124769D02*
X0118123Y0124769D01*
X0106566Y0113581D02*
X0105517Y0113581D01*
X0105168Y0114979D02*
X0104118Y0114979D01*
X0103769Y0116378D02*
X0102720Y0116378D01*
X0102371Y0117776D02*
X0101321Y0117776D01*
X0100972Y0119175D02*
X0099923Y0119175D01*
X0099574Y0120573D02*
X0098524Y0120573D01*
X0098175Y0121972D02*
X0097126Y0121972D01*
X0096777Y0123370D02*
X0095727Y0123370D01*
X0095378Y0124769D02*
X0094329Y0124769D01*
X0094583Y0126168D02*
X0092930Y0126168D01*
X0092452Y0127566D02*
X0094583Y0127566D01*
X0094583Y0128965D02*
X0092452Y0128965D01*
X0092452Y0130363D02*
X0094583Y0130363D01*
X0094583Y0131762D02*
X0092452Y0131762D01*
X0092452Y0133160D02*
X0094583Y0133160D01*
X0094583Y0134559D02*
X0092452Y0134559D01*
X0092452Y0135957D02*
X0094583Y0135957D01*
X0094583Y0137356D02*
X0092452Y0137356D01*
X0092452Y0138754D02*
X0094583Y0138754D01*
X0093285Y0140153D02*
X0092452Y0140153D01*
X0096383Y0154267D02*
X0096383Y0162831D01*
X0107452Y0173900D01*
X0103237Y0158333D02*
X0099529Y0158333D01*
X0100798Y0156935D02*
X0101968Y0156935D01*
X0101389Y0155536D02*
X0101377Y0155536D01*
X0111357Y0142950D02*
X0111408Y0142950D01*
X0111988Y0141551D02*
X0110778Y0141551D01*
X0109481Y0140153D02*
X0113285Y0140153D01*
X0107965Y0112182D02*
X0106915Y0112182D01*
X0108314Y0110784D02*
X0109363Y0110784D01*
X0109712Y0109385D02*
X0110762Y0109385D01*
X0111111Y0107987D02*
X0112161Y0107987D01*
X0112509Y0106588D02*
X0113559Y0106588D01*
X0113908Y0105190D02*
X0114958Y0105190D01*
X0115306Y0103791D02*
X0124052Y0103791D01*
X0123904Y0102393D02*
X0116705Y0102393D01*
X0118103Y0100994D02*
X0123587Y0100994D01*
X0143193Y0082814D02*
X0082442Y0082814D01*
X0082503Y0082753D02*
X0082187Y0083069D01*
X0081799Y0083293D01*
X0081367Y0083409D01*
X0073843Y0083409D01*
X0073843Y0074409D01*
X0082843Y0074409D01*
X0082843Y0081933D01*
X0082727Y0082365D01*
X0082503Y0082753D01*
X0082843Y0081415D02*
X0144591Y0081415D01*
X0145990Y0080017D02*
X0082843Y0080017D01*
X0082843Y0078618D02*
X0147388Y0078618D01*
X0148787Y0077220D02*
X0082843Y0077220D01*
X0082843Y0075821D02*
X0137162Y0075821D01*
X0136905Y0075715D02*
X0136090Y0074900D01*
X0127106Y0074900D01*
X0125391Y0073184D01*
X0124238Y0073184D01*
X0123105Y0072715D01*
X0122237Y0071847D01*
X0121768Y0070713D01*
X0121768Y0069486D01*
X0122237Y0068353D01*
X0123105Y0067485D01*
X0124238Y0067016D01*
X0125465Y0067016D01*
X0126599Y0067485D01*
X0127467Y0068353D01*
X0127936Y0069486D01*
X0127936Y0070639D01*
X0128598Y0071300D01*
X0136090Y0071300D01*
X0136905Y0070485D01*
X0138038Y0070016D01*
X0139265Y0070016D01*
X0140399Y0070485D01*
X0141267Y0071353D01*
X0141736Y0072486D01*
X0141736Y0073713D01*
X0141267Y0074847D01*
X0140399Y0075715D01*
X0139265Y0076184D01*
X0138038Y0076184D01*
X0136905Y0075715D01*
X0140142Y0075821D02*
X0150185Y0075821D01*
X0151584Y0074423D02*
X0141442Y0074423D01*
X0141736Y0073024D02*
X0152982Y0073024D01*
X0153946Y0071626D02*
X0141380Y0071626D01*
X0139776Y0070227D02*
X0153568Y0070227D01*
X0153840Y0068829D02*
X0127664Y0068829D01*
X0127936Y0070227D02*
X0137528Y0070227D01*
X0126466Y0067430D02*
X0155038Y0067430D01*
X0155417Y0066032D02*
X0082843Y0066032D01*
X0082843Y0065485D02*
X0082843Y0073009D01*
X0073843Y0073009D01*
X0073843Y0074409D01*
X0072443Y0074409D01*
X0072443Y0083409D01*
X0064919Y0083409D01*
X0064487Y0083293D01*
X0064099Y0083069D01*
X0063783Y0082753D01*
X0063559Y0082365D01*
X0063443Y0081933D01*
X0063443Y0074409D01*
X0072443Y0074409D01*
X0072443Y0073009D01*
X0073843Y0073009D01*
X0073843Y0064009D01*
X0081367Y0064009D01*
X0081799Y0064125D01*
X0082187Y0064349D01*
X0082503Y0064665D01*
X0082727Y0065053D01*
X0082843Y0065485D01*
X0082471Y0064633D02*
X0155390Y0064633D01*
X0156156Y0063234D02*
X0016542Y0063234D01*
X0016412Y0061836D02*
X0162462Y0061836D01*
X0163394Y0063234D02*
X0160748Y0063234D01*
X0161514Y0064633D02*
X0163394Y0064633D01*
X0161996Y0066032D02*
X0161487Y0066032D01*
X0161586Y0067430D02*
X0161648Y0067430D01*
X0164732Y0067486D02*
X0165494Y0066724D01*
X0165494Y0061898D01*
X0153556Y0049960D01*
X0143650Y0049960D01*
X0133490Y0049960D01*
X0135743Y0047851D02*
X0141397Y0047851D01*
X0141270Y0046452D02*
X0009133Y0046452D01*
X0009133Y0047851D02*
X0131237Y0047851D01*
X0130446Y0049249D02*
X0009133Y0049249D01*
X0009133Y0050648D02*
X0130437Y0050648D01*
X0131215Y0052046D02*
X0009133Y0052046D01*
X0009133Y0053445D02*
X0154071Y0053445D01*
X0155470Y0054843D02*
X0009133Y0054843D01*
X0009133Y0056242D02*
X0020168Y0056242D01*
X0019934Y0056476D02*
X0020886Y0055524D01*
X0022130Y0055009D01*
X0023476Y0055009D01*
X0024720Y0055524D01*
X0025672Y0056476D01*
X0026187Y0057720D01*
X0026187Y0059066D01*
X0025672Y0060310D01*
X0024720Y0061262D01*
X0023476Y0061777D01*
X0022130Y0061777D01*
X0020886Y0061262D01*
X0019934Y0060310D01*
X0019419Y0059066D01*
X0019419Y0057720D01*
X0019934Y0056476D01*
X0019452Y0057640D02*
X0009133Y0057640D01*
X0009133Y0059039D02*
X0010366Y0059039D01*
X0013980Y0059039D02*
X0019419Y0059039D01*
X0020062Y0060437D02*
X0015770Y0060437D01*
X0016233Y0064633D02*
X0063815Y0064633D01*
X0063783Y0064665D02*
X0064099Y0064349D01*
X0064487Y0064125D01*
X0064919Y0064009D01*
X0072443Y0064009D01*
X0072443Y0073009D01*
X0063443Y0073009D01*
X0063443Y0065485D01*
X0063559Y0065053D01*
X0063783Y0064665D01*
X0063443Y0066032D02*
X0015339Y0066032D01*
X0009133Y0067430D02*
X0063443Y0067430D01*
X0063443Y0068829D02*
X0009133Y0068829D01*
X0009133Y0070227D02*
X0063443Y0070227D01*
X0063443Y0071626D02*
X0009133Y0071626D01*
X0009133Y0073024D02*
X0072443Y0073024D01*
X0072443Y0071626D02*
X0073843Y0071626D01*
X0073843Y0073024D02*
X0123852Y0073024D01*
X0122146Y0071626D02*
X0082843Y0071626D01*
X0082843Y0070227D02*
X0121768Y0070227D01*
X0122040Y0068829D02*
X0082843Y0068829D01*
X0082843Y0067430D02*
X0123238Y0067430D01*
X0126629Y0074423D02*
X0082843Y0074423D01*
X0073843Y0074423D02*
X0072443Y0074423D01*
X0072443Y0075821D02*
X0073843Y0075821D01*
X0073843Y0077220D02*
X0072443Y0077220D01*
X0072443Y0078618D02*
X0073843Y0078618D01*
X0073843Y0080017D02*
X0072443Y0080017D01*
X0072443Y0081415D02*
X0073843Y0081415D01*
X0073843Y0082814D02*
X0072443Y0082814D01*
X0063843Y0082814D02*
X0015114Y0082814D01*
X0009232Y0082814D02*
X0009133Y0082814D01*
X0009133Y0081415D02*
X0063443Y0081415D01*
X0063443Y0080017D02*
X0009133Y0080017D01*
X0009133Y0078618D02*
X0063443Y0078618D01*
X0063443Y0077220D02*
X0009133Y0077220D01*
X0009133Y0075821D02*
X0063443Y0075821D01*
X0063443Y0074423D02*
X0009133Y0074423D01*
X0025545Y0060437D02*
X0161064Y0060437D01*
X0159665Y0059039D02*
X0026187Y0059039D01*
X0026155Y0057640D02*
X0158267Y0057640D01*
X0156868Y0056242D02*
X0025438Y0056242D01*
X0055995Y0029670D02*
X0124244Y0029670D01*
X0122845Y0028272D02*
X0057394Y0028272D01*
X0084543Y0022678D02*
X0085964Y0022678D01*
X0087362Y0021279D02*
X0084543Y0021279D01*
X0084543Y0019881D02*
X0088761Y0019881D01*
X0090159Y0018482D02*
X0084543Y0018482D01*
X0084543Y0017084D02*
X0091558Y0017084D01*
X0092453Y0021279D02*
X0118609Y0021279D01*
X0118609Y0022678D02*
X0091055Y0022678D01*
X0089656Y0024076D02*
X0118650Y0024076D01*
X0120048Y0025475D02*
X0088258Y0025475D01*
X0086859Y0026873D02*
X0121447Y0026873D01*
X0114278Y0039460D02*
X0132708Y0039460D01*
X0134526Y0039460D02*
X0141869Y0039460D01*
X0142104Y0040858D02*
X0113714Y0040858D01*
X0113266Y0042257D02*
X0142038Y0042257D01*
X0145770Y0042257D02*
X0168263Y0042257D01*
X0168652Y0043655D02*
X0146788Y0043655D01*
X0146988Y0045054D02*
X0168652Y0045054D01*
X0168652Y0046452D02*
X0146538Y0046452D01*
X0145903Y0047851D02*
X0168652Y0047851D01*
X0168652Y0049249D02*
X0155815Y0049249D01*
X0157214Y0050648D02*
X0168652Y0050648D01*
X0168652Y0052046D02*
X0158612Y0052046D01*
X0160011Y0053445D02*
X0168652Y0053445D01*
X0168652Y0054843D02*
X0161409Y0054843D01*
X0162808Y0056242D02*
X0168652Y0056242D01*
X0168652Y0057640D02*
X0164206Y0057640D01*
X0165605Y0059039D02*
X0168652Y0059039D01*
X0168652Y0060437D02*
X0167003Y0060437D01*
X0167594Y0061836D02*
X0168652Y0061836D01*
X0168652Y0063234D02*
X0167594Y0063234D01*
X0167594Y0064633D02*
X0168652Y0064633D01*
X0168652Y0066032D02*
X0167594Y0066032D01*
X0169681Y0082814D02*
X0160884Y0082814D01*
X0159485Y0084212D02*
X0168911Y0084212D01*
X0168933Y0085611D02*
X0158087Y0085611D01*
X0174501Y0096799D02*
X0174501Y0096799D01*
X0174501Y0098197D02*
X0174501Y0098197D01*
X0174501Y0099596D02*
X0174501Y0099596D01*
X0174501Y0100994D02*
X0174501Y0100994D01*
X0172190Y0105190D02*
X0171370Y0105190D01*
X0167632Y0105190D02*
X0166370Y0105190D01*
X0166865Y0040858D02*
X0145704Y0040858D01*
X0145939Y0039460D02*
X0163650Y0039460D01*
X0163168Y0038061D02*
X0146858Y0038061D01*
X0146988Y0036663D02*
X0163343Y0036663D01*
X0164326Y0035264D02*
X0146397Y0035264D01*
X0141411Y0035264D02*
X0136444Y0035264D01*
X0136701Y0036663D02*
X0140820Y0036663D01*
X0140950Y0038061D02*
X0136308Y0038061D01*
X0112998Y0011490D02*
X0112398Y0011490D01*
X0112398Y0010091D02*
X0112998Y0010091D01*
X0112998Y0008693D02*
X0112398Y0008693D01*
X0108809Y0008693D02*
X0084543Y0008693D01*
X0084543Y0010091D02*
X0107834Y0010091D01*
X0107381Y0011490D02*
X0084543Y0011490D01*
X0084543Y0012888D02*
X0107302Y0012888D01*
X0107620Y0014287D02*
X0084543Y0014287D01*
X0084543Y0015685D02*
X0108381Y0015685D01*
X0116587Y0008693D02*
X0118809Y0008693D01*
X0117834Y0010091D02*
X0117562Y0010091D01*
X0084543Y0004497D02*
X0193140Y0004497D01*
X0192851Y0011490D02*
X0200789Y0011490D01*
X0201366Y0012888D02*
X0194250Y0012888D01*
X0195047Y0014287D02*
X0201741Y0014287D01*
X0202106Y0015685D02*
X0195626Y0015685D01*
X0195747Y0017084D02*
X0202197Y0017084D01*
X0202221Y0018482D02*
X0195747Y0018482D01*
X0195349Y0019881D02*
X0202221Y0019881D01*
X0202221Y0021279D02*
X0194769Y0021279D01*
X0193580Y0022678D02*
X0202221Y0022678D01*
X0202221Y0024076D02*
X0191671Y0024076D01*
X0171652Y0033866D02*
X0166646Y0033866D01*
X0167710Y0032467D02*
X0171112Y0032467D01*
X0168508Y0031069D02*
X0167943Y0031069D01*
X0168178Y0035264D02*
X0171652Y0035264D01*
X0171652Y0036663D02*
X0169161Y0036663D01*
X0169336Y0038061D02*
X0171652Y0038061D01*
X0171652Y0039460D02*
X0170557Y0039460D01*
X0073843Y0064633D02*
X0072443Y0064633D01*
X0072443Y0066032D02*
X0073843Y0066032D01*
X0073843Y0067430D02*
X0072443Y0067430D01*
X0072443Y0068829D02*
X0073843Y0068829D01*
X0073843Y0070227D02*
X0072443Y0070227D01*
X0052348Y0133720D02*
X0050243Y0133720D01*
X0049810Y0133835D01*
X0049423Y0134059D01*
X0049106Y0134376D01*
X0048883Y0134763D01*
X0048767Y0135196D01*
X0048767Y0137104D01*
X0052348Y0137104D01*
X0052348Y0133720D01*
X0052348Y0134559D02*
X0052916Y0134559D01*
X0052916Y0135957D02*
X0052348Y0135957D01*
X0052348Y0137356D02*
X0009133Y0137356D01*
X0009133Y0138754D02*
X0048767Y0138754D01*
X0048767Y0139580D02*
X0048767Y0137672D01*
X0052348Y0137672D01*
X0052348Y0141057D01*
X0050243Y0141057D01*
X0049810Y0140941D01*
X0049423Y0140717D01*
X0049106Y0140400D01*
X0048883Y0140013D01*
X0048767Y0139580D01*
X0048963Y0140153D02*
X0009133Y0140153D01*
X0009133Y0141551D02*
X0026323Y0141551D01*
X0024197Y0142950D02*
X0009133Y0142950D01*
X0009133Y0144348D02*
X0023295Y0144348D01*
X0022870Y0145747D02*
X0009133Y0145747D01*
X0009133Y0147145D02*
X0022870Y0147145D01*
X0023342Y0148544D02*
X0009133Y0148544D01*
X0009133Y0149942D02*
X0024311Y0149942D01*
X0026598Y0151341D02*
X0009133Y0151341D01*
X0009133Y0152739D02*
X0024407Y0152739D01*
X0023382Y0154138D02*
X0009133Y0154138D01*
X0009133Y0155536D02*
X0022870Y0155536D01*
X0022870Y0156935D02*
X0009133Y0156935D01*
X0009133Y0158333D02*
X0023255Y0158333D01*
X0024100Y0159732D02*
X0009133Y0159732D01*
X0009133Y0161130D02*
X0026090Y0161130D01*
X0024618Y0162529D02*
X0009133Y0162529D01*
X0009133Y0163927D02*
X0023469Y0163927D01*
X0022890Y0165326D02*
X0009133Y0165326D01*
X0009133Y0166724D02*
X0022870Y0166724D01*
X0023168Y0168123D02*
X0009133Y0168123D01*
X0009133Y0169521D02*
X0023890Y0169521D01*
X0025582Y0170920D02*
X0009133Y0170920D01*
X0009133Y0172318D02*
X0036532Y0172318D01*
X0036532Y0170920D02*
X0030358Y0170920D01*
X0032050Y0169521D02*
X0037122Y0169521D01*
X0036532Y0173717D02*
X0009133Y0173717D01*
X0009133Y0175115D02*
X0036532Y0175115D01*
X0036997Y0176514D02*
X0027137Y0176514D01*
X0027188Y0176535D02*
X0029267Y0178615D01*
X0030393Y0181332D01*
X0030393Y0184273D01*
X0029267Y0186990D01*
X0027188Y0189070D01*
X0024471Y0190195D01*
X0021529Y0190195D01*
X0018812Y0189070D01*
X0016733Y0186990D01*
X0015607Y0184273D01*
X0015607Y0181332D01*
X0016733Y0178615D01*
X0018812Y0176535D01*
X0021529Y0175409D01*
X0024471Y0175409D01*
X0027188Y0176535D01*
X0028565Y0177912D02*
X0050620Y0177912D01*
X0049222Y0176514D02*
X0043404Y0176514D01*
X0043530Y0176389D02*
X0043213Y0176705D01*
X0042826Y0176929D01*
X0042393Y0177045D01*
X0040485Y0177045D01*
X0040485Y0173464D01*
X0043869Y0173464D01*
X0043869Y0175569D01*
X0043754Y0176001D01*
X0043530Y0176389D01*
X0043869Y0175115D02*
X0048080Y0175115D01*
X0048080Y0173717D02*
X0043869Y0173717D01*
X0043869Y0172318D02*
X0048080Y0172318D01*
X0048080Y0170920D02*
X0043869Y0170920D01*
X0043280Y0169521D02*
X0048080Y0169521D01*
X0050106Y0166388D02*
X0050180Y0166314D01*
X0050180Y0174502D01*
X0058179Y0182501D01*
X0061635Y0179311D02*
X0066196Y0179311D01*
X0064798Y0177912D02*
X0060237Y0177912D01*
X0062001Y0175115D02*
X0053763Y0175115D01*
X0052364Y0173717D02*
X0060602Y0173717D01*
X0059204Y0172318D02*
X0052280Y0172318D01*
X0052280Y0170920D02*
X0057805Y0170920D01*
X0057349Y0169521D02*
X0052280Y0169521D01*
X0055733Y0168123D02*
X0057349Y0168123D01*
X0057349Y0166724D02*
X0055733Y0166724D01*
X0055733Y0165326D02*
X0057349Y0165326D01*
X0057349Y0163927D02*
X0055521Y0163927D01*
X0057349Y0162529D02*
X0031322Y0162529D01*
X0032471Y0163927D02*
X0036832Y0163927D01*
X0040200Y0166389D02*
X0040201Y0166486D01*
X0050106Y0166388D01*
X0044838Y0163927D02*
X0043569Y0163927D01*
X0040200Y0166389D02*
X0027970Y0166389D01*
X0029850Y0161130D02*
X0057349Y0161130D01*
X0057349Y0159732D02*
X0055691Y0159732D01*
X0055910Y0158333D02*
X0057349Y0158333D01*
X0057298Y0156935D02*
X0057349Y0156935D01*
X0054004Y0157259D02*
X0059449Y0151814D01*
X0056952Y0151341D02*
X0055062Y0151341D01*
X0054989Y0151383D02*
X0054557Y0151498D01*
X0050277Y0151498D01*
X0050277Y0148301D01*
X0056033Y0148301D01*
X0056033Y0150022D01*
X0055917Y0150455D01*
X0055693Y0150842D01*
X0055377Y0151159D01*
X0054989Y0151383D01*
X0055554Y0152739D02*
X0043886Y0152739D01*
X0043886Y0151341D02*
X0045297Y0151341D01*
X0045370Y0151383D02*
X0044982Y0151159D01*
X0044666Y0150842D01*
X0044442Y0150455D01*
X0044326Y0150022D01*
X0044326Y0148301D01*
X0050082Y0148301D01*
X0050082Y0148107D01*
X0044326Y0148107D01*
X0044326Y0146386D01*
X0044442Y0145953D01*
X0044666Y0145566D01*
X0044982Y0145249D01*
X0045370Y0145025D01*
X0045802Y0144909D01*
X0050082Y0144909D01*
X0050082Y0148107D01*
X0050277Y0148107D01*
X0050277Y0148301D01*
X0050082Y0148301D01*
X0050082Y0151498D01*
X0045802Y0151498D01*
X0045370Y0151383D01*
X0044326Y0149942D02*
X0043886Y0149942D01*
X0043886Y0150171D02*
X0040502Y0150171D01*
X0040502Y0146590D01*
X0042410Y0146590D01*
X0042842Y0146706D01*
X0043230Y0146930D01*
X0043546Y0147246D01*
X0043770Y0147634D01*
X0043886Y0148066D01*
X0043886Y0150171D01*
X0043886Y0148544D02*
X0044326Y0148544D01*
X0044326Y0147145D02*
X0043445Y0147145D01*
X0044561Y0145747D02*
X0033070Y0145747D01*
X0033070Y0147145D02*
X0036990Y0147145D01*
X0036549Y0148544D02*
X0033095Y0148544D01*
X0034493Y0149942D02*
X0036549Y0149942D01*
X0036549Y0151341D02*
X0035892Y0151341D01*
X0032749Y0154138D02*
X0032558Y0154138D01*
X0033070Y0155536D02*
X0034147Y0155536D01*
X0033070Y0156935D02*
X0035546Y0156935D01*
X0036849Y0158333D02*
X0032685Y0158333D01*
X0031840Y0159732D02*
X0036849Y0159732D01*
X0038828Y0157247D02*
X0027970Y0146389D01*
X0032645Y0144348D02*
X0057349Y0144348D01*
X0057349Y0142950D02*
X0031743Y0142950D01*
X0029617Y0141551D02*
X0057349Y0141551D01*
X0055377Y0145249D02*
X0055693Y0145566D01*
X0055917Y0145953D01*
X0056033Y0146386D01*
X0056033Y0148107D01*
X0050277Y0148107D01*
X0050277Y0144909D01*
X0054557Y0144909D01*
X0054989Y0145025D01*
X0055377Y0145249D01*
X0055798Y0145747D02*
X0057349Y0145747D01*
X0057349Y0147145D02*
X0056033Y0147145D01*
X0056033Y0148544D02*
X0057349Y0148544D01*
X0057349Y0149942D02*
X0056033Y0149942D01*
X0054155Y0154138D02*
X0043321Y0154138D01*
X0040218Y0157148D02*
X0050167Y0157247D01*
X0050180Y0157259D01*
X0054004Y0157259D01*
X0050277Y0151341D02*
X0050082Y0151341D01*
X0050082Y0149942D02*
X0050277Y0149942D01*
X0050277Y0148544D02*
X0050082Y0148544D01*
X0050082Y0147145D02*
X0050277Y0147145D01*
X0050277Y0145747D02*
X0050082Y0145747D01*
X0052348Y0140153D02*
X0052916Y0140153D01*
X0052916Y0138754D02*
X0052348Y0138754D01*
X0048767Y0135957D02*
X0009133Y0135957D01*
X0009133Y0134559D02*
X0049001Y0134559D01*
X0040502Y0147145D02*
X0039933Y0147145D01*
X0039933Y0148544D02*
X0040502Y0148544D01*
X0040502Y0149942D02*
X0039933Y0149942D01*
X0040218Y0157148D02*
X0038828Y0157247D01*
X0043586Y0159732D02*
X0044668Y0159732D01*
X0040485Y0173717D02*
X0039917Y0173717D01*
X0039917Y0175115D02*
X0040485Y0175115D01*
X0040485Y0176514D02*
X0039917Y0176514D01*
X0030135Y0180709D02*
X0053417Y0180709D01*
X0053479Y0182108D02*
X0030393Y0182108D01*
X0030393Y0183506D02*
X0053479Y0183506D01*
X0053936Y0184905D02*
X0030131Y0184905D01*
X0029552Y0186303D02*
X0055334Y0186303D01*
X0054933Y0189101D02*
X0027113Y0189101D01*
X0028555Y0187702D02*
X0074587Y0187702D01*
X0073189Y0186303D02*
X0061024Y0186303D01*
X0062422Y0184905D02*
X0071790Y0184905D01*
X0070392Y0183506D02*
X0062879Y0183506D01*
X0062879Y0182108D02*
X0068993Y0182108D01*
X0067595Y0180709D02*
X0062879Y0180709D01*
X0063399Y0176514D02*
X0055161Y0176514D01*
X0052019Y0179311D02*
X0029556Y0179311D01*
X0018863Y0176514D02*
X0009133Y0176514D01*
X0009133Y0177912D02*
X0017435Y0177912D01*
X0016444Y0179311D02*
X0009133Y0179311D01*
X0009133Y0180709D02*
X0015865Y0180709D01*
X0015607Y0182108D02*
X0009133Y0182108D01*
X0009179Y0183506D02*
X0015607Y0183506D01*
X0015869Y0184905D02*
X0009330Y0184905D01*
X0009705Y0186303D02*
X0016448Y0186303D01*
X0017444Y0187702D02*
X0010080Y0187702D01*
X0010761Y0189101D02*
X0018887Y0189101D01*
X0016101Y0194695D02*
X0053725Y0194695D01*
X0053479Y0193296D02*
X0014051Y0193296D01*
X0012652Y0191898D02*
X0053479Y0191898D01*
X0053535Y0190499D02*
X0011568Y0190499D01*
X0019482Y0196093D02*
X0055124Y0196093D01*
X0061234Y0196093D02*
X0090557Y0196093D01*
X0089159Y0194695D02*
X0062633Y0194695D01*
X0062879Y0193296D02*
X0080181Y0193296D01*
X0078783Y0191898D02*
X0062879Y0191898D01*
X0062824Y0190499D02*
X0077384Y0190499D01*
X0075986Y0189101D02*
X0061425Y0189101D01*
X0134640Y0172318D02*
X0187064Y0172318D01*
D25*
X0143452Y0132500D03*
X0129426Y0093775D03*
X0130252Y0082100D03*
X0138652Y0073100D03*
X0124852Y0070100D03*
X0113551Y0060755D03*
X0113551Y0080440D03*
X0093866Y0092251D03*
X0065672Y0107999D03*
X0058433Y0127684D03*
X0043574Y0141146D03*
X0038748Y0123747D03*
X0038748Y0100125D03*
X0038748Y0078303D03*
X0038748Y0047481D03*
X0030874Y0042340D03*
X0058433Y0037133D03*
X0070244Y0045007D03*
X0093866Y0060755D03*
X0110630Y0040562D03*
X0133617Y0036498D03*
X0143904Y0037133D03*
X0143904Y0044753D03*
X0143650Y0049960D03*
X0133490Y0049960D03*
X0156652Y0070100D03*
X0158452Y0065300D03*
X0164732Y0067486D03*
X0171971Y0084885D03*
X0192037Y0062406D03*
X0166252Y0037700D03*
X0168971Y0033634D03*
X0164859Y0031291D03*
X0169400Y0028100D03*
X0194958Y0030021D03*
X0140452Y0022700D03*
D26*
X0144052Y0019100D01*
X0162052Y0019100D01*
X0162319Y0019367D01*
X0170362Y0019268D01*
X0175491Y0024495D01*
X0175745Y0027104D01*
X0173452Y0032300D02*
X0173452Y0067700D01*
X0144501Y0096651D01*
X0144501Y0102284D01*
X0144886Y0106899D02*
X0132373Y0106899D01*
X0132330Y0106856D01*
X0115837Y0106856D01*
X0096383Y0126310D01*
X0096383Y0144267D01*
X0101359Y0147242D02*
X0101359Y0130097D01*
X0116599Y0114857D01*
X0132289Y0114857D01*
X0132373Y0114773D01*
X0142012Y0114773D01*
X0154501Y0102284D01*
X0149501Y0102284D02*
X0144886Y0106899D01*
X0159501Y0102284D02*
X0139138Y0122647D01*
X0132373Y0122647D01*
X0132330Y0122604D01*
X0117742Y0122604D01*
X0106383Y0133963D01*
X0106383Y0144267D01*
X0101359Y0147242D02*
X0106383Y0152266D01*
X0106383Y0154267D01*
X0090652Y0146300D02*
X0090652Y0125900D01*
X0126052Y0090500D01*
X0147052Y0090500D01*
X0170452Y0067100D01*
X0170452Y0041900D01*
X0166252Y0037700D01*
X0164859Y0031291D02*
X0162446Y0028878D01*
X0125997Y0028878D01*
X0120409Y0023290D01*
X0120409Y0018845D01*
X0092342Y0018845D01*
X0085865Y0025322D01*
X0057798Y0025322D01*
X0040780Y0042340D01*
X0030874Y0042340D01*
X0085852Y0123500D02*
X0085852Y0144500D01*
X0082258Y0148094D01*
X0082258Y0171328D01*
X0082258Y0178021D02*
X0086739Y0182501D01*
X0093612Y0182501D01*
X0102077Y0182414D02*
X0102077Y0177525D01*
X0084652Y0160100D01*
X0084652Y0149300D01*
X0088252Y0145700D01*
X0088252Y0124700D01*
X0124252Y0088100D01*
X0144867Y0088100D01*
X0160957Y0072058D01*
X0160957Y0070126D01*
X0158452Y0065300D01*
X0156652Y0070100D02*
X0156652Y0071900D01*
X0142852Y0085700D01*
X0122452Y0085700D01*
X0085852Y0123500D01*
X0090652Y0146300D02*
X0087052Y0149900D01*
X0087052Y0159500D01*
X0104452Y0176900D01*
X0124852Y0176900D01*
X0126207Y0178255D01*
X0126207Y0182421D01*
X0132900Y0182421D02*
X0137679Y0182501D01*
X0140856Y0182501D01*
X0117234Y0182501D02*
X0113930Y0182501D01*
X0108770Y0182414D01*
X0145450Y0134498D02*
X0143452Y0132500D01*
X0145450Y0134498D02*
X0173736Y0134498D01*
X0181610Y0126624D01*
X0181610Y0119893D01*
X0186730Y0114773D01*
X0191429Y0114773D01*
X0164501Y0102284D02*
X0136264Y0130521D01*
X0132373Y0130521D01*
X0127852Y0073100D02*
X0124852Y0070100D01*
X0127852Y0073100D02*
X0138652Y0073100D01*
X0143904Y0044753D02*
X0143904Y0037133D01*
X0133617Y0036498D02*
X0114694Y0036498D01*
X0110630Y0040562D01*
X0162698Y0012440D02*
X0170325Y0012440D01*
X0170362Y0012576D01*
X0163340Y0012440D02*
X0162698Y0012440D01*
X0169400Y0028100D02*
X0173452Y0032300D01*
M02*
