G75*
%MOIN*%
%OFA0B0*%
%FSLAX25Y25*%
%IPPOS*%
%LPD*%
%AMOC8*
5,1,8,0,0,1.08239X$1,22.5*
%
%ADD10R,0.03937X0.04331*%
%ADD11C,0.07400*%
%ADD12C,0.05937*%
%ADD13C,0.03969*%
%ADD14OC8,0.06600*%
%ADD15R,0.04331X0.03937*%
%ADD16R,0.08661X0.18898*%
%ADD17R,0.08307X0.03189*%
%ADD18R,0.08661X0.03346*%
%ADD19R,0.14173X0.04724*%
%ADD20C,0.04000*%
%ADD21R,0.16000X0.16000*%
%ADD22R,0.20000X0.20000*%
%ADD23C,0.03762*%
%ADD24C,0.01400*%
%ADD25C,0.03369*%
%ADD26C,0.00800*%
D10*
X0042540Y0158329D03*
X0042540Y0165022D03*
X0042523Y0174360D03*
X0042523Y0181053D03*
X0104399Y0190288D03*
X0111092Y0190288D03*
X0128529Y0190295D03*
X0135222Y0190295D03*
X0178067Y0034978D03*
X0184759Y0034978D03*
X0172684Y0027142D03*
X0172684Y0020450D03*
D11*
X0165020Y0020314D03*
X0155020Y0020314D03*
X0145020Y0020314D03*
X0135020Y0020314D03*
X0125020Y0020314D03*
X0115020Y0020314D03*
X0118705Y0152141D03*
X0108705Y0152141D03*
X0108705Y0162141D03*
X0118705Y0162141D03*
X0098705Y0162141D03*
X0098705Y0152141D03*
X0030292Y0154263D03*
X0030292Y0164263D03*
X0030292Y0174263D03*
D12*
X0014495Y0122074D03*
X0014495Y0093924D03*
X0014495Y0070893D03*
X0014495Y0042743D03*
D13*
X0025125Y0047369D03*
X0025125Y0066267D03*
X0025125Y0098550D03*
X0025125Y0117448D03*
D14*
X0060501Y0190375D03*
X0060501Y0200375D03*
X0095934Y0200375D03*
X0095934Y0190375D03*
X0119556Y0190375D03*
X0119556Y0200375D03*
X0143178Y0200375D03*
X0143178Y0190375D03*
D15*
X0084580Y0185895D03*
X0084580Y0179202D03*
X0061647Y0145262D03*
X0054954Y0145262D03*
D16*
X0076478Y0165527D03*
D17*
X0052502Y0174188D03*
X0052502Y0156078D03*
D18*
X0052502Y0165133D03*
D19*
X0134695Y0162017D03*
X0134695Y0154143D03*
X0134695Y0146269D03*
X0134695Y0138395D03*
X0134695Y0130521D03*
X0134695Y0122647D03*
X0134695Y0114773D03*
X0134695Y0106899D03*
X0193751Y0106899D03*
X0193751Y0114773D03*
X0193751Y0122647D03*
X0193751Y0130521D03*
X0193751Y0138395D03*
X0193751Y0146269D03*
X0193751Y0154143D03*
X0193751Y0162017D03*
D20*
X0181823Y0110158D02*
X0181823Y0106158D01*
X0176823Y0106158D02*
X0176823Y0110158D01*
X0171823Y0110158D02*
X0171823Y0106158D01*
X0166823Y0106158D02*
X0166823Y0110158D01*
X0161823Y0110158D02*
X0161823Y0106158D01*
X0156823Y0106158D02*
X0156823Y0110158D01*
X0151823Y0110158D02*
X0151823Y0106158D01*
X0146823Y0106158D02*
X0146823Y0110158D01*
D21*
X0075465Y0081583D03*
D22*
X0075465Y0142083D03*
X0075465Y0021083D03*
D23*
X0163739Y0122179D03*
X0181278Y0041197D03*
D24*
X0064065Y0015168D02*
X0016033Y0015168D01*
X0016880Y0014321D02*
X0014321Y0016880D01*
X0014321Y0016880D01*
X0012511Y0020015D01*
X0011574Y0023512D01*
X0011455Y0025322D01*
X0011455Y0039605D01*
X0012021Y0039040D01*
X0013626Y0038375D01*
X0015364Y0038375D01*
X0016970Y0039040D01*
X0018199Y0040269D01*
X0018864Y0041874D01*
X0018864Y0043612D01*
X0018199Y0045218D01*
X0016970Y0046447D01*
X0015364Y0047112D01*
X0013626Y0047112D01*
X0012021Y0046447D01*
X0011455Y0045881D01*
X0011455Y0067755D01*
X0012021Y0067189D01*
X0013626Y0066524D01*
X0015364Y0066524D01*
X0016970Y0067189D01*
X0018199Y0068418D01*
X0018864Y0070024D01*
X0018864Y0071762D01*
X0018199Y0073367D01*
X0016970Y0074596D01*
X0015364Y0075261D01*
X0013626Y0075261D01*
X0012021Y0074596D01*
X0011455Y0074031D01*
X0011455Y0090787D01*
X0012021Y0090221D01*
X0013626Y0089556D01*
X0015364Y0089556D01*
X0016970Y0090221D01*
X0018199Y0091450D01*
X0018864Y0093055D01*
X0018864Y0094793D01*
X0018199Y0096399D01*
X0016970Y0097628D01*
X0015364Y0098293D01*
X0013626Y0098293D01*
X0012021Y0097628D01*
X0011455Y0097062D01*
X0011455Y0118936D01*
X0012021Y0118371D01*
X0013626Y0117706D01*
X0015364Y0117706D01*
X0016970Y0118371D01*
X0018199Y0119599D01*
X0018864Y0121205D01*
X0018864Y0122943D01*
X0018199Y0124549D01*
X0016970Y0125777D01*
X0015364Y0126443D01*
X0013626Y0126443D01*
X0012021Y0125777D01*
X0011455Y0125212D01*
X0011455Y0190676D01*
X0011574Y0192486D01*
X0012511Y0195983D01*
X0014321Y0199118D01*
X0016880Y0201678D01*
X0020015Y0203488D01*
X0023512Y0204425D01*
X0025322Y0204543D01*
X0058022Y0204543D01*
X0055801Y0202322D01*
X0055801Y0198429D01*
X0058554Y0195675D01*
X0062448Y0195675D01*
X0065201Y0198429D01*
X0065201Y0202322D01*
X0062980Y0204543D01*
X0093455Y0204543D01*
X0091340Y0202428D01*
X0083761Y0202428D01*
X0082531Y0201198D01*
X0059671Y0178338D01*
X0059671Y0164758D01*
X0058232Y0166197D01*
X0058232Y0167386D01*
X0057412Y0168206D01*
X0047591Y0168206D01*
X0046771Y0167386D01*
X0046771Y0167164D01*
X0045908Y0167156D01*
X0045908Y0167768D01*
X0045088Y0168588D01*
X0039991Y0168588D01*
X0039171Y0167768D01*
X0039171Y0166184D01*
X0039117Y0166137D01*
X0039110Y0166051D01*
X0034745Y0161685D01*
X0035392Y0163248D01*
X0035392Y0165277D01*
X0034616Y0167152D01*
X0033181Y0168587D01*
X0031548Y0169263D01*
X0033181Y0169939D01*
X0034616Y0171374D01*
X0034942Y0172163D01*
X0039155Y0172163D01*
X0039155Y0171615D01*
X0039975Y0170795D01*
X0045071Y0170795D01*
X0045891Y0171615D01*
X0045891Y0172227D01*
X0046948Y0172216D01*
X0046948Y0172014D01*
X0047768Y0171194D01*
X0057235Y0171194D01*
X0058055Y0172014D01*
X0058055Y0176363D01*
X0057235Y0177183D01*
X0054602Y0177183D01*
X0054602Y0181506D01*
X0058771Y0185675D01*
X0062448Y0185675D01*
X0065201Y0188429D01*
X0065201Y0192322D01*
X0062448Y0195075D01*
X0058554Y0195075D01*
X0055801Y0192322D01*
X0055801Y0188645D01*
X0050402Y0183246D01*
X0050402Y0177183D01*
X0047768Y0177183D01*
X0047002Y0176416D01*
X0045891Y0176427D01*
X0045891Y0177106D01*
X0045494Y0177504D01*
X0045535Y0177528D01*
X0045852Y0177844D01*
X0046076Y0178232D01*
X0046191Y0178664D01*
X0046191Y0180769D01*
X0042807Y0180769D01*
X0042807Y0181338D01*
X0042239Y0181338D01*
X0042239Y0184919D01*
X0040331Y0184919D01*
X0039898Y0184803D01*
X0039511Y0184579D01*
X0039194Y0184263D01*
X0038970Y0183875D01*
X0038855Y0183443D01*
X0038854Y0181338D01*
X0042239Y0181338D01*
X0042239Y0180769D01*
X0038855Y0180769D01*
X0038855Y0178664D01*
X0038970Y0178232D01*
X0039194Y0177844D01*
X0039511Y0177528D01*
X0039552Y0177504D01*
X0039155Y0177106D01*
X0039155Y0176363D01*
X0034942Y0176363D01*
X0034616Y0177152D01*
X0033181Y0178587D01*
X0031307Y0179363D01*
X0029278Y0179363D01*
X0027403Y0178587D01*
X0025968Y0177152D01*
X0025192Y0175277D01*
X0025192Y0173248D01*
X0025968Y0171374D01*
X0027403Y0169939D01*
X0029036Y0169263D01*
X0027403Y0168587D01*
X0025968Y0167152D01*
X0025192Y0165277D01*
X0025192Y0163248D01*
X0025968Y0161374D01*
X0027403Y0159939D01*
X0029036Y0159263D01*
X0027403Y0158587D01*
X0025968Y0157152D01*
X0025192Y0155277D01*
X0025192Y0153248D01*
X0025968Y0151374D01*
X0027403Y0149939D01*
X0029278Y0149163D01*
X0031307Y0149163D01*
X0033181Y0149939D01*
X0034616Y0151374D01*
X0035392Y0153248D01*
X0035392Y0155277D01*
X0035065Y0156066D01*
X0038871Y0159872D01*
X0038871Y0158614D01*
X0042255Y0158614D01*
X0042255Y0158045D01*
X0038871Y0158045D01*
X0038871Y0155940D01*
X0038987Y0155508D01*
X0039211Y0155120D01*
X0039527Y0154804D01*
X0039915Y0154580D01*
X0040347Y0154464D01*
X0042255Y0154464D01*
X0042255Y0158045D01*
X0042824Y0158045D01*
X0042824Y0158614D01*
X0046208Y0158614D01*
X0046208Y0160719D01*
X0046092Y0161151D01*
X0045868Y0161539D01*
X0045552Y0161855D01*
X0045510Y0161879D01*
X0045908Y0162277D01*
X0045908Y0162956D01*
X0046771Y0162964D01*
X0046771Y0162880D01*
X0047591Y0162060D01*
X0056429Y0162060D01*
X0059671Y0158818D01*
X0059671Y0148631D01*
X0058902Y0148631D01*
X0058504Y0148233D01*
X0058480Y0148274D01*
X0058163Y0148591D01*
X0057776Y0148815D01*
X0057343Y0148931D01*
X0055238Y0148931D01*
X0055238Y0145546D01*
X0054670Y0145546D01*
X0054670Y0144978D01*
X0055238Y0144978D01*
X0055238Y0141594D01*
X0057343Y0141594D01*
X0057776Y0141709D01*
X0058163Y0141933D01*
X0058480Y0142250D01*
X0058504Y0142291D01*
X0058902Y0141894D01*
X0064065Y0141894D01*
X0064065Y0141838D01*
X0060870Y0138643D01*
X0060142Y0138643D01*
X0059008Y0138173D01*
X0058140Y0137305D01*
X0057671Y0136172D01*
X0057671Y0134945D01*
X0058140Y0133811D01*
X0059008Y0132944D01*
X0060142Y0132474D01*
X0061369Y0132474D01*
X0062502Y0132944D01*
X0063370Y0133811D01*
X0063839Y0134945D01*
X0063839Y0135673D01*
X0064065Y0135898D01*
X0064065Y0131503D01*
X0064885Y0130683D01*
X0086045Y0130683D01*
X0086368Y0131006D01*
X0086362Y0130658D01*
X0086374Y0130645D01*
X0086374Y0130628D01*
X0086891Y0130111D01*
X0122974Y0092845D01*
X0122974Y0092828D01*
X0123491Y0092311D01*
X0123999Y0091786D01*
X0124016Y0091786D01*
X0124028Y0091774D01*
X0124760Y0091774D01*
X0125490Y0091762D01*
X0125503Y0091774D01*
X0144428Y0091774D01*
X0156420Y0079782D01*
X0156359Y0079721D01*
X0155890Y0078588D01*
X0155890Y0077361D01*
X0156359Y0076227D01*
X0157227Y0075359D01*
X0158196Y0074958D01*
X0158159Y0074921D01*
X0157690Y0073788D01*
X0157690Y0072561D01*
X0158159Y0071427D01*
X0159027Y0070559D01*
X0160161Y0070090D01*
X0161388Y0070090D01*
X0162521Y0070559D01*
X0163389Y0071427D01*
X0163858Y0072561D01*
X0163858Y0073788D01*
X0163531Y0074578D01*
X0163970Y0075424D01*
X0163970Y0074747D01*
X0164439Y0073613D01*
X0165307Y0072745D01*
X0165716Y0072576D01*
X0165716Y0070642D01*
X0155008Y0059934D01*
X0148234Y0059934D01*
X0147719Y0060449D01*
X0146586Y0060918D01*
X0145359Y0060918D01*
X0144225Y0060449D01*
X0143710Y0059934D01*
X0138074Y0059934D01*
X0137559Y0060449D01*
X0136426Y0060918D01*
X0135199Y0060918D01*
X0134065Y0060449D01*
X0133197Y0059581D01*
X0132728Y0058448D01*
X0132728Y0057221D01*
X0133197Y0056087D01*
X0134065Y0055219D01*
X0135199Y0054750D01*
X0136426Y0054750D01*
X0137559Y0055219D01*
X0138074Y0055734D01*
X0143710Y0055734D01*
X0144225Y0055219D01*
X0144389Y0055151D01*
X0143611Y0054374D01*
X0143142Y0053241D01*
X0143142Y0052014D01*
X0143611Y0050880D01*
X0144426Y0050065D01*
X0144426Y0047569D01*
X0143611Y0046754D01*
X0143142Y0045621D01*
X0143142Y0044394D01*
X0143611Y0043260D01*
X0144479Y0042392D01*
X0145613Y0041923D01*
X0146840Y0041923D01*
X0147973Y0042392D01*
X0148841Y0043260D01*
X0149310Y0044394D01*
X0149310Y0045621D01*
X0148841Y0046754D01*
X0148026Y0047569D01*
X0148026Y0050065D01*
X0148841Y0050880D01*
X0149310Y0052014D01*
X0149310Y0053241D01*
X0148841Y0054374D01*
X0147973Y0055242D01*
X0147809Y0055310D01*
X0148234Y0055734D01*
X0156748Y0055734D01*
X0168686Y0067672D01*
X0169916Y0068902D01*
X0169916Y0074210D01*
X0170138Y0074747D01*
X0170138Y0075064D01*
X0170974Y0074228D01*
X0170974Y0050520D01*
X0169113Y0048658D01*
X0167961Y0048658D01*
X0166827Y0048189D01*
X0165959Y0047321D01*
X0165490Y0046188D01*
X0165490Y0044961D01*
X0165959Y0043827D01*
X0166827Y0042959D01*
X0167961Y0042490D01*
X0169188Y0042490D01*
X0170321Y0042959D01*
X0171189Y0043827D01*
X0171658Y0044961D01*
X0171658Y0046113D01*
X0173974Y0048428D01*
X0173974Y0040901D01*
X0172196Y0039058D01*
X0171109Y0039058D01*
X0170265Y0038709D01*
X0170265Y0039779D01*
X0169796Y0040912D01*
X0168928Y0041780D01*
X0167795Y0042249D01*
X0166568Y0042249D01*
X0165434Y0041780D01*
X0164566Y0040912D01*
X0164097Y0039779D01*
X0164097Y0038626D01*
X0164022Y0038552D01*
X0127573Y0038552D01*
X0126519Y0037498D01*
X0120931Y0031910D01*
X0120931Y0028519D01*
X0095410Y0028519D01*
X0088933Y0034996D01*
X0060866Y0034996D01*
X0043848Y0052014D01*
X0035758Y0052014D01*
X0034943Y0052829D01*
X0033810Y0053298D01*
X0032583Y0053298D01*
X0031449Y0052829D01*
X0030581Y0051961D01*
X0030112Y0050828D01*
X0030112Y0049601D01*
X0030581Y0048467D01*
X0031449Y0047599D01*
X0032583Y0047130D01*
X0033810Y0047130D01*
X0034943Y0047599D01*
X0035758Y0048414D01*
X0042356Y0048414D01*
X0058320Y0032450D01*
X0059374Y0031396D01*
X0064065Y0031396D01*
X0064065Y0011455D01*
X0025322Y0011455D01*
X0023512Y0011574D01*
X0020015Y0012511D01*
X0016880Y0014321D01*
X0017835Y0013770D02*
X0064065Y0013770D01*
X0064065Y0012371D02*
X0020537Y0012371D01*
X0023765Y0017965D02*
X0013694Y0017965D01*
X0012887Y0019364D02*
X0020825Y0019364D01*
X0021134Y0019055D02*
X0023852Y0017929D01*
X0026793Y0017929D01*
X0029510Y0019055D01*
X0031589Y0021134D01*
X0032715Y0023852D01*
X0032715Y0026793D01*
X0031589Y0029510D01*
X0029510Y0031589D01*
X0026793Y0032715D01*
X0023852Y0032715D01*
X0021134Y0031589D01*
X0019055Y0029510D01*
X0017929Y0026793D01*
X0017929Y0023852D01*
X0019055Y0021134D01*
X0021134Y0019055D01*
X0019427Y0020762D02*
X0012311Y0020762D01*
X0011936Y0022161D02*
X0018630Y0022161D01*
X0018050Y0023559D02*
X0011571Y0023559D01*
X0011479Y0024958D02*
X0017929Y0024958D01*
X0017929Y0026356D02*
X0011455Y0026356D01*
X0011455Y0027755D02*
X0018328Y0027755D01*
X0018907Y0029153D02*
X0011455Y0029153D01*
X0011455Y0030552D02*
X0020097Y0030552D01*
X0022005Y0031950D02*
X0011455Y0031950D01*
X0011455Y0033349D02*
X0057422Y0033349D01*
X0056023Y0034747D02*
X0011455Y0034747D01*
X0011455Y0036146D02*
X0054625Y0036146D01*
X0053226Y0037544D02*
X0011455Y0037544D01*
X0011455Y0038943D02*
X0012255Y0038943D01*
X0016735Y0038943D02*
X0051828Y0038943D01*
X0050429Y0040341D02*
X0018229Y0040341D01*
X0018808Y0041740D02*
X0049031Y0041740D01*
X0047632Y0043138D02*
X0018864Y0043138D01*
X0018481Y0044537D02*
X0023172Y0044537D01*
X0023208Y0044500D02*
X0024452Y0043985D01*
X0025798Y0043985D01*
X0027042Y0044500D01*
X0027994Y0045452D01*
X0028509Y0046696D01*
X0028509Y0048042D01*
X0027994Y0049286D01*
X0027042Y0050238D01*
X0025798Y0050754D01*
X0024452Y0050754D01*
X0023208Y0050238D01*
X0022256Y0049286D01*
X0021741Y0048042D01*
X0021741Y0046696D01*
X0022256Y0045452D01*
X0023208Y0044500D01*
X0022056Y0045935D02*
X0017481Y0045935D01*
X0021741Y0047334D02*
X0011455Y0047334D01*
X0011455Y0048732D02*
X0022027Y0048732D01*
X0023101Y0050131D02*
X0011455Y0050131D01*
X0011455Y0051529D02*
X0030402Y0051529D01*
X0030112Y0050131D02*
X0027150Y0050131D01*
X0028224Y0048732D02*
X0030471Y0048732D01*
X0032090Y0047334D02*
X0028509Y0047334D01*
X0028194Y0045935D02*
X0044835Y0045935D01*
X0046234Y0044537D02*
X0027079Y0044537D01*
X0034302Y0047334D02*
X0043437Y0047334D01*
X0047129Y0048732D02*
X0109868Y0048732D01*
X0109868Y0049050D02*
X0109868Y0047823D01*
X0110337Y0046689D01*
X0111205Y0045821D01*
X0112339Y0045352D01*
X0113491Y0045352D01*
X0116270Y0042572D01*
X0133377Y0042572D01*
X0134192Y0041757D01*
X0135326Y0041288D01*
X0136553Y0041288D01*
X0137686Y0041757D01*
X0138554Y0042625D01*
X0139023Y0043759D01*
X0139023Y0044986D01*
X0138554Y0046119D01*
X0137686Y0046987D01*
X0136553Y0047456D01*
X0135326Y0047456D01*
X0134192Y0046987D01*
X0133377Y0046172D01*
X0117762Y0046172D01*
X0116036Y0047897D01*
X0116036Y0049050D01*
X0115567Y0050183D01*
X0114699Y0051051D01*
X0113566Y0051520D01*
X0112339Y0051520D01*
X0111205Y0051051D01*
X0110337Y0050183D01*
X0109868Y0049050D01*
X0110316Y0050131D02*
X0045731Y0050131D01*
X0044332Y0051529D02*
X0143342Y0051529D01*
X0143142Y0052928D02*
X0034704Y0052928D01*
X0031688Y0052928D02*
X0011455Y0052928D01*
X0011455Y0054326D02*
X0143592Y0054326D01*
X0143719Y0055725D02*
X0138065Y0055725D01*
X0135812Y0057834D02*
X0145972Y0057834D01*
X0155878Y0057834D01*
X0167816Y0069772D01*
X0167816Y0074598D01*
X0167054Y0075360D01*
X0164318Y0073906D02*
X0163809Y0073906D01*
X0163836Y0072507D02*
X0165716Y0072507D01*
X0165716Y0071109D02*
X0163070Y0071109D01*
X0164784Y0069710D02*
X0018734Y0069710D01*
X0018864Y0071109D02*
X0158478Y0071109D01*
X0157712Y0072507D02*
X0084793Y0072507D01*
X0084825Y0072539D02*
X0085049Y0072927D01*
X0085165Y0073359D01*
X0085165Y0080883D01*
X0076165Y0080883D01*
X0076165Y0071883D01*
X0083689Y0071883D01*
X0084121Y0071999D01*
X0084509Y0072223D01*
X0084825Y0072539D01*
X0085165Y0073906D02*
X0157739Y0073906D01*
X0157360Y0075304D02*
X0128788Y0075304D01*
X0128921Y0075359D02*
X0129789Y0076227D01*
X0130258Y0077361D01*
X0130258Y0078513D01*
X0130920Y0079174D01*
X0138412Y0079174D01*
X0139227Y0078359D01*
X0140361Y0077890D01*
X0141588Y0077890D01*
X0142721Y0078359D01*
X0143589Y0079227D01*
X0144058Y0080361D01*
X0144058Y0081588D01*
X0143589Y0082721D01*
X0142721Y0083589D01*
X0141588Y0084058D01*
X0140361Y0084058D01*
X0139227Y0083589D01*
X0138412Y0082774D01*
X0129428Y0082774D01*
X0127713Y0081058D01*
X0126561Y0081058D01*
X0125427Y0080589D01*
X0124559Y0079721D01*
X0124090Y0078588D01*
X0124090Y0077361D01*
X0124559Y0076227D01*
X0125427Y0075359D01*
X0126561Y0074890D01*
X0127788Y0074890D01*
X0128921Y0075359D01*
X0129986Y0076703D02*
X0156162Y0076703D01*
X0155890Y0078101D02*
X0142098Y0078101D01*
X0143702Y0079500D02*
X0156268Y0079500D01*
X0155304Y0080898D02*
X0144058Y0080898D01*
X0143765Y0082297D02*
X0153906Y0082297D01*
X0152507Y0083695D02*
X0142464Y0083695D01*
X0139484Y0083695D02*
X0085165Y0083695D01*
X0085165Y0082297D02*
X0128951Y0082297D01*
X0126174Y0080898D02*
X0076165Y0080898D01*
X0076165Y0080883D02*
X0076165Y0082283D01*
X0074765Y0082283D01*
X0074765Y0080883D01*
X0076165Y0080883D01*
X0076165Y0079500D02*
X0074765Y0079500D01*
X0074765Y0080883D02*
X0074765Y0071883D01*
X0067241Y0071883D01*
X0066809Y0071999D01*
X0066421Y0072223D01*
X0066105Y0072539D01*
X0065881Y0072927D01*
X0065765Y0073359D01*
X0065765Y0080883D01*
X0074765Y0080883D01*
X0074765Y0080898D02*
X0011455Y0080898D01*
X0011455Y0079500D02*
X0065765Y0079500D01*
X0065765Y0078101D02*
X0011455Y0078101D01*
X0011455Y0076703D02*
X0065765Y0076703D01*
X0065765Y0075304D02*
X0011455Y0075304D01*
X0017661Y0073906D02*
X0065765Y0073906D01*
X0066137Y0072507D02*
X0018555Y0072507D01*
X0018092Y0068311D02*
X0022384Y0068311D01*
X0022256Y0068184D02*
X0021741Y0066940D01*
X0021741Y0065594D01*
X0022256Y0064350D01*
X0023208Y0063398D01*
X0024452Y0062883D01*
X0025798Y0062883D01*
X0027042Y0063398D01*
X0027994Y0064350D01*
X0028509Y0065594D01*
X0028509Y0066940D01*
X0027994Y0068184D01*
X0027042Y0069136D01*
X0025798Y0069651D01*
X0024452Y0069651D01*
X0023208Y0069136D01*
X0022256Y0068184D01*
X0021741Y0066913D02*
X0016302Y0066913D01*
X0012688Y0066913D02*
X0011455Y0066913D01*
X0011455Y0065514D02*
X0021774Y0065514D01*
X0022490Y0064116D02*
X0011455Y0064116D01*
X0011455Y0062717D02*
X0157792Y0062717D01*
X0156393Y0061319D02*
X0011455Y0061319D01*
X0011455Y0059920D02*
X0133537Y0059920D01*
X0132759Y0058522D02*
X0011455Y0058522D01*
X0011455Y0057123D02*
X0132768Y0057123D01*
X0133559Y0055725D02*
X0011455Y0055725D01*
X0011455Y0045935D02*
X0011509Y0045935D01*
X0028639Y0031950D02*
X0058820Y0031950D01*
X0059716Y0036146D02*
X0125167Y0036146D01*
X0126566Y0037544D02*
X0058317Y0037544D01*
X0056919Y0038943D02*
X0164097Y0038943D01*
X0164330Y0040341D02*
X0055520Y0040341D01*
X0054122Y0041740D02*
X0134234Y0041740D01*
X0137644Y0041740D02*
X0165394Y0041740D01*
X0166648Y0043138D02*
X0148719Y0043138D01*
X0149310Y0044537D02*
X0165665Y0044537D01*
X0165490Y0045935D02*
X0149180Y0045935D01*
X0148261Y0047334D02*
X0165972Y0047334D01*
X0169187Y0048732D02*
X0148026Y0048732D01*
X0148092Y0050131D02*
X0170585Y0050131D01*
X0170974Y0051529D02*
X0149110Y0051529D01*
X0149310Y0052928D02*
X0170974Y0052928D01*
X0170974Y0054326D02*
X0148860Y0054326D01*
X0148225Y0055725D02*
X0170974Y0055725D01*
X0170974Y0057123D02*
X0158137Y0057123D01*
X0159536Y0058522D02*
X0170974Y0058522D01*
X0170974Y0059920D02*
X0160934Y0059920D01*
X0162333Y0061319D02*
X0170974Y0061319D01*
X0170974Y0062717D02*
X0163731Y0062717D01*
X0165130Y0064116D02*
X0170974Y0064116D01*
X0170974Y0065514D02*
X0166528Y0065514D01*
X0167927Y0066913D02*
X0170974Y0066913D01*
X0170974Y0068311D02*
X0169325Y0068311D01*
X0169916Y0069710D02*
X0170974Y0069710D01*
X0170974Y0071109D02*
X0169916Y0071109D01*
X0169916Y0072507D02*
X0170974Y0072507D01*
X0170974Y0073906D02*
X0169916Y0073906D01*
X0163970Y0075304D02*
X0163908Y0075304D01*
X0163386Y0068311D02*
X0027867Y0068311D01*
X0028509Y0066913D02*
X0161987Y0066913D01*
X0160589Y0065514D02*
X0028477Y0065514D01*
X0027760Y0064116D02*
X0159190Y0064116D01*
X0144360Y0050131D02*
X0115588Y0050131D01*
X0116036Y0048732D02*
X0144426Y0048732D01*
X0144191Y0047334D02*
X0136848Y0047334D01*
X0135030Y0047334D02*
X0116600Y0047334D01*
X0114306Y0044537D02*
X0051325Y0044537D01*
X0049926Y0045935D02*
X0111091Y0045935D01*
X0110070Y0047334D02*
X0048528Y0047334D01*
X0052723Y0043138D02*
X0115704Y0043138D01*
X0123769Y0034747D02*
X0089181Y0034747D01*
X0090580Y0033349D02*
X0122370Y0033349D01*
X0120972Y0031950D02*
X0091978Y0031950D01*
X0093377Y0030552D02*
X0120931Y0030552D01*
X0120931Y0029153D02*
X0094775Y0029153D01*
X0092481Y0026356D02*
X0086865Y0026356D01*
X0086865Y0024958D02*
X0093880Y0024958D01*
X0093918Y0024919D02*
X0112171Y0024919D01*
X0111502Y0024433D01*
X0110901Y0023832D01*
X0110402Y0023144D01*
X0110016Y0022387D01*
X0109753Y0021579D01*
X0109620Y0020739D01*
X0109620Y0020614D01*
X0114720Y0020614D01*
X0114720Y0020014D01*
X0115320Y0020014D01*
X0115320Y0020614D01*
X0120420Y0020614D01*
X0124720Y0020614D01*
X0124720Y0020014D01*
X0125320Y0020014D01*
X0125320Y0014914D01*
X0125445Y0014914D01*
X0126285Y0015047D01*
X0127093Y0015310D01*
X0127850Y0015696D01*
X0128538Y0016195D01*
X0129139Y0016796D01*
X0129638Y0017484D01*
X0130024Y0018241D01*
X0130171Y0018693D01*
X0130696Y0017425D01*
X0132131Y0015990D01*
X0134006Y0015214D01*
X0136034Y0015214D01*
X0137909Y0015990D01*
X0139344Y0017425D01*
X0140020Y0019058D01*
X0140696Y0017425D01*
X0142131Y0015990D01*
X0144006Y0015214D01*
X0146034Y0015214D01*
X0147909Y0015990D01*
X0149344Y0017425D01*
X0150020Y0019058D01*
X0150696Y0017425D01*
X0152131Y0015990D01*
X0154006Y0015214D01*
X0156034Y0015214D01*
X0157909Y0015990D01*
X0159344Y0017425D01*
X0160020Y0019058D01*
X0160696Y0017425D01*
X0162131Y0015990D01*
X0164006Y0015214D01*
X0166034Y0015214D01*
X0167909Y0015990D01*
X0169344Y0017425D01*
X0169417Y0017603D01*
X0170136Y0016884D01*
X0175232Y0016884D01*
X0176053Y0017704D01*
X0176053Y0023195D01*
X0175451Y0023796D01*
X0176053Y0024397D01*
X0176053Y0028005D01*
X0179030Y0031040D01*
X0179483Y0031413D01*
X0180615Y0031413D01*
X0181413Y0032211D01*
X0182211Y0031413D01*
X0186312Y0031413D01*
X0184409Y0029510D01*
X0183283Y0026793D01*
X0183283Y0023852D01*
X0184409Y0021134D01*
X0186489Y0019055D01*
X0189206Y0017929D01*
X0192147Y0017929D01*
X0194864Y0019055D01*
X0196944Y0021134D01*
X0198069Y0023852D01*
X0198069Y0026793D01*
X0196944Y0029510D01*
X0194864Y0031589D01*
X0192147Y0032715D01*
X0189206Y0032715D01*
X0188128Y0032268D01*
X0188128Y0037723D01*
X0187308Y0038543D01*
X0186605Y0038543D01*
X0186605Y0038839D01*
X0186533Y0038912D01*
X0186524Y0039014D01*
X0185927Y0039517D01*
X0184559Y0040886D01*
X0184559Y0041850D01*
X0184060Y0043056D01*
X0183137Y0043979D01*
X0181931Y0044478D01*
X0180625Y0044478D01*
X0179419Y0043979D01*
X0178496Y0043056D01*
X0177997Y0041850D01*
X0177997Y0040544D01*
X0178496Y0039338D01*
X0179291Y0038543D01*
X0176702Y0038543D01*
X0177058Y0038913D01*
X0177574Y0039428D01*
X0177574Y0039447D01*
X0177587Y0039461D01*
X0177574Y0040190D01*
X0177574Y0076320D01*
X0176520Y0077374D01*
X0151128Y0102766D01*
X0151147Y0102758D01*
X0152499Y0102758D01*
X0153749Y0103276D01*
X0154323Y0103850D01*
X0154897Y0103276D01*
X0156147Y0102758D01*
X0157499Y0102758D01*
X0158749Y0103276D01*
X0159323Y0103850D01*
X0159897Y0103276D01*
X0161147Y0102758D01*
X0162499Y0102758D01*
X0163749Y0103276D01*
X0164323Y0103850D01*
X0164897Y0103276D01*
X0166147Y0102758D01*
X0167499Y0102758D01*
X0168749Y0103276D01*
X0169323Y0103850D01*
X0169897Y0103276D01*
X0171147Y0102758D01*
X0172499Y0102758D01*
X0173749Y0103276D01*
X0174111Y0103638D01*
X0174464Y0103284D01*
X0175070Y0102879D01*
X0175744Y0102600D01*
X0176459Y0102458D01*
X0176823Y0102458D01*
X0176823Y0110158D01*
X0176820Y0110161D01*
X0176820Y0113670D01*
X0168311Y0122179D01*
X0163739Y0122179D01*
X0160869Y0118658D02*
X0201898Y0118658D01*
X0201417Y0118535D02*
X0201898Y0118054D01*
X0201898Y0119366D01*
X0201417Y0118885D01*
X0186084Y0118885D01*
X0185264Y0119705D01*
X0185264Y0123889D01*
X0183186Y0125967D01*
X0182132Y0127021D01*
X0182132Y0133752D01*
X0175312Y0140572D01*
X0148858Y0140572D01*
X0148858Y0139761D01*
X0148389Y0138627D01*
X0147521Y0137759D01*
X0146388Y0137290D01*
X0145161Y0137290D01*
X0144027Y0137759D01*
X0143182Y0138604D01*
X0143182Y0136345D01*
X0166021Y0113506D01*
X0166147Y0113558D01*
X0167499Y0113558D01*
X0168749Y0113040D01*
X0169323Y0112466D01*
X0169897Y0113040D01*
X0171147Y0113558D01*
X0172499Y0113558D01*
X0173749Y0113040D01*
X0174111Y0112678D01*
X0174464Y0113032D01*
X0175070Y0113437D01*
X0175744Y0113716D01*
X0176459Y0113858D01*
X0176823Y0113858D01*
X0176823Y0110158D01*
X0176823Y0110158D01*
X0176823Y0102458D01*
X0177187Y0102458D01*
X0177902Y0102600D01*
X0178576Y0102879D01*
X0179182Y0103284D01*
X0179535Y0103638D01*
X0179768Y0103405D01*
X0179768Y0101315D01*
X0180098Y0100985D01*
X0174942Y0095829D01*
X0174907Y0095843D01*
X0173680Y0095843D01*
X0172546Y0095374D01*
X0171678Y0094506D01*
X0171209Y0093373D01*
X0171209Y0092146D01*
X0171678Y0091012D01*
X0172546Y0090144D01*
X0173680Y0089675D01*
X0174907Y0089675D01*
X0176040Y0090144D01*
X0176908Y0091012D01*
X0177377Y0092146D01*
X0177377Y0092324D01*
X0183938Y0098885D01*
X0202538Y0098885D01*
X0203768Y0100115D01*
X0204543Y0100890D01*
X0204543Y0025322D01*
X0204425Y0023512D01*
X0203488Y0020015D01*
X0201678Y0016880D01*
X0199118Y0014321D01*
X0195983Y0012511D01*
X0192486Y0011574D01*
X0190676Y0011455D01*
X0086865Y0011455D01*
X0086865Y0031396D01*
X0087441Y0031396D01*
X0093918Y0024919D01*
X0091083Y0027755D02*
X0086865Y0027755D01*
X0086865Y0029153D02*
X0089684Y0029153D01*
X0088286Y0030552D02*
X0086865Y0030552D01*
X0086865Y0023559D02*
X0110703Y0023559D01*
X0109942Y0022161D02*
X0086865Y0022161D01*
X0086865Y0020762D02*
X0109624Y0020762D01*
X0109620Y0020014D02*
X0109620Y0019889D01*
X0109753Y0019049D01*
X0110016Y0018241D01*
X0110402Y0017484D01*
X0110901Y0016796D01*
X0111502Y0016195D01*
X0112190Y0015696D01*
X0112947Y0015310D01*
X0113755Y0015047D01*
X0114595Y0014914D01*
X0114720Y0014914D01*
X0114720Y0020014D01*
X0109620Y0020014D01*
X0109703Y0019364D02*
X0086865Y0019364D01*
X0086865Y0017965D02*
X0110156Y0017965D01*
X0111131Y0016567D02*
X0086865Y0016567D01*
X0086865Y0015168D02*
X0113383Y0015168D01*
X0114720Y0015168D02*
X0115320Y0015168D01*
X0115320Y0014914D02*
X0115445Y0014914D01*
X0116285Y0015047D01*
X0117093Y0015310D01*
X0117850Y0015696D01*
X0118538Y0016195D01*
X0119139Y0016796D01*
X0119638Y0017484D01*
X0120020Y0018233D01*
X0120402Y0017484D01*
X0120901Y0016796D01*
X0121502Y0016195D01*
X0122190Y0015696D01*
X0122947Y0015310D01*
X0123755Y0015047D01*
X0124595Y0014914D01*
X0124720Y0014914D01*
X0124720Y0020014D01*
X0115320Y0020014D01*
X0115320Y0014914D01*
X0116657Y0015168D02*
X0123383Y0015168D01*
X0124720Y0015168D02*
X0125320Y0015168D01*
X0126657Y0015168D02*
X0199965Y0015168D01*
X0201364Y0016567D02*
X0168485Y0016567D01*
X0176053Y0017965D02*
X0189119Y0017965D01*
X0192234Y0017965D02*
X0202304Y0017965D01*
X0203111Y0019364D02*
X0195173Y0019364D01*
X0196572Y0020762D02*
X0203688Y0020762D01*
X0204063Y0022161D02*
X0197369Y0022161D01*
X0197948Y0023559D02*
X0204428Y0023559D01*
X0204519Y0024958D02*
X0198069Y0024958D01*
X0198069Y0026356D02*
X0204543Y0026356D01*
X0204543Y0027755D02*
X0197671Y0027755D01*
X0197091Y0029153D02*
X0204543Y0029153D01*
X0204543Y0030552D02*
X0195902Y0030552D01*
X0193993Y0031950D02*
X0204543Y0031950D01*
X0204543Y0033349D02*
X0188128Y0033349D01*
X0188128Y0034747D02*
X0204543Y0034747D01*
X0204543Y0036146D02*
X0188128Y0036146D01*
X0188128Y0037544D02*
X0204543Y0037544D01*
X0204543Y0038943D02*
X0186530Y0038943D01*
X0185104Y0040341D02*
X0204543Y0040341D01*
X0204543Y0041740D02*
X0184559Y0041740D01*
X0183977Y0043138D02*
X0204543Y0043138D01*
X0204543Y0044537D02*
X0177574Y0044537D01*
X0177574Y0045935D02*
X0204543Y0045935D01*
X0204543Y0047334D02*
X0177574Y0047334D01*
X0177574Y0048732D02*
X0204543Y0048732D01*
X0204543Y0050131D02*
X0177574Y0050131D01*
X0177574Y0051529D02*
X0204543Y0051529D01*
X0204543Y0052928D02*
X0177574Y0052928D01*
X0177574Y0054326D02*
X0204543Y0054326D01*
X0204543Y0055725D02*
X0177574Y0055725D01*
X0177574Y0057123D02*
X0204543Y0057123D01*
X0204543Y0058522D02*
X0177574Y0058522D01*
X0177574Y0059920D02*
X0204543Y0059920D01*
X0204543Y0061319D02*
X0177574Y0061319D01*
X0177574Y0062717D02*
X0204543Y0062717D01*
X0204543Y0064116D02*
X0177574Y0064116D01*
X0177574Y0065514D02*
X0204543Y0065514D01*
X0204543Y0066913D02*
X0177574Y0066913D01*
X0177574Y0068311D02*
X0204543Y0068311D01*
X0204543Y0069710D02*
X0177574Y0069710D01*
X0177574Y0071109D02*
X0204543Y0071109D01*
X0204543Y0072507D02*
X0177574Y0072507D01*
X0177574Y0073906D02*
X0204543Y0073906D01*
X0204543Y0075304D02*
X0177574Y0075304D01*
X0177191Y0076703D02*
X0204543Y0076703D01*
X0204543Y0078101D02*
X0175793Y0078101D01*
X0174394Y0079500D02*
X0204543Y0079500D01*
X0204543Y0080898D02*
X0172996Y0080898D01*
X0171597Y0082297D02*
X0204543Y0082297D01*
X0204543Y0083695D02*
X0170198Y0083695D01*
X0168800Y0085094D02*
X0204543Y0085094D01*
X0204543Y0086492D02*
X0167401Y0086492D01*
X0166003Y0087891D02*
X0204543Y0087891D01*
X0204543Y0089289D02*
X0164604Y0089289D01*
X0163206Y0090688D02*
X0172003Y0090688D01*
X0171233Y0092086D02*
X0161807Y0092086D01*
X0160409Y0093485D02*
X0171255Y0093485D01*
X0172055Y0094883D02*
X0159010Y0094883D01*
X0157612Y0096282D02*
X0175395Y0096282D01*
X0176793Y0097680D02*
X0156213Y0097680D01*
X0154815Y0099079D02*
X0178192Y0099079D01*
X0179590Y0100477D02*
X0153416Y0100477D01*
X0152018Y0101876D02*
X0179768Y0101876D01*
X0179768Y0103274D02*
X0179167Y0103274D01*
X0176823Y0103274D02*
X0176823Y0103274D01*
X0176823Y0104673D02*
X0176823Y0104673D01*
X0176823Y0106071D02*
X0176823Y0106071D01*
X0176823Y0107470D02*
X0176823Y0107470D01*
X0176823Y0108868D02*
X0176823Y0108868D01*
X0176823Y0110158D02*
X0176823Y0110158D01*
X0176823Y0113858D01*
X0177187Y0113858D01*
X0177902Y0113716D01*
X0178576Y0113437D01*
X0179182Y0113032D01*
X0179535Y0112678D01*
X0179897Y0113040D01*
X0181147Y0113558D01*
X0182499Y0113558D01*
X0183749Y0113040D01*
X0184705Y0112084D01*
X0185223Y0110834D01*
X0185223Y0105482D01*
X0184705Y0104232D01*
X0183968Y0103495D01*
X0183968Y0103085D01*
X0200798Y0103085D01*
X0200850Y0103137D01*
X0186084Y0103137D01*
X0185264Y0103957D01*
X0185264Y0109841D01*
X0186084Y0110661D01*
X0201417Y0110661D01*
X0201898Y0110180D01*
X0201898Y0111492D01*
X0201417Y0111011D01*
X0186084Y0111011D01*
X0185264Y0111831D01*
X0185264Y0117715D01*
X0186084Y0118535D01*
X0201417Y0118535D01*
X0201811Y0110267D02*
X0201898Y0110267D01*
X0203998Y0103315D02*
X0201668Y0100985D01*
X0183068Y0100985D01*
X0174842Y0092759D01*
X0174293Y0092759D01*
X0176583Y0090688D02*
X0204543Y0090688D01*
X0204543Y0092086D02*
X0177353Y0092086D01*
X0178538Y0093485D02*
X0204543Y0093485D01*
X0204543Y0094883D02*
X0179936Y0094883D01*
X0181335Y0096282D02*
X0204543Y0096282D01*
X0204543Y0097680D02*
X0182733Y0097680D01*
X0183068Y0100985D02*
X0181868Y0102185D01*
X0181868Y0110113D01*
X0181823Y0110158D01*
X0185223Y0110267D02*
X0185690Y0110267D01*
X0185429Y0111665D02*
X0184879Y0111665D01*
X0185264Y0113064D02*
X0183692Y0113064D01*
X0185264Y0114462D02*
X0165064Y0114462D01*
X0163666Y0115861D02*
X0185264Y0115861D01*
X0185264Y0117259D02*
X0162267Y0117259D01*
X0159470Y0120056D02*
X0185264Y0120056D01*
X0185264Y0121455D02*
X0158072Y0121455D01*
X0156673Y0122853D02*
X0185264Y0122853D01*
X0184902Y0124252D02*
X0155275Y0124252D01*
X0153876Y0125650D02*
X0183503Y0125650D01*
X0182132Y0127049D02*
X0152478Y0127049D01*
X0151079Y0128447D02*
X0182132Y0128447D01*
X0182132Y0129846D02*
X0149681Y0129846D01*
X0148282Y0131245D02*
X0182132Y0131245D01*
X0182132Y0132643D02*
X0146884Y0132643D01*
X0145485Y0134042D02*
X0181843Y0134042D01*
X0180444Y0135440D02*
X0144087Y0135440D01*
X0143182Y0136839D02*
X0179046Y0136839D01*
X0177647Y0138237D02*
X0147999Y0138237D01*
X0148806Y0139636D02*
X0176249Y0139636D01*
X0178543Y0142433D02*
X0201874Y0142433D01*
X0201417Y0142507D02*
X0201874Y0142964D01*
X0201874Y0141700D01*
X0201417Y0142157D01*
X0186084Y0142157D01*
X0185264Y0141337D01*
X0185264Y0135712D01*
X0184678Y0136298D01*
X0184678Y0136298D01*
X0177858Y0143118D01*
X0176804Y0144172D01*
X0147026Y0144172D01*
X0146313Y0143458D01*
X0145161Y0143458D01*
X0144027Y0142989D01*
X0143159Y0142121D01*
X0142936Y0141583D01*
X0142362Y0142157D01*
X0127029Y0142157D01*
X0126209Y0141337D01*
X0126209Y0135453D01*
X0127029Y0134633D01*
X0139803Y0134633D01*
X0140152Y0134283D01*
X0127029Y0134283D01*
X0126209Y0133463D01*
X0126209Y0132278D01*
X0120810Y0132278D01*
X0110505Y0142583D01*
X0110505Y0147366D01*
X0111594Y0147817D01*
X0113029Y0149252D01*
X0113705Y0150885D01*
X0114381Y0149252D01*
X0115816Y0147817D01*
X0117691Y0147041D01*
X0119719Y0147041D01*
X0121594Y0147817D01*
X0123029Y0149252D01*
X0123805Y0151127D01*
X0123805Y0153155D01*
X0123029Y0155030D01*
X0121594Y0156465D01*
X0120326Y0156990D01*
X0120778Y0157137D01*
X0121535Y0157523D01*
X0122223Y0158022D01*
X0122824Y0158623D01*
X0123323Y0159311D01*
X0123709Y0160068D01*
X0123972Y0160877D01*
X0124105Y0161716D01*
X0124105Y0161841D01*
X0119005Y0161841D01*
X0119005Y0162441D01*
X0118405Y0162441D01*
X0118405Y0167541D01*
X0118280Y0167541D01*
X0117441Y0167408D01*
X0116632Y0167145D01*
X0115875Y0166759D01*
X0115187Y0166260D01*
X0114586Y0165659D01*
X0114087Y0164971D01*
X0113701Y0164214D01*
X0113554Y0163762D01*
X0113029Y0165030D01*
X0111594Y0166465D01*
X0109719Y0167241D01*
X0107691Y0167241D01*
X0105816Y0166465D01*
X0104381Y0165030D01*
X0103705Y0163397D01*
X0103029Y0165030D01*
X0101594Y0166465D01*
X0100805Y0166791D01*
X0100805Y0169835D01*
X0110644Y0179674D01*
X0136444Y0179674D01*
X0138244Y0181474D01*
X0149044Y0181474D01*
X0152974Y0185404D01*
X0157504Y0180874D01*
X0188704Y0180874D01*
X0201874Y0167704D01*
X0201874Y0165322D01*
X0201417Y0165779D01*
X0186084Y0165779D01*
X0185264Y0164959D01*
X0185264Y0159075D01*
X0186084Y0158255D01*
X0201417Y0158255D01*
X0201874Y0158712D01*
X0201874Y0157870D01*
X0201493Y0158089D01*
X0201061Y0158205D01*
X0194232Y0158205D01*
X0194232Y0154624D01*
X0193269Y0154624D01*
X0193269Y0153662D01*
X0184964Y0153662D01*
X0184964Y0151557D01*
X0185080Y0151125D01*
X0185304Y0150737D01*
X0185620Y0150421D01*
X0186008Y0150197D01*
X0186440Y0150081D01*
X0193269Y0150081D01*
X0193269Y0153662D01*
X0194232Y0153662D01*
X0194232Y0150081D01*
X0201061Y0150081D01*
X0201493Y0150197D01*
X0201874Y0150416D01*
X0201874Y0149574D01*
X0201417Y0150031D01*
X0186084Y0150031D01*
X0185264Y0149211D01*
X0185264Y0143327D01*
X0186084Y0142507D01*
X0201417Y0142507D01*
X0203974Y0131974D02*
X0203974Y0169174D01*
X0203374Y0169174D01*
X0189574Y0182974D01*
X0158374Y0182974D01*
X0152374Y0188974D01*
X0152374Y0197374D01*
X0149373Y0200375D01*
X0143178Y0200375D01*
X0119556Y0200375D01*
X0095934Y0200375D01*
X0095887Y0200328D01*
X0084631Y0200328D01*
X0061771Y0177468D01*
X0061771Y0159688D01*
X0061771Y0145288D01*
X0061647Y0145262D01*
X0063261Y0141034D02*
X0011455Y0141034D01*
X0011455Y0139636D02*
X0061863Y0139636D01*
X0059163Y0138237D02*
X0011455Y0138237D01*
X0011455Y0136839D02*
X0057947Y0136839D01*
X0057671Y0135440D02*
X0011455Y0135440D01*
X0011455Y0134042D02*
X0058045Y0134042D01*
X0059734Y0132643D02*
X0011455Y0132643D01*
X0011455Y0131245D02*
X0064324Y0131245D01*
X0064065Y0132643D02*
X0061777Y0132643D01*
X0063465Y0134042D02*
X0064065Y0134042D01*
X0064065Y0135440D02*
X0063839Y0135440D01*
X0060755Y0135558D02*
X0067280Y0142083D01*
X0075465Y0142083D01*
X0087148Y0129846D02*
X0011455Y0129846D01*
X0011455Y0128447D02*
X0088502Y0128447D01*
X0089856Y0127049D02*
X0011455Y0127049D01*
X0011455Y0125650D02*
X0011894Y0125650D01*
X0017097Y0125650D02*
X0091210Y0125650D01*
X0092564Y0124252D02*
X0018322Y0124252D01*
X0018864Y0122853D02*
X0093919Y0122853D01*
X0095273Y0121455D02*
X0018864Y0121455D01*
X0018388Y0120056D02*
X0022948Y0120056D01*
X0023208Y0120317D02*
X0022256Y0119365D01*
X0021741Y0118121D01*
X0021741Y0116775D01*
X0022256Y0115531D01*
X0023208Y0114579D01*
X0024452Y0114064D01*
X0025798Y0114064D01*
X0027042Y0114579D01*
X0027994Y0115531D01*
X0028509Y0116775D01*
X0028509Y0118121D01*
X0027994Y0119365D01*
X0027042Y0120317D01*
X0025798Y0120832D01*
X0024452Y0120832D01*
X0023208Y0120317D01*
X0021963Y0118658D02*
X0017257Y0118658D01*
X0021741Y0117259D02*
X0011455Y0117259D01*
X0011455Y0115861D02*
X0022120Y0115861D01*
X0023490Y0114462D02*
X0011455Y0114462D01*
X0011455Y0113064D02*
X0103397Y0113064D01*
X0102043Y0114462D02*
X0026761Y0114462D01*
X0028131Y0115861D02*
X0100689Y0115861D01*
X0099335Y0117259D02*
X0028509Y0117259D01*
X0028287Y0118658D02*
X0097981Y0118658D01*
X0096627Y0120056D02*
X0027303Y0120056D01*
X0011733Y0118658D02*
X0011455Y0118658D01*
X0011455Y0111665D02*
X0104752Y0111665D01*
X0106106Y0110267D02*
X0011455Y0110267D01*
X0011455Y0108868D02*
X0107460Y0108868D01*
X0108814Y0107470D02*
X0011455Y0107470D01*
X0011455Y0106071D02*
X0110168Y0106071D01*
X0111522Y0104673D02*
X0011455Y0104673D01*
X0011455Y0103274D02*
X0112876Y0103274D01*
X0114230Y0101876D02*
X0025941Y0101876D01*
X0025798Y0101935D02*
X0027042Y0101419D01*
X0027994Y0100467D01*
X0028509Y0099224D01*
X0028509Y0097877D01*
X0027994Y0096633D01*
X0027042Y0095681D01*
X0025798Y0095166D01*
X0024452Y0095166D01*
X0023208Y0095681D01*
X0022256Y0096633D01*
X0021741Y0097877D01*
X0021741Y0099224D01*
X0022256Y0100467D01*
X0023208Y0101419D01*
X0024452Y0101935D01*
X0025798Y0101935D01*
X0024310Y0101876D02*
X0011455Y0101876D01*
X0011455Y0100477D02*
X0022266Y0100477D01*
X0021741Y0099079D02*
X0011455Y0099079D01*
X0011455Y0097680D02*
X0012147Y0097680D01*
X0016843Y0097680D02*
X0021823Y0097680D01*
X0022608Y0096282D02*
X0018247Y0096282D01*
X0018827Y0094883D02*
X0121001Y0094883D01*
X0122355Y0093485D02*
X0018864Y0093485D01*
X0018462Y0092086D02*
X0123709Y0092086D01*
X0119647Y0096282D02*
X0027643Y0096282D01*
X0028428Y0097680D02*
X0118293Y0097680D01*
X0116939Y0099079D02*
X0028509Y0099079D01*
X0027984Y0100477D02*
X0115584Y0100477D01*
X0121824Y0107470D02*
X0125909Y0107470D01*
X0125909Y0107380D02*
X0134214Y0107380D01*
X0134214Y0106418D01*
X0125909Y0106418D01*
X0125909Y0104313D01*
X0126025Y0103881D01*
X0126248Y0103493D01*
X0126565Y0103176D01*
X0126953Y0102953D01*
X0127385Y0102837D01*
X0134214Y0102837D01*
X0134214Y0106418D01*
X0135177Y0106418D01*
X0135177Y0102837D01*
X0142006Y0102837D01*
X0142438Y0102953D01*
X0142826Y0103176D01*
X0143142Y0103493D01*
X0143366Y0103881D01*
X0143482Y0104313D01*
X0143482Y0105339D01*
X0143941Y0104232D01*
X0144897Y0103276D01*
X0145972Y0102830D01*
X0148628Y0100174D01*
X0129120Y0100174D01*
X0094774Y0134520D01*
X0094774Y0148860D01*
X0095816Y0147817D01*
X0096905Y0147366D01*
X0096905Y0133438D01*
X0116359Y0113984D01*
X0117413Y0112930D01*
X0126209Y0112930D01*
X0126209Y0111831D01*
X0127029Y0111011D01*
X0142362Y0111011D01*
X0143182Y0111831D01*
X0143182Y0112973D01*
X0144830Y0112973D01*
X0143941Y0112084D01*
X0143423Y0110834D01*
X0143423Y0109705D01*
X0143366Y0109917D01*
X0143142Y0110305D01*
X0142826Y0110622D01*
X0142438Y0110845D01*
X0142006Y0110961D01*
X0135177Y0110961D01*
X0135177Y0107380D01*
X0134214Y0107380D01*
X0134214Y0110961D01*
X0127385Y0110961D01*
X0126953Y0110845D01*
X0126565Y0110622D01*
X0126248Y0110305D01*
X0126025Y0109917D01*
X0125909Y0109485D01*
X0125909Y0107380D01*
X0125909Y0106071D02*
X0123222Y0106071D01*
X0124621Y0104673D02*
X0125909Y0104673D01*
X0126019Y0103274D02*
X0126467Y0103274D01*
X0127418Y0101876D02*
X0146927Y0101876D01*
X0148325Y0100477D02*
X0128816Y0100477D01*
X0131748Y0101649D02*
X0134695Y0104596D01*
X0134695Y0106899D01*
X0134214Y0107470D02*
X0135177Y0107470D01*
X0135177Y0108868D02*
X0134214Y0108868D01*
X0134214Y0110267D02*
X0135177Y0110267D01*
X0135177Y0106071D02*
X0134214Y0106071D01*
X0134214Y0104673D02*
X0135177Y0104673D01*
X0135177Y0103274D02*
X0134214Y0103274D01*
X0142924Y0103274D02*
X0144900Y0103274D01*
X0143758Y0104673D02*
X0143482Y0104673D01*
X0143423Y0110267D02*
X0143164Y0110267D01*
X0143017Y0111665D02*
X0143767Y0111665D01*
X0153746Y0103274D02*
X0154900Y0103274D01*
X0158746Y0103274D02*
X0159900Y0103274D01*
X0163746Y0103274D02*
X0164900Y0103274D01*
X0168746Y0103274D02*
X0169900Y0103274D01*
X0173746Y0103274D02*
X0174479Y0103274D01*
X0176823Y0110267D02*
X0176823Y0110267D01*
X0176823Y0111665D02*
X0176823Y0111665D01*
X0176823Y0113064D02*
X0176823Y0113064D01*
X0174512Y0113064D02*
X0173692Y0113064D01*
X0169954Y0113064D02*
X0168692Y0113064D01*
X0179134Y0113064D02*
X0179954Y0113064D01*
X0185223Y0108868D02*
X0185264Y0108868D01*
X0185223Y0107470D02*
X0185264Y0107470D01*
X0185223Y0106071D02*
X0185264Y0106071D01*
X0185264Y0104673D02*
X0184888Y0104673D01*
X0183968Y0103274D02*
X0185947Y0103274D01*
X0202732Y0099079D02*
X0204543Y0099079D01*
X0204543Y0100477D02*
X0204130Y0100477D01*
X0203998Y0103315D02*
X0203998Y0126751D01*
X0200228Y0130521D01*
X0193751Y0130521D01*
X0202521Y0130521D01*
X0203974Y0131974D01*
X0194232Y0150824D02*
X0193269Y0150824D01*
X0193269Y0152222D02*
X0194232Y0152222D01*
X0194232Y0153621D02*
X0193269Y0153621D01*
X0193269Y0154624D02*
X0184964Y0154624D01*
X0184964Y0156729D01*
X0185080Y0157161D01*
X0185304Y0157549D01*
X0185620Y0157866D01*
X0186008Y0158089D01*
X0186440Y0158205D01*
X0193269Y0158205D01*
X0193269Y0154624D01*
X0193269Y0155019D02*
X0194232Y0155019D01*
X0194232Y0156418D02*
X0193269Y0156418D01*
X0193269Y0157816D02*
X0194232Y0157816D01*
X0185571Y0157816D02*
X0142451Y0157816D01*
X0142362Y0157905D02*
X0127029Y0157905D01*
X0126209Y0157085D01*
X0126209Y0151201D01*
X0127029Y0150381D01*
X0142362Y0150381D01*
X0143182Y0151201D01*
X0143182Y0157085D01*
X0142362Y0157905D01*
X0142438Y0158071D02*
X0142826Y0158295D01*
X0143142Y0158611D01*
X0143366Y0158999D01*
X0143482Y0159431D01*
X0143482Y0161536D01*
X0135177Y0161536D01*
X0135177Y0162498D01*
X0143482Y0162498D01*
X0143482Y0164603D01*
X0143366Y0165035D01*
X0143142Y0165423D01*
X0142826Y0165740D01*
X0142438Y0165963D01*
X0142006Y0166079D01*
X0135177Y0166079D01*
X0135177Y0162498D01*
X0134214Y0162498D01*
X0134214Y0161536D01*
X0125909Y0161536D01*
X0125909Y0159431D01*
X0126025Y0158999D01*
X0126248Y0158611D01*
X0126565Y0158295D01*
X0126953Y0158071D01*
X0127385Y0157955D01*
X0134214Y0157955D01*
X0134214Y0161536D01*
X0135177Y0161536D01*
X0135177Y0157955D01*
X0142006Y0157955D01*
X0142438Y0158071D01*
X0143424Y0159215D02*
X0185264Y0159215D01*
X0185264Y0160613D02*
X0143482Y0160613D01*
X0143182Y0156418D02*
X0184964Y0156418D01*
X0184964Y0155019D02*
X0143182Y0155019D01*
X0143182Y0153621D02*
X0184964Y0153621D01*
X0184964Y0152222D02*
X0143182Y0152222D01*
X0142805Y0150824D02*
X0185254Y0150824D01*
X0185478Y0149425D02*
X0142968Y0149425D01*
X0143182Y0149211D02*
X0142362Y0150031D01*
X0127029Y0150031D01*
X0126209Y0149211D01*
X0126209Y0143327D01*
X0127029Y0142507D01*
X0142362Y0142507D01*
X0143182Y0143327D01*
X0143182Y0149211D01*
X0143182Y0148027D02*
X0185264Y0148027D01*
X0185264Y0146628D02*
X0143182Y0146628D01*
X0143182Y0145230D02*
X0185264Y0145230D01*
X0185264Y0143831D02*
X0177145Y0143831D01*
X0177858Y0143118D02*
X0177858Y0143118D01*
X0179942Y0141034D02*
X0185264Y0141034D01*
X0185264Y0139636D02*
X0181340Y0139636D01*
X0182739Y0138237D02*
X0185264Y0138237D01*
X0185264Y0136839D02*
X0184137Y0136839D01*
X0185264Y0162012D02*
X0135177Y0162012D01*
X0134214Y0162012D02*
X0119005Y0162012D01*
X0119005Y0162441D02*
X0124105Y0162441D01*
X0124105Y0162566D01*
X0123972Y0163406D01*
X0123709Y0164214D01*
X0123323Y0164971D01*
X0122824Y0165659D01*
X0122223Y0166260D01*
X0121535Y0166759D01*
X0120778Y0167145D01*
X0119970Y0167408D01*
X0119130Y0167541D01*
X0119005Y0167541D01*
X0119005Y0162441D01*
X0119005Y0163410D02*
X0118405Y0163410D01*
X0118405Y0164809D02*
X0119005Y0164809D01*
X0119005Y0166207D02*
X0118405Y0166207D01*
X0115135Y0166207D02*
X0111851Y0166207D01*
X0113120Y0164809D02*
X0114004Y0164809D01*
X0122275Y0166207D02*
X0201874Y0166207D01*
X0201874Y0167606D02*
X0100805Y0167606D01*
X0100805Y0169004D02*
X0200574Y0169004D01*
X0199175Y0170403D02*
X0101373Y0170403D01*
X0102771Y0171801D02*
X0197777Y0171801D01*
X0196378Y0173200D02*
X0104170Y0173200D01*
X0105568Y0174598D02*
X0194980Y0174598D01*
X0193581Y0175997D02*
X0106967Y0175997D01*
X0108365Y0177395D02*
X0192183Y0177395D01*
X0190784Y0178794D02*
X0109764Y0178794D01*
X0109774Y0181774D02*
X0135574Y0181774D01*
X0137374Y0183574D01*
X0148174Y0183574D01*
X0152374Y0187774D01*
X0152374Y0188974D01*
X0151958Y0184388D02*
X0153990Y0184388D01*
X0155389Y0182989D02*
X0150559Y0182989D01*
X0149161Y0181591D02*
X0156787Y0181591D01*
X0143427Y0164809D02*
X0185264Y0164809D01*
X0185264Y0163410D02*
X0143482Y0163410D01*
X0135177Y0163410D02*
X0134214Y0163410D01*
X0134214Y0162498D02*
X0134214Y0166079D01*
X0127385Y0166079D01*
X0126953Y0165963D01*
X0126565Y0165740D01*
X0126248Y0165423D01*
X0126025Y0165035D01*
X0125909Y0164603D01*
X0125909Y0162498D01*
X0134214Y0162498D01*
X0134214Y0160613D02*
X0135177Y0160613D01*
X0135177Y0159215D02*
X0134214Y0159215D01*
X0134214Y0164809D02*
X0135177Y0164809D01*
X0125964Y0164809D02*
X0123406Y0164809D01*
X0123971Y0163410D02*
X0125909Y0163410D01*
X0125909Y0160613D02*
X0123887Y0160613D01*
X0123254Y0159215D02*
X0125967Y0159215D01*
X0126940Y0157816D02*
X0121939Y0157816D01*
X0121641Y0156418D02*
X0126209Y0156418D01*
X0126209Y0155019D02*
X0123033Y0155019D01*
X0123612Y0153621D02*
X0126209Y0153621D01*
X0126209Y0152222D02*
X0123805Y0152222D01*
X0123680Y0150824D02*
X0126586Y0150824D01*
X0126423Y0149425D02*
X0123100Y0149425D01*
X0121803Y0148027D02*
X0126209Y0148027D01*
X0126209Y0146628D02*
X0110505Y0146628D01*
X0110505Y0145230D02*
X0126209Y0145230D01*
X0126209Y0143831D02*
X0110505Y0143831D01*
X0110655Y0142433D02*
X0143471Y0142433D01*
X0143182Y0143831D02*
X0146686Y0143831D01*
X0143549Y0138237D02*
X0143182Y0138237D01*
X0126787Y0134042D02*
X0119046Y0134042D01*
X0117648Y0135440D02*
X0126222Y0135440D01*
X0126209Y0136839D02*
X0116249Y0136839D01*
X0114851Y0138237D02*
X0126209Y0138237D01*
X0126209Y0139636D02*
X0113452Y0139636D01*
X0112054Y0141034D02*
X0126209Y0141034D01*
X0126209Y0132643D02*
X0120445Y0132643D01*
X0108889Y0121455D02*
X0107839Y0121455D01*
X0107490Y0122853D02*
X0106440Y0122853D01*
X0106091Y0124252D02*
X0105042Y0124252D01*
X0104693Y0125650D02*
X0103643Y0125650D01*
X0103294Y0127049D02*
X0102245Y0127049D01*
X0101896Y0128447D02*
X0100846Y0128447D01*
X0100497Y0129846D02*
X0099448Y0129846D01*
X0099099Y0131245D02*
X0098049Y0131245D01*
X0097700Y0132643D02*
X0096651Y0132643D01*
X0096905Y0134042D02*
X0095252Y0134042D01*
X0094774Y0135440D02*
X0096905Y0135440D01*
X0096905Y0136839D02*
X0094774Y0136839D01*
X0094774Y0138237D02*
X0096905Y0138237D01*
X0096905Y0139636D02*
X0094774Y0139636D01*
X0094774Y0141034D02*
X0096905Y0141034D01*
X0096905Y0142433D02*
X0094774Y0142433D01*
X0094774Y0143831D02*
X0096905Y0143831D01*
X0096905Y0145230D02*
X0094774Y0145230D01*
X0094774Y0146628D02*
X0096905Y0146628D01*
X0095607Y0148027D02*
X0094774Y0148027D01*
X0098705Y0162141D02*
X0098705Y0170705D01*
X0109774Y0181774D01*
X0105559Y0166207D02*
X0101851Y0166207D01*
X0103120Y0164809D02*
X0104290Y0164809D01*
X0103711Y0163410D02*
X0103699Y0163410D01*
X0113680Y0150824D02*
X0113730Y0150824D01*
X0114310Y0149425D02*
X0113100Y0149425D01*
X0111803Y0148027D02*
X0115607Y0148027D01*
X0110287Y0120056D02*
X0109237Y0120056D01*
X0110636Y0118658D02*
X0111686Y0118658D01*
X0112034Y0117259D02*
X0113084Y0117259D01*
X0113433Y0115861D02*
X0114483Y0115861D01*
X0114831Y0114462D02*
X0115881Y0114462D01*
X0116230Y0113064D02*
X0117280Y0113064D01*
X0117628Y0111665D02*
X0126374Y0111665D01*
X0126226Y0110267D02*
X0119027Y0110267D01*
X0120425Y0108868D02*
X0125909Y0108868D01*
X0145515Y0090688D02*
X0084765Y0090688D01*
X0084825Y0090627D02*
X0084509Y0090943D01*
X0084121Y0091167D01*
X0083689Y0091283D01*
X0076165Y0091283D01*
X0076165Y0082283D01*
X0085165Y0082283D01*
X0085165Y0089807D01*
X0085049Y0090239D01*
X0084825Y0090627D01*
X0085165Y0089289D02*
X0146913Y0089289D01*
X0148312Y0087891D02*
X0085165Y0087891D01*
X0085165Y0086492D02*
X0149710Y0086492D01*
X0151109Y0085094D02*
X0085165Y0085094D01*
X0085165Y0079500D02*
X0124468Y0079500D01*
X0124090Y0078101D02*
X0085165Y0078101D01*
X0085165Y0076703D02*
X0124362Y0076703D01*
X0125560Y0075304D02*
X0085165Y0075304D01*
X0076165Y0075304D02*
X0074765Y0075304D01*
X0074765Y0073906D02*
X0076165Y0073906D01*
X0076165Y0072507D02*
X0074765Y0072507D01*
X0074765Y0076703D02*
X0076165Y0076703D01*
X0076165Y0078101D02*
X0074765Y0078101D01*
X0074765Y0082283D02*
X0065765Y0082283D01*
X0065765Y0089807D01*
X0065881Y0090239D01*
X0066105Y0090627D01*
X0066421Y0090943D01*
X0066809Y0091167D01*
X0067241Y0091283D01*
X0074765Y0091283D01*
X0074765Y0082283D01*
X0074765Y0082297D02*
X0076165Y0082297D01*
X0076165Y0083695D02*
X0074765Y0083695D01*
X0074765Y0085094D02*
X0076165Y0085094D01*
X0076165Y0086492D02*
X0074765Y0086492D01*
X0074765Y0087891D02*
X0076165Y0087891D01*
X0076165Y0089289D02*
X0074765Y0089289D01*
X0074765Y0090688D02*
X0076165Y0090688D01*
X0066166Y0090688D02*
X0017437Y0090688D01*
X0011554Y0090688D02*
X0011455Y0090688D01*
X0011455Y0089289D02*
X0065765Y0089289D01*
X0065765Y0087891D02*
X0011455Y0087891D01*
X0011455Y0086492D02*
X0065765Y0086492D01*
X0065765Y0085094D02*
X0011455Y0085094D01*
X0011455Y0083695D02*
X0065765Y0083695D01*
X0065765Y0082297D02*
X0011455Y0082297D01*
X0030548Y0030552D02*
X0064065Y0030552D01*
X0064065Y0029153D02*
X0031737Y0029153D01*
X0032316Y0027755D02*
X0064065Y0027755D01*
X0064065Y0026356D02*
X0032715Y0026356D01*
X0032715Y0024958D02*
X0064065Y0024958D01*
X0064065Y0023559D02*
X0032594Y0023559D01*
X0032015Y0022161D02*
X0064065Y0022161D01*
X0064065Y0020762D02*
X0031217Y0020762D01*
X0029819Y0019364D02*
X0064065Y0019364D01*
X0064065Y0017965D02*
X0026879Y0017965D01*
X0014634Y0016567D02*
X0064065Y0016567D01*
X0086865Y0013770D02*
X0198163Y0013770D01*
X0195462Y0012371D02*
X0086865Y0012371D01*
X0114720Y0016567D02*
X0115320Y0016567D01*
X0115320Y0017965D02*
X0114720Y0017965D01*
X0114720Y0019364D02*
X0115320Y0019364D01*
X0118909Y0016567D02*
X0121131Y0016567D01*
X0120156Y0017965D02*
X0119884Y0017965D01*
X0124720Y0017965D02*
X0125320Y0017965D01*
X0125320Y0016567D02*
X0124720Y0016567D01*
X0124720Y0019364D02*
X0125320Y0019364D01*
X0125320Y0020614D02*
X0124720Y0020614D01*
X0124720Y0025714D01*
X0124595Y0025714D01*
X0124211Y0025653D01*
X0124531Y0025973D01*
X0124531Y0030418D01*
X0129065Y0034952D01*
X0165514Y0034952D01*
X0166568Y0036006D01*
X0166568Y0036006D01*
X0166642Y0036081D01*
X0167795Y0036081D01*
X0168638Y0036430D01*
X0168638Y0035361D01*
X0169107Y0034227D01*
X0169975Y0033359D01*
X0171109Y0032890D01*
X0172336Y0032890D01*
X0173469Y0033359D01*
X0174337Y0034227D01*
X0174698Y0035099D01*
X0174698Y0032233D01*
X0174930Y0032001D01*
X0173661Y0030708D01*
X0170136Y0030708D01*
X0169316Y0029888D01*
X0169316Y0028984D01*
X0165396Y0029032D01*
X0165386Y0029041D01*
X0164652Y0029041D01*
X0163917Y0029050D01*
X0163908Y0029041D01*
X0163895Y0029041D01*
X0163628Y0028774D01*
X0147120Y0028774D01*
X0145858Y0030035D01*
X0145858Y0031188D01*
X0145389Y0032321D01*
X0144521Y0033189D01*
X0143388Y0033658D01*
X0142161Y0033658D01*
X0141027Y0033189D01*
X0140159Y0032321D01*
X0139690Y0031188D01*
X0139690Y0029961D01*
X0140159Y0028827D01*
X0141027Y0027959D01*
X0142161Y0027490D01*
X0143313Y0027490D01*
X0145388Y0025414D01*
X0144006Y0025414D01*
X0142131Y0024638D01*
X0140696Y0023203D01*
X0140020Y0021570D01*
X0139344Y0023203D01*
X0137909Y0024638D01*
X0136034Y0025414D01*
X0134006Y0025414D01*
X0132131Y0024638D01*
X0130696Y0023203D01*
X0130171Y0021935D01*
X0130024Y0022387D01*
X0129638Y0023144D01*
X0129139Y0023832D01*
X0128538Y0024433D01*
X0127850Y0024932D01*
X0127093Y0025318D01*
X0126285Y0025581D01*
X0125445Y0025714D01*
X0125320Y0025714D01*
X0125320Y0020614D01*
X0125320Y0020762D02*
X0124720Y0020762D01*
X0124720Y0022161D02*
X0125320Y0022161D01*
X0125320Y0023559D02*
X0124720Y0023559D01*
X0124720Y0024958D02*
X0125320Y0024958D01*
X0124531Y0026356D02*
X0144446Y0026356D01*
X0142904Y0024958D02*
X0137136Y0024958D01*
X0138987Y0023559D02*
X0141053Y0023559D01*
X0140265Y0022161D02*
X0139775Y0022161D01*
X0139567Y0017965D02*
X0140473Y0017965D01*
X0141555Y0016567D02*
X0138485Y0016567D01*
X0131555Y0016567D02*
X0128909Y0016567D01*
X0129884Y0017965D02*
X0130473Y0017965D01*
X0130265Y0022161D02*
X0130098Y0022161D01*
X0129337Y0023559D02*
X0131053Y0023559D01*
X0132904Y0024958D02*
X0127801Y0024958D01*
X0124531Y0027755D02*
X0141521Y0027755D01*
X0140024Y0029153D02*
X0124531Y0029153D01*
X0124664Y0030552D02*
X0139690Y0030552D01*
X0140006Y0031950D02*
X0126063Y0031950D01*
X0127461Y0033349D02*
X0141413Y0033349D01*
X0144135Y0033349D02*
X0170001Y0033349D01*
X0168892Y0034747D02*
X0128860Y0034747D01*
X0138766Y0043138D02*
X0143733Y0043138D01*
X0143142Y0044537D02*
X0139023Y0044537D01*
X0138630Y0045935D02*
X0143272Y0045935D01*
X0145542Y0031950D02*
X0174880Y0031950D01*
X0174698Y0033349D02*
X0173443Y0033349D01*
X0174552Y0034747D02*
X0174698Y0034747D01*
X0177088Y0038943D02*
X0178892Y0038943D01*
X0178081Y0040341D02*
X0177574Y0040341D01*
X0177574Y0041740D02*
X0177997Y0041740D01*
X0177574Y0043138D02*
X0178579Y0043138D01*
X0181278Y0041197D02*
X0184505Y0037970D01*
X0184759Y0034978D01*
X0181674Y0031950D02*
X0181152Y0031950D01*
X0178551Y0030552D02*
X0185451Y0030552D01*
X0184261Y0029153D02*
X0177179Y0029153D01*
X0176053Y0027755D02*
X0183682Y0027755D01*
X0183283Y0026356D02*
X0176053Y0026356D01*
X0176053Y0024958D02*
X0183283Y0024958D01*
X0183405Y0023559D02*
X0175688Y0023559D01*
X0176053Y0022161D02*
X0183984Y0022161D01*
X0184781Y0020762D02*
X0176053Y0020762D01*
X0176053Y0019364D02*
X0186180Y0019364D01*
X0169316Y0029153D02*
X0146740Y0029153D01*
X0145858Y0030552D02*
X0169980Y0030552D01*
X0168638Y0036146D02*
X0167951Y0036146D01*
X0170265Y0038943D02*
X0170830Y0038943D01*
X0170032Y0040341D02*
X0173434Y0040341D01*
X0173974Y0041740D02*
X0168968Y0041740D01*
X0170500Y0043138D02*
X0173974Y0043138D01*
X0173974Y0044537D02*
X0171483Y0044537D01*
X0171658Y0045935D02*
X0173974Y0045935D01*
X0173974Y0047334D02*
X0172879Y0047334D01*
X0160473Y0017965D02*
X0159567Y0017965D01*
X0158485Y0016567D02*
X0161555Y0016567D01*
X0151555Y0016567D02*
X0148485Y0016567D01*
X0149567Y0017965D02*
X0150473Y0017965D01*
X0139850Y0078101D02*
X0130258Y0078101D01*
X0059671Y0149425D02*
X0031939Y0149425D01*
X0034065Y0150824D02*
X0059671Y0150824D01*
X0059671Y0152222D02*
X0034967Y0152222D01*
X0035392Y0153621D02*
X0046883Y0153621D01*
X0046988Y0153440D02*
X0047304Y0153123D01*
X0047692Y0152899D01*
X0048124Y0152783D01*
X0052404Y0152783D01*
X0052404Y0155981D01*
X0046648Y0155981D01*
X0046648Y0154260D01*
X0046764Y0153827D01*
X0046988Y0153440D01*
X0046648Y0155019D02*
X0045767Y0155019D01*
X0045868Y0155120D02*
X0046092Y0155508D01*
X0046208Y0155940D01*
X0046208Y0158045D01*
X0042824Y0158045D01*
X0042824Y0154464D01*
X0044732Y0154464D01*
X0045164Y0154580D01*
X0045552Y0154804D01*
X0045868Y0155120D01*
X0046648Y0156175D02*
X0046648Y0157896D01*
X0046764Y0158329D01*
X0046988Y0158716D01*
X0047304Y0159033D01*
X0047692Y0159257D01*
X0048124Y0159372D01*
X0052404Y0159372D01*
X0052404Y0156175D01*
X0052404Y0155981D01*
X0052599Y0155981D01*
X0052599Y0156175D01*
X0058355Y0156175D01*
X0058355Y0157896D01*
X0058239Y0158329D01*
X0058015Y0158716D01*
X0057699Y0159033D01*
X0057311Y0159257D01*
X0056879Y0159372D01*
X0052599Y0159372D01*
X0052599Y0156175D01*
X0052404Y0156175D01*
X0046648Y0156175D01*
X0046648Y0156418D02*
X0046208Y0156418D01*
X0046208Y0157816D02*
X0046648Y0157816D01*
X0046208Y0159215D02*
X0047619Y0159215D01*
X0046208Y0160613D02*
X0057876Y0160613D01*
X0057384Y0159215D02*
X0059274Y0159215D01*
X0059671Y0157816D02*
X0058355Y0157816D01*
X0058355Y0156418D02*
X0059671Y0156418D01*
X0058355Y0155981D02*
X0052599Y0155981D01*
X0052599Y0152783D01*
X0056879Y0152783D01*
X0057311Y0152899D01*
X0057699Y0153123D01*
X0058015Y0153440D01*
X0058239Y0153827D01*
X0058355Y0154260D01*
X0058355Y0155981D01*
X0058355Y0155019D02*
X0059671Y0155019D01*
X0059671Y0153621D02*
X0058120Y0153621D01*
X0052599Y0153621D02*
X0052404Y0153621D01*
X0052404Y0155019D02*
X0052599Y0155019D01*
X0052599Y0156418D02*
X0052404Y0156418D01*
X0052404Y0157816D02*
X0052599Y0157816D01*
X0052599Y0159215D02*
X0052404Y0159215D01*
X0056477Y0162012D02*
X0045643Y0162012D01*
X0042540Y0165022D02*
X0052489Y0165121D01*
X0052502Y0165133D01*
X0056326Y0165133D01*
X0061771Y0159688D01*
X0059671Y0164809D02*
X0059620Y0164809D01*
X0059671Y0166207D02*
X0058232Y0166207D01*
X0058013Y0167606D02*
X0059671Y0167606D01*
X0059671Y0169004D02*
X0032172Y0169004D01*
X0033644Y0170403D02*
X0059671Y0170403D01*
X0059671Y0171801D02*
X0057843Y0171801D01*
X0058055Y0173200D02*
X0059671Y0173200D01*
X0059671Y0174598D02*
X0058055Y0174598D01*
X0058055Y0175997D02*
X0059671Y0175997D01*
X0059671Y0177395D02*
X0054602Y0177395D01*
X0054602Y0178794D02*
X0060127Y0178794D01*
X0061526Y0180192D02*
X0054602Y0180192D01*
X0054686Y0181591D02*
X0062924Y0181591D01*
X0064323Y0182989D02*
X0056085Y0182989D01*
X0057484Y0184388D02*
X0065721Y0184388D01*
X0067120Y0185786D02*
X0062559Y0185786D01*
X0063957Y0187185D02*
X0068518Y0187185D01*
X0069917Y0188583D02*
X0065201Y0188583D01*
X0065201Y0189982D02*
X0071315Y0189982D01*
X0072714Y0191380D02*
X0065201Y0191380D01*
X0064744Y0192779D02*
X0074112Y0192779D01*
X0075511Y0194178D02*
X0063346Y0194178D01*
X0060501Y0190375D02*
X0052502Y0182376D01*
X0052502Y0174188D01*
X0052428Y0174262D01*
X0042523Y0174360D01*
X0042522Y0174263D01*
X0030292Y0174263D01*
X0034372Y0177395D02*
X0039444Y0177395D01*
X0038855Y0178794D02*
X0032680Y0178794D01*
X0038855Y0180192D02*
X0011455Y0180192D01*
X0011455Y0178794D02*
X0027904Y0178794D01*
X0026212Y0177395D02*
X0011455Y0177395D01*
X0011455Y0175997D02*
X0025490Y0175997D01*
X0025192Y0174598D02*
X0011455Y0174598D01*
X0011455Y0173200D02*
X0025212Y0173200D01*
X0025791Y0171801D02*
X0011455Y0171801D01*
X0011455Y0170403D02*
X0026940Y0170403D01*
X0028412Y0169004D02*
X0011455Y0169004D01*
X0011455Y0167606D02*
X0026422Y0167606D01*
X0025577Y0166207D02*
X0011455Y0166207D01*
X0011455Y0164809D02*
X0025192Y0164809D01*
X0025192Y0163410D02*
X0011455Y0163410D01*
X0011455Y0162012D02*
X0025704Y0162012D01*
X0026729Y0160613D02*
X0011455Y0160613D01*
X0011455Y0159215D02*
X0028920Y0159215D01*
X0026633Y0157816D02*
X0011455Y0157816D01*
X0011455Y0156418D02*
X0025664Y0156418D01*
X0025192Y0155019D02*
X0011455Y0155019D01*
X0011455Y0153621D02*
X0025192Y0153621D01*
X0025617Y0152222D02*
X0011455Y0152222D01*
X0011455Y0150824D02*
X0026519Y0150824D01*
X0028645Y0149425D02*
X0011455Y0149425D01*
X0011455Y0148027D02*
X0051285Y0148027D01*
X0051205Y0147887D02*
X0051089Y0147454D01*
X0051089Y0145546D01*
X0054670Y0145546D01*
X0054670Y0148931D01*
X0052565Y0148931D01*
X0052133Y0148815D01*
X0051745Y0148591D01*
X0051428Y0148274D01*
X0051205Y0147887D01*
X0051089Y0146628D02*
X0011455Y0146628D01*
X0011455Y0145230D02*
X0054670Y0145230D01*
X0054670Y0144978D02*
X0051089Y0144978D01*
X0051089Y0143070D01*
X0051205Y0142637D01*
X0051428Y0142250D01*
X0051745Y0141933D01*
X0052133Y0141709D01*
X0052565Y0141594D01*
X0054670Y0141594D01*
X0054670Y0144978D01*
X0054670Y0143831D02*
X0055238Y0143831D01*
X0055238Y0142433D02*
X0054670Y0142433D01*
X0051323Y0142433D02*
X0011455Y0142433D01*
X0011455Y0143831D02*
X0051089Y0143831D01*
X0054670Y0146628D02*
X0055238Y0146628D01*
X0055238Y0148027D02*
X0054670Y0148027D01*
X0042824Y0155019D02*
X0042255Y0155019D01*
X0042255Y0156418D02*
X0042824Y0156418D01*
X0042824Y0157816D02*
X0042255Y0157816D01*
X0039312Y0155019D02*
X0035392Y0155019D01*
X0035417Y0156418D02*
X0038871Y0156418D01*
X0038871Y0157816D02*
X0036815Y0157816D01*
X0038214Y0159215D02*
X0038871Y0159215D01*
X0035071Y0162012D02*
X0034880Y0162012D01*
X0035392Y0163410D02*
X0036470Y0163410D01*
X0035392Y0164809D02*
X0037868Y0164809D01*
X0039171Y0166207D02*
X0035007Y0166207D01*
X0034162Y0167606D02*
X0039171Y0167606D01*
X0039155Y0171801D02*
X0034793Y0171801D01*
X0041150Y0165121D02*
X0030292Y0154263D01*
X0041150Y0165121D02*
X0042540Y0165022D01*
X0045908Y0167606D02*
X0046990Y0167606D01*
X0047160Y0171801D02*
X0045891Y0171801D01*
X0045602Y0177395D02*
X0050402Y0177395D01*
X0050402Y0178794D02*
X0046191Y0178794D01*
X0046191Y0180192D02*
X0050402Y0180192D01*
X0050402Y0181591D02*
X0046191Y0181591D01*
X0046191Y0181338D02*
X0046191Y0183443D01*
X0046076Y0183875D01*
X0045852Y0184263D01*
X0045535Y0184579D01*
X0045148Y0184803D01*
X0044715Y0184919D01*
X0042807Y0184919D01*
X0042807Y0181338D01*
X0046191Y0181338D01*
X0046191Y0182989D02*
X0050402Y0182989D01*
X0051544Y0184388D02*
X0045726Y0184388D01*
X0042807Y0184388D02*
X0042239Y0184388D01*
X0042239Y0182989D02*
X0042807Y0182989D01*
X0042807Y0181591D02*
X0042239Y0181591D01*
X0039320Y0184388D02*
X0029459Y0184388D01*
X0029510Y0184409D02*
X0031589Y0186489D01*
X0032715Y0189206D01*
X0032715Y0192147D01*
X0031589Y0194864D01*
X0029510Y0196944D01*
X0026793Y0198069D01*
X0023852Y0198069D01*
X0021134Y0196944D01*
X0019055Y0194864D01*
X0017929Y0192147D01*
X0017929Y0189206D01*
X0019055Y0186489D01*
X0021134Y0184409D01*
X0023852Y0183283D01*
X0026793Y0183283D01*
X0029510Y0184409D01*
X0030887Y0185786D02*
X0052942Y0185786D01*
X0054341Y0187185D02*
X0031878Y0187185D01*
X0032457Y0188583D02*
X0055739Y0188583D01*
X0055801Y0189982D02*
X0032715Y0189982D01*
X0032715Y0191380D02*
X0055801Y0191380D01*
X0056258Y0192779D02*
X0032453Y0192779D01*
X0031874Y0194178D02*
X0057656Y0194178D01*
X0057255Y0196975D02*
X0029436Y0196975D01*
X0030878Y0195576D02*
X0076909Y0195576D01*
X0078308Y0196975D02*
X0063747Y0196975D01*
X0065146Y0198373D02*
X0079706Y0198373D01*
X0081105Y0199772D02*
X0065201Y0199772D01*
X0065201Y0201170D02*
X0082503Y0201170D01*
X0091481Y0202569D02*
X0064955Y0202569D01*
X0063556Y0203967D02*
X0092879Y0203967D01*
X0057446Y0203967D02*
X0021804Y0203967D01*
X0018423Y0202569D02*
X0056048Y0202569D01*
X0055801Y0201170D02*
X0016373Y0201170D01*
X0014974Y0199772D02*
X0055801Y0199772D01*
X0055857Y0198373D02*
X0013891Y0198373D01*
X0013083Y0196975D02*
X0021209Y0196975D01*
X0019767Y0195576D02*
X0012402Y0195576D01*
X0012027Y0194178D02*
X0018770Y0194178D01*
X0018191Y0192779D02*
X0011652Y0192779D01*
X0011501Y0191380D02*
X0017929Y0191380D01*
X0017929Y0189982D02*
X0011455Y0189982D01*
X0011455Y0188583D02*
X0018187Y0188583D01*
X0018766Y0187185D02*
X0011455Y0187185D01*
X0011455Y0185786D02*
X0019757Y0185786D01*
X0021185Y0184388D02*
X0011455Y0184388D01*
X0011455Y0182989D02*
X0038855Y0182989D01*
X0038855Y0181591D02*
X0011455Y0181591D01*
X0136962Y0180192D02*
X0189386Y0180192D01*
D25*
X0145774Y0140374D03*
X0131748Y0101649D03*
X0132574Y0089974D03*
X0140974Y0080974D03*
X0127174Y0077974D03*
X0115873Y0068629D03*
X0096188Y0068629D03*
X0112952Y0048436D03*
X0135939Y0044372D03*
X0146226Y0045007D03*
X0146226Y0052627D03*
X0145972Y0057834D03*
X0135812Y0057834D03*
X0158974Y0077974D03*
X0160774Y0073174D03*
X0167054Y0075360D03*
X0174293Y0092759D03*
X0194359Y0070280D03*
X0168574Y0045574D03*
X0171293Y0041508D03*
X0167181Y0039165D03*
X0171722Y0035974D03*
X0197280Y0037895D03*
X0142774Y0030574D03*
X0115873Y0088314D03*
X0096188Y0100125D03*
X0067994Y0115873D03*
X0060755Y0135558D03*
X0045896Y0149020D03*
X0041070Y0131621D03*
X0041070Y0107999D03*
X0041070Y0086177D03*
X0041070Y0055355D03*
X0033196Y0050214D03*
X0060755Y0045007D03*
X0072566Y0052881D03*
D26*
X0060120Y0033196D02*
X0088187Y0033196D01*
X0094664Y0026719D01*
X0122731Y0026719D01*
X0122731Y0031164D01*
X0128319Y0036752D01*
X0164768Y0036752D01*
X0167181Y0039165D01*
X0171722Y0035974D02*
X0175774Y0040174D01*
X0175774Y0075574D01*
X0146823Y0104525D01*
X0146823Y0110158D01*
X0147208Y0114773D02*
X0134695Y0114773D01*
X0134652Y0114730D01*
X0118159Y0114730D01*
X0098705Y0134184D01*
X0098705Y0152141D01*
X0092974Y0154174D02*
X0092974Y0133774D01*
X0128374Y0098374D01*
X0149374Y0098374D01*
X0172774Y0074974D01*
X0172774Y0049774D01*
X0168574Y0045574D01*
X0178067Y0034978D02*
X0177813Y0032369D01*
X0172684Y0027142D01*
X0164641Y0027241D01*
X0164374Y0026974D01*
X0146374Y0026974D01*
X0142774Y0030574D01*
X0146226Y0045007D02*
X0146226Y0052627D01*
X0135939Y0044372D02*
X0117016Y0044372D01*
X0112952Y0048436D01*
X0127174Y0077974D02*
X0130174Y0080974D01*
X0140974Y0080974D01*
X0145174Y0093574D02*
X0124774Y0093574D01*
X0088174Y0131374D01*
X0088174Y0152374D01*
X0084580Y0155968D01*
X0084580Y0179202D01*
X0084580Y0185895D02*
X0089061Y0190375D01*
X0095934Y0190375D01*
X0104399Y0190288D02*
X0104399Y0185399D01*
X0086974Y0167974D01*
X0086974Y0157174D01*
X0090574Y0153574D01*
X0090574Y0132574D01*
X0126574Y0095974D01*
X0147189Y0095974D01*
X0163279Y0079932D01*
X0163279Y0078000D01*
X0160774Y0073174D01*
X0158974Y0077974D02*
X0158974Y0079774D01*
X0145174Y0093574D01*
X0151823Y0110158D02*
X0147208Y0114773D01*
X0144334Y0122647D02*
X0134695Y0122647D01*
X0134611Y0122731D01*
X0118921Y0122731D01*
X0103681Y0137971D01*
X0103681Y0155116D01*
X0108705Y0160140D01*
X0108705Y0162141D01*
X0108705Y0152141D02*
X0108705Y0141837D01*
X0120064Y0130478D01*
X0134652Y0130478D01*
X0134695Y0130521D01*
X0141460Y0130521D01*
X0161823Y0110158D01*
X0156823Y0110158D02*
X0144334Y0122647D01*
X0138586Y0138395D02*
X0134695Y0138395D01*
X0138586Y0138395D02*
X0166823Y0110158D01*
X0183932Y0127767D02*
X0183932Y0134498D01*
X0176058Y0142372D01*
X0147772Y0142372D01*
X0145774Y0140374D01*
X0183932Y0127767D02*
X0189052Y0122647D01*
X0193751Y0122647D01*
X0143178Y0190375D02*
X0140001Y0190375D01*
X0135222Y0190295D01*
X0128529Y0190295D02*
X0128529Y0186129D01*
X0127174Y0184774D01*
X0106774Y0184774D01*
X0089374Y0167374D01*
X0089374Y0157774D01*
X0092974Y0154174D01*
X0111092Y0190288D02*
X0116252Y0190375D01*
X0119556Y0190375D01*
X0043102Y0050214D02*
X0033196Y0050214D01*
X0043102Y0050214D02*
X0060120Y0033196D01*
X0165020Y0020314D02*
X0172647Y0020314D01*
X0172684Y0020450D01*
X0165662Y0020314D02*
X0165020Y0020314D01*
M02*
