G75*
%MOIN*%
%OFA0B0*%
%FSLAX25Y25*%
%IPPOS*%
%LPD*%
%AMOC8*
5,1,8,0,0,1.08239X$1,22.5*
%
%ADD10C,0.11624*%
%ADD11R,0.04537X0.04931*%
%ADD12C,0.08000*%
%ADD13C,0.06537*%
%ADD14C,0.04569*%
%ADD15OC8,0.07200*%
%ADD16R,0.04931X0.04537*%
%ADD17R,0.09261X0.19498*%
%ADD18R,0.08907X0.03789*%
%ADD19R,0.09261X0.03946*%
%ADD20R,0.14773X0.05324*%
%ADD21C,0.04600*%
%ADD22R,0.16600X0.16600*%
%ADD23R,0.20600X0.20600*%
%ADD24C,0.04362*%
%ADD25C,0.03969*%
D10*
X0025322Y0025322D03*
X0025322Y0190676D03*
X0190676Y0190676D03*
X0190676Y0025322D03*
D11*
X0184759Y0034978D03*
X0178067Y0034978D03*
X0172684Y0027142D03*
X0172684Y0020450D03*
X0042540Y0158329D03*
X0042540Y0165022D03*
X0042523Y0174360D03*
X0042523Y0181053D03*
X0104399Y0190288D03*
X0111092Y0190288D03*
X0128529Y0190295D03*
X0135222Y0190295D03*
D12*
X0118705Y0162141D03*
X0118705Y0152141D03*
X0108705Y0152141D03*
X0108705Y0162141D03*
X0098705Y0162141D03*
X0098705Y0152141D03*
X0030292Y0154263D03*
X0030292Y0164263D03*
X0030292Y0174263D03*
X0115020Y0020314D03*
X0125020Y0020314D03*
X0135020Y0020314D03*
X0145020Y0020314D03*
X0155020Y0020314D03*
X0165020Y0020314D03*
D13*
X0014495Y0042743D03*
X0014495Y0070893D03*
X0014495Y0093924D03*
X0014495Y0122074D03*
D14*
X0025125Y0117448D03*
X0025125Y0098550D03*
X0025125Y0066267D03*
X0025125Y0047369D03*
D15*
X0060501Y0190375D03*
X0060501Y0200375D03*
X0095934Y0200375D03*
X0095934Y0190375D03*
X0119556Y0190375D03*
X0119556Y0200375D03*
X0143178Y0200375D03*
X0143178Y0190375D03*
D16*
X0084580Y0185895D03*
X0084580Y0179202D03*
X0061647Y0145262D03*
X0054954Y0145262D03*
D17*
X0076478Y0165527D03*
D18*
X0052502Y0174188D03*
X0052502Y0156078D03*
D19*
X0052502Y0165133D03*
D20*
X0134695Y0162017D03*
X0134695Y0154143D03*
X0134695Y0146269D03*
X0134695Y0138395D03*
X0134695Y0130521D03*
X0134695Y0122647D03*
X0134695Y0114773D03*
X0134695Y0106899D03*
X0193751Y0106899D03*
X0193751Y0114773D03*
X0193751Y0122647D03*
X0193751Y0130521D03*
X0193751Y0138395D03*
X0193751Y0146269D03*
X0193751Y0154143D03*
X0193751Y0162017D03*
D21*
X0181823Y0110158D02*
X0181823Y0106158D01*
X0176823Y0106158D02*
X0176823Y0110158D01*
X0171823Y0110158D02*
X0171823Y0106158D01*
X0166823Y0106158D02*
X0166823Y0110158D01*
X0161823Y0110158D02*
X0161823Y0106158D01*
X0156823Y0106158D02*
X0156823Y0110158D01*
X0151823Y0110158D02*
X0151823Y0106158D01*
X0146823Y0106158D02*
X0146823Y0110158D01*
D22*
X0075465Y0081583D03*
D23*
X0075465Y0142083D03*
X0075465Y0021083D03*
D24*
X0163739Y0122179D03*
X0181278Y0041197D03*
D25*
X0171293Y0041508D03*
X0167181Y0039165D03*
X0171722Y0035974D03*
X0168574Y0045574D03*
X0146226Y0045007D03*
X0146226Y0052627D03*
X0145972Y0057834D03*
X0135812Y0057834D03*
X0135939Y0044372D03*
X0142774Y0030574D03*
X0112952Y0048436D03*
X0115873Y0068629D03*
X0127174Y0077974D03*
X0132574Y0089974D03*
X0140974Y0080974D03*
X0158974Y0077974D03*
X0160774Y0073174D03*
X0167054Y0075360D03*
X0174293Y0092759D03*
X0194359Y0070280D03*
X0197280Y0037895D03*
X0131748Y0101649D03*
X0115873Y0088314D03*
X0096188Y0100125D03*
X0067994Y0115873D03*
X0060755Y0135558D03*
X0045896Y0149020D03*
X0041070Y0131621D03*
X0041070Y0107999D03*
X0041070Y0086177D03*
X0041070Y0055355D03*
X0033196Y0050214D03*
X0060755Y0045007D03*
X0072566Y0052881D03*
X0096188Y0068629D03*
X0145774Y0140374D03*
M02*
