G75*
%MOIN*%
%OFA0B0*%
%FSLAX25Y25*%
%IPPOS*%
%LPD*%
%AMOC8*
5,1,8,0,0,1.08239X$1,22.5*
%
%ADD10C,0.11624*%
%ADD11R,0.04537X0.04931*%
%ADD12R,0.04931X0.04537*%
%ADD13C,0.08000*%
%ADD14C,0.06537*%
%ADD15C,0.04569*%
%ADD16R,0.05324X0.02175*%
%ADD17OC8,0.07200*%
%ADD18R,0.07687X0.04931*%
%ADD19R,0.09261X0.02962*%
%ADD20R,0.05600X0.02800*%
%ADD21R,0.02800X0.05600*%
%ADD22R,0.04600X0.05100*%
%ADD23R,0.05324X0.17529*%
%ADD24C,0.04600*%
%ADD25C,0.04362*%
%ADD26C,0.03969*%
D10*
X0025322Y0025322D03*
X0025322Y0190676D03*
X0190676Y0190676D03*
X0190676Y0025322D03*
D11*
X0179875Y0066633D03*
X0179875Y0073326D03*
X0179631Y0080431D03*
X0179631Y0087123D03*
X0174134Y0141796D03*
X0174134Y0148489D03*
X0165611Y0148475D03*
X0165611Y0141782D03*
X0158907Y0141640D03*
X0152215Y0141640D03*
X0091688Y0118579D03*
X0084995Y0118579D03*
X0077372Y0117901D03*
X0077372Y0111208D03*
X0057370Y0084504D03*
X0050677Y0084504D03*
X0050677Y0069010D03*
X0057370Y0069010D03*
D12*
X0057370Y0060882D03*
X0050677Y0060882D03*
X0111637Y0055040D03*
X0118330Y0055040D03*
X0116538Y0031345D03*
X0123230Y0031345D03*
X0170762Y0058178D03*
X0177455Y0058178D03*
X0074523Y0190811D03*
X0074523Y0197504D03*
D13*
X0098705Y0162141D03*
X0098705Y0152141D03*
X0108705Y0152141D03*
X0108705Y0162141D03*
X0118705Y0162141D03*
X0118705Y0152141D03*
X0030292Y0154263D03*
X0030292Y0164263D03*
X0030292Y0174263D03*
X0115020Y0020314D03*
X0125020Y0020314D03*
X0135020Y0020314D03*
X0145020Y0020314D03*
X0155020Y0020314D03*
X0165020Y0020314D03*
D14*
X0014495Y0042743D03*
X0014495Y0070893D03*
X0014495Y0093924D03*
X0014495Y0122074D03*
D15*
X0025125Y0117448D03*
X0025125Y0098550D03*
X0025125Y0066267D03*
X0025125Y0047369D03*
D16*
X0025322Y0051700D03*
X0025322Y0054259D03*
X0025322Y0056818D03*
X0025322Y0059377D03*
X0025322Y0061936D03*
X0025322Y0102881D03*
X0025322Y0105440D03*
X0025322Y0107999D03*
X0025322Y0110558D03*
X0025322Y0113117D03*
D17*
X0060501Y0190375D03*
X0060501Y0200375D03*
X0095934Y0200375D03*
X0095934Y0190375D03*
X0119556Y0190375D03*
X0119556Y0200375D03*
X0143178Y0200375D03*
X0143178Y0190375D03*
D18*
X0104946Y0044934D03*
X0104946Y0030367D03*
X0080536Y0030367D03*
X0080536Y0044934D03*
D19*
X0153151Y0117308D03*
X0153151Y0122308D03*
X0153151Y0127308D03*
X0153151Y0132308D03*
X0173623Y0132308D03*
X0173623Y0127308D03*
X0173623Y0122308D03*
X0173623Y0117308D03*
D20*
X0161550Y0064480D03*
X0161550Y0061331D03*
X0161550Y0058181D03*
X0161550Y0055031D03*
X0161550Y0051882D03*
X0161550Y0048732D03*
X0161550Y0045583D03*
X0161550Y0042433D03*
X0127750Y0042433D03*
X0127750Y0045583D03*
X0127750Y0048732D03*
X0127750Y0051882D03*
X0127750Y0055031D03*
X0127750Y0058181D03*
X0127750Y0061331D03*
X0127750Y0064480D03*
D21*
X0133627Y0070357D03*
X0136776Y0070357D03*
X0139926Y0070357D03*
X0143076Y0070357D03*
X0146225Y0070357D03*
X0149375Y0070357D03*
X0152524Y0070357D03*
X0155674Y0070357D03*
X0155674Y0036557D03*
X0152524Y0036557D03*
X0149375Y0036557D03*
X0146225Y0036557D03*
X0143076Y0036557D03*
X0139926Y0036557D03*
X0136776Y0036557D03*
X0133627Y0036557D03*
D22*
X0088444Y0102791D03*
X0091944Y0110791D03*
X0084944Y0110791D03*
D23*
X0194523Y0090263D03*
X0194523Y0051680D03*
D24*
X0181823Y0106158D02*
X0181823Y0110158D01*
X0176823Y0110158D02*
X0176823Y0106158D01*
X0171823Y0106158D02*
X0171823Y0110158D01*
X0166823Y0110158D02*
X0166823Y0106158D01*
X0161823Y0106158D02*
X0161823Y0110158D01*
X0156823Y0110158D02*
X0156823Y0106158D01*
X0151823Y0106158D02*
X0151823Y0110158D01*
X0146823Y0110158D02*
X0146823Y0106158D01*
D25*
X0163739Y0122179D03*
X0181278Y0041197D03*
D26*
X0171293Y0041508D03*
X0167181Y0039165D03*
X0171722Y0035974D03*
X0168574Y0045574D03*
X0146226Y0045007D03*
X0146226Y0052627D03*
X0145972Y0057834D03*
X0135812Y0057834D03*
X0135939Y0044372D03*
X0142774Y0030574D03*
X0112952Y0048436D03*
X0115873Y0068629D03*
X0127174Y0077974D03*
X0132574Y0089974D03*
X0140974Y0080974D03*
X0158974Y0077974D03*
X0160774Y0073174D03*
X0167054Y0075360D03*
X0174293Y0092759D03*
X0194359Y0070280D03*
X0197280Y0037895D03*
X0131748Y0101649D03*
X0115873Y0088314D03*
X0096188Y0100125D03*
X0067994Y0115873D03*
X0060755Y0135558D03*
X0045896Y0149020D03*
X0041070Y0131621D03*
X0041070Y0107999D03*
X0041070Y0086177D03*
X0041070Y0055355D03*
X0033196Y0050214D03*
X0060755Y0045007D03*
X0072566Y0052881D03*
X0096188Y0068629D03*
X0145774Y0140374D03*
M02*
