G75*
%MOIN*%
%OFA0B0*%
%FSLAX25Y25*%
%IPPOS*%
%LPD*%
%AMOC8*
5,1,8,0,0,1.08239X$1,22.5*
%
%ADD10C,0.00000*%
%ADD11R,0.03937X0.04331*%
%ADD12R,0.04331X0.03937*%
%ADD13C,0.07400*%
%ADD14C,0.05937*%
%ADD15C,0.03969*%
%ADD16R,0.04724X0.01575*%
%ADD17OC8,0.06600*%
%ADD18R,0.07087X0.04331*%
%ADD19R,0.08661X0.02362*%
%ADD20R,0.05000X0.02200*%
%ADD21R,0.02200X0.05000*%
%ADD22R,0.04000X0.04500*%
%ADD23R,0.04724X0.16929*%
%ADD24C,0.04000*%
%ADD25C,0.01400*%
%ADD26C,0.03762*%
%ADD27C,0.03369*%
%ADD28C,0.00800*%
D10*
X0009574Y0025322D02*
X0009574Y0190676D01*
X0009579Y0191057D01*
X0009592Y0191437D01*
X0009615Y0191817D01*
X0009648Y0192196D01*
X0009689Y0192574D01*
X0009739Y0192951D01*
X0009799Y0193327D01*
X0009867Y0193702D01*
X0009945Y0194074D01*
X0010032Y0194445D01*
X0010127Y0194813D01*
X0010232Y0195179D01*
X0010345Y0195542D01*
X0010467Y0195903D01*
X0010597Y0196260D01*
X0010737Y0196614D01*
X0010884Y0196965D01*
X0011041Y0197312D01*
X0011205Y0197655D01*
X0011378Y0197994D01*
X0011559Y0198329D01*
X0011748Y0198660D01*
X0011945Y0198985D01*
X0012149Y0199306D01*
X0012362Y0199622D01*
X0012582Y0199932D01*
X0012809Y0200238D01*
X0013044Y0200537D01*
X0013286Y0200831D01*
X0013534Y0201119D01*
X0013790Y0201401D01*
X0014053Y0201676D01*
X0014322Y0201945D01*
X0014597Y0202208D01*
X0014879Y0202464D01*
X0015167Y0202712D01*
X0015461Y0202954D01*
X0015760Y0203189D01*
X0016066Y0203416D01*
X0016376Y0203636D01*
X0016692Y0203849D01*
X0017013Y0204053D01*
X0017338Y0204250D01*
X0017669Y0204439D01*
X0018004Y0204620D01*
X0018343Y0204793D01*
X0018686Y0204957D01*
X0019033Y0205114D01*
X0019384Y0205261D01*
X0019738Y0205401D01*
X0020095Y0205531D01*
X0020456Y0205653D01*
X0020819Y0205766D01*
X0021185Y0205871D01*
X0021553Y0205966D01*
X0021924Y0206053D01*
X0022296Y0206131D01*
X0022671Y0206199D01*
X0023047Y0206259D01*
X0023424Y0206309D01*
X0023802Y0206350D01*
X0024181Y0206383D01*
X0024561Y0206406D01*
X0024941Y0206419D01*
X0025322Y0206424D01*
X0190676Y0206424D01*
X0185164Y0190676D02*
X0185166Y0190824D01*
X0185172Y0190972D01*
X0185182Y0191120D01*
X0185196Y0191267D01*
X0185214Y0191414D01*
X0185235Y0191560D01*
X0185261Y0191706D01*
X0185291Y0191851D01*
X0185324Y0191995D01*
X0185362Y0192138D01*
X0185403Y0192280D01*
X0185448Y0192421D01*
X0185496Y0192561D01*
X0185549Y0192700D01*
X0185605Y0192837D01*
X0185665Y0192972D01*
X0185728Y0193106D01*
X0185795Y0193238D01*
X0185866Y0193368D01*
X0185940Y0193496D01*
X0186017Y0193622D01*
X0186098Y0193746D01*
X0186182Y0193868D01*
X0186269Y0193987D01*
X0186360Y0194104D01*
X0186454Y0194219D01*
X0186550Y0194331D01*
X0186650Y0194441D01*
X0186752Y0194547D01*
X0186858Y0194651D01*
X0186966Y0194752D01*
X0187077Y0194850D01*
X0187190Y0194946D01*
X0187306Y0195038D01*
X0187424Y0195127D01*
X0187545Y0195212D01*
X0187668Y0195295D01*
X0187793Y0195374D01*
X0187920Y0195450D01*
X0188049Y0195522D01*
X0188180Y0195591D01*
X0188313Y0195656D01*
X0188448Y0195717D01*
X0188584Y0195775D01*
X0188721Y0195830D01*
X0188860Y0195880D01*
X0189001Y0195927D01*
X0189142Y0195970D01*
X0189285Y0196010D01*
X0189429Y0196045D01*
X0189573Y0196077D01*
X0189719Y0196104D01*
X0189865Y0196128D01*
X0190012Y0196148D01*
X0190159Y0196164D01*
X0190306Y0196176D01*
X0190454Y0196184D01*
X0190602Y0196188D01*
X0190750Y0196188D01*
X0190898Y0196184D01*
X0191046Y0196176D01*
X0191193Y0196164D01*
X0191340Y0196148D01*
X0191487Y0196128D01*
X0191633Y0196104D01*
X0191779Y0196077D01*
X0191923Y0196045D01*
X0192067Y0196010D01*
X0192210Y0195970D01*
X0192351Y0195927D01*
X0192492Y0195880D01*
X0192631Y0195830D01*
X0192768Y0195775D01*
X0192904Y0195717D01*
X0193039Y0195656D01*
X0193172Y0195591D01*
X0193303Y0195522D01*
X0193432Y0195450D01*
X0193559Y0195374D01*
X0193684Y0195295D01*
X0193807Y0195212D01*
X0193928Y0195127D01*
X0194046Y0195038D01*
X0194162Y0194946D01*
X0194275Y0194850D01*
X0194386Y0194752D01*
X0194494Y0194651D01*
X0194600Y0194547D01*
X0194702Y0194441D01*
X0194802Y0194331D01*
X0194898Y0194219D01*
X0194992Y0194104D01*
X0195083Y0193987D01*
X0195170Y0193868D01*
X0195254Y0193746D01*
X0195335Y0193622D01*
X0195412Y0193496D01*
X0195486Y0193368D01*
X0195557Y0193238D01*
X0195624Y0193106D01*
X0195687Y0192972D01*
X0195747Y0192837D01*
X0195803Y0192700D01*
X0195856Y0192561D01*
X0195904Y0192421D01*
X0195949Y0192280D01*
X0195990Y0192138D01*
X0196028Y0191995D01*
X0196061Y0191851D01*
X0196091Y0191706D01*
X0196117Y0191560D01*
X0196138Y0191414D01*
X0196156Y0191267D01*
X0196170Y0191120D01*
X0196180Y0190972D01*
X0196186Y0190824D01*
X0196188Y0190676D01*
X0196186Y0190528D01*
X0196180Y0190380D01*
X0196170Y0190232D01*
X0196156Y0190085D01*
X0196138Y0189938D01*
X0196117Y0189792D01*
X0196091Y0189646D01*
X0196061Y0189501D01*
X0196028Y0189357D01*
X0195990Y0189214D01*
X0195949Y0189072D01*
X0195904Y0188931D01*
X0195856Y0188791D01*
X0195803Y0188652D01*
X0195747Y0188515D01*
X0195687Y0188380D01*
X0195624Y0188246D01*
X0195557Y0188114D01*
X0195486Y0187984D01*
X0195412Y0187856D01*
X0195335Y0187730D01*
X0195254Y0187606D01*
X0195170Y0187484D01*
X0195083Y0187365D01*
X0194992Y0187248D01*
X0194898Y0187133D01*
X0194802Y0187021D01*
X0194702Y0186911D01*
X0194600Y0186805D01*
X0194494Y0186701D01*
X0194386Y0186600D01*
X0194275Y0186502D01*
X0194162Y0186406D01*
X0194046Y0186314D01*
X0193928Y0186225D01*
X0193807Y0186140D01*
X0193684Y0186057D01*
X0193559Y0185978D01*
X0193432Y0185902D01*
X0193303Y0185830D01*
X0193172Y0185761D01*
X0193039Y0185696D01*
X0192904Y0185635D01*
X0192768Y0185577D01*
X0192631Y0185522D01*
X0192492Y0185472D01*
X0192351Y0185425D01*
X0192210Y0185382D01*
X0192067Y0185342D01*
X0191923Y0185307D01*
X0191779Y0185275D01*
X0191633Y0185248D01*
X0191487Y0185224D01*
X0191340Y0185204D01*
X0191193Y0185188D01*
X0191046Y0185176D01*
X0190898Y0185168D01*
X0190750Y0185164D01*
X0190602Y0185164D01*
X0190454Y0185168D01*
X0190306Y0185176D01*
X0190159Y0185188D01*
X0190012Y0185204D01*
X0189865Y0185224D01*
X0189719Y0185248D01*
X0189573Y0185275D01*
X0189429Y0185307D01*
X0189285Y0185342D01*
X0189142Y0185382D01*
X0189001Y0185425D01*
X0188860Y0185472D01*
X0188721Y0185522D01*
X0188584Y0185577D01*
X0188448Y0185635D01*
X0188313Y0185696D01*
X0188180Y0185761D01*
X0188049Y0185830D01*
X0187920Y0185902D01*
X0187793Y0185978D01*
X0187668Y0186057D01*
X0187545Y0186140D01*
X0187424Y0186225D01*
X0187306Y0186314D01*
X0187190Y0186406D01*
X0187077Y0186502D01*
X0186966Y0186600D01*
X0186858Y0186701D01*
X0186752Y0186805D01*
X0186650Y0186911D01*
X0186550Y0187021D01*
X0186454Y0187133D01*
X0186360Y0187248D01*
X0186269Y0187365D01*
X0186182Y0187484D01*
X0186098Y0187606D01*
X0186017Y0187730D01*
X0185940Y0187856D01*
X0185866Y0187984D01*
X0185795Y0188114D01*
X0185728Y0188246D01*
X0185665Y0188380D01*
X0185605Y0188515D01*
X0185549Y0188652D01*
X0185496Y0188791D01*
X0185448Y0188931D01*
X0185403Y0189072D01*
X0185362Y0189214D01*
X0185324Y0189357D01*
X0185291Y0189501D01*
X0185261Y0189646D01*
X0185235Y0189792D01*
X0185214Y0189938D01*
X0185196Y0190085D01*
X0185182Y0190232D01*
X0185172Y0190380D01*
X0185166Y0190528D01*
X0185164Y0190676D01*
X0190676Y0206424D02*
X0191057Y0206419D01*
X0191437Y0206406D01*
X0191817Y0206383D01*
X0192196Y0206350D01*
X0192574Y0206309D01*
X0192951Y0206259D01*
X0193327Y0206199D01*
X0193702Y0206131D01*
X0194074Y0206053D01*
X0194445Y0205966D01*
X0194813Y0205871D01*
X0195179Y0205766D01*
X0195542Y0205653D01*
X0195903Y0205531D01*
X0196260Y0205401D01*
X0196614Y0205261D01*
X0196965Y0205114D01*
X0197312Y0204957D01*
X0197655Y0204793D01*
X0197994Y0204620D01*
X0198329Y0204439D01*
X0198660Y0204250D01*
X0198985Y0204053D01*
X0199306Y0203849D01*
X0199622Y0203636D01*
X0199932Y0203416D01*
X0200238Y0203189D01*
X0200537Y0202954D01*
X0200831Y0202712D01*
X0201119Y0202464D01*
X0201401Y0202208D01*
X0201676Y0201945D01*
X0201945Y0201676D01*
X0202208Y0201401D01*
X0202464Y0201119D01*
X0202712Y0200831D01*
X0202954Y0200537D01*
X0203189Y0200238D01*
X0203416Y0199932D01*
X0203636Y0199622D01*
X0203849Y0199306D01*
X0204053Y0198985D01*
X0204250Y0198660D01*
X0204439Y0198329D01*
X0204620Y0197994D01*
X0204793Y0197655D01*
X0204957Y0197312D01*
X0205114Y0196965D01*
X0205261Y0196614D01*
X0205401Y0196260D01*
X0205531Y0195903D01*
X0205653Y0195542D01*
X0205766Y0195179D01*
X0205871Y0194813D01*
X0205966Y0194445D01*
X0206053Y0194074D01*
X0206131Y0193702D01*
X0206199Y0193327D01*
X0206259Y0192951D01*
X0206309Y0192574D01*
X0206350Y0192196D01*
X0206383Y0191817D01*
X0206406Y0191437D01*
X0206419Y0191057D01*
X0206424Y0190676D01*
X0206424Y0025322D01*
X0206419Y0024941D01*
X0206406Y0024561D01*
X0206383Y0024181D01*
X0206350Y0023802D01*
X0206309Y0023424D01*
X0206259Y0023047D01*
X0206199Y0022671D01*
X0206131Y0022296D01*
X0206053Y0021924D01*
X0205966Y0021553D01*
X0205871Y0021185D01*
X0205766Y0020819D01*
X0205653Y0020456D01*
X0205531Y0020095D01*
X0205401Y0019738D01*
X0205261Y0019384D01*
X0205114Y0019033D01*
X0204957Y0018686D01*
X0204793Y0018343D01*
X0204620Y0018004D01*
X0204439Y0017669D01*
X0204250Y0017338D01*
X0204053Y0017013D01*
X0203849Y0016692D01*
X0203636Y0016376D01*
X0203416Y0016066D01*
X0203189Y0015760D01*
X0202954Y0015461D01*
X0202712Y0015167D01*
X0202464Y0014879D01*
X0202208Y0014597D01*
X0201945Y0014322D01*
X0201676Y0014053D01*
X0201401Y0013790D01*
X0201119Y0013534D01*
X0200831Y0013286D01*
X0200537Y0013044D01*
X0200238Y0012809D01*
X0199932Y0012582D01*
X0199622Y0012362D01*
X0199306Y0012149D01*
X0198985Y0011945D01*
X0198660Y0011748D01*
X0198329Y0011559D01*
X0197994Y0011378D01*
X0197655Y0011205D01*
X0197312Y0011041D01*
X0196965Y0010884D01*
X0196614Y0010737D01*
X0196260Y0010597D01*
X0195903Y0010467D01*
X0195542Y0010345D01*
X0195179Y0010232D01*
X0194813Y0010127D01*
X0194445Y0010032D01*
X0194074Y0009945D01*
X0193702Y0009867D01*
X0193327Y0009799D01*
X0192951Y0009739D01*
X0192574Y0009689D01*
X0192196Y0009648D01*
X0191817Y0009615D01*
X0191437Y0009592D01*
X0191057Y0009579D01*
X0190676Y0009574D01*
X0025322Y0009574D01*
X0024941Y0009579D01*
X0024561Y0009592D01*
X0024181Y0009615D01*
X0023802Y0009648D01*
X0023424Y0009689D01*
X0023047Y0009739D01*
X0022671Y0009799D01*
X0022296Y0009867D01*
X0021924Y0009945D01*
X0021553Y0010032D01*
X0021185Y0010127D01*
X0020819Y0010232D01*
X0020456Y0010345D01*
X0020095Y0010467D01*
X0019738Y0010597D01*
X0019384Y0010737D01*
X0019033Y0010884D01*
X0018686Y0011041D01*
X0018343Y0011205D01*
X0018004Y0011378D01*
X0017669Y0011559D01*
X0017338Y0011748D01*
X0017013Y0011945D01*
X0016692Y0012149D01*
X0016376Y0012362D01*
X0016066Y0012582D01*
X0015760Y0012809D01*
X0015461Y0013044D01*
X0015167Y0013286D01*
X0014879Y0013534D01*
X0014597Y0013790D01*
X0014322Y0014053D01*
X0014053Y0014322D01*
X0013790Y0014597D01*
X0013534Y0014879D01*
X0013286Y0015167D01*
X0013044Y0015461D01*
X0012809Y0015760D01*
X0012582Y0016066D01*
X0012362Y0016376D01*
X0012149Y0016692D01*
X0011945Y0017013D01*
X0011748Y0017338D01*
X0011559Y0017669D01*
X0011378Y0018004D01*
X0011205Y0018343D01*
X0011041Y0018686D01*
X0010884Y0019033D01*
X0010737Y0019384D01*
X0010597Y0019738D01*
X0010467Y0020095D01*
X0010345Y0020456D01*
X0010232Y0020819D01*
X0010127Y0021185D01*
X0010032Y0021553D01*
X0009945Y0021924D01*
X0009867Y0022296D01*
X0009799Y0022671D01*
X0009739Y0023047D01*
X0009689Y0023424D01*
X0009648Y0023802D01*
X0009615Y0024181D01*
X0009592Y0024561D01*
X0009579Y0024941D01*
X0009574Y0025322D01*
X0019810Y0025322D02*
X0019812Y0025470D01*
X0019818Y0025618D01*
X0019828Y0025766D01*
X0019842Y0025913D01*
X0019860Y0026060D01*
X0019881Y0026206D01*
X0019907Y0026352D01*
X0019937Y0026497D01*
X0019970Y0026641D01*
X0020008Y0026784D01*
X0020049Y0026926D01*
X0020094Y0027067D01*
X0020142Y0027207D01*
X0020195Y0027346D01*
X0020251Y0027483D01*
X0020311Y0027618D01*
X0020374Y0027752D01*
X0020441Y0027884D01*
X0020512Y0028014D01*
X0020586Y0028142D01*
X0020663Y0028268D01*
X0020744Y0028392D01*
X0020828Y0028514D01*
X0020915Y0028633D01*
X0021006Y0028750D01*
X0021100Y0028865D01*
X0021196Y0028977D01*
X0021296Y0029087D01*
X0021398Y0029193D01*
X0021504Y0029297D01*
X0021612Y0029398D01*
X0021723Y0029496D01*
X0021836Y0029592D01*
X0021952Y0029684D01*
X0022070Y0029773D01*
X0022191Y0029858D01*
X0022314Y0029941D01*
X0022439Y0030020D01*
X0022566Y0030096D01*
X0022695Y0030168D01*
X0022826Y0030237D01*
X0022959Y0030302D01*
X0023094Y0030363D01*
X0023230Y0030421D01*
X0023367Y0030476D01*
X0023506Y0030526D01*
X0023647Y0030573D01*
X0023788Y0030616D01*
X0023931Y0030656D01*
X0024075Y0030691D01*
X0024219Y0030723D01*
X0024365Y0030750D01*
X0024511Y0030774D01*
X0024658Y0030794D01*
X0024805Y0030810D01*
X0024952Y0030822D01*
X0025100Y0030830D01*
X0025248Y0030834D01*
X0025396Y0030834D01*
X0025544Y0030830D01*
X0025692Y0030822D01*
X0025839Y0030810D01*
X0025986Y0030794D01*
X0026133Y0030774D01*
X0026279Y0030750D01*
X0026425Y0030723D01*
X0026569Y0030691D01*
X0026713Y0030656D01*
X0026856Y0030616D01*
X0026997Y0030573D01*
X0027138Y0030526D01*
X0027277Y0030476D01*
X0027414Y0030421D01*
X0027550Y0030363D01*
X0027685Y0030302D01*
X0027818Y0030237D01*
X0027949Y0030168D01*
X0028078Y0030096D01*
X0028205Y0030020D01*
X0028330Y0029941D01*
X0028453Y0029858D01*
X0028574Y0029773D01*
X0028692Y0029684D01*
X0028808Y0029592D01*
X0028921Y0029496D01*
X0029032Y0029398D01*
X0029140Y0029297D01*
X0029246Y0029193D01*
X0029348Y0029087D01*
X0029448Y0028977D01*
X0029544Y0028865D01*
X0029638Y0028750D01*
X0029729Y0028633D01*
X0029816Y0028514D01*
X0029900Y0028392D01*
X0029981Y0028268D01*
X0030058Y0028142D01*
X0030132Y0028014D01*
X0030203Y0027884D01*
X0030270Y0027752D01*
X0030333Y0027618D01*
X0030393Y0027483D01*
X0030449Y0027346D01*
X0030502Y0027207D01*
X0030550Y0027067D01*
X0030595Y0026926D01*
X0030636Y0026784D01*
X0030674Y0026641D01*
X0030707Y0026497D01*
X0030737Y0026352D01*
X0030763Y0026206D01*
X0030784Y0026060D01*
X0030802Y0025913D01*
X0030816Y0025766D01*
X0030826Y0025618D01*
X0030832Y0025470D01*
X0030834Y0025322D01*
X0030832Y0025174D01*
X0030826Y0025026D01*
X0030816Y0024878D01*
X0030802Y0024731D01*
X0030784Y0024584D01*
X0030763Y0024438D01*
X0030737Y0024292D01*
X0030707Y0024147D01*
X0030674Y0024003D01*
X0030636Y0023860D01*
X0030595Y0023718D01*
X0030550Y0023577D01*
X0030502Y0023437D01*
X0030449Y0023298D01*
X0030393Y0023161D01*
X0030333Y0023026D01*
X0030270Y0022892D01*
X0030203Y0022760D01*
X0030132Y0022630D01*
X0030058Y0022502D01*
X0029981Y0022376D01*
X0029900Y0022252D01*
X0029816Y0022130D01*
X0029729Y0022011D01*
X0029638Y0021894D01*
X0029544Y0021779D01*
X0029448Y0021667D01*
X0029348Y0021557D01*
X0029246Y0021451D01*
X0029140Y0021347D01*
X0029032Y0021246D01*
X0028921Y0021148D01*
X0028808Y0021052D01*
X0028692Y0020960D01*
X0028574Y0020871D01*
X0028453Y0020786D01*
X0028330Y0020703D01*
X0028205Y0020624D01*
X0028078Y0020548D01*
X0027949Y0020476D01*
X0027818Y0020407D01*
X0027685Y0020342D01*
X0027550Y0020281D01*
X0027414Y0020223D01*
X0027277Y0020168D01*
X0027138Y0020118D01*
X0026997Y0020071D01*
X0026856Y0020028D01*
X0026713Y0019988D01*
X0026569Y0019953D01*
X0026425Y0019921D01*
X0026279Y0019894D01*
X0026133Y0019870D01*
X0025986Y0019850D01*
X0025839Y0019834D01*
X0025692Y0019822D01*
X0025544Y0019814D01*
X0025396Y0019810D01*
X0025248Y0019810D01*
X0025100Y0019814D01*
X0024952Y0019822D01*
X0024805Y0019834D01*
X0024658Y0019850D01*
X0024511Y0019870D01*
X0024365Y0019894D01*
X0024219Y0019921D01*
X0024075Y0019953D01*
X0023931Y0019988D01*
X0023788Y0020028D01*
X0023647Y0020071D01*
X0023506Y0020118D01*
X0023367Y0020168D01*
X0023230Y0020223D01*
X0023094Y0020281D01*
X0022959Y0020342D01*
X0022826Y0020407D01*
X0022695Y0020476D01*
X0022566Y0020548D01*
X0022439Y0020624D01*
X0022314Y0020703D01*
X0022191Y0020786D01*
X0022070Y0020871D01*
X0021952Y0020960D01*
X0021836Y0021052D01*
X0021723Y0021148D01*
X0021612Y0021246D01*
X0021504Y0021347D01*
X0021398Y0021451D01*
X0021296Y0021557D01*
X0021196Y0021667D01*
X0021100Y0021779D01*
X0021006Y0021894D01*
X0020915Y0022011D01*
X0020828Y0022130D01*
X0020744Y0022252D01*
X0020663Y0022376D01*
X0020586Y0022502D01*
X0020512Y0022630D01*
X0020441Y0022760D01*
X0020374Y0022892D01*
X0020311Y0023026D01*
X0020251Y0023161D01*
X0020195Y0023298D01*
X0020142Y0023437D01*
X0020094Y0023577D01*
X0020049Y0023718D01*
X0020008Y0023860D01*
X0019970Y0024003D01*
X0019937Y0024147D01*
X0019907Y0024292D01*
X0019881Y0024438D01*
X0019860Y0024584D01*
X0019842Y0024731D01*
X0019828Y0024878D01*
X0019818Y0025026D01*
X0019812Y0025174D01*
X0019810Y0025322D01*
X0019810Y0190676D02*
X0019812Y0190824D01*
X0019818Y0190972D01*
X0019828Y0191120D01*
X0019842Y0191267D01*
X0019860Y0191414D01*
X0019881Y0191560D01*
X0019907Y0191706D01*
X0019937Y0191851D01*
X0019970Y0191995D01*
X0020008Y0192138D01*
X0020049Y0192280D01*
X0020094Y0192421D01*
X0020142Y0192561D01*
X0020195Y0192700D01*
X0020251Y0192837D01*
X0020311Y0192972D01*
X0020374Y0193106D01*
X0020441Y0193238D01*
X0020512Y0193368D01*
X0020586Y0193496D01*
X0020663Y0193622D01*
X0020744Y0193746D01*
X0020828Y0193868D01*
X0020915Y0193987D01*
X0021006Y0194104D01*
X0021100Y0194219D01*
X0021196Y0194331D01*
X0021296Y0194441D01*
X0021398Y0194547D01*
X0021504Y0194651D01*
X0021612Y0194752D01*
X0021723Y0194850D01*
X0021836Y0194946D01*
X0021952Y0195038D01*
X0022070Y0195127D01*
X0022191Y0195212D01*
X0022314Y0195295D01*
X0022439Y0195374D01*
X0022566Y0195450D01*
X0022695Y0195522D01*
X0022826Y0195591D01*
X0022959Y0195656D01*
X0023094Y0195717D01*
X0023230Y0195775D01*
X0023367Y0195830D01*
X0023506Y0195880D01*
X0023647Y0195927D01*
X0023788Y0195970D01*
X0023931Y0196010D01*
X0024075Y0196045D01*
X0024219Y0196077D01*
X0024365Y0196104D01*
X0024511Y0196128D01*
X0024658Y0196148D01*
X0024805Y0196164D01*
X0024952Y0196176D01*
X0025100Y0196184D01*
X0025248Y0196188D01*
X0025396Y0196188D01*
X0025544Y0196184D01*
X0025692Y0196176D01*
X0025839Y0196164D01*
X0025986Y0196148D01*
X0026133Y0196128D01*
X0026279Y0196104D01*
X0026425Y0196077D01*
X0026569Y0196045D01*
X0026713Y0196010D01*
X0026856Y0195970D01*
X0026997Y0195927D01*
X0027138Y0195880D01*
X0027277Y0195830D01*
X0027414Y0195775D01*
X0027550Y0195717D01*
X0027685Y0195656D01*
X0027818Y0195591D01*
X0027949Y0195522D01*
X0028078Y0195450D01*
X0028205Y0195374D01*
X0028330Y0195295D01*
X0028453Y0195212D01*
X0028574Y0195127D01*
X0028692Y0195038D01*
X0028808Y0194946D01*
X0028921Y0194850D01*
X0029032Y0194752D01*
X0029140Y0194651D01*
X0029246Y0194547D01*
X0029348Y0194441D01*
X0029448Y0194331D01*
X0029544Y0194219D01*
X0029638Y0194104D01*
X0029729Y0193987D01*
X0029816Y0193868D01*
X0029900Y0193746D01*
X0029981Y0193622D01*
X0030058Y0193496D01*
X0030132Y0193368D01*
X0030203Y0193238D01*
X0030270Y0193106D01*
X0030333Y0192972D01*
X0030393Y0192837D01*
X0030449Y0192700D01*
X0030502Y0192561D01*
X0030550Y0192421D01*
X0030595Y0192280D01*
X0030636Y0192138D01*
X0030674Y0191995D01*
X0030707Y0191851D01*
X0030737Y0191706D01*
X0030763Y0191560D01*
X0030784Y0191414D01*
X0030802Y0191267D01*
X0030816Y0191120D01*
X0030826Y0190972D01*
X0030832Y0190824D01*
X0030834Y0190676D01*
X0030832Y0190528D01*
X0030826Y0190380D01*
X0030816Y0190232D01*
X0030802Y0190085D01*
X0030784Y0189938D01*
X0030763Y0189792D01*
X0030737Y0189646D01*
X0030707Y0189501D01*
X0030674Y0189357D01*
X0030636Y0189214D01*
X0030595Y0189072D01*
X0030550Y0188931D01*
X0030502Y0188791D01*
X0030449Y0188652D01*
X0030393Y0188515D01*
X0030333Y0188380D01*
X0030270Y0188246D01*
X0030203Y0188114D01*
X0030132Y0187984D01*
X0030058Y0187856D01*
X0029981Y0187730D01*
X0029900Y0187606D01*
X0029816Y0187484D01*
X0029729Y0187365D01*
X0029638Y0187248D01*
X0029544Y0187133D01*
X0029448Y0187021D01*
X0029348Y0186911D01*
X0029246Y0186805D01*
X0029140Y0186701D01*
X0029032Y0186600D01*
X0028921Y0186502D01*
X0028808Y0186406D01*
X0028692Y0186314D01*
X0028574Y0186225D01*
X0028453Y0186140D01*
X0028330Y0186057D01*
X0028205Y0185978D01*
X0028078Y0185902D01*
X0027949Y0185830D01*
X0027818Y0185761D01*
X0027685Y0185696D01*
X0027550Y0185635D01*
X0027414Y0185577D01*
X0027277Y0185522D01*
X0027138Y0185472D01*
X0026997Y0185425D01*
X0026856Y0185382D01*
X0026713Y0185342D01*
X0026569Y0185307D01*
X0026425Y0185275D01*
X0026279Y0185248D01*
X0026133Y0185224D01*
X0025986Y0185204D01*
X0025839Y0185188D01*
X0025692Y0185176D01*
X0025544Y0185168D01*
X0025396Y0185164D01*
X0025248Y0185164D01*
X0025100Y0185168D01*
X0024952Y0185176D01*
X0024805Y0185188D01*
X0024658Y0185204D01*
X0024511Y0185224D01*
X0024365Y0185248D01*
X0024219Y0185275D01*
X0024075Y0185307D01*
X0023931Y0185342D01*
X0023788Y0185382D01*
X0023647Y0185425D01*
X0023506Y0185472D01*
X0023367Y0185522D01*
X0023230Y0185577D01*
X0023094Y0185635D01*
X0022959Y0185696D01*
X0022826Y0185761D01*
X0022695Y0185830D01*
X0022566Y0185902D01*
X0022439Y0185978D01*
X0022314Y0186057D01*
X0022191Y0186140D01*
X0022070Y0186225D01*
X0021952Y0186314D01*
X0021836Y0186406D01*
X0021723Y0186502D01*
X0021612Y0186600D01*
X0021504Y0186701D01*
X0021398Y0186805D01*
X0021296Y0186911D01*
X0021196Y0187021D01*
X0021100Y0187133D01*
X0021006Y0187248D01*
X0020915Y0187365D01*
X0020828Y0187484D01*
X0020744Y0187606D01*
X0020663Y0187730D01*
X0020586Y0187856D01*
X0020512Y0187984D01*
X0020441Y0188114D01*
X0020374Y0188246D01*
X0020311Y0188380D01*
X0020251Y0188515D01*
X0020195Y0188652D01*
X0020142Y0188791D01*
X0020094Y0188931D01*
X0020049Y0189072D01*
X0020008Y0189214D01*
X0019970Y0189357D01*
X0019937Y0189501D01*
X0019907Y0189646D01*
X0019881Y0189792D01*
X0019860Y0189938D01*
X0019842Y0190085D01*
X0019828Y0190232D01*
X0019818Y0190380D01*
X0019812Y0190528D01*
X0019810Y0190676D01*
X0185164Y0025322D02*
X0185166Y0025470D01*
X0185172Y0025618D01*
X0185182Y0025766D01*
X0185196Y0025913D01*
X0185214Y0026060D01*
X0185235Y0026206D01*
X0185261Y0026352D01*
X0185291Y0026497D01*
X0185324Y0026641D01*
X0185362Y0026784D01*
X0185403Y0026926D01*
X0185448Y0027067D01*
X0185496Y0027207D01*
X0185549Y0027346D01*
X0185605Y0027483D01*
X0185665Y0027618D01*
X0185728Y0027752D01*
X0185795Y0027884D01*
X0185866Y0028014D01*
X0185940Y0028142D01*
X0186017Y0028268D01*
X0186098Y0028392D01*
X0186182Y0028514D01*
X0186269Y0028633D01*
X0186360Y0028750D01*
X0186454Y0028865D01*
X0186550Y0028977D01*
X0186650Y0029087D01*
X0186752Y0029193D01*
X0186858Y0029297D01*
X0186966Y0029398D01*
X0187077Y0029496D01*
X0187190Y0029592D01*
X0187306Y0029684D01*
X0187424Y0029773D01*
X0187545Y0029858D01*
X0187668Y0029941D01*
X0187793Y0030020D01*
X0187920Y0030096D01*
X0188049Y0030168D01*
X0188180Y0030237D01*
X0188313Y0030302D01*
X0188448Y0030363D01*
X0188584Y0030421D01*
X0188721Y0030476D01*
X0188860Y0030526D01*
X0189001Y0030573D01*
X0189142Y0030616D01*
X0189285Y0030656D01*
X0189429Y0030691D01*
X0189573Y0030723D01*
X0189719Y0030750D01*
X0189865Y0030774D01*
X0190012Y0030794D01*
X0190159Y0030810D01*
X0190306Y0030822D01*
X0190454Y0030830D01*
X0190602Y0030834D01*
X0190750Y0030834D01*
X0190898Y0030830D01*
X0191046Y0030822D01*
X0191193Y0030810D01*
X0191340Y0030794D01*
X0191487Y0030774D01*
X0191633Y0030750D01*
X0191779Y0030723D01*
X0191923Y0030691D01*
X0192067Y0030656D01*
X0192210Y0030616D01*
X0192351Y0030573D01*
X0192492Y0030526D01*
X0192631Y0030476D01*
X0192768Y0030421D01*
X0192904Y0030363D01*
X0193039Y0030302D01*
X0193172Y0030237D01*
X0193303Y0030168D01*
X0193432Y0030096D01*
X0193559Y0030020D01*
X0193684Y0029941D01*
X0193807Y0029858D01*
X0193928Y0029773D01*
X0194046Y0029684D01*
X0194162Y0029592D01*
X0194275Y0029496D01*
X0194386Y0029398D01*
X0194494Y0029297D01*
X0194600Y0029193D01*
X0194702Y0029087D01*
X0194802Y0028977D01*
X0194898Y0028865D01*
X0194992Y0028750D01*
X0195083Y0028633D01*
X0195170Y0028514D01*
X0195254Y0028392D01*
X0195335Y0028268D01*
X0195412Y0028142D01*
X0195486Y0028014D01*
X0195557Y0027884D01*
X0195624Y0027752D01*
X0195687Y0027618D01*
X0195747Y0027483D01*
X0195803Y0027346D01*
X0195856Y0027207D01*
X0195904Y0027067D01*
X0195949Y0026926D01*
X0195990Y0026784D01*
X0196028Y0026641D01*
X0196061Y0026497D01*
X0196091Y0026352D01*
X0196117Y0026206D01*
X0196138Y0026060D01*
X0196156Y0025913D01*
X0196170Y0025766D01*
X0196180Y0025618D01*
X0196186Y0025470D01*
X0196188Y0025322D01*
X0196186Y0025174D01*
X0196180Y0025026D01*
X0196170Y0024878D01*
X0196156Y0024731D01*
X0196138Y0024584D01*
X0196117Y0024438D01*
X0196091Y0024292D01*
X0196061Y0024147D01*
X0196028Y0024003D01*
X0195990Y0023860D01*
X0195949Y0023718D01*
X0195904Y0023577D01*
X0195856Y0023437D01*
X0195803Y0023298D01*
X0195747Y0023161D01*
X0195687Y0023026D01*
X0195624Y0022892D01*
X0195557Y0022760D01*
X0195486Y0022630D01*
X0195412Y0022502D01*
X0195335Y0022376D01*
X0195254Y0022252D01*
X0195170Y0022130D01*
X0195083Y0022011D01*
X0194992Y0021894D01*
X0194898Y0021779D01*
X0194802Y0021667D01*
X0194702Y0021557D01*
X0194600Y0021451D01*
X0194494Y0021347D01*
X0194386Y0021246D01*
X0194275Y0021148D01*
X0194162Y0021052D01*
X0194046Y0020960D01*
X0193928Y0020871D01*
X0193807Y0020786D01*
X0193684Y0020703D01*
X0193559Y0020624D01*
X0193432Y0020548D01*
X0193303Y0020476D01*
X0193172Y0020407D01*
X0193039Y0020342D01*
X0192904Y0020281D01*
X0192768Y0020223D01*
X0192631Y0020168D01*
X0192492Y0020118D01*
X0192351Y0020071D01*
X0192210Y0020028D01*
X0192067Y0019988D01*
X0191923Y0019953D01*
X0191779Y0019921D01*
X0191633Y0019894D01*
X0191487Y0019870D01*
X0191340Y0019850D01*
X0191193Y0019834D01*
X0191046Y0019822D01*
X0190898Y0019814D01*
X0190750Y0019810D01*
X0190602Y0019810D01*
X0190454Y0019814D01*
X0190306Y0019822D01*
X0190159Y0019834D01*
X0190012Y0019850D01*
X0189865Y0019870D01*
X0189719Y0019894D01*
X0189573Y0019921D01*
X0189429Y0019953D01*
X0189285Y0019988D01*
X0189142Y0020028D01*
X0189001Y0020071D01*
X0188860Y0020118D01*
X0188721Y0020168D01*
X0188584Y0020223D01*
X0188448Y0020281D01*
X0188313Y0020342D01*
X0188180Y0020407D01*
X0188049Y0020476D01*
X0187920Y0020548D01*
X0187793Y0020624D01*
X0187668Y0020703D01*
X0187545Y0020786D01*
X0187424Y0020871D01*
X0187306Y0020960D01*
X0187190Y0021052D01*
X0187077Y0021148D01*
X0186966Y0021246D01*
X0186858Y0021347D01*
X0186752Y0021451D01*
X0186650Y0021557D01*
X0186550Y0021667D01*
X0186454Y0021779D01*
X0186360Y0021894D01*
X0186269Y0022011D01*
X0186182Y0022130D01*
X0186098Y0022252D01*
X0186017Y0022376D01*
X0185940Y0022502D01*
X0185866Y0022630D01*
X0185795Y0022760D01*
X0185728Y0022892D01*
X0185665Y0023026D01*
X0185605Y0023161D01*
X0185549Y0023298D01*
X0185496Y0023437D01*
X0185448Y0023577D01*
X0185403Y0023718D01*
X0185362Y0023860D01*
X0185324Y0024003D01*
X0185291Y0024147D01*
X0185261Y0024292D01*
X0185235Y0024438D01*
X0185214Y0024584D01*
X0185196Y0024731D01*
X0185182Y0024878D01*
X0185172Y0025026D01*
X0185166Y0025174D01*
X0185164Y0025322D01*
D11*
X0179875Y0066633D03*
X0179875Y0073326D03*
X0179631Y0080431D03*
X0179631Y0087123D03*
X0174134Y0141796D03*
X0174134Y0148489D03*
X0165611Y0148475D03*
X0165611Y0141782D03*
X0158907Y0141640D03*
X0152215Y0141640D03*
X0091688Y0118579D03*
X0084995Y0118579D03*
X0077372Y0117901D03*
X0077372Y0111208D03*
X0057370Y0084504D03*
X0050677Y0084504D03*
X0050677Y0069010D03*
X0057370Y0069010D03*
D12*
X0057370Y0060882D03*
X0050677Y0060882D03*
X0111637Y0055040D03*
X0118330Y0055040D03*
X0116538Y0031345D03*
X0123230Y0031345D03*
X0170762Y0058178D03*
X0177455Y0058178D03*
X0074523Y0190811D03*
X0074523Y0197504D03*
D13*
X0098705Y0162141D03*
X0098705Y0152141D03*
X0108705Y0152141D03*
X0108705Y0162141D03*
X0118705Y0162141D03*
X0118705Y0152141D03*
X0030292Y0154263D03*
X0030292Y0164263D03*
X0030292Y0174263D03*
X0115020Y0020314D03*
X0125020Y0020314D03*
X0135020Y0020314D03*
X0145020Y0020314D03*
X0155020Y0020314D03*
X0165020Y0020314D03*
D14*
X0014495Y0042743D03*
X0014495Y0070893D03*
X0014495Y0093924D03*
X0014495Y0122074D03*
D15*
X0025125Y0117448D03*
X0025125Y0098550D03*
X0025125Y0066267D03*
X0025125Y0047369D03*
D16*
X0025322Y0051700D03*
X0025322Y0054259D03*
X0025322Y0056818D03*
X0025322Y0059377D03*
X0025322Y0061936D03*
X0025322Y0102881D03*
X0025322Y0105440D03*
X0025322Y0107999D03*
X0025322Y0110558D03*
X0025322Y0113117D03*
D17*
X0060501Y0190375D03*
X0060501Y0200375D03*
X0095934Y0200375D03*
X0095934Y0190375D03*
X0119556Y0190375D03*
X0119556Y0200375D03*
X0143178Y0200375D03*
X0143178Y0190375D03*
D18*
X0104946Y0044934D03*
X0104946Y0030367D03*
X0080536Y0030367D03*
X0080536Y0044934D03*
D19*
X0153151Y0117308D03*
X0153151Y0122308D03*
X0153151Y0127308D03*
X0153151Y0132308D03*
X0173623Y0132308D03*
X0173623Y0127308D03*
X0173623Y0122308D03*
X0173623Y0117308D03*
D20*
X0161550Y0064480D03*
X0161550Y0061331D03*
X0161550Y0058181D03*
X0161550Y0055031D03*
X0161550Y0051882D03*
X0161550Y0048732D03*
X0161550Y0045583D03*
X0161550Y0042433D03*
X0127750Y0042433D03*
X0127750Y0045583D03*
X0127750Y0048732D03*
X0127750Y0051882D03*
X0127750Y0055031D03*
X0127750Y0058181D03*
X0127750Y0061331D03*
X0127750Y0064480D03*
D21*
X0133627Y0070357D03*
X0136776Y0070357D03*
X0139926Y0070357D03*
X0143076Y0070357D03*
X0146225Y0070357D03*
X0149375Y0070357D03*
X0152524Y0070357D03*
X0155674Y0070357D03*
X0155674Y0036557D03*
X0152524Y0036557D03*
X0149375Y0036557D03*
X0146225Y0036557D03*
X0143076Y0036557D03*
X0139926Y0036557D03*
X0136776Y0036557D03*
X0133627Y0036557D03*
D22*
X0088444Y0102791D03*
X0091944Y0110791D03*
X0084944Y0110791D03*
D23*
X0194523Y0090263D03*
X0194523Y0051680D03*
D24*
X0181823Y0106158D02*
X0181823Y0110158D01*
X0176823Y0110158D02*
X0176823Y0106158D01*
X0171823Y0106158D02*
X0171823Y0110158D01*
X0166823Y0110158D02*
X0166823Y0106158D01*
X0161823Y0106158D02*
X0161823Y0110158D01*
X0156823Y0110158D02*
X0156823Y0106158D01*
X0151823Y0106158D02*
X0151823Y0110158D01*
X0146823Y0110158D02*
X0146823Y0106158D01*
D25*
X0113383Y0015168D02*
X0016033Y0015168D01*
X0016880Y0014321D02*
X0014321Y0016880D01*
X0014321Y0016880D01*
X0012511Y0020015D01*
X0011574Y0023512D01*
X0011455Y0025322D01*
X0011455Y0039605D01*
X0012021Y0039040D01*
X0013626Y0038375D01*
X0015364Y0038375D01*
X0016970Y0039040D01*
X0018199Y0040269D01*
X0018864Y0041874D01*
X0018864Y0043612D01*
X0018199Y0045218D01*
X0016970Y0046447D01*
X0015364Y0047112D01*
X0013626Y0047112D01*
X0012021Y0046447D01*
X0011455Y0045881D01*
X0011455Y0067755D01*
X0012021Y0067189D01*
X0013626Y0066524D01*
X0015364Y0066524D01*
X0016970Y0067189D01*
X0018199Y0068418D01*
X0018864Y0070024D01*
X0018864Y0071762D01*
X0018199Y0073367D01*
X0016970Y0074596D01*
X0015364Y0075261D01*
X0013626Y0075261D01*
X0012021Y0074596D01*
X0011455Y0074031D01*
X0011455Y0090787D01*
X0012021Y0090221D01*
X0013626Y0089556D01*
X0015364Y0089556D01*
X0016970Y0090221D01*
X0018199Y0091450D01*
X0018864Y0093055D01*
X0018864Y0094793D01*
X0018199Y0096399D01*
X0016970Y0097628D01*
X0015364Y0098293D01*
X0013626Y0098293D01*
X0012021Y0097628D01*
X0011455Y0097062D01*
X0011455Y0118936D01*
X0012021Y0118371D01*
X0013626Y0117706D01*
X0015364Y0117706D01*
X0016970Y0118371D01*
X0018199Y0119599D01*
X0018864Y0121205D01*
X0018864Y0122943D01*
X0018199Y0124549D01*
X0016970Y0125777D01*
X0015364Y0126443D01*
X0013626Y0126443D01*
X0012021Y0125777D01*
X0011455Y0125212D01*
X0011455Y0190676D01*
X0011574Y0192486D01*
X0012511Y0195983D01*
X0014321Y0199118D01*
X0016880Y0201678D01*
X0020015Y0203488D01*
X0023512Y0204425D01*
X0025322Y0204543D01*
X0058022Y0204543D01*
X0055801Y0202322D01*
X0055801Y0198429D01*
X0058554Y0195675D01*
X0062231Y0195675D01*
X0062502Y0195404D01*
X0070958Y0195404D01*
X0070958Y0194956D01*
X0071605Y0194308D01*
X0071314Y0194140D01*
X0070997Y0193824D01*
X0070773Y0193436D01*
X0070658Y0193004D01*
X0070658Y0191096D01*
X0074239Y0191096D01*
X0074239Y0190527D01*
X0074807Y0190527D01*
X0074807Y0187143D01*
X0076912Y0187143D01*
X0077344Y0187259D01*
X0077732Y0187483D01*
X0078049Y0187799D01*
X0078272Y0188187D01*
X0078388Y0188619D01*
X0078388Y0190527D01*
X0074807Y0190527D01*
X0074807Y0191096D01*
X0078388Y0191096D01*
X0078388Y0193004D01*
X0078272Y0193436D01*
X0078049Y0193824D01*
X0077732Y0194140D01*
X0077441Y0194308D01*
X0078088Y0194956D01*
X0078088Y0200053D01*
X0077268Y0200873D01*
X0071778Y0200873D01*
X0070958Y0200053D01*
X0070958Y0199604D01*
X0065201Y0199604D01*
X0065201Y0202322D01*
X0062980Y0204543D01*
X0093455Y0204543D01*
X0091234Y0202322D01*
X0091234Y0198429D01*
X0093987Y0195675D01*
X0097881Y0195675D01*
X0100634Y0198429D01*
X0100634Y0202322D01*
X0098413Y0204543D01*
X0117077Y0204543D01*
X0114856Y0202322D01*
X0114856Y0198429D01*
X0117609Y0195675D01*
X0121503Y0195675D01*
X0124256Y0198429D01*
X0124256Y0202322D01*
X0122035Y0204543D01*
X0140699Y0204543D01*
X0138478Y0202322D01*
X0138478Y0198429D01*
X0141231Y0195675D01*
X0145125Y0195675D01*
X0147878Y0198429D01*
X0147878Y0202322D01*
X0145657Y0204543D01*
X0190676Y0204543D01*
X0192486Y0204425D01*
X0195983Y0203488D01*
X0199118Y0201678D01*
X0201678Y0199118D01*
X0203488Y0195983D01*
X0204425Y0192486D01*
X0204543Y0190676D01*
X0204543Y0025322D01*
X0204425Y0023512D01*
X0203488Y0020015D01*
X0201678Y0016880D01*
X0199118Y0014321D01*
X0195983Y0012511D01*
X0192486Y0011574D01*
X0190676Y0011455D01*
X0025322Y0011455D01*
X0023512Y0011574D01*
X0020015Y0012511D01*
X0016880Y0014321D01*
X0017835Y0013770D02*
X0137664Y0013770D01*
X0138157Y0013276D02*
X0136165Y0015268D01*
X0136034Y0015214D01*
X0134006Y0015214D01*
X0132131Y0015990D01*
X0130696Y0017425D01*
X0130171Y0018693D01*
X0130024Y0018241D01*
X0129638Y0017484D01*
X0129139Y0016796D01*
X0128538Y0016195D01*
X0127850Y0015696D01*
X0127093Y0015310D01*
X0126285Y0015047D01*
X0125445Y0014914D01*
X0125320Y0014914D01*
X0125320Y0020014D01*
X0124720Y0020014D01*
X0124720Y0014914D01*
X0124595Y0014914D01*
X0123755Y0015047D01*
X0122947Y0015310D01*
X0122190Y0015696D01*
X0121502Y0016195D01*
X0120901Y0016796D01*
X0120402Y0017484D01*
X0120020Y0018233D01*
X0119638Y0017484D01*
X0119139Y0016796D01*
X0118538Y0016195D01*
X0117850Y0015696D01*
X0117093Y0015310D01*
X0116285Y0015047D01*
X0115445Y0014914D01*
X0115320Y0014914D01*
X0115320Y0020014D01*
X0114720Y0020014D01*
X0114720Y0014914D01*
X0114595Y0014914D01*
X0113755Y0015047D01*
X0112947Y0015310D01*
X0112190Y0015696D01*
X0111502Y0016195D01*
X0110901Y0016796D01*
X0110402Y0017484D01*
X0110016Y0018241D01*
X0109753Y0019049D01*
X0109620Y0019889D01*
X0109620Y0020014D01*
X0114720Y0020014D01*
X0114720Y0020614D01*
X0109620Y0020614D01*
X0109620Y0020739D01*
X0109753Y0021579D01*
X0110016Y0022387D01*
X0110402Y0023144D01*
X0110901Y0023832D01*
X0111502Y0024433D01*
X0112190Y0024932D01*
X0112947Y0025318D01*
X0113755Y0025581D01*
X0114595Y0025714D01*
X0114720Y0025714D01*
X0114720Y0020614D01*
X0115320Y0020614D01*
X0120420Y0020614D01*
X0124720Y0020614D01*
X0124720Y0025714D01*
X0124595Y0025714D01*
X0123755Y0025581D01*
X0122947Y0025318D01*
X0122190Y0024932D01*
X0121502Y0024433D01*
X0120901Y0023832D01*
X0120402Y0023144D01*
X0120020Y0022395D01*
X0119638Y0023144D01*
X0119139Y0023832D01*
X0118538Y0024433D01*
X0117850Y0024932D01*
X0117093Y0025318D01*
X0116285Y0025581D01*
X0115445Y0025714D01*
X0115320Y0025714D01*
X0115320Y0020614D01*
X0115320Y0020014D01*
X0124720Y0020014D01*
X0124720Y0020614D01*
X0125320Y0020614D01*
X0125320Y0025714D01*
X0125445Y0025714D01*
X0126285Y0025581D01*
X0127023Y0025341D01*
X0124388Y0027977D01*
X0120485Y0027977D01*
X0120087Y0028374D01*
X0120063Y0028333D01*
X0119747Y0028016D01*
X0119359Y0027792D01*
X0118927Y0027677D01*
X0116822Y0027677D01*
X0116822Y0031061D01*
X0116253Y0031061D01*
X0112672Y0031061D01*
X0112672Y0029153D01*
X0109889Y0029153D01*
X0109889Y0027755D02*
X0113857Y0027755D01*
X0113716Y0027792D02*
X0114148Y0027677D01*
X0116253Y0027676D01*
X0116253Y0031061D01*
X0116253Y0031629D01*
X0112672Y0031629D01*
X0112672Y0033537D01*
X0112788Y0033970D01*
X0113012Y0034357D01*
X0113328Y0034674D01*
X0113716Y0034898D01*
X0114148Y0035013D01*
X0116253Y0035013D01*
X0116253Y0031629D01*
X0116822Y0031629D01*
X0116822Y0035013D01*
X0118927Y0035013D01*
X0119359Y0034898D01*
X0119747Y0034674D01*
X0120063Y0034357D01*
X0120087Y0034316D01*
X0120485Y0034713D01*
X0125145Y0034713D01*
X0123763Y0036095D01*
X0113190Y0036095D01*
X0109889Y0032795D01*
X0109889Y0027622D01*
X0109069Y0026802D01*
X0100823Y0026802D01*
X0100002Y0027622D01*
X0100002Y0028567D01*
X0085480Y0028567D01*
X0085480Y0027622D01*
X0084660Y0026802D01*
X0076413Y0026802D01*
X0075593Y0027622D01*
X0075593Y0033113D01*
X0076413Y0033933D01*
X0084660Y0033933D01*
X0085480Y0033113D01*
X0085480Y0032167D01*
X0100002Y0032167D01*
X0100002Y0033113D01*
X0100823Y0033933D01*
X0105936Y0033933D01*
X0107334Y0035331D01*
X0074807Y0035208D01*
X0074661Y0035106D01*
X0074082Y0035205D01*
X0073493Y0035203D01*
X0073367Y0035328D01*
X0073192Y0035359D01*
X0072852Y0035839D01*
X0072435Y0036254D01*
X0072434Y0036431D01*
X0057545Y0057513D01*
X0054625Y0057513D01*
X0054227Y0057911D01*
X0054203Y0057869D01*
X0053886Y0057553D01*
X0053498Y0057329D01*
X0053066Y0057213D01*
X0050961Y0057213D01*
X0050961Y0060597D01*
X0050393Y0060597D01*
X0050393Y0057213D01*
X0048288Y0057213D01*
X0047855Y0057329D01*
X0047468Y0057553D01*
X0047151Y0057869D01*
X0046927Y0058257D01*
X0046812Y0058689D01*
X0046812Y0060597D01*
X0050393Y0060597D01*
X0050393Y0061166D01*
X0050393Y0064550D01*
X0048288Y0064550D01*
X0047855Y0064434D01*
X0047468Y0064211D01*
X0047151Y0063894D01*
X0046927Y0063506D01*
X0046812Y0063074D01*
X0046812Y0061166D01*
X0050393Y0061166D01*
X0050961Y0061166D01*
X0050961Y0064550D01*
X0053066Y0064550D01*
X0053498Y0064434D01*
X0053886Y0064211D01*
X0054203Y0063894D01*
X0054227Y0063852D01*
X0054625Y0064250D01*
X0055570Y0064250D01*
X0055570Y0065444D01*
X0054821Y0065444D01*
X0054174Y0066092D01*
X0054006Y0065801D01*
X0053689Y0065484D01*
X0053302Y0065260D01*
X0052869Y0065144D01*
X0050961Y0065144D01*
X0050961Y0068725D01*
X0050393Y0068725D01*
X0050393Y0065144D01*
X0048485Y0065144D01*
X0048052Y0065260D01*
X0047665Y0065484D01*
X0047348Y0065801D01*
X0047124Y0066188D01*
X0047008Y0066621D01*
X0047008Y0068725D01*
X0050393Y0068725D01*
X0050393Y0069294D01*
X0050393Y0072875D01*
X0048485Y0072875D01*
X0048052Y0072759D01*
X0047665Y0072535D01*
X0047348Y0072219D01*
X0047124Y0071831D01*
X0047008Y0071399D01*
X0047008Y0069294D01*
X0050393Y0069294D01*
X0050961Y0069294D01*
X0050961Y0072875D01*
X0052869Y0072875D01*
X0053302Y0072759D01*
X0053689Y0072535D01*
X0054006Y0072219D01*
X0054174Y0071928D01*
X0054821Y0072575D01*
X0055570Y0072575D01*
X0055570Y0080938D01*
X0054821Y0080938D01*
X0054023Y0081736D01*
X0053225Y0080938D01*
X0048129Y0080938D01*
X0047308Y0081759D01*
X0047308Y0087249D01*
X0048129Y0088069D01*
X0048577Y0088069D01*
X0048577Y0133008D01*
X0032095Y0149490D01*
X0031307Y0149163D01*
X0029278Y0149163D01*
X0027403Y0149939D01*
X0026274Y0151069D01*
X0026274Y0137718D01*
X0034867Y0122251D01*
X0035274Y0121844D01*
X0035274Y0121518D01*
X0035432Y0121233D01*
X0035274Y0120680D01*
X0035274Y0064908D01*
X0031521Y0061155D01*
X0030291Y0059925D01*
X0029084Y0059925D01*
X0029084Y0058618D01*
X0029133Y0058618D01*
X0029384Y0058755D01*
X0029851Y0058618D01*
X0030337Y0058618D01*
X0030540Y0058416D01*
X0030815Y0058335D01*
X0031048Y0057908D01*
X0031392Y0057564D01*
X0031392Y0057277D01*
X0033563Y0053298D01*
X0033810Y0053298D01*
X0034943Y0052829D01*
X0035811Y0051961D01*
X0036280Y0050828D01*
X0036280Y0049601D01*
X0035811Y0048467D01*
X0034943Y0047599D01*
X0033810Y0047130D01*
X0032583Y0047130D01*
X0031449Y0047599D01*
X0030581Y0048467D01*
X0030112Y0049601D01*
X0030112Y0050828D01*
X0030413Y0051555D01*
X0029084Y0053991D01*
X0029084Y0053463D01*
X0029268Y0053144D01*
X0029384Y0052711D01*
X0029384Y0051700D01*
X0025322Y0051700D01*
X0025322Y0051700D01*
X0021260Y0051700D01*
X0021260Y0052711D01*
X0021376Y0053144D01*
X0021560Y0053463D01*
X0021560Y0063304D01*
X0022380Y0064124D01*
X0022482Y0064124D01*
X0022256Y0064350D01*
X0021741Y0065594D01*
X0021741Y0066940D01*
X0022256Y0068184D01*
X0023208Y0069136D01*
X0024452Y0069651D01*
X0025798Y0069651D01*
X0027042Y0069136D01*
X0027994Y0068184D01*
X0028509Y0066940D01*
X0028509Y0065594D01*
X0027994Y0064350D01*
X0027769Y0064125D01*
X0028551Y0064125D01*
X0031074Y0066648D01*
X0031074Y0112813D01*
X0030979Y0112718D01*
X0030637Y0112376D01*
X0030637Y0112376D01*
X0030128Y0111867D01*
X0029240Y0110979D01*
X0029084Y0110979D01*
X0029084Y0104644D01*
X0029268Y0104325D01*
X0029384Y0103892D01*
X0029384Y0102881D01*
X0025322Y0102881D01*
X0021260Y0102881D01*
X0021260Y0101870D01*
X0021376Y0101438D01*
X0021599Y0101050D01*
X0021916Y0100733D01*
X0022300Y0100512D01*
X0022256Y0100467D01*
X0021741Y0099224D01*
X0021741Y0097877D01*
X0022256Y0096633D01*
X0023208Y0095681D01*
X0024452Y0095166D01*
X0025798Y0095166D01*
X0027042Y0095681D01*
X0027994Y0096633D01*
X0028509Y0097877D01*
X0028509Y0099224D01*
X0028013Y0100422D01*
X0028340Y0100510D01*
X0028728Y0100733D01*
X0029045Y0101050D01*
X0029268Y0101438D01*
X0029384Y0101870D01*
X0029384Y0102881D01*
X0025322Y0102881D01*
X0025322Y0102881D01*
X0021260Y0102881D01*
X0021260Y0103892D01*
X0021376Y0104325D01*
X0021560Y0104644D01*
X0021560Y0114485D01*
X0022380Y0115305D01*
X0022482Y0115305D01*
X0022256Y0115531D01*
X0021741Y0116775D01*
X0021741Y0118121D01*
X0022256Y0119365D01*
X0023208Y0120317D01*
X0024452Y0120832D01*
X0025798Y0120832D01*
X0027042Y0120317D01*
X0027667Y0119692D01*
X0027667Y0119805D01*
X0019610Y0135305D01*
X0019224Y0135691D01*
X0019224Y0136048D01*
X0019060Y0136364D01*
X0019224Y0136885D01*
X0019224Y0172229D01*
X0020454Y0173459D01*
X0023358Y0176363D01*
X0025642Y0176363D01*
X0025968Y0177152D01*
X0027403Y0178587D01*
X0029278Y0179363D01*
X0031307Y0179363D01*
X0033181Y0178587D01*
X0034616Y0177152D01*
X0035392Y0175277D01*
X0035392Y0173248D01*
X0034616Y0171374D01*
X0033181Y0169939D01*
X0031548Y0169263D01*
X0033181Y0168587D01*
X0034616Y0167152D01*
X0035392Y0165277D01*
X0035392Y0163248D01*
X0034616Y0161374D01*
X0033181Y0159939D01*
X0031548Y0159263D01*
X0033181Y0158587D01*
X0034616Y0157152D01*
X0035392Y0155277D01*
X0035392Y0153248D01*
X0035065Y0152460D01*
X0052777Y0134748D01*
X0052777Y0088069D01*
X0053225Y0088069D01*
X0054023Y0087271D01*
X0054821Y0088069D01*
X0059918Y0088069D01*
X0060738Y0087249D01*
X0060738Y0081759D01*
X0059918Y0080938D01*
X0059170Y0080938D01*
X0059170Y0072575D01*
X0059918Y0072575D01*
X0060738Y0071755D01*
X0060738Y0066264D01*
X0059918Y0065444D01*
X0059170Y0065444D01*
X0059170Y0064250D01*
X0060115Y0064250D01*
X0060935Y0063430D01*
X0060935Y0058954D01*
X0075162Y0038810D01*
X0107250Y0038930D01*
X0113736Y0045422D01*
X0113566Y0045352D01*
X0112339Y0045352D01*
X0111205Y0045821D01*
X0110390Y0046636D01*
X0110189Y0046636D01*
X0110189Y0045317D01*
X0105329Y0045317D01*
X0105329Y0044552D01*
X0110189Y0044552D01*
X0110189Y0042545D01*
X0110073Y0042113D01*
X0109849Y0041725D01*
X0109533Y0041409D01*
X0109145Y0041185D01*
X0108713Y0041069D01*
X0105328Y0041069D01*
X0105328Y0044552D01*
X0104563Y0044552D01*
X0099702Y0044552D01*
X0099702Y0042545D01*
X0099818Y0042113D01*
X0100042Y0041725D01*
X0100359Y0041409D01*
X0100746Y0041185D01*
X0101179Y0041069D01*
X0104563Y0041069D01*
X0104563Y0044552D01*
X0104563Y0045317D01*
X0099702Y0045317D01*
X0099702Y0047323D01*
X0099818Y0047756D01*
X0100042Y0048144D01*
X0100359Y0048460D01*
X0100746Y0048684D01*
X0101179Y0048800D01*
X0104563Y0048800D01*
X0104563Y0045317D01*
X0105328Y0045317D01*
X0105328Y0048800D01*
X0107376Y0048800D01*
X0105348Y0050827D01*
X0104294Y0051881D01*
X0104294Y0095895D01*
X0093048Y0107141D01*
X0089364Y0107141D01*
X0088544Y0107961D01*
X0088544Y0113621D01*
X0089364Y0114441D01*
X0089888Y0114441D01*
X0089888Y0115013D01*
X0089139Y0115013D01*
X0088341Y0115811D01*
X0087543Y0115013D01*
X0087044Y0115013D01*
X0087044Y0114441D01*
X0087524Y0114441D01*
X0088344Y0113621D01*
X0088344Y0107961D01*
X0087524Y0107141D01*
X0082364Y0107141D01*
X0081544Y0107961D01*
X0081544Y0109051D01*
X0080740Y0109062D01*
X0080740Y0108462D01*
X0079920Y0107642D01*
X0074823Y0107642D01*
X0074003Y0108462D01*
X0074003Y0113953D01*
X0074401Y0114351D01*
X0074359Y0114375D01*
X0074043Y0114691D01*
X0073819Y0115079D01*
X0073703Y0115511D01*
X0073703Y0117616D01*
X0077087Y0117616D01*
X0077087Y0118185D01*
X0073703Y0118185D01*
X0073703Y0120290D01*
X0073819Y0120722D01*
X0074043Y0121110D01*
X0074359Y0121426D01*
X0074747Y0121650D01*
X0075179Y0121766D01*
X0077087Y0121766D01*
X0077087Y0118185D01*
X0077656Y0118185D01*
X0077656Y0121766D01*
X0078838Y0121766D01*
X0067145Y0133458D01*
X0063017Y0133458D01*
X0062502Y0132944D01*
X0061369Y0132474D01*
X0060142Y0132474D01*
X0059008Y0132944D01*
X0058140Y0133811D01*
X0057671Y0134945D01*
X0057671Y0136172D01*
X0058140Y0137305D01*
X0059008Y0138173D01*
X0060142Y0138643D01*
X0061369Y0138643D01*
X0062502Y0138173D01*
X0063017Y0137658D01*
X0068885Y0137658D01*
X0082895Y0123648D01*
X0082895Y0149301D01*
X0093932Y0160338D01*
X0093605Y0161127D01*
X0093605Y0163155D01*
X0094381Y0165030D01*
X0095816Y0166465D01*
X0097691Y0167241D01*
X0099719Y0167241D01*
X0101594Y0166465D01*
X0103029Y0165030D01*
X0103705Y0163397D01*
X0104381Y0165030D01*
X0105816Y0166465D01*
X0107691Y0167241D01*
X0109719Y0167241D01*
X0111594Y0166465D01*
X0113029Y0165030D01*
X0113554Y0163762D01*
X0113701Y0164214D01*
X0114087Y0164971D01*
X0114586Y0165659D01*
X0115187Y0166260D01*
X0115875Y0166759D01*
X0116632Y0167145D01*
X0117441Y0167408D01*
X0118280Y0167541D01*
X0118405Y0167541D01*
X0118405Y0162441D01*
X0119005Y0162441D01*
X0119005Y0167541D01*
X0119130Y0167541D01*
X0119970Y0167408D01*
X0120778Y0167145D01*
X0121535Y0166759D01*
X0122223Y0166260D01*
X0122824Y0165659D01*
X0123323Y0164971D01*
X0123709Y0164214D01*
X0123972Y0163406D01*
X0124105Y0162566D01*
X0124105Y0162441D01*
X0119005Y0162441D01*
X0119005Y0161841D01*
X0124105Y0161841D01*
X0124105Y0161716D01*
X0123972Y0160877D01*
X0123709Y0160068D01*
X0123323Y0159311D01*
X0122824Y0158623D01*
X0122223Y0158022D01*
X0121535Y0157523D01*
X0120778Y0157137D01*
X0120326Y0156990D01*
X0121594Y0156465D01*
X0123029Y0155030D01*
X0123805Y0153155D01*
X0123805Y0151127D01*
X0123029Y0149252D01*
X0121594Y0147817D01*
X0120505Y0147366D01*
X0120505Y0096261D01*
X0131605Y0085161D01*
X0132310Y0084456D01*
X0149974Y0102120D01*
X0149974Y0103244D01*
X0149897Y0103276D01*
X0149323Y0103850D01*
X0148749Y0103276D01*
X0147499Y0102758D01*
X0146147Y0102758D01*
X0144897Y0103276D01*
X0143941Y0104232D01*
X0143423Y0105482D01*
X0143423Y0110834D01*
X0143475Y0110960D01*
X0142774Y0111661D01*
X0142774Y0128520D01*
X0143828Y0129574D01*
X0143974Y0129720D01*
X0143974Y0137812D01*
X0143159Y0138627D01*
X0142690Y0139761D01*
X0142690Y0140988D01*
X0143159Y0142121D01*
X0144027Y0142989D01*
X0145161Y0143458D01*
X0146388Y0143458D01*
X0147521Y0142989D01*
X0148389Y0142121D01*
X0148846Y0141017D01*
X0148846Y0144385D01*
X0149666Y0145205D01*
X0153234Y0145205D01*
X0153949Y0145920D01*
X0153949Y0145920D01*
X0155003Y0146974D01*
X0161942Y0146974D01*
X0161942Y0148191D01*
X0165326Y0148191D01*
X0165326Y0148759D01*
X0161942Y0148759D01*
X0161942Y0150864D01*
X0162058Y0151297D01*
X0162282Y0151684D01*
X0162598Y0152001D01*
X0162986Y0152225D01*
X0163418Y0152340D01*
X0165326Y0152340D01*
X0165326Y0148759D01*
X0165895Y0148759D01*
X0169279Y0148759D01*
X0169279Y0150864D01*
X0169163Y0151297D01*
X0168939Y0151684D01*
X0168623Y0152001D01*
X0168235Y0152225D01*
X0167803Y0152340D01*
X0165895Y0152340D01*
X0165895Y0148759D01*
X0165895Y0148191D01*
X0169279Y0148191D01*
X0169279Y0146974D01*
X0170465Y0146974D01*
X0170465Y0148205D01*
X0173850Y0148205D01*
X0173850Y0148773D01*
X0173850Y0152354D01*
X0171942Y0152354D01*
X0171509Y0152238D01*
X0171122Y0152015D01*
X0170805Y0151698D01*
X0170581Y0151310D01*
X0170465Y0150878D01*
X0170465Y0148773D01*
X0173850Y0148773D01*
X0174418Y0148773D01*
X0174418Y0152354D01*
X0176326Y0152354D01*
X0176759Y0152238D01*
X0177146Y0152015D01*
X0177463Y0151698D01*
X0177687Y0151310D01*
X0177802Y0150878D01*
X0177802Y0148773D01*
X0174418Y0148773D01*
X0174418Y0148205D01*
X0177802Y0148205D01*
X0177802Y0146974D01*
X0181920Y0146974D01*
X0182974Y0145920D01*
X0197374Y0131520D01*
X0197374Y0105428D01*
X0196320Y0104374D01*
X0192073Y0100127D01*
X0197465Y0100127D01*
X0198285Y0099307D01*
X0198285Y0081218D01*
X0197465Y0080398D01*
X0191581Y0080398D01*
X0190761Y0081218D01*
X0190761Y0085397D01*
X0182999Y0085346D01*
X0182999Y0084378D01*
X0182601Y0083980D01*
X0182643Y0083956D01*
X0182960Y0083640D01*
X0183183Y0083252D01*
X0183299Y0082820D01*
X0183299Y0080715D01*
X0179915Y0080715D01*
X0179915Y0080146D01*
X0179915Y0076565D01*
X0180159Y0076565D01*
X0180159Y0073610D01*
X0179591Y0073610D01*
X0179591Y0077191D01*
X0179347Y0077191D01*
X0179347Y0080146D01*
X0179915Y0080146D01*
X0183299Y0080146D01*
X0183299Y0078041D01*
X0183183Y0077609D01*
X0182960Y0077221D01*
X0182699Y0076960D01*
X0182888Y0076851D01*
X0183204Y0076535D01*
X0183428Y0076147D01*
X0183544Y0075715D01*
X0183544Y0073610D01*
X0180160Y0073610D01*
X0180160Y0073041D01*
X0183544Y0073041D01*
X0183544Y0070936D01*
X0183428Y0070504D01*
X0183204Y0070116D01*
X0182888Y0069800D01*
X0182846Y0069776D01*
X0183244Y0069378D01*
X0183244Y0065330D01*
X0190761Y0056037D01*
X0190761Y0060724D01*
X0191581Y0061545D01*
X0197465Y0061545D01*
X0198285Y0060724D01*
X0198285Y0042636D01*
X0197465Y0041815D01*
X0191581Y0041815D01*
X0190761Y0042636D01*
X0190761Y0050312D01*
X0180444Y0063067D01*
X0177327Y0063067D01*
X0176507Y0063887D01*
X0176507Y0064789D01*
X0173080Y0064744D01*
X0169883Y0061546D01*
X0173508Y0061546D01*
X0173905Y0061148D01*
X0173930Y0061190D01*
X0174246Y0061507D01*
X0174634Y0061731D01*
X0175066Y0061846D01*
X0177171Y0061846D01*
X0177171Y0058462D01*
X0177739Y0058462D01*
X0177739Y0061846D01*
X0179844Y0061846D01*
X0180277Y0061731D01*
X0180664Y0061507D01*
X0180981Y0061190D01*
X0181205Y0060803D01*
X0181321Y0060370D01*
X0181321Y0058462D01*
X0177740Y0058462D01*
X0177740Y0057894D01*
X0181321Y0057894D01*
X0181321Y0055986D01*
X0181205Y0055553D01*
X0180981Y0055166D01*
X0180664Y0054849D01*
X0180277Y0054625D01*
X0179844Y0054509D01*
X0177739Y0054509D01*
X0177739Y0057894D01*
X0177171Y0057894D01*
X0177171Y0054509D01*
X0175066Y0054509D01*
X0174634Y0054625D01*
X0174246Y0054849D01*
X0173930Y0055166D01*
X0173905Y0055207D01*
X0173508Y0054809D01*
X0172710Y0054809D01*
X0172710Y0052735D01*
X0180967Y0044478D01*
X0181931Y0044478D01*
X0183137Y0043979D01*
X0184060Y0043056D01*
X0184559Y0041850D01*
X0184559Y0040544D01*
X0184060Y0039338D01*
X0183378Y0038657D01*
X0183378Y0027021D01*
X0184409Y0029510D01*
X0186489Y0031589D01*
X0189206Y0032715D01*
X0192147Y0032715D01*
X0194864Y0031589D01*
X0196944Y0029510D01*
X0198069Y0026793D01*
X0198069Y0023852D01*
X0196944Y0021134D01*
X0194864Y0019055D01*
X0192147Y0017929D01*
X0189206Y0017929D01*
X0186489Y0019055D01*
X0184409Y0021134D01*
X0183378Y0023623D01*
X0183378Y0018610D01*
X0182148Y0017380D01*
X0176814Y0012046D01*
X0139387Y0012046D01*
X0138157Y0013276D01*
X0139062Y0012371D02*
X0020537Y0012371D01*
X0023765Y0017965D02*
X0013694Y0017965D01*
X0012887Y0019364D02*
X0020825Y0019364D01*
X0021134Y0019055D02*
X0023852Y0017929D01*
X0026793Y0017929D01*
X0029510Y0019055D01*
X0031589Y0021134D01*
X0032715Y0023852D01*
X0032715Y0026793D01*
X0031589Y0029510D01*
X0029510Y0031589D01*
X0026793Y0032715D01*
X0023852Y0032715D01*
X0021134Y0031589D01*
X0019055Y0029510D01*
X0017929Y0026793D01*
X0017929Y0023852D01*
X0019055Y0021134D01*
X0021134Y0019055D01*
X0019427Y0020762D02*
X0012311Y0020762D01*
X0011936Y0022161D02*
X0018630Y0022161D01*
X0018050Y0023559D02*
X0011571Y0023559D01*
X0011479Y0024958D02*
X0017929Y0024958D01*
X0017929Y0026356D02*
X0011455Y0026356D01*
X0011455Y0027755D02*
X0018328Y0027755D01*
X0018907Y0029153D02*
X0011455Y0029153D01*
X0011455Y0030552D02*
X0020097Y0030552D01*
X0022005Y0031950D02*
X0011455Y0031950D01*
X0011455Y0033349D02*
X0075829Y0033349D01*
X0075593Y0031950D02*
X0028639Y0031950D01*
X0030548Y0030552D02*
X0075593Y0030552D01*
X0075593Y0029153D02*
X0031737Y0029153D01*
X0032316Y0027755D02*
X0075593Y0027755D01*
X0072544Y0036146D02*
X0011455Y0036146D01*
X0011455Y0037544D02*
X0071648Y0037544D01*
X0070661Y0038943D02*
X0016735Y0038943D01*
X0018229Y0040341D02*
X0069673Y0040341D01*
X0068685Y0041740D02*
X0018808Y0041740D01*
X0018864Y0043138D02*
X0067697Y0043138D01*
X0066710Y0044537D02*
X0027079Y0044537D01*
X0027042Y0044500D02*
X0027994Y0045452D01*
X0028509Y0046696D01*
X0028509Y0048042D01*
X0028013Y0049241D01*
X0028340Y0049328D01*
X0028728Y0049552D01*
X0029045Y0049869D01*
X0029268Y0050256D01*
X0029384Y0050689D01*
X0029384Y0051700D01*
X0025322Y0051700D01*
X0021260Y0051700D01*
X0021260Y0050689D01*
X0021376Y0050256D01*
X0021599Y0049869D01*
X0021916Y0049552D01*
X0022300Y0049330D01*
X0022256Y0049286D01*
X0021741Y0048042D01*
X0021741Y0046696D01*
X0022256Y0045452D01*
X0023208Y0044500D01*
X0024452Y0043985D01*
X0025798Y0043985D01*
X0027042Y0044500D01*
X0028194Y0045935D02*
X0065722Y0045935D01*
X0064734Y0047334D02*
X0034302Y0047334D01*
X0035921Y0048732D02*
X0063747Y0048732D01*
X0062759Y0050131D02*
X0036280Y0050131D01*
X0035990Y0051529D02*
X0061771Y0051529D01*
X0060784Y0052928D02*
X0034704Y0052928D01*
X0033002Y0054326D02*
X0059796Y0054326D01*
X0058808Y0055725D02*
X0032239Y0055725D01*
X0031476Y0057123D02*
X0057821Y0057123D01*
X0061240Y0058522D02*
X0104294Y0058522D01*
X0104294Y0059920D02*
X0060935Y0059920D01*
X0060935Y0061319D02*
X0104294Y0061319D01*
X0104294Y0062717D02*
X0060935Y0062717D01*
X0060249Y0064116D02*
X0104294Y0064116D01*
X0104294Y0065514D02*
X0059988Y0065514D01*
X0060738Y0066913D02*
X0104294Y0066913D01*
X0104294Y0068311D02*
X0060738Y0068311D01*
X0060738Y0069710D02*
X0104294Y0069710D01*
X0104294Y0071109D02*
X0060738Y0071109D01*
X0059986Y0072507D02*
X0104294Y0072507D01*
X0104294Y0073906D02*
X0059170Y0073906D01*
X0059170Y0075304D02*
X0104294Y0075304D01*
X0104294Y0076703D02*
X0059170Y0076703D01*
X0059170Y0078101D02*
X0104294Y0078101D01*
X0104294Y0079500D02*
X0059170Y0079500D01*
X0059170Y0080898D02*
X0104294Y0080898D01*
X0104294Y0082297D02*
X0060738Y0082297D01*
X0060738Y0083695D02*
X0104294Y0083695D01*
X0104294Y0085094D02*
X0060738Y0085094D01*
X0060738Y0086492D02*
X0104294Y0086492D01*
X0104294Y0087891D02*
X0060097Y0087891D01*
X0054643Y0087891D02*
X0053404Y0087891D01*
X0052777Y0089289D02*
X0104294Y0089289D01*
X0104294Y0090688D02*
X0052777Y0090688D01*
X0052777Y0092086D02*
X0104294Y0092086D01*
X0104294Y0093485D02*
X0052777Y0093485D01*
X0052777Y0094883D02*
X0104294Y0094883D01*
X0103907Y0096282D02*
X0052777Y0096282D01*
X0052777Y0097680D02*
X0102509Y0097680D01*
X0101110Y0099079D02*
X0091311Y0099079D01*
X0091487Y0099181D02*
X0091804Y0099497D01*
X0092028Y0099885D01*
X0092144Y0100317D01*
X0092144Y0102491D01*
X0088744Y0102491D01*
X0088744Y0103091D01*
X0092144Y0103091D01*
X0092144Y0105265D01*
X0092028Y0105697D01*
X0091804Y0106085D01*
X0091487Y0106401D01*
X0091100Y0106625D01*
X0090667Y0106741D01*
X0088744Y0106741D01*
X0088744Y0103091D01*
X0088144Y0103091D01*
X0088144Y0106741D01*
X0086220Y0106741D01*
X0085788Y0106625D01*
X0085400Y0106401D01*
X0085083Y0106085D01*
X0084860Y0105697D01*
X0084744Y0105265D01*
X0084744Y0103091D01*
X0088144Y0103091D01*
X0088144Y0102491D01*
X0088744Y0102491D01*
X0088744Y0098841D01*
X0090667Y0098841D01*
X0091100Y0098957D01*
X0091487Y0099181D01*
X0092144Y0100477D02*
X0099712Y0100477D01*
X0098313Y0101876D02*
X0092144Y0101876D01*
X0092144Y0103274D02*
X0096915Y0103274D01*
X0095516Y0104673D02*
X0092144Y0104673D01*
X0091812Y0106071D02*
X0094118Y0106071D01*
X0096412Y0108868D02*
X0116905Y0108868D01*
X0116905Y0107470D02*
X0097811Y0107470D01*
X0099209Y0106071D02*
X0116905Y0106071D01*
X0116905Y0104673D02*
X0100608Y0104673D01*
X0102006Y0103274D02*
X0116905Y0103274D01*
X0116905Y0101876D02*
X0103405Y0101876D01*
X0104803Y0100477D02*
X0116905Y0100477D01*
X0116905Y0099079D02*
X0106202Y0099079D01*
X0107600Y0097680D02*
X0116905Y0097680D01*
X0116905Y0096282D02*
X0107894Y0096282D01*
X0107894Y0097386D02*
X0095344Y0109937D01*
X0095344Y0113621D01*
X0094524Y0114441D01*
X0093488Y0114441D01*
X0093488Y0115013D01*
X0094236Y0115013D01*
X0095056Y0115833D01*
X0095056Y0121324D01*
X0094236Y0122144D01*
X0089139Y0122144D01*
X0088341Y0121346D01*
X0087543Y0122144D01*
X0087095Y0122144D01*
X0087095Y0147561D01*
X0094253Y0154719D01*
X0093605Y0153155D01*
X0093605Y0151127D01*
X0094381Y0149252D01*
X0095816Y0147817D01*
X0097691Y0147041D01*
X0099719Y0147041D01*
X0101594Y0147817D01*
X0103029Y0149252D01*
X0103705Y0150885D01*
X0104381Y0149252D01*
X0105816Y0147817D01*
X0107691Y0147041D01*
X0109719Y0147041D01*
X0111594Y0147817D01*
X0113029Y0149252D01*
X0113705Y0150885D01*
X0114381Y0149252D01*
X0115816Y0147817D01*
X0116905Y0147366D01*
X0116905Y0094769D01*
X0129059Y0082615D01*
X0129059Y0080451D01*
X0128921Y0080589D01*
X0127788Y0081058D01*
X0126561Y0081058D01*
X0125427Y0080589D01*
X0124559Y0079721D01*
X0124090Y0078588D01*
X0124090Y0077361D01*
X0124559Y0076227D01*
X0125374Y0075412D01*
X0125374Y0066980D01*
X0124670Y0066980D01*
X0123850Y0066160D01*
X0123850Y0056840D01*
X0121896Y0056840D01*
X0121896Y0057588D01*
X0121076Y0058409D01*
X0115585Y0058409D01*
X0115187Y0058011D01*
X0115163Y0058052D01*
X0114847Y0058369D01*
X0114459Y0058593D01*
X0114027Y0058709D01*
X0111922Y0058709D01*
X0111922Y0055324D01*
X0111353Y0055324D01*
X0111353Y0058709D01*
X0109248Y0058709D01*
X0108816Y0058593D01*
X0108428Y0058369D01*
X0108112Y0058052D01*
X0107894Y0057675D01*
X0107894Y0097386D01*
X0107894Y0094883D02*
X0116905Y0094883D01*
X0118190Y0093485D02*
X0107894Y0093485D01*
X0107894Y0092086D02*
X0119588Y0092086D01*
X0120987Y0090688D02*
X0107894Y0090688D01*
X0107894Y0089289D02*
X0122385Y0089289D01*
X0123784Y0087891D02*
X0107894Y0087891D01*
X0107894Y0086492D02*
X0125182Y0086492D01*
X0126581Y0085094D02*
X0107894Y0085094D01*
X0107894Y0083695D02*
X0127979Y0083695D01*
X0129059Y0082297D02*
X0107894Y0082297D01*
X0107894Y0080898D02*
X0126174Y0080898D01*
X0128174Y0080898D02*
X0129059Y0080898D01*
X0124468Y0079500D02*
X0107894Y0079500D01*
X0107894Y0078101D02*
X0124090Y0078101D01*
X0124362Y0076703D02*
X0107894Y0076703D01*
X0107894Y0075304D02*
X0125374Y0075304D01*
X0125374Y0073906D02*
X0107894Y0073906D01*
X0107894Y0072507D02*
X0125374Y0072507D01*
X0125374Y0071109D02*
X0107894Y0071109D01*
X0107894Y0069710D02*
X0125374Y0069710D01*
X0125374Y0068311D02*
X0107894Y0068311D01*
X0107894Y0066913D02*
X0124603Y0066913D01*
X0123850Y0065514D02*
X0107894Y0065514D01*
X0107894Y0064116D02*
X0123850Y0064116D01*
X0123850Y0062717D02*
X0107894Y0062717D01*
X0107894Y0061319D02*
X0123850Y0061319D01*
X0123850Y0059920D02*
X0107894Y0059920D01*
X0107894Y0058522D02*
X0108693Y0058522D01*
X0111353Y0058522D02*
X0111922Y0058522D01*
X0111922Y0057123D02*
X0111353Y0057123D01*
X0111353Y0055725D02*
X0111922Y0055725D01*
X0111922Y0054756D02*
X0111922Y0051372D01*
X0111979Y0051372D01*
X0111205Y0051051D01*
X0110710Y0050556D01*
X0109895Y0051372D01*
X0111353Y0051372D01*
X0111353Y0054756D01*
X0111922Y0054756D01*
X0111922Y0054326D02*
X0111353Y0054326D01*
X0111353Y0052928D02*
X0111922Y0052928D01*
X0111922Y0051529D02*
X0111353Y0051529D01*
X0113925Y0051372D02*
X0114027Y0051372D01*
X0114459Y0051487D01*
X0114847Y0051711D01*
X0115163Y0052028D01*
X0115187Y0052069D01*
X0115585Y0051672D01*
X0121076Y0051672D01*
X0121896Y0052492D01*
X0121896Y0053240D01*
X0123560Y0053240D01*
X0123550Y0053206D01*
X0123550Y0051882D01*
X0127750Y0051882D01*
X0127750Y0051882D01*
X0123550Y0051882D01*
X0123550Y0050558D01*
X0123666Y0050126D01*
X0123850Y0049807D01*
X0123850Y0047383D01*
X0117185Y0047383D01*
X0116452Y0047383D01*
X0115854Y0047383D01*
X0116036Y0047823D01*
X0116036Y0049050D01*
X0115567Y0050183D01*
X0114699Y0051051D01*
X0113925Y0051372D01*
X0114532Y0051529D02*
X0123550Y0051529D01*
X0123550Y0052928D02*
X0121896Y0052928D01*
X0123665Y0050131D02*
X0115588Y0050131D01*
X0116036Y0048732D02*
X0123850Y0048732D01*
X0123850Y0043783D02*
X0123850Y0040753D01*
X0124670Y0039933D01*
X0130830Y0039933D01*
X0131650Y0040753D01*
X0131650Y0049807D01*
X0131835Y0050126D01*
X0131950Y0050558D01*
X0131950Y0051882D01*
X0131950Y0053206D01*
X0131835Y0053638D01*
X0131650Y0053957D01*
X0131650Y0059026D01*
X0132728Y0057948D01*
X0132728Y0057221D01*
X0133197Y0056087D01*
X0134065Y0055219D01*
X0135199Y0054750D01*
X0136426Y0054750D01*
X0137559Y0055219D01*
X0138427Y0056087D01*
X0138896Y0057221D01*
X0138896Y0057411D01*
X0143142Y0053166D01*
X0143142Y0052014D01*
X0143611Y0050880D01*
X0144479Y0050012D01*
X0145613Y0049543D01*
X0146840Y0049543D01*
X0147973Y0050012D01*
X0148841Y0050880D01*
X0149310Y0052014D01*
X0149310Y0053241D01*
X0148841Y0054374D01*
X0147973Y0055242D01*
X0147809Y0055310D01*
X0148234Y0055734D01*
X0154159Y0055734D01*
X0154159Y0054259D01*
X0154159Y0052519D01*
X0156896Y0049782D01*
X0157350Y0049782D01*
X0157350Y0048732D01*
X0157350Y0047408D01*
X0157466Y0046976D01*
X0157650Y0046657D01*
X0157650Y0040753D01*
X0158470Y0039933D01*
X0164161Y0039933D01*
X0164097Y0039779D01*
X0164097Y0038552D01*
X0164419Y0037774D01*
X0158174Y0037774D01*
X0158174Y0039637D01*
X0157354Y0040457D01*
X0148026Y0040457D01*
X0148026Y0042445D01*
X0148841Y0043260D01*
X0149310Y0044394D01*
X0149310Y0045621D01*
X0148841Y0046754D01*
X0147973Y0047622D01*
X0146840Y0048091D01*
X0145613Y0048091D01*
X0144479Y0047622D01*
X0143611Y0046754D01*
X0143142Y0045621D01*
X0143142Y0044394D01*
X0143611Y0043260D01*
X0144426Y0042445D01*
X0144426Y0040457D01*
X0138576Y0040457D01*
X0138576Y0042680D01*
X0139023Y0043759D01*
X0139023Y0044986D01*
X0138554Y0046119D01*
X0137686Y0046987D01*
X0136553Y0047456D01*
X0135326Y0047456D01*
X0134192Y0046987D01*
X0133324Y0046119D01*
X0132855Y0044986D01*
X0132855Y0043759D01*
X0133324Y0042625D01*
X0134192Y0041757D01*
X0134976Y0041432D01*
X0134976Y0040457D01*
X0131947Y0040457D01*
X0131127Y0039637D01*
X0131127Y0033980D01*
X0130970Y0033980D01*
X0125255Y0039695D01*
X0113103Y0039695D01*
X0117186Y0043783D01*
X0123850Y0043783D01*
X0123850Y0043138D02*
X0116543Y0043138D01*
X0115146Y0041740D02*
X0123850Y0041740D01*
X0124262Y0040341D02*
X0113748Y0040341D01*
X0111454Y0043138D02*
X0110189Y0043138D01*
X0110189Y0044537D02*
X0112851Y0044537D01*
X0111091Y0045935D02*
X0110189Y0045935D01*
X0110057Y0041740D02*
X0109858Y0041740D01*
X0108660Y0040341D02*
X0074080Y0040341D01*
X0075068Y0038943D02*
X0107263Y0038943D01*
X0105328Y0041740D02*
X0104563Y0041740D01*
X0104563Y0043138D02*
X0105328Y0043138D01*
X0105328Y0044537D02*
X0104563Y0044537D01*
X0104563Y0045935D02*
X0105328Y0045935D01*
X0105328Y0047334D02*
X0104563Y0047334D01*
X0104563Y0048732D02*
X0105328Y0048732D01*
X0106045Y0050131D02*
X0067166Y0050131D01*
X0066179Y0051529D02*
X0104646Y0051529D01*
X0104294Y0052928D02*
X0065191Y0052928D01*
X0064203Y0054326D02*
X0104294Y0054326D01*
X0104294Y0055725D02*
X0063215Y0055725D01*
X0062228Y0057123D02*
X0104294Y0057123D01*
X0100927Y0048732D02*
X0084555Y0048732D01*
X0084736Y0048684D02*
X0084303Y0048800D01*
X0080919Y0048800D01*
X0080919Y0045317D01*
X0080154Y0045317D01*
X0080154Y0048800D01*
X0076769Y0048800D01*
X0076337Y0048684D01*
X0075949Y0048460D01*
X0075633Y0048144D01*
X0075409Y0047756D01*
X0075293Y0047323D01*
X0075293Y0045317D01*
X0080154Y0045317D01*
X0080154Y0044552D01*
X0075293Y0044552D01*
X0075293Y0042545D01*
X0075409Y0042113D01*
X0075633Y0041725D01*
X0075949Y0041409D01*
X0076337Y0041185D01*
X0076769Y0041069D01*
X0080154Y0041069D01*
X0080154Y0044552D01*
X0080919Y0044552D01*
X0080919Y0045317D01*
X0085780Y0045317D01*
X0085780Y0047323D01*
X0085664Y0047756D01*
X0085440Y0048144D01*
X0085123Y0048460D01*
X0084736Y0048684D01*
X0085777Y0047334D02*
X0099705Y0047334D01*
X0099702Y0045935D02*
X0085780Y0045935D01*
X0085780Y0044552D02*
X0080919Y0044552D01*
X0080919Y0041069D01*
X0084303Y0041069D01*
X0084736Y0041185D01*
X0085123Y0041409D01*
X0085440Y0041725D01*
X0085664Y0042113D01*
X0085780Y0042545D01*
X0085780Y0044552D01*
X0085780Y0044537D02*
X0099702Y0044537D01*
X0099702Y0043138D02*
X0085780Y0043138D01*
X0085448Y0041740D02*
X0100034Y0041740D01*
X0106751Y0034747D02*
X0011455Y0034747D01*
X0011455Y0038943D02*
X0012255Y0038943D01*
X0011509Y0045935D02*
X0011455Y0045935D01*
X0011455Y0047334D02*
X0021741Y0047334D01*
X0022027Y0048732D02*
X0011455Y0048732D01*
X0011455Y0050131D02*
X0021448Y0050131D01*
X0021260Y0051529D02*
X0011455Y0051529D01*
X0011455Y0052928D02*
X0021318Y0052928D01*
X0021560Y0054326D02*
X0011455Y0054326D01*
X0011455Y0055725D02*
X0021560Y0055725D01*
X0021560Y0057123D02*
X0011455Y0057123D01*
X0011455Y0058522D02*
X0021560Y0058522D01*
X0021560Y0059920D02*
X0011455Y0059920D01*
X0011455Y0061319D02*
X0021560Y0061319D01*
X0021560Y0062717D02*
X0011455Y0062717D01*
X0011455Y0064116D02*
X0022372Y0064116D01*
X0021774Y0065514D02*
X0011455Y0065514D01*
X0011455Y0066913D02*
X0012688Y0066913D01*
X0016302Y0066913D02*
X0021741Y0066913D01*
X0022384Y0068311D02*
X0018092Y0068311D01*
X0018734Y0069710D02*
X0031074Y0069710D01*
X0031074Y0068311D02*
X0027867Y0068311D01*
X0028509Y0066913D02*
X0031074Y0066913D01*
X0029941Y0065514D02*
X0028477Y0065514D01*
X0029421Y0062025D02*
X0025411Y0062025D01*
X0025322Y0061936D01*
X0029421Y0062025D02*
X0033174Y0065778D01*
X0033174Y0120974D01*
X0024174Y0137174D01*
X0024174Y0162574D01*
X0025863Y0164263D01*
X0030292Y0164263D01*
X0035007Y0166207D02*
X0095559Y0166207D01*
X0094290Y0164809D02*
X0035392Y0164809D01*
X0035392Y0163410D02*
X0093711Y0163410D01*
X0093605Y0162012D02*
X0034880Y0162012D01*
X0033855Y0160613D02*
X0093818Y0160613D01*
X0092809Y0159215D02*
X0031664Y0159215D01*
X0033951Y0157816D02*
X0091410Y0157816D01*
X0090012Y0156418D02*
X0034920Y0156418D01*
X0035392Y0155019D02*
X0088613Y0155019D01*
X0087215Y0153621D02*
X0035392Y0153621D01*
X0035303Y0152222D02*
X0085816Y0152222D01*
X0084418Y0150824D02*
X0036701Y0150824D01*
X0038100Y0149425D02*
X0083019Y0149425D01*
X0082895Y0148027D02*
X0039498Y0148027D01*
X0040897Y0146628D02*
X0082895Y0146628D01*
X0082895Y0145230D02*
X0042295Y0145230D01*
X0043694Y0143831D02*
X0082895Y0143831D01*
X0082895Y0142433D02*
X0045092Y0142433D01*
X0046491Y0141034D02*
X0082895Y0141034D01*
X0082895Y0139636D02*
X0047889Y0139636D01*
X0049288Y0138237D02*
X0059163Y0138237D01*
X0057947Y0136839D02*
X0050686Y0136839D01*
X0052085Y0135440D02*
X0057671Y0135440D01*
X0058045Y0134042D02*
X0052777Y0134042D01*
X0052777Y0132643D02*
X0059734Y0132643D01*
X0061777Y0132643D02*
X0067961Y0132643D01*
X0069359Y0131245D02*
X0052777Y0131245D01*
X0052777Y0129846D02*
X0070758Y0129846D01*
X0072156Y0128447D02*
X0052777Y0128447D01*
X0052777Y0127049D02*
X0073555Y0127049D01*
X0074953Y0125650D02*
X0052777Y0125650D01*
X0052777Y0124252D02*
X0076352Y0124252D01*
X0077750Y0122853D02*
X0052777Y0122853D01*
X0052777Y0121455D02*
X0074409Y0121455D01*
X0073703Y0120056D02*
X0052777Y0120056D01*
X0052777Y0118658D02*
X0073703Y0118658D01*
X0073703Y0117259D02*
X0052777Y0117259D01*
X0052777Y0115861D02*
X0073703Y0115861D01*
X0074272Y0114462D02*
X0052777Y0114462D01*
X0052777Y0113064D02*
X0074003Y0113064D01*
X0074003Y0111665D02*
X0052777Y0111665D01*
X0052777Y0110267D02*
X0074003Y0110267D01*
X0074003Y0108868D02*
X0052777Y0108868D01*
X0052777Y0107470D02*
X0082035Y0107470D01*
X0081544Y0108868D02*
X0080740Y0108868D01*
X0077372Y0111208D02*
X0084626Y0111109D01*
X0084944Y0110791D01*
X0084944Y0118527D01*
X0084995Y0118579D01*
X0068015Y0135558D01*
X0060755Y0135558D01*
X0062347Y0138237D02*
X0082895Y0138237D01*
X0082895Y0136839D02*
X0069705Y0136839D01*
X0071103Y0135440D02*
X0082895Y0135440D01*
X0082895Y0134042D02*
X0072502Y0134042D01*
X0073900Y0132643D02*
X0082895Y0132643D01*
X0082895Y0131245D02*
X0075299Y0131245D01*
X0076697Y0129846D02*
X0082895Y0129846D01*
X0082895Y0128447D02*
X0078096Y0128447D01*
X0079494Y0127049D02*
X0082895Y0127049D01*
X0082895Y0125650D02*
X0080893Y0125650D01*
X0082291Y0124252D02*
X0082895Y0124252D01*
X0087095Y0124252D02*
X0116905Y0124252D01*
X0116905Y0125650D02*
X0087095Y0125650D01*
X0087095Y0127049D02*
X0116905Y0127049D01*
X0116905Y0128447D02*
X0087095Y0128447D01*
X0087095Y0129846D02*
X0116905Y0129846D01*
X0116905Y0131245D02*
X0087095Y0131245D01*
X0087095Y0132643D02*
X0116905Y0132643D01*
X0116905Y0134042D02*
X0087095Y0134042D01*
X0087095Y0135440D02*
X0116905Y0135440D01*
X0116905Y0136839D02*
X0087095Y0136839D01*
X0087095Y0138237D02*
X0116905Y0138237D01*
X0116905Y0139636D02*
X0087095Y0139636D01*
X0087095Y0141034D02*
X0116905Y0141034D01*
X0116905Y0142433D02*
X0087095Y0142433D01*
X0087095Y0143831D02*
X0116905Y0143831D01*
X0116905Y0145230D02*
X0087095Y0145230D01*
X0087095Y0146628D02*
X0116905Y0146628D01*
X0115607Y0148027D02*
X0111803Y0148027D01*
X0113100Y0149425D02*
X0114310Y0149425D01*
X0113730Y0150824D02*
X0113680Y0150824D01*
X0120505Y0146628D02*
X0154657Y0146628D01*
X0153259Y0145230D02*
X0120505Y0145230D01*
X0120505Y0143831D02*
X0148846Y0143831D01*
X0148846Y0142433D02*
X0148077Y0142433D01*
X0148839Y0141034D02*
X0148846Y0141034D01*
X0143471Y0142433D02*
X0120505Y0142433D01*
X0120505Y0141034D02*
X0142709Y0141034D01*
X0142742Y0139636D02*
X0120505Y0139636D01*
X0120505Y0138237D02*
X0143549Y0138237D01*
X0143974Y0136839D02*
X0120505Y0136839D01*
X0120505Y0135440D02*
X0143974Y0135440D01*
X0143974Y0134042D02*
X0120505Y0134042D01*
X0120505Y0132643D02*
X0143974Y0132643D01*
X0143974Y0131245D02*
X0120505Y0131245D01*
X0120505Y0129846D02*
X0143974Y0129846D01*
X0142774Y0128447D02*
X0120505Y0128447D01*
X0120505Y0127049D02*
X0142774Y0127049D01*
X0142774Y0125650D02*
X0120505Y0125650D01*
X0120505Y0124252D02*
X0142774Y0124252D01*
X0142774Y0122853D02*
X0120505Y0122853D01*
X0120505Y0121455D02*
X0142774Y0121455D01*
X0142774Y0120056D02*
X0120505Y0120056D01*
X0120505Y0118658D02*
X0142774Y0118658D01*
X0142774Y0117259D02*
X0120505Y0117259D01*
X0120505Y0115861D02*
X0142774Y0115861D01*
X0142774Y0114462D02*
X0120505Y0114462D01*
X0120505Y0113064D02*
X0142774Y0113064D01*
X0142774Y0111665D02*
X0120505Y0111665D01*
X0120505Y0110267D02*
X0143423Y0110267D01*
X0143423Y0108868D02*
X0120505Y0108868D01*
X0120505Y0107470D02*
X0143423Y0107470D01*
X0143423Y0106071D02*
X0120505Y0106071D01*
X0120505Y0104673D02*
X0143758Y0104673D01*
X0144900Y0103274D02*
X0120505Y0103274D01*
X0120505Y0101876D02*
X0149730Y0101876D01*
X0149900Y0103274D02*
X0148746Y0103274D01*
X0148332Y0100477D02*
X0120505Y0100477D01*
X0120505Y0099079D02*
X0146933Y0099079D01*
X0145535Y0097680D02*
X0120505Y0097680D01*
X0120505Y0096282D02*
X0144136Y0096282D01*
X0142738Y0094883D02*
X0121882Y0094883D01*
X0123281Y0093485D02*
X0141339Y0093485D01*
X0139941Y0092086D02*
X0124679Y0092086D01*
X0126078Y0090688D02*
X0138542Y0090688D01*
X0137144Y0089289D02*
X0127476Y0089289D01*
X0128875Y0087891D02*
X0135745Y0087891D01*
X0134347Y0086492D02*
X0130273Y0086492D01*
X0131672Y0085094D02*
X0132948Y0085094D01*
X0132574Y0089974D02*
X0131748Y0090800D01*
X0131748Y0101649D01*
X0116905Y0110267D02*
X0095344Y0110267D01*
X0095344Y0111665D02*
X0116905Y0111665D01*
X0116905Y0113064D02*
X0095344Y0113064D01*
X0093488Y0114462D02*
X0116905Y0114462D01*
X0116905Y0115861D02*
X0095056Y0115861D01*
X0095056Y0117259D02*
X0116905Y0117259D01*
X0116905Y0118658D02*
X0095056Y0118658D01*
X0095056Y0120056D02*
X0116905Y0120056D01*
X0116905Y0121455D02*
X0094925Y0121455D01*
X0088450Y0121455D02*
X0088232Y0121455D01*
X0087095Y0122853D02*
X0116905Y0122853D01*
X0121803Y0148027D02*
X0161942Y0148027D01*
X0161942Y0149425D02*
X0123100Y0149425D01*
X0123680Y0150824D02*
X0161942Y0150824D01*
X0162982Y0152222D02*
X0123805Y0152222D01*
X0123612Y0153621D02*
X0204543Y0153621D01*
X0204543Y0155019D02*
X0123033Y0155019D01*
X0121641Y0156418D02*
X0204543Y0156418D01*
X0204543Y0157816D02*
X0121939Y0157816D01*
X0123254Y0159215D02*
X0204543Y0159215D01*
X0204543Y0160613D02*
X0123887Y0160613D01*
X0123971Y0163410D02*
X0204543Y0163410D01*
X0204543Y0162012D02*
X0119005Y0162012D01*
X0119005Y0163410D02*
X0118405Y0163410D01*
X0118405Y0164809D02*
X0119005Y0164809D01*
X0119005Y0166207D02*
X0118405Y0166207D01*
X0115135Y0166207D02*
X0111851Y0166207D01*
X0113120Y0164809D02*
X0114004Y0164809D01*
X0122275Y0166207D02*
X0204543Y0166207D01*
X0204543Y0164809D02*
X0123406Y0164809D01*
X0105559Y0166207D02*
X0101851Y0166207D01*
X0103120Y0164809D02*
X0104290Y0164809D01*
X0103711Y0163410D02*
X0103699Y0163410D01*
X0098705Y0162141D02*
X0084995Y0148431D01*
X0084995Y0118579D01*
X0081626Y0118658D02*
X0081040Y0118658D01*
X0081040Y0118185D02*
X0081040Y0119563D01*
X0081626Y0118977D01*
X0081626Y0115833D01*
X0082446Y0115013D01*
X0082844Y0115013D01*
X0082844Y0114441D01*
X0082364Y0114441D01*
X0081544Y0113621D01*
X0081544Y0113251D01*
X0080740Y0113262D01*
X0080740Y0113953D01*
X0080342Y0114351D01*
X0080384Y0114375D01*
X0080700Y0114691D01*
X0080924Y0115079D01*
X0081040Y0115511D01*
X0081040Y0117616D01*
X0077656Y0117616D01*
X0077656Y0118185D01*
X0081040Y0118185D01*
X0081040Y0117259D02*
X0081626Y0117259D01*
X0081626Y0115861D02*
X0081040Y0115861D01*
X0080471Y0114462D02*
X0082844Y0114462D01*
X0087044Y0114462D02*
X0089888Y0114462D01*
X0088544Y0113064D02*
X0088344Y0113064D01*
X0088344Y0111665D02*
X0088544Y0111665D01*
X0088544Y0110267D02*
X0088344Y0110267D01*
X0088344Y0108868D02*
X0088544Y0108868D01*
X0089035Y0107470D02*
X0087852Y0107470D01*
X0088144Y0106071D02*
X0088744Y0106071D01*
X0088744Y0104673D02*
X0088144Y0104673D01*
X0088144Y0103274D02*
X0088744Y0103274D01*
X0088144Y0102491D02*
X0084744Y0102491D01*
X0084744Y0100317D01*
X0084860Y0099885D01*
X0085083Y0099497D01*
X0085400Y0099181D01*
X0085788Y0098957D01*
X0086220Y0098841D01*
X0088144Y0098841D01*
X0088144Y0102491D01*
X0088144Y0101876D02*
X0088744Y0101876D01*
X0088744Y0100477D02*
X0088144Y0100477D01*
X0088144Y0099079D02*
X0088744Y0099079D01*
X0085577Y0099079D02*
X0052777Y0099079D01*
X0052777Y0100477D02*
X0084744Y0100477D01*
X0084744Y0101876D02*
X0052777Y0101876D01*
X0052777Y0103274D02*
X0084744Y0103274D01*
X0084744Y0104673D02*
X0052777Y0104673D01*
X0052777Y0106071D02*
X0085075Y0106071D01*
X0077372Y0111208D02*
X0077148Y0110886D01*
X0077087Y0118658D02*
X0077656Y0118658D01*
X0077656Y0120056D02*
X0077087Y0120056D01*
X0077087Y0121455D02*
X0077656Y0121455D01*
X0087560Y0148027D02*
X0095607Y0148027D01*
X0094310Y0149425D02*
X0088959Y0149425D01*
X0090358Y0150824D02*
X0093730Y0150824D01*
X0093605Y0152222D02*
X0091756Y0152222D01*
X0093155Y0153621D02*
X0093798Y0153621D01*
X0101803Y0148027D02*
X0105607Y0148027D01*
X0104310Y0149425D02*
X0103100Y0149425D01*
X0103680Y0150824D02*
X0103730Y0150824D01*
X0097881Y0185675D02*
X0093987Y0185675D01*
X0091234Y0188429D01*
X0091234Y0192322D01*
X0093987Y0195075D01*
X0097881Y0195075D01*
X0100634Y0192322D01*
X0100634Y0188429D01*
X0097881Y0185675D01*
X0097992Y0185786D02*
X0117498Y0185786D01*
X0117609Y0185675D02*
X0121503Y0185675D01*
X0124256Y0188429D01*
X0124256Y0192322D01*
X0121503Y0195075D01*
X0117609Y0195075D01*
X0114856Y0192322D01*
X0114856Y0188429D01*
X0117609Y0185675D01*
X0116100Y0187185D02*
X0099391Y0187185D01*
X0100634Y0188583D02*
X0114856Y0188583D01*
X0114856Y0189982D02*
X0100634Y0189982D01*
X0100634Y0191380D02*
X0114856Y0191380D01*
X0115313Y0192779D02*
X0100177Y0192779D01*
X0098779Y0194178D02*
X0116712Y0194178D01*
X0116310Y0196975D02*
X0099180Y0196975D01*
X0100579Y0198373D02*
X0114912Y0198373D01*
X0114856Y0199772D02*
X0100634Y0199772D01*
X0100634Y0201170D02*
X0114856Y0201170D01*
X0115103Y0202569D02*
X0100388Y0202569D01*
X0098989Y0203967D02*
X0116501Y0203967D01*
X0122611Y0203967D02*
X0140123Y0203967D01*
X0138725Y0202569D02*
X0124010Y0202569D01*
X0124256Y0201170D02*
X0138478Y0201170D01*
X0138478Y0199772D02*
X0124256Y0199772D01*
X0124201Y0198373D02*
X0138534Y0198373D01*
X0139932Y0196975D02*
X0122802Y0196975D01*
X0122401Y0194178D02*
X0140334Y0194178D01*
X0141231Y0195075D02*
X0138478Y0192322D01*
X0138478Y0188429D01*
X0141231Y0185675D01*
X0145125Y0185675D01*
X0147878Y0188429D01*
X0147878Y0192322D01*
X0145125Y0195075D01*
X0141231Y0195075D01*
X0138935Y0192779D02*
X0123799Y0192779D01*
X0124256Y0191380D02*
X0138478Y0191380D01*
X0138478Y0189982D02*
X0124256Y0189982D01*
X0124256Y0188583D02*
X0138478Y0188583D01*
X0139722Y0187185D02*
X0123013Y0187185D01*
X0121614Y0185786D02*
X0141120Y0185786D01*
X0145236Y0185786D02*
X0185111Y0185786D01*
X0184409Y0186489D02*
X0186489Y0184409D01*
X0189206Y0183283D01*
X0192147Y0183283D01*
X0194864Y0184409D01*
X0196944Y0186489D01*
X0198069Y0189206D01*
X0198069Y0192147D01*
X0196944Y0194864D01*
X0194864Y0196944D01*
X0192147Y0198069D01*
X0189206Y0198069D01*
X0186489Y0196944D01*
X0184409Y0194864D01*
X0183283Y0192147D01*
X0183283Y0189206D01*
X0184409Y0186489D01*
X0184121Y0187185D02*
X0146635Y0187185D01*
X0147878Y0188583D02*
X0183541Y0188583D01*
X0183283Y0189982D02*
X0147878Y0189982D01*
X0147878Y0191380D02*
X0183283Y0191380D01*
X0183545Y0192779D02*
X0147421Y0192779D01*
X0146023Y0194178D02*
X0184125Y0194178D01*
X0185121Y0195576D02*
X0078088Y0195576D01*
X0078088Y0196975D02*
X0092688Y0196975D01*
X0091290Y0198373D02*
X0078088Y0198373D01*
X0078088Y0199772D02*
X0091234Y0199772D01*
X0091234Y0201170D02*
X0065201Y0201170D01*
X0065201Y0199772D02*
X0070958Y0199772D01*
X0074523Y0197504D02*
X0063372Y0197504D01*
X0060501Y0200375D01*
X0057255Y0196975D02*
X0029436Y0196975D01*
X0029510Y0196944D02*
X0026793Y0198069D01*
X0023852Y0198069D01*
X0021134Y0196944D01*
X0019055Y0194864D01*
X0017929Y0192147D01*
X0017929Y0189206D01*
X0019055Y0186489D01*
X0021134Y0184409D01*
X0023852Y0183283D01*
X0026793Y0183283D01*
X0029510Y0184409D01*
X0031589Y0186489D01*
X0032715Y0189206D01*
X0032715Y0192147D01*
X0031589Y0194864D01*
X0029510Y0196944D01*
X0030878Y0195576D02*
X0062331Y0195576D01*
X0062448Y0195075D02*
X0058554Y0195075D01*
X0055801Y0192322D01*
X0055801Y0188429D01*
X0058554Y0185675D01*
X0062448Y0185675D01*
X0065201Y0188429D01*
X0065201Y0192322D01*
X0062448Y0195075D01*
X0063346Y0194178D02*
X0071378Y0194178D01*
X0070658Y0192779D02*
X0064744Y0192779D01*
X0065201Y0191380D02*
X0070658Y0191380D01*
X0070658Y0190527D02*
X0070658Y0188619D01*
X0070773Y0188187D01*
X0070997Y0187799D01*
X0071314Y0187483D01*
X0071701Y0187259D01*
X0072134Y0187143D01*
X0074239Y0187143D01*
X0074239Y0190527D01*
X0070658Y0190527D01*
X0070658Y0189982D02*
X0065201Y0189982D01*
X0065201Y0188583D02*
X0070667Y0188583D01*
X0071977Y0187185D02*
X0063957Y0187185D01*
X0062559Y0185786D02*
X0093876Y0185786D01*
X0092478Y0187185D02*
X0077069Y0187185D01*
X0078379Y0188583D02*
X0091234Y0188583D01*
X0091234Y0189982D02*
X0078388Y0189982D01*
X0078388Y0191380D02*
X0091234Y0191380D01*
X0091691Y0192779D02*
X0078388Y0192779D01*
X0077668Y0194178D02*
X0093090Y0194178D01*
X0091481Y0202569D02*
X0064955Y0202569D01*
X0063556Y0203967D02*
X0092879Y0203967D01*
X0074807Y0189982D02*
X0074239Y0189982D01*
X0074239Y0188583D02*
X0074807Y0188583D01*
X0074807Y0187185D02*
X0074239Y0187185D01*
X0058443Y0185786D02*
X0030887Y0185786D01*
X0031878Y0187185D02*
X0057045Y0187185D01*
X0055801Y0188583D02*
X0032457Y0188583D01*
X0032715Y0189982D02*
X0055801Y0189982D01*
X0055801Y0191380D02*
X0032715Y0191380D01*
X0032453Y0192779D02*
X0056258Y0192779D01*
X0057656Y0194178D02*
X0031874Y0194178D01*
X0029459Y0184388D02*
X0186539Y0184388D01*
X0194813Y0184388D02*
X0204543Y0184388D01*
X0204543Y0185786D02*
X0196242Y0185786D01*
X0197232Y0187185D02*
X0204543Y0187185D01*
X0204543Y0188583D02*
X0197811Y0188583D01*
X0198069Y0189982D02*
X0204543Y0189982D01*
X0204497Y0191380D02*
X0198069Y0191380D01*
X0197807Y0192779D02*
X0204346Y0192779D01*
X0203972Y0194178D02*
X0197228Y0194178D01*
X0196232Y0195576D02*
X0203597Y0195576D01*
X0202915Y0196975D02*
X0194790Y0196975D01*
X0197575Y0202569D02*
X0147632Y0202569D01*
X0147878Y0201170D02*
X0199626Y0201170D01*
X0201024Y0199772D02*
X0147878Y0199772D01*
X0147823Y0198373D02*
X0202108Y0198373D01*
X0194194Y0203967D02*
X0146233Y0203967D01*
X0146424Y0196975D02*
X0186563Y0196975D01*
X0204543Y0182989D02*
X0011455Y0182989D01*
X0011455Y0181591D02*
X0204543Y0181591D01*
X0204543Y0180192D02*
X0011455Y0180192D01*
X0011455Y0178794D02*
X0027904Y0178794D01*
X0026212Y0177395D02*
X0011455Y0177395D01*
X0011455Y0175997D02*
X0022992Y0175997D01*
X0021594Y0174598D02*
X0011455Y0174598D01*
X0011455Y0173200D02*
X0020195Y0173200D01*
X0019224Y0171801D02*
X0011455Y0171801D01*
X0011455Y0170403D02*
X0019224Y0170403D01*
X0019224Y0169004D02*
X0011455Y0169004D01*
X0011455Y0167606D02*
X0019224Y0167606D01*
X0019224Y0166207D02*
X0011455Y0166207D01*
X0011455Y0164809D02*
X0019224Y0164809D01*
X0019224Y0163410D02*
X0011455Y0163410D01*
X0011455Y0162012D02*
X0019224Y0162012D01*
X0019224Y0160613D02*
X0011455Y0160613D01*
X0011455Y0159215D02*
X0019224Y0159215D01*
X0019224Y0157816D02*
X0011455Y0157816D01*
X0011455Y0156418D02*
X0019224Y0156418D01*
X0019224Y0155019D02*
X0011455Y0155019D01*
X0011455Y0153621D02*
X0019224Y0153621D01*
X0019224Y0152222D02*
X0011455Y0152222D01*
X0011455Y0150824D02*
X0019224Y0150824D01*
X0019224Y0149425D02*
X0011455Y0149425D01*
X0011455Y0148027D02*
X0019224Y0148027D01*
X0019224Y0146628D02*
X0011455Y0146628D01*
X0011455Y0145230D02*
X0019224Y0145230D01*
X0019224Y0143831D02*
X0011455Y0143831D01*
X0011455Y0142433D02*
X0019224Y0142433D01*
X0019224Y0141034D02*
X0011455Y0141034D01*
X0011455Y0139636D02*
X0019224Y0139636D01*
X0019224Y0138237D02*
X0011455Y0138237D01*
X0011455Y0136839D02*
X0019209Y0136839D01*
X0019475Y0135440D02*
X0011455Y0135440D01*
X0011455Y0134042D02*
X0020267Y0134042D01*
X0020994Y0132643D02*
X0011455Y0132643D01*
X0011455Y0131245D02*
X0021721Y0131245D01*
X0022448Y0129846D02*
X0011455Y0129846D01*
X0011455Y0128447D02*
X0023175Y0128447D01*
X0023902Y0127049D02*
X0011455Y0127049D01*
X0011455Y0125650D02*
X0011894Y0125650D01*
X0017097Y0125650D02*
X0024628Y0125650D01*
X0025355Y0124252D02*
X0018322Y0124252D01*
X0018864Y0122853D02*
X0026082Y0122853D01*
X0026809Y0121455D02*
X0018864Y0121455D01*
X0018388Y0120056D02*
X0022948Y0120056D01*
X0021963Y0118658D02*
X0017257Y0118658D01*
X0021741Y0117259D02*
X0011455Y0117259D01*
X0011455Y0115861D02*
X0022120Y0115861D01*
X0021560Y0114462D02*
X0011455Y0114462D01*
X0011455Y0113064D02*
X0021560Y0113064D01*
X0021560Y0111665D02*
X0011455Y0111665D01*
X0011455Y0110267D02*
X0021560Y0110267D01*
X0021560Y0108868D02*
X0011455Y0108868D01*
X0011455Y0107470D02*
X0021560Y0107470D01*
X0021560Y0106071D02*
X0011455Y0106071D01*
X0011455Y0104673D02*
X0021560Y0104673D01*
X0021260Y0103274D02*
X0011455Y0103274D01*
X0011455Y0101876D02*
X0021260Y0101876D01*
X0022266Y0100477D02*
X0011455Y0100477D01*
X0011455Y0099079D02*
X0021741Y0099079D01*
X0021823Y0097680D02*
X0016843Y0097680D01*
X0018247Y0096282D02*
X0022608Y0096282D01*
X0018827Y0094883D02*
X0031074Y0094883D01*
X0031074Y0093485D02*
X0018864Y0093485D01*
X0018462Y0092086D02*
X0031074Y0092086D01*
X0031074Y0090688D02*
X0017437Y0090688D01*
X0011554Y0090688D02*
X0011455Y0090688D01*
X0011455Y0089289D02*
X0031074Y0089289D01*
X0031074Y0087891D02*
X0011455Y0087891D01*
X0011455Y0086492D02*
X0031074Y0086492D01*
X0031074Y0085094D02*
X0011455Y0085094D01*
X0011455Y0083695D02*
X0031074Y0083695D01*
X0031074Y0082297D02*
X0011455Y0082297D01*
X0011455Y0080898D02*
X0031074Y0080898D01*
X0031074Y0079500D02*
X0011455Y0079500D01*
X0011455Y0078101D02*
X0031074Y0078101D01*
X0031074Y0076703D02*
X0011455Y0076703D01*
X0011455Y0075304D02*
X0031074Y0075304D01*
X0031074Y0073906D02*
X0017661Y0073906D01*
X0018555Y0072507D02*
X0031074Y0072507D01*
X0031074Y0071109D02*
X0018864Y0071109D01*
X0029084Y0059920D02*
X0046812Y0059920D01*
X0046856Y0058522D02*
X0030434Y0058522D01*
X0031685Y0061319D02*
X0046812Y0061319D01*
X0046812Y0062717D02*
X0033083Y0062717D01*
X0034482Y0064116D02*
X0047373Y0064116D01*
X0047634Y0065514D02*
X0035274Y0065514D01*
X0035274Y0066913D02*
X0047008Y0066913D01*
X0047008Y0068311D02*
X0035274Y0068311D01*
X0035274Y0069710D02*
X0047008Y0069710D01*
X0047008Y0071109D02*
X0035274Y0071109D01*
X0035274Y0072507D02*
X0047636Y0072507D01*
X0050393Y0072507D02*
X0050961Y0072507D01*
X0050961Y0071109D02*
X0050393Y0071109D01*
X0050393Y0069710D02*
X0050961Y0069710D01*
X0050961Y0068311D02*
X0050393Y0068311D01*
X0050393Y0066913D02*
X0050961Y0066913D01*
X0050961Y0065514D02*
X0050393Y0065514D01*
X0050393Y0064116D02*
X0050961Y0064116D01*
X0050961Y0062717D02*
X0050393Y0062717D01*
X0050393Y0061319D02*
X0050961Y0061319D01*
X0050961Y0059920D02*
X0050393Y0059920D01*
X0050393Y0058522D02*
X0050961Y0058522D01*
X0053981Y0064116D02*
X0054490Y0064116D01*
X0054751Y0065514D02*
X0053720Y0065514D01*
X0053718Y0072507D02*
X0054753Y0072507D01*
X0055570Y0073906D02*
X0035274Y0073906D01*
X0035274Y0075304D02*
X0055570Y0075304D01*
X0055570Y0076703D02*
X0035274Y0076703D01*
X0035274Y0078101D02*
X0055570Y0078101D01*
X0055570Y0079500D02*
X0035274Y0079500D01*
X0035274Y0080898D02*
X0055570Y0080898D01*
X0050677Y0084504D02*
X0050677Y0133878D01*
X0030292Y0154263D01*
X0026519Y0150824D02*
X0026274Y0150824D01*
X0026274Y0149425D02*
X0028645Y0149425D01*
X0026274Y0148027D02*
X0033559Y0148027D01*
X0034957Y0146628D02*
X0026274Y0146628D01*
X0026274Y0145230D02*
X0036356Y0145230D01*
X0037754Y0143831D02*
X0026274Y0143831D01*
X0026274Y0142433D02*
X0039153Y0142433D01*
X0040551Y0141034D02*
X0026274Y0141034D01*
X0026274Y0139636D02*
X0041950Y0139636D01*
X0043348Y0138237D02*
X0026274Y0138237D01*
X0026763Y0136839D02*
X0044747Y0136839D01*
X0046145Y0135440D02*
X0027540Y0135440D01*
X0028317Y0134042D02*
X0047544Y0134042D01*
X0048577Y0132643D02*
X0029094Y0132643D01*
X0029870Y0131245D02*
X0048577Y0131245D01*
X0048577Y0129846D02*
X0030647Y0129846D01*
X0031424Y0128447D02*
X0048577Y0128447D01*
X0048577Y0127049D02*
X0032201Y0127049D01*
X0032978Y0125650D02*
X0048577Y0125650D01*
X0048577Y0124252D02*
X0033755Y0124252D01*
X0034532Y0122853D02*
X0048577Y0122853D01*
X0048577Y0121455D02*
X0035309Y0121455D01*
X0035274Y0120056D02*
X0048577Y0120056D01*
X0048577Y0118658D02*
X0035274Y0118658D01*
X0035274Y0117259D02*
X0048577Y0117259D01*
X0048577Y0115861D02*
X0035274Y0115861D01*
X0035274Y0114462D02*
X0048577Y0114462D01*
X0048577Y0113064D02*
X0035274Y0113064D01*
X0035274Y0111665D02*
X0048577Y0111665D01*
X0048577Y0110267D02*
X0035274Y0110267D01*
X0035274Y0108868D02*
X0048577Y0108868D01*
X0048577Y0107470D02*
X0035274Y0107470D01*
X0035274Y0106071D02*
X0048577Y0106071D01*
X0048577Y0104673D02*
X0035274Y0104673D01*
X0035274Y0103274D02*
X0048577Y0103274D01*
X0048577Y0101876D02*
X0035274Y0101876D01*
X0035274Y0100477D02*
X0048577Y0100477D01*
X0048577Y0099079D02*
X0035274Y0099079D01*
X0035274Y0097680D02*
X0048577Y0097680D01*
X0048577Y0096282D02*
X0035274Y0096282D01*
X0035274Y0094883D02*
X0048577Y0094883D01*
X0048577Y0093485D02*
X0035274Y0093485D01*
X0035274Y0092086D02*
X0048577Y0092086D01*
X0048577Y0090688D02*
X0035274Y0090688D01*
X0035274Y0089289D02*
X0048577Y0089289D01*
X0047950Y0087891D02*
X0035274Y0087891D01*
X0035274Y0086492D02*
X0047308Y0086492D01*
X0047308Y0085094D02*
X0035274Y0085094D01*
X0035274Y0083695D02*
X0047308Y0083695D01*
X0047308Y0082297D02*
X0035274Y0082297D01*
X0031074Y0096282D02*
X0027643Y0096282D01*
X0028428Y0097680D02*
X0031074Y0097680D01*
X0031074Y0099079D02*
X0028509Y0099079D01*
X0028220Y0100477D02*
X0031074Y0100477D01*
X0031074Y0101876D02*
X0029384Y0101876D01*
X0029384Y0103274D02*
X0031074Y0103274D01*
X0031074Y0104673D02*
X0029084Y0104673D01*
X0029084Y0106071D02*
X0031074Y0106071D01*
X0031074Y0107470D02*
X0029084Y0107470D01*
X0029084Y0108868D02*
X0031074Y0108868D01*
X0031074Y0110267D02*
X0029084Y0110267D01*
X0029926Y0111665D02*
X0031074Y0111665D01*
X0028370Y0113079D02*
X0029767Y0114476D01*
X0029767Y0120318D01*
X0021324Y0136561D01*
X0021324Y0171359D01*
X0024228Y0174263D01*
X0030292Y0174263D01*
X0034372Y0177395D02*
X0204543Y0177395D01*
X0204543Y0175997D02*
X0035094Y0175997D01*
X0035392Y0174598D02*
X0204543Y0174598D01*
X0204543Y0173200D02*
X0035372Y0173200D01*
X0034793Y0171801D02*
X0204543Y0171801D01*
X0204543Y0170403D02*
X0033644Y0170403D01*
X0032172Y0169004D02*
X0204543Y0169004D01*
X0204543Y0167606D02*
X0034162Y0167606D01*
X0032680Y0178794D02*
X0204543Y0178794D01*
X0204543Y0152222D02*
X0176787Y0152222D01*
X0177802Y0150824D02*
X0204543Y0150824D01*
X0204543Y0149425D02*
X0177802Y0149425D01*
X0177802Y0148027D02*
X0204543Y0148027D01*
X0204543Y0146628D02*
X0182265Y0146628D01*
X0183664Y0145230D02*
X0204543Y0145230D01*
X0204543Y0143831D02*
X0185062Y0143831D01*
X0186461Y0142433D02*
X0204543Y0142433D01*
X0204543Y0141034D02*
X0187860Y0141034D01*
X0189258Y0139636D02*
X0204543Y0139636D01*
X0204543Y0138237D02*
X0190657Y0138237D01*
X0192055Y0136839D02*
X0204543Y0136839D01*
X0204543Y0135440D02*
X0193454Y0135440D01*
X0194852Y0134042D02*
X0204543Y0134042D01*
X0204543Y0132643D02*
X0196251Y0132643D01*
X0197374Y0131245D02*
X0204543Y0131245D01*
X0204543Y0129846D02*
X0197374Y0129846D01*
X0197374Y0128447D02*
X0204543Y0128447D01*
X0204543Y0127049D02*
X0197374Y0127049D01*
X0197374Y0125650D02*
X0204543Y0125650D01*
X0204543Y0124252D02*
X0197374Y0124252D01*
X0197374Y0122853D02*
X0204543Y0122853D01*
X0204543Y0121455D02*
X0197374Y0121455D01*
X0197374Y0120056D02*
X0204543Y0120056D01*
X0204543Y0118658D02*
X0197374Y0118658D01*
X0197374Y0117259D02*
X0204543Y0117259D01*
X0204543Y0115861D02*
X0197374Y0115861D01*
X0197374Y0114462D02*
X0204543Y0114462D01*
X0204543Y0113064D02*
X0197374Y0113064D01*
X0197374Y0111665D02*
X0204543Y0111665D01*
X0204543Y0110267D02*
X0197374Y0110267D01*
X0197374Y0108868D02*
X0204543Y0108868D01*
X0204543Y0107470D02*
X0197374Y0107470D01*
X0197374Y0106071D02*
X0204543Y0106071D01*
X0204543Y0104673D02*
X0196618Y0104673D01*
X0195220Y0103274D02*
X0204543Y0103274D01*
X0204543Y0101876D02*
X0193821Y0101876D01*
X0192423Y0100477D02*
X0204543Y0100477D01*
X0204543Y0099079D02*
X0198285Y0099079D01*
X0198285Y0097680D02*
X0204543Y0097680D01*
X0204543Y0096282D02*
X0198285Y0096282D01*
X0198285Y0094883D02*
X0204543Y0094883D01*
X0204543Y0093485D02*
X0198285Y0093485D01*
X0198285Y0092086D02*
X0204543Y0092086D01*
X0204543Y0090688D02*
X0198285Y0090688D01*
X0198285Y0089289D02*
X0204543Y0089289D01*
X0204543Y0087891D02*
X0198285Y0087891D01*
X0198285Y0086492D02*
X0204543Y0086492D01*
X0204543Y0085094D02*
X0198285Y0085094D01*
X0198285Y0083695D02*
X0204543Y0083695D01*
X0204543Y0082297D02*
X0198285Y0082297D01*
X0197965Y0080898D02*
X0204543Y0080898D01*
X0204543Y0079500D02*
X0183299Y0079500D01*
X0183299Y0080898D02*
X0191081Y0080898D01*
X0190761Y0082297D02*
X0183299Y0082297D01*
X0182904Y0083695D02*
X0190761Y0083695D01*
X0190761Y0085094D02*
X0182999Y0085094D01*
X0179346Y0080715D02*
X0179346Y0080146D01*
X0175962Y0080146D01*
X0175962Y0078041D01*
X0176078Y0077609D01*
X0176302Y0077221D01*
X0176619Y0076905D01*
X0176807Y0076796D01*
X0176546Y0076535D01*
X0176323Y0076147D01*
X0176207Y0075715D01*
X0176207Y0073610D01*
X0179591Y0073610D01*
X0179591Y0073041D01*
X0176207Y0073041D01*
X0176207Y0070936D01*
X0176323Y0070504D01*
X0176546Y0070116D01*
X0176863Y0069800D01*
X0176905Y0069776D01*
X0176507Y0069378D01*
X0176507Y0068389D01*
X0172313Y0068334D01*
X0171580Y0068334D01*
X0171570Y0068324D01*
X0171556Y0068324D01*
X0171044Y0067799D01*
X0166308Y0063063D01*
X0165450Y0063063D01*
X0165450Y0065835D01*
X0174061Y0074445D01*
X0174061Y0082615D01*
X0176262Y0084817D01*
X0176262Y0084378D01*
X0176660Y0083980D01*
X0176619Y0083956D01*
X0176302Y0083640D01*
X0176078Y0083252D01*
X0175962Y0082820D01*
X0175962Y0080715D01*
X0179346Y0080715D01*
X0179347Y0079500D02*
X0179915Y0079500D01*
X0179915Y0078101D02*
X0179347Y0078101D01*
X0179591Y0076703D02*
X0179915Y0076703D01*
X0180159Y0075304D02*
X0179591Y0075304D01*
X0179591Y0073906D02*
X0180159Y0073906D01*
X0183544Y0073906D02*
X0204543Y0073906D01*
X0204543Y0075304D02*
X0183544Y0075304D01*
X0183036Y0076703D02*
X0204543Y0076703D01*
X0204543Y0078101D02*
X0183299Y0078101D01*
X0183544Y0072507D02*
X0204543Y0072507D01*
X0204543Y0071109D02*
X0183544Y0071109D01*
X0182912Y0069710D02*
X0204543Y0069710D01*
X0204543Y0068311D02*
X0183244Y0068311D01*
X0183244Y0066913D02*
X0204543Y0066913D01*
X0204543Y0065514D02*
X0183244Y0065514D01*
X0184226Y0064116D02*
X0204543Y0064116D01*
X0204543Y0062717D02*
X0185357Y0062717D01*
X0186488Y0061319D02*
X0191355Y0061319D01*
X0190761Y0059920D02*
X0187619Y0059920D01*
X0188751Y0058522D02*
X0190761Y0058522D01*
X0190761Y0057123D02*
X0189882Y0057123D01*
X0187514Y0054326D02*
X0172710Y0054326D01*
X0172710Y0052928D02*
X0188645Y0052928D01*
X0189776Y0051529D02*
X0173916Y0051529D01*
X0175314Y0050131D02*
X0190761Y0050131D01*
X0190761Y0048732D02*
X0176713Y0048732D01*
X0178111Y0047334D02*
X0190761Y0047334D01*
X0190761Y0045935D02*
X0179510Y0045935D01*
X0180908Y0044537D02*
X0190761Y0044537D01*
X0190761Y0043138D02*
X0183977Y0043138D01*
X0184559Y0041740D02*
X0204543Y0041740D01*
X0204543Y0043138D02*
X0198285Y0043138D01*
X0198285Y0044537D02*
X0204543Y0044537D01*
X0204543Y0045935D02*
X0198285Y0045935D01*
X0198285Y0047334D02*
X0204543Y0047334D01*
X0204543Y0048732D02*
X0198285Y0048732D01*
X0198285Y0050131D02*
X0204543Y0050131D01*
X0204543Y0051529D02*
X0198285Y0051529D01*
X0198285Y0052928D02*
X0204543Y0052928D01*
X0204543Y0054326D02*
X0198285Y0054326D01*
X0198285Y0055725D02*
X0204543Y0055725D01*
X0204543Y0057123D02*
X0198285Y0057123D01*
X0198285Y0058522D02*
X0204543Y0058522D01*
X0204543Y0059920D02*
X0198285Y0059920D01*
X0197691Y0061319D02*
X0204543Y0061319D01*
X0186383Y0055725D02*
X0181251Y0055725D01*
X0181321Y0057123D02*
X0185252Y0057123D01*
X0184120Y0058522D02*
X0181321Y0058522D01*
X0181321Y0059920D02*
X0182989Y0059920D01*
X0181858Y0061319D02*
X0180852Y0061319D01*
X0180727Y0062717D02*
X0171054Y0062717D01*
X0172453Y0064116D02*
X0176507Y0064116D01*
X0177171Y0061319D02*
X0177739Y0061319D01*
X0177739Y0059920D02*
X0177171Y0059920D01*
X0177171Y0058522D02*
X0177739Y0058522D01*
X0177739Y0057123D02*
X0177171Y0057123D01*
X0177171Y0055725D02*
X0177739Y0055725D01*
X0174058Y0061319D02*
X0173735Y0061319D01*
X0170762Y0058178D02*
X0170610Y0058124D01*
X0170610Y0051865D01*
X0181278Y0041197D01*
X0181278Y0019480D01*
X0175944Y0014146D01*
X0140257Y0014146D01*
X0135020Y0019383D01*
X0135020Y0020314D01*
X0123989Y0031345D01*
X0123230Y0031345D01*
X0124609Y0027755D02*
X0119218Y0027755D01*
X0116822Y0027755D02*
X0116253Y0027755D01*
X0116253Y0029153D02*
X0116822Y0029153D01*
X0116822Y0030552D02*
X0116253Y0030552D01*
X0116253Y0031950D02*
X0116822Y0031950D01*
X0116822Y0033349D02*
X0116253Y0033349D01*
X0116253Y0034747D02*
X0116822Y0034747D01*
X0119620Y0034747D02*
X0125111Y0034747D01*
X0127405Y0037544D02*
X0131127Y0037544D01*
X0131127Y0036146D02*
X0128804Y0036146D01*
X0130202Y0034747D02*
X0131127Y0034747D01*
X0131127Y0038943D02*
X0126007Y0038943D01*
X0131239Y0040341D02*
X0131831Y0040341D01*
X0131650Y0041740D02*
X0134234Y0041740D01*
X0133112Y0043138D02*
X0131650Y0043138D01*
X0131650Y0044537D02*
X0132855Y0044537D01*
X0133248Y0045935D02*
X0131650Y0045935D01*
X0131650Y0047334D02*
X0135030Y0047334D01*
X0136151Y0048732D02*
X0133018Y0051865D01*
X0127767Y0051865D01*
X0127750Y0051882D01*
X0131950Y0051882D01*
X0127750Y0051882D01*
X0127750Y0051882D01*
X0131650Y0048732D02*
X0157350Y0048732D01*
X0161550Y0048732D01*
X0161550Y0048732D01*
X0157350Y0048732D01*
X0157370Y0047334D02*
X0148261Y0047334D01*
X0149180Y0045935D02*
X0157650Y0045935D01*
X0157650Y0044537D02*
X0149310Y0044537D01*
X0148719Y0043138D02*
X0157650Y0043138D01*
X0157650Y0041740D02*
X0148026Y0041740D01*
X0144426Y0041740D02*
X0138576Y0041740D01*
X0138766Y0043138D02*
X0143733Y0043138D01*
X0143142Y0044537D02*
X0139023Y0044537D01*
X0138630Y0045935D02*
X0143272Y0045935D01*
X0144191Y0047334D02*
X0136848Y0047334D01*
X0136151Y0048732D02*
X0161550Y0048732D01*
X0161593Y0048690D01*
X0165403Y0048690D01*
X0166419Y0049706D01*
X0166419Y0053262D01*
X0164650Y0055031D01*
X0161550Y0055031D01*
X0161550Y0055031D01*
X0165750Y0055031D01*
X0165750Y0053708D01*
X0165635Y0053275D01*
X0165450Y0052956D01*
X0165450Y0050807D01*
X0165635Y0050488D01*
X0165750Y0050056D01*
X0165750Y0048732D01*
X0161550Y0048732D01*
X0161550Y0048732D01*
X0165750Y0048732D01*
X0165750Y0047408D01*
X0165741Y0047374D01*
X0166012Y0047374D01*
X0166827Y0048189D01*
X0167961Y0048658D01*
X0169188Y0048658D01*
X0170321Y0048189D01*
X0171189Y0047321D01*
X0171658Y0046188D01*
X0171658Y0044961D01*
X0171189Y0043827D01*
X0170321Y0042959D01*
X0169188Y0042490D01*
X0168307Y0042490D01*
X0168981Y0041816D01*
X0168981Y0041727D01*
X0169796Y0040912D01*
X0170265Y0039779D01*
X0170265Y0038709D01*
X0171109Y0039058D01*
X0172336Y0039058D01*
X0173469Y0038589D01*
X0174337Y0037721D01*
X0174806Y0036588D01*
X0174806Y0035361D01*
X0174337Y0034227D01*
X0173469Y0033359D01*
X0172336Y0032890D01*
X0171109Y0032890D01*
X0169975Y0033359D01*
X0169160Y0034174D01*
X0158174Y0034174D01*
X0158174Y0033477D01*
X0157354Y0032657D01*
X0154249Y0032657D01*
X0154249Y0030259D01*
X0156820Y0027688D01*
X0156820Y0025089D01*
X0157909Y0024638D01*
X0159344Y0023203D01*
X0160020Y0021570D01*
X0160696Y0023203D01*
X0162131Y0024638D01*
X0164006Y0025414D01*
X0166034Y0025414D01*
X0167909Y0024638D01*
X0169344Y0023203D01*
X0170120Y0021328D01*
X0170120Y0019300D01*
X0169344Y0017425D01*
X0168164Y0016246D01*
X0175074Y0016246D01*
X0179178Y0020350D01*
X0179178Y0038657D01*
X0178496Y0039338D01*
X0177997Y0040544D01*
X0177997Y0041508D01*
X0169740Y0049765D01*
X0168510Y0050995D01*
X0168510Y0054809D01*
X0168017Y0054809D01*
X0167197Y0055629D01*
X0167197Y0056081D01*
X0165750Y0056081D01*
X0165750Y0055031D01*
X0161550Y0055031D01*
X0161457Y0058088D02*
X0161550Y0058181D01*
X0170661Y0058181D01*
X0170762Y0058178D01*
X0170664Y0057160D01*
X0168510Y0054326D02*
X0165750Y0054326D01*
X0165750Y0055725D02*
X0167197Y0055725D01*
X0168510Y0052928D02*
X0165450Y0052928D01*
X0165450Y0051529D02*
X0168510Y0051529D01*
X0169374Y0050131D02*
X0165730Y0050131D01*
X0165750Y0048732D02*
X0170773Y0048732D01*
X0171176Y0047334D02*
X0172171Y0047334D01*
X0171658Y0045935D02*
X0173570Y0045935D01*
X0174968Y0044537D02*
X0171483Y0044537D01*
X0170500Y0043138D02*
X0176367Y0043138D01*
X0177765Y0041740D02*
X0168981Y0041740D01*
X0170032Y0040341D02*
X0178081Y0040341D01*
X0178892Y0038943D02*
X0172614Y0038943D01*
X0170830Y0038943D02*
X0170265Y0038943D01*
X0174410Y0037544D02*
X0179178Y0037544D01*
X0179178Y0036146D02*
X0174806Y0036146D01*
X0174552Y0034747D02*
X0179178Y0034747D01*
X0179178Y0033349D02*
X0173443Y0033349D01*
X0170001Y0033349D02*
X0158046Y0033349D01*
X0154249Y0031950D02*
X0179178Y0031950D01*
X0179178Y0030552D02*
X0154249Y0030552D01*
X0155354Y0029153D02*
X0179178Y0029153D01*
X0179178Y0027755D02*
X0156753Y0027755D01*
X0156820Y0026356D02*
X0179178Y0026356D01*
X0179178Y0024958D02*
X0167136Y0024958D01*
X0168987Y0023559D02*
X0179178Y0023559D01*
X0179178Y0022161D02*
X0169775Y0022161D01*
X0170120Y0020762D02*
X0179178Y0020762D01*
X0178192Y0019364D02*
X0170120Y0019364D01*
X0169567Y0017965D02*
X0176793Y0017965D01*
X0175395Y0016567D02*
X0168485Y0016567D01*
X0177139Y0012371D02*
X0195462Y0012371D01*
X0198163Y0013770D02*
X0178537Y0013770D01*
X0179936Y0015168D02*
X0199965Y0015168D01*
X0201364Y0016567D02*
X0181334Y0016567D01*
X0182733Y0017965D02*
X0189119Y0017965D01*
X0192234Y0017965D02*
X0202304Y0017965D01*
X0203111Y0019364D02*
X0195173Y0019364D01*
X0196572Y0020762D02*
X0203688Y0020762D01*
X0204063Y0022161D02*
X0197369Y0022161D01*
X0197948Y0023559D02*
X0204428Y0023559D01*
X0204519Y0024958D02*
X0198069Y0024958D01*
X0198069Y0026356D02*
X0204543Y0026356D01*
X0204543Y0027755D02*
X0197671Y0027755D01*
X0197091Y0029153D02*
X0204543Y0029153D01*
X0204543Y0030552D02*
X0195902Y0030552D01*
X0193993Y0031950D02*
X0204543Y0031950D01*
X0204543Y0033349D02*
X0183378Y0033349D01*
X0183378Y0034747D02*
X0204543Y0034747D01*
X0204543Y0036146D02*
X0183378Y0036146D01*
X0183378Y0037544D02*
X0204543Y0037544D01*
X0204543Y0038943D02*
X0183664Y0038943D01*
X0184475Y0040341D02*
X0204543Y0040341D01*
X0187360Y0031950D02*
X0183378Y0031950D01*
X0183378Y0030552D02*
X0185451Y0030552D01*
X0184261Y0029153D02*
X0183378Y0029153D01*
X0183378Y0027755D02*
X0183682Y0027755D01*
X0183405Y0023559D02*
X0183378Y0023559D01*
X0183378Y0022161D02*
X0183984Y0022161D01*
X0183378Y0020762D02*
X0184781Y0020762D01*
X0186180Y0019364D02*
X0183378Y0019364D01*
X0162904Y0024958D02*
X0157136Y0024958D01*
X0158987Y0023559D02*
X0161053Y0023559D01*
X0160265Y0022161D02*
X0159775Y0022161D01*
X0158174Y0038943D02*
X0164097Y0038943D01*
X0158062Y0040341D02*
X0157469Y0040341D01*
X0156547Y0050131D02*
X0148092Y0050131D01*
X0149110Y0051529D02*
X0155149Y0051529D01*
X0154159Y0052928D02*
X0149310Y0052928D01*
X0148860Y0054326D02*
X0154159Y0054326D01*
X0154159Y0055725D02*
X0148225Y0055725D01*
X0145972Y0057834D02*
X0155370Y0057834D01*
X0156259Y0056945D01*
X0157402Y0058088D01*
X0161457Y0058088D01*
X0156259Y0056945D02*
X0156259Y0053389D01*
X0157766Y0051882D01*
X0161550Y0051882D01*
X0165450Y0064116D02*
X0167361Y0064116D01*
X0168760Y0065514D02*
X0165450Y0065514D01*
X0166529Y0066913D02*
X0170158Y0066913D01*
X0171544Y0068311D02*
X0167927Y0068311D01*
X0169326Y0069710D02*
X0176839Y0069710D01*
X0176207Y0071109D02*
X0170724Y0071109D01*
X0172123Y0072507D02*
X0176207Y0072507D01*
X0176207Y0073906D02*
X0173521Y0073906D01*
X0174061Y0075304D02*
X0176207Y0075304D01*
X0176714Y0076703D02*
X0174061Y0076703D01*
X0174061Y0078101D02*
X0175962Y0078101D01*
X0175962Y0079500D02*
X0174061Y0079500D01*
X0174061Y0080898D02*
X0175962Y0080898D01*
X0175962Y0082297D02*
X0174061Y0082297D01*
X0175141Y0083695D02*
X0176357Y0083695D01*
X0174293Y0092759D02*
X0167054Y0085520D01*
X0167054Y0075360D01*
X0173293Y0100174D02*
X0173667Y0100548D01*
X0173667Y0103242D01*
X0173749Y0103276D01*
X0174111Y0103638D01*
X0174464Y0103284D01*
X0175070Y0102879D01*
X0175744Y0102600D01*
X0176459Y0102458D01*
X0176823Y0102458D01*
X0176823Y0110158D01*
X0176823Y0110158D01*
X0176823Y0102458D01*
X0177187Y0102458D01*
X0177902Y0102600D01*
X0178576Y0102879D01*
X0179182Y0103284D01*
X0179535Y0103638D01*
X0179897Y0103276D01*
X0181147Y0102758D01*
X0182499Y0102758D01*
X0183749Y0103276D01*
X0184705Y0104232D01*
X0185223Y0105482D01*
X0185223Y0110834D01*
X0184705Y0112084D01*
X0183873Y0112916D01*
X0183873Y0124700D01*
X0182643Y0125930D01*
X0179165Y0129408D01*
X0179015Y0129408D01*
X0178615Y0129808D01*
X0179354Y0130547D01*
X0179354Y0134069D01*
X0178534Y0134889D01*
X0168713Y0134889D01*
X0168232Y0134408D01*
X0167711Y0134408D01*
X0167711Y0138217D01*
X0168159Y0138217D01*
X0168979Y0139037D01*
X0168979Y0139636D01*
X0170765Y0139657D01*
X0170765Y0139051D01*
X0171586Y0138231D01*
X0176682Y0138231D01*
X0177502Y0139051D01*
X0177502Y0143374D01*
X0180428Y0143374D01*
X0193774Y0130028D01*
X0193774Y0106920D01*
X0187028Y0100174D01*
X0173293Y0100174D01*
X0173596Y0100477D02*
X0187332Y0100477D01*
X0188730Y0101876D02*
X0173667Y0101876D01*
X0173746Y0103274D02*
X0174479Y0103274D01*
X0176823Y0103274D02*
X0176823Y0103274D01*
X0176823Y0104673D02*
X0176823Y0104673D01*
X0176823Y0106071D02*
X0176823Y0106071D01*
X0176823Y0107470D02*
X0176823Y0107470D01*
X0176823Y0108868D02*
X0176823Y0108868D01*
X0181773Y0110208D02*
X0181823Y0110158D01*
X0181773Y0110208D02*
X0181773Y0123830D01*
X0178295Y0127308D01*
X0173623Y0127308D01*
X0173623Y0132308D01*
X0166018Y0132308D01*
X0165611Y0131901D01*
X0156018Y0122308D01*
X0153151Y0122308D01*
X0153210Y0122249D01*
X0155865Y0122249D01*
X0158882Y0122202D02*
X0158882Y0120547D01*
X0158309Y0119975D01*
X0158525Y0119850D01*
X0158842Y0119533D01*
X0159066Y0119145D01*
X0159182Y0118713D01*
X0159182Y0117308D01*
X0153151Y0117308D01*
X0153151Y0117308D01*
X0153151Y0114427D01*
X0157330Y0114427D01*
X0156461Y0113558D01*
X0156147Y0113558D01*
X0154897Y0113040D01*
X0154323Y0112466D01*
X0153749Y0113040D01*
X0152499Y0113558D01*
X0151147Y0113558D01*
X0151021Y0113506D01*
X0150100Y0114427D01*
X0153151Y0114427D01*
X0153151Y0117308D01*
X0153151Y0117308D01*
X0159182Y0117308D01*
X0159182Y0116278D01*
X0162012Y0119108D01*
X0167932Y0119108D01*
X0168632Y0119808D01*
X0167893Y0120547D01*
X0167893Y0124069D01*
X0168632Y0124808D01*
X0167893Y0125547D01*
X0167893Y0129069D01*
X0168632Y0129808D01*
X0168232Y0130208D01*
X0166888Y0130208D01*
X0158882Y0122202D01*
X0158882Y0121455D02*
X0167893Y0121455D01*
X0167893Y0122853D02*
X0159533Y0122853D01*
X0160931Y0124252D02*
X0168075Y0124252D01*
X0167893Y0125650D02*
X0162330Y0125650D01*
X0163728Y0127049D02*
X0167893Y0127049D01*
X0167893Y0128447D02*
X0165127Y0128447D01*
X0166525Y0129846D02*
X0168594Y0129846D01*
X0165611Y0131901D02*
X0165611Y0141782D01*
X0158951Y0141684D01*
X0158907Y0141640D01*
X0165611Y0141782D02*
X0165624Y0141698D01*
X0174134Y0141796D01*
X0170765Y0139636D02*
X0168979Y0139636D01*
X0168179Y0138237D02*
X0171579Y0138237D01*
X0167711Y0136839D02*
X0186964Y0136839D01*
X0185565Y0138237D02*
X0176689Y0138237D01*
X0177502Y0139636D02*
X0184167Y0139636D01*
X0182768Y0141034D02*
X0177502Y0141034D01*
X0177502Y0142433D02*
X0181370Y0142433D01*
X0179354Y0134042D02*
X0189761Y0134042D01*
X0188362Y0135440D02*
X0167711Y0135440D01*
X0178653Y0129846D02*
X0193774Y0129846D01*
X0193774Y0128447D02*
X0180125Y0128447D01*
X0181524Y0127049D02*
X0193774Y0127049D01*
X0193774Y0125650D02*
X0182922Y0125650D01*
X0183873Y0124252D02*
X0193774Y0124252D01*
X0193774Y0122853D02*
X0183873Y0122853D01*
X0183873Y0121455D02*
X0193774Y0121455D01*
X0193774Y0120056D02*
X0183873Y0120056D01*
X0183873Y0118658D02*
X0193774Y0118658D01*
X0193774Y0117259D02*
X0183873Y0117259D01*
X0183873Y0115861D02*
X0193774Y0115861D01*
X0193774Y0114462D02*
X0183873Y0114462D01*
X0183873Y0113064D02*
X0193774Y0113064D01*
X0193774Y0111665D02*
X0184879Y0111665D01*
X0185223Y0110267D02*
X0193774Y0110267D01*
X0193774Y0108868D02*
X0185223Y0108868D01*
X0185223Y0107470D02*
X0193774Y0107470D01*
X0192926Y0106071D02*
X0185223Y0106071D01*
X0184888Y0104673D02*
X0191527Y0104673D01*
X0190129Y0103274D02*
X0183746Y0103274D01*
X0179900Y0103274D02*
X0179167Y0103274D01*
X0168383Y0120056D02*
X0158391Y0120056D01*
X0159182Y0118658D02*
X0161561Y0118658D01*
X0160163Y0117259D02*
X0159182Y0117259D01*
X0158868Y0117308D02*
X0163739Y0122179D01*
X0158868Y0117308D02*
X0153151Y0117308D01*
X0153151Y0117259D02*
X0153151Y0117259D01*
X0153151Y0115861D02*
X0153151Y0115861D01*
X0153151Y0114462D02*
X0153151Y0114462D01*
X0153692Y0113064D02*
X0154954Y0113064D01*
X0179354Y0131245D02*
X0192558Y0131245D01*
X0191159Y0132643D02*
X0179354Y0132643D01*
X0170465Y0148027D02*
X0169279Y0148027D01*
X0169279Y0149425D02*
X0170465Y0149425D01*
X0170465Y0150824D02*
X0169279Y0150824D01*
X0168239Y0152222D02*
X0171481Y0152222D01*
X0173850Y0152222D02*
X0174418Y0152222D01*
X0174418Y0150824D02*
X0173850Y0150824D01*
X0173850Y0149425D02*
X0174418Y0149425D01*
X0165895Y0149425D02*
X0165326Y0149425D01*
X0165326Y0150824D02*
X0165895Y0150824D01*
X0165895Y0152222D02*
X0165326Y0152222D01*
X0132315Y0061331D02*
X0127750Y0061331D01*
X0132315Y0061331D02*
X0135812Y0057834D01*
X0133559Y0055725D02*
X0131650Y0055725D01*
X0131650Y0057123D02*
X0132768Y0057123D01*
X0132154Y0058522D02*
X0131650Y0058522D01*
X0131650Y0054326D02*
X0141981Y0054326D01*
X0143142Y0052928D02*
X0131950Y0052928D01*
X0131950Y0051529D02*
X0143342Y0051529D01*
X0144360Y0050131D02*
X0131836Y0050131D01*
X0138065Y0055725D02*
X0140583Y0055725D01*
X0139184Y0057123D02*
X0138856Y0057123D01*
X0123850Y0057123D02*
X0121896Y0057123D01*
X0123850Y0058522D02*
X0114582Y0058522D01*
X0117185Y0047383D02*
X0117185Y0047383D01*
X0113455Y0034747D02*
X0111842Y0034747D01*
X0112672Y0033349D02*
X0110443Y0033349D01*
X0109889Y0031950D02*
X0112672Y0031950D01*
X0112672Y0030552D02*
X0109889Y0030552D01*
X0112672Y0029153D02*
X0112788Y0028720D01*
X0113012Y0028333D01*
X0113328Y0028016D01*
X0113716Y0027792D01*
X0114720Y0024958D02*
X0115320Y0024958D01*
X0115320Y0023559D02*
X0114720Y0023559D01*
X0114720Y0022161D02*
X0115320Y0022161D01*
X0115320Y0020762D02*
X0114720Y0020762D01*
X0114720Y0019364D02*
X0115320Y0019364D01*
X0115320Y0017965D02*
X0114720Y0017965D01*
X0114720Y0016567D02*
X0115320Y0016567D01*
X0115320Y0015168D02*
X0114720Y0015168D01*
X0116657Y0015168D02*
X0123383Y0015168D01*
X0124720Y0015168D02*
X0125320Y0015168D01*
X0126657Y0015168D02*
X0136265Y0015168D01*
X0131555Y0016567D02*
X0128909Y0016567D01*
X0129884Y0017965D02*
X0130473Y0017965D01*
X0125320Y0017965D02*
X0124720Y0017965D01*
X0124720Y0016567D02*
X0125320Y0016567D01*
X0125320Y0019364D02*
X0124720Y0019364D01*
X0124720Y0020762D02*
X0125320Y0020762D01*
X0125320Y0022161D02*
X0124720Y0022161D01*
X0124720Y0023559D02*
X0125320Y0023559D01*
X0125320Y0024958D02*
X0124720Y0024958D01*
X0126008Y0026356D02*
X0032715Y0026356D01*
X0032715Y0024958D02*
X0112239Y0024958D01*
X0110703Y0023559D02*
X0032594Y0023559D01*
X0032015Y0022161D02*
X0109942Y0022161D01*
X0109624Y0020762D02*
X0031217Y0020762D01*
X0029819Y0019364D02*
X0109703Y0019364D01*
X0110156Y0017965D02*
X0026879Y0017965D01*
X0014634Y0016567D02*
X0111131Y0016567D01*
X0118909Y0016567D02*
X0121131Y0016567D01*
X0120156Y0017965D02*
X0119884Y0017965D01*
X0119337Y0023559D02*
X0120703Y0023559D01*
X0122239Y0024958D02*
X0117801Y0024958D01*
X0100002Y0027755D02*
X0085480Y0027755D01*
X0085244Y0033349D02*
X0100239Y0033349D01*
X0080919Y0041740D02*
X0080154Y0041740D01*
X0080154Y0043138D02*
X0080919Y0043138D01*
X0080919Y0044537D02*
X0080154Y0044537D01*
X0080154Y0045935D02*
X0080919Y0045935D01*
X0080919Y0047334D02*
X0080154Y0047334D01*
X0080154Y0048732D02*
X0080919Y0048732D01*
X0076518Y0048732D02*
X0068154Y0048732D01*
X0069142Y0047334D02*
X0075296Y0047334D01*
X0075293Y0045935D02*
X0070129Y0045935D01*
X0071117Y0044537D02*
X0075293Y0044537D01*
X0075293Y0043138D02*
X0072105Y0043138D01*
X0073092Y0041740D02*
X0075624Y0041740D01*
X0032090Y0047334D02*
X0028509Y0047334D01*
X0028224Y0048732D02*
X0030471Y0048732D01*
X0030112Y0050131D02*
X0029196Y0050131D01*
X0029384Y0051529D02*
X0030402Y0051529D01*
X0029664Y0052928D02*
X0029326Y0052928D01*
X0025322Y0051700D02*
X0025322Y0051700D01*
X0022056Y0045935D02*
X0017481Y0045935D01*
X0018481Y0044537D02*
X0023172Y0044537D01*
X0012147Y0097680D02*
X0011455Y0097680D01*
X0025322Y0102881D02*
X0025322Y0102881D01*
X0025360Y0113079D02*
X0025322Y0113117D01*
X0025360Y0113079D02*
X0028370Y0113079D01*
X0027536Y0120056D02*
X0027303Y0120056D01*
X0011733Y0118658D02*
X0011455Y0118658D01*
X0031939Y0149425D02*
X0032160Y0149425D01*
X0021185Y0184388D02*
X0011455Y0184388D01*
X0011455Y0185786D02*
X0019757Y0185786D01*
X0018766Y0187185D02*
X0011455Y0187185D01*
X0011455Y0188583D02*
X0018187Y0188583D01*
X0017929Y0189982D02*
X0011455Y0189982D01*
X0011501Y0191380D02*
X0017929Y0191380D01*
X0018191Y0192779D02*
X0011652Y0192779D01*
X0012027Y0194178D02*
X0018770Y0194178D01*
X0019767Y0195576D02*
X0012402Y0195576D01*
X0013083Y0196975D02*
X0021209Y0196975D01*
X0018423Y0202569D02*
X0056048Y0202569D01*
X0055801Y0201170D02*
X0016373Y0201170D01*
X0014974Y0199772D02*
X0055801Y0199772D01*
X0055857Y0198373D02*
X0013891Y0198373D01*
X0021804Y0203967D02*
X0057446Y0203967D01*
D26*
X0163739Y0122179D03*
X0181278Y0041197D03*
D27*
X0171293Y0041508D03*
X0167181Y0039165D03*
X0171722Y0035974D03*
X0168574Y0045574D03*
X0146226Y0045007D03*
X0146226Y0052627D03*
X0145972Y0057834D03*
X0135812Y0057834D03*
X0135939Y0044372D03*
X0142774Y0030574D03*
X0112952Y0048436D03*
X0115873Y0068629D03*
X0127174Y0077974D03*
X0132574Y0089974D03*
X0140974Y0080974D03*
X0158974Y0077974D03*
X0160774Y0073174D03*
X0167054Y0075360D03*
X0174293Y0092759D03*
X0194359Y0070280D03*
X0197280Y0037895D03*
X0131748Y0101649D03*
X0115873Y0088314D03*
X0096188Y0100125D03*
X0067994Y0115873D03*
X0060755Y0135558D03*
X0045896Y0149020D03*
X0041070Y0131621D03*
X0041070Y0107999D03*
X0041070Y0086177D03*
X0041070Y0055355D03*
X0033196Y0050214D03*
X0060755Y0045007D03*
X0072566Y0052881D03*
X0096188Y0068629D03*
X0145774Y0140374D03*
D28*
X0145774Y0128974D01*
X0144574Y0127774D01*
X0144574Y0112407D01*
X0146823Y0110158D01*
X0147068Y0114773D02*
X0147208Y0114773D01*
X0151823Y0110158D01*
X0151774Y0110109D01*
X0151774Y0101374D01*
X0133627Y0083227D01*
X0133627Y0070357D01*
X0136774Y0070359D02*
X0136776Y0070357D01*
X0136774Y0070359D02*
X0136774Y0082174D01*
X0156823Y0101623D01*
X0156823Y0110158D01*
X0156881Y0110216D01*
X0156881Y0111432D01*
X0162757Y0117308D01*
X0173623Y0117308D01*
X0177902Y0113994D02*
X0164974Y0113994D01*
X0161834Y0110854D01*
X0161834Y0110169D01*
X0161823Y0110158D01*
X0161823Y0101823D01*
X0140974Y0080974D01*
X0139926Y0074526D02*
X0166774Y0101374D01*
X0166774Y0110109D01*
X0166823Y0110158D01*
X0171823Y0110158D02*
X0171867Y0110114D01*
X0171867Y0101294D01*
X0143076Y0072503D01*
X0143076Y0070357D01*
X0146225Y0070357D02*
X0146225Y0073025D01*
X0171574Y0098374D01*
X0187774Y0098374D01*
X0195574Y0106174D01*
X0195574Y0130774D01*
X0181174Y0145174D01*
X0155749Y0145174D01*
X0152215Y0141640D01*
X0152215Y0133244D01*
X0153151Y0132308D01*
X0153151Y0127308D02*
X0148791Y0127308D01*
X0147068Y0125585D01*
X0147068Y0114773D01*
X0173623Y0122308D02*
X0178351Y0122308D01*
X0179680Y0120979D01*
X0179680Y0115772D01*
X0177902Y0113994D01*
X0194523Y0090263D02*
X0194482Y0087222D01*
X0179631Y0087123D01*
X0176122Y0087222D01*
X0172261Y0083361D01*
X0172261Y0075191D01*
X0161550Y0064480D01*
X0161550Y0061331D02*
X0161618Y0061263D01*
X0167054Y0061263D01*
X0172325Y0066534D01*
X0179875Y0066633D01*
X0194453Y0048610D01*
X0194523Y0051680D01*
X0171722Y0035974D02*
X0156257Y0035974D01*
X0155674Y0036557D01*
X0152524Y0036557D02*
X0152449Y0036481D01*
X0152449Y0029513D01*
X0155020Y0026942D01*
X0155020Y0020314D01*
X0145020Y0020314D02*
X0145020Y0026656D01*
X0149274Y0030910D01*
X0149274Y0036456D01*
X0149375Y0036557D01*
X0146226Y0036556D02*
X0146226Y0033958D01*
X0142842Y0030574D01*
X0142774Y0030574D01*
X0141168Y0032180D01*
X0130224Y0032180D01*
X0124509Y0037895D01*
X0112444Y0037895D01*
X0104946Y0030397D01*
X0104946Y0030367D01*
X0080536Y0030367D01*
X0074232Y0037006D02*
X0057370Y0060882D01*
X0057370Y0069010D01*
X0057370Y0084504D01*
X0029592Y0056818D02*
X0033196Y0050214D01*
X0029592Y0056818D02*
X0025322Y0056818D01*
X0074232Y0037006D02*
X0107999Y0037133D01*
X0116440Y0045583D01*
X0127750Y0045583D01*
X0135939Y0044372D02*
X0136776Y0043535D01*
X0136776Y0036557D01*
X0146225Y0036557D02*
X0146226Y0036557D01*
X0146226Y0045007D01*
X0146225Y0036557D02*
X0146226Y0036556D01*
X0146226Y0052627D02*
X0133399Y0065454D01*
X0132891Y0065454D01*
X0130859Y0067486D01*
X0130859Y0083361D01*
X0118705Y0095515D01*
X0118705Y0152141D01*
X0091688Y0118579D02*
X0091688Y0111047D01*
X0091944Y0110791D01*
X0106094Y0096641D01*
X0106094Y0052627D01*
X0110285Y0048436D01*
X0112952Y0048436D01*
X0118330Y0055040D02*
X0127742Y0055040D01*
X0127750Y0055031D01*
X0127750Y0064480D02*
X0127174Y0065057D01*
X0127174Y0077974D01*
X0139926Y0074526D02*
X0139926Y0070357D01*
X0152524Y0070357D02*
X0152524Y0072724D01*
X0155374Y0075574D01*
X0156574Y0075574D01*
X0158974Y0077974D01*
X0158491Y0073174D02*
X0155674Y0070357D01*
X0158491Y0073174D02*
X0160774Y0073174D01*
X0161550Y0045583D02*
X0161559Y0045574D01*
X0168574Y0045574D01*
X0165784Y0042467D02*
X0161584Y0042467D01*
X0161550Y0042433D01*
X0165784Y0042467D02*
X0167181Y0041070D01*
X0167181Y0039165D01*
X0194513Y0087273D02*
X0194523Y0090263D01*
M02*
