G75*
%MOIN*%
%OFA0B0*%
%FSLAX25Y25*%
%IPPOS*%
%LPD*%
%AMOC8*
5,1,8,0,0,1.08239X$1,22.5*
%
%ADD10R,0.03937X0.04331*%
%ADD11R,0.05906X0.06299*%
%ADD12R,0.04724X0.04724*%
%ADD13R,0.05000X0.10000*%
D10*
X0037220Y0045291D03*
X0043913Y0045291D03*
X0062811Y0076000D03*
X0069504Y0076000D03*
X0044307Y0143717D03*
X0037614Y0143717D03*
X0063205Y0174425D03*
X0069898Y0174425D03*
X0136039Y0143717D03*
X0142732Y0143717D03*
X0161630Y0174425D03*
X0168323Y0174425D03*
X0167929Y0076000D03*
X0161236Y0076000D03*
X0142339Y0045291D03*
X0135646Y0045291D03*
D11*
X0161630Y0043520D03*
X0063205Y0043520D03*
X0063598Y0141945D03*
X0162024Y0141945D03*
D12*
X0165961Y0155035D03*
X0158087Y0155035D03*
X0067535Y0155035D03*
X0059661Y0155035D03*
X0059268Y0056610D03*
X0067142Y0056610D03*
X0157693Y0056610D03*
X0165567Y0056610D03*
D13*
X0037614Y0028362D03*
X0050409Y0028362D03*
X0063205Y0028362D03*
X0136039Y0028362D03*
X0148835Y0028362D03*
X0161630Y0028362D03*
X0162024Y0126787D03*
X0149228Y0126787D03*
X0136433Y0126787D03*
X0063598Y0126787D03*
X0050803Y0126787D03*
X0038008Y0126787D03*
M02*
