G75*
%MOIN*%
%OFA0B0*%
%FSLAX25Y25*%
%IPPOS*%
%LPD*%
%AMOC8*
5,1,8,0,0,1.08239X$1,22.5*
%
%ADD10R,0.03937X0.05512*%
%ADD11R,0.03937X0.04331*%
%ADD12C,0.06600*%
%ADD13OC8,0.06600*%
%ADD14C,0.01600*%
%ADD15C,0.01400*%
%ADD16C,0.03962*%
%ADD17C,0.00800*%
D10*
X0047971Y0019707D03*
X0055451Y0019707D03*
X0051711Y0011046D03*
D11*
X0048416Y0027213D03*
X0055108Y0027213D03*
X0032959Y0026324D03*
X0026267Y0026324D03*
D12*
X0037233Y0045501D03*
X0052981Y0045501D03*
D13*
X0050107Y0073060D03*
X0040107Y0073060D03*
D14*
X0014034Y0022925D02*
X0018564Y0017739D01*
X0023948Y0013446D01*
X0030012Y0010183D01*
X0036560Y0008055D01*
X0043384Y0007131D01*
X0048413Y0007357D01*
X0048143Y0007627D01*
X0048143Y0008420D01*
X0047771Y0008048D01*
X0046454Y0007503D01*
X0045030Y0007503D01*
X0043713Y0008048D01*
X0042706Y0009055D01*
X0042161Y0010371D01*
X0042161Y0011796D01*
X0042706Y0013112D01*
X0043713Y0014120D01*
X0045030Y0014665D01*
X0046454Y0014665D01*
X0047771Y0014120D01*
X0048143Y0013747D01*
X0048143Y0014464D01*
X0049030Y0015351D01*
X0045340Y0015351D01*
X0044403Y0016288D01*
X0044403Y0023126D01*
X0045254Y0023977D01*
X0044847Y0024385D01*
X0044847Y0029855D01*
X0044522Y0029855D01*
X0043205Y0030400D01*
X0042198Y0031407D01*
X0041653Y0032723D01*
X0041653Y0034148D01*
X0042198Y0035464D01*
X0043205Y0036472D01*
X0044522Y0037017D01*
X0045946Y0037017D01*
X0047263Y0036472D01*
X0048270Y0035464D01*
X0048815Y0034148D01*
X0048815Y0033107D01*
X0050715Y0031207D01*
X0050715Y0030978D01*
X0051047Y0030978D01*
X0051762Y0030263D01*
X0052477Y0030978D01*
X0057740Y0030978D01*
X0058677Y0030041D01*
X0058677Y0025830D01*
X0060758Y0025830D01*
X0061493Y0026566D01*
X0062810Y0027111D01*
X0064234Y0027111D01*
X0065551Y0026566D01*
X0066558Y0025558D01*
X0067103Y0024242D01*
X0067103Y0022817D01*
X0066558Y0021501D01*
X0065551Y0020494D01*
X0064234Y0019949D01*
X0062810Y0019949D01*
X0061493Y0020494D01*
X0060758Y0021230D01*
X0060227Y0021230D01*
X0059020Y0020023D01*
X0059020Y0016288D01*
X0058083Y0015351D01*
X0054393Y0015351D01*
X0055280Y0014464D01*
X0055280Y0008585D01*
X0056976Y0008972D01*
X0063308Y0011678D01*
X0069055Y0015472D01*
X0074032Y0020230D01*
X0074032Y0020230D01*
X0078079Y0025801D01*
X0081067Y0032005D01*
X0081560Y0033792D01*
X0080162Y0033417D01*
X0076981Y0033417D01*
X0073908Y0034241D01*
X0071152Y0035832D01*
X0068902Y0038081D01*
X0067312Y0040837D01*
X0066488Y0043910D01*
X0066488Y0047092D01*
X0067312Y0050165D01*
X0068902Y0052920D01*
X0071152Y0055170D01*
X0073908Y0056761D01*
X0076981Y0057584D01*
X0080162Y0057584D01*
X0081560Y0057210D01*
X0081067Y0058997D01*
X0078079Y0065201D01*
X0074032Y0070771D01*
X0069054Y0075530D01*
X0063308Y0079323D01*
X0056976Y0082030D01*
X0050263Y0083562D01*
X0043384Y0083871D01*
X0036560Y0082946D01*
X0030012Y0080819D01*
X0023948Y0077556D01*
X0018564Y0073262D01*
X0014034Y0068077D01*
X0010502Y0062166D01*
X0008641Y0057206D01*
X0010052Y0057584D01*
X0013233Y0057584D01*
X0016307Y0056761D01*
X0019062Y0055170D01*
X0021312Y0052920D01*
X0022903Y0050165D01*
X0023726Y0047092D01*
X0023726Y0043910D01*
X0022903Y0040837D01*
X0021312Y0038081D01*
X0019062Y0035832D01*
X0016307Y0034241D01*
X0013233Y0033417D01*
X0010052Y0033417D01*
X0008641Y0033795D01*
X0010502Y0028836D01*
X0014034Y0022925D01*
X0014004Y0022974D02*
X0022937Y0022974D01*
X0022858Y0023053D02*
X0023193Y0022718D01*
X0023603Y0022481D01*
X0024061Y0022359D01*
X0026082Y0022359D01*
X0026082Y0026140D01*
X0022498Y0026140D01*
X0022498Y0023922D01*
X0022621Y0023464D01*
X0022858Y0023053D01*
X0022498Y0024573D02*
X0013049Y0024573D01*
X0012094Y0026171D02*
X0026082Y0026171D01*
X0026082Y0026140D02*
X0026082Y0026508D01*
X0022498Y0026508D01*
X0022498Y0028726D01*
X0022621Y0029184D01*
X0022858Y0029594D01*
X0023193Y0029930D01*
X0023603Y0030167D01*
X0024061Y0030289D01*
X0026082Y0030289D01*
X0026082Y0026508D01*
X0026451Y0026508D01*
X0026451Y0030289D01*
X0028472Y0030289D01*
X0028930Y0030167D01*
X0029340Y0029930D01*
X0029675Y0029594D01*
X0029733Y0029494D01*
X0030328Y0030089D01*
X0033472Y0030089D01*
X0034002Y0030620D01*
X0028660Y0035962D01*
X0027313Y0037309D01*
X0027313Y0057756D01*
X0037807Y0068250D01*
X0037807Y0068430D01*
X0035207Y0071030D01*
X0035207Y0075089D01*
X0038077Y0077960D01*
X0042137Y0077960D01*
X0045007Y0075089D01*
X0045007Y0071030D01*
X0042407Y0068430D01*
X0042407Y0066345D01*
X0041060Y0064998D01*
X0031913Y0055851D01*
X0031913Y0039214D01*
X0039064Y0032064D01*
X0040104Y0032064D01*
X0041421Y0031519D01*
X0042428Y0030511D01*
X0042973Y0029195D01*
X0042973Y0027770D01*
X0044847Y0027770D01*
X0044847Y0029368D02*
X0042901Y0029368D01*
X0042973Y0027770D02*
X0042428Y0026454D01*
X0041421Y0025447D01*
X0040104Y0024902D01*
X0038680Y0024902D01*
X0037363Y0025447D01*
X0036628Y0026183D01*
X0036528Y0026183D01*
X0036528Y0023496D01*
X0035591Y0022559D01*
X0030328Y0022559D01*
X0029733Y0023153D01*
X0029675Y0023053D01*
X0029340Y0022718D01*
X0028930Y0022481D01*
X0028472Y0022359D01*
X0026451Y0022359D01*
X0026451Y0026140D01*
X0026082Y0026140D01*
X0026082Y0024573D02*
X0026451Y0024573D01*
X0026451Y0022974D02*
X0026082Y0022974D01*
X0029596Y0022974D02*
X0029912Y0022974D01*
X0026451Y0027770D02*
X0026082Y0027770D01*
X0026082Y0029368D02*
X0026451Y0029368D01*
X0022727Y0029368D02*
X0010302Y0029368D01*
X0009702Y0030967D02*
X0033655Y0030967D01*
X0032057Y0032565D02*
X0009102Y0032565D01*
X0011139Y0027770D02*
X0022498Y0027770D01*
X0016020Y0034164D02*
X0030458Y0034164D01*
X0028860Y0035762D02*
X0018942Y0035762D01*
X0020591Y0037361D02*
X0027313Y0037361D01*
X0027313Y0038959D02*
X0021819Y0038959D01*
X0022742Y0040558D02*
X0027313Y0040558D01*
X0027313Y0042156D02*
X0023256Y0042156D01*
X0023684Y0043755D02*
X0027313Y0043755D01*
X0027313Y0045354D02*
X0023726Y0045354D01*
X0023726Y0046952D02*
X0027313Y0046952D01*
X0027313Y0048551D02*
X0023335Y0048551D01*
X0022907Y0050149D02*
X0027313Y0050149D01*
X0027313Y0051748D02*
X0021989Y0051748D01*
X0020886Y0053346D02*
X0027313Y0053346D01*
X0027313Y0054945D02*
X0019287Y0054945D01*
X0016684Y0056543D02*
X0027313Y0056543D01*
X0027698Y0058142D02*
X0008992Y0058142D01*
X0009592Y0059740D02*
X0029297Y0059740D01*
X0030895Y0061339D02*
X0010192Y0061339D01*
X0010963Y0062937D02*
X0032494Y0062937D01*
X0034092Y0064536D02*
X0011918Y0064536D01*
X0012873Y0066134D02*
X0035691Y0066134D01*
X0037289Y0067733D02*
X0013828Y0067733D01*
X0015130Y0069331D02*
X0036906Y0069331D01*
X0035308Y0070930D02*
X0016526Y0070930D01*
X0017923Y0072528D02*
X0035207Y0072528D01*
X0035207Y0074127D02*
X0019648Y0074127D01*
X0021653Y0075725D02*
X0035843Y0075725D01*
X0037441Y0077324D02*
X0023657Y0077324D01*
X0026487Y0078922D02*
X0063915Y0078922D01*
X0066337Y0077324D02*
X0052773Y0077324D01*
X0052137Y0077960D02*
X0048077Y0077960D01*
X0045207Y0075089D01*
X0045207Y0071030D01*
X0048077Y0068160D01*
X0052137Y0068160D01*
X0055007Y0071030D01*
X0055007Y0075089D01*
X0052137Y0077960D01*
X0054371Y0075725D02*
X0068759Y0075725D01*
X0070522Y0074127D02*
X0055007Y0074127D01*
X0055007Y0072528D02*
X0072194Y0072528D01*
X0073866Y0070930D02*
X0054907Y0070930D01*
X0053308Y0069331D02*
X0075078Y0069331D01*
X0076239Y0067733D02*
X0042407Y0067733D01*
X0042196Y0066134D02*
X0077401Y0066134D01*
X0078399Y0064536D02*
X0040598Y0064536D01*
X0038999Y0062937D02*
X0079169Y0062937D01*
X0079939Y0061339D02*
X0037401Y0061339D01*
X0035802Y0059740D02*
X0080709Y0059740D01*
X0081303Y0058142D02*
X0034204Y0058142D01*
X0032605Y0056543D02*
X0073531Y0056543D01*
X0070927Y0054945D02*
X0031913Y0054945D01*
X0031913Y0053346D02*
X0069328Y0053346D01*
X0068225Y0051748D02*
X0031913Y0051748D01*
X0031913Y0050149D02*
X0035651Y0050149D01*
X0036258Y0050401D02*
X0034457Y0049655D01*
X0033079Y0048276D01*
X0032333Y0046475D01*
X0032333Y0044526D01*
X0033079Y0042725D01*
X0034457Y0041347D01*
X0036258Y0040601D01*
X0038208Y0040601D01*
X0040009Y0041347D01*
X0041387Y0042725D01*
X0042133Y0044526D01*
X0042133Y0046475D01*
X0041387Y0048276D01*
X0040009Y0049655D01*
X0038208Y0050401D01*
X0036258Y0050401D01*
X0038815Y0050149D02*
X0050870Y0050149D01*
X0051023Y0050227D02*
X0050308Y0049863D01*
X0049659Y0049391D01*
X0049091Y0048823D01*
X0048619Y0048174D01*
X0048255Y0047459D01*
X0048007Y0046695D01*
X0047881Y0045902D01*
X0047881Y0045501D01*
X0052981Y0045501D01*
X0052981Y0050601D01*
X0052580Y0050601D01*
X0051787Y0050475D01*
X0051023Y0050227D01*
X0052981Y0050149D02*
X0052981Y0050149D01*
X0052981Y0050601D02*
X0053382Y0050601D01*
X0054175Y0050475D01*
X0054939Y0050227D01*
X0055654Y0049863D01*
X0056304Y0049391D01*
X0056871Y0048823D01*
X0057343Y0048174D01*
X0057707Y0047459D01*
X0057956Y0046695D01*
X0058081Y0045902D01*
X0058081Y0045501D01*
X0052981Y0045501D01*
X0052981Y0045501D01*
X0052981Y0045501D01*
X0052981Y0050601D01*
X0052981Y0048551D02*
X0052981Y0048551D01*
X0052981Y0046952D02*
X0052981Y0046952D01*
X0052981Y0045501D02*
X0052981Y0045501D01*
X0047881Y0045501D01*
X0047881Y0045099D01*
X0048007Y0044307D01*
X0048255Y0043543D01*
X0048619Y0042828D01*
X0049091Y0042178D01*
X0049659Y0041611D01*
X0050308Y0041139D01*
X0051023Y0040774D01*
X0051787Y0040526D01*
X0052580Y0040401D01*
X0052981Y0040401D01*
X0052981Y0045501D01*
X0052981Y0045501D01*
X0058081Y0045501D01*
X0058081Y0045099D01*
X0057956Y0044307D01*
X0057707Y0043543D01*
X0057343Y0042828D01*
X0056871Y0042178D01*
X0056304Y0041611D01*
X0055654Y0041139D01*
X0054939Y0040774D01*
X0054175Y0040526D01*
X0053382Y0040401D01*
X0052981Y0040401D01*
X0052981Y0045501D01*
X0052981Y0045354D02*
X0052981Y0045354D01*
X0052981Y0043755D02*
X0052981Y0043755D01*
X0052981Y0042156D02*
X0052981Y0042156D01*
X0052981Y0040558D02*
X0052981Y0040558D01*
X0051690Y0040558D02*
X0031913Y0040558D01*
X0031913Y0042156D02*
X0033648Y0042156D01*
X0032652Y0043755D02*
X0031913Y0043755D01*
X0031913Y0045354D02*
X0032333Y0045354D01*
X0032530Y0046952D02*
X0031913Y0046952D01*
X0031913Y0048551D02*
X0033353Y0048551D01*
X0041113Y0048551D02*
X0048893Y0048551D01*
X0048090Y0046952D02*
X0041936Y0046952D01*
X0042133Y0045354D02*
X0047881Y0045354D01*
X0048186Y0043755D02*
X0041814Y0043755D01*
X0040818Y0042156D02*
X0049113Y0042156D01*
X0054273Y0040558D02*
X0067473Y0040558D01*
X0066958Y0042156D02*
X0056849Y0042156D01*
X0057776Y0043755D02*
X0066530Y0043755D01*
X0066488Y0045354D02*
X0058081Y0045354D01*
X0057872Y0046952D02*
X0066488Y0046952D01*
X0066879Y0048551D02*
X0057069Y0048551D01*
X0055092Y0050149D02*
X0067307Y0050149D01*
X0068395Y0038959D02*
X0032168Y0038959D01*
X0033766Y0037361D02*
X0069623Y0037361D01*
X0071272Y0035762D02*
X0047972Y0035762D01*
X0048809Y0034164D02*
X0074194Y0034164D01*
X0079797Y0029368D02*
X0058677Y0029368D01*
X0058677Y0027770D02*
X0079027Y0027770D01*
X0078257Y0026171D02*
X0065945Y0026171D01*
X0066966Y0024573D02*
X0077187Y0024573D01*
X0076025Y0022974D02*
X0067103Y0022974D01*
X0066433Y0021376D02*
X0074864Y0021376D01*
X0073558Y0019777D02*
X0059020Y0019777D01*
X0059020Y0018179D02*
X0071886Y0018179D01*
X0070214Y0016580D02*
X0059020Y0016580D01*
X0055280Y0013383D02*
X0065891Y0013383D01*
X0068312Y0014982D02*
X0054762Y0014982D01*
X0055280Y0011785D02*
X0063469Y0011785D01*
X0059817Y0010186D02*
X0055280Y0010186D01*
X0055280Y0008588D02*
X0055293Y0008588D01*
X0048660Y0014982D02*
X0022022Y0014982D01*
X0020017Y0016580D02*
X0044403Y0016580D01*
X0044403Y0018179D02*
X0018180Y0018179D01*
X0016784Y0019777D02*
X0044403Y0019777D01*
X0044403Y0021376D02*
X0015387Y0021376D01*
X0024064Y0013383D02*
X0042977Y0013383D01*
X0042161Y0011785D02*
X0027035Y0011785D01*
X0030005Y0010186D02*
X0042238Y0010186D01*
X0043174Y0008588D02*
X0034921Y0008588D01*
X0036007Y0022974D02*
X0044403Y0022974D01*
X0044847Y0024573D02*
X0036528Y0024573D01*
X0036528Y0026171D02*
X0036639Y0026171D01*
X0042145Y0026171D02*
X0044847Y0026171D01*
X0042638Y0030967D02*
X0041972Y0030967D01*
X0041718Y0032565D02*
X0038562Y0032565D01*
X0036963Y0034164D02*
X0041659Y0034164D01*
X0042496Y0035762D02*
X0035365Y0035762D01*
X0049357Y0032565D02*
X0081221Y0032565D01*
X0080567Y0030967D02*
X0057751Y0030967D01*
X0058677Y0026171D02*
X0061099Y0026171D01*
X0052466Y0030967D02*
X0051058Y0030967D01*
X0046906Y0069331D02*
X0043308Y0069331D01*
X0044907Y0070930D02*
X0045308Y0070930D01*
X0045207Y0072528D02*
X0045007Y0072528D01*
X0045007Y0074127D02*
X0045207Y0074127D01*
X0045843Y0075725D02*
X0044371Y0075725D01*
X0042773Y0077324D02*
X0047441Y0077324D01*
X0046790Y0083718D02*
X0042254Y0083718D01*
X0034014Y0082119D02*
X0056583Y0082119D01*
X0060506Y0080521D02*
X0029458Y0080521D01*
D15*
X0040107Y0073060D02*
X0040107Y0067298D01*
X0029613Y0056804D01*
X0029613Y0038262D01*
X0039392Y0028483D01*
X0035118Y0028483D01*
X0032959Y0026324D01*
X0045234Y0033436D02*
X0048416Y0030254D01*
X0048416Y0027213D01*
X0047971Y0026768D01*
X0047971Y0019707D01*
X0055451Y0019707D02*
X0059274Y0023530D01*
X0063522Y0023530D01*
X0055451Y0027213D02*
X0055451Y0019707D01*
X0055451Y0027213D02*
X0055108Y0027213D01*
D16*
X0063522Y0023530D03*
X0045234Y0033436D03*
X0039392Y0028483D03*
X0045742Y0011084D03*
D17*
X0051673Y0011084D01*
X0051711Y0011046D01*
M02*
