G75*
%MOIN*%
%OFA0B0*%
%FSLAX25Y25*%
%IPPOS*%
%LPD*%
%AMOC8*
5,1,8,0,0,1.08239X$1,22.5*
%
%ADD10C,0.00500*%
%ADD11C,0.00591*%
%ADD12C,0.00600*%
%ADD13C,0.00060*%
%ADD14C,0.00100*%
D10*
X0025866Y0019093D02*
X0026374Y0018585D01*
X0028405Y0018585D01*
X0028912Y0019093D01*
X0028912Y0020108D01*
X0028405Y0020616D01*
X0027389Y0020616D01*
X0027389Y0019601D01*
X0026374Y0020616D02*
X0025866Y0020108D01*
X0025866Y0019093D01*
X0025866Y0021848D02*
X0028912Y0023879D01*
X0025866Y0023879D01*
X0025866Y0025111D02*
X0025866Y0026634D01*
X0026374Y0027141D01*
X0028405Y0027141D01*
X0028912Y0026634D01*
X0028912Y0025111D01*
X0025866Y0025111D01*
X0025866Y0021848D02*
X0028912Y0021848D01*
X0038852Y0022320D02*
X0041390Y0022320D01*
X0041898Y0021813D01*
X0041898Y0020797D01*
X0041390Y0020290D01*
X0038852Y0020290D01*
X0039360Y0019058D02*
X0038852Y0018550D01*
X0038852Y0017535D01*
X0039360Y0017027D01*
X0041390Y0017027D01*
X0041898Y0017535D01*
X0041898Y0018550D01*
X0041390Y0019058D01*
X0039360Y0019058D01*
X0039360Y0015795D02*
X0038852Y0015287D01*
X0038852Y0013764D01*
X0041898Y0013764D01*
X0041898Y0015287D01*
X0041390Y0015795D01*
X0039360Y0015795D01*
X0038852Y0023552D02*
X0038852Y0025583D01*
X0038852Y0024568D02*
X0041898Y0024568D01*
X0051457Y0025618D02*
X0051965Y0025111D01*
X0053995Y0025111D01*
X0054503Y0025618D01*
X0054503Y0026634D01*
X0053995Y0027141D01*
X0051965Y0027141D02*
X0051457Y0026634D01*
X0051457Y0025618D01*
X0051965Y0023879D02*
X0051457Y0023371D01*
X0051457Y0022356D01*
X0051965Y0021848D01*
X0053995Y0021848D01*
X0054503Y0022356D01*
X0054503Y0023371D01*
X0053995Y0023879D01*
X0053487Y0020616D02*
X0051457Y0020616D01*
X0053487Y0020616D02*
X0054503Y0019601D01*
X0053487Y0018585D01*
X0051457Y0018585D01*
X0067647Y0033874D02*
X0068155Y0033366D01*
X0069170Y0033366D01*
X0069678Y0033874D01*
X0070910Y0033366D02*
X0072941Y0033366D01*
X0071925Y0033366D02*
X0071925Y0036412D01*
X0070910Y0035397D01*
X0069678Y0035904D02*
X0069170Y0036412D01*
X0068155Y0036412D01*
X0067647Y0035904D01*
X0067647Y0033874D01*
X0059826Y0038298D02*
X0059319Y0037790D01*
X0059826Y0038298D02*
X0059826Y0039313D01*
X0059319Y0039821D01*
X0058811Y0039821D01*
X0058303Y0039313D01*
X0058303Y0038298D01*
X0057796Y0037790D01*
X0057288Y0037790D01*
X0056780Y0038298D01*
X0056780Y0039313D01*
X0057288Y0039821D01*
X0059319Y0041053D02*
X0059826Y0041560D01*
X0059826Y0042068D01*
X0059319Y0042576D01*
X0056780Y0042576D01*
X0056780Y0043083D02*
X0056780Y0042068D01*
X0057796Y0044315D02*
X0056780Y0045331D01*
X0059826Y0045331D01*
X0059826Y0046346D02*
X0059826Y0044315D01*
X0057304Y0054463D02*
X0056289Y0054463D01*
X0055781Y0054971D01*
X0057811Y0057001D01*
X0057811Y0054971D01*
X0057304Y0054463D01*
X0055781Y0054971D02*
X0055781Y0057001D01*
X0056289Y0057509D01*
X0057304Y0057509D01*
X0057811Y0057001D01*
X0058355Y0058361D02*
X0058355Y0059884D01*
X0057848Y0060391D01*
X0056325Y0060391D01*
X0056325Y0058361D01*
X0055093Y0059376D02*
X0053062Y0059376D01*
X0053062Y0058868D02*
X0053062Y0059884D01*
X0053570Y0060391D01*
X0054585Y0060391D01*
X0055093Y0059884D01*
X0055093Y0059376D01*
X0054585Y0058361D02*
X0053570Y0058361D01*
X0053062Y0058868D01*
X0051830Y0058868D02*
X0051830Y0059376D01*
X0051322Y0059884D01*
X0050307Y0059884D01*
X0049799Y0060391D01*
X0049799Y0060899D01*
X0050307Y0061407D01*
X0051322Y0061407D01*
X0051830Y0060899D01*
X0051830Y0058868D02*
X0051322Y0058361D01*
X0050307Y0058361D01*
X0049799Y0058868D01*
X0051902Y0057509D02*
X0050887Y0056494D01*
X0051902Y0057509D02*
X0051902Y0054463D01*
X0050887Y0054463D02*
X0052918Y0054463D01*
X0054150Y0054463D02*
X0054657Y0054463D01*
X0054657Y0054971D01*
X0054150Y0054971D01*
X0054150Y0054463D01*
X0059587Y0058361D02*
X0061110Y0058361D01*
X0061618Y0058868D01*
X0061110Y0059376D01*
X0060095Y0059376D01*
X0059587Y0059884D01*
X0060095Y0060391D01*
X0061618Y0060391D01*
X0062850Y0059884D02*
X0062850Y0058868D01*
X0063358Y0058361D01*
X0064373Y0058361D01*
X0064881Y0058868D01*
X0064881Y0059884D01*
X0064373Y0060391D01*
X0063358Y0060391D01*
X0062850Y0059884D01*
X0066113Y0060391D02*
X0066113Y0058361D01*
X0066113Y0059376D02*
X0067128Y0060391D01*
X0067635Y0060391D01*
X0063046Y0071363D02*
X0063046Y0074409D01*
X0061523Y0072886D01*
X0063554Y0072886D01*
X0060291Y0072886D02*
X0059784Y0072379D01*
X0058261Y0072379D01*
X0059276Y0072379D02*
X0060291Y0071363D01*
X0060291Y0072886D02*
X0060291Y0073902D01*
X0059784Y0074409D01*
X0058261Y0074409D01*
X0058261Y0071363D01*
X0057893Y0076359D02*
X0055863Y0076359D01*
X0055863Y0079405D01*
X0057893Y0079405D01*
X0059125Y0079405D02*
X0060648Y0079405D01*
X0061156Y0078897D01*
X0061156Y0076866D01*
X0060648Y0076359D01*
X0059125Y0076359D01*
X0059125Y0079405D01*
X0056878Y0077882D02*
X0055863Y0077882D01*
X0054631Y0076359D02*
X0052600Y0076359D01*
X0052600Y0079405D01*
X0062388Y0078389D02*
X0063403Y0079405D01*
X0063403Y0076359D01*
X0062388Y0076359D02*
X0064419Y0076359D01*
X0045305Y0059884D02*
X0045305Y0059376D01*
X0043274Y0059376D01*
X0043274Y0058868D02*
X0043274Y0059884D01*
X0043782Y0060391D01*
X0044797Y0060391D01*
X0045305Y0059884D01*
X0044797Y0058361D02*
X0043782Y0058361D01*
X0043274Y0058868D01*
X0042042Y0058868D02*
X0041535Y0059376D01*
X0040519Y0059376D01*
X0040012Y0059884D01*
X0040519Y0060391D01*
X0042042Y0060391D01*
X0042042Y0058868D02*
X0041535Y0058361D01*
X0040012Y0058361D01*
X0040411Y0057509D02*
X0040411Y0055478D01*
X0039396Y0054463D01*
X0038380Y0055478D01*
X0038380Y0057509D01*
X0038344Y0058361D02*
X0038344Y0061407D01*
X0037836Y0061407D01*
X0037184Y0062258D02*
X0036169Y0062258D01*
X0035661Y0062766D01*
X0035661Y0063781D02*
X0036677Y0064289D01*
X0037184Y0064289D01*
X0037692Y0063781D01*
X0037692Y0062766D01*
X0037184Y0062258D01*
X0036604Y0060391D02*
X0036604Y0058361D01*
X0035081Y0058361D01*
X0034574Y0058868D01*
X0034574Y0060391D01*
X0033342Y0059884D02*
X0032834Y0059376D01*
X0031311Y0059376D01*
X0031311Y0058361D02*
X0031311Y0061407D01*
X0032834Y0061407D01*
X0033342Y0060899D01*
X0033342Y0059884D01*
X0032906Y0062258D02*
X0032399Y0062766D01*
X0032906Y0062258D02*
X0033922Y0062258D01*
X0034429Y0062766D01*
X0034429Y0063274D01*
X0033922Y0063781D01*
X0033414Y0063781D01*
X0033922Y0063781D02*
X0034429Y0064289D01*
X0034429Y0064797D01*
X0033922Y0065304D01*
X0032906Y0065304D01*
X0032399Y0064797D01*
X0031167Y0064797D02*
X0031167Y0064289D01*
X0029136Y0062258D01*
X0031167Y0062258D01*
X0031167Y0064797D02*
X0030659Y0065304D01*
X0029644Y0065304D01*
X0029136Y0064797D01*
X0027469Y0065304D02*
X0027469Y0062258D01*
X0027976Y0062258D02*
X0026961Y0062258D01*
X0026381Y0061914D02*
X0026381Y0061407D01*
X0026381Y0060391D02*
X0025874Y0060391D01*
X0026381Y0060391D02*
X0026381Y0058361D01*
X0025874Y0058361D02*
X0026889Y0058361D01*
X0026309Y0056494D02*
X0025801Y0056494D01*
X0024786Y0055478D01*
X0024786Y0054463D02*
X0024786Y0056494D01*
X0023554Y0055986D02*
X0023554Y0055478D01*
X0021523Y0055478D01*
X0021523Y0054971D02*
X0021523Y0055986D01*
X0022031Y0056494D01*
X0023046Y0056494D01*
X0023554Y0055986D01*
X0023046Y0054463D02*
X0022031Y0054463D01*
X0021523Y0054971D01*
X0020364Y0054463D02*
X0019856Y0054971D01*
X0019856Y0057001D01*
X0019348Y0056494D02*
X0020364Y0056494D01*
X0020436Y0058361D02*
X0021451Y0058361D01*
X0020943Y0058361D02*
X0020943Y0060391D01*
X0020436Y0060391D01*
X0020943Y0061407D02*
X0020943Y0061914D01*
X0020943Y0062258D02*
X0022466Y0062258D01*
X0022466Y0064289D01*
X0023698Y0063781D02*
X0023698Y0062766D01*
X0024206Y0062258D01*
X0025221Y0062258D01*
X0025729Y0063274D02*
X0023698Y0063274D01*
X0023698Y0063781D02*
X0024206Y0064289D01*
X0025221Y0064289D01*
X0025729Y0063781D01*
X0025729Y0063274D01*
X0026961Y0065304D02*
X0027469Y0065304D01*
X0024134Y0060391D02*
X0022611Y0060391D01*
X0022611Y0058361D01*
X0024641Y0058361D02*
X0024641Y0059884D01*
X0024134Y0060391D01*
X0020943Y0062258D02*
X0020436Y0062766D01*
X0020436Y0064289D01*
X0019204Y0063781D02*
X0019204Y0062258D01*
X0018188Y0062258D02*
X0018188Y0063781D01*
X0018696Y0064289D01*
X0019204Y0063781D01*
X0018188Y0063781D02*
X0017681Y0064289D01*
X0017173Y0064289D01*
X0017173Y0062258D01*
X0015941Y0062258D02*
X0015941Y0063781D01*
X0015434Y0064289D01*
X0014418Y0064289D01*
X0014418Y0063274D02*
X0015941Y0063274D01*
X0015941Y0062258D02*
X0014418Y0062258D01*
X0013911Y0062766D01*
X0014418Y0063274D01*
X0012679Y0063274D02*
X0012679Y0062766D01*
X0012171Y0062258D01*
X0011156Y0062258D01*
X0010648Y0062766D01*
X0011156Y0063781D02*
X0010648Y0064289D01*
X0010648Y0064797D01*
X0011156Y0065304D01*
X0012171Y0065304D01*
X0012679Y0064797D01*
X0012171Y0063781D02*
X0012679Y0063274D01*
X0012171Y0063781D02*
X0011156Y0063781D01*
X0010648Y0061407D02*
X0010648Y0058361D01*
X0010648Y0057509D02*
X0012171Y0057509D01*
X0012679Y0057001D01*
X0012679Y0056494D01*
X0012171Y0055986D01*
X0010648Y0055986D01*
X0010648Y0054463D02*
X0010648Y0057509D01*
X0012171Y0055986D02*
X0012679Y0055478D01*
X0012679Y0054971D01*
X0012171Y0054463D01*
X0010648Y0054463D01*
X0013911Y0054971D02*
X0014418Y0055478D01*
X0015941Y0055478D01*
X0015941Y0055986D02*
X0015941Y0054463D01*
X0014418Y0054463D01*
X0013911Y0054971D01*
X0014418Y0056494D02*
X0015434Y0056494D01*
X0015941Y0055986D01*
X0017173Y0056494D02*
X0018188Y0056494D01*
X0017681Y0057001D02*
X0017681Y0054971D01*
X0018188Y0054463D01*
X0018188Y0058361D02*
X0018188Y0059884D01*
X0018696Y0060391D01*
X0019204Y0059884D01*
X0019204Y0058361D01*
X0018188Y0059884D02*
X0017681Y0060391D01*
X0017173Y0060391D01*
X0017173Y0058361D01*
X0015941Y0058868D02*
X0015941Y0059884D01*
X0015434Y0060391D01*
X0014418Y0060391D01*
X0013911Y0059884D01*
X0013911Y0058868D01*
X0014418Y0058361D01*
X0015434Y0058361D01*
X0015941Y0058868D01*
X0012679Y0058361D02*
X0012679Y0061407D01*
X0012679Y0059884D02*
X0010648Y0059884D01*
X0027505Y0056494D02*
X0027505Y0054971D01*
X0028012Y0054463D01*
X0029535Y0054463D01*
X0029535Y0053955D02*
X0029028Y0053448D01*
X0028520Y0053448D01*
X0029535Y0053955D02*
X0029535Y0056494D01*
X0034030Y0057509D02*
X0034030Y0054463D01*
X0037836Y0058361D02*
X0038852Y0058361D01*
X0041643Y0055986D02*
X0042151Y0056494D01*
X0043166Y0056494D01*
X0043673Y0055986D01*
X0043673Y0055478D01*
X0041643Y0055478D01*
X0041643Y0054971D02*
X0041643Y0055986D01*
X0041643Y0054971D02*
X0042151Y0054463D01*
X0043166Y0054463D01*
X0044905Y0054463D02*
X0044905Y0056494D01*
X0044905Y0055478D02*
X0045921Y0056494D01*
X0046428Y0056494D01*
X0037692Y0065304D02*
X0035661Y0065304D01*
X0035661Y0063781D01*
X0036307Y0078260D02*
X0036307Y0081360D01*
X0034907Y0079860D02*
X0037807Y0079860D01*
X0026355Y0037978D02*
X0026355Y0035947D01*
X0024325Y0037978D01*
X0023817Y0037978D01*
X0023309Y0037470D01*
X0023309Y0036455D01*
X0023817Y0035947D01*
X0023817Y0034715D02*
X0024832Y0034715D01*
X0025340Y0034207D01*
X0025340Y0032684D01*
X0026355Y0032684D02*
X0023309Y0032684D01*
X0023309Y0034207D01*
X0023817Y0034715D01*
X0025340Y0033700D02*
X0026355Y0034715D01*
D11*
X0023361Y0066438D02*
X0024845Y0067648D01*
X0025443Y0067340D01*
X0026291Y0069386D01*
X0025912Y0069598D01*
X0025593Y0069893D01*
X0025352Y0070253D01*
X0025202Y0070660D01*
X0025151Y0071091D01*
X0025204Y0071530D01*
X0025360Y0071943D01*
X0025609Y0072308D01*
X0025938Y0072603D01*
X0026328Y0072811D01*
X0026756Y0072921D01*
X0027198Y0072925D01*
X0027628Y0072825D01*
X0028022Y0072625D01*
X0028357Y0072338D01*
X0028614Y0071979D01*
X0028779Y0071569D01*
X0028841Y0071131D01*
X0028798Y0070692D01*
X0028652Y0070275D01*
X0028410Y0069905D01*
X0028088Y0069603D01*
X0027703Y0069386D01*
X0028551Y0067340D01*
X0029148Y0067648D01*
X0030633Y0066438D01*
X0031650Y0067456D01*
X0030440Y0068940D01*
X0030748Y0069538D01*
X0030953Y0070178D01*
X0032858Y0070372D01*
X0032858Y0071811D01*
X0030953Y0072005D01*
X0030748Y0072645D01*
X0030440Y0073243D01*
X0031650Y0074727D01*
X0030633Y0075745D01*
X0029148Y0074535D01*
X0028551Y0074843D01*
X0027910Y0075048D01*
X0027717Y0076953D01*
X0026277Y0076953D01*
X0026083Y0075048D01*
X0025443Y0074843D01*
X0024845Y0074535D01*
X0023361Y0075745D01*
X0022343Y0074727D01*
X0023554Y0073243D01*
X0023246Y0072645D01*
X0023041Y0072005D01*
X0021135Y0071811D01*
X0021135Y0070372D01*
X0023041Y0070178D01*
X0023246Y0069538D01*
X0023554Y0068940D01*
X0022343Y0067456D01*
X0023361Y0066438D01*
X0022808Y0066991D02*
X0024039Y0066991D01*
X0024761Y0067580D02*
X0022445Y0067580D01*
X0022925Y0068169D02*
X0025786Y0068169D01*
X0026030Y0068758D02*
X0023405Y0068758D01*
X0023344Y0069347D02*
X0026274Y0069347D01*
X0025564Y0069936D02*
X0023118Y0069936D01*
X0021135Y0070525D02*
X0025252Y0070525D01*
X0025154Y0071114D02*
X0021135Y0071114D01*
X0021135Y0071703D02*
X0025269Y0071703D01*
X0025599Y0072292D02*
X0023133Y0072292D01*
X0023367Y0072881D02*
X0026602Y0072881D01*
X0027387Y0072881D02*
X0030626Y0072881D01*
X0030626Y0073470D02*
X0023368Y0073470D01*
X0022888Y0074059D02*
X0031106Y0074059D01*
X0031586Y0074648D02*
X0029288Y0074648D01*
X0028928Y0074648D02*
X0025066Y0074648D01*
X0024706Y0074648D02*
X0022408Y0074648D01*
X0022854Y0075237D02*
X0023983Y0075237D01*
X0026103Y0075237D02*
X0027891Y0075237D01*
X0027831Y0075827D02*
X0026163Y0075827D01*
X0026223Y0076416D02*
X0027771Y0076416D01*
X0030010Y0075237D02*
X0031140Y0075237D01*
X0030861Y0072292D02*
X0028390Y0072292D01*
X0028725Y0071703D02*
X0032858Y0071703D01*
X0032858Y0071114D02*
X0028840Y0071114D01*
X0028740Y0070525D02*
X0032858Y0070525D01*
X0030876Y0069936D02*
X0028431Y0069936D01*
X0027719Y0069347D02*
X0030650Y0069347D01*
X0030589Y0068758D02*
X0027963Y0068758D01*
X0028208Y0068169D02*
X0031069Y0068169D01*
X0031549Y0067580D02*
X0029232Y0067580D01*
X0029016Y0067580D02*
X0028452Y0067580D01*
X0029955Y0066991D02*
X0031185Y0066991D01*
X0025542Y0067580D02*
X0024978Y0067580D01*
D12*
X0060995Y0049705D02*
X0060995Y0038705D01*
X0060997Y0038645D01*
X0061002Y0038584D01*
X0061011Y0038525D01*
X0061024Y0038466D01*
X0061040Y0038407D01*
X0061060Y0038350D01*
X0061083Y0038295D01*
X0061110Y0038240D01*
X0061139Y0038188D01*
X0061172Y0038137D01*
X0061208Y0038088D01*
X0061246Y0038042D01*
X0061288Y0037998D01*
X0061332Y0037956D01*
X0061378Y0037918D01*
X0061427Y0037882D01*
X0061478Y0037849D01*
X0061530Y0037820D01*
X0061585Y0037793D01*
X0061640Y0037770D01*
X0061697Y0037750D01*
X0061756Y0037734D01*
X0061815Y0037721D01*
X0061874Y0037712D01*
X0061935Y0037707D01*
X0061995Y0037705D01*
X0067995Y0037705D01*
X0068055Y0037707D01*
X0068116Y0037712D01*
X0068175Y0037721D01*
X0068234Y0037734D01*
X0068293Y0037750D01*
X0068350Y0037770D01*
X0068405Y0037793D01*
X0068460Y0037820D01*
X0068512Y0037849D01*
X0068563Y0037882D01*
X0068612Y0037918D01*
X0068658Y0037956D01*
X0068702Y0037998D01*
X0068744Y0038042D01*
X0068782Y0038088D01*
X0068818Y0038137D01*
X0068851Y0038188D01*
X0068880Y0038240D01*
X0068907Y0038295D01*
X0068930Y0038350D01*
X0068950Y0038407D01*
X0068966Y0038466D01*
X0068979Y0038525D01*
X0068988Y0038584D01*
X0068993Y0038645D01*
X0068995Y0038705D01*
X0068995Y0049705D01*
X0068993Y0049765D01*
X0068988Y0049826D01*
X0068979Y0049885D01*
X0068966Y0049944D01*
X0068950Y0050003D01*
X0068930Y0050060D01*
X0068907Y0050115D01*
X0068880Y0050170D01*
X0068851Y0050222D01*
X0068818Y0050273D01*
X0068782Y0050322D01*
X0068744Y0050368D01*
X0068702Y0050412D01*
X0068658Y0050454D01*
X0068612Y0050492D01*
X0068563Y0050528D01*
X0068512Y0050561D01*
X0068460Y0050590D01*
X0068405Y0050617D01*
X0068350Y0050640D01*
X0068293Y0050660D01*
X0068234Y0050676D01*
X0068175Y0050689D01*
X0068116Y0050698D01*
X0068055Y0050703D01*
X0067995Y0050705D01*
X0061995Y0050705D01*
X0061935Y0050703D01*
X0061874Y0050698D01*
X0061815Y0050689D01*
X0061756Y0050676D01*
X0061697Y0050660D01*
X0061640Y0050640D01*
X0061585Y0050617D01*
X0061530Y0050590D01*
X0061478Y0050561D01*
X0061427Y0050528D01*
X0061378Y0050492D01*
X0061332Y0050454D01*
X0061288Y0050412D01*
X0061246Y0050368D01*
X0061208Y0050322D01*
X0061172Y0050273D01*
X0061139Y0050222D01*
X0061110Y0050170D01*
X0061083Y0050115D01*
X0061060Y0050060D01*
X0061040Y0050003D01*
X0061024Y0049944D01*
X0061011Y0049885D01*
X0061002Y0049826D01*
X0060997Y0049765D01*
X0060995Y0049705D01*
D13*
X0040177Y0069188D02*
X0040603Y0069519D01*
X0040602Y0069519D02*
X0040695Y0069404D01*
X0040790Y0069292D01*
X0040888Y0069182D01*
X0040989Y0069075D01*
X0041093Y0068971D01*
X0041200Y0068869D01*
X0041309Y0068770D01*
X0041420Y0068674D01*
X0041534Y0068580D01*
X0041650Y0068490D01*
X0041769Y0068403D01*
X0041890Y0068319D01*
X0042012Y0068238D01*
X0042137Y0068160D01*
X0042264Y0068085D01*
X0042393Y0068014D01*
X0042523Y0067945D01*
X0042656Y0067881D01*
X0042790Y0067820D01*
X0042925Y0067762D01*
X0043062Y0067707D01*
X0043200Y0067657D01*
X0043340Y0067609D01*
X0043480Y0067566D01*
X0043622Y0067526D01*
X0043764Y0067489D01*
X0043908Y0067457D01*
X0044052Y0067428D01*
X0044197Y0067403D01*
X0044343Y0067381D01*
X0044489Y0067363D01*
X0044636Y0067349D01*
X0044783Y0067339D01*
X0044930Y0067333D01*
X0045077Y0067330D01*
X0045077Y0066791D01*
X0045077Y0066790D01*
X0044920Y0066793D01*
X0044764Y0066799D01*
X0044607Y0066810D01*
X0044451Y0066824D01*
X0044295Y0066843D01*
X0044140Y0066865D01*
X0043986Y0066891D01*
X0043832Y0066921D01*
X0043679Y0066955D01*
X0043526Y0066993D01*
X0043375Y0067034D01*
X0043225Y0067079D01*
X0043076Y0067128D01*
X0042928Y0067181D01*
X0042782Y0067237D01*
X0042637Y0067297D01*
X0042494Y0067361D01*
X0042352Y0067428D01*
X0042212Y0067498D01*
X0042074Y0067572D01*
X0041938Y0067650D01*
X0041803Y0067731D01*
X0041671Y0067815D01*
X0041541Y0067903D01*
X0041413Y0067993D01*
X0041288Y0068087D01*
X0041165Y0068184D01*
X0041044Y0068285D01*
X0040926Y0068388D01*
X0040810Y0068494D01*
X0040698Y0068602D01*
X0040587Y0068714D01*
X0040480Y0068828D01*
X0040376Y0068945D01*
X0040274Y0069065D01*
X0040176Y0069187D01*
X0040220Y0069222D01*
X0040318Y0069101D01*
X0040418Y0068982D01*
X0040522Y0068866D01*
X0040628Y0068753D01*
X0040737Y0068642D01*
X0040849Y0068534D01*
X0040963Y0068429D01*
X0041080Y0068327D01*
X0041200Y0068228D01*
X0041322Y0068132D01*
X0041446Y0068039D01*
X0041573Y0067949D01*
X0041702Y0067862D01*
X0041833Y0067778D01*
X0041966Y0067698D01*
X0042101Y0067621D01*
X0042238Y0067548D01*
X0042377Y0067478D01*
X0042517Y0067411D01*
X0042659Y0067348D01*
X0042803Y0067289D01*
X0042948Y0067233D01*
X0043094Y0067181D01*
X0043242Y0067133D01*
X0043390Y0067088D01*
X0043540Y0067047D01*
X0043691Y0067009D01*
X0043843Y0066976D01*
X0043995Y0066946D01*
X0044149Y0066920D01*
X0044302Y0066898D01*
X0044457Y0066880D01*
X0044611Y0066866D01*
X0044766Y0066855D01*
X0044922Y0066849D01*
X0045077Y0066846D01*
X0045077Y0066902D01*
X0044923Y0066905D01*
X0044769Y0066911D01*
X0044616Y0066922D01*
X0044462Y0066936D01*
X0044309Y0066954D01*
X0044157Y0066976D01*
X0044005Y0067001D01*
X0043854Y0067031D01*
X0043704Y0067064D01*
X0043554Y0067101D01*
X0043406Y0067142D01*
X0043258Y0067186D01*
X0043112Y0067234D01*
X0042967Y0067286D01*
X0042823Y0067341D01*
X0042681Y0067400D01*
X0042540Y0067462D01*
X0042401Y0067528D01*
X0042264Y0067598D01*
X0042128Y0067670D01*
X0041994Y0067747D01*
X0041863Y0067826D01*
X0041733Y0067909D01*
X0041605Y0067995D01*
X0041480Y0068084D01*
X0041356Y0068176D01*
X0041235Y0068271D01*
X0041117Y0068370D01*
X0041001Y0068471D01*
X0040887Y0068575D01*
X0040777Y0068682D01*
X0040668Y0068791D01*
X0040563Y0068904D01*
X0040461Y0069019D01*
X0040361Y0069136D01*
X0040265Y0069256D01*
X0040309Y0069290D01*
X0040404Y0069172D01*
X0040503Y0069055D01*
X0040605Y0068941D01*
X0040709Y0068830D01*
X0040816Y0068721D01*
X0040926Y0068616D01*
X0041038Y0068512D01*
X0041153Y0068412D01*
X0041271Y0068315D01*
X0041390Y0068220D01*
X0041513Y0068129D01*
X0041637Y0068041D01*
X0041764Y0067956D01*
X0041892Y0067874D01*
X0042023Y0067795D01*
X0042155Y0067719D01*
X0042290Y0067647D01*
X0042426Y0067579D01*
X0042564Y0067513D01*
X0042703Y0067451D01*
X0042844Y0067393D01*
X0042987Y0067338D01*
X0043130Y0067287D01*
X0043275Y0067239D01*
X0043421Y0067195D01*
X0043568Y0067155D01*
X0043716Y0067119D01*
X0043865Y0067086D01*
X0044015Y0067056D01*
X0044165Y0067031D01*
X0044316Y0067009D01*
X0044468Y0066992D01*
X0044620Y0066977D01*
X0044772Y0066967D01*
X0044924Y0066961D01*
X0045077Y0066958D01*
X0045077Y0067014D01*
X0044926Y0067017D01*
X0044775Y0067023D01*
X0044624Y0067033D01*
X0044474Y0067047D01*
X0044324Y0067065D01*
X0044174Y0067086D01*
X0044025Y0067112D01*
X0043877Y0067141D01*
X0043729Y0067173D01*
X0043582Y0067209D01*
X0043437Y0067249D01*
X0043292Y0067293D01*
X0043148Y0067340D01*
X0043006Y0067391D01*
X0042865Y0067445D01*
X0042725Y0067503D01*
X0042587Y0067564D01*
X0042451Y0067629D01*
X0042316Y0067697D01*
X0042182Y0067768D01*
X0042051Y0067843D01*
X0041922Y0067921D01*
X0041794Y0068002D01*
X0041669Y0068087D01*
X0041546Y0068174D01*
X0041425Y0068265D01*
X0041306Y0068358D01*
X0041190Y0068455D01*
X0041076Y0068554D01*
X0040964Y0068656D01*
X0040856Y0068761D01*
X0040750Y0068869D01*
X0040646Y0068979D01*
X0040546Y0069092D01*
X0040448Y0069207D01*
X0040353Y0069325D01*
X0040397Y0069359D01*
X0040494Y0069239D01*
X0040594Y0069122D01*
X0040696Y0069007D01*
X0040802Y0068895D01*
X0040910Y0068786D01*
X0041022Y0068679D01*
X0041136Y0068576D01*
X0041252Y0068475D01*
X0041371Y0068378D01*
X0041493Y0068283D01*
X0041617Y0068192D01*
X0041743Y0068104D01*
X0041872Y0068019D01*
X0042002Y0067937D01*
X0042135Y0067859D01*
X0042270Y0067785D01*
X0042406Y0067713D01*
X0042545Y0067646D01*
X0042685Y0067582D01*
X0042826Y0067521D01*
X0042969Y0067464D01*
X0043114Y0067411D01*
X0043260Y0067362D01*
X0043407Y0067316D01*
X0043555Y0067275D01*
X0043704Y0067237D01*
X0043854Y0067202D01*
X0044005Y0067172D01*
X0044157Y0067146D01*
X0044309Y0067123D01*
X0044462Y0067105D01*
X0044616Y0067090D01*
X0044769Y0067080D01*
X0044923Y0067073D01*
X0045077Y0067070D01*
X0045077Y0067126D01*
X0044924Y0067129D01*
X0044772Y0067135D01*
X0044620Y0067146D01*
X0044468Y0067160D01*
X0044317Y0067179D01*
X0044166Y0067201D01*
X0044015Y0067227D01*
X0043866Y0067257D01*
X0043717Y0067291D01*
X0043569Y0067329D01*
X0043423Y0067370D01*
X0043277Y0067415D01*
X0043132Y0067464D01*
X0042989Y0067517D01*
X0042847Y0067573D01*
X0042707Y0067633D01*
X0042568Y0067696D01*
X0042431Y0067763D01*
X0042296Y0067834D01*
X0042163Y0067908D01*
X0042031Y0067985D01*
X0041902Y0068066D01*
X0041775Y0068150D01*
X0041650Y0068237D01*
X0041527Y0068328D01*
X0041406Y0068421D01*
X0041288Y0068518D01*
X0041173Y0068618D01*
X0041060Y0068720D01*
X0040950Y0068826D01*
X0040842Y0068934D01*
X0040738Y0069045D01*
X0040636Y0069159D01*
X0040537Y0069275D01*
X0040441Y0069393D01*
X0040486Y0069428D01*
X0040580Y0069310D01*
X0040678Y0069195D01*
X0040779Y0069083D01*
X0040883Y0068973D01*
X0040989Y0068865D01*
X0041098Y0068761D01*
X0041210Y0068659D01*
X0041324Y0068561D01*
X0041441Y0068465D01*
X0041561Y0068372D01*
X0041682Y0068283D01*
X0041806Y0068196D01*
X0041932Y0068113D01*
X0042060Y0068033D01*
X0042191Y0067956D01*
X0042323Y0067883D01*
X0042457Y0067813D01*
X0042592Y0067747D01*
X0042730Y0067684D01*
X0042869Y0067625D01*
X0043009Y0067569D01*
X0043151Y0067517D01*
X0043294Y0067469D01*
X0043438Y0067424D01*
X0043584Y0067383D01*
X0043730Y0067346D01*
X0043877Y0067312D01*
X0044026Y0067282D01*
X0044174Y0067256D01*
X0044324Y0067234D01*
X0044474Y0067216D01*
X0044624Y0067202D01*
X0044775Y0067191D01*
X0044926Y0067185D01*
X0045077Y0067182D01*
X0045077Y0067238D01*
X0044927Y0067241D01*
X0044778Y0067247D01*
X0044629Y0067258D01*
X0044480Y0067272D01*
X0044331Y0067290D01*
X0044183Y0067312D01*
X0044036Y0067337D01*
X0043889Y0067367D01*
X0043743Y0067400D01*
X0043598Y0067437D01*
X0043454Y0067478D01*
X0043311Y0067522D01*
X0043170Y0067570D01*
X0043029Y0067621D01*
X0042890Y0067677D01*
X0042752Y0067735D01*
X0042616Y0067798D01*
X0042482Y0067863D01*
X0042349Y0067933D01*
X0042218Y0068005D01*
X0042090Y0068081D01*
X0041963Y0068160D01*
X0041838Y0068243D01*
X0041715Y0068328D01*
X0041595Y0068417D01*
X0041476Y0068509D01*
X0041361Y0068604D01*
X0041247Y0068701D01*
X0041137Y0068802D01*
X0041029Y0068905D01*
X0040923Y0069011D01*
X0040820Y0069120D01*
X0040721Y0069232D01*
X0040624Y0069346D01*
X0040530Y0069462D01*
X0040574Y0069497D01*
X0040667Y0069381D01*
X0040763Y0069268D01*
X0040862Y0069158D01*
X0040963Y0069050D01*
X0041068Y0068945D01*
X0041175Y0068843D01*
X0041285Y0068743D01*
X0041397Y0068646D01*
X0041511Y0068552D01*
X0041628Y0068461D01*
X0041748Y0068374D01*
X0041869Y0068289D01*
X0041993Y0068207D01*
X0042119Y0068129D01*
X0042246Y0068054D01*
X0042376Y0067982D01*
X0042507Y0067913D01*
X0042640Y0067848D01*
X0042775Y0067787D01*
X0042911Y0067728D01*
X0043049Y0067674D01*
X0043188Y0067623D01*
X0043328Y0067575D01*
X0043470Y0067531D01*
X0043613Y0067491D01*
X0043756Y0067454D01*
X0043901Y0067422D01*
X0044046Y0067392D01*
X0044192Y0067367D01*
X0044338Y0067345D01*
X0044486Y0067328D01*
X0044633Y0067314D01*
X0044781Y0067303D01*
X0044929Y0067297D01*
X0045077Y0067294D01*
X0050191Y0076728D02*
X0049752Y0076414D01*
X0049752Y0076415D02*
X0049663Y0076535D01*
X0049571Y0076653D01*
X0049475Y0076768D01*
X0049377Y0076881D01*
X0049276Y0076991D01*
X0049172Y0077099D01*
X0049065Y0077203D01*
X0048955Y0077305D01*
X0048843Y0077404D01*
X0048729Y0077500D01*
X0048611Y0077593D01*
X0048492Y0077683D01*
X0048370Y0077770D01*
X0048246Y0077854D01*
X0048120Y0077934D01*
X0047991Y0078011D01*
X0047861Y0078085D01*
X0047729Y0078155D01*
X0047595Y0078222D01*
X0047459Y0078285D01*
X0047322Y0078344D01*
X0047184Y0078401D01*
X0047043Y0078453D01*
X0046902Y0078502D01*
X0046759Y0078547D01*
X0046615Y0078588D01*
X0046471Y0078625D01*
X0046325Y0078659D01*
X0046178Y0078689D01*
X0046031Y0078715D01*
X0045883Y0078737D01*
X0045734Y0078756D01*
X0045585Y0078770D01*
X0045436Y0078781D01*
X0045287Y0078787D01*
X0045137Y0078790D01*
X0045137Y0079329D01*
X0045137Y0079330D01*
X0045292Y0079327D01*
X0045447Y0079321D01*
X0045602Y0079310D01*
X0045757Y0079296D01*
X0045911Y0079278D01*
X0046065Y0079256D01*
X0046218Y0079231D01*
X0046370Y0079201D01*
X0046522Y0079168D01*
X0046673Y0079131D01*
X0046823Y0079091D01*
X0046972Y0079046D01*
X0047119Y0078998D01*
X0047266Y0078947D01*
X0047411Y0078891D01*
X0047554Y0078833D01*
X0047697Y0078770D01*
X0047837Y0078704D01*
X0047976Y0078635D01*
X0048113Y0078562D01*
X0048249Y0078486D01*
X0048382Y0078407D01*
X0048513Y0078324D01*
X0048643Y0078238D01*
X0048770Y0078149D01*
X0048895Y0078057D01*
X0049017Y0077961D01*
X0049137Y0077863D01*
X0049255Y0077762D01*
X0049370Y0077658D01*
X0049483Y0077551D01*
X0049593Y0077441D01*
X0049700Y0077329D01*
X0049804Y0077214D01*
X0049905Y0077096D01*
X0050004Y0076976D01*
X0050099Y0076853D01*
X0050192Y0076729D01*
X0050146Y0076696D01*
X0050054Y0076820D01*
X0049960Y0076941D01*
X0049862Y0077060D01*
X0049762Y0077177D01*
X0049658Y0077291D01*
X0049552Y0077402D01*
X0049444Y0077511D01*
X0049332Y0077617D01*
X0049218Y0077720D01*
X0049101Y0077820D01*
X0048982Y0077918D01*
X0048861Y0078012D01*
X0048737Y0078104D01*
X0048611Y0078192D01*
X0048483Y0078277D01*
X0048353Y0078359D01*
X0048221Y0078438D01*
X0048086Y0078513D01*
X0047950Y0078585D01*
X0047813Y0078654D01*
X0047674Y0078719D01*
X0047533Y0078781D01*
X0047390Y0078839D01*
X0047246Y0078894D01*
X0047101Y0078945D01*
X0046955Y0078993D01*
X0046808Y0079037D01*
X0046659Y0079077D01*
X0046510Y0079114D01*
X0046359Y0079146D01*
X0046208Y0079176D01*
X0046057Y0079201D01*
X0045904Y0079223D01*
X0045751Y0079240D01*
X0045598Y0079255D01*
X0045445Y0079265D01*
X0045291Y0079271D01*
X0045137Y0079274D01*
X0045137Y0079218D01*
X0045294Y0079215D01*
X0045450Y0079208D01*
X0045606Y0079198D01*
X0045762Y0079183D01*
X0045918Y0079164D01*
X0046073Y0079142D01*
X0046227Y0079115D01*
X0046381Y0079085D01*
X0046533Y0079051D01*
X0046685Y0079012D01*
X0046836Y0078970D01*
X0046986Y0078924D01*
X0047134Y0078875D01*
X0047281Y0078821D01*
X0047427Y0078764D01*
X0047571Y0078703D01*
X0047714Y0078639D01*
X0047855Y0078571D01*
X0047994Y0078499D01*
X0048132Y0078424D01*
X0048267Y0078345D01*
X0048400Y0078263D01*
X0048532Y0078178D01*
X0048661Y0078089D01*
X0048787Y0077997D01*
X0048912Y0077902D01*
X0049034Y0077804D01*
X0049153Y0077702D01*
X0049270Y0077598D01*
X0049384Y0077491D01*
X0049495Y0077381D01*
X0049603Y0077268D01*
X0049709Y0077152D01*
X0049811Y0077034D01*
X0049911Y0076913D01*
X0050007Y0076789D01*
X0050100Y0076664D01*
X0050055Y0076631D01*
X0049963Y0076756D01*
X0049867Y0076878D01*
X0049768Y0076998D01*
X0049667Y0077115D01*
X0049562Y0077230D01*
X0049455Y0077341D01*
X0049345Y0077451D01*
X0049232Y0077557D01*
X0049116Y0077660D01*
X0048998Y0077761D01*
X0048877Y0077858D01*
X0048754Y0077952D01*
X0048628Y0078044D01*
X0048500Y0078131D01*
X0048370Y0078216D01*
X0048238Y0078297D01*
X0048104Y0078375D01*
X0047968Y0078450D01*
X0047830Y0078521D01*
X0047690Y0078588D01*
X0047549Y0078652D01*
X0047406Y0078712D01*
X0047262Y0078769D01*
X0047116Y0078822D01*
X0046969Y0078871D01*
X0046820Y0078917D01*
X0046671Y0078958D01*
X0046520Y0078996D01*
X0046369Y0079030D01*
X0046217Y0079060D01*
X0046064Y0079086D01*
X0045910Y0079109D01*
X0045756Y0079127D01*
X0045602Y0079142D01*
X0045447Y0079153D01*
X0045292Y0079159D01*
X0045137Y0079162D01*
X0045137Y0079106D01*
X0045291Y0079103D01*
X0045444Y0079097D01*
X0045598Y0079086D01*
X0045751Y0079072D01*
X0045903Y0079053D01*
X0046055Y0079031D01*
X0046207Y0079005D01*
X0046358Y0078975D01*
X0046508Y0078942D01*
X0046657Y0078904D01*
X0046805Y0078863D01*
X0046952Y0078818D01*
X0047097Y0078769D01*
X0047242Y0078717D01*
X0047385Y0078660D01*
X0047527Y0078601D01*
X0047667Y0078537D01*
X0047805Y0078471D01*
X0047942Y0078400D01*
X0048077Y0078326D01*
X0048209Y0078249D01*
X0048340Y0078169D01*
X0048469Y0078085D01*
X0048596Y0077998D01*
X0048720Y0077908D01*
X0048842Y0077814D01*
X0048962Y0077718D01*
X0049079Y0077618D01*
X0049194Y0077516D01*
X0049306Y0077410D01*
X0049415Y0077302D01*
X0049521Y0077191D01*
X0049625Y0077078D01*
X0049726Y0076962D01*
X0049823Y0076843D01*
X0049918Y0076722D01*
X0050009Y0076599D01*
X0049964Y0076566D01*
X0049873Y0076688D01*
X0049779Y0076808D01*
X0049683Y0076926D01*
X0049583Y0077041D01*
X0049480Y0077153D01*
X0049375Y0077263D01*
X0049267Y0077370D01*
X0049156Y0077475D01*
X0049042Y0077576D01*
X0048926Y0077675D01*
X0048808Y0077770D01*
X0048687Y0077863D01*
X0048563Y0077952D01*
X0048438Y0078038D01*
X0048310Y0078121D01*
X0048181Y0078201D01*
X0048049Y0078278D01*
X0047915Y0078351D01*
X0047780Y0078420D01*
X0047643Y0078487D01*
X0047504Y0078549D01*
X0047364Y0078609D01*
X0047222Y0078664D01*
X0047079Y0078716D01*
X0046935Y0078764D01*
X0046789Y0078809D01*
X0046642Y0078850D01*
X0046495Y0078887D01*
X0046346Y0078920D01*
X0046197Y0078950D01*
X0046047Y0078976D01*
X0045896Y0078998D01*
X0045745Y0079016D01*
X0045593Y0079030D01*
X0045441Y0079041D01*
X0045289Y0079047D01*
X0045137Y0079050D01*
X0045137Y0078994D01*
X0045288Y0078991D01*
X0045439Y0078985D01*
X0045589Y0078974D01*
X0045739Y0078960D01*
X0045889Y0078942D01*
X0046038Y0078920D01*
X0046187Y0078895D01*
X0046335Y0078866D01*
X0046482Y0078833D01*
X0046628Y0078796D01*
X0046773Y0078755D01*
X0046918Y0078711D01*
X0047061Y0078663D01*
X0047202Y0078612D01*
X0047343Y0078557D01*
X0047482Y0078498D01*
X0047619Y0078436D01*
X0047755Y0078370D01*
X0047889Y0078301D01*
X0048022Y0078229D01*
X0048152Y0078153D01*
X0048280Y0078074D01*
X0048407Y0077992D01*
X0048531Y0077906D01*
X0048653Y0077818D01*
X0048773Y0077726D01*
X0048890Y0077632D01*
X0049005Y0077534D01*
X0049118Y0077433D01*
X0049228Y0077330D01*
X0049335Y0077224D01*
X0049439Y0077115D01*
X0049541Y0077004D01*
X0049640Y0076890D01*
X0049736Y0076773D01*
X0049828Y0076655D01*
X0049918Y0076533D01*
X0049873Y0076501D01*
X0049784Y0076621D01*
X0049692Y0076739D01*
X0049597Y0076854D01*
X0049499Y0076967D01*
X0049398Y0077077D01*
X0049295Y0077185D01*
X0049189Y0077290D01*
X0049080Y0077392D01*
X0048968Y0077492D01*
X0048854Y0077588D01*
X0048738Y0077682D01*
X0048620Y0077773D01*
X0048499Y0077861D01*
X0048376Y0077945D01*
X0048250Y0078027D01*
X0048123Y0078105D01*
X0047994Y0078180D01*
X0047863Y0078252D01*
X0047730Y0078320D01*
X0047596Y0078385D01*
X0047459Y0078447D01*
X0047322Y0078505D01*
X0047183Y0078559D01*
X0047042Y0078610D01*
X0046901Y0078658D01*
X0046758Y0078701D01*
X0046614Y0078742D01*
X0046469Y0078778D01*
X0046323Y0078811D01*
X0046177Y0078840D01*
X0046030Y0078865D01*
X0045882Y0078887D01*
X0045733Y0078905D01*
X0045585Y0078919D01*
X0045436Y0078929D01*
X0045286Y0078935D01*
X0045137Y0078938D01*
X0045137Y0078882D01*
X0045289Y0078879D01*
X0045441Y0078872D01*
X0045593Y0078862D01*
X0045744Y0078847D01*
X0045895Y0078828D01*
X0046045Y0078806D01*
X0046195Y0078779D01*
X0046344Y0078749D01*
X0046492Y0078715D01*
X0046639Y0078677D01*
X0046786Y0078635D01*
X0046931Y0078589D01*
X0047074Y0078540D01*
X0047217Y0078486D01*
X0047358Y0078429D01*
X0047497Y0078369D01*
X0047635Y0078305D01*
X0047771Y0078237D01*
X0047905Y0078165D01*
X0048038Y0078091D01*
X0048168Y0078012D01*
X0048296Y0077931D01*
X0048423Y0077846D01*
X0048546Y0077757D01*
X0048668Y0077666D01*
X0048787Y0077572D01*
X0048903Y0077474D01*
X0049017Y0077373D01*
X0049129Y0077270D01*
X0049237Y0077163D01*
X0049343Y0077054D01*
X0049446Y0076942D01*
X0049546Y0076827D01*
X0049643Y0076710D01*
X0049736Y0076590D01*
X0049827Y0076468D01*
X0049782Y0076436D01*
X0049692Y0076557D01*
X0049599Y0076675D01*
X0049503Y0076791D01*
X0049404Y0076905D01*
X0049302Y0077016D01*
X0049197Y0077124D01*
X0049090Y0077229D01*
X0048980Y0077332D01*
X0048867Y0077432D01*
X0048751Y0077528D01*
X0048634Y0077622D01*
X0048513Y0077712D01*
X0048391Y0077800D01*
X0048266Y0077884D01*
X0048139Y0077965D01*
X0048010Y0078042D01*
X0047878Y0078116D01*
X0047745Y0078187D01*
X0047611Y0078254D01*
X0047474Y0078318D01*
X0047336Y0078378D01*
X0047197Y0078434D01*
X0047055Y0078487D01*
X0046913Y0078536D01*
X0046770Y0078581D01*
X0046625Y0078623D01*
X0046479Y0078660D01*
X0046332Y0078694D01*
X0046185Y0078724D01*
X0046037Y0078751D01*
X0045888Y0078773D01*
X0045738Y0078791D01*
X0045588Y0078806D01*
X0045438Y0078816D01*
X0045288Y0078823D01*
X0045137Y0078826D01*
X0045137Y0066791D02*
X0045137Y0067331D01*
X0045137Y0067330D02*
X0045284Y0067333D01*
X0045431Y0067339D01*
X0045578Y0067349D01*
X0045725Y0067363D01*
X0045871Y0067381D01*
X0046017Y0067403D01*
X0046162Y0067428D01*
X0046306Y0067457D01*
X0046450Y0067489D01*
X0046592Y0067526D01*
X0046734Y0067566D01*
X0046874Y0067609D01*
X0047014Y0067657D01*
X0047152Y0067707D01*
X0047289Y0067762D01*
X0047424Y0067820D01*
X0047558Y0067881D01*
X0047691Y0067945D01*
X0047821Y0068014D01*
X0047950Y0068085D01*
X0048077Y0068160D01*
X0048202Y0068238D01*
X0048324Y0068319D01*
X0048445Y0068403D01*
X0048564Y0068490D01*
X0048680Y0068580D01*
X0048794Y0068674D01*
X0048905Y0068770D01*
X0049014Y0068869D01*
X0049121Y0068971D01*
X0049225Y0069075D01*
X0049326Y0069182D01*
X0049424Y0069292D01*
X0049519Y0069404D01*
X0049612Y0069519D01*
X0050037Y0069188D01*
X0050038Y0069187D01*
X0049940Y0069065D01*
X0049838Y0068945D01*
X0049734Y0068828D01*
X0049627Y0068714D01*
X0049516Y0068602D01*
X0049404Y0068494D01*
X0049288Y0068388D01*
X0049170Y0068285D01*
X0049049Y0068184D01*
X0048926Y0068087D01*
X0048801Y0067993D01*
X0048673Y0067903D01*
X0048543Y0067815D01*
X0048411Y0067731D01*
X0048276Y0067650D01*
X0048140Y0067572D01*
X0048002Y0067498D01*
X0047862Y0067428D01*
X0047720Y0067361D01*
X0047577Y0067297D01*
X0047432Y0067237D01*
X0047286Y0067181D01*
X0047138Y0067128D01*
X0046989Y0067079D01*
X0046839Y0067034D01*
X0046688Y0066993D01*
X0046535Y0066955D01*
X0046382Y0066921D01*
X0046228Y0066891D01*
X0046074Y0066865D01*
X0045919Y0066843D01*
X0045763Y0066824D01*
X0045607Y0066810D01*
X0045450Y0066799D01*
X0045294Y0066793D01*
X0045137Y0066790D01*
X0045137Y0066846D01*
X0045292Y0066849D01*
X0045448Y0066855D01*
X0045603Y0066866D01*
X0045757Y0066880D01*
X0045912Y0066898D01*
X0046065Y0066920D01*
X0046219Y0066946D01*
X0046371Y0066976D01*
X0046523Y0067009D01*
X0046674Y0067047D01*
X0046824Y0067088D01*
X0046972Y0067133D01*
X0047120Y0067181D01*
X0047266Y0067233D01*
X0047411Y0067289D01*
X0047555Y0067348D01*
X0047697Y0067411D01*
X0047837Y0067478D01*
X0047976Y0067548D01*
X0048113Y0067621D01*
X0048248Y0067698D01*
X0048381Y0067778D01*
X0048512Y0067862D01*
X0048641Y0067949D01*
X0048768Y0068039D01*
X0048892Y0068132D01*
X0049014Y0068228D01*
X0049134Y0068327D01*
X0049251Y0068429D01*
X0049365Y0068534D01*
X0049477Y0068642D01*
X0049586Y0068753D01*
X0049692Y0068866D01*
X0049796Y0068982D01*
X0049896Y0069101D01*
X0049994Y0069222D01*
X0049949Y0069256D01*
X0049853Y0069136D01*
X0049753Y0069019D01*
X0049651Y0068904D01*
X0049546Y0068791D01*
X0049437Y0068682D01*
X0049327Y0068575D01*
X0049213Y0068471D01*
X0049097Y0068370D01*
X0048979Y0068271D01*
X0048858Y0068176D01*
X0048734Y0068084D01*
X0048609Y0067995D01*
X0048481Y0067909D01*
X0048351Y0067826D01*
X0048220Y0067747D01*
X0048086Y0067670D01*
X0047950Y0067598D01*
X0047813Y0067528D01*
X0047674Y0067462D01*
X0047533Y0067400D01*
X0047391Y0067341D01*
X0047247Y0067286D01*
X0047102Y0067234D01*
X0046956Y0067186D01*
X0046808Y0067142D01*
X0046660Y0067101D01*
X0046510Y0067064D01*
X0046360Y0067031D01*
X0046209Y0067001D01*
X0046057Y0066976D01*
X0045905Y0066954D01*
X0045752Y0066936D01*
X0045598Y0066922D01*
X0045445Y0066911D01*
X0045291Y0066905D01*
X0045137Y0066902D01*
X0045137Y0066958D01*
X0045290Y0066961D01*
X0045442Y0066967D01*
X0045594Y0066977D01*
X0045746Y0066992D01*
X0045898Y0067009D01*
X0046049Y0067031D01*
X0046199Y0067056D01*
X0046349Y0067086D01*
X0046498Y0067119D01*
X0046646Y0067155D01*
X0046793Y0067195D01*
X0046939Y0067239D01*
X0047084Y0067287D01*
X0047227Y0067338D01*
X0047370Y0067393D01*
X0047511Y0067451D01*
X0047650Y0067513D01*
X0047788Y0067579D01*
X0047924Y0067647D01*
X0048059Y0067719D01*
X0048191Y0067795D01*
X0048322Y0067874D01*
X0048450Y0067956D01*
X0048577Y0068041D01*
X0048701Y0068129D01*
X0048824Y0068220D01*
X0048943Y0068315D01*
X0049061Y0068412D01*
X0049176Y0068512D01*
X0049288Y0068616D01*
X0049398Y0068721D01*
X0049505Y0068830D01*
X0049609Y0068941D01*
X0049711Y0069055D01*
X0049810Y0069172D01*
X0049905Y0069290D01*
X0049861Y0069325D01*
X0049766Y0069207D01*
X0049668Y0069092D01*
X0049568Y0068979D01*
X0049464Y0068869D01*
X0049358Y0068761D01*
X0049250Y0068656D01*
X0049138Y0068554D01*
X0049024Y0068455D01*
X0048908Y0068358D01*
X0048789Y0068265D01*
X0048668Y0068174D01*
X0048545Y0068087D01*
X0048420Y0068002D01*
X0048292Y0067921D01*
X0048163Y0067843D01*
X0048032Y0067768D01*
X0047898Y0067697D01*
X0047763Y0067629D01*
X0047627Y0067564D01*
X0047489Y0067503D01*
X0047349Y0067445D01*
X0047208Y0067391D01*
X0047066Y0067340D01*
X0046922Y0067293D01*
X0046777Y0067249D01*
X0046632Y0067209D01*
X0046485Y0067173D01*
X0046337Y0067141D01*
X0046189Y0067112D01*
X0046040Y0067086D01*
X0045890Y0067065D01*
X0045740Y0067047D01*
X0045590Y0067033D01*
X0045439Y0067023D01*
X0045288Y0067017D01*
X0045137Y0067014D01*
X0045137Y0067070D01*
X0045291Y0067073D01*
X0045445Y0067080D01*
X0045598Y0067090D01*
X0045752Y0067105D01*
X0045905Y0067123D01*
X0046057Y0067146D01*
X0046209Y0067172D01*
X0046360Y0067202D01*
X0046510Y0067237D01*
X0046659Y0067275D01*
X0046807Y0067316D01*
X0046954Y0067362D01*
X0047100Y0067411D01*
X0047245Y0067464D01*
X0047388Y0067521D01*
X0047529Y0067582D01*
X0047669Y0067646D01*
X0047808Y0067713D01*
X0047944Y0067785D01*
X0048079Y0067859D01*
X0048212Y0067937D01*
X0048342Y0068019D01*
X0048471Y0068104D01*
X0048597Y0068192D01*
X0048721Y0068283D01*
X0048843Y0068378D01*
X0048962Y0068475D01*
X0049078Y0068576D01*
X0049192Y0068679D01*
X0049304Y0068786D01*
X0049412Y0068895D01*
X0049518Y0069007D01*
X0049620Y0069122D01*
X0049720Y0069239D01*
X0049817Y0069359D01*
X0049773Y0069393D01*
X0049677Y0069275D01*
X0049578Y0069159D01*
X0049476Y0069045D01*
X0049372Y0068934D01*
X0049264Y0068826D01*
X0049154Y0068720D01*
X0049041Y0068618D01*
X0048926Y0068518D01*
X0048808Y0068421D01*
X0048687Y0068328D01*
X0048564Y0068237D01*
X0048439Y0068150D01*
X0048312Y0068066D01*
X0048183Y0067985D01*
X0048051Y0067908D01*
X0047918Y0067834D01*
X0047783Y0067763D01*
X0047646Y0067696D01*
X0047507Y0067633D01*
X0047367Y0067573D01*
X0047225Y0067517D01*
X0047082Y0067464D01*
X0046937Y0067415D01*
X0046791Y0067370D01*
X0046645Y0067329D01*
X0046497Y0067291D01*
X0046348Y0067257D01*
X0046199Y0067227D01*
X0046048Y0067201D01*
X0045897Y0067179D01*
X0045746Y0067160D01*
X0045594Y0067146D01*
X0045442Y0067135D01*
X0045290Y0067129D01*
X0045137Y0067126D01*
X0045137Y0067182D01*
X0045288Y0067185D01*
X0045439Y0067191D01*
X0045590Y0067202D01*
X0045740Y0067216D01*
X0045890Y0067234D01*
X0046040Y0067256D01*
X0046188Y0067282D01*
X0046337Y0067312D01*
X0046484Y0067346D01*
X0046630Y0067383D01*
X0046776Y0067424D01*
X0046920Y0067469D01*
X0047063Y0067517D01*
X0047205Y0067569D01*
X0047345Y0067625D01*
X0047484Y0067684D01*
X0047622Y0067747D01*
X0047757Y0067813D01*
X0047891Y0067883D01*
X0048023Y0067956D01*
X0048154Y0068033D01*
X0048282Y0068113D01*
X0048408Y0068196D01*
X0048532Y0068283D01*
X0048653Y0068372D01*
X0048773Y0068465D01*
X0048890Y0068561D01*
X0049004Y0068659D01*
X0049116Y0068761D01*
X0049225Y0068865D01*
X0049331Y0068973D01*
X0049435Y0069083D01*
X0049536Y0069195D01*
X0049634Y0069310D01*
X0049728Y0069428D01*
X0049684Y0069462D01*
X0049590Y0069346D01*
X0049493Y0069232D01*
X0049394Y0069120D01*
X0049291Y0069011D01*
X0049185Y0068905D01*
X0049077Y0068802D01*
X0048967Y0068701D01*
X0048853Y0068604D01*
X0048738Y0068509D01*
X0048619Y0068417D01*
X0048499Y0068328D01*
X0048376Y0068243D01*
X0048251Y0068160D01*
X0048124Y0068081D01*
X0047996Y0068005D01*
X0047865Y0067933D01*
X0047732Y0067863D01*
X0047598Y0067798D01*
X0047462Y0067735D01*
X0047324Y0067677D01*
X0047185Y0067621D01*
X0047044Y0067570D01*
X0046903Y0067522D01*
X0046760Y0067478D01*
X0046616Y0067437D01*
X0046471Y0067400D01*
X0046325Y0067367D01*
X0046178Y0067337D01*
X0046031Y0067312D01*
X0045883Y0067290D01*
X0045734Y0067272D01*
X0045585Y0067258D01*
X0045436Y0067247D01*
X0045287Y0067241D01*
X0045137Y0067238D01*
X0045137Y0067294D01*
X0045285Y0067297D01*
X0045433Y0067303D01*
X0045581Y0067314D01*
X0045728Y0067328D01*
X0045876Y0067345D01*
X0046022Y0067367D01*
X0046168Y0067392D01*
X0046313Y0067422D01*
X0046458Y0067454D01*
X0046601Y0067491D01*
X0046744Y0067531D01*
X0046886Y0067575D01*
X0047026Y0067623D01*
X0047165Y0067674D01*
X0047303Y0067728D01*
X0047439Y0067787D01*
X0047574Y0067848D01*
X0047707Y0067913D01*
X0047838Y0067982D01*
X0047968Y0068054D01*
X0048095Y0068129D01*
X0048221Y0068207D01*
X0048345Y0068289D01*
X0048466Y0068374D01*
X0048586Y0068461D01*
X0048703Y0068552D01*
X0048817Y0068646D01*
X0048929Y0068743D01*
X0049039Y0068843D01*
X0049146Y0068945D01*
X0049251Y0069050D01*
X0049352Y0069158D01*
X0049451Y0069268D01*
X0049547Y0069381D01*
X0049640Y0069497D01*
X0045078Y0079329D02*
X0045078Y0078789D01*
X0045077Y0078790D02*
X0044927Y0078787D01*
X0044777Y0078780D01*
X0044627Y0078770D01*
X0044478Y0078755D01*
X0044329Y0078737D01*
X0044181Y0078715D01*
X0044033Y0078688D01*
X0043886Y0078658D01*
X0043739Y0078624D01*
X0043594Y0078587D01*
X0043450Y0078545D01*
X0043307Y0078500D01*
X0043165Y0078451D01*
X0043024Y0078398D01*
X0042885Y0078342D01*
X0042748Y0078282D01*
X0042612Y0078218D01*
X0042478Y0078151D01*
X0042345Y0078080D01*
X0042215Y0078006D01*
X0042086Y0077929D01*
X0041960Y0077848D01*
X0041835Y0077764D01*
X0041713Y0077677D01*
X0041593Y0077586D01*
X0041476Y0077493D01*
X0041361Y0077396D01*
X0041249Y0077296D01*
X0041139Y0077194D01*
X0041032Y0077089D01*
X0040928Y0076981D01*
X0040827Y0076870D01*
X0040729Y0076756D01*
X0040633Y0076640D01*
X0040541Y0076522D01*
X0040110Y0076845D01*
X0040109Y0076846D01*
X0040204Y0076969D01*
X0040303Y0077089D01*
X0040404Y0077207D01*
X0040509Y0077322D01*
X0040616Y0077435D01*
X0040726Y0077545D01*
X0040838Y0077652D01*
X0040953Y0077757D01*
X0041071Y0077858D01*
X0041191Y0077957D01*
X0041314Y0078053D01*
X0041439Y0078145D01*
X0041566Y0078235D01*
X0041696Y0078321D01*
X0041827Y0078404D01*
X0041961Y0078484D01*
X0042096Y0078560D01*
X0042234Y0078633D01*
X0042373Y0078702D01*
X0042514Y0078768D01*
X0042656Y0078831D01*
X0042800Y0078890D01*
X0042945Y0078945D01*
X0043092Y0078997D01*
X0043240Y0079045D01*
X0043389Y0079090D01*
X0043539Y0079131D01*
X0043690Y0079168D01*
X0043842Y0079201D01*
X0043994Y0079230D01*
X0044148Y0079256D01*
X0044302Y0079278D01*
X0044456Y0079296D01*
X0044611Y0079310D01*
X0044766Y0079321D01*
X0044922Y0079327D01*
X0045077Y0079330D01*
X0045077Y0079274D01*
X0044923Y0079271D01*
X0044769Y0079265D01*
X0044615Y0079255D01*
X0044462Y0079240D01*
X0044309Y0079223D01*
X0044156Y0079201D01*
X0044004Y0079175D01*
X0043853Y0079146D01*
X0043702Y0079113D01*
X0043553Y0079076D01*
X0043404Y0079036D01*
X0043256Y0078992D01*
X0043110Y0078944D01*
X0042964Y0078893D01*
X0042820Y0078838D01*
X0042678Y0078779D01*
X0042537Y0078717D01*
X0042397Y0078652D01*
X0042259Y0078583D01*
X0042123Y0078511D01*
X0041989Y0078435D01*
X0041857Y0078356D01*
X0041726Y0078274D01*
X0041598Y0078188D01*
X0041472Y0078100D01*
X0041348Y0078008D01*
X0041227Y0077913D01*
X0041107Y0077816D01*
X0040991Y0077715D01*
X0040876Y0077612D01*
X0040765Y0077505D01*
X0040656Y0077396D01*
X0040550Y0077284D01*
X0040446Y0077170D01*
X0040346Y0077053D01*
X0040248Y0076934D01*
X0040154Y0076812D01*
X0040199Y0076779D01*
X0040292Y0076899D01*
X0040389Y0077018D01*
X0040489Y0077133D01*
X0040591Y0077247D01*
X0040696Y0077357D01*
X0040804Y0077465D01*
X0040915Y0077571D01*
X0041028Y0077673D01*
X0041144Y0077773D01*
X0041262Y0077870D01*
X0041382Y0077964D01*
X0041505Y0078054D01*
X0041630Y0078142D01*
X0041757Y0078227D01*
X0041886Y0078308D01*
X0042017Y0078387D01*
X0042150Y0078462D01*
X0042285Y0078533D01*
X0042422Y0078602D01*
X0042560Y0078666D01*
X0042700Y0078728D01*
X0042841Y0078786D01*
X0042984Y0078840D01*
X0043128Y0078891D01*
X0043273Y0078938D01*
X0043419Y0078982D01*
X0043566Y0079022D01*
X0043715Y0079059D01*
X0043864Y0079091D01*
X0044014Y0079120D01*
X0044164Y0079145D01*
X0044316Y0079167D01*
X0044467Y0079185D01*
X0044619Y0079199D01*
X0044772Y0079209D01*
X0044924Y0079215D01*
X0045077Y0079218D01*
X0045077Y0079162D01*
X0044922Y0079159D01*
X0044766Y0079152D01*
X0044611Y0079142D01*
X0044456Y0079127D01*
X0044302Y0079109D01*
X0044148Y0079086D01*
X0043995Y0079060D01*
X0043842Y0079029D01*
X0043690Y0078995D01*
X0043540Y0078957D01*
X0043390Y0078915D01*
X0043241Y0078870D01*
X0043094Y0078820D01*
X0042948Y0078767D01*
X0042803Y0078710D01*
X0042660Y0078650D01*
X0042518Y0078586D01*
X0042378Y0078518D01*
X0042240Y0078446D01*
X0042104Y0078372D01*
X0041969Y0078293D01*
X0041837Y0078212D01*
X0041707Y0078127D01*
X0041579Y0078038D01*
X0041453Y0077947D01*
X0041330Y0077852D01*
X0041209Y0077754D01*
X0041090Y0077654D01*
X0040975Y0077550D01*
X0040862Y0077443D01*
X0040751Y0077333D01*
X0040644Y0077221D01*
X0040539Y0077106D01*
X0040438Y0076988D01*
X0040339Y0076868D01*
X0040243Y0076745D01*
X0040288Y0076712D01*
X0040383Y0076833D01*
X0040481Y0076952D01*
X0040581Y0077069D01*
X0040685Y0077183D01*
X0040791Y0077294D01*
X0040901Y0077403D01*
X0041013Y0077509D01*
X0041127Y0077611D01*
X0041245Y0077711D01*
X0041364Y0077808D01*
X0041487Y0077902D01*
X0041611Y0077993D01*
X0041738Y0078080D01*
X0041867Y0078165D01*
X0041998Y0078245D01*
X0042131Y0078323D01*
X0042266Y0078397D01*
X0042403Y0078468D01*
X0042542Y0078535D01*
X0042682Y0078598D01*
X0042824Y0078658D01*
X0042967Y0078715D01*
X0043112Y0078767D01*
X0043258Y0078816D01*
X0043406Y0078862D01*
X0043554Y0078903D01*
X0043703Y0078941D01*
X0043854Y0078975D01*
X0044005Y0079005D01*
X0044157Y0079031D01*
X0044309Y0079053D01*
X0044462Y0079071D01*
X0044615Y0079086D01*
X0044769Y0079097D01*
X0044923Y0079103D01*
X0045077Y0079106D01*
X0045077Y0079050D01*
X0044924Y0079047D01*
X0044772Y0079041D01*
X0044620Y0079030D01*
X0044468Y0079016D01*
X0044316Y0078998D01*
X0044165Y0078975D01*
X0044015Y0078950D01*
X0043865Y0078920D01*
X0043716Y0078886D01*
X0043568Y0078849D01*
X0043421Y0078808D01*
X0043275Y0078763D01*
X0043131Y0078715D01*
X0042987Y0078662D01*
X0042845Y0078607D01*
X0042705Y0078547D01*
X0042566Y0078484D01*
X0042428Y0078418D01*
X0042293Y0078348D01*
X0042159Y0078274D01*
X0042027Y0078197D01*
X0041897Y0078117D01*
X0041769Y0078034D01*
X0041644Y0077947D01*
X0041520Y0077857D01*
X0041399Y0077764D01*
X0041280Y0077668D01*
X0041164Y0077569D01*
X0041051Y0077468D01*
X0040940Y0077363D01*
X0040831Y0077255D01*
X0040726Y0077145D01*
X0040623Y0077032D01*
X0040524Y0076916D01*
X0040427Y0076798D01*
X0040333Y0076678D01*
X0040378Y0076644D01*
X0040471Y0076764D01*
X0040567Y0076881D01*
X0040665Y0076995D01*
X0040767Y0077107D01*
X0040872Y0077216D01*
X0040979Y0077323D01*
X0041089Y0077426D01*
X0041201Y0077527D01*
X0041316Y0077625D01*
X0041434Y0077721D01*
X0041554Y0077813D01*
X0041676Y0077902D01*
X0041800Y0077987D01*
X0041927Y0078070D01*
X0042056Y0078149D01*
X0042186Y0078225D01*
X0042319Y0078298D01*
X0042453Y0078368D01*
X0042589Y0078433D01*
X0042727Y0078496D01*
X0042866Y0078555D01*
X0043007Y0078610D01*
X0043149Y0078662D01*
X0043292Y0078710D01*
X0043437Y0078754D01*
X0043582Y0078795D01*
X0043729Y0078832D01*
X0043877Y0078865D01*
X0044025Y0078894D01*
X0044174Y0078920D01*
X0044323Y0078942D01*
X0044473Y0078960D01*
X0044624Y0078974D01*
X0044775Y0078985D01*
X0044926Y0078991D01*
X0045077Y0078994D01*
X0045077Y0078938D01*
X0044927Y0078935D01*
X0044778Y0078929D01*
X0044628Y0078918D01*
X0044479Y0078904D01*
X0044331Y0078886D01*
X0044182Y0078865D01*
X0044035Y0078839D01*
X0043888Y0078810D01*
X0043742Y0078777D01*
X0043597Y0078741D01*
X0043453Y0078700D01*
X0043309Y0078656D01*
X0043167Y0078609D01*
X0043027Y0078558D01*
X0042887Y0078503D01*
X0042749Y0078444D01*
X0042613Y0078383D01*
X0042478Y0078317D01*
X0042345Y0078249D01*
X0042214Y0078177D01*
X0042085Y0078101D01*
X0041957Y0078023D01*
X0041832Y0077941D01*
X0041708Y0077856D01*
X0041587Y0077768D01*
X0041469Y0077677D01*
X0041352Y0077582D01*
X0041238Y0077485D01*
X0041127Y0077385D01*
X0041018Y0077283D01*
X0040912Y0077177D01*
X0040808Y0077069D01*
X0040707Y0076958D01*
X0040610Y0076845D01*
X0040515Y0076729D01*
X0040423Y0076611D01*
X0040467Y0076577D01*
X0040559Y0076694D01*
X0040653Y0076809D01*
X0040750Y0076921D01*
X0040849Y0077031D01*
X0040952Y0077138D01*
X0041057Y0077242D01*
X0041165Y0077344D01*
X0041275Y0077443D01*
X0041388Y0077539D01*
X0041503Y0077633D01*
X0041621Y0077723D01*
X0041741Y0077810D01*
X0041863Y0077894D01*
X0041987Y0077976D01*
X0042113Y0078053D01*
X0042242Y0078128D01*
X0042372Y0078199D01*
X0042503Y0078267D01*
X0042637Y0078332D01*
X0042772Y0078393D01*
X0042908Y0078451D01*
X0043046Y0078505D01*
X0043186Y0078556D01*
X0043326Y0078603D01*
X0043468Y0078647D01*
X0043611Y0078687D01*
X0043755Y0078723D01*
X0043899Y0078755D01*
X0044045Y0078784D01*
X0044191Y0078809D01*
X0044338Y0078831D01*
X0044485Y0078849D01*
X0044633Y0078863D01*
X0044781Y0078873D01*
X0044929Y0078879D01*
X0045077Y0078882D01*
X0045077Y0078826D01*
X0044926Y0078823D01*
X0044775Y0078816D01*
X0044624Y0078806D01*
X0044474Y0078791D01*
X0044324Y0078773D01*
X0044175Y0078750D01*
X0044026Y0078724D01*
X0043878Y0078694D01*
X0043731Y0078659D01*
X0043585Y0078621D01*
X0043440Y0078580D01*
X0043296Y0078534D01*
X0043153Y0078485D01*
X0043011Y0078432D01*
X0042871Y0078375D01*
X0042733Y0078315D01*
X0042596Y0078251D01*
X0042461Y0078183D01*
X0042328Y0078112D01*
X0042196Y0078037D01*
X0042067Y0077960D01*
X0041940Y0077878D01*
X0041815Y0077794D01*
X0041692Y0077706D01*
X0041571Y0077615D01*
X0041453Y0077520D01*
X0041338Y0077423D01*
X0041225Y0077323D01*
X0041114Y0077220D01*
X0041007Y0077114D01*
X0040902Y0077005D01*
X0040800Y0076894D01*
X0040701Y0076779D01*
X0040605Y0076663D01*
X0040512Y0076544D01*
D14*
X0037796Y0068825D02*
X0038577Y0069271D01*
X0038670Y0069114D01*
X0038767Y0068960D01*
X0038868Y0068808D01*
X0038973Y0068659D01*
X0039081Y0068512D01*
X0039192Y0068367D01*
X0039307Y0068226D01*
X0039426Y0068087D01*
X0039548Y0067952D01*
X0039673Y0067819D01*
X0039801Y0067689D01*
X0039932Y0067563D01*
X0040066Y0067439D01*
X0040203Y0067319D01*
X0040343Y0067202D01*
X0040486Y0067089D01*
X0040632Y0066979D01*
X0040780Y0066873D01*
X0040931Y0066770D01*
X0041084Y0066671D01*
X0041239Y0066576D01*
X0041397Y0066485D01*
X0041557Y0066397D01*
X0041719Y0066313D01*
X0041882Y0066233D01*
X0042048Y0066157D01*
X0042216Y0066086D01*
X0042385Y0066018D01*
X0042556Y0065954D01*
X0042728Y0065895D01*
X0042902Y0065839D01*
X0043077Y0065788D01*
X0043253Y0065741D01*
X0043430Y0065699D01*
X0043609Y0065660D01*
X0043788Y0065626D01*
X0043968Y0065596D01*
X0044148Y0065571D01*
X0044329Y0065550D01*
X0044511Y0065534D01*
X0044693Y0065521D01*
X0044875Y0065514D01*
X0045057Y0065510D01*
X0045058Y0064611D01*
X0045057Y0064610D01*
X0044853Y0064614D01*
X0044649Y0064622D01*
X0044445Y0064636D01*
X0044241Y0064654D01*
X0044038Y0064678D01*
X0043836Y0064706D01*
X0043634Y0064739D01*
X0043434Y0064777D01*
X0043234Y0064820D01*
X0043035Y0064868D01*
X0042838Y0064920D01*
X0042642Y0064978D01*
X0042447Y0065040D01*
X0042254Y0065106D01*
X0042062Y0065178D01*
X0041873Y0065254D01*
X0041685Y0065334D01*
X0041499Y0065419D01*
X0041315Y0065509D01*
X0041134Y0065602D01*
X0040955Y0065701D01*
X0040778Y0065803D01*
X0040604Y0065910D01*
X0040432Y0066021D01*
X0040263Y0066136D01*
X0040097Y0066255D01*
X0039934Y0066378D01*
X0039774Y0066505D01*
X0039617Y0066636D01*
X0039463Y0066771D01*
X0039313Y0066909D01*
X0039166Y0067051D01*
X0039022Y0067196D01*
X0038882Y0067345D01*
X0038746Y0067497D01*
X0038613Y0067653D01*
X0038485Y0067811D01*
X0038360Y0067973D01*
X0038239Y0068138D01*
X0038122Y0068305D01*
X0038009Y0068476D01*
X0037900Y0068649D01*
X0037795Y0068824D01*
X0037877Y0068871D01*
X0037980Y0068697D01*
X0038088Y0068526D01*
X0038200Y0068358D01*
X0038315Y0068192D01*
X0038435Y0068029D01*
X0038559Y0067870D01*
X0038686Y0067713D01*
X0038817Y0067559D01*
X0038952Y0067409D01*
X0039090Y0067261D01*
X0039232Y0067118D01*
X0039378Y0066977D01*
X0039526Y0066841D01*
X0039678Y0066708D01*
X0039834Y0066578D01*
X0039992Y0066453D01*
X0040153Y0066331D01*
X0040317Y0066213D01*
X0040484Y0066099D01*
X0040654Y0065990D01*
X0040826Y0065884D01*
X0041001Y0065783D01*
X0041178Y0065685D01*
X0041357Y0065593D01*
X0041539Y0065504D01*
X0041723Y0065420D01*
X0041908Y0065340D01*
X0042096Y0065265D01*
X0042285Y0065195D01*
X0042476Y0065129D01*
X0042669Y0065068D01*
X0042863Y0065011D01*
X0043058Y0064959D01*
X0043254Y0064912D01*
X0043452Y0064870D01*
X0043650Y0064832D01*
X0043850Y0064799D01*
X0044050Y0064771D01*
X0044251Y0064748D01*
X0044452Y0064730D01*
X0044653Y0064716D01*
X0044855Y0064708D01*
X0045057Y0064704D01*
X0045057Y0064798D01*
X0044858Y0064802D01*
X0044658Y0064810D01*
X0044459Y0064823D01*
X0044260Y0064842D01*
X0044061Y0064864D01*
X0043864Y0064892D01*
X0043666Y0064925D01*
X0043470Y0064962D01*
X0043275Y0065004D01*
X0043081Y0065050D01*
X0042888Y0065102D01*
X0042696Y0065158D01*
X0042506Y0065218D01*
X0042317Y0065283D01*
X0042130Y0065353D01*
X0041944Y0065427D01*
X0041761Y0065506D01*
X0041579Y0065589D01*
X0041399Y0065677D01*
X0041222Y0065768D01*
X0041047Y0065864D01*
X0040874Y0065965D01*
X0040704Y0066069D01*
X0040536Y0066178D01*
X0040371Y0066290D01*
X0040209Y0066406D01*
X0040050Y0066527D01*
X0039893Y0066651D01*
X0039740Y0066779D01*
X0039589Y0066910D01*
X0039442Y0067046D01*
X0039299Y0067184D01*
X0039158Y0067326D01*
X0039021Y0067472D01*
X0038888Y0067621D01*
X0038758Y0067773D01*
X0038632Y0067928D01*
X0038510Y0068086D01*
X0038392Y0068247D01*
X0038278Y0068410D01*
X0038167Y0068577D01*
X0038061Y0068746D01*
X0037959Y0068917D01*
X0038040Y0068964D01*
X0038141Y0068794D01*
X0038246Y0068627D01*
X0038356Y0068463D01*
X0038469Y0068301D01*
X0038586Y0068142D01*
X0038706Y0067986D01*
X0038831Y0067832D01*
X0038959Y0067682D01*
X0039091Y0067535D01*
X0039226Y0067391D01*
X0039365Y0067251D01*
X0039507Y0067114D01*
X0039652Y0066980D01*
X0039801Y0066850D01*
X0039953Y0066724D01*
X0040107Y0066601D01*
X0040265Y0066482D01*
X0040425Y0066367D01*
X0040588Y0066256D01*
X0040754Y0066149D01*
X0040922Y0066045D01*
X0041093Y0065946D01*
X0041266Y0065851D01*
X0041442Y0065761D01*
X0041619Y0065674D01*
X0041799Y0065592D01*
X0041980Y0065514D01*
X0042163Y0065441D01*
X0042348Y0065372D01*
X0042535Y0065308D01*
X0042723Y0065248D01*
X0042913Y0065192D01*
X0043103Y0065142D01*
X0043295Y0065095D01*
X0043488Y0065054D01*
X0043682Y0065017D01*
X0043877Y0064985D01*
X0044073Y0064958D01*
X0044269Y0064935D01*
X0044466Y0064917D01*
X0044663Y0064904D01*
X0044860Y0064896D01*
X0045057Y0064892D01*
X0045057Y0064986D01*
X0044862Y0064990D01*
X0044667Y0064998D01*
X0044472Y0065011D01*
X0044278Y0065029D01*
X0044084Y0065051D01*
X0043891Y0065078D01*
X0043698Y0065110D01*
X0043507Y0065146D01*
X0043316Y0065187D01*
X0043126Y0065233D01*
X0042938Y0065283D01*
X0042750Y0065338D01*
X0042564Y0065397D01*
X0042380Y0065460D01*
X0042197Y0065529D01*
X0042016Y0065601D01*
X0041837Y0065678D01*
X0041659Y0065759D01*
X0041484Y0065845D01*
X0041310Y0065934D01*
X0041139Y0066028D01*
X0040971Y0066126D01*
X0040804Y0066228D01*
X0040640Y0066334D01*
X0040479Y0066444D01*
X0040321Y0066558D01*
X0040165Y0066675D01*
X0040012Y0066797D01*
X0039862Y0066922D01*
X0039715Y0067050D01*
X0039572Y0067182D01*
X0039431Y0067318D01*
X0039294Y0067457D01*
X0039160Y0067599D01*
X0039030Y0067744D01*
X0038903Y0067892D01*
X0038780Y0068044D01*
X0038661Y0068198D01*
X0038545Y0068355D01*
X0038434Y0068515D01*
X0038326Y0068678D01*
X0038222Y0068843D01*
X0038122Y0069011D01*
X0038203Y0069057D01*
X0038302Y0068892D01*
X0038405Y0068728D01*
X0038512Y0068568D01*
X0038622Y0068410D01*
X0038736Y0068254D01*
X0038854Y0068102D01*
X0038976Y0067952D01*
X0039101Y0067806D01*
X0039230Y0067662D01*
X0039362Y0067522D01*
X0039497Y0067384D01*
X0039636Y0067250D01*
X0039778Y0067120D01*
X0039923Y0066993D01*
X0040071Y0066869D01*
X0040222Y0066750D01*
X0040376Y0066633D01*
X0040533Y0066521D01*
X0040692Y0066412D01*
X0040854Y0066308D01*
X0041019Y0066207D01*
X0041185Y0066110D01*
X0041355Y0066017D01*
X0041526Y0065929D01*
X0041699Y0065844D01*
X0041875Y0065764D01*
X0042052Y0065688D01*
X0042231Y0065616D01*
X0042412Y0065549D01*
X0042594Y0065486D01*
X0042778Y0065428D01*
X0042963Y0065374D01*
X0043149Y0065324D01*
X0043337Y0065279D01*
X0043525Y0065238D01*
X0043714Y0065202D01*
X0043905Y0065171D01*
X0044096Y0065144D01*
X0044287Y0065122D01*
X0044479Y0065105D01*
X0044672Y0065092D01*
X0044864Y0065084D01*
X0045057Y0065080D01*
X0045057Y0065174D01*
X0044867Y0065178D01*
X0044676Y0065186D01*
X0044486Y0065198D01*
X0044296Y0065216D01*
X0044107Y0065238D01*
X0043919Y0065264D01*
X0043731Y0065295D01*
X0043543Y0065331D01*
X0043357Y0065371D01*
X0043172Y0065415D01*
X0042988Y0065464D01*
X0042805Y0065518D01*
X0042623Y0065575D01*
X0042443Y0065638D01*
X0042265Y0065704D01*
X0042088Y0065775D01*
X0041913Y0065850D01*
X0041739Y0065929D01*
X0041568Y0066013D01*
X0041399Y0066100D01*
X0041232Y0066192D01*
X0041067Y0066288D01*
X0040904Y0066387D01*
X0040744Y0066491D01*
X0040587Y0066598D01*
X0040432Y0066709D01*
X0040280Y0066824D01*
X0040131Y0066942D01*
X0039985Y0067064D01*
X0039841Y0067190D01*
X0039701Y0067319D01*
X0039564Y0067451D01*
X0039430Y0067587D01*
X0039299Y0067725D01*
X0039172Y0067867D01*
X0039048Y0068012D01*
X0038928Y0068160D01*
X0038812Y0068311D01*
X0038699Y0068464D01*
X0038590Y0068620D01*
X0038484Y0068779D01*
X0038383Y0068940D01*
X0038285Y0069104D01*
X0038367Y0069151D01*
X0038463Y0068989D01*
X0038563Y0068830D01*
X0038667Y0068673D01*
X0038775Y0068518D01*
X0038887Y0068367D01*
X0039002Y0068218D01*
X0039121Y0068072D01*
X0039243Y0067929D01*
X0039369Y0067789D01*
X0039498Y0067652D01*
X0039630Y0067518D01*
X0039766Y0067387D01*
X0039904Y0067260D01*
X0040046Y0067136D01*
X0040190Y0067015D01*
X0040338Y0066898D01*
X0040488Y0066785D01*
X0040641Y0066675D01*
X0040797Y0066569D01*
X0040955Y0066467D01*
X0041115Y0066368D01*
X0041278Y0066274D01*
X0041443Y0066183D01*
X0041610Y0066097D01*
X0041779Y0066014D01*
X0041950Y0065936D01*
X0042123Y0065862D01*
X0042298Y0065792D01*
X0042475Y0065726D01*
X0042653Y0065665D01*
X0042832Y0065608D01*
X0043013Y0065555D01*
X0043195Y0065506D01*
X0043378Y0065462D01*
X0043562Y0065423D01*
X0043747Y0065388D01*
X0043932Y0065357D01*
X0044119Y0065331D01*
X0044306Y0065309D01*
X0044493Y0065292D01*
X0044681Y0065280D01*
X0044869Y0065272D01*
X0045057Y0065268D01*
X0045057Y0065362D01*
X0044871Y0065366D01*
X0044686Y0065374D01*
X0044500Y0065386D01*
X0044315Y0065403D01*
X0044130Y0065424D01*
X0043946Y0065450D01*
X0043763Y0065480D01*
X0043580Y0065515D01*
X0043398Y0065554D01*
X0043217Y0065598D01*
X0043038Y0065645D01*
X0042859Y0065698D01*
X0042682Y0065754D01*
X0042506Y0065815D01*
X0042332Y0065880D01*
X0042159Y0065949D01*
X0041988Y0066022D01*
X0041819Y0066099D01*
X0041652Y0066181D01*
X0041487Y0066266D01*
X0041324Y0066356D01*
X0041163Y0066449D01*
X0041005Y0066546D01*
X0040849Y0066647D01*
X0040695Y0066752D01*
X0040544Y0066860D01*
X0040395Y0066972D01*
X0040250Y0067088D01*
X0040107Y0067207D01*
X0039967Y0067329D01*
X0039830Y0067455D01*
X0039696Y0067584D01*
X0039566Y0067717D01*
X0039438Y0067852D01*
X0039314Y0067990D01*
X0039193Y0068132D01*
X0039076Y0068276D01*
X0038962Y0068423D01*
X0038852Y0068573D01*
X0038745Y0068725D01*
X0038643Y0068880D01*
X0038544Y0069038D01*
X0038448Y0069197D01*
X0038530Y0069244D01*
X0038624Y0069086D01*
X0038722Y0068931D01*
X0038823Y0068778D01*
X0038929Y0068627D01*
X0039038Y0068479D01*
X0039150Y0068334D01*
X0039266Y0068192D01*
X0039385Y0068052D01*
X0039508Y0067915D01*
X0039634Y0067782D01*
X0039763Y0067651D01*
X0039895Y0067523D01*
X0040030Y0067399D01*
X0040168Y0067278D01*
X0040309Y0067161D01*
X0040453Y0067047D01*
X0040600Y0066936D01*
X0040749Y0066829D01*
X0040901Y0066725D01*
X0041055Y0066626D01*
X0041211Y0066530D01*
X0041370Y0066438D01*
X0041531Y0066349D01*
X0041694Y0066265D01*
X0041859Y0066184D01*
X0042026Y0066108D01*
X0042195Y0066036D01*
X0042366Y0065967D01*
X0042538Y0065903D01*
X0042711Y0065843D01*
X0042886Y0065787D01*
X0043063Y0065736D01*
X0043240Y0065689D01*
X0043419Y0065646D01*
X0043598Y0065607D01*
X0043779Y0065573D01*
X0043960Y0065543D01*
X0044142Y0065518D01*
X0044324Y0065496D01*
X0044507Y0065480D01*
X0044690Y0065467D01*
X0044874Y0065460D01*
X0045057Y0065456D01*
X0045057Y0081509D02*
X0045057Y0080609D01*
X0045057Y0080610D02*
X0044874Y0080606D01*
X0044691Y0080599D01*
X0044508Y0080586D01*
X0044325Y0080569D01*
X0044143Y0080548D01*
X0043962Y0080523D01*
X0043781Y0080493D01*
X0043601Y0080458D01*
X0043422Y0080420D01*
X0043244Y0080377D01*
X0043067Y0080329D01*
X0042892Y0080278D01*
X0042717Y0080222D01*
X0042544Y0080162D01*
X0042373Y0080097D01*
X0042203Y0080029D01*
X0042034Y0079957D01*
X0041868Y0079880D01*
X0041704Y0079799D01*
X0041541Y0079715D01*
X0041381Y0079626D01*
X0041222Y0079534D01*
X0041066Y0079438D01*
X0040913Y0079338D01*
X0040762Y0079234D01*
X0040613Y0079127D01*
X0040467Y0079016D01*
X0040324Y0078902D01*
X0040184Y0078784D01*
X0040047Y0078663D01*
X0039912Y0078539D01*
X0039781Y0078411D01*
X0039652Y0078280D01*
X0039527Y0078146D01*
X0039406Y0078010D01*
X0039287Y0077870D01*
X0039172Y0077727D01*
X0039061Y0077582D01*
X0038953Y0077434D01*
X0038849Y0077283D01*
X0038748Y0077130D01*
X0038651Y0076975D01*
X0038558Y0076817D01*
X0038469Y0076657D01*
X0037675Y0077080D01*
X0037775Y0077260D01*
X0037879Y0077437D01*
X0037987Y0077611D01*
X0038100Y0077783D01*
X0038217Y0077951D01*
X0038338Y0078117D01*
X0038462Y0078280D01*
X0038591Y0078440D01*
X0038724Y0078597D01*
X0038860Y0078750D01*
X0039000Y0078900D01*
X0039144Y0079047D01*
X0039291Y0079190D01*
X0039442Y0079330D01*
X0039596Y0079465D01*
X0039753Y0079597D01*
X0039913Y0079725D01*
X0040077Y0079850D01*
X0040243Y0079970D01*
X0040413Y0080086D01*
X0040585Y0080198D01*
X0040759Y0080306D01*
X0040937Y0080409D01*
X0041116Y0080508D01*
X0041299Y0080603D01*
X0041483Y0080693D01*
X0041669Y0080779D01*
X0041858Y0080860D01*
X0042048Y0080937D01*
X0042241Y0081009D01*
X0042435Y0081076D01*
X0042630Y0081139D01*
X0042827Y0081197D01*
X0043025Y0081250D01*
X0043225Y0081298D01*
X0043426Y0081341D01*
X0043627Y0081379D01*
X0043830Y0081413D01*
X0044033Y0081441D01*
X0044237Y0081465D01*
X0044442Y0081484D01*
X0044646Y0081497D01*
X0044851Y0081506D01*
X0045057Y0081510D01*
X0045057Y0081416D01*
X0044854Y0081412D01*
X0044651Y0081404D01*
X0044448Y0081390D01*
X0044246Y0081372D01*
X0044045Y0081348D01*
X0043844Y0081320D01*
X0043643Y0081287D01*
X0043444Y0081249D01*
X0043246Y0081206D01*
X0043048Y0081158D01*
X0042852Y0081106D01*
X0042657Y0081049D01*
X0042464Y0080987D01*
X0042272Y0080920D01*
X0042082Y0080849D01*
X0041894Y0080774D01*
X0041708Y0080693D01*
X0041523Y0080608D01*
X0041341Y0080519D01*
X0041161Y0080425D01*
X0040983Y0080327D01*
X0040808Y0080225D01*
X0040635Y0080119D01*
X0040465Y0080008D01*
X0040297Y0079893D01*
X0040133Y0079774D01*
X0039971Y0079651D01*
X0039813Y0079525D01*
X0039657Y0079394D01*
X0039505Y0079260D01*
X0039356Y0079122D01*
X0039210Y0078981D01*
X0039068Y0078836D01*
X0038930Y0078687D01*
X0038795Y0078536D01*
X0038664Y0078381D01*
X0038537Y0078223D01*
X0038413Y0078061D01*
X0038294Y0077897D01*
X0038178Y0077730D01*
X0038067Y0077561D01*
X0037959Y0077388D01*
X0037856Y0077213D01*
X0037758Y0077036D01*
X0037841Y0076992D01*
X0037938Y0077167D01*
X0038040Y0077340D01*
X0038146Y0077510D01*
X0038256Y0077678D01*
X0038370Y0077843D01*
X0038489Y0078005D01*
X0038611Y0078165D01*
X0038737Y0078321D01*
X0038866Y0078474D01*
X0039000Y0078624D01*
X0039136Y0078771D01*
X0039277Y0078914D01*
X0039421Y0079054D01*
X0039568Y0079190D01*
X0039719Y0079323D01*
X0039872Y0079452D01*
X0040029Y0079577D01*
X0040189Y0079699D01*
X0040352Y0079816D01*
X0040517Y0079930D01*
X0040685Y0080039D01*
X0040856Y0080145D01*
X0041029Y0080246D01*
X0041205Y0080343D01*
X0041383Y0080435D01*
X0041563Y0080523D01*
X0041746Y0080607D01*
X0041930Y0080687D01*
X0042116Y0080762D01*
X0042304Y0080832D01*
X0042494Y0080898D01*
X0042685Y0080959D01*
X0042877Y0081015D01*
X0043071Y0081067D01*
X0043266Y0081114D01*
X0043462Y0081157D01*
X0043660Y0081194D01*
X0043858Y0081227D01*
X0044056Y0081255D01*
X0044256Y0081278D01*
X0044455Y0081296D01*
X0044656Y0081310D01*
X0044856Y0081318D01*
X0045057Y0081322D01*
X0045057Y0081228D01*
X0044858Y0081224D01*
X0044660Y0081216D01*
X0044462Y0081203D01*
X0044265Y0081184D01*
X0044068Y0081162D01*
X0043871Y0081134D01*
X0043676Y0081102D01*
X0043481Y0081064D01*
X0043287Y0081023D01*
X0043094Y0080976D01*
X0042902Y0080925D01*
X0042712Y0080869D01*
X0042523Y0080809D01*
X0042336Y0080744D01*
X0042150Y0080674D01*
X0041966Y0080600D01*
X0041784Y0080521D01*
X0041604Y0080438D01*
X0041425Y0080351D01*
X0041249Y0080260D01*
X0041076Y0080164D01*
X0040904Y0080064D01*
X0040736Y0079960D01*
X0040569Y0079852D01*
X0040406Y0079739D01*
X0040245Y0079623D01*
X0040087Y0079503D01*
X0039932Y0079379D01*
X0039780Y0079252D01*
X0039631Y0079121D01*
X0039486Y0078986D01*
X0039343Y0078848D01*
X0039205Y0078706D01*
X0039069Y0078561D01*
X0038937Y0078413D01*
X0038809Y0078261D01*
X0038685Y0078107D01*
X0038564Y0077950D01*
X0038447Y0077789D01*
X0038334Y0077626D01*
X0038226Y0077460D01*
X0038121Y0077292D01*
X0038020Y0077121D01*
X0037924Y0076948D01*
X0038006Y0076903D01*
X0038102Y0077075D01*
X0038201Y0077244D01*
X0038305Y0077410D01*
X0038413Y0077574D01*
X0038524Y0077735D01*
X0038640Y0077894D01*
X0038759Y0078049D01*
X0038882Y0078202D01*
X0039009Y0078351D01*
X0039139Y0078498D01*
X0039273Y0078641D01*
X0039410Y0078781D01*
X0039551Y0078918D01*
X0039694Y0079051D01*
X0039841Y0079181D01*
X0039992Y0079307D01*
X0040145Y0079429D01*
X0040301Y0079548D01*
X0040460Y0079663D01*
X0040622Y0079773D01*
X0040786Y0079880D01*
X0040953Y0079983D01*
X0041122Y0080082D01*
X0041294Y0080177D01*
X0041468Y0080267D01*
X0041644Y0080354D01*
X0041822Y0080435D01*
X0042002Y0080513D01*
X0042184Y0080586D01*
X0042367Y0080655D01*
X0042553Y0080719D01*
X0042739Y0080779D01*
X0042927Y0080834D01*
X0043117Y0080885D01*
X0043307Y0080931D01*
X0043499Y0080972D01*
X0043692Y0081009D01*
X0043885Y0081041D01*
X0044079Y0081068D01*
X0044274Y0081091D01*
X0044469Y0081109D01*
X0044665Y0081122D01*
X0044861Y0081130D01*
X0045057Y0081134D01*
X0045057Y0081040D01*
X0044863Y0081036D01*
X0044669Y0081028D01*
X0044476Y0081015D01*
X0044283Y0080997D01*
X0044091Y0080975D01*
X0043899Y0080948D01*
X0043708Y0080916D01*
X0043517Y0080880D01*
X0043328Y0080839D01*
X0043140Y0080794D01*
X0042953Y0080744D01*
X0042767Y0080689D01*
X0042582Y0080630D01*
X0042399Y0080567D01*
X0042218Y0080499D01*
X0042038Y0080426D01*
X0041860Y0080350D01*
X0041684Y0080269D01*
X0041510Y0080183D01*
X0041338Y0080094D01*
X0041168Y0080000D01*
X0041001Y0079903D01*
X0040836Y0079801D01*
X0040674Y0079695D01*
X0040514Y0079586D01*
X0040357Y0079472D01*
X0040203Y0079355D01*
X0040051Y0079234D01*
X0039903Y0079110D01*
X0039758Y0078982D01*
X0039615Y0078850D01*
X0039476Y0078715D01*
X0039341Y0078577D01*
X0039209Y0078435D01*
X0039080Y0078290D01*
X0038955Y0078142D01*
X0038833Y0077991D01*
X0038715Y0077838D01*
X0038601Y0077681D01*
X0038491Y0077522D01*
X0038385Y0077360D01*
X0038282Y0077195D01*
X0038184Y0077028D01*
X0038089Y0076859D01*
X0038172Y0076815D01*
X0038266Y0076982D01*
X0038363Y0077147D01*
X0038464Y0077310D01*
X0038569Y0077470D01*
X0038678Y0077627D01*
X0038791Y0077782D01*
X0038907Y0077934D01*
X0039027Y0078083D01*
X0039151Y0078229D01*
X0039278Y0078372D01*
X0039409Y0078512D01*
X0039543Y0078648D01*
X0039680Y0078782D01*
X0039821Y0078912D01*
X0039964Y0079039D01*
X0040111Y0079162D01*
X0040261Y0079281D01*
X0040413Y0079397D01*
X0040568Y0079509D01*
X0040726Y0079617D01*
X0040887Y0079722D01*
X0041050Y0079822D01*
X0041215Y0079919D01*
X0041382Y0080011D01*
X0041552Y0080099D01*
X0041724Y0080184D01*
X0041898Y0080264D01*
X0042074Y0080339D01*
X0042252Y0080411D01*
X0042431Y0080478D01*
X0042612Y0080541D01*
X0042794Y0080599D01*
X0042978Y0080653D01*
X0043163Y0080703D01*
X0043349Y0080747D01*
X0043536Y0080788D01*
X0043724Y0080824D01*
X0043913Y0080855D01*
X0044102Y0080882D01*
X0044292Y0080904D01*
X0044483Y0080921D01*
X0044674Y0080934D01*
X0044865Y0080942D01*
X0045057Y0080946D01*
X0045057Y0080852D01*
X0044868Y0080848D01*
X0044679Y0080840D01*
X0044490Y0080828D01*
X0044302Y0080810D01*
X0044114Y0080788D01*
X0043927Y0080762D01*
X0043740Y0080731D01*
X0043554Y0080696D01*
X0043369Y0080656D01*
X0043185Y0080611D01*
X0043003Y0080562D01*
X0042821Y0080509D01*
X0042641Y0080452D01*
X0042463Y0080390D01*
X0042285Y0080323D01*
X0042110Y0080253D01*
X0041936Y0080178D01*
X0041764Y0080099D01*
X0041595Y0080015D01*
X0041427Y0079928D01*
X0041261Y0079837D01*
X0041098Y0079741D01*
X0040937Y0079642D01*
X0040778Y0079539D01*
X0040622Y0079432D01*
X0040469Y0079321D01*
X0040318Y0079207D01*
X0040171Y0079089D01*
X0040026Y0078967D01*
X0039884Y0078842D01*
X0039745Y0078714D01*
X0039610Y0078582D01*
X0039477Y0078447D01*
X0039348Y0078309D01*
X0039222Y0078167D01*
X0039100Y0078023D01*
X0038981Y0077876D01*
X0038866Y0077726D01*
X0038755Y0077573D01*
X0038647Y0077417D01*
X0038543Y0077259D01*
X0038443Y0077099D01*
X0038347Y0076936D01*
X0038255Y0076771D01*
X0038338Y0076726D01*
X0038429Y0076890D01*
X0038524Y0077051D01*
X0038623Y0077209D01*
X0038725Y0077365D01*
X0038832Y0077519D01*
X0038942Y0077670D01*
X0039056Y0077818D01*
X0039173Y0077964D01*
X0039294Y0078106D01*
X0039418Y0078246D01*
X0039545Y0078382D01*
X0039676Y0078516D01*
X0039810Y0078646D01*
X0039947Y0078773D01*
X0040087Y0078896D01*
X0040230Y0079016D01*
X0040376Y0079133D01*
X0040525Y0079246D01*
X0040677Y0079355D01*
X0040831Y0079461D01*
X0040987Y0079563D01*
X0041146Y0079661D01*
X0041308Y0079755D01*
X0041471Y0079845D01*
X0041637Y0079932D01*
X0041805Y0080014D01*
X0041974Y0080092D01*
X0042146Y0080166D01*
X0042319Y0080235D01*
X0042494Y0080301D01*
X0042671Y0080362D01*
X0042849Y0080419D01*
X0043028Y0080472D01*
X0043208Y0080520D01*
X0043390Y0080564D01*
X0043573Y0080604D01*
X0043756Y0080639D01*
X0043940Y0080669D01*
X0044125Y0080695D01*
X0044311Y0080717D01*
X0044497Y0080734D01*
X0044683Y0080746D01*
X0044870Y0080754D01*
X0045057Y0080758D01*
X0045057Y0080664D01*
X0044872Y0080660D01*
X0044688Y0080652D01*
X0044504Y0080640D01*
X0044320Y0080623D01*
X0044137Y0080602D01*
X0043954Y0080576D01*
X0043772Y0080546D01*
X0043591Y0080511D01*
X0043411Y0080472D01*
X0043231Y0080429D01*
X0043053Y0080381D01*
X0042876Y0080329D01*
X0042700Y0080273D01*
X0042526Y0080213D01*
X0042353Y0080148D01*
X0042182Y0080079D01*
X0042013Y0080006D01*
X0041845Y0079929D01*
X0041679Y0079848D01*
X0041516Y0079762D01*
X0041354Y0079673D01*
X0041195Y0079580D01*
X0041038Y0079483D01*
X0040883Y0079383D01*
X0040731Y0079278D01*
X0040581Y0079170D01*
X0040434Y0079059D01*
X0040290Y0078944D01*
X0040149Y0078825D01*
X0040010Y0078703D01*
X0039875Y0078578D01*
X0039743Y0078449D01*
X0039613Y0078317D01*
X0039487Y0078183D01*
X0039365Y0078045D01*
X0039246Y0077904D01*
X0039130Y0077760D01*
X0039017Y0077614D01*
X0038909Y0077465D01*
X0038804Y0077313D01*
X0038702Y0077159D01*
X0038605Y0077002D01*
X0038511Y0076843D01*
X0038421Y0076682D01*
X0051566Y0078508D02*
X0050874Y0077931D01*
X0050875Y0077932D02*
X0050756Y0078069D01*
X0050635Y0078203D01*
X0050510Y0078334D01*
X0050382Y0078462D01*
X0050251Y0078586D01*
X0050117Y0078708D01*
X0049980Y0078827D01*
X0049841Y0078942D01*
X0049698Y0079053D01*
X0049553Y0079162D01*
X0049406Y0079267D01*
X0049256Y0079368D01*
X0049104Y0079465D01*
X0048949Y0079559D01*
X0048792Y0079650D01*
X0048633Y0079736D01*
X0048472Y0079819D01*
X0048309Y0079897D01*
X0048144Y0079972D01*
X0047978Y0080043D01*
X0047810Y0080110D01*
X0047640Y0080172D01*
X0047469Y0080231D01*
X0047296Y0080286D01*
X0047123Y0080336D01*
X0046948Y0080382D01*
X0046772Y0080424D01*
X0046595Y0080462D01*
X0046417Y0080495D01*
X0046238Y0080525D01*
X0046059Y0080550D01*
X0045879Y0080570D01*
X0045699Y0080587D01*
X0045519Y0080599D01*
X0045338Y0080606D01*
X0045157Y0080610D01*
X0045156Y0081509D01*
X0045157Y0081510D01*
X0045360Y0081506D01*
X0045562Y0081498D01*
X0045765Y0081484D01*
X0045967Y0081466D01*
X0046168Y0081443D01*
X0046369Y0081415D01*
X0046569Y0081382D01*
X0046769Y0081345D01*
X0046967Y0081303D01*
X0047165Y0081256D01*
X0047361Y0081204D01*
X0047555Y0081147D01*
X0047749Y0081086D01*
X0047941Y0081021D01*
X0048131Y0080950D01*
X0048320Y0080875D01*
X0048506Y0080796D01*
X0048691Y0080712D01*
X0048874Y0080624D01*
X0049054Y0080531D01*
X0049232Y0080435D01*
X0049408Y0080333D01*
X0049581Y0080228D01*
X0049752Y0080119D01*
X0049920Y0080005D01*
X0050086Y0079888D01*
X0050248Y0079766D01*
X0050408Y0079641D01*
X0050564Y0079512D01*
X0050717Y0079379D01*
X0050867Y0079242D01*
X0051014Y0079102D01*
X0051157Y0078959D01*
X0051297Y0078812D01*
X0051434Y0078662D01*
X0051566Y0078508D01*
X0051494Y0078448D01*
X0051363Y0078600D01*
X0051228Y0078748D01*
X0051090Y0078893D01*
X0050948Y0079035D01*
X0050803Y0079174D01*
X0050655Y0079309D01*
X0050503Y0079440D01*
X0050348Y0079568D01*
X0050191Y0079692D01*
X0050030Y0079812D01*
X0049867Y0079928D01*
X0049700Y0080040D01*
X0049532Y0080148D01*
X0049360Y0080253D01*
X0049186Y0080353D01*
X0049010Y0080448D01*
X0048832Y0080540D01*
X0048651Y0080627D01*
X0048468Y0080710D01*
X0048284Y0080789D01*
X0048098Y0080863D01*
X0047909Y0080932D01*
X0047720Y0080997D01*
X0047528Y0081057D01*
X0047336Y0081113D01*
X0047142Y0081164D01*
X0046947Y0081211D01*
X0046751Y0081253D01*
X0046554Y0081290D01*
X0046356Y0081322D01*
X0046157Y0081350D01*
X0045958Y0081373D01*
X0045758Y0081391D01*
X0045558Y0081404D01*
X0045357Y0081412D01*
X0045157Y0081416D01*
X0045157Y0081322D01*
X0045355Y0081318D01*
X0045553Y0081310D01*
X0045751Y0081297D01*
X0045949Y0081279D01*
X0046146Y0081256D01*
X0046342Y0081229D01*
X0046538Y0081197D01*
X0046732Y0081161D01*
X0046926Y0081119D01*
X0047119Y0081073D01*
X0047311Y0081023D01*
X0047501Y0080967D01*
X0047690Y0080908D01*
X0047878Y0080843D01*
X0048064Y0080775D01*
X0048248Y0080702D01*
X0048431Y0080624D01*
X0048611Y0080542D01*
X0048790Y0080456D01*
X0048966Y0080365D01*
X0049140Y0080271D01*
X0049312Y0080172D01*
X0049482Y0080069D01*
X0049649Y0079962D01*
X0049813Y0079851D01*
X0049974Y0079736D01*
X0050133Y0079617D01*
X0050289Y0079495D01*
X0050442Y0079369D01*
X0050592Y0079239D01*
X0050739Y0079105D01*
X0050882Y0078968D01*
X0051022Y0078828D01*
X0051159Y0078685D01*
X0051292Y0078538D01*
X0051422Y0078388D01*
X0051350Y0078328D01*
X0051221Y0078476D01*
X0051090Y0078621D01*
X0050955Y0078763D01*
X0050816Y0078901D01*
X0050674Y0079037D01*
X0050529Y0079169D01*
X0050381Y0079297D01*
X0050230Y0079422D01*
X0050076Y0079543D01*
X0049919Y0079660D01*
X0049759Y0079774D01*
X0049597Y0079883D01*
X0049432Y0079989D01*
X0049264Y0080091D01*
X0049094Y0080189D01*
X0048922Y0080282D01*
X0048748Y0080372D01*
X0048571Y0080457D01*
X0048393Y0080538D01*
X0048213Y0080615D01*
X0048030Y0080687D01*
X0047847Y0080755D01*
X0047661Y0080818D01*
X0047474Y0080877D01*
X0047286Y0080932D01*
X0047097Y0080982D01*
X0046906Y0081027D01*
X0046714Y0081068D01*
X0046522Y0081105D01*
X0046328Y0081136D01*
X0046134Y0081163D01*
X0045939Y0081185D01*
X0045744Y0081203D01*
X0045549Y0081216D01*
X0045353Y0081224D01*
X0045157Y0081228D01*
X0045157Y0081134D01*
X0045351Y0081130D01*
X0045544Y0081122D01*
X0045737Y0081109D01*
X0045930Y0081092D01*
X0046123Y0081070D01*
X0046315Y0081043D01*
X0046506Y0081012D01*
X0046696Y0080976D01*
X0046886Y0080936D01*
X0047074Y0080891D01*
X0047261Y0080841D01*
X0047447Y0080787D01*
X0047632Y0080729D01*
X0047815Y0080666D01*
X0047997Y0080599D01*
X0048177Y0080528D01*
X0048355Y0080452D01*
X0048532Y0080372D01*
X0048706Y0080288D01*
X0048878Y0080199D01*
X0049048Y0080107D01*
X0049216Y0080010D01*
X0049382Y0079909D01*
X0049545Y0079805D01*
X0049705Y0079697D01*
X0049863Y0079584D01*
X0050018Y0079468D01*
X0050171Y0079349D01*
X0050320Y0079225D01*
X0050467Y0079099D01*
X0050610Y0078968D01*
X0050750Y0078835D01*
X0050887Y0078698D01*
X0051020Y0078557D01*
X0051151Y0078414D01*
X0051277Y0078267D01*
X0051205Y0078207D01*
X0051080Y0078352D01*
X0050951Y0078494D01*
X0050819Y0078632D01*
X0050684Y0078768D01*
X0050545Y0078900D01*
X0050404Y0079029D01*
X0050259Y0079154D01*
X0050112Y0079276D01*
X0049961Y0079394D01*
X0049808Y0079509D01*
X0049652Y0079619D01*
X0049493Y0079727D01*
X0049332Y0079830D01*
X0049168Y0079929D01*
X0049002Y0080025D01*
X0048834Y0080116D01*
X0048664Y0080203D01*
X0048492Y0080287D01*
X0048317Y0080366D01*
X0048141Y0080441D01*
X0047963Y0080511D01*
X0047784Y0080578D01*
X0047603Y0080640D01*
X0047420Y0080697D01*
X0047236Y0080751D01*
X0047051Y0080800D01*
X0046865Y0080844D01*
X0046678Y0080884D01*
X0046490Y0080919D01*
X0046301Y0080950D01*
X0046111Y0080977D01*
X0045921Y0080998D01*
X0045731Y0081016D01*
X0045540Y0081028D01*
X0045348Y0081036D01*
X0045157Y0081040D01*
X0045157Y0080946D01*
X0045346Y0080942D01*
X0045535Y0080934D01*
X0045724Y0080922D01*
X0045912Y0080905D01*
X0046100Y0080883D01*
X0046287Y0080857D01*
X0046474Y0080827D01*
X0046660Y0080792D01*
X0046845Y0080752D01*
X0047029Y0080708D01*
X0047211Y0080660D01*
X0047393Y0080607D01*
X0047573Y0080550D01*
X0047752Y0080489D01*
X0047930Y0080423D01*
X0048106Y0080354D01*
X0048280Y0080280D01*
X0048452Y0080202D01*
X0048622Y0080119D01*
X0048790Y0080033D01*
X0048956Y0079943D01*
X0049120Y0079848D01*
X0049282Y0079750D01*
X0049441Y0079648D01*
X0049598Y0079542D01*
X0049752Y0079433D01*
X0049904Y0079319D01*
X0050052Y0079203D01*
X0050198Y0079082D01*
X0050341Y0078959D01*
X0050481Y0078831D01*
X0050618Y0078701D01*
X0050752Y0078567D01*
X0050882Y0078430D01*
X0051009Y0078290D01*
X0051133Y0078147D01*
X0051061Y0078087D01*
X0050938Y0078228D01*
X0050813Y0078366D01*
X0050684Y0078502D01*
X0050552Y0078634D01*
X0050417Y0078763D01*
X0050278Y0078888D01*
X0050137Y0079011D01*
X0049993Y0079130D01*
X0049846Y0079245D01*
X0049697Y0079357D01*
X0049544Y0079465D01*
X0049389Y0079570D01*
X0049232Y0079670D01*
X0049072Y0079767D01*
X0048911Y0079861D01*
X0048746Y0079950D01*
X0048580Y0080035D01*
X0048412Y0080116D01*
X0048242Y0080194D01*
X0048070Y0080267D01*
X0047896Y0080336D01*
X0047721Y0080400D01*
X0047544Y0080461D01*
X0047366Y0080517D01*
X0047187Y0080569D01*
X0047006Y0080617D01*
X0046824Y0080660D01*
X0046642Y0080699D01*
X0046458Y0080734D01*
X0046274Y0080764D01*
X0046089Y0080790D01*
X0045903Y0080811D01*
X0045717Y0080828D01*
X0045530Y0080840D01*
X0045344Y0080848D01*
X0045157Y0080852D01*
X0045157Y0080758D01*
X0045341Y0080754D01*
X0045526Y0080747D01*
X0045710Y0080734D01*
X0045894Y0080718D01*
X0046077Y0080697D01*
X0046260Y0080671D01*
X0046442Y0080641D01*
X0046623Y0080607D01*
X0046804Y0080569D01*
X0046983Y0080526D01*
X0047162Y0080479D01*
X0047339Y0080427D01*
X0047515Y0080372D01*
X0047690Y0080312D01*
X0047863Y0080248D01*
X0048034Y0080180D01*
X0048204Y0080108D01*
X0048372Y0080031D01*
X0048538Y0079951D01*
X0048702Y0079867D01*
X0048865Y0079779D01*
X0049025Y0079687D01*
X0049182Y0079591D01*
X0049338Y0079491D01*
X0049491Y0079388D01*
X0049641Y0079281D01*
X0049789Y0079171D01*
X0049934Y0079057D01*
X0050076Y0078939D01*
X0050216Y0078818D01*
X0050352Y0078694D01*
X0050486Y0078567D01*
X0050616Y0078436D01*
X0050744Y0078303D01*
X0050868Y0078166D01*
X0050988Y0078027D01*
X0050916Y0077966D01*
X0050797Y0078104D01*
X0050674Y0078239D01*
X0050549Y0078371D01*
X0050420Y0078500D01*
X0050288Y0078626D01*
X0050153Y0078748D01*
X0050015Y0078868D01*
X0049875Y0078984D01*
X0049731Y0079096D01*
X0049585Y0079205D01*
X0049437Y0079311D01*
X0049286Y0079413D01*
X0049132Y0079511D01*
X0048977Y0079606D01*
X0048819Y0079697D01*
X0048658Y0079784D01*
X0048496Y0079867D01*
X0048332Y0079946D01*
X0048166Y0080021D01*
X0047998Y0080093D01*
X0047829Y0080160D01*
X0047658Y0080223D01*
X0047486Y0080282D01*
X0047312Y0080337D01*
X0047137Y0080388D01*
X0046961Y0080435D01*
X0046783Y0080477D01*
X0046605Y0080515D01*
X0046426Y0080549D01*
X0046246Y0080578D01*
X0046066Y0080603D01*
X0045885Y0080624D01*
X0045703Y0080641D01*
X0045521Y0080653D01*
X0045339Y0080660D01*
X0045157Y0080664D01*
X0045156Y0064611D02*
X0045156Y0065511D01*
X0045157Y0065510D02*
X0045341Y0065514D01*
X0045526Y0065522D01*
X0045710Y0065534D01*
X0045893Y0065551D01*
X0046077Y0065573D01*
X0046259Y0065598D01*
X0046441Y0065629D01*
X0046622Y0065664D01*
X0046803Y0065703D01*
X0046982Y0065747D01*
X0047160Y0065795D01*
X0047337Y0065847D01*
X0047513Y0065904D01*
X0047687Y0065964D01*
X0047859Y0066030D01*
X0048030Y0066099D01*
X0048200Y0066172D01*
X0048367Y0066250D01*
X0048532Y0066332D01*
X0048696Y0066417D01*
X0048857Y0066507D01*
X0049016Y0066601D01*
X0049173Y0066698D01*
X0049327Y0066799D01*
X0049479Y0066904D01*
X0049628Y0067013D01*
X0049774Y0067125D01*
X0049918Y0067241D01*
X0050058Y0067360D01*
X0050196Y0067483D01*
X0050331Y0067609D01*
X0050463Y0067738D01*
X0050591Y0067871D01*
X0050716Y0068006D01*
X0050838Y0068145D01*
X0051525Y0067564D01*
X0051389Y0067408D01*
X0051248Y0067256D01*
X0051104Y0067107D01*
X0050957Y0066962D01*
X0050806Y0066821D01*
X0050652Y0066684D01*
X0050494Y0066550D01*
X0050333Y0066420D01*
X0050169Y0066294D01*
X0050002Y0066172D01*
X0049832Y0066054D01*
X0049659Y0065941D01*
X0049483Y0065832D01*
X0049305Y0065727D01*
X0049124Y0065626D01*
X0048941Y0065530D01*
X0048756Y0065438D01*
X0048568Y0065351D01*
X0048378Y0065269D01*
X0048187Y0065191D01*
X0047993Y0065118D01*
X0047798Y0065050D01*
X0047601Y0064986D01*
X0047403Y0064928D01*
X0047203Y0064874D01*
X0047002Y0064825D01*
X0046800Y0064781D01*
X0046597Y0064742D01*
X0046393Y0064708D01*
X0046188Y0064679D01*
X0045983Y0064655D01*
X0045777Y0064637D01*
X0045570Y0064623D01*
X0045364Y0064614D01*
X0045157Y0064610D01*
X0045157Y0064704D01*
X0045361Y0064708D01*
X0045566Y0064717D01*
X0045770Y0064730D01*
X0045973Y0064749D01*
X0046176Y0064773D01*
X0046379Y0064801D01*
X0046581Y0064835D01*
X0046781Y0064873D01*
X0046981Y0064917D01*
X0047180Y0064965D01*
X0047377Y0065018D01*
X0047574Y0065076D01*
X0047768Y0065139D01*
X0047961Y0065207D01*
X0048153Y0065279D01*
X0048342Y0065356D01*
X0048530Y0065437D01*
X0048715Y0065523D01*
X0048898Y0065614D01*
X0049080Y0065709D01*
X0049258Y0065808D01*
X0049434Y0065912D01*
X0049608Y0066020D01*
X0049779Y0066132D01*
X0049947Y0066249D01*
X0050112Y0066369D01*
X0050275Y0066494D01*
X0050434Y0066622D01*
X0050590Y0066754D01*
X0050742Y0066890D01*
X0050892Y0067030D01*
X0051037Y0067173D01*
X0051180Y0067320D01*
X0051318Y0067471D01*
X0051453Y0067624D01*
X0051382Y0067685D01*
X0051248Y0067533D01*
X0051111Y0067384D01*
X0050970Y0067239D01*
X0050826Y0067098D01*
X0050679Y0066959D01*
X0050528Y0066825D01*
X0050374Y0066694D01*
X0050216Y0066567D01*
X0050056Y0066444D01*
X0049892Y0066325D01*
X0049726Y0066210D01*
X0049557Y0066099D01*
X0049386Y0065992D01*
X0049211Y0065890D01*
X0049035Y0065791D01*
X0048856Y0065697D01*
X0048674Y0065608D01*
X0048491Y0065523D01*
X0048306Y0065442D01*
X0048118Y0065366D01*
X0047929Y0065295D01*
X0047738Y0065228D01*
X0047546Y0065166D01*
X0047352Y0065109D01*
X0047157Y0065056D01*
X0046960Y0065009D01*
X0046763Y0064966D01*
X0046564Y0064928D01*
X0046365Y0064894D01*
X0046165Y0064866D01*
X0045964Y0064843D01*
X0045763Y0064824D01*
X0045561Y0064810D01*
X0045359Y0064802D01*
X0045157Y0064798D01*
X0045157Y0064892D01*
X0045357Y0064896D01*
X0045556Y0064904D01*
X0045756Y0064918D01*
X0045955Y0064936D01*
X0046153Y0064959D01*
X0046351Y0064987D01*
X0046548Y0065020D01*
X0046744Y0065058D01*
X0046940Y0065100D01*
X0047134Y0065147D01*
X0047327Y0065199D01*
X0047518Y0065256D01*
X0047709Y0065317D01*
X0047897Y0065383D01*
X0048084Y0065454D01*
X0048269Y0065529D01*
X0048453Y0065609D01*
X0048634Y0065693D01*
X0048813Y0065781D01*
X0048990Y0065874D01*
X0049165Y0065971D01*
X0049337Y0066073D01*
X0049506Y0066178D01*
X0049674Y0066288D01*
X0049838Y0066402D01*
X0049999Y0066519D01*
X0050158Y0066641D01*
X0050313Y0066766D01*
X0050466Y0066896D01*
X0050615Y0067029D01*
X0050761Y0067165D01*
X0050903Y0067305D01*
X0051042Y0067449D01*
X0051178Y0067596D01*
X0051310Y0067746D01*
X0051238Y0067806D01*
X0051108Y0067658D01*
X0050974Y0067513D01*
X0050836Y0067371D01*
X0050695Y0067233D01*
X0050551Y0067098D01*
X0050404Y0066966D01*
X0050253Y0066839D01*
X0050099Y0066715D01*
X0049943Y0066594D01*
X0049783Y0066478D01*
X0049621Y0066366D01*
X0049456Y0066257D01*
X0049288Y0066153D01*
X0049118Y0066053D01*
X0048945Y0065957D01*
X0048770Y0065865D01*
X0048593Y0065777D01*
X0048414Y0065694D01*
X0048233Y0065616D01*
X0048050Y0065541D01*
X0047865Y0065472D01*
X0047679Y0065407D01*
X0047491Y0065346D01*
X0047301Y0065290D01*
X0047111Y0065239D01*
X0046919Y0065192D01*
X0046726Y0065150D01*
X0046532Y0065113D01*
X0046337Y0065080D01*
X0046141Y0065053D01*
X0045945Y0065030D01*
X0045749Y0065012D01*
X0045552Y0064998D01*
X0045354Y0064990D01*
X0045157Y0064986D01*
X0045157Y0065080D01*
X0045352Y0065084D01*
X0045547Y0065092D01*
X0045742Y0065105D01*
X0045936Y0065123D01*
X0046130Y0065146D01*
X0046323Y0065173D01*
X0046516Y0065205D01*
X0046707Y0065242D01*
X0046898Y0065284D01*
X0047088Y0065330D01*
X0047276Y0065380D01*
X0047463Y0065436D01*
X0047649Y0065496D01*
X0047833Y0065560D01*
X0048016Y0065629D01*
X0048197Y0065702D01*
X0048376Y0065780D01*
X0048553Y0065862D01*
X0048728Y0065949D01*
X0048900Y0066039D01*
X0049071Y0066134D01*
X0049239Y0066233D01*
X0049405Y0066336D01*
X0049568Y0066443D01*
X0049729Y0066554D01*
X0049886Y0066669D01*
X0050041Y0066788D01*
X0050193Y0066911D01*
X0050342Y0067037D01*
X0050488Y0067167D01*
X0050630Y0067300D01*
X0050769Y0067437D01*
X0050905Y0067577D01*
X0051037Y0067721D01*
X0051166Y0067867D01*
X0051094Y0067928D01*
X0050967Y0067783D01*
X0050836Y0067641D01*
X0050702Y0067503D01*
X0050565Y0067368D01*
X0050424Y0067236D01*
X0050280Y0067108D01*
X0050133Y0066983D01*
X0049983Y0066862D01*
X0049830Y0066745D01*
X0049674Y0066631D01*
X0049515Y0066521D01*
X0049354Y0066415D01*
X0049190Y0066314D01*
X0049024Y0066216D01*
X0048856Y0066122D01*
X0048685Y0066032D01*
X0048512Y0065947D01*
X0048337Y0065866D01*
X0048160Y0065789D01*
X0047982Y0065717D01*
X0047801Y0065648D01*
X0047619Y0065585D01*
X0047436Y0065526D01*
X0047251Y0065471D01*
X0047065Y0065421D01*
X0046877Y0065375D01*
X0046689Y0065334D01*
X0046499Y0065298D01*
X0046309Y0065266D01*
X0046118Y0065239D01*
X0045927Y0065217D01*
X0045735Y0065199D01*
X0045542Y0065186D01*
X0045350Y0065178D01*
X0045157Y0065174D01*
X0045157Y0065268D01*
X0045347Y0065272D01*
X0045538Y0065280D01*
X0045728Y0065293D01*
X0045917Y0065310D01*
X0046107Y0065332D01*
X0046295Y0065359D01*
X0046483Y0065390D01*
X0046670Y0065426D01*
X0046856Y0065467D01*
X0047041Y0065512D01*
X0047225Y0065561D01*
X0047408Y0065616D01*
X0047589Y0065674D01*
X0047769Y0065737D01*
X0047947Y0065804D01*
X0048124Y0065876D01*
X0048299Y0065952D01*
X0048471Y0066032D01*
X0048642Y0066116D01*
X0048811Y0066205D01*
X0048977Y0066297D01*
X0049142Y0066394D01*
X0049303Y0066494D01*
X0049463Y0066599D01*
X0049619Y0066707D01*
X0049773Y0066820D01*
X0049924Y0066936D01*
X0050073Y0067055D01*
X0050218Y0067178D01*
X0050360Y0067305D01*
X0050499Y0067435D01*
X0050635Y0067569D01*
X0050768Y0067705D01*
X0050897Y0067845D01*
X0051023Y0067989D01*
X0050951Y0068049D01*
X0050827Y0067908D01*
X0050699Y0067770D01*
X0050568Y0067635D01*
X0050434Y0067503D01*
X0050297Y0067374D01*
X0050156Y0067249D01*
X0050012Y0067127D01*
X0049866Y0067009D01*
X0049717Y0066895D01*
X0049565Y0066784D01*
X0049410Y0066677D01*
X0049253Y0066574D01*
X0049093Y0066474D01*
X0048931Y0066379D01*
X0048766Y0066287D01*
X0048600Y0066200D01*
X0048431Y0066117D01*
X0048260Y0066037D01*
X0048088Y0065962D01*
X0047913Y0065892D01*
X0047737Y0065825D01*
X0047560Y0065763D01*
X0047380Y0065705D01*
X0047200Y0065652D01*
X0047018Y0065603D01*
X0046836Y0065559D01*
X0046652Y0065519D01*
X0046467Y0065483D01*
X0046281Y0065452D01*
X0046095Y0065426D01*
X0045908Y0065404D01*
X0045721Y0065387D01*
X0045533Y0065374D01*
X0045345Y0065366D01*
X0045157Y0065362D01*
X0045157Y0065456D01*
X0045343Y0065460D01*
X0045528Y0065468D01*
X0045714Y0065480D01*
X0045899Y0065497D01*
X0046083Y0065519D01*
X0046267Y0065545D01*
X0046451Y0065576D01*
X0046633Y0065611D01*
X0046815Y0065650D01*
X0046995Y0065694D01*
X0047175Y0065743D01*
X0047353Y0065795D01*
X0047530Y0065852D01*
X0047705Y0065914D01*
X0047879Y0065979D01*
X0048051Y0066049D01*
X0048222Y0066123D01*
X0048390Y0066201D01*
X0048557Y0066284D01*
X0048721Y0066370D01*
X0048884Y0066460D01*
X0049044Y0066555D01*
X0049202Y0066653D01*
X0049357Y0066755D01*
X0049510Y0066860D01*
X0049660Y0066970D01*
X0049808Y0067083D01*
X0049952Y0067200D01*
X0050094Y0067320D01*
X0050233Y0067443D01*
X0050369Y0067570D01*
X0050501Y0067700D01*
X0050630Y0067834D01*
X0050757Y0067970D01*
X0050879Y0068110D01*
M02*
