G75*
%MOIN*%
%OFA0B0*%
%FSLAX25Y25*%
%IPPOS*%
%LPD*%
%AMOC8*
5,1,8,0,0,1.08239X$1,22.5*
%
%ADD10C,0.00197*%
%ADD11C,0.00000*%
%ADD12R,0.03937X0.04331*%
%ADD13R,0.05000X0.10000*%
%ADD14C,0.06600*%
%ADD15R,0.06300X0.04600*%
%ADD16OC8,0.06600*%
%ADD17C,0.01600*%
%ADD18C,0.03962*%
%ADD19C,0.01400*%
%ADD20C,0.00800*%
D10*
X0001800Y0045501D02*
X0001813Y0046564D01*
X0001852Y0047626D01*
X0001917Y0048687D01*
X0002009Y0049746D01*
X0002126Y0050802D01*
X0002269Y0051855D01*
X0002438Y0052905D01*
X0002632Y0053950D01*
X0002852Y0054990D01*
X0003098Y0056024D01*
X0003369Y0057052D01*
X0003665Y0058072D01*
X0003986Y0059086D01*
X0004332Y0060091D01*
X0004702Y0061087D01*
X0005097Y0062074D01*
X0005515Y0063051D01*
X0005958Y0064017D01*
X0006424Y0064972D01*
X0006914Y0065916D01*
X0007426Y0066847D01*
X0007961Y0067765D01*
X0008519Y0068670D01*
X0009099Y0069561D01*
X0009700Y0070438D01*
X0010322Y0071299D01*
X0010966Y0072145D01*
X0011630Y0072975D01*
X0012315Y0073788D01*
X0013019Y0074584D01*
X0013742Y0075363D01*
X0014484Y0076124D01*
X0015245Y0076866D01*
X0016024Y0077589D01*
X0016820Y0078293D01*
X0017633Y0078978D01*
X0018463Y0079642D01*
X0019309Y0080286D01*
X0020170Y0080908D01*
X0021047Y0081509D01*
X0021938Y0082089D01*
X0022843Y0082647D01*
X0023761Y0083182D01*
X0024692Y0083694D01*
X0025636Y0084184D01*
X0026591Y0084650D01*
X0027557Y0085093D01*
X0028534Y0085511D01*
X0029521Y0085906D01*
X0030517Y0086276D01*
X0031522Y0086622D01*
X0032536Y0086943D01*
X0033556Y0087239D01*
X0034584Y0087510D01*
X0035618Y0087756D01*
X0036658Y0087976D01*
X0037703Y0088170D01*
X0038753Y0088339D01*
X0039806Y0088482D01*
X0040862Y0088599D01*
X0041921Y0088691D01*
X0042982Y0088756D01*
X0044044Y0088795D01*
X0045107Y0088808D01*
X0046170Y0088795D01*
X0047232Y0088756D01*
X0048293Y0088691D01*
X0049352Y0088599D01*
X0050408Y0088482D01*
X0051461Y0088339D01*
X0052511Y0088170D01*
X0053556Y0087976D01*
X0054596Y0087756D01*
X0055630Y0087510D01*
X0056658Y0087239D01*
X0057678Y0086943D01*
X0058692Y0086622D01*
X0059697Y0086276D01*
X0060693Y0085906D01*
X0061680Y0085511D01*
X0062657Y0085093D01*
X0063623Y0084650D01*
X0064578Y0084184D01*
X0065522Y0083694D01*
X0066453Y0083182D01*
X0067371Y0082647D01*
X0068276Y0082089D01*
X0069167Y0081509D01*
X0070044Y0080908D01*
X0070905Y0080286D01*
X0071751Y0079642D01*
X0072581Y0078978D01*
X0073394Y0078293D01*
X0074190Y0077589D01*
X0074969Y0076866D01*
X0075730Y0076124D01*
X0076472Y0075363D01*
X0077195Y0074584D01*
X0077899Y0073788D01*
X0078584Y0072975D01*
X0079248Y0072145D01*
X0079892Y0071299D01*
X0080514Y0070438D01*
X0081115Y0069561D01*
X0081695Y0068670D01*
X0082253Y0067765D01*
X0082788Y0066847D01*
X0083300Y0065916D01*
X0083790Y0064972D01*
X0084256Y0064017D01*
X0084699Y0063051D01*
X0085117Y0062074D01*
X0085512Y0061087D01*
X0085882Y0060091D01*
X0086228Y0059086D01*
X0086549Y0058072D01*
X0086845Y0057052D01*
X0087116Y0056024D01*
X0087362Y0054990D01*
X0087582Y0053950D01*
X0087776Y0052905D01*
X0087945Y0051855D01*
X0088088Y0050802D01*
X0088205Y0049746D01*
X0088297Y0048687D01*
X0088362Y0047626D01*
X0088401Y0046564D01*
X0088414Y0045501D01*
X0088401Y0044438D01*
X0088362Y0043376D01*
X0088297Y0042315D01*
X0088205Y0041256D01*
X0088088Y0040200D01*
X0087945Y0039147D01*
X0087776Y0038097D01*
X0087582Y0037052D01*
X0087362Y0036012D01*
X0087116Y0034978D01*
X0086845Y0033950D01*
X0086549Y0032930D01*
X0086228Y0031916D01*
X0085882Y0030911D01*
X0085512Y0029915D01*
X0085117Y0028928D01*
X0084699Y0027951D01*
X0084256Y0026985D01*
X0083790Y0026030D01*
X0083300Y0025086D01*
X0082788Y0024155D01*
X0082253Y0023237D01*
X0081695Y0022332D01*
X0081115Y0021441D01*
X0080514Y0020564D01*
X0079892Y0019703D01*
X0079248Y0018857D01*
X0078584Y0018027D01*
X0077899Y0017214D01*
X0077195Y0016418D01*
X0076472Y0015639D01*
X0075730Y0014878D01*
X0074969Y0014136D01*
X0074190Y0013413D01*
X0073394Y0012709D01*
X0072581Y0012024D01*
X0071751Y0011360D01*
X0070905Y0010716D01*
X0070044Y0010094D01*
X0069167Y0009493D01*
X0068276Y0008913D01*
X0067371Y0008355D01*
X0066453Y0007820D01*
X0065522Y0007308D01*
X0064578Y0006818D01*
X0063623Y0006352D01*
X0062657Y0005909D01*
X0061680Y0005491D01*
X0060693Y0005096D01*
X0059697Y0004726D01*
X0058692Y0004380D01*
X0057678Y0004059D01*
X0056658Y0003763D01*
X0055630Y0003492D01*
X0054596Y0003246D01*
X0053556Y0003026D01*
X0052511Y0002832D01*
X0051461Y0002663D01*
X0050408Y0002520D01*
X0049352Y0002403D01*
X0048293Y0002311D01*
X0047232Y0002246D01*
X0046170Y0002207D01*
X0045107Y0002194D01*
X0044044Y0002207D01*
X0042982Y0002246D01*
X0041921Y0002311D01*
X0040862Y0002403D01*
X0039806Y0002520D01*
X0038753Y0002663D01*
X0037703Y0002832D01*
X0036658Y0003026D01*
X0035618Y0003246D01*
X0034584Y0003492D01*
X0033556Y0003763D01*
X0032536Y0004059D01*
X0031522Y0004380D01*
X0030517Y0004726D01*
X0029521Y0005096D01*
X0028534Y0005491D01*
X0027557Y0005909D01*
X0026591Y0006352D01*
X0025636Y0006818D01*
X0024692Y0007308D01*
X0023761Y0007820D01*
X0022843Y0008355D01*
X0021938Y0008913D01*
X0021047Y0009493D01*
X0020170Y0010094D01*
X0019309Y0010716D01*
X0018463Y0011360D01*
X0017633Y0012024D01*
X0016820Y0012709D01*
X0016024Y0013413D01*
X0015245Y0014136D01*
X0014484Y0014878D01*
X0013742Y0015639D01*
X0013019Y0016418D01*
X0012315Y0017214D01*
X0011630Y0018027D01*
X0010966Y0018857D01*
X0010322Y0019703D01*
X0009700Y0020564D01*
X0009099Y0021441D01*
X0008519Y0022332D01*
X0007961Y0023237D01*
X0007426Y0024155D01*
X0006914Y0025086D01*
X0006424Y0026030D01*
X0005958Y0026985D01*
X0005515Y0027951D01*
X0005097Y0028928D01*
X0004702Y0029915D01*
X0004332Y0030911D01*
X0003986Y0031916D01*
X0003665Y0032930D01*
X0003369Y0033950D01*
X0003098Y0034978D01*
X0002852Y0036012D01*
X0002632Y0037052D01*
X0002438Y0038097D01*
X0002269Y0039147D01*
X0002126Y0040200D01*
X0002009Y0041256D01*
X0001917Y0042315D01*
X0001852Y0043376D01*
X0001813Y0044438D01*
X0001800Y0045501D01*
D11*
X0004360Y0045501D02*
X0004362Y0045680D01*
X0004369Y0045858D01*
X0004380Y0046037D01*
X0004395Y0046215D01*
X0004415Y0046393D01*
X0004439Y0046570D01*
X0004467Y0046746D01*
X0004500Y0046922D01*
X0004537Y0047097D01*
X0004578Y0047271D01*
X0004624Y0047443D01*
X0004674Y0047615D01*
X0004728Y0047786D01*
X0004786Y0047955D01*
X0004848Y0048122D01*
X0004914Y0048288D01*
X0004985Y0048452D01*
X0005059Y0048615D01*
X0005138Y0048776D01*
X0005220Y0048934D01*
X0005306Y0049091D01*
X0005396Y0049245D01*
X0005490Y0049397D01*
X0005587Y0049547D01*
X0005689Y0049695D01*
X0005793Y0049839D01*
X0005901Y0049982D01*
X0006013Y0050121D01*
X0006128Y0050258D01*
X0006247Y0050392D01*
X0006368Y0050523D01*
X0006493Y0050651D01*
X0006621Y0050776D01*
X0006752Y0050897D01*
X0006886Y0051016D01*
X0007023Y0051131D01*
X0007162Y0051243D01*
X0007305Y0051351D01*
X0007449Y0051455D01*
X0007597Y0051557D01*
X0007747Y0051654D01*
X0007899Y0051748D01*
X0008053Y0051838D01*
X0008210Y0051924D01*
X0008368Y0052006D01*
X0008529Y0052085D01*
X0008692Y0052159D01*
X0008856Y0052230D01*
X0009022Y0052296D01*
X0009189Y0052358D01*
X0009358Y0052416D01*
X0009529Y0052470D01*
X0009701Y0052520D01*
X0009873Y0052566D01*
X0010047Y0052607D01*
X0010222Y0052644D01*
X0010398Y0052677D01*
X0010574Y0052705D01*
X0010751Y0052729D01*
X0010929Y0052749D01*
X0011107Y0052764D01*
X0011286Y0052775D01*
X0011464Y0052782D01*
X0011643Y0052784D01*
X0011822Y0052782D01*
X0012000Y0052775D01*
X0012179Y0052764D01*
X0012357Y0052749D01*
X0012535Y0052729D01*
X0012712Y0052705D01*
X0012888Y0052677D01*
X0013064Y0052644D01*
X0013239Y0052607D01*
X0013413Y0052566D01*
X0013585Y0052520D01*
X0013757Y0052470D01*
X0013928Y0052416D01*
X0014097Y0052358D01*
X0014264Y0052296D01*
X0014430Y0052230D01*
X0014594Y0052159D01*
X0014757Y0052085D01*
X0014918Y0052006D01*
X0015076Y0051924D01*
X0015233Y0051838D01*
X0015387Y0051748D01*
X0015539Y0051654D01*
X0015689Y0051557D01*
X0015837Y0051455D01*
X0015981Y0051351D01*
X0016124Y0051243D01*
X0016263Y0051131D01*
X0016400Y0051016D01*
X0016534Y0050897D01*
X0016665Y0050776D01*
X0016793Y0050651D01*
X0016918Y0050523D01*
X0017039Y0050392D01*
X0017158Y0050258D01*
X0017273Y0050121D01*
X0017385Y0049982D01*
X0017493Y0049839D01*
X0017597Y0049695D01*
X0017699Y0049547D01*
X0017796Y0049397D01*
X0017890Y0049245D01*
X0017980Y0049091D01*
X0018066Y0048934D01*
X0018148Y0048776D01*
X0018227Y0048615D01*
X0018301Y0048452D01*
X0018372Y0048288D01*
X0018438Y0048122D01*
X0018500Y0047955D01*
X0018558Y0047786D01*
X0018612Y0047615D01*
X0018662Y0047443D01*
X0018708Y0047271D01*
X0018749Y0047097D01*
X0018786Y0046922D01*
X0018819Y0046746D01*
X0018847Y0046570D01*
X0018871Y0046393D01*
X0018891Y0046215D01*
X0018906Y0046037D01*
X0018917Y0045858D01*
X0018924Y0045680D01*
X0018926Y0045501D01*
X0018924Y0045322D01*
X0018917Y0045144D01*
X0018906Y0044965D01*
X0018891Y0044787D01*
X0018871Y0044609D01*
X0018847Y0044432D01*
X0018819Y0044256D01*
X0018786Y0044080D01*
X0018749Y0043905D01*
X0018708Y0043731D01*
X0018662Y0043559D01*
X0018612Y0043387D01*
X0018558Y0043216D01*
X0018500Y0043047D01*
X0018438Y0042880D01*
X0018372Y0042714D01*
X0018301Y0042550D01*
X0018227Y0042387D01*
X0018148Y0042226D01*
X0018066Y0042068D01*
X0017980Y0041911D01*
X0017890Y0041757D01*
X0017796Y0041605D01*
X0017699Y0041455D01*
X0017597Y0041307D01*
X0017493Y0041163D01*
X0017385Y0041020D01*
X0017273Y0040881D01*
X0017158Y0040744D01*
X0017039Y0040610D01*
X0016918Y0040479D01*
X0016793Y0040351D01*
X0016665Y0040226D01*
X0016534Y0040105D01*
X0016400Y0039986D01*
X0016263Y0039871D01*
X0016124Y0039759D01*
X0015981Y0039651D01*
X0015837Y0039547D01*
X0015689Y0039445D01*
X0015539Y0039348D01*
X0015387Y0039254D01*
X0015233Y0039164D01*
X0015076Y0039078D01*
X0014918Y0038996D01*
X0014757Y0038917D01*
X0014594Y0038843D01*
X0014430Y0038772D01*
X0014264Y0038706D01*
X0014097Y0038644D01*
X0013928Y0038586D01*
X0013757Y0038532D01*
X0013585Y0038482D01*
X0013413Y0038436D01*
X0013239Y0038395D01*
X0013064Y0038358D01*
X0012888Y0038325D01*
X0012712Y0038297D01*
X0012535Y0038273D01*
X0012357Y0038253D01*
X0012179Y0038238D01*
X0012000Y0038227D01*
X0011822Y0038220D01*
X0011643Y0038218D01*
X0011464Y0038220D01*
X0011286Y0038227D01*
X0011107Y0038238D01*
X0010929Y0038253D01*
X0010751Y0038273D01*
X0010574Y0038297D01*
X0010398Y0038325D01*
X0010222Y0038358D01*
X0010047Y0038395D01*
X0009873Y0038436D01*
X0009701Y0038482D01*
X0009529Y0038532D01*
X0009358Y0038586D01*
X0009189Y0038644D01*
X0009022Y0038706D01*
X0008856Y0038772D01*
X0008692Y0038843D01*
X0008529Y0038917D01*
X0008368Y0038996D01*
X0008210Y0039078D01*
X0008053Y0039164D01*
X0007899Y0039254D01*
X0007747Y0039348D01*
X0007597Y0039445D01*
X0007449Y0039547D01*
X0007305Y0039651D01*
X0007162Y0039759D01*
X0007023Y0039871D01*
X0006886Y0039986D01*
X0006752Y0040105D01*
X0006621Y0040226D01*
X0006493Y0040351D01*
X0006368Y0040479D01*
X0006247Y0040610D01*
X0006128Y0040744D01*
X0006013Y0040881D01*
X0005901Y0041020D01*
X0005793Y0041163D01*
X0005689Y0041307D01*
X0005587Y0041455D01*
X0005490Y0041605D01*
X0005396Y0041757D01*
X0005306Y0041911D01*
X0005220Y0042068D01*
X0005138Y0042226D01*
X0005059Y0042387D01*
X0004985Y0042550D01*
X0004914Y0042714D01*
X0004848Y0042880D01*
X0004786Y0043047D01*
X0004728Y0043216D01*
X0004674Y0043387D01*
X0004624Y0043559D01*
X0004578Y0043731D01*
X0004537Y0043905D01*
X0004500Y0044080D01*
X0004467Y0044256D01*
X0004439Y0044432D01*
X0004415Y0044609D01*
X0004395Y0044787D01*
X0004380Y0044965D01*
X0004369Y0045144D01*
X0004362Y0045322D01*
X0004360Y0045501D01*
X0071289Y0045501D02*
X0071291Y0045680D01*
X0071298Y0045858D01*
X0071309Y0046037D01*
X0071324Y0046215D01*
X0071344Y0046393D01*
X0071368Y0046570D01*
X0071396Y0046746D01*
X0071429Y0046922D01*
X0071466Y0047097D01*
X0071507Y0047271D01*
X0071553Y0047443D01*
X0071603Y0047615D01*
X0071657Y0047786D01*
X0071715Y0047955D01*
X0071777Y0048122D01*
X0071843Y0048288D01*
X0071914Y0048452D01*
X0071988Y0048615D01*
X0072067Y0048776D01*
X0072149Y0048934D01*
X0072235Y0049091D01*
X0072325Y0049245D01*
X0072419Y0049397D01*
X0072516Y0049547D01*
X0072618Y0049695D01*
X0072722Y0049839D01*
X0072830Y0049982D01*
X0072942Y0050121D01*
X0073057Y0050258D01*
X0073176Y0050392D01*
X0073297Y0050523D01*
X0073422Y0050651D01*
X0073550Y0050776D01*
X0073681Y0050897D01*
X0073815Y0051016D01*
X0073952Y0051131D01*
X0074091Y0051243D01*
X0074234Y0051351D01*
X0074378Y0051455D01*
X0074526Y0051557D01*
X0074676Y0051654D01*
X0074828Y0051748D01*
X0074982Y0051838D01*
X0075139Y0051924D01*
X0075297Y0052006D01*
X0075458Y0052085D01*
X0075621Y0052159D01*
X0075785Y0052230D01*
X0075951Y0052296D01*
X0076118Y0052358D01*
X0076287Y0052416D01*
X0076458Y0052470D01*
X0076630Y0052520D01*
X0076802Y0052566D01*
X0076976Y0052607D01*
X0077151Y0052644D01*
X0077327Y0052677D01*
X0077503Y0052705D01*
X0077680Y0052729D01*
X0077858Y0052749D01*
X0078036Y0052764D01*
X0078215Y0052775D01*
X0078393Y0052782D01*
X0078572Y0052784D01*
X0078751Y0052782D01*
X0078929Y0052775D01*
X0079108Y0052764D01*
X0079286Y0052749D01*
X0079464Y0052729D01*
X0079641Y0052705D01*
X0079817Y0052677D01*
X0079993Y0052644D01*
X0080168Y0052607D01*
X0080342Y0052566D01*
X0080514Y0052520D01*
X0080686Y0052470D01*
X0080857Y0052416D01*
X0081026Y0052358D01*
X0081193Y0052296D01*
X0081359Y0052230D01*
X0081523Y0052159D01*
X0081686Y0052085D01*
X0081847Y0052006D01*
X0082005Y0051924D01*
X0082162Y0051838D01*
X0082316Y0051748D01*
X0082468Y0051654D01*
X0082618Y0051557D01*
X0082766Y0051455D01*
X0082910Y0051351D01*
X0083053Y0051243D01*
X0083192Y0051131D01*
X0083329Y0051016D01*
X0083463Y0050897D01*
X0083594Y0050776D01*
X0083722Y0050651D01*
X0083847Y0050523D01*
X0083968Y0050392D01*
X0084087Y0050258D01*
X0084202Y0050121D01*
X0084314Y0049982D01*
X0084422Y0049839D01*
X0084526Y0049695D01*
X0084628Y0049547D01*
X0084725Y0049397D01*
X0084819Y0049245D01*
X0084909Y0049091D01*
X0084995Y0048934D01*
X0085077Y0048776D01*
X0085156Y0048615D01*
X0085230Y0048452D01*
X0085301Y0048288D01*
X0085367Y0048122D01*
X0085429Y0047955D01*
X0085487Y0047786D01*
X0085541Y0047615D01*
X0085591Y0047443D01*
X0085637Y0047271D01*
X0085678Y0047097D01*
X0085715Y0046922D01*
X0085748Y0046746D01*
X0085776Y0046570D01*
X0085800Y0046393D01*
X0085820Y0046215D01*
X0085835Y0046037D01*
X0085846Y0045858D01*
X0085853Y0045680D01*
X0085855Y0045501D01*
X0085853Y0045322D01*
X0085846Y0045144D01*
X0085835Y0044965D01*
X0085820Y0044787D01*
X0085800Y0044609D01*
X0085776Y0044432D01*
X0085748Y0044256D01*
X0085715Y0044080D01*
X0085678Y0043905D01*
X0085637Y0043731D01*
X0085591Y0043559D01*
X0085541Y0043387D01*
X0085487Y0043216D01*
X0085429Y0043047D01*
X0085367Y0042880D01*
X0085301Y0042714D01*
X0085230Y0042550D01*
X0085156Y0042387D01*
X0085077Y0042226D01*
X0084995Y0042068D01*
X0084909Y0041911D01*
X0084819Y0041757D01*
X0084725Y0041605D01*
X0084628Y0041455D01*
X0084526Y0041307D01*
X0084422Y0041163D01*
X0084314Y0041020D01*
X0084202Y0040881D01*
X0084087Y0040744D01*
X0083968Y0040610D01*
X0083847Y0040479D01*
X0083722Y0040351D01*
X0083594Y0040226D01*
X0083463Y0040105D01*
X0083329Y0039986D01*
X0083192Y0039871D01*
X0083053Y0039759D01*
X0082910Y0039651D01*
X0082766Y0039547D01*
X0082618Y0039445D01*
X0082468Y0039348D01*
X0082316Y0039254D01*
X0082162Y0039164D01*
X0082005Y0039078D01*
X0081847Y0038996D01*
X0081686Y0038917D01*
X0081523Y0038843D01*
X0081359Y0038772D01*
X0081193Y0038706D01*
X0081026Y0038644D01*
X0080857Y0038586D01*
X0080686Y0038532D01*
X0080514Y0038482D01*
X0080342Y0038436D01*
X0080168Y0038395D01*
X0079993Y0038358D01*
X0079817Y0038325D01*
X0079641Y0038297D01*
X0079464Y0038273D01*
X0079286Y0038253D01*
X0079108Y0038238D01*
X0078929Y0038227D01*
X0078751Y0038220D01*
X0078572Y0038218D01*
X0078393Y0038220D01*
X0078215Y0038227D01*
X0078036Y0038238D01*
X0077858Y0038253D01*
X0077680Y0038273D01*
X0077503Y0038297D01*
X0077327Y0038325D01*
X0077151Y0038358D01*
X0076976Y0038395D01*
X0076802Y0038436D01*
X0076630Y0038482D01*
X0076458Y0038532D01*
X0076287Y0038586D01*
X0076118Y0038644D01*
X0075951Y0038706D01*
X0075785Y0038772D01*
X0075621Y0038843D01*
X0075458Y0038917D01*
X0075297Y0038996D01*
X0075139Y0039078D01*
X0074982Y0039164D01*
X0074828Y0039254D01*
X0074676Y0039348D01*
X0074526Y0039445D01*
X0074378Y0039547D01*
X0074234Y0039651D01*
X0074091Y0039759D01*
X0073952Y0039871D01*
X0073815Y0039986D01*
X0073681Y0040105D01*
X0073550Y0040226D01*
X0073422Y0040351D01*
X0073297Y0040479D01*
X0073176Y0040610D01*
X0073057Y0040744D01*
X0072942Y0040881D01*
X0072830Y0041020D01*
X0072722Y0041163D01*
X0072618Y0041307D01*
X0072516Y0041455D01*
X0072419Y0041605D01*
X0072325Y0041757D01*
X0072235Y0041911D01*
X0072149Y0042068D01*
X0072067Y0042226D01*
X0071988Y0042387D01*
X0071914Y0042550D01*
X0071843Y0042714D01*
X0071777Y0042880D01*
X0071715Y0043047D01*
X0071657Y0043216D01*
X0071603Y0043387D01*
X0071553Y0043559D01*
X0071507Y0043731D01*
X0071466Y0043905D01*
X0071429Y0044080D01*
X0071396Y0044256D01*
X0071368Y0044432D01*
X0071344Y0044609D01*
X0071324Y0044787D01*
X0071309Y0044965D01*
X0071298Y0045144D01*
X0071291Y0045322D01*
X0071289Y0045501D01*
D12*
X0070101Y0030153D03*
X0070101Y0023460D03*
X0036388Y0035468D03*
X0029696Y0035468D03*
X0058056Y0067078D03*
X0064749Y0067078D03*
D13*
X0057902Y0023454D03*
X0045107Y0023454D03*
X0032312Y0023454D03*
D14*
X0037233Y0045501D03*
X0052981Y0045501D03*
D15*
X0064995Y0047205D03*
X0064995Y0041205D03*
D16*
X0050107Y0073060D03*
X0040107Y0073060D03*
D17*
X0014034Y0022925D02*
X0018564Y0017739D01*
X0023948Y0013446D01*
X0030012Y0010183D01*
X0036560Y0008055D01*
X0043384Y0007131D01*
X0050263Y0007440D01*
X0056976Y0008972D01*
X0063308Y0011678D01*
X0069055Y0015472D01*
X0074032Y0020230D01*
X0074032Y0020230D01*
X0078079Y0025801D01*
X0081067Y0032005D01*
X0081560Y0033792D01*
X0080162Y0033417D01*
X0076981Y0033417D01*
X0073908Y0034241D01*
X0071152Y0035832D01*
X0069385Y0037599D01*
X0069251Y0037465D01*
X0068840Y0037228D01*
X0068382Y0037105D01*
X0065345Y0037105D01*
X0065345Y0040855D01*
X0064645Y0040855D01*
X0060045Y0040855D01*
X0060045Y0038668D01*
X0060168Y0038210D01*
X0060405Y0037800D01*
X0060740Y0037465D01*
X0061151Y0037228D01*
X0061608Y0037105D01*
X0064645Y0037105D01*
X0064645Y0040855D01*
X0064645Y0041555D01*
X0060045Y0041555D01*
X0060045Y0043742D01*
X0060168Y0044200D01*
X0060245Y0044334D01*
X0060245Y0050168D01*
X0061183Y0051105D01*
X0062449Y0051105D01*
X0062449Y0063313D01*
X0062118Y0063313D01*
X0061402Y0064028D01*
X0060687Y0063313D01*
X0055425Y0063313D01*
X0054488Y0064250D01*
X0054488Y0067445D01*
X0052974Y0068997D01*
X0052137Y0068160D01*
X0048077Y0068160D01*
X0045207Y0071030D01*
X0045207Y0075089D01*
X0048077Y0077960D01*
X0052137Y0077960D01*
X0055007Y0075089D01*
X0055007Y0073502D01*
X0057598Y0070844D01*
X0060687Y0070844D01*
X0061402Y0070128D01*
X0062118Y0070844D01*
X0067380Y0070844D01*
X0068317Y0069906D01*
X0068317Y0064250D01*
X0067380Y0063313D01*
X0067049Y0063313D01*
X0067049Y0051105D01*
X0067855Y0051105D01*
X0068902Y0052920D01*
X0071152Y0055170D01*
X0073908Y0056761D01*
X0076981Y0057584D01*
X0080162Y0057584D01*
X0081560Y0057210D01*
X0081067Y0058997D01*
X0078079Y0065201D01*
X0074032Y0070771D01*
X0069054Y0075530D01*
X0063308Y0079323D01*
X0056976Y0082030D01*
X0050263Y0083562D01*
X0043384Y0083871D01*
X0036560Y0082946D01*
X0030012Y0080819D01*
X0023948Y0077556D01*
X0018564Y0073262D01*
X0014034Y0068077D01*
X0010502Y0062166D01*
X0008641Y0057206D01*
X0010052Y0057584D01*
X0013233Y0057584D01*
X0016307Y0056761D01*
X0019062Y0055170D01*
X0021312Y0052920D01*
X0022903Y0050165D01*
X0023726Y0047092D01*
X0023726Y0043910D01*
X0022903Y0040837D01*
X0021312Y0038081D01*
X0019062Y0035832D01*
X0016307Y0034241D01*
X0013233Y0033417D01*
X0010052Y0033417D01*
X0008641Y0033795D01*
X0010502Y0028836D01*
X0014034Y0022925D01*
X0014004Y0022974D02*
X0028012Y0022974D01*
X0028012Y0023004D02*
X0028012Y0018217D01*
X0028134Y0017759D01*
X0028371Y0017348D01*
X0028707Y0017013D01*
X0029117Y0016776D01*
X0029575Y0016654D01*
X0031862Y0016654D01*
X0031862Y0023003D01*
X0032762Y0023003D01*
X0032762Y0016654D01*
X0035049Y0016654D01*
X0035507Y0016776D01*
X0035917Y0017013D01*
X0036252Y0017348D01*
X0036489Y0017759D01*
X0036612Y0018217D01*
X0036612Y0023004D01*
X0032762Y0023004D01*
X0032762Y0023904D01*
X0031862Y0023904D01*
X0031862Y0030254D01*
X0029575Y0030254D01*
X0029117Y0030131D01*
X0028707Y0029894D01*
X0028371Y0029559D01*
X0028134Y0029148D01*
X0028012Y0028691D01*
X0028012Y0023904D01*
X0031862Y0023904D01*
X0031862Y0023004D01*
X0028012Y0023004D01*
X0028012Y0024573D02*
X0013049Y0024573D01*
X0012094Y0026171D02*
X0028012Y0026171D01*
X0028012Y0027770D02*
X0011139Y0027770D01*
X0010302Y0029368D02*
X0028262Y0029368D01*
X0027064Y0031702D02*
X0032327Y0031702D01*
X0033042Y0032417D01*
X0033757Y0031702D01*
X0037807Y0031702D01*
X0037363Y0031519D01*
X0036356Y0030511D01*
X0036047Y0029764D01*
X0035917Y0029894D01*
X0035507Y0030131D01*
X0035049Y0030254D01*
X0032762Y0030254D01*
X0032762Y0023904D01*
X0036612Y0023904D01*
X0036612Y0026198D01*
X0037363Y0025447D01*
X0038680Y0024902D01*
X0040104Y0024902D01*
X0040318Y0024990D01*
X0041007Y0024301D01*
X0041007Y0017791D01*
X0041944Y0016854D01*
X0043107Y0016854D01*
X0043107Y0013513D01*
X0042706Y0013112D01*
X0042161Y0011796D01*
X0042161Y0010371D01*
X0042706Y0009055D01*
X0043713Y0008048D01*
X0045030Y0007503D01*
X0046454Y0007503D01*
X0047771Y0008048D01*
X0048778Y0009055D01*
X0049323Y0010371D01*
X0049323Y0011796D01*
X0048778Y0013112D01*
X0047771Y0014120D01*
X0047107Y0014394D01*
X0047107Y0016854D01*
X0048270Y0016854D01*
X0049207Y0017791D01*
X0049207Y0029116D01*
X0048270Y0030054D01*
X0046427Y0030054D01*
X0047263Y0030400D01*
X0048270Y0031407D01*
X0048815Y0032723D01*
X0048815Y0034148D01*
X0048270Y0035464D01*
X0047263Y0036472D01*
X0045946Y0037017D01*
X0044906Y0037017D01*
X0044155Y0037768D01*
X0039957Y0037768D01*
X0039957Y0038296D01*
X0039020Y0039233D01*
X0034345Y0039233D01*
X0035873Y0040761D01*
X0036258Y0040601D01*
X0038208Y0040601D01*
X0040009Y0041347D01*
X0041387Y0042725D01*
X0042133Y0044526D01*
X0042133Y0046475D01*
X0041387Y0048276D01*
X0040009Y0049655D01*
X0038208Y0050401D01*
X0036258Y0050401D01*
X0034457Y0049655D01*
X0033079Y0048276D01*
X0032333Y0046475D01*
X0032333Y0044526D01*
X0032567Y0043961D01*
X0030438Y0041832D01*
X0029091Y0040484D01*
X0029091Y0039233D01*
X0027064Y0039233D01*
X0026127Y0038296D01*
X0026127Y0032639D01*
X0027064Y0031702D01*
X0026201Y0032565D02*
X0009102Y0032565D01*
X0009702Y0030967D02*
X0036812Y0030967D01*
X0032762Y0029368D02*
X0031862Y0029368D01*
X0031862Y0027770D02*
X0032762Y0027770D01*
X0032762Y0026171D02*
X0031862Y0026171D01*
X0031862Y0024573D02*
X0032762Y0024573D01*
X0032762Y0022974D02*
X0031862Y0022974D01*
X0031862Y0021376D02*
X0032762Y0021376D01*
X0032762Y0019777D02*
X0031862Y0019777D01*
X0031862Y0018179D02*
X0032762Y0018179D01*
X0036602Y0018179D02*
X0041007Y0018179D01*
X0041007Y0019777D02*
X0036612Y0019777D01*
X0036612Y0021376D02*
X0041007Y0021376D01*
X0041007Y0022974D02*
X0036612Y0022974D01*
X0036612Y0024573D02*
X0040735Y0024573D01*
X0036639Y0026171D02*
X0036612Y0026171D01*
X0028012Y0021376D02*
X0015387Y0021376D01*
X0016784Y0019777D02*
X0028012Y0019777D01*
X0028022Y0018179D02*
X0018180Y0018179D01*
X0020017Y0016580D02*
X0043107Y0016580D01*
X0043107Y0014982D02*
X0022022Y0014982D01*
X0024064Y0013383D02*
X0042977Y0013383D01*
X0042161Y0011785D02*
X0027035Y0011785D01*
X0030005Y0010186D02*
X0042238Y0010186D01*
X0043174Y0008588D02*
X0034921Y0008588D01*
X0047107Y0014982D02*
X0068312Y0014982D01*
X0070214Y0016580D02*
X0047107Y0016580D01*
X0049207Y0018179D02*
X0053802Y0018179D01*
X0053802Y0017791D02*
X0054740Y0016854D01*
X0061065Y0016854D01*
X0062002Y0017791D01*
X0062002Y0020283D01*
X0062810Y0019949D01*
X0064234Y0019949D01*
X0065551Y0020494D01*
X0066213Y0021157D01*
X0066532Y0021148D01*
X0066532Y0020632D01*
X0067470Y0019695D01*
X0072732Y0019695D01*
X0073669Y0020632D01*
X0073669Y0026288D01*
X0073292Y0026665D01*
X0073510Y0026882D01*
X0073747Y0027293D01*
X0073869Y0027750D01*
X0073869Y0029968D01*
X0070285Y0029968D01*
X0070285Y0030337D01*
X0069917Y0030337D01*
X0069917Y0034118D01*
X0067895Y0034118D01*
X0067438Y0033995D01*
X0067027Y0033758D01*
X0066692Y0033423D01*
X0066455Y0033013D01*
X0066332Y0032555D01*
X0066332Y0030337D01*
X0069916Y0030337D01*
X0069916Y0029968D01*
X0066332Y0029968D01*
X0066332Y0027750D01*
X0066455Y0027293D01*
X0066692Y0026882D01*
X0066909Y0026665D01*
X0066532Y0026288D01*
X0066532Y0025760D01*
X0066356Y0025760D01*
X0065551Y0026566D01*
X0064234Y0027111D01*
X0062810Y0027111D01*
X0062002Y0026776D01*
X0062002Y0029116D01*
X0061065Y0030054D01*
X0054740Y0030054D01*
X0053802Y0029116D01*
X0053802Y0017791D01*
X0053802Y0019777D02*
X0049207Y0019777D01*
X0049207Y0021376D02*
X0053802Y0021376D01*
X0053802Y0022974D02*
X0049207Y0022974D01*
X0049207Y0024573D02*
X0053802Y0024573D01*
X0053802Y0026171D02*
X0049207Y0026171D01*
X0049207Y0027770D02*
X0053802Y0027770D01*
X0054054Y0029368D02*
X0048955Y0029368D01*
X0047830Y0030967D02*
X0066332Y0030967D01*
X0066335Y0032565D02*
X0048750Y0032565D01*
X0048809Y0034164D02*
X0074194Y0034164D01*
X0073510Y0033423D02*
X0073175Y0033758D01*
X0072764Y0033995D01*
X0072306Y0034118D01*
X0070285Y0034118D01*
X0070285Y0030337D01*
X0073869Y0030337D01*
X0073869Y0032555D01*
X0073747Y0033013D01*
X0073510Y0033423D01*
X0073867Y0032565D02*
X0081221Y0032565D01*
X0080567Y0030967D02*
X0073869Y0030967D01*
X0073869Y0029368D02*
X0079797Y0029368D01*
X0079027Y0027770D02*
X0073869Y0027770D01*
X0073669Y0026171D02*
X0078257Y0026171D01*
X0077187Y0024573D02*
X0073669Y0024573D01*
X0073669Y0022974D02*
X0076025Y0022974D01*
X0074864Y0021376D02*
X0073669Y0021376D01*
X0073558Y0019777D02*
X0072815Y0019777D01*
X0071886Y0018179D02*
X0062002Y0018179D01*
X0062002Y0019777D02*
X0067387Y0019777D01*
X0066532Y0026171D02*
X0065945Y0026171D01*
X0066332Y0027770D02*
X0062002Y0027770D01*
X0061750Y0029368D02*
X0066332Y0029368D01*
X0069917Y0030967D02*
X0070285Y0030967D01*
X0070285Y0032565D02*
X0069917Y0032565D01*
X0071272Y0035762D02*
X0047972Y0035762D01*
X0044561Y0037361D02*
X0060920Y0037361D01*
X0060045Y0038959D02*
X0039293Y0038959D01*
X0040818Y0042156D02*
X0049113Y0042156D01*
X0049091Y0042178D02*
X0049659Y0041611D01*
X0050308Y0041139D01*
X0051023Y0040774D01*
X0051787Y0040526D01*
X0052580Y0040401D01*
X0052981Y0040401D01*
X0052981Y0045501D01*
X0052981Y0050601D01*
X0052580Y0050601D01*
X0051787Y0050475D01*
X0051023Y0050227D01*
X0050308Y0049863D01*
X0049659Y0049391D01*
X0049091Y0048823D01*
X0048619Y0048174D01*
X0048255Y0047459D01*
X0048007Y0046695D01*
X0047881Y0045902D01*
X0047881Y0045501D01*
X0052981Y0045501D01*
X0052981Y0045501D01*
X0052981Y0045501D01*
X0052981Y0050601D01*
X0053382Y0050601D01*
X0054175Y0050475D01*
X0054939Y0050227D01*
X0055654Y0049863D01*
X0056304Y0049391D01*
X0056871Y0048823D01*
X0057343Y0048174D01*
X0057707Y0047459D01*
X0057956Y0046695D01*
X0058081Y0045902D01*
X0058081Y0045501D01*
X0052981Y0045501D01*
X0052981Y0045501D01*
X0047881Y0045501D01*
X0047881Y0045099D01*
X0048007Y0044307D01*
X0048255Y0043543D01*
X0048619Y0042828D01*
X0049091Y0042178D01*
X0048186Y0043755D02*
X0041814Y0043755D01*
X0042133Y0045354D02*
X0047881Y0045354D01*
X0048090Y0046952D02*
X0041936Y0046952D01*
X0041113Y0048551D02*
X0048893Y0048551D01*
X0050870Y0050149D02*
X0038815Y0050149D01*
X0035651Y0050149D02*
X0022907Y0050149D01*
X0023335Y0048551D02*
X0033353Y0048551D01*
X0032530Y0046952D02*
X0023726Y0046952D01*
X0023726Y0045354D02*
X0032333Y0045354D01*
X0032362Y0043755D02*
X0023684Y0043755D01*
X0023256Y0042156D02*
X0030763Y0042156D01*
X0030438Y0041832D02*
X0030438Y0041832D01*
X0029165Y0040558D02*
X0022742Y0040558D01*
X0021819Y0038959D02*
X0026791Y0038959D01*
X0026127Y0037361D02*
X0020591Y0037361D01*
X0018942Y0035762D02*
X0026127Y0035762D01*
X0026127Y0034164D02*
X0016020Y0034164D01*
X0021989Y0051748D02*
X0062449Y0051748D01*
X0062449Y0053346D02*
X0020886Y0053346D01*
X0019287Y0054945D02*
X0062449Y0054945D01*
X0062449Y0056543D02*
X0016684Y0056543D01*
X0010192Y0061339D02*
X0062449Y0061339D01*
X0062449Y0062937D02*
X0010963Y0062937D01*
X0011918Y0064536D02*
X0054488Y0064536D01*
X0054488Y0066134D02*
X0012873Y0066134D01*
X0013828Y0067733D02*
X0054207Y0067733D01*
X0057514Y0070930D02*
X0073866Y0070930D01*
X0075078Y0069331D02*
X0068317Y0069331D01*
X0068317Y0067733D02*
X0076239Y0067733D01*
X0077401Y0066134D02*
X0068317Y0066134D01*
X0068317Y0064536D02*
X0078399Y0064536D01*
X0079169Y0062937D02*
X0067049Y0062937D01*
X0067049Y0061339D02*
X0079939Y0061339D01*
X0080709Y0059740D02*
X0067049Y0059740D01*
X0067049Y0058142D02*
X0081303Y0058142D01*
X0073531Y0056543D02*
X0067049Y0056543D01*
X0067049Y0054945D02*
X0070927Y0054945D01*
X0069328Y0053346D02*
X0067049Y0053346D01*
X0067049Y0051748D02*
X0068225Y0051748D01*
X0062449Y0058142D02*
X0008992Y0058142D01*
X0009592Y0059740D02*
X0062449Y0059740D01*
X0060245Y0050149D02*
X0055092Y0050149D01*
X0057069Y0048551D02*
X0060245Y0048551D01*
X0060245Y0046952D02*
X0057872Y0046952D01*
X0058081Y0045501D02*
X0052981Y0045501D01*
X0052981Y0045501D01*
X0052981Y0040401D01*
X0053382Y0040401D01*
X0054175Y0040526D01*
X0054939Y0040774D01*
X0055654Y0041139D01*
X0056304Y0041611D01*
X0056871Y0042178D01*
X0057343Y0042828D01*
X0057707Y0043543D01*
X0057956Y0044307D01*
X0058081Y0045099D01*
X0058081Y0045501D01*
X0058081Y0045354D02*
X0060245Y0045354D01*
X0060049Y0043755D02*
X0057776Y0043755D01*
X0056849Y0042156D02*
X0060045Y0042156D01*
X0060045Y0040558D02*
X0054273Y0040558D01*
X0052981Y0040558D02*
X0052981Y0040558D01*
X0051690Y0040558D02*
X0035670Y0040558D01*
X0052981Y0042156D02*
X0052981Y0042156D01*
X0052981Y0043755D02*
X0052981Y0043755D01*
X0052981Y0045354D02*
X0052981Y0045354D01*
X0052981Y0046952D02*
X0052981Y0046952D01*
X0052981Y0048551D02*
X0052981Y0048551D01*
X0052981Y0050149D02*
X0052981Y0050149D01*
X0064645Y0040558D02*
X0065345Y0040558D01*
X0065345Y0038959D02*
X0064645Y0038959D01*
X0064645Y0037361D02*
X0065345Y0037361D01*
X0069071Y0037361D02*
X0069623Y0037361D01*
X0065891Y0013383D02*
X0048507Y0013383D01*
X0049323Y0011785D02*
X0063469Y0011785D01*
X0059817Y0010186D02*
X0049246Y0010186D01*
X0048310Y0008588D02*
X0055293Y0008588D01*
X0042137Y0068160D02*
X0038077Y0068160D01*
X0035207Y0071030D01*
X0035207Y0075089D01*
X0038077Y0077960D01*
X0042137Y0077960D01*
X0045007Y0075089D01*
X0045007Y0071030D01*
X0042137Y0068160D01*
X0043308Y0069331D02*
X0046906Y0069331D01*
X0045308Y0070930D02*
X0044907Y0070930D01*
X0045007Y0072528D02*
X0045207Y0072528D01*
X0045207Y0074127D02*
X0045007Y0074127D01*
X0044371Y0075725D02*
X0045843Y0075725D01*
X0047441Y0077324D02*
X0042773Y0077324D01*
X0037441Y0077324D02*
X0023657Y0077324D01*
X0021653Y0075725D02*
X0035843Y0075725D01*
X0035207Y0074127D02*
X0019648Y0074127D01*
X0017923Y0072528D02*
X0035207Y0072528D01*
X0035308Y0070930D02*
X0016526Y0070930D01*
X0015130Y0069331D02*
X0036906Y0069331D01*
X0026487Y0078922D02*
X0063915Y0078922D01*
X0066337Y0077324D02*
X0052773Y0077324D01*
X0054371Y0075725D02*
X0068759Y0075725D01*
X0070522Y0074127D02*
X0055007Y0074127D01*
X0055956Y0072528D02*
X0072194Y0072528D01*
X0060506Y0080521D02*
X0029458Y0080521D01*
X0034014Y0082119D02*
X0056583Y0082119D01*
X0046790Y0083718D02*
X0042254Y0083718D01*
D18*
X0045234Y0033436D03*
X0039392Y0028483D03*
X0045742Y0011084D03*
X0063522Y0023530D03*
D19*
X0063446Y0023454D01*
X0057902Y0023454D01*
X0063522Y0023530D02*
X0066119Y0023460D01*
X0070101Y0023460D01*
X0064995Y0047205D02*
X0064749Y0047452D01*
X0064749Y0067078D01*
X0058056Y0067078D02*
X0052226Y0073060D01*
X0050107Y0073060D01*
X0037233Y0045501D02*
X0037233Y0045374D01*
X0031391Y0039532D01*
X0031391Y0037163D01*
X0029696Y0035468D01*
X0036388Y0035468D02*
X0043202Y0035468D01*
X0045234Y0033436D01*
X0040078Y0028483D02*
X0039392Y0028483D01*
X0040078Y0028483D02*
X0045107Y0023454D01*
D20*
X0045107Y0011719D01*
X0045742Y0011084D01*
M02*
