G75*
%MOIN*%
%OFA0B0*%
%FSLAX25Y25*%
%IPPOS*%
%LPD*%
%AMOC8*
5,1,8,0,0,1.08239X$1,22.5*
%
%ADD10C,0.00197*%
%ADD11C,0.00000*%
%ADD12C,0.05150*%
%ADD13OC8,0.05200*%
%ADD14R,0.03937X0.04331*%
%ADD15R,0.05906X0.06299*%
%ADD16R,0.04724X0.04724*%
%ADD17R,0.05000X0.10000*%
%ADD18C,0.01600*%
%ADD19C,0.03962*%
D10*
X0001800Y0045501D02*
X0001813Y0046564D01*
X0001852Y0047626D01*
X0001917Y0048687D01*
X0002009Y0049746D01*
X0002126Y0050802D01*
X0002269Y0051855D01*
X0002438Y0052905D01*
X0002632Y0053950D01*
X0002852Y0054990D01*
X0003098Y0056024D01*
X0003369Y0057052D01*
X0003665Y0058072D01*
X0003986Y0059086D01*
X0004332Y0060091D01*
X0004702Y0061087D01*
X0005097Y0062074D01*
X0005515Y0063051D01*
X0005958Y0064017D01*
X0006424Y0064972D01*
X0006914Y0065916D01*
X0007426Y0066847D01*
X0007961Y0067765D01*
X0008519Y0068670D01*
X0009099Y0069561D01*
X0009700Y0070438D01*
X0010322Y0071299D01*
X0010966Y0072145D01*
X0011630Y0072975D01*
X0012315Y0073788D01*
X0013019Y0074584D01*
X0013742Y0075363D01*
X0014484Y0076124D01*
X0015245Y0076866D01*
X0016024Y0077589D01*
X0016820Y0078293D01*
X0017633Y0078978D01*
X0018463Y0079642D01*
X0019309Y0080286D01*
X0020170Y0080908D01*
X0021047Y0081509D01*
X0021938Y0082089D01*
X0022843Y0082647D01*
X0023761Y0083182D01*
X0024692Y0083694D01*
X0025636Y0084184D01*
X0026591Y0084650D01*
X0027557Y0085093D01*
X0028534Y0085511D01*
X0029521Y0085906D01*
X0030517Y0086276D01*
X0031522Y0086622D01*
X0032536Y0086943D01*
X0033556Y0087239D01*
X0034584Y0087510D01*
X0035618Y0087756D01*
X0036658Y0087976D01*
X0037703Y0088170D01*
X0038753Y0088339D01*
X0039806Y0088482D01*
X0040862Y0088599D01*
X0041921Y0088691D01*
X0042982Y0088756D01*
X0044044Y0088795D01*
X0045107Y0088808D01*
X0046170Y0088795D01*
X0047232Y0088756D01*
X0048293Y0088691D01*
X0049352Y0088599D01*
X0050408Y0088482D01*
X0051461Y0088339D01*
X0052511Y0088170D01*
X0053556Y0087976D01*
X0054596Y0087756D01*
X0055630Y0087510D01*
X0056658Y0087239D01*
X0057678Y0086943D01*
X0058692Y0086622D01*
X0059697Y0086276D01*
X0060693Y0085906D01*
X0061680Y0085511D01*
X0062657Y0085093D01*
X0063623Y0084650D01*
X0064578Y0084184D01*
X0065522Y0083694D01*
X0066453Y0083182D01*
X0067371Y0082647D01*
X0068276Y0082089D01*
X0069167Y0081509D01*
X0070044Y0080908D01*
X0070905Y0080286D01*
X0071751Y0079642D01*
X0072581Y0078978D01*
X0073394Y0078293D01*
X0074190Y0077589D01*
X0074969Y0076866D01*
X0075730Y0076124D01*
X0076472Y0075363D01*
X0077195Y0074584D01*
X0077899Y0073788D01*
X0078584Y0072975D01*
X0079248Y0072145D01*
X0079892Y0071299D01*
X0080514Y0070438D01*
X0081115Y0069561D01*
X0081695Y0068670D01*
X0082253Y0067765D01*
X0082788Y0066847D01*
X0083300Y0065916D01*
X0083790Y0064972D01*
X0084256Y0064017D01*
X0084699Y0063051D01*
X0085117Y0062074D01*
X0085512Y0061087D01*
X0085882Y0060091D01*
X0086228Y0059086D01*
X0086549Y0058072D01*
X0086845Y0057052D01*
X0087116Y0056024D01*
X0087362Y0054990D01*
X0087582Y0053950D01*
X0087776Y0052905D01*
X0087945Y0051855D01*
X0088088Y0050802D01*
X0088205Y0049746D01*
X0088297Y0048687D01*
X0088362Y0047626D01*
X0088401Y0046564D01*
X0088414Y0045501D01*
X0088401Y0044438D01*
X0088362Y0043376D01*
X0088297Y0042315D01*
X0088205Y0041256D01*
X0088088Y0040200D01*
X0087945Y0039147D01*
X0087776Y0038097D01*
X0087582Y0037052D01*
X0087362Y0036012D01*
X0087116Y0034978D01*
X0086845Y0033950D01*
X0086549Y0032930D01*
X0086228Y0031916D01*
X0085882Y0030911D01*
X0085512Y0029915D01*
X0085117Y0028928D01*
X0084699Y0027951D01*
X0084256Y0026985D01*
X0083790Y0026030D01*
X0083300Y0025086D01*
X0082788Y0024155D01*
X0082253Y0023237D01*
X0081695Y0022332D01*
X0081115Y0021441D01*
X0080514Y0020564D01*
X0079892Y0019703D01*
X0079248Y0018857D01*
X0078584Y0018027D01*
X0077899Y0017214D01*
X0077195Y0016418D01*
X0076472Y0015639D01*
X0075730Y0014878D01*
X0074969Y0014136D01*
X0074190Y0013413D01*
X0073394Y0012709D01*
X0072581Y0012024D01*
X0071751Y0011360D01*
X0070905Y0010716D01*
X0070044Y0010094D01*
X0069167Y0009493D01*
X0068276Y0008913D01*
X0067371Y0008355D01*
X0066453Y0007820D01*
X0065522Y0007308D01*
X0064578Y0006818D01*
X0063623Y0006352D01*
X0062657Y0005909D01*
X0061680Y0005491D01*
X0060693Y0005096D01*
X0059697Y0004726D01*
X0058692Y0004380D01*
X0057678Y0004059D01*
X0056658Y0003763D01*
X0055630Y0003492D01*
X0054596Y0003246D01*
X0053556Y0003026D01*
X0052511Y0002832D01*
X0051461Y0002663D01*
X0050408Y0002520D01*
X0049352Y0002403D01*
X0048293Y0002311D01*
X0047232Y0002246D01*
X0046170Y0002207D01*
X0045107Y0002194D01*
X0044044Y0002207D01*
X0042982Y0002246D01*
X0041921Y0002311D01*
X0040862Y0002403D01*
X0039806Y0002520D01*
X0038753Y0002663D01*
X0037703Y0002832D01*
X0036658Y0003026D01*
X0035618Y0003246D01*
X0034584Y0003492D01*
X0033556Y0003763D01*
X0032536Y0004059D01*
X0031522Y0004380D01*
X0030517Y0004726D01*
X0029521Y0005096D01*
X0028534Y0005491D01*
X0027557Y0005909D01*
X0026591Y0006352D01*
X0025636Y0006818D01*
X0024692Y0007308D01*
X0023761Y0007820D01*
X0022843Y0008355D01*
X0021938Y0008913D01*
X0021047Y0009493D01*
X0020170Y0010094D01*
X0019309Y0010716D01*
X0018463Y0011360D01*
X0017633Y0012024D01*
X0016820Y0012709D01*
X0016024Y0013413D01*
X0015245Y0014136D01*
X0014484Y0014878D01*
X0013742Y0015639D01*
X0013019Y0016418D01*
X0012315Y0017214D01*
X0011630Y0018027D01*
X0010966Y0018857D01*
X0010322Y0019703D01*
X0009700Y0020564D01*
X0009099Y0021441D01*
X0008519Y0022332D01*
X0007961Y0023237D01*
X0007426Y0024155D01*
X0006914Y0025086D01*
X0006424Y0026030D01*
X0005958Y0026985D01*
X0005515Y0027951D01*
X0005097Y0028928D01*
X0004702Y0029915D01*
X0004332Y0030911D01*
X0003986Y0031916D01*
X0003665Y0032930D01*
X0003369Y0033950D01*
X0003098Y0034978D01*
X0002852Y0036012D01*
X0002632Y0037052D01*
X0002438Y0038097D01*
X0002269Y0039147D01*
X0002126Y0040200D01*
X0002009Y0041256D01*
X0001917Y0042315D01*
X0001852Y0043376D01*
X0001813Y0044438D01*
X0001800Y0045501D01*
D11*
X0004360Y0045501D02*
X0004362Y0045680D01*
X0004369Y0045858D01*
X0004380Y0046037D01*
X0004395Y0046215D01*
X0004415Y0046393D01*
X0004439Y0046570D01*
X0004467Y0046746D01*
X0004500Y0046922D01*
X0004537Y0047097D01*
X0004578Y0047271D01*
X0004624Y0047443D01*
X0004674Y0047615D01*
X0004728Y0047786D01*
X0004786Y0047955D01*
X0004848Y0048122D01*
X0004914Y0048288D01*
X0004985Y0048452D01*
X0005059Y0048615D01*
X0005138Y0048776D01*
X0005220Y0048934D01*
X0005306Y0049091D01*
X0005396Y0049245D01*
X0005490Y0049397D01*
X0005587Y0049547D01*
X0005689Y0049695D01*
X0005793Y0049839D01*
X0005901Y0049982D01*
X0006013Y0050121D01*
X0006128Y0050258D01*
X0006247Y0050392D01*
X0006368Y0050523D01*
X0006493Y0050651D01*
X0006621Y0050776D01*
X0006752Y0050897D01*
X0006886Y0051016D01*
X0007023Y0051131D01*
X0007162Y0051243D01*
X0007305Y0051351D01*
X0007449Y0051455D01*
X0007597Y0051557D01*
X0007747Y0051654D01*
X0007899Y0051748D01*
X0008053Y0051838D01*
X0008210Y0051924D01*
X0008368Y0052006D01*
X0008529Y0052085D01*
X0008692Y0052159D01*
X0008856Y0052230D01*
X0009022Y0052296D01*
X0009189Y0052358D01*
X0009358Y0052416D01*
X0009529Y0052470D01*
X0009701Y0052520D01*
X0009873Y0052566D01*
X0010047Y0052607D01*
X0010222Y0052644D01*
X0010398Y0052677D01*
X0010574Y0052705D01*
X0010751Y0052729D01*
X0010929Y0052749D01*
X0011107Y0052764D01*
X0011286Y0052775D01*
X0011464Y0052782D01*
X0011643Y0052784D01*
X0011822Y0052782D01*
X0012000Y0052775D01*
X0012179Y0052764D01*
X0012357Y0052749D01*
X0012535Y0052729D01*
X0012712Y0052705D01*
X0012888Y0052677D01*
X0013064Y0052644D01*
X0013239Y0052607D01*
X0013413Y0052566D01*
X0013585Y0052520D01*
X0013757Y0052470D01*
X0013928Y0052416D01*
X0014097Y0052358D01*
X0014264Y0052296D01*
X0014430Y0052230D01*
X0014594Y0052159D01*
X0014757Y0052085D01*
X0014918Y0052006D01*
X0015076Y0051924D01*
X0015233Y0051838D01*
X0015387Y0051748D01*
X0015539Y0051654D01*
X0015689Y0051557D01*
X0015837Y0051455D01*
X0015981Y0051351D01*
X0016124Y0051243D01*
X0016263Y0051131D01*
X0016400Y0051016D01*
X0016534Y0050897D01*
X0016665Y0050776D01*
X0016793Y0050651D01*
X0016918Y0050523D01*
X0017039Y0050392D01*
X0017158Y0050258D01*
X0017273Y0050121D01*
X0017385Y0049982D01*
X0017493Y0049839D01*
X0017597Y0049695D01*
X0017699Y0049547D01*
X0017796Y0049397D01*
X0017890Y0049245D01*
X0017980Y0049091D01*
X0018066Y0048934D01*
X0018148Y0048776D01*
X0018227Y0048615D01*
X0018301Y0048452D01*
X0018372Y0048288D01*
X0018438Y0048122D01*
X0018500Y0047955D01*
X0018558Y0047786D01*
X0018612Y0047615D01*
X0018662Y0047443D01*
X0018708Y0047271D01*
X0018749Y0047097D01*
X0018786Y0046922D01*
X0018819Y0046746D01*
X0018847Y0046570D01*
X0018871Y0046393D01*
X0018891Y0046215D01*
X0018906Y0046037D01*
X0018917Y0045858D01*
X0018924Y0045680D01*
X0018926Y0045501D01*
X0018924Y0045322D01*
X0018917Y0045144D01*
X0018906Y0044965D01*
X0018891Y0044787D01*
X0018871Y0044609D01*
X0018847Y0044432D01*
X0018819Y0044256D01*
X0018786Y0044080D01*
X0018749Y0043905D01*
X0018708Y0043731D01*
X0018662Y0043559D01*
X0018612Y0043387D01*
X0018558Y0043216D01*
X0018500Y0043047D01*
X0018438Y0042880D01*
X0018372Y0042714D01*
X0018301Y0042550D01*
X0018227Y0042387D01*
X0018148Y0042226D01*
X0018066Y0042068D01*
X0017980Y0041911D01*
X0017890Y0041757D01*
X0017796Y0041605D01*
X0017699Y0041455D01*
X0017597Y0041307D01*
X0017493Y0041163D01*
X0017385Y0041020D01*
X0017273Y0040881D01*
X0017158Y0040744D01*
X0017039Y0040610D01*
X0016918Y0040479D01*
X0016793Y0040351D01*
X0016665Y0040226D01*
X0016534Y0040105D01*
X0016400Y0039986D01*
X0016263Y0039871D01*
X0016124Y0039759D01*
X0015981Y0039651D01*
X0015837Y0039547D01*
X0015689Y0039445D01*
X0015539Y0039348D01*
X0015387Y0039254D01*
X0015233Y0039164D01*
X0015076Y0039078D01*
X0014918Y0038996D01*
X0014757Y0038917D01*
X0014594Y0038843D01*
X0014430Y0038772D01*
X0014264Y0038706D01*
X0014097Y0038644D01*
X0013928Y0038586D01*
X0013757Y0038532D01*
X0013585Y0038482D01*
X0013413Y0038436D01*
X0013239Y0038395D01*
X0013064Y0038358D01*
X0012888Y0038325D01*
X0012712Y0038297D01*
X0012535Y0038273D01*
X0012357Y0038253D01*
X0012179Y0038238D01*
X0012000Y0038227D01*
X0011822Y0038220D01*
X0011643Y0038218D01*
X0011464Y0038220D01*
X0011286Y0038227D01*
X0011107Y0038238D01*
X0010929Y0038253D01*
X0010751Y0038273D01*
X0010574Y0038297D01*
X0010398Y0038325D01*
X0010222Y0038358D01*
X0010047Y0038395D01*
X0009873Y0038436D01*
X0009701Y0038482D01*
X0009529Y0038532D01*
X0009358Y0038586D01*
X0009189Y0038644D01*
X0009022Y0038706D01*
X0008856Y0038772D01*
X0008692Y0038843D01*
X0008529Y0038917D01*
X0008368Y0038996D01*
X0008210Y0039078D01*
X0008053Y0039164D01*
X0007899Y0039254D01*
X0007747Y0039348D01*
X0007597Y0039445D01*
X0007449Y0039547D01*
X0007305Y0039651D01*
X0007162Y0039759D01*
X0007023Y0039871D01*
X0006886Y0039986D01*
X0006752Y0040105D01*
X0006621Y0040226D01*
X0006493Y0040351D01*
X0006368Y0040479D01*
X0006247Y0040610D01*
X0006128Y0040744D01*
X0006013Y0040881D01*
X0005901Y0041020D01*
X0005793Y0041163D01*
X0005689Y0041307D01*
X0005587Y0041455D01*
X0005490Y0041605D01*
X0005396Y0041757D01*
X0005306Y0041911D01*
X0005220Y0042068D01*
X0005138Y0042226D01*
X0005059Y0042387D01*
X0004985Y0042550D01*
X0004914Y0042714D01*
X0004848Y0042880D01*
X0004786Y0043047D01*
X0004728Y0043216D01*
X0004674Y0043387D01*
X0004624Y0043559D01*
X0004578Y0043731D01*
X0004537Y0043905D01*
X0004500Y0044080D01*
X0004467Y0044256D01*
X0004439Y0044432D01*
X0004415Y0044609D01*
X0004395Y0044787D01*
X0004380Y0044965D01*
X0004369Y0045144D01*
X0004362Y0045322D01*
X0004360Y0045501D01*
X0071289Y0045501D02*
X0071291Y0045680D01*
X0071298Y0045858D01*
X0071309Y0046037D01*
X0071324Y0046215D01*
X0071344Y0046393D01*
X0071368Y0046570D01*
X0071396Y0046746D01*
X0071429Y0046922D01*
X0071466Y0047097D01*
X0071507Y0047271D01*
X0071553Y0047443D01*
X0071603Y0047615D01*
X0071657Y0047786D01*
X0071715Y0047955D01*
X0071777Y0048122D01*
X0071843Y0048288D01*
X0071914Y0048452D01*
X0071988Y0048615D01*
X0072067Y0048776D01*
X0072149Y0048934D01*
X0072235Y0049091D01*
X0072325Y0049245D01*
X0072419Y0049397D01*
X0072516Y0049547D01*
X0072618Y0049695D01*
X0072722Y0049839D01*
X0072830Y0049982D01*
X0072942Y0050121D01*
X0073057Y0050258D01*
X0073176Y0050392D01*
X0073297Y0050523D01*
X0073422Y0050651D01*
X0073550Y0050776D01*
X0073681Y0050897D01*
X0073815Y0051016D01*
X0073952Y0051131D01*
X0074091Y0051243D01*
X0074234Y0051351D01*
X0074378Y0051455D01*
X0074526Y0051557D01*
X0074676Y0051654D01*
X0074828Y0051748D01*
X0074982Y0051838D01*
X0075139Y0051924D01*
X0075297Y0052006D01*
X0075458Y0052085D01*
X0075621Y0052159D01*
X0075785Y0052230D01*
X0075951Y0052296D01*
X0076118Y0052358D01*
X0076287Y0052416D01*
X0076458Y0052470D01*
X0076630Y0052520D01*
X0076802Y0052566D01*
X0076976Y0052607D01*
X0077151Y0052644D01*
X0077327Y0052677D01*
X0077503Y0052705D01*
X0077680Y0052729D01*
X0077858Y0052749D01*
X0078036Y0052764D01*
X0078215Y0052775D01*
X0078393Y0052782D01*
X0078572Y0052784D01*
X0078751Y0052782D01*
X0078929Y0052775D01*
X0079108Y0052764D01*
X0079286Y0052749D01*
X0079464Y0052729D01*
X0079641Y0052705D01*
X0079817Y0052677D01*
X0079993Y0052644D01*
X0080168Y0052607D01*
X0080342Y0052566D01*
X0080514Y0052520D01*
X0080686Y0052470D01*
X0080857Y0052416D01*
X0081026Y0052358D01*
X0081193Y0052296D01*
X0081359Y0052230D01*
X0081523Y0052159D01*
X0081686Y0052085D01*
X0081847Y0052006D01*
X0082005Y0051924D01*
X0082162Y0051838D01*
X0082316Y0051748D01*
X0082468Y0051654D01*
X0082618Y0051557D01*
X0082766Y0051455D01*
X0082910Y0051351D01*
X0083053Y0051243D01*
X0083192Y0051131D01*
X0083329Y0051016D01*
X0083463Y0050897D01*
X0083594Y0050776D01*
X0083722Y0050651D01*
X0083847Y0050523D01*
X0083968Y0050392D01*
X0084087Y0050258D01*
X0084202Y0050121D01*
X0084314Y0049982D01*
X0084422Y0049839D01*
X0084526Y0049695D01*
X0084628Y0049547D01*
X0084725Y0049397D01*
X0084819Y0049245D01*
X0084909Y0049091D01*
X0084995Y0048934D01*
X0085077Y0048776D01*
X0085156Y0048615D01*
X0085230Y0048452D01*
X0085301Y0048288D01*
X0085367Y0048122D01*
X0085429Y0047955D01*
X0085487Y0047786D01*
X0085541Y0047615D01*
X0085591Y0047443D01*
X0085637Y0047271D01*
X0085678Y0047097D01*
X0085715Y0046922D01*
X0085748Y0046746D01*
X0085776Y0046570D01*
X0085800Y0046393D01*
X0085820Y0046215D01*
X0085835Y0046037D01*
X0085846Y0045858D01*
X0085853Y0045680D01*
X0085855Y0045501D01*
X0085853Y0045322D01*
X0085846Y0045144D01*
X0085835Y0044965D01*
X0085820Y0044787D01*
X0085800Y0044609D01*
X0085776Y0044432D01*
X0085748Y0044256D01*
X0085715Y0044080D01*
X0085678Y0043905D01*
X0085637Y0043731D01*
X0085591Y0043559D01*
X0085541Y0043387D01*
X0085487Y0043216D01*
X0085429Y0043047D01*
X0085367Y0042880D01*
X0085301Y0042714D01*
X0085230Y0042550D01*
X0085156Y0042387D01*
X0085077Y0042226D01*
X0084995Y0042068D01*
X0084909Y0041911D01*
X0084819Y0041757D01*
X0084725Y0041605D01*
X0084628Y0041455D01*
X0084526Y0041307D01*
X0084422Y0041163D01*
X0084314Y0041020D01*
X0084202Y0040881D01*
X0084087Y0040744D01*
X0083968Y0040610D01*
X0083847Y0040479D01*
X0083722Y0040351D01*
X0083594Y0040226D01*
X0083463Y0040105D01*
X0083329Y0039986D01*
X0083192Y0039871D01*
X0083053Y0039759D01*
X0082910Y0039651D01*
X0082766Y0039547D01*
X0082618Y0039445D01*
X0082468Y0039348D01*
X0082316Y0039254D01*
X0082162Y0039164D01*
X0082005Y0039078D01*
X0081847Y0038996D01*
X0081686Y0038917D01*
X0081523Y0038843D01*
X0081359Y0038772D01*
X0081193Y0038706D01*
X0081026Y0038644D01*
X0080857Y0038586D01*
X0080686Y0038532D01*
X0080514Y0038482D01*
X0080342Y0038436D01*
X0080168Y0038395D01*
X0079993Y0038358D01*
X0079817Y0038325D01*
X0079641Y0038297D01*
X0079464Y0038273D01*
X0079286Y0038253D01*
X0079108Y0038238D01*
X0078929Y0038227D01*
X0078751Y0038220D01*
X0078572Y0038218D01*
X0078393Y0038220D01*
X0078215Y0038227D01*
X0078036Y0038238D01*
X0077858Y0038253D01*
X0077680Y0038273D01*
X0077503Y0038297D01*
X0077327Y0038325D01*
X0077151Y0038358D01*
X0076976Y0038395D01*
X0076802Y0038436D01*
X0076630Y0038482D01*
X0076458Y0038532D01*
X0076287Y0038586D01*
X0076118Y0038644D01*
X0075951Y0038706D01*
X0075785Y0038772D01*
X0075621Y0038843D01*
X0075458Y0038917D01*
X0075297Y0038996D01*
X0075139Y0039078D01*
X0074982Y0039164D01*
X0074828Y0039254D01*
X0074676Y0039348D01*
X0074526Y0039445D01*
X0074378Y0039547D01*
X0074234Y0039651D01*
X0074091Y0039759D01*
X0073952Y0039871D01*
X0073815Y0039986D01*
X0073681Y0040105D01*
X0073550Y0040226D01*
X0073422Y0040351D01*
X0073297Y0040479D01*
X0073176Y0040610D01*
X0073057Y0040744D01*
X0072942Y0040881D01*
X0072830Y0041020D01*
X0072722Y0041163D01*
X0072618Y0041307D01*
X0072516Y0041455D01*
X0072419Y0041605D01*
X0072325Y0041757D01*
X0072235Y0041911D01*
X0072149Y0042068D01*
X0072067Y0042226D01*
X0071988Y0042387D01*
X0071914Y0042550D01*
X0071843Y0042714D01*
X0071777Y0042880D01*
X0071715Y0043047D01*
X0071657Y0043216D01*
X0071603Y0043387D01*
X0071553Y0043559D01*
X0071507Y0043731D01*
X0071466Y0043905D01*
X0071429Y0044080D01*
X0071396Y0044256D01*
X0071368Y0044432D01*
X0071344Y0044609D01*
X0071324Y0044787D01*
X0071309Y0044965D01*
X0071298Y0045144D01*
X0071291Y0045322D01*
X0071289Y0045501D01*
D12*
X0045107Y0050501D03*
X0045107Y0040501D03*
D13*
X0040107Y0073060D03*
X0050107Y0073060D03*
D14*
X0057509Y0071091D03*
X0064202Y0071091D03*
X0038611Y0040383D03*
X0031918Y0040383D03*
D15*
X0057902Y0038611D03*
D16*
X0053965Y0051702D03*
X0061839Y0051702D03*
D17*
X0057902Y0023454D03*
X0045107Y0023454D03*
X0032312Y0023454D03*
D18*
X0018564Y0017739D02*
X0014034Y0022925D01*
X0010502Y0028836D01*
X0008641Y0033795D01*
X0010052Y0033417D01*
X0013233Y0033417D01*
X0016307Y0034241D01*
X0019062Y0035832D01*
X0021312Y0038081D01*
X0022903Y0040837D01*
X0023726Y0043910D01*
X0023726Y0047092D01*
X0022903Y0050165D01*
X0021312Y0052920D01*
X0019062Y0055170D01*
X0016307Y0056761D01*
X0013233Y0057584D01*
X0010052Y0057584D01*
X0008641Y0057206D01*
X0010502Y0062166D01*
X0014034Y0068077D01*
X0018564Y0073262D01*
X0023948Y0077556D01*
X0030012Y0080819D01*
X0036560Y0082946D01*
X0043384Y0083871D01*
X0050263Y0083562D01*
X0056976Y0082030D01*
X0063308Y0079323D01*
X0069054Y0075530D01*
X0074032Y0070771D01*
X0078079Y0065201D01*
X0081067Y0058997D01*
X0081560Y0057210D01*
X0080162Y0057584D01*
X0076981Y0057584D01*
X0073908Y0056761D01*
X0071152Y0055170D01*
X0068902Y0052920D01*
X0067312Y0050165D01*
X0066488Y0047092D01*
X0066488Y0043910D01*
X0067312Y0040837D01*
X0068902Y0038081D01*
X0071152Y0035832D01*
X0073908Y0034241D01*
X0076981Y0033417D01*
X0080162Y0033417D01*
X0081560Y0033792D01*
X0081067Y0032005D01*
X0078079Y0025801D01*
X0074032Y0020230D01*
X0074032Y0020230D01*
X0069055Y0015472D01*
X0063308Y0011678D01*
X0056976Y0008972D01*
X0050263Y0007440D01*
X0043384Y0007131D01*
X0036560Y0008055D01*
X0030012Y0010183D01*
X0023948Y0013446D01*
X0018564Y0017739D01*
X0018180Y0018179D02*
X0028022Y0018179D01*
X0028012Y0018217D02*
X0028134Y0017759D01*
X0028371Y0017348D01*
X0028707Y0017013D01*
X0029117Y0016776D01*
X0029575Y0016654D01*
X0031862Y0016654D01*
X0031862Y0023003D01*
X0032762Y0023003D01*
X0032762Y0016654D01*
X0035049Y0016654D01*
X0035507Y0016776D01*
X0035917Y0017013D01*
X0036252Y0017348D01*
X0036489Y0017759D01*
X0036612Y0018217D01*
X0036612Y0023004D01*
X0032762Y0023004D01*
X0032762Y0023904D01*
X0031862Y0023904D01*
X0031862Y0030254D01*
X0029575Y0030254D01*
X0029117Y0030131D01*
X0028707Y0029894D01*
X0028371Y0029559D01*
X0028134Y0029148D01*
X0028012Y0028691D01*
X0028012Y0023904D01*
X0031862Y0023904D01*
X0031862Y0023004D01*
X0028012Y0023004D01*
X0028012Y0018217D01*
X0028012Y0019777D02*
X0016784Y0019777D01*
X0015387Y0021376D02*
X0028012Y0021376D01*
X0028012Y0022974D02*
X0014004Y0022974D01*
X0013049Y0024573D02*
X0028012Y0024573D01*
X0028012Y0026171D02*
X0012094Y0026171D01*
X0011139Y0027770D02*
X0028012Y0027770D01*
X0028262Y0029368D02*
X0010302Y0029368D01*
X0009702Y0030967D02*
X0025163Y0030967D01*
X0024968Y0031048D02*
X0026285Y0030502D01*
X0027709Y0030502D01*
X0029025Y0031048D01*
X0030033Y0032055D01*
X0030578Y0033371D01*
X0030578Y0034796D01*
X0030033Y0036112D01*
X0029727Y0036417D01*
X0031734Y0036417D01*
X0031734Y0040198D01*
X0032102Y0040198D01*
X0032102Y0036417D01*
X0034124Y0036417D01*
X0034581Y0036540D01*
X0034992Y0036777D01*
X0035327Y0037112D01*
X0035385Y0037212D01*
X0035980Y0036617D01*
X0036350Y0036617D01*
X0036576Y0036070D01*
X0038770Y0033877D01*
X0038770Y0032977D01*
X0039315Y0031661D01*
X0040323Y0030654D01*
X0041639Y0030109D01*
X0043064Y0030109D01*
X0044380Y0030654D01*
X0045387Y0031661D01*
X0045932Y0032977D01*
X0045932Y0034402D01*
X0045387Y0035718D01*
X0044779Y0036326D01*
X0045937Y0036326D01*
X0047472Y0036962D01*
X0048646Y0038136D01*
X0049282Y0039670D01*
X0049282Y0041331D01*
X0048646Y0042866D01*
X0047472Y0044040D01*
X0045937Y0044676D01*
X0044277Y0044676D01*
X0042742Y0044040D01*
X0042046Y0043344D01*
X0041242Y0044148D01*
X0035980Y0044148D01*
X0035385Y0043553D01*
X0035327Y0043653D01*
X0034992Y0043988D01*
X0034581Y0044225D01*
X0034124Y0044348D01*
X0032102Y0044348D01*
X0032102Y0040567D01*
X0031734Y0040567D01*
X0031734Y0044348D01*
X0029713Y0044348D01*
X0029397Y0044263D01*
X0029397Y0044507D01*
X0042142Y0057252D01*
X0042507Y0058134D01*
X0042507Y0069520D01*
X0044307Y0071320D01*
X0044307Y0074800D01*
X0041847Y0077260D01*
X0038367Y0077260D01*
X0035907Y0074800D01*
X0035907Y0071320D01*
X0037707Y0069520D01*
X0037707Y0059605D01*
X0025637Y0047535D01*
X0024962Y0046860D01*
X0024597Y0045978D01*
X0024597Y0036748D01*
X0023961Y0036112D01*
X0023416Y0034796D01*
X0023416Y0033371D01*
X0023961Y0032055D01*
X0024968Y0031048D01*
X0023749Y0032565D02*
X0009102Y0032565D01*
X0016020Y0034164D02*
X0023416Y0034164D01*
X0023816Y0035762D02*
X0018942Y0035762D01*
X0020591Y0037361D02*
X0024597Y0037361D01*
X0024597Y0038959D02*
X0021819Y0038959D01*
X0022742Y0040558D02*
X0024597Y0040558D01*
X0024597Y0042156D02*
X0023256Y0042156D01*
X0023684Y0043755D02*
X0024597Y0043755D01*
X0024597Y0045354D02*
X0023726Y0045354D01*
X0023726Y0046952D02*
X0025054Y0046952D01*
X0025637Y0047535D02*
X0025637Y0047535D01*
X0026652Y0048551D02*
X0023335Y0048551D01*
X0022907Y0050149D02*
X0028251Y0050149D01*
X0029850Y0051748D02*
X0021989Y0051748D01*
X0020886Y0053346D02*
X0031448Y0053346D01*
X0033047Y0054945D02*
X0019287Y0054945D01*
X0016684Y0056543D02*
X0034645Y0056543D01*
X0036244Y0058142D02*
X0008992Y0058142D01*
X0009592Y0059740D02*
X0037707Y0059740D01*
X0037707Y0061339D02*
X0010192Y0061339D01*
X0010963Y0062937D02*
X0037707Y0062937D01*
X0037707Y0064536D02*
X0011918Y0064536D01*
X0012873Y0066134D02*
X0037707Y0066134D01*
X0037707Y0067733D02*
X0013828Y0067733D01*
X0015130Y0069331D02*
X0037707Y0069331D01*
X0036298Y0070930D02*
X0016526Y0070930D01*
X0017923Y0072528D02*
X0035907Y0072528D01*
X0035907Y0074127D02*
X0019648Y0074127D01*
X0021653Y0075725D02*
X0036833Y0075725D01*
X0040107Y0073060D02*
X0040107Y0058611D01*
X0026997Y0045501D01*
X0026997Y0034083D01*
X0028831Y0030967D02*
X0040010Y0030967D01*
X0038941Y0032565D02*
X0030244Y0032565D01*
X0030578Y0034164D02*
X0038483Y0034164D01*
X0036884Y0035762D02*
X0030178Y0035762D01*
X0032115Y0036052D02*
X0032115Y0040186D01*
X0031918Y0040383D01*
X0031734Y0038959D02*
X0032102Y0038959D01*
X0032102Y0037361D02*
X0031734Y0037361D01*
X0032115Y0036052D02*
X0034871Y0033296D01*
X0035049Y0030254D02*
X0032762Y0030254D01*
X0032762Y0023904D01*
X0036612Y0023904D01*
X0036612Y0028691D01*
X0036489Y0029148D01*
X0036252Y0029559D01*
X0035917Y0029894D01*
X0035507Y0030131D01*
X0035049Y0030254D01*
X0036362Y0029368D02*
X0041259Y0029368D01*
X0041007Y0029116D02*
X0041007Y0017791D01*
X0041944Y0016854D01*
X0042104Y0016854D01*
X0041677Y0016427D01*
X0041132Y0015111D01*
X0041132Y0013686D01*
X0041677Y0012370D01*
X0042685Y0011363D01*
X0044001Y0010817D01*
X0045426Y0010817D01*
X0046742Y0011363D01*
X0047749Y0012370D01*
X0048294Y0013686D01*
X0048294Y0015111D01*
X0047749Y0016427D01*
X0047323Y0016854D01*
X0048270Y0016854D01*
X0049207Y0017791D01*
X0049207Y0029116D01*
X0048270Y0030054D01*
X0041944Y0030054D01*
X0041007Y0029116D01*
X0041007Y0027770D02*
X0036612Y0027770D01*
X0036612Y0026171D02*
X0041007Y0026171D01*
X0041007Y0024573D02*
X0036612Y0024573D01*
X0036612Y0022974D02*
X0041007Y0022974D01*
X0041007Y0021376D02*
X0036612Y0021376D01*
X0036612Y0019777D02*
X0041007Y0019777D01*
X0041007Y0018179D02*
X0036602Y0018179D01*
X0032762Y0018179D02*
X0031862Y0018179D01*
X0031862Y0019777D02*
X0032762Y0019777D01*
X0032762Y0021376D02*
X0031862Y0021376D01*
X0031862Y0022974D02*
X0032762Y0022974D01*
X0032762Y0024573D02*
X0031862Y0024573D01*
X0031862Y0026171D02*
X0032762Y0026171D01*
X0032762Y0027770D02*
X0031862Y0027770D01*
X0031862Y0029368D02*
X0032762Y0029368D01*
X0038611Y0037430D02*
X0042351Y0033690D01*
X0044693Y0030967D02*
X0047884Y0030967D01*
X0048197Y0030654D02*
X0049513Y0030109D01*
X0050938Y0030109D01*
X0052254Y0030654D01*
X0052890Y0031290D01*
X0053458Y0031290D01*
X0054341Y0031655D01*
X0056547Y0033861D01*
X0061518Y0033861D01*
X0062455Y0034799D01*
X0062455Y0042423D01*
X0061518Y0043361D01*
X0054287Y0043361D01*
X0053350Y0042423D01*
X0053350Y0037452D01*
X0052438Y0036541D01*
X0052254Y0036726D01*
X0050938Y0037271D01*
X0049513Y0037271D01*
X0048197Y0036726D01*
X0047189Y0035718D01*
X0046644Y0034402D01*
X0046644Y0032977D01*
X0047189Y0031661D01*
X0048197Y0030654D01*
X0048955Y0029368D02*
X0054054Y0029368D01*
X0053802Y0029116D02*
X0053802Y0017791D01*
X0054740Y0016854D01*
X0061065Y0016854D01*
X0062002Y0017791D01*
X0062002Y0021054D01*
X0064096Y0021054D01*
X0064732Y0020418D01*
X0066048Y0019872D01*
X0067473Y0019872D01*
X0068789Y0020418D01*
X0069797Y0021425D01*
X0070342Y0022741D01*
X0070342Y0024166D01*
X0069797Y0025482D01*
X0068789Y0026489D01*
X0067473Y0027035D01*
X0066048Y0027035D01*
X0064732Y0026489D01*
X0064096Y0025854D01*
X0062002Y0025854D01*
X0062002Y0029116D01*
X0061065Y0030054D01*
X0054740Y0030054D01*
X0053802Y0029116D01*
X0053802Y0027770D02*
X0049207Y0027770D01*
X0049207Y0026171D02*
X0053802Y0026171D01*
X0053802Y0024573D02*
X0049207Y0024573D01*
X0049207Y0022974D02*
X0053802Y0022974D01*
X0053802Y0021376D02*
X0049207Y0021376D01*
X0049207Y0019777D02*
X0053802Y0019777D01*
X0053802Y0018179D02*
X0049207Y0018179D01*
X0047596Y0016580D02*
X0070214Y0016580D01*
X0071886Y0018179D02*
X0062002Y0018179D01*
X0062002Y0019777D02*
X0073558Y0019777D01*
X0074864Y0021376D02*
X0069747Y0021376D01*
X0070342Y0022974D02*
X0076025Y0022974D01*
X0077187Y0024573D02*
X0070173Y0024573D01*
X0069107Y0026171D02*
X0078257Y0026171D01*
X0079027Y0027770D02*
X0062002Y0027770D01*
X0062002Y0026171D02*
X0064414Y0026171D01*
X0066761Y0023454D02*
X0057902Y0023454D01*
X0061750Y0029368D02*
X0079797Y0029368D01*
X0080567Y0030967D02*
X0052567Y0030967D01*
X0052981Y0033690D02*
X0050225Y0033690D01*
X0052981Y0033690D02*
X0057902Y0038611D01*
X0053350Y0038959D02*
X0048987Y0038959D01*
X0047871Y0037361D02*
X0053258Y0037361D01*
X0053350Y0040558D02*
X0049282Y0040558D01*
X0048940Y0042156D02*
X0053350Y0042156D01*
X0050940Y0047739D02*
X0056990Y0047739D01*
X0057835Y0048584D01*
X0058037Y0048234D01*
X0058372Y0047899D01*
X0058782Y0047662D01*
X0059240Y0047539D01*
X0061458Y0047539D01*
X0061458Y0051320D01*
X0062220Y0051320D01*
X0062220Y0047539D01*
X0064439Y0047539D01*
X0064896Y0047662D01*
X0065307Y0047899D01*
X0065642Y0048234D01*
X0065879Y0048645D01*
X0066002Y0049102D01*
X0066002Y0051320D01*
X0062221Y0051320D01*
X0062221Y0052083D01*
X0066002Y0052083D01*
X0066002Y0054301D01*
X0065879Y0054759D01*
X0065642Y0055169D01*
X0065307Y0055504D01*
X0064896Y0055741D01*
X0064439Y0055864D01*
X0062220Y0055864D01*
X0062220Y0052083D01*
X0061458Y0052083D01*
X0061458Y0055864D01*
X0059240Y0055864D01*
X0058782Y0055741D01*
X0058372Y0055504D01*
X0058037Y0055169D01*
X0057835Y0054819D01*
X0056990Y0055664D01*
X0050940Y0055664D01*
X0050003Y0054727D01*
X0050003Y0054102D01*
X0047323Y0054102D01*
X0045937Y0054676D01*
X0044277Y0054676D01*
X0042742Y0054040D01*
X0041568Y0052866D01*
X0040932Y0051331D01*
X0040932Y0049670D01*
X0041568Y0048136D01*
X0042742Y0046962D01*
X0044277Y0046326D01*
X0045937Y0046326D01*
X0047472Y0046962D01*
X0048646Y0048136D01*
X0049129Y0049302D01*
X0050003Y0049302D01*
X0050003Y0048677D01*
X0050940Y0047739D01*
X0050129Y0048551D02*
X0048818Y0048551D01*
X0047449Y0046952D02*
X0066488Y0046952D01*
X0066488Y0045354D02*
X0030244Y0045354D01*
X0031734Y0043755D02*
X0032102Y0043755D01*
X0032102Y0042156D02*
X0031734Y0042156D01*
X0035225Y0043755D02*
X0035587Y0043755D01*
X0038611Y0040383D02*
X0038611Y0037430D01*
X0038611Y0040383D02*
X0044989Y0040383D01*
X0045107Y0040501D01*
X0042457Y0043755D02*
X0041635Y0043755D01*
X0042765Y0046952D02*
X0031842Y0046952D01*
X0033441Y0048551D02*
X0041396Y0048551D01*
X0040932Y0050149D02*
X0035039Y0050149D01*
X0036638Y0051748D02*
X0041105Y0051748D01*
X0042048Y0053346D02*
X0038236Y0053346D01*
X0039835Y0054945D02*
X0050221Y0054945D01*
X0053965Y0051702D02*
X0046308Y0051702D01*
X0045107Y0050501D01*
X0041433Y0056543D02*
X0073531Y0056543D01*
X0070927Y0054945D02*
X0065772Y0054945D01*
X0066002Y0053346D02*
X0069328Y0053346D01*
X0068225Y0051748D02*
X0062221Y0051748D01*
X0062220Y0053346D02*
X0061458Y0053346D01*
X0061458Y0054945D02*
X0062220Y0054945D01*
X0057907Y0054945D02*
X0057709Y0054945D01*
X0061458Y0050149D02*
X0062220Y0050149D01*
X0062220Y0048551D02*
X0061458Y0048551D01*
X0057854Y0048551D02*
X0057801Y0048551D01*
X0062455Y0042156D02*
X0066958Y0042156D01*
X0066530Y0043755D02*
X0047757Y0043755D01*
X0047233Y0035762D02*
X0045343Y0035762D01*
X0045932Y0034164D02*
X0046644Y0034164D01*
X0046815Y0032565D02*
X0045762Y0032565D01*
X0045107Y0023454D02*
X0044713Y0023060D01*
X0044713Y0014398D01*
X0042263Y0011785D02*
X0027035Y0011785D01*
X0024064Y0013383D02*
X0041258Y0013383D01*
X0041132Y0014982D02*
X0022022Y0014982D01*
X0020017Y0016580D02*
X0041831Y0016580D01*
X0047164Y0011785D02*
X0063469Y0011785D01*
X0065891Y0013383D02*
X0048169Y0013383D01*
X0048294Y0014982D02*
X0068312Y0014982D01*
X0059817Y0010186D02*
X0030005Y0010186D01*
X0034921Y0008588D02*
X0055293Y0008588D01*
X0055251Y0032565D02*
X0081221Y0032565D01*
X0074194Y0034164D02*
X0061820Y0034164D01*
X0062455Y0035762D02*
X0071272Y0035762D01*
X0069623Y0037361D02*
X0062455Y0037361D01*
X0062455Y0038959D02*
X0068395Y0038959D01*
X0067473Y0040558D02*
X0062455Y0040558D01*
X0065825Y0048551D02*
X0066879Y0048551D01*
X0067307Y0050149D02*
X0066002Y0050149D01*
X0079169Y0062937D02*
X0042507Y0062937D01*
X0042507Y0061339D02*
X0079939Y0061339D01*
X0080709Y0059740D02*
X0042507Y0059740D01*
X0042507Y0058142D02*
X0081303Y0058142D01*
X0078399Y0064536D02*
X0042507Y0064536D01*
X0042507Y0066134D02*
X0077401Y0066134D01*
X0076239Y0067733D02*
X0067522Y0067733D01*
X0067610Y0067821D02*
X0067847Y0068231D01*
X0067970Y0068689D01*
X0067970Y0070907D01*
X0064386Y0070907D01*
X0064386Y0071276D01*
X0064017Y0071276D01*
X0064017Y0075057D01*
X0061996Y0075057D01*
X0061538Y0074934D01*
X0061128Y0074697D01*
X0060793Y0074362D01*
X0060735Y0074262D01*
X0060140Y0074857D01*
X0057137Y0074857D01*
X0056900Y0075094D01*
X0056018Y0075460D01*
X0053647Y0075460D01*
X0051847Y0077260D01*
X0048367Y0077260D01*
X0045907Y0074800D01*
X0045907Y0071320D01*
X0048367Y0068860D01*
X0051847Y0068860D01*
X0053647Y0070660D01*
X0053940Y0070660D01*
X0053940Y0068263D01*
X0054877Y0067326D01*
X0060140Y0067326D01*
X0060735Y0067921D01*
X0060793Y0067821D01*
X0061128Y0067486D01*
X0061538Y0067249D01*
X0061996Y0067126D01*
X0064017Y0067126D01*
X0064017Y0070907D01*
X0064386Y0070907D01*
X0064386Y0067126D01*
X0066407Y0067126D01*
X0066865Y0067249D01*
X0067275Y0067486D01*
X0067610Y0067821D01*
X0067970Y0069331D02*
X0075078Y0069331D01*
X0073866Y0070930D02*
X0064386Y0070930D01*
X0064386Y0071276D02*
X0067970Y0071276D01*
X0067970Y0073494D01*
X0067847Y0073951D01*
X0067610Y0074362D01*
X0067275Y0074697D01*
X0066865Y0074934D01*
X0066407Y0075057D01*
X0064386Y0075057D01*
X0064386Y0071276D01*
X0064386Y0072528D02*
X0064017Y0072528D01*
X0064017Y0074127D02*
X0064386Y0074127D01*
X0067746Y0074127D02*
X0070522Y0074127D01*
X0072194Y0072528D02*
X0067970Y0072528D01*
X0068759Y0075725D02*
X0053381Y0075725D01*
X0055540Y0073060D02*
X0057509Y0071091D01*
X0055540Y0073060D02*
X0050107Y0073060D01*
X0046833Y0075725D02*
X0043381Y0075725D01*
X0044307Y0074127D02*
X0045907Y0074127D01*
X0045907Y0072528D02*
X0044307Y0072528D01*
X0043917Y0070930D02*
X0046298Y0070930D01*
X0047896Y0069331D02*
X0042507Y0069331D01*
X0042507Y0067733D02*
X0054471Y0067733D01*
X0053940Y0069331D02*
X0052318Y0069331D01*
X0060547Y0067733D02*
X0060881Y0067733D01*
X0064017Y0067733D02*
X0064386Y0067733D01*
X0064386Y0069331D02*
X0064017Y0069331D01*
X0066337Y0077324D02*
X0023657Y0077324D01*
X0026487Y0078922D02*
X0063915Y0078922D01*
X0060506Y0080521D02*
X0029458Y0080521D01*
X0034014Y0082119D02*
X0056583Y0082119D01*
X0046790Y0083718D02*
X0042254Y0083718D01*
D19*
X0042351Y0033690D03*
X0034871Y0033296D03*
X0026997Y0034083D03*
X0044713Y0014398D03*
X0050225Y0033690D03*
X0066761Y0023454D03*
M02*
