G75*
%MOIN*%
%OFA0B0*%
%FSLAX25Y25*%
%IPPOS*%
%LPD*%
%AMOC8*
5,1,8,0,0,1.08239X$1,22.5*
%
%ADD10C,0.05150*%
%ADD11R,0.08661X0.02362*%
%ADD12OC8,0.05200*%
%ADD13R,0.04331X0.03937*%
%ADD14C,0.03962*%
%ADD15C,0.01600*%
D10*
X0045107Y0040501D03*
X0045107Y0050501D03*
D11*
X0034871Y0028198D03*
X0034871Y0023198D03*
X0034871Y0018198D03*
X0034871Y0013198D03*
X0055343Y0013198D03*
X0055343Y0018198D03*
X0055343Y0023198D03*
X0055343Y0028198D03*
D12*
X0050107Y0073060D03*
X0040107Y0073060D03*
D13*
X0066170Y0030540D03*
X0072863Y0030540D03*
D14*
X0066761Y0023454D03*
X0050225Y0033690D03*
X0042351Y0033690D03*
X0034871Y0033296D03*
X0026997Y0034083D03*
X0044713Y0014398D03*
D15*
X0018564Y0017739D02*
X0014034Y0022925D01*
X0010502Y0028836D01*
X0008641Y0033795D01*
X0010052Y0033417D01*
X0013233Y0033417D01*
X0016307Y0034241D01*
X0019062Y0035832D01*
X0021312Y0038081D01*
X0022903Y0040837D01*
X0023726Y0043910D01*
X0023726Y0047092D01*
X0022903Y0050165D01*
X0021312Y0052920D01*
X0019062Y0055170D01*
X0016307Y0056761D01*
X0013233Y0057584D01*
X0010052Y0057584D01*
X0008641Y0057206D01*
X0010502Y0062166D01*
X0014034Y0068077D01*
X0018564Y0073262D01*
X0023948Y0077556D01*
X0030012Y0080819D01*
X0036560Y0082946D01*
X0043384Y0083871D01*
X0050263Y0083562D01*
X0056976Y0082030D01*
X0063308Y0079323D01*
X0069054Y0075530D01*
X0074032Y0070771D01*
X0078079Y0065201D01*
X0081067Y0058997D01*
X0081560Y0057210D01*
X0080162Y0057584D01*
X0076981Y0057584D01*
X0073908Y0056761D01*
X0071152Y0055170D01*
X0068902Y0052920D01*
X0067312Y0050165D01*
X0066488Y0047092D01*
X0066488Y0043910D01*
X0067312Y0040837D01*
X0067435Y0040623D01*
X0049282Y0050896D01*
X0049282Y0051331D01*
X0048646Y0052866D01*
X0047472Y0054040D01*
X0045937Y0054676D01*
X0044277Y0054676D01*
X0042742Y0054040D01*
X0041568Y0052866D01*
X0040932Y0051331D01*
X0040932Y0049670D01*
X0041568Y0048136D01*
X0042742Y0046962D01*
X0044277Y0046326D01*
X0045937Y0046326D01*
X0046904Y0046726D01*
X0067808Y0034896D01*
X0068123Y0034309D01*
X0066354Y0034309D01*
X0066354Y0030724D01*
X0065986Y0030724D01*
X0065986Y0030356D01*
X0062205Y0030356D01*
X0062205Y0028335D01*
X0062327Y0027877D01*
X0062564Y0027466D01*
X0062899Y0027131D01*
X0063310Y0026894D01*
X0063768Y0026772D01*
X0065413Y0026772D01*
X0064732Y0026489D01*
X0063725Y0025482D01*
X0063180Y0024166D01*
X0063180Y0022741D01*
X0063725Y0021425D01*
X0064106Y0021044D01*
X0061274Y0018211D01*
X0061274Y0020041D01*
X0060754Y0020562D01*
X0060779Y0020576D01*
X0061114Y0020911D01*
X0061351Y0021322D01*
X0061474Y0021780D01*
X0061474Y0023198D01*
X0061474Y0024616D01*
X0061351Y0025074D01*
X0061114Y0025484D01*
X0060901Y0025698D01*
X0061114Y0025911D01*
X0061351Y0026322D01*
X0061474Y0026780D01*
X0061474Y0028198D01*
X0061474Y0029616D01*
X0061351Y0030074D01*
X0061114Y0030484D01*
X0060779Y0030819D01*
X0060369Y0031056D01*
X0059911Y0031179D01*
X0055343Y0031179D01*
X0052779Y0031179D01*
X0053261Y0031661D01*
X0053806Y0032977D01*
X0053806Y0034402D01*
X0053261Y0035718D01*
X0052254Y0036726D01*
X0050938Y0037271D01*
X0049513Y0037271D01*
X0048197Y0036726D01*
X0047189Y0035718D01*
X0046644Y0034402D01*
X0046644Y0033503D01*
X0045800Y0032659D01*
X0045932Y0032977D01*
X0045932Y0034402D01*
X0045387Y0035718D01*
X0044779Y0036326D01*
X0045937Y0036326D01*
X0047472Y0036962D01*
X0048646Y0038136D01*
X0049282Y0039670D01*
X0049282Y0041331D01*
X0048646Y0042866D01*
X0047472Y0044040D01*
X0045937Y0044676D01*
X0044277Y0044676D01*
X0042742Y0044040D01*
X0041568Y0042866D01*
X0040932Y0041331D01*
X0040932Y0039670D01*
X0041568Y0038136D01*
X0042433Y0037271D01*
X0041639Y0037271D01*
X0040323Y0036726D01*
X0039315Y0035718D01*
X0038770Y0034402D01*
X0038770Y0032977D01*
X0039315Y0031661D01*
X0039951Y0031025D01*
X0039951Y0031024D01*
X0039896Y0031056D01*
X0039439Y0031179D01*
X0034871Y0031179D01*
X0034871Y0028198D01*
X0034871Y0028198D01*
X0034871Y0031179D01*
X0030303Y0031179D01*
X0029845Y0031056D01*
X0029435Y0030819D01*
X0029100Y0030484D01*
X0028863Y0030074D01*
X0028740Y0029616D01*
X0028740Y0028198D01*
X0034871Y0028198D01*
X0034871Y0033296D01*
X0034871Y0030967D02*
X0034871Y0030967D01*
X0034871Y0029368D02*
X0034871Y0029368D01*
X0034871Y0028198D02*
X0034871Y0028198D01*
X0028740Y0028198D01*
X0028740Y0026780D01*
X0028863Y0026322D01*
X0029100Y0025911D01*
X0029435Y0025576D01*
X0029460Y0025562D01*
X0028940Y0025041D01*
X0028940Y0021354D01*
X0029596Y0020698D01*
X0028940Y0020041D01*
X0028940Y0017030D01*
X0024279Y0021692D01*
X0024279Y0027578D01*
X0027204Y0030502D01*
X0027709Y0030502D01*
X0029025Y0031048D01*
X0030033Y0032055D01*
X0030578Y0033371D01*
X0030578Y0034796D01*
X0030033Y0036112D01*
X0029025Y0037119D01*
X0027709Y0037665D01*
X0026285Y0037665D01*
X0024968Y0037119D01*
X0023961Y0036112D01*
X0023416Y0034796D01*
X0023416Y0033503D01*
X0020519Y0030606D01*
X0019844Y0029931D01*
X0019479Y0029049D01*
X0019479Y0020220D01*
X0019844Y0019338D01*
X0027324Y0011858D01*
X0027820Y0011362D01*
X0023948Y0013446D01*
X0018564Y0017739D01*
X0018180Y0018179D02*
X0021003Y0018179D01*
X0020017Y0016580D02*
X0022602Y0016580D01*
X0022022Y0014982D02*
X0024200Y0014982D01*
X0024064Y0013383D02*
X0025799Y0013383D01*
X0027035Y0011785D02*
X0027397Y0011785D01*
X0028669Y0010906D02*
X0028882Y0010817D01*
X0029477Y0010817D01*
X0029877Y0010417D01*
X0039864Y0010417D01*
X0040245Y0010798D01*
X0043990Y0010798D01*
X0044038Y0010817D01*
X0045426Y0010817D01*
X0046742Y0011363D01*
X0047749Y0012370D01*
X0048294Y0013686D01*
X0048294Y0015111D01*
X0047749Y0016427D01*
X0046742Y0017434D01*
X0045426Y0017980D01*
X0044001Y0017980D01*
X0043683Y0017848D01*
X0048041Y0022206D01*
X0048716Y0022881D01*
X0049082Y0023764D01*
X0049082Y0029152D01*
X0049213Y0029283D01*
X0049213Y0028198D01*
X0055343Y0028198D01*
X0055343Y0031179D01*
X0055343Y0028198D01*
X0055343Y0028198D01*
X0055343Y0028198D01*
X0049213Y0028198D01*
X0049213Y0026780D01*
X0049335Y0026322D01*
X0049572Y0025911D01*
X0049786Y0025698D01*
X0049572Y0025484D01*
X0049335Y0025074D01*
X0049213Y0024616D01*
X0049213Y0023198D01*
X0055343Y0023198D01*
X0055343Y0028198D01*
X0063828Y0028198D01*
X0066170Y0030540D01*
X0065986Y0030724D02*
X0062205Y0030724D01*
X0062205Y0032746D01*
X0062327Y0033203D01*
X0062564Y0033614D01*
X0062899Y0033949D01*
X0063310Y0034186D01*
X0063768Y0034309D01*
X0065986Y0034309D01*
X0065986Y0030724D01*
X0065986Y0030967D02*
X0066354Y0030967D01*
X0066354Y0032565D02*
X0065986Y0032565D01*
X0065986Y0034164D02*
X0066354Y0034164D01*
X0066278Y0035762D02*
X0053217Y0035762D01*
X0053806Y0034164D02*
X0063272Y0034164D01*
X0062205Y0032565D02*
X0053636Y0032565D01*
X0055343Y0030967D02*
X0055343Y0030967D01*
X0055343Y0029368D02*
X0055343Y0029368D01*
X0055343Y0028198D02*
X0061474Y0028198D01*
X0055343Y0028198D01*
X0055343Y0028198D01*
X0055343Y0028198D01*
X0055343Y0025217D01*
X0055343Y0023198D01*
X0055343Y0023198D01*
X0055343Y0023198D01*
X0049213Y0023198D01*
X0049213Y0021780D01*
X0049335Y0021322D01*
X0049572Y0020911D01*
X0049907Y0020576D01*
X0049933Y0020562D01*
X0049413Y0020041D01*
X0049413Y0016354D01*
X0050069Y0015698D01*
X0049413Y0015041D01*
X0049413Y0011354D01*
X0050350Y0010417D01*
X0060337Y0010417D01*
X0061274Y0011354D01*
X0061274Y0011423D01*
X0068120Y0018269D01*
X0068795Y0018944D01*
X0069161Y0019827D01*
X0069161Y0020789D01*
X0069797Y0021425D01*
X0070342Y0022741D01*
X0070342Y0023934D01*
X0072957Y0026972D01*
X0075691Y0026972D01*
X0076628Y0027909D01*
X0076628Y0033171D01*
X0076163Y0033636D01*
X0076981Y0033417D01*
X0080162Y0033417D01*
X0081560Y0033792D01*
X0081067Y0032005D01*
X0078079Y0025801D01*
X0074032Y0020230D01*
X0074032Y0020230D01*
X0069055Y0015472D01*
X0063308Y0011678D01*
X0056976Y0008972D01*
X0050263Y0007440D01*
X0043384Y0007131D01*
X0036560Y0008055D01*
X0030012Y0010183D01*
X0028669Y0010906D01*
X0030005Y0010186D02*
X0059817Y0010186D01*
X0061636Y0011785D02*
X0063469Y0011785D01*
X0063234Y0013383D02*
X0065891Y0013383D01*
X0064833Y0014982D02*
X0068312Y0014982D01*
X0066431Y0016580D02*
X0070214Y0016580D01*
X0071886Y0018179D02*
X0068030Y0018179D01*
X0069140Y0019777D02*
X0073558Y0019777D01*
X0074864Y0021376D02*
X0069747Y0021376D01*
X0070342Y0022974D02*
X0076025Y0022974D01*
X0077187Y0024573D02*
X0070892Y0024573D01*
X0072268Y0026171D02*
X0078257Y0026171D01*
X0079027Y0027770D02*
X0076489Y0027770D01*
X0076628Y0029368D02*
X0079797Y0029368D01*
X0080567Y0030967D02*
X0076628Y0030967D01*
X0076628Y0032565D02*
X0081221Y0032565D01*
X0072863Y0030540D02*
X0069595Y0036643D01*
X0045107Y0050501D01*
X0042048Y0053346D02*
X0020886Y0053346D01*
X0021989Y0051748D02*
X0041105Y0051748D01*
X0040932Y0050149D02*
X0022907Y0050149D01*
X0023335Y0048551D02*
X0041396Y0048551D01*
X0042765Y0046952D02*
X0023726Y0046952D01*
X0023726Y0045354D02*
X0049330Y0045354D01*
X0047757Y0043755D02*
X0052154Y0043755D01*
X0054979Y0042156D02*
X0048940Y0042156D01*
X0049282Y0040558D02*
X0057804Y0040558D01*
X0060628Y0038959D02*
X0048987Y0038959D01*
X0047871Y0037361D02*
X0063453Y0037361D01*
X0064725Y0042156D02*
X0066958Y0042156D01*
X0066530Y0043755D02*
X0061900Y0043755D01*
X0059075Y0045354D02*
X0066488Y0045354D01*
X0066488Y0046952D02*
X0056251Y0046952D01*
X0053426Y0048551D02*
X0066879Y0048551D01*
X0067307Y0050149D02*
X0050602Y0050149D01*
X0049109Y0051748D02*
X0068225Y0051748D01*
X0069328Y0053346D02*
X0048166Y0053346D01*
X0042457Y0043755D02*
X0023684Y0043755D01*
X0023256Y0042156D02*
X0041274Y0042156D01*
X0040932Y0040558D02*
X0022742Y0040558D01*
X0021819Y0038959D02*
X0041227Y0038959D01*
X0042343Y0037361D02*
X0028442Y0037361D01*
X0030178Y0035762D02*
X0039359Y0035762D01*
X0038770Y0034164D02*
X0030578Y0034164D01*
X0030244Y0032565D02*
X0038941Y0032565D01*
X0042351Y0033690D02*
X0042351Y0025816D01*
X0039989Y0023454D01*
X0035127Y0023454D01*
X0034871Y0023198D01*
X0034871Y0018198D02*
X0040639Y0018198D01*
X0046682Y0024241D01*
X0046682Y0030146D01*
X0050225Y0033690D01*
X0047233Y0035762D02*
X0045343Y0035762D01*
X0045932Y0034164D02*
X0046644Y0034164D01*
X0049082Y0027770D02*
X0049213Y0027770D01*
X0049082Y0026171D02*
X0049422Y0026171D01*
X0049213Y0024573D02*
X0049082Y0024573D01*
X0049213Y0022974D02*
X0048755Y0022974D01*
X0049321Y0021376D02*
X0047211Y0021376D01*
X0045612Y0019777D02*
X0049413Y0019777D01*
X0049413Y0018179D02*
X0044014Y0018179D01*
X0047596Y0016580D02*
X0049413Y0016580D01*
X0049413Y0014982D02*
X0048294Y0014982D01*
X0048169Y0013383D02*
X0049413Y0013383D01*
X0049413Y0011785D02*
X0047164Y0011785D01*
X0044713Y0014398D02*
X0043513Y0013198D01*
X0034871Y0013198D01*
X0034851Y0013217D01*
X0029359Y0013217D01*
X0021879Y0020698D01*
X0021879Y0028572D01*
X0026997Y0033690D01*
X0026997Y0034083D01*
X0023816Y0035762D02*
X0018942Y0035762D01*
X0020591Y0037361D02*
X0025552Y0037361D01*
X0023416Y0034164D02*
X0016020Y0034164D01*
X0019611Y0029368D02*
X0010302Y0029368D01*
X0009702Y0030967D02*
X0020880Y0030967D01*
X0022478Y0032565D02*
X0009102Y0032565D01*
X0011139Y0027770D02*
X0019479Y0027770D01*
X0019479Y0026171D02*
X0012094Y0026171D01*
X0013049Y0024573D02*
X0019479Y0024573D01*
X0019479Y0022974D02*
X0014004Y0022974D01*
X0015387Y0021376D02*
X0019479Y0021376D01*
X0019662Y0019777D02*
X0016784Y0019777D01*
X0024279Y0022974D02*
X0028940Y0022974D01*
X0028940Y0021376D02*
X0024595Y0021376D01*
X0026193Y0019777D02*
X0028940Y0019777D01*
X0028940Y0018179D02*
X0027792Y0018179D01*
X0028940Y0024573D02*
X0024279Y0024573D01*
X0024279Y0026171D02*
X0028950Y0026171D01*
X0028740Y0027770D02*
X0024471Y0027770D01*
X0026070Y0029368D02*
X0028740Y0029368D01*
X0028831Y0030967D02*
X0029691Y0030967D01*
X0034921Y0008588D02*
X0055293Y0008588D01*
X0055343Y0013198D02*
X0059654Y0013198D01*
X0066761Y0020304D01*
X0066761Y0023454D01*
X0072863Y0030540D01*
X0064414Y0026171D02*
X0061265Y0026171D01*
X0061474Y0024573D02*
X0063348Y0024573D01*
X0063180Y0022974D02*
X0061474Y0022974D01*
X0061474Y0023198D02*
X0055343Y0023198D01*
X0061474Y0023198D01*
X0061366Y0021376D02*
X0063774Y0021376D01*
X0062840Y0019777D02*
X0061274Y0019777D01*
X0055343Y0023198D02*
X0055343Y0023198D01*
X0055343Y0024573D02*
X0055343Y0024573D01*
X0055343Y0026171D02*
X0055343Y0026171D01*
X0055343Y0027770D02*
X0055343Y0027770D01*
X0060523Y0030967D02*
X0062205Y0030967D01*
X0062205Y0029368D02*
X0061474Y0029368D01*
X0061474Y0027770D02*
X0062389Y0027770D01*
X0070927Y0054945D02*
X0019287Y0054945D01*
X0016684Y0056543D02*
X0073531Y0056543D01*
X0079939Y0061339D02*
X0010192Y0061339D01*
X0009592Y0059740D02*
X0080709Y0059740D01*
X0081303Y0058142D02*
X0008992Y0058142D01*
X0010963Y0062937D02*
X0079169Y0062937D01*
X0078399Y0064536D02*
X0011918Y0064536D01*
X0012873Y0066134D02*
X0077401Y0066134D01*
X0076239Y0067733D02*
X0013828Y0067733D01*
X0015130Y0069331D02*
X0037896Y0069331D01*
X0038367Y0068860D02*
X0041847Y0068860D01*
X0044307Y0071320D01*
X0044307Y0074800D01*
X0041847Y0077260D01*
X0038367Y0077260D01*
X0035907Y0074800D01*
X0035907Y0071320D01*
X0038367Y0068860D01*
X0036298Y0070930D02*
X0016526Y0070930D01*
X0017923Y0072528D02*
X0035907Y0072528D01*
X0035907Y0074127D02*
X0019648Y0074127D01*
X0021653Y0075725D02*
X0036833Y0075725D01*
X0034014Y0082119D02*
X0056583Y0082119D01*
X0060506Y0080521D02*
X0029458Y0080521D01*
X0026487Y0078922D02*
X0063915Y0078922D01*
X0066337Y0077324D02*
X0023657Y0077324D01*
X0042254Y0083718D02*
X0046790Y0083718D01*
X0048367Y0077260D02*
X0045907Y0074800D01*
X0045907Y0071320D01*
X0048367Y0068860D01*
X0051847Y0068860D01*
X0054307Y0071320D01*
X0054307Y0074800D01*
X0051847Y0077260D01*
X0048367Y0077260D01*
X0046833Y0075725D02*
X0043381Y0075725D01*
X0044307Y0074127D02*
X0045907Y0074127D01*
X0045907Y0072528D02*
X0044307Y0072528D01*
X0043917Y0070930D02*
X0046298Y0070930D01*
X0047896Y0069331D02*
X0042318Y0069331D01*
X0052318Y0069331D02*
X0075078Y0069331D01*
X0073866Y0070930D02*
X0053917Y0070930D01*
X0054307Y0072528D02*
X0072194Y0072528D01*
X0070522Y0074127D02*
X0054307Y0074127D01*
X0053381Y0075725D02*
X0068759Y0075725D01*
M02*
