G75*
%MOIN*%
%OFA0B0*%
%FSLAX25Y25*%
%IPPOS*%
%LPD*%
%AMOC8*
5,1,8,0,0,1.08239X$1,22.5*
%
%ADD10C,0.00500*%
%ADD11C,0.00600*%
%ADD12C,0.01000*%
%ADD13C,0.00591*%
D10*
X0025866Y0019093D02*
X0026374Y0018585D01*
X0028405Y0018585D01*
X0028912Y0019093D01*
X0028912Y0020108D01*
X0028405Y0020616D01*
X0027389Y0020616D01*
X0027389Y0019601D01*
X0026374Y0020616D02*
X0025866Y0020108D01*
X0025866Y0019093D01*
X0025866Y0021848D02*
X0028912Y0023879D01*
X0025866Y0023879D01*
X0025866Y0025111D02*
X0025866Y0026634D01*
X0026374Y0027141D01*
X0028405Y0027141D01*
X0028912Y0026634D01*
X0028912Y0025111D01*
X0025866Y0025111D01*
X0025866Y0021848D02*
X0028912Y0021848D01*
X0038662Y0022356D02*
X0039169Y0021848D01*
X0041200Y0021848D01*
X0041707Y0022356D01*
X0041707Y0023371D01*
X0041200Y0023879D01*
X0039169Y0023879D01*
X0038662Y0023371D01*
X0038662Y0022356D01*
X0039169Y0020616D02*
X0038662Y0020108D01*
X0038662Y0018585D01*
X0041707Y0018585D01*
X0041707Y0020108D01*
X0041200Y0020616D01*
X0039169Y0020616D01*
X0038662Y0025111D02*
X0041200Y0025111D01*
X0041707Y0025618D01*
X0041707Y0026634D01*
X0041200Y0027141D01*
X0038662Y0027141D01*
X0038662Y0028373D02*
X0038662Y0030404D01*
X0038662Y0029389D02*
X0041707Y0029389D01*
X0051457Y0023879D02*
X0053487Y0023879D01*
X0054503Y0022863D01*
X0053487Y0021848D01*
X0051457Y0021848D01*
X0051457Y0020616D02*
X0051457Y0018585D01*
X0052980Y0018585D01*
X0052472Y0019601D01*
X0052472Y0020108D01*
X0052980Y0020616D01*
X0053995Y0020616D01*
X0054503Y0020108D01*
X0054503Y0019093D01*
X0053995Y0018585D01*
X0055211Y0032975D02*
X0055211Y0036021D01*
X0054196Y0036021D02*
X0056226Y0036021D01*
X0057458Y0036021D02*
X0058474Y0035006D01*
X0059489Y0036021D01*
X0059489Y0032975D01*
X0060721Y0032975D02*
X0062752Y0032975D01*
X0061736Y0032975D02*
X0061736Y0036021D01*
X0060721Y0035006D01*
X0057458Y0036021D02*
X0057458Y0032975D01*
X0039478Y0052050D02*
X0038462Y0052050D01*
X0037955Y0052558D01*
X0039985Y0054588D01*
X0039985Y0052558D01*
X0039478Y0052050D01*
X0037955Y0052558D02*
X0037955Y0054588D01*
X0038462Y0055096D01*
X0039478Y0055096D01*
X0039985Y0054588D01*
X0041217Y0055948D02*
X0041217Y0058994D01*
X0042740Y0058994D01*
X0043248Y0058486D01*
X0043248Y0057471D01*
X0042740Y0056963D01*
X0041217Y0056963D01*
X0041073Y0059845D02*
X0039042Y0059845D01*
X0041073Y0061876D01*
X0041073Y0062384D01*
X0040565Y0062891D01*
X0039550Y0062891D01*
X0039042Y0062384D01*
X0037375Y0062891D02*
X0037375Y0059845D01*
X0037882Y0059845D02*
X0036867Y0059845D01*
X0036287Y0059501D02*
X0036287Y0058994D01*
X0036287Y0057978D02*
X0035780Y0057978D01*
X0036287Y0057978D02*
X0036287Y0055948D01*
X0035780Y0055948D02*
X0036795Y0055948D01*
X0034547Y0055948D02*
X0034547Y0057471D01*
X0034040Y0057978D01*
X0032517Y0057978D01*
X0032517Y0055948D01*
X0034076Y0055096D02*
X0034076Y0052050D01*
X0033061Y0052050D02*
X0035091Y0052050D01*
X0036323Y0052050D02*
X0036831Y0052050D01*
X0036831Y0052558D01*
X0036323Y0052558D01*
X0036323Y0052050D01*
X0034076Y0055096D02*
X0033061Y0054081D01*
X0031357Y0055948D02*
X0030342Y0055948D01*
X0030849Y0055948D02*
X0030849Y0057978D01*
X0030342Y0057978D01*
X0029110Y0057471D02*
X0029110Y0055948D01*
X0028094Y0055948D02*
X0028094Y0057471D01*
X0028602Y0057978D01*
X0029110Y0057471D01*
X0028094Y0057471D02*
X0027587Y0057978D01*
X0027079Y0057978D01*
X0027079Y0055948D01*
X0025847Y0056455D02*
X0025847Y0057471D01*
X0025340Y0057978D01*
X0024324Y0057978D01*
X0023817Y0057471D01*
X0023817Y0056455D01*
X0024324Y0055948D01*
X0025340Y0055948D01*
X0025847Y0056455D01*
X0025340Y0054081D02*
X0024324Y0054081D01*
X0023817Y0053573D01*
X0023817Y0052558D01*
X0024324Y0052050D01*
X0025340Y0052050D01*
X0025847Y0053065D02*
X0023817Y0053065D01*
X0022585Y0053065D02*
X0022585Y0055096D01*
X0022585Y0055948D02*
X0022585Y0058994D01*
X0022077Y0059845D02*
X0021062Y0059845D01*
X0020554Y0060353D01*
X0021062Y0061368D02*
X0022077Y0061368D01*
X0022585Y0060861D01*
X0022585Y0060353D01*
X0022077Y0059845D01*
X0021062Y0061368D02*
X0020554Y0061876D01*
X0020554Y0062384D01*
X0021062Y0062891D01*
X0022077Y0062891D01*
X0022585Y0062384D01*
X0024324Y0061876D02*
X0025340Y0061876D01*
X0025847Y0061368D01*
X0025847Y0059845D01*
X0024324Y0059845D01*
X0023817Y0060353D01*
X0024324Y0060861D01*
X0025847Y0060861D01*
X0027079Y0059845D02*
X0027079Y0061876D01*
X0027587Y0061876D01*
X0028094Y0061368D01*
X0028602Y0061876D01*
X0029110Y0061368D01*
X0029110Y0059845D01*
X0028094Y0059845D02*
X0028094Y0061368D01*
X0030342Y0061876D02*
X0030342Y0060353D01*
X0030849Y0059845D01*
X0032372Y0059845D01*
X0032372Y0061876D01*
X0033604Y0061368D02*
X0033604Y0060353D01*
X0034112Y0059845D01*
X0035127Y0059845D01*
X0035635Y0060861D02*
X0033604Y0060861D01*
X0033604Y0061368D02*
X0034112Y0061876D01*
X0035127Y0061876D01*
X0035635Y0061368D01*
X0035635Y0060861D01*
X0036867Y0062891D02*
X0037375Y0062891D01*
X0042305Y0062384D02*
X0042812Y0062891D01*
X0043828Y0062891D01*
X0044335Y0062384D01*
X0044335Y0061876D01*
X0043828Y0061368D01*
X0044335Y0060861D01*
X0044335Y0060353D01*
X0043828Y0059845D01*
X0042812Y0059845D01*
X0042305Y0060353D01*
X0043320Y0061368D02*
X0043828Y0061368D01*
X0045567Y0061368D02*
X0045567Y0062891D01*
X0047598Y0062891D01*
X0047090Y0061876D02*
X0046583Y0061876D01*
X0045567Y0061368D01*
X0045567Y0060353D02*
X0046075Y0059845D01*
X0047090Y0059845D01*
X0047598Y0060353D01*
X0047598Y0061368D01*
X0047090Y0061876D01*
X0047742Y0058994D02*
X0048250Y0058994D01*
X0048250Y0055948D01*
X0047742Y0055948D02*
X0048758Y0055948D01*
X0049918Y0055948D02*
X0051441Y0055948D01*
X0051948Y0056455D01*
X0051441Y0056963D01*
X0050425Y0056963D01*
X0049918Y0057471D01*
X0050425Y0057978D01*
X0051948Y0057978D01*
X0053180Y0057471D02*
X0053180Y0056455D01*
X0053688Y0055948D01*
X0054703Y0055948D01*
X0055211Y0056963D02*
X0053180Y0056963D01*
X0053180Y0057471D02*
X0053688Y0057978D01*
X0054703Y0057978D01*
X0055211Y0057471D01*
X0055211Y0056963D01*
X0059705Y0056455D02*
X0060213Y0055948D01*
X0061228Y0055948D01*
X0061736Y0056455D01*
X0061736Y0056963D01*
X0061228Y0057471D01*
X0060213Y0057471D01*
X0059705Y0057978D01*
X0059705Y0058486D01*
X0060213Y0058994D01*
X0061228Y0058994D01*
X0061736Y0058486D01*
X0062968Y0057471D02*
X0063476Y0057978D01*
X0064491Y0057978D01*
X0064999Y0057471D01*
X0064999Y0056963D01*
X0062968Y0056963D01*
X0062968Y0056455D02*
X0062968Y0057471D01*
X0062968Y0056455D02*
X0063476Y0055948D01*
X0064491Y0055948D01*
X0066231Y0055948D02*
X0066231Y0057978D01*
X0067754Y0057978D01*
X0068261Y0057471D01*
X0068261Y0055948D01*
X0069493Y0055948D02*
X0071016Y0055948D01*
X0071524Y0056455D01*
X0071016Y0056963D01*
X0070001Y0056963D01*
X0069493Y0057471D01*
X0070001Y0057978D01*
X0071524Y0057978D01*
X0072756Y0057471D02*
X0072756Y0056455D01*
X0073264Y0055948D01*
X0074279Y0055948D01*
X0074787Y0056455D01*
X0074787Y0057471D01*
X0074279Y0057978D01*
X0073264Y0057978D01*
X0072756Y0057471D01*
X0076019Y0057978D02*
X0076019Y0055948D01*
X0076019Y0056963D02*
X0077034Y0057978D01*
X0077541Y0057978D01*
X0073741Y0067542D02*
X0071710Y0067542D01*
X0073741Y0069573D01*
X0073741Y0070080D01*
X0073233Y0070588D01*
X0072218Y0070588D01*
X0071710Y0070080D01*
X0070478Y0070080D02*
X0070478Y0069065D01*
X0069971Y0068557D01*
X0068448Y0068557D01*
X0068448Y0067542D02*
X0068448Y0070588D01*
X0069971Y0070588D01*
X0070478Y0070080D01*
X0069463Y0068557D02*
X0070478Y0067542D01*
X0065463Y0076778D02*
X0063432Y0076778D01*
X0064448Y0076778D02*
X0064448Y0079824D01*
X0063432Y0078809D01*
X0062200Y0079317D02*
X0061693Y0079824D01*
X0060170Y0079824D01*
X0060170Y0076778D01*
X0061693Y0076778D01*
X0062200Y0077286D01*
X0062200Y0079317D01*
X0058938Y0079824D02*
X0056907Y0079824D01*
X0056907Y0076778D01*
X0058938Y0076778D01*
X0057922Y0078301D02*
X0056907Y0078301D01*
X0055675Y0076778D02*
X0053644Y0076778D01*
X0053644Y0079824D01*
X0046510Y0057978D02*
X0046510Y0055948D01*
X0044987Y0055948D01*
X0044480Y0056455D01*
X0044480Y0057978D01*
X0033749Y0048541D02*
X0033749Y0045495D01*
X0032734Y0045495D02*
X0034764Y0045495D01*
X0032734Y0047525D02*
X0033749Y0048541D01*
X0031502Y0048033D02*
X0031502Y0047018D01*
X0030994Y0046510D01*
X0029471Y0046510D01*
X0029471Y0045495D02*
X0029471Y0048541D01*
X0030994Y0048541D01*
X0031502Y0048033D01*
X0030487Y0046510D02*
X0031502Y0045495D01*
X0027079Y0052050D02*
X0027079Y0054081D01*
X0028094Y0054081D02*
X0027079Y0053065D01*
X0028094Y0054081D02*
X0028602Y0054081D01*
X0025847Y0053573D02*
X0025847Y0053065D01*
X0025847Y0053573D02*
X0025340Y0054081D01*
X0022585Y0053065D02*
X0021569Y0052050D01*
X0020554Y0053065D01*
X0020554Y0055096D01*
X0020554Y0055948D02*
X0020554Y0058994D01*
X0020554Y0057471D02*
X0022585Y0057471D01*
X0030849Y0058994D02*
X0030849Y0059501D01*
D11*
X0045107Y0079060D02*
X0045261Y0079058D01*
X0045415Y0079052D01*
X0045569Y0079042D01*
X0045723Y0079028D01*
X0045876Y0079011D01*
X0046028Y0078989D01*
X0046180Y0078963D01*
X0046332Y0078934D01*
X0046482Y0078900D01*
X0046632Y0078863D01*
X0046780Y0078822D01*
X0046928Y0078777D01*
X0047074Y0078728D01*
X0047219Y0078676D01*
X0047362Y0078620D01*
X0047505Y0078560D01*
X0047645Y0078497D01*
X0047784Y0078430D01*
X0047921Y0078359D01*
X0048056Y0078285D01*
X0048189Y0078208D01*
X0048321Y0078127D01*
X0048450Y0078043D01*
X0048577Y0077955D01*
X0048701Y0077864D01*
X0048823Y0077771D01*
X0048943Y0077673D01*
X0049060Y0077573D01*
X0049175Y0077470D01*
X0049287Y0077364D01*
X0049396Y0077256D01*
X0049502Y0077144D01*
X0049606Y0077030D01*
X0049706Y0076913D01*
X0049804Y0076794D01*
X0049898Y0076672D01*
X0049989Y0076547D01*
X0045107Y0067060D02*
X0044955Y0067062D01*
X0044804Y0067068D01*
X0044653Y0067077D01*
X0044501Y0067091D01*
X0044351Y0067108D01*
X0044201Y0067129D01*
X0044051Y0067154D01*
X0043902Y0067182D01*
X0043754Y0067215D01*
X0043607Y0067251D01*
X0043460Y0067290D01*
X0043315Y0067334D01*
X0043171Y0067381D01*
X0043028Y0067432D01*
X0042887Y0067486D01*
X0042746Y0067544D01*
X0042608Y0067605D01*
X0042471Y0067670D01*
X0042335Y0067739D01*
X0042202Y0067810D01*
X0042070Y0067885D01*
X0041940Y0067964D01*
X0041813Y0068045D01*
X0041687Y0068130D01*
X0041563Y0068218D01*
X0041442Y0068309D01*
X0041323Y0068403D01*
X0041207Y0068501D01*
X0041093Y0068601D01*
X0040981Y0068703D01*
X0040873Y0068809D01*
X0040767Y0068917D01*
X0040663Y0069028D01*
X0040563Y0069142D01*
X0040465Y0069258D01*
X0040371Y0069377D01*
X0045107Y0067060D02*
X0045259Y0067062D01*
X0045410Y0067068D01*
X0045561Y0067077D01*
X0045713Y0067091D01*
X0045863Y0067108D01*
X0046013Y0067129D01*
X0046163Y0067154D01*
X0046312Y0067182D01*
X0046460Y0067215D01*
X0046607Y0067251D01*
X0046754Y0067290D01*
X0046899Y0067334D01*
X0047043Y0067381D01*
X0047186Y0067432D01*
X0047327Y0067486D01*
X0047468Y0067544D01*
X0047606Y0067605D01*
X0047743Y0067670D01*
X0047879Y0067739D01*
X0048012Y0067810D01*
X0048144Y0067885D01*
X0048274Y0067964D01*
X0048401Y0068045D01*
X0048527Y0068130D01*
X0048651Y0068218D01*
X0048772Y0068309D01*
X0048891Y0068403D01*
X0049007Y0068501D01*
X0049121Y0068601D01*
X0049233Y0068703D01*
X0049341Y0068809D01*
X0049447Y0068917D01*
X0049551Y0069028D01*
X0049651Y0069142D01*
X0049749Y0069258D01*
X0049843Y0069377D01*
X0045107Y0079060D02*
X0044957Y0079058D01*
X0044806Y0079052D01*
X0044656Y0079043D01*
X0044507Y0079030D01*
X0044357Y0079013D01*
X0044208Y0078992D01*
X0044060Y0078968D01*
X0043912Y0078940D01*
X0043765Y0078908D01*
X0043619Y0078873D01*
X0043474Y0078833D01*
X0043330Y0078791D01*
X0043187Y0078744D01*
X0043045Y0078694D01*
X0042904Y0078641D01*
X0042765Y0078584D01*
X0042627Y0078524D01*
X0042491Y0078460D01*
X0042357Y0078393D01*
X0042224Y0078322D01*
X0042093Y0078248D01*
X0041964Y0078171D01*
X0041837Y0078090D01*
X0041712Y0078007D01*
X0041589Y0077920D01*
X0041468Y0077831D01*
X0041350Y0077738D01*
X0041234Y0077642D01*
X0041120Y0077544D01*
X0041009Y0077443D01*
X0040900Y0077338D01*
X0040795Y0077232D01*
X0040691Y0077122D01*
X0040591Y0077010D01*
X0040493Y0076896D01*
X0040399Y0076779D01*
X0040307Y0076660D01*
D12*
X0038161Y0069091D02*
X0038260Y0068922D01*
X0038364Y0068756D01*
X0038471Y0068592D01*
X0038582Y0068431D01*
X0038697Y0068273D01*
X0038816Y0068118D01*
X0038939Y0067965D01*
X0039065Y0067816D01*
X0039195Y0067670D01*
X0039329Y0067527D01*
X0039466Y0067387D01*
X0039606Y0067251D01*
X0039750Y0067118D01*
X0039897Y0066989D01*
X0040047Y0066863D01*
X0040200Y0066742D01*
X0040356Y0066623D01*
X0040515Y0066509D01*
X0040676Y0066399D01*
X0040841Y0066293D01*
X0041007Y0066190D01*
X0041177Y0066092D01*
X0041348Y0065998D01*
X0041522Y0065908D01*
X0041698Y0065823D01*
X0041876Y0065741D01*
X0042056Y0065665D01*
X0042238Y0065592D01*
X0042421Y0065524D01*
X0042606Y0065461D01*
X0042793Y0065402D01*
X0042981Y0065348D01*
X0043170Y0065298D01*
X0043360Y0065253D01*
X0043552Y0065213D01*
X0043744Y0065177D01*
X0043937Y0065146D01*
X0044131Y0065120D01*
X0044326Y0065098D01*
X0044521Y0065082D01*
X0044716Y0065070D01*
X0044912Y0065062D01*
X0045107Y0065060D01*
X0038048Y0076825D02*
X0038141Y0076993D01*
X0038237Y0077159D01*
X0038337Y0077323D01*
X0038442Y0077484D01*
X0038550Y0077643D01*
X0038662Y0077799D01*
X0038778Y0077953D01*
X0038897Y0078103D01*
X0039020Y0078251D01*
X0039146Y0078396D01*
X0039276Y0078537D01*
X0039409Y0078676D01*
X0039546Y0078811D01*
X0039686Y0078943D01*
X0039828Y0079071D01*
X0039974Y0079196D01*
X0040123Y0079318D01*
X0040275Y0079436D01*
X0040429Y0079550D01*
X0040587Y0079660D01*
X0040746Y0079767D01*
X0040909Y0079870D01*
X0041074Y0079969D01*
X0041241Y0080064D01*
X0041410Y0080154D01*
X0041581Y0080241D01*
X0041755Y0080324D01*
X0041930Y0080402D01*
X0042108Y0080476D01*
X0042287Y0080546D01*
X0042467Y0080612D01*
X0042649Y0080673D01*
X0042833Y0080730D01*
X0043018Y0080782D01*
X0043204Y0080830D01*
X0043391Y0080874D01*
X0043579Y0080913D01*
X0043768Y0080947D01*
X0043958Y0080977D01*
X0044148Y0081002D01*
X0044339Y0081023D01*
X0044531Y0081039D01*
X0044723Y0081051D01*
X0044915Y0081058D01*
X0045107Y0081060D01*
X0051214Y0067892D02*
X0051087Y0067746D01*
X0050958Y0067604D01*
X0050824Y0067464D01*
X0050688Y0067328D01*
X0050548Y0067195D01*
X0050405Y0067065D01*
X0050258Y0066939D01*
X0050109Y0066817D01*
X0049957Y0066698D01*
X0049802Y0066583D01*
X0049645Y0066471D01*
X0049485Y0066364D01*
X0049322Y0066260D01*
X0049156Y0066161D01*
X0048989Y0066065D01*
X0048819Y0065973D01*
X0048647Y0065886D01*
X0048473Y0065802D01*
X0048297Y0065723D01*
X0048119Y0065649D01*
X0047939Y0065578D01*
X0047758Y0065512D01*
X0047575Y0065450D01*
X0047391Y0065393D01*
X0047205Y0065340D01*
X0047018Y0065292D01*
X0046830Y0065248D01*
X0046641Y0065209D01*
X0046451Y0065174D01*
X0046261Y0065144D01*
X0046070Y0065118D01*
X0045878Y0065097D01*
X0045685Y0065081D01*
X0045493Y0065069D01*
X0045300Y0065062D01*
X0045107Y0065060D01*
X0051253Y0078182D02*
X0051126Y0078330D01*
X0050996Y0078475D01*
X0050863Y0078616D01*
X0050726Y0078755D01*
X0050586Y0078890D01*
X0050442Y0079021D01*
X0050295Y0079149D01*
X0050146Y0079274D01*
X0049993Y0079395D01*
X0049838Y0079512D01*
X0049679Y0079625D01*
X0049518Y0079734D01*
X0049354Y0079839D01*
X0049188Y0079941D01*
X0049019Y0080038D01*
X0048849Y0080131D01*
X0048675Y0080220D01*
X0048500Y0080305D01*
X0048323Y0080385D01*
X0048144Y0080461D01*
X0047963Y0080533D01*
X0047780Y0080600D01*
X0047596Y0080663D01*
X0047410Y0080721D01*
X0047223Y0080775D01*
X0047035Y0080824D01*
X0046845Y0080869D01*
X0046655Y0080909D01*
X0046463Y0080944D01*
X0046271Y0080975D01*
X0046078Y0081001D01*
X0045884Y0081022D01*
X0045690Y0081039D01*
X0045496Y0081051D01*
X0045302Y0081058D01*
X0045107Y0081060D01*
X0052194Y0046091D02*
X0052194Y0037627D01*
X0054556Y0037627D01*
X0061249Y0037627D02*
X0063611Y0037627D01*
X0063611Y0046091D01*
D13*
X0032858Y0070372D02*
X0032858Y0071811D01*
X0030953Y0072005D01*
X0030748Y0072645D01*
X0030440Y0073243D01*
X0031650Y0074727D01*
X0030633Y0075745D01*
X0029148Y0074535D01*
X0028551Y0074843D01*
X0027910Y0075048D01*
X0027717Y0076953D01*
X0026277Y0076953D01*
X0026083Y0075048D01*
X0025443Y0074843D01*
X0024845Y0074535D01*
X0023361Y0075745D01*
X0022343Y0074727D01*
X0023554Y0073243D01*
X0023246Y0072645D01*
X0023041Y0072005D01*
X0021135Y0071811D01*
X0021135Y0070372D01*
X0023041Y0070178D01*
X0023246Y0069538D01*
X0023554Y0068940D01*
X0022343Y0067456D01*
X0023361Y0066438D01*
X0024845Y0067648D01*
X0025443Y0067340D01*
X0026291Y0069386D01*
X0025912Y0069598D01*
X0025593Y0069893D01*
X0025352Y0070253D01*
X0025202Y0070660D01*
X0025151Y0071091D01*
X0025204Y0071530D01*
X0025360Y0071943D01*
X0025609Y0072308D01*
X0025938Y0072603D01*
X0026328Y0072811D01*
X0026756Y0072921D01*
X0027198Y0072925D01*
X0027628Y0072825D01*
X0028022Y0072625D01*
X0028357Y0072338D01*
X0028614Y0071979D01*
X0028779Y0071569D01*
X0028841Y0071131D01*
X0028798Y0070692D01*
X0028652Y0070275D01*
X0028410Y0069905D01*
X0028088Y0069603D01*
X0027703Y0069386D01*
X0028551Y0067340D01*
X0029148Y0067648D01*
X0030633Y0066438D01*
X0031650Y0067456D01*
X0030440Y0068940D01*
X0030748Y0069538D01*
X0030953Y0070178D01*
X0032858Y0070372D01*
X0032858Y0070525D02*
X0028740Y0070525D01*
X0028840Y0071114D02*
X0032858Y0071114D01*
X0032858Y0071703D02*
X0028725Y0071703D01*
X0028390Y0072292D02*
X0030861Y0072292D01*
X0030626Y0072881D02*
X0027387Y0072881D01*
X0026602Y0072881D02*
X0023367Y0072881D01*
X0023368Y0073470D02*
X0030626Y0073470D01*
X0031106Y0074059D02*
X0022888Y0074059D01*
X0022408Y0074648D02*
X0024706Y0074648D01*
X0025066Y0074648D02*
X0028928Y0074648D01*
X0029288Y0074648D02*
X0031586Y0074648D01*
X0031140Y0075237D02*
X0030010Y0075237D01*
X0027891Y0075237D02*
X0026103Y0075237D01*
X0026163Y0075827D02*
X0027831Y0075827D01*
X0027771Y0076416D02*
X0026223Y0076416D01*
X0023983Y0075237D02*
X0022854Y0075237D01*
X0023133Y0072292D02*
X0025599Y0072292D01*
X0025269Y0071703D02*
X0021135Y0071703D01*
X0021135Y0071114D02*
X0025154Y0071114D01*
X0025252Y0070525D02*
X0021135Y0070525D01*
X0023118Y0069936D02*
X0025564Y0069936D01*
X0026274Y0069347D02*
X0023344Y0069347D01*
X0023405Y0068758D02*
X0026030Y0068758D01*
X0025786Y0068169D02*
X0022925Y0068169D01*
X0022445Y0067580D02*
X0024761Y0067580D01*
X0024978Y0067580D02*
X0025542Y0067580D01*
X0024039Y0066991D02*
X0022808Y0066991D01*
X0027719Y0069347D02*
X0030650Y0069347D01*
X0030589Y0068758D02*
X0027963Y0068758D01*
X0028208Y0068169D02*
X0031069Y0068169D01*
X0031549Y0067580D02*
X0029232Y0067580D01*
X0029016Y0067580D02*
X0028452Y0067580D01*
X0029955Y0066991D02*
X0031185Y0066991D01*
X0030876Y0069936D02*
X0028431Y0069936D01*
M02*
