G75*
%MOIN*%
%OFA0B0*%
%FSLAX25Y25*%
%IPPOS*%
%LPD*%
%AMOC8*
5,1,8,0,0,1.08239X$1,22.5*
%
%ADD10C,0.00500*%
D10*
X0021266Y0026196D02*
X0023297Y0026196D01*
X0022282Y0026196D02*
X0022282Y0029242D01*
X0023297Y0028226D01*
X0024529Y0028734D02*
X0025037Y0029242D01*
X0026052Y0029242D01*
X0026560Y0028734D01*
X0026560Y0026703D01*
X0026052Y0026196D01*
X0025037Y0026196D01*
X0024529Y0026703D01*
X0027719Y0026196D02*
X0028735Y0026196D01*
X0028227Y0026196D02*
X0028227Y0029242D01*
X0028735Y0029242D02*
X0027719Y0029242D01*
X0040383Y0051800D02*
X0040230Y0051683D01*
X0040080Y0051561D01*
X0039933Y0051436D01*
X0039789Y0051308D01*
X0039649Y0051176D01*
X0039511Y0051041D01*
X0039377Y0050902D01*
X0039247Y0050760D01*
X0039120Y0050615D01*
X0038996Y0050467D01*
X0038876Y0050316D01*
X0038760Y0050162D01*
X0038648Y0050005D01*
X0038540Y0049845D01*
X0038435Y0049683D01*
X0038335Y0049518D01*
X0038239Y0049351D01*
X0038146Y0049182D01*
X0038058Y0049011D01*
X0037975Y0048837D01*
X0037895Y0048661D01*
X0037820Y0048484D01*
X0037749Y0048304D01*
X0037682Y0048123D01*
X0037620Y0047941D01*
X0037563Y0047757D01*
X0037510Y0047571D01*
X0037462Y0047384D01*
X0037418Y0047197D01*
X0037379Y0047008D01*
X0037344Y0046818D01*
X0037314Y0046628D01*
X0037289Y0046436D01*
X0037268Y0046245D01*
X0037252Y0046053D01*
X0037241Y0045860D01*
X0037235Y0045667D01*
X0037233Y0045474D01*
X0037236Y0045282D01*
X0037244Y0045089D01*
X0037256Y0044897D01*
X0037273Y0044704D01*
X0037295Y0044513D01*
X0037322Y0044322D01*
X0037353Y0044132D01*
X0037389Y0043942D01*
X0037429Y0043754D01*
X0037474Y0043566D01*
X0037524Y0043380D01*
X0037578Y0043195D01*
X0037637Y0043011D01*
X0037700Y0042829D01*
X0037768Y0042648D01*
X0037840Y0042469D01*
X0037916Y0042292D01*
X0037997Y0042117D01*
X0038082Y0041944D01*
X0038171Y0041773D01*
X0038265Y0041604D01*
X0038362Y0041438D01*
X0038464Y0041274D01*
X0038569Y0041113D01*
X0038679Y0040954D01*
X0038792Y0040798D01*
X0038909Y0040645D01*
X0039030Y0040494D01*
X0039154Y0040347D01*
X0039282Y0040203D01*
X0039414Y0040062D01*
X0039549Y0039924D01*
X0039687Y0039789D01*
X0039828Y0039658D01*
X0039973Y0039531D01*
X0040121Y0039407D01*
X0040271Y0039287D01*
X0040425Y0039170D01*
X0040582Y0039057D01*
X0040741Y0038948D01*
X0040902Y0038844D01*
X0041067Y0038743D01*
X0041233Y0038646D01*
X0041403Y0038553D01*
X0041574Y0038464D01*
X0041747Y0038380D01*
X0041923Y0038300D01*
X0042100Y0038224D01*
X0042279Y0038152D01*
X0042460Y0038085D01*
X0042642Y0038023D01*
X0042826Y0037965D01*
X0043011Y0037911D01*
X0043198Y0037862D01*
X0043385Y0037818D01*
X0043574Y0037778D01*
X0043764Y0037742D01*
X0043954Y0037712D01*
X0044145Y0037686D01*
X0044337Y0037665D01*
X0044529Y0037648D01*
X0044721Y0037636D01*
X0044914Y0037629D01*
X0045107Y0037627D01*
X0045300Y0037629D01*
X0045493Y0037636D01*
X0045685Y0037648D01*
X0045877Y0037665D01*
X0046069Y0037686D01*
X0046260Y0037712D01*
X0046450Y0037742D01*
X0046640Y0037778D01*
X0046829Y0037818D01*
X0047016Y0037862D01*
X0047203Y0037911D01*
X0047388Y0037965D01*
X0047572Y0038023D01*
X0047754Y0038085D01*
X0047935Y0038152D01*
X0048114Y0038224D01*
X0048291Y0038300D01*
X0048467Y0038380D01*
X0048640Y0038464D01*
X0048811Y0038553D01*
X0048981Y0038646D01*
X0049147Y0038743D01*
X0049312Y0038844D01*
X0049473Y0038948D01*
X0049632Y0039057D01*
X0049789Y0039170D01*
X0049943Y0039287D01*
X0050093Y0039407D01*
X0050241Y0039531D01*
X0050386Y0039658D01*
X0050527Y0039789D01*
X0050665Y0039924D01*
X0050800Y0040062D01*
X0050932Y0040203D01*
X0051060Y0040347D01*
X0051184Y0040494D01*
X0051305Y0040645D01*
X0051422Y0040798D01*
X0051535Y0040954D01*
X0051645Y0041113D01*
X0051750Y0041274D01*
X0051852Y0041438D01*
X0051949Y0041604D01*
X0052043Y0041773D01*
X0052132Y0041944D01*
X0052217Y0042117D01*
X0052298Y0042292D01*
X0052374Y0042469D01*
X0052446Y0042648D01*
X0052514Y0042829D01*
X0052577Y0043011D01*
X0052636Y0043195D01*
X0052690Y0043380D01*
X0052740Y0043566D01*
X0052785Y0043754D01*
X0052825Y0043942D01*
X0052861Y0044132D01*
X0052892Y0044322D01*
X0052919Y0044513D01*
X0052941Y0044704D01*
X0052958Y0044897D01*
X0052970Y0045089D01*
X0052978Y0045282D01*
X0052981Y0045474D01*
X0052979Y0045667D01*
X0052973Y0045860D01*
X0052962Y0046053D01*
X0052946Y0046245D01*
X0052925Y0046436D01*
X0052900Y0046628D01*
X0052870Y0046818D01*
X0052835Y0047008D01*
X0052796Y0047197D01*
X0052752Y0047384D01*
X0052704Y0047571D01*
X0052651Y0047757D01*
X0052594Y0047941D01*
X0052532Y0048123D01*
X0052465Y0048304D01*
X0052394Y0048484D01*
X0052319Y0048661D01*
X0052239Y0048837D01*
X0052156Y0049011D01*
X0052068Y0049182D01*
X0051975Y0049351D01*
X0051879Y0049518D01*
X0051779Y0049683D01*
X0051674Y0049845D01*
X0051566Y0050005D01*
X0051454Y0050162D01*
X0051338Y0050316D01*
X0051218Y0050467D01*
X0051094Y0050615D01*
X0050967Y0050760D01*
X0050837Y0050902D01*
X0050703Y0051041D01*
X0050565Y0051176D01*
X0050425Y0051308D01*
X0050281Y0051436D01*
X0050134Y0051561D01*
X0049984Y0051683D01*
X0049831Y0051800D01*
X0040383Y0051800D01*
X0040816Y0056381D02*
X0041832Y0056381D01*
X0042339Y0056888D01*
X0042339Y0057904D01*
X0041832Y0058411D01*
X0040816Y0058411D01*
X0040309Y0057904D01*
X0040309Y0057396D01*
X0042339Y0057396D01*
X0043535Y0058411D02*
X0044043Y0058411D01*
X0045058Y0057396D01*
X0045058Y0056381D02*
X0045058Y0058411D01*
X0046290Y0057904D02*
X0046290Y0056381D01*
X0047813Y0056381D01*
X0048321Y0056888D01*
X0047813Y0057396D01*
X0046290Y0057396D01*
X0046290Y0057904D02*
X0046798Y0058411D01*
X0047813Y0058411D01*
X0049553Y0058411D02*
X0049553Y0056888D01*
X0050060Y0056381D01*
X0050568Y0056888D01*
X0051076Y0056381D01*
X0051583Y0056888D01*
X0051583Y0058411D01*
X0052815Y0058411D02*
X0054338Y0058411D01*
X0054846Y0057904D01*
X0054846Y0056888D01*
X0054338Y0056381D01*
X0052815Y0056381D01*
X0052815Y0059427D01*
X0051583Y0060278D02*
X0050060Y0060278D01*
X0049553Y0060786D01*
X0050060Y0061294D01*
X0051076Y0061294D01*
X0051583Y0061801D01*
X0051076Y0062309D01*
X0049553Y0062309D01*
X0048321Y0060786D02*
X0047813Y0060786D01*
X0047813Y0060278D01*
X0048321Y0060278D01*
X0048321Y0060786D01*
X0046689Y0060786D02*
X0046182Y0060278D01*
X0045166Y0060278D01*
X0044659Y0060786D01*
X0044659Y0061801D01*
X0045166Y0062309D01*
X0046182Y0062309D01*
X0046689Y0061801D01*
X0046689Y0060786D01*
X0043427Y0060278D02*
X0043427Y0062309D01*
X0043427Y0061294D02*
X0042411Y0062309D01*
X0041904Y0062309D01*
X0040708Y0061801D02*
X0040708Y0060786D01*
X0040200Y0060278D01*
X0038677Y0060278D01*
X0038677Y0059771D02*
X0038677Y0062309D01*
X0040200Y0062309D01*
X0040708Y0061801D01*
X0039693Y0059263D02*
X0039185Y0059263D01*
X0038677Y0059771D01*
X0037445Y0058411D02*
X0036938Y0058411D01*
X0036938Y0056381D01*
X0037445Y0056381D02*
X0036430Y0056381D01*
X0035270Y0056888D02*
X0035270Y0057904D01*
X0034763Y0058411D01*
X0033747Y0058411D01*
X0033240Y0057904D01*
X0033240Y0056888D01*
X0033747Y0056381D01*
X0034763Y0056381D01*
X0035270Y0056888D01*
X0036938Y0059427D02*
X0036938Y0059934D01*
X0038569Y0056888D02*
X0038569Y0056381D01*
X0039077Y0056381D01*
X0039077Y0056888D01*
X0038569Y0056888D01*
X0052779Y0062309D02*
X0053287Y0062309D01*
X0054302Y0061294D01*
X0054302Y0062309D02*
X0054302Y0060278D01*
X0055534Y0060786D02*
X0055534Y0061801D01*
X0056042Y0062309D01*
X0057057Y0062309D01*
X0057565Y0061801D01*
X0057565Y0060786D01*
X0057057Y0060278D01*
X0056042Y0060278D01*
X0055534Y0060786D01*
X0056042Y0058411D02*
X0056550Y0058411D01*
X0057565Y0057396D01*
X0057565Y0056381D02*
X0057565Y0058411D01*
X0058797Y0057904D02*
X0058797Y0056381D01*
X0060320Y0056381D01*
X0060827Y0056888D01*
X0060320Y0057396D01*
X0058797Y0057396D01*
X0058797Y0057904D02*
X0059304Y0058411D01*
X0060320Y0058411D01*
X0062059Y0057904D02*
X0064090Y0057904D01*
X0065322Y0057904D02*
X0065322Y0056381D01*
X0064090Y0056381D02*
X0064090Y0059427D01*
X0064090Y0060278D02*
X0064090Y0062309D01*
X0062567Y0062309D01*
X0062059Y0061801D01*
X0062059Y0060278D01*
X0062059Y0059427D02*
X0062059Y0056381D01*
X0065322Y0057904D02*
X0065830Y0058411D01*
X0067353Y0058411D01*
X0067353Y0056381D01*
X0068585Y0057396D02*
X0070615Y0057396D01*
X0070615Y0057904D02*
X0070108Y0058411D01*
X0069092Y0058411D01*
X0068585Y0057904D01*
X0068585Y0057396D01*
X0069092Y0056381D02*
X0070108Y0056381D01*
X0070615Y0056888D01*
X0070615Y0057904D01*
X0071847Y0057904D02*
X0071847Y0056888D01*
X0072355Y0056381D01*
X0073878Y0056381D01*
X0073878Y0055365D02*
X0073878Y0058411D01*
X0072355Y0058411D01*
X0071847Y0057904D01*
X0072355Y0059263D02*
X0071847Y0059771D01*
X0071847Y0062309D01*
X0070615Y0062309D02*
X0070615Y0062817D01*
X0070108Y0063324D01*
X0069092Y0063324D01*
X0068585Y0062817D01*
X0069092Y0061801D02*
X0068585Y0061294D01*
X0068585Y0060786D01*
X0069092Y0060278D01*
X0070108Y0060278D01*
X0070615Y0060786D01*
X0070108Y0061801D02*
X0069092Y0061801D01*
X0070108Y0061801D02*
X0070615Y0062309D01*
X0071847Y0060278D02*
X0073370Y0060278D01*
X0073878Y0060786D01*
X0073878Y0062309D01*
X0075110Y0063324D02*
X0075110Y0060278D01*
X0075618Y0059427D02*
X0075110Y0058919D01*
X0075110Y0056888D01*
X0075618Y0056381D01*
X0076633Y0056381D01*
X0077141Y0056888D01*
X0077141Y0058919D01*
X0076633Y0059427D01*
X0075618Y0059427D01*
X0077141Y0060278D02*
X0077141Y0063324D01*
X0076125Y0062309D01*
X0075110Y0063324D01*
X0072863Y0059263D02*
X0072355Y0059263D01*
X0067353Y0060786D02*
X0066845Y0060278D01*
X0065830Y0060278D01*
X0065322Y0061294D02*
X0067353Y0061294D01*
X0067353Y0061801D02*
X0067353Y0060786D01*
X0067353Y0061801D02*
X0066845Y0062309D01*
X0065830Y0062309D01*
X0065322Y0061801D01*
X0065322Y0061294D01*
X0060827Y0061801D02*
X0060320Y0062309D01*
X0058797Y0062309D01*
X0059304Y0061294D02*
X0060320Y0061294D01*
X0060827Y0061801D01*
X0060827Y0060278D02*
X0059304Y0060278D01*
X0058797Y0060786D01*
X0059304Y0061294D01*
X0059424Y0051553D02*
X0057901Y0051553D01*
X0057393Y0051045D01*
X0057393Y0049014D01*
X0057901Y0048507D01*
X0059424Y0048507D01*
X0059424Y0051553D01*
X0056161Y0050537D02*
X0055146Y0051553D01*
X0055146Y0048507D01*
X0056161Y0048507D02*
X0054131Y0048507D01*
X0076710Y0031715D02*
X0078740Y0031715D01*
X0077725Y0031715D02*
X0077725Y0034761D01*
X0078740Y0033746D01*
X0079972Y0034254D02*
X0080480Y0034761D01*
X0081495Y0034761D01*
X0082003Y0034254D01*
X0082003Y0032223D01*
X0081495Y0031715D01*
X0080480Y0031715D01*
X0079972Y0032223D01*
M02*
